<?xml version="1.0" encoding="UTF-8" standalone="no"?>
<!-- Created with Inkscape (http://www.inkscape.org/) -->

<svg
   width="32"
   height="32"
   viewBox="0 0 32 32.000002"
   version="1.1"
   id="svg1"
   inkscape:version="1.4.3 (0d15f75042, 2025-12-25)"
   sodipodi:docname="chrome-store.svg"
   xmlns:inkscape="http://www.inkscape.org/namespaces/inkscape"
   xmlns:sodipodi="http://sodipodi.sourceforge.net/DTD/sodipodi-0.dtd"
   xmlns:xlink="http://www.w3.org/1999/xlink"
   xmlns="http://www.w3.org/2000/svg"
   xmlns:svg="http://www.w3.org/2000/svg">
  <sodipodi:namedview
     id="namedview1"
     pagecolor="#ffffff"
     bordercolor="#000000"
     borderopacity="0.25"
     inkscape:showpageshadow="2"
     inkscape:pageopacity="0.0"
     inkscape:pagecheckerboard="0"
     inkscape:deskcolor="#d1d1d1"
     inkscape:document-units="px"
     inkscape:zoom="24.9375"
     inkscape:cx="15.97995"
     inkscape:cy="16"
     inkscape:window-width="1854"
     inkscape:window-height="1011"
     inkscape:window-x="0"
     inkscape:window-y="0"
     inkscape:window-maximized="1"
     inkscape:current-layer="svg1"
     showguides="false" />
  <defs
     id="defs1">
    <linearGradient
       inkscape:collect="always"
       xlink:href="#linearGradient12495"
       id="linearGradient12497"
       x1="3.7041574"
       y1="5.15939"
       x2="8.9958239"
       y2="5.15939"
       gradientUnits="userSpaceOnUse"
       gradientTransform="matrix(2.6679017,0,0,2.6679017,-0.9411762,9.058824)" />
    <linearGradient
       inkscape:collect="always"
       id="linearGradient12495">
      <stop
         style="stop-color:#db3328;stop-opacity:1;"
         offset="0"
         id="stop12491" />
      <stop
         style="stop-color:#e53d30;stop-opacity:1"
         offset="1"
         id="stop12493" />
    </linearGradient>
    <linearGradient
       inkscape:collect="always"
       xlink:href="#linearGradient13171"
       id="linearGradient13173"
       x1="4.4023013"
       y1="4.2994838"
       x2="5.9898009"
       y2="7.474484"
       gradientUnits="userSpaceOnUse"
       gradientTransform="matrix(2.6679017,0,0,2.6679017,-0.9411762,9.058824)" />
    <linearGradient
       inkscape:collect="always"
       id="linearGradient13171">
      <stop
         style="stop-color:#32a651;stop-opacity:1;"
         offset="0"
         id="stop13167" />
      <stop
         style="stop-color:#279847;stop-opacity:1"
         offset="1"
         id="stop13169" />
    </linearGradient>
  </defs>
  <rect
     style="fill:#000000;stroke-width:1.75;opacity:0.2"
     id="rect1"
     width="28"
     height="28"
     x="2"
     y="3"
     ry="6" />
  <rect
     style="fill:#323232;fill-opacity:1"
     id="rect2"
     width="28"
     height="28"
     x="2"
     y="2"
     ry="6" />
  <path
     id="rect3"
     style="opacity:0.05;fill:#ffffff;fill-opacity:1"
     d="M 8 2 C 4.676 2 2 4.676 2 8 L 2 16 L 30 16 L 30 8 C 30 4.676 27.324 2 24 2 L 8 2 z " />
  <rect
     style="opacity:1;fill:#060606;fill-opacity:1"
     id="rect4"
     width="10"
     height="3"
     x="11"
     y="6"
     ry="1.5" />
  <g
     id="g4">
    <path
       id="path1309"
       style="fill:url(#linearGradient12497);fill-opacity:1;stroke-width:0.0468748"
       d="M 16 14 A 12 12 0 0 0 4.6777344 22.023438 L 6 27 L 10.804688 29 L 16 26 L 16 20 L 26.392578 20 A 12 12 0 0 0 16 14 z " />
    <path
       id="path1449"
       style="fill:url(#linearGradient13173);fill-opacity:1;stroke-width:0.0468748"
       d="M 5.2949219 20.578125 A 12 12 0 0 0 4 26 A 12 12 0 0 0 4.3183594 28.744141 C 5.3334818 29.531865 6.6098704 30 8 30 L 11.527344 30 L 19 30 C 19.795141 30 20.516351 29.978384 21.205078 29.945312 L 21.195312 29 L 16 26 L 10.804688 29 L 5.2949219 20.578125 z " />
    <path
       id="path1829"
       style="fill:#fbbf12;stroke-width:0.0468748"
       d="M 16 20 L 16 26 L 21.197266 29 L 20.251953 30 L 24 30 C 25.39017 30 26.666504 29.531907 27.681641 28.744141 A 12 12 0 0 0 28 26 A 12 12 0 0 0 26.392578 20 L 16 20 z " />
    <path
       id="path2229"
       style="fill:#ffffff;stroke-width:0.0468748"
       d="M 16 20 A 6 6 0 0 0 10 26 A 6 6 0 0 0 11.527344 30 L 20.472656 30 A 6 6 0 0 0 22 26 A 6 6 0 0 0 16 20 z " />
    <path
       id="path2029"
       style="fill:#4688f4;fill-opacity:1;stroke-width:0.0480764"
       d="m 16,21 c -2.761382,0 -5,2.23862 -5,5 0,1.636047 0.785228,3.087814 2,4 h 6 c 1.214771,-0.912186 2,-2.363953 2,-4 0,-2.76138 -2.238622,-5 -5,-5 z" />
  </g>
</svg>
