<?xml version="1.0" encoding="UTF-8" standalone="no"?>
<!-- Created with Inkscape (http://www.inkscape.org/) -->

<svg
   width="32"
   height="32"
   viewBox="0 0 32 32.000002"
   version="1.1"
   id="svg1"
   inkscape:version="1.4.2 (ebf0e940d0, 2025-05-08)"
   sodipodi:docname="cs-user-accounts.svg"
   xmlns:inkscape="http://www.inkscape.org/namespaces/inkscape"
   xmlns:sodipodi="http://sodipodi.sourceforge.net/DTD/sodipodi-0.dtd"
   xmlns:xlink="http://www.w3.org/1999/xlink"
   xmlns="http://www.w3.org/2000/svg"
   xmlns:svg="http://www.w3.org/2000/svg">
  <sodipodi:namedview
     id="namedview1"
     pagecolor="#ffffff"
     bordercolor="#000000"
     borderopacity="0.25"
     inkscape:showpageshadow="2"
     inkscape:pageopacity="0.0"
     inkscape:pagecheckerboard="0"
     inkscape:deskcolor="#d1d1d1"
     inkscape:document-units="px"
     inkscape:zoom="24.875"
     inkscape:cx="16"
     inkscape:cy="16"
     inkscape:window-width="1920"
     inkscape:window-height="1010"
     inkscape:window-x="0"
     inkscape:window-y="0"
     inkscape:window-maximized="1"
     inkscape:current-layer="svg1" />
  <defs
     id="defs1">
    <linearGradient
       inkscape:collect="always"
       xlink:href="#4852"
       id="linearGradient4"
       x1="16"
       y1="30"
       x2="16"
       y2="2"
       gradientUnits="userSpaceOnUse" />
    <linearGradient
       inkscape:collect="always"
       id="4852">
      <stop
         style="stop-color:#272727;stop-opacity:1;"
         offset="0"
         id="stop14555" />
      <stop
         style="stop-color:#5d5d5d;stop-opacity:1;"
         offset="1"
         id="stop14557" />
    </linearGradient>
  </defs>
  <rect
     style="fill:#000000;stroke-width:1.75;opacity:0.2"
     id="rect1"
     width="28"
     height="28"
     x="2"
     y="3"
     ry="6" />
  <rect
     style="fill:url(#linearGradient4)"
     id="rect2"
     width="28"
     height="28"
     x="2"
     y="2"
     ry="6" />
  <path
     id="path354"
     style="fill:#ffffff;stroke-width:0.75"
     d="M 19,8 C 17.542051,8 16.32736,9.039406 16.056641,10.417969 16.645467,11.114522 17,12.01597 17,13 17,13.07743 16.9985,13.154124 16.9941,13.230469 17.525578,13.708773 18.228313,14 19,14 c 1.6575,0 3,-1.3425 3,-3 0,-1.6575 -1.3425,-3.0000002 -3,-3 z m -6,2 c -1.656855,0 -3,1.34325 -3,3 0,1.6575 1.3425,3 3,3 1.6575,0 3,-1.3425 3,-3 0,-1.6575 -1.3425,-3 -3,-3 z m 6,6 c -1.886981,0.0014 -3.179686,0.496074 -4.066406,1.173828 2.883561,0.56087 4.124653,2.371023 4.660156,3.826172 H 25 c 0,0 0,-5.003333 -6,-5 z m -6,2 C 6.9997,18.0043 7,22.998047 7,22.998047 L 19,23 c 0,0 0,-5.003333 -6,-5 z" />
</svg>
