<?xml version="1.0" encoding="UTF-8" standalone="no"?>
<!-- Created with Inkscape (http://www.inkscape.org/) -->

<svg
   width="32"
   height="32"
   viewBox="0 0 32 32.000002"
   version="1.1"
   id="svg1"
   inkscape:version="1.4.2 (ebf0e940d0, 2025-05-08)"
   sodipodi:docname="electron.svg"
   xmlns:inkscape="http://www.inkscape.org/namespaces/inkscape"
   xmlns:sodipodi="http://sodipodi.sourceforge.net/DTD/sodipodi-0.dtd"
   xmlns:xlink="http://www.w3.org/1999/xlink"
   xmlns="http://www.w3.org/2000/svg"
   xmlns:svg="http://www.w3.org/2000/svg">
  <sodipodi:namedview
     id="namedview1"
     pagecolor="#ffffff"
     bordercolor="#000000"
     borderopacity="0.25"
     inkscape:showpageshadow="2"
     inkscape:pageopacity="0.0"
     inkscape:pagecheckerboard="0"
     inkscape:deskcolor="#d1d1d1"
     inkscape:document-units="px"
     inkscape:zoom="25.28125"
     inkscape:cx="16"
     inkscape:cy="16"
     inkscape:window-width="1920"
     inkscape:window-height="1011"
     inkscape:window-x="0"
     inkscape:window-y="0"
     inkscape:window-maximized="1"
     inkscape:current-layer="svg1" />
  <defs
     id="defs1">
    <linearGradient
       inkscape:collect="always"
       xlink:href="#4852"
       id="linearGradient4"
       x1="16"
       y1="30"
       x2="16"
       y2="2"
       gradientUnits="userSpaceOnUse" />
    <linearGradient
       inkscape:collect="always"
       id="4852">
      <stop
         style="stop-color:#272727;stop-opacity:1;"
         offset="0"
         id="stop14555" />
      <stop
         style="stop-color:#5d5d5d;stop-opacity:1;"
         offset="1"
         id="stop14557" />
    </linearGradient>
  </defs>
  <rect
     style="opacity:0.2;fill:#000000;stroke-width:1.75"
     id="rect1"
     width="28"
     height="28"
     x="2"
     y="3"
     ry="6" />
  <rect
     style="fill:url(#linearGradient4);stroke-width:1"
     id="rect2"
     width="28"
     height="28"
     x="2"
     y="2"
     ry="6" />
  <path
     d="m 16.429688,5.3349897 c -0.510148,0.02395 -0.973058,0.3058186 -1.228516,0.748047 -0.414106,0.7173366 -0.168409,1.6345486 0.548828,2.0488276 0.480421,0.277227 1.074613,0.266711 1.544922,-0.02734 0.452935,0.491149 0.863824,1.119611 1.222656,1.845703 -1.877497,0.6273197 -3.907765,1.6710987 -5.726562,2.9414067 -1.168636,0.816212 -2.118408,1.840857 -2.855469,2.943359 -0.03073,-0.03808 -0.06172,-0.07699 -0.0918,-0.115234 C 8.360678,13.834172 7.737465,11.799108 8.263669,10.542024 8.53659,9.8900273 8.913266,9.6072403 9.384762,9.4619463 c 0.471497,-0.145293 1.060621,-0.115292 1.640626,0.01367 1.160009,0.257929 2.216794,0.8847657 2.216797,0.8847657 0.235773,0.142391 0.542301,0.06729 0.685546,-0.167969 0.143378,-0.2367017 0.06722,-0.5448467 -0.169922,-0.6874997 0,0 -1.149195,-0.702032 -2.515624,-1.005859 -0.68322,-0.151914 -1.434882,-0.213276 -2.152344,0.0078 -0.717463,0.221088 -1.376851,0.761662 -1.748047,1.6484367 -0.762031,1.820465 0.106571,4.138822 1.714843,6.183593 0.106111,0.134911 0.21514,0.269718 0.328125,0.402344 C 8.717327,17.958835 8.293545,19.22653 8.107419,20.385774 7.453955,20.562975 7.000203,21.155973 7,21.83304 c 0,0.828427 0.671573,1.5 1.5,1.5 0.828427,0 1.5,-0.671573 1.5,-1.5 3.67e-4,-0.589174 -0.344217,-1.124 -0.880859,-1.367188 0.164747,-0.913022 0.49991,-1.92857 1.005859,-2.925781 1.526438,1.529289 3.497534,2.801044 5.642578,3.382813 1.297861,0.352 2.626968,0.442948 3.857422,0.390625 -0.09239,0.41006 -0.201023,0.797929 -0.324219,1.160156 -0.321176,0.944388 -0.74623,1.70239 -1.234375,2.193359 -0.488144,0.490969 -1.009575,0.726985 -1.660156,0.701172 -1.434403,-0.05691 -2.248784,-0.713322 -2.757812,-1.371094 -0.509029,-0.657769 -0.66211,-1.283203 -0.66211,-1.283203 -0.06546,-0.268843 -0.336813,-0.433407 -0.605469,-0.367187 -0.268843,0.06546 -0.433407,0.336813 -0.367187,0.605469 0,0 0.202772,0.827974 0.84375,1.65625 0.640978,0.828276 1.771285,1.690866 3.507812,1.759765 0.934885,0.03709 1.768716,-0.350942 2.410157,-0.996094 0.64144,-0.64515 1.118398,-1.53451 1.472656,-2.576171 0.16623,-0.488784 0.30511,-1.012856 0.417969,-1.5625 1.010751,-0.108468 1.920425,-0.297632 2.642578,-0.490235 0.457583,0.598907 1.288527,0.765263 1.941406,0.388672 0.717237,-0.41428 0.962934,-1.331491 0.548828,-2.048828 -0.274097,-0.475089 -0.785644,-0.762693 -1.333984,-0.75 -0.251376,0.0061 -0.497191,0.07526 -0.714844,0.201172 -0.445642,0.257666 -0.728029,0.725852 -0.748047,1.240234 -0.597039,0.15077 -1.338585,0.303427 -2.15625,0.40625 0.211611,-1.528959 0.241707,-3.205537 0.09766,-4.875 -0.144428,-1.673803 -0.484775,-3.304323 -1.021484,-4.726562 0.01421,-0.0035 0.0288,-0.0063 0.04297,-0.0098 1.007523,-0.244459 1.901584,-0.314606 2.558594,-0.201172 0.657008,0.113436 1.044979,0.366314 1.257812,0.810547 1.014636,2.11779 -0.671875,4.435547 -0.671875,4.435547 -0.164813,0.221187 -0.119367,0.534062 0.101563,0.699219 0.221187,0.164812 0.534061,0.119367 0.699218,-0.101563 0,0 2.086464,-2.726194 0.773438,-5.466797 -0.369093,-0.7702947 -1.125103,-1.2119247 -1.99024,-1.3612937 -0.865136,-0.149369 -1.871918,-0.05034 -2.964843,0.214844 -0.06649,0.01613 -0.134056,0.03339 -0.201172,0.05078 C 19.089962,8.7267743 18.556119,7.9236323 17.925781,7.2959273 18.144327,6.6227983 17.862654,5.8884957 17.25,5.5342083 17.001272,5.3906437 16.716558,5.321499 16.429688,5.3349897 Z M 16.5,6.3330367 c 0.276142,0 0.5,0.2238576 0.5,0.4999996 0,0.276143 -0.223858,0.5 -0.5,0.5 -0.276142,0 -0.5,-0.223857 -0.5,-0.5 0,-0.276142 0.223858,-0.4999996 0.5,-0.4999996 z m 2.423828,4.5351553 c 0.522456,1.330696 0.882966,2.895487 1.023438,4.523438 0.145484,1.686033 0.09955,3.385159 -0.128907,4.886718 -1.223459,0.07716 -2.547724,0.01636 -3.789062,-0.320312 -2.025835,-0.549438 -3.947862,-1.822589 -5.390625,-3.326172 0.690143,-1.101498 1.597673,-2.132833 2.724609,-2.919922 1.770477,-1.236558 3.775349,-2.255677 5.560547,-2.84375 z M 16.5,14.333036 c -0.823386,0 -1.5,0.676614 -1.5,1.5 0,0.823386 0.676614,1.5 1.5,1.5 0.823386,0 1.5,-0.676614 1.5,-1.5 0,-0.823386 -0.676614,-1.5 -1.5,-1.5 z m 8,5 c 0.276142,0 0.5,0.223858 0.5,0.5 0,0.276142 -0.223858,0.5 -0.5,0.5 -0.276142,0 -0.5,-0.223858 -0.5,-0.5 0,-0.276142 0.223858,-0.5 0.5,-0.5 z m -16,2 c 0.276142,0 0.5,0.223858 0.5,0.5 0,0.276142 -0.223858,0.5 -0.5,0.5 -0.276142,0 -0.5,-0.223858 -0.5,-0.5 0,-0.276142 0.223858,-0.5 0.5,-0.5 z"
     style="baseline-shift:baseline;display:inline;overflow:visible;vector-effect:none;fill:#cff7ff;stroke-width:1;stroke-linecap:round;enable-background:accumulate;stop-color:#000000"
     id="path1" />
</svg>
