<?xml version="1.0" encoding="UTF-8" standalone="no"?>
<!-- Created with Inkscape (http://www.inkscape.org/) -->

<svg
   width="32"
   height="32"
   viewBox="0 0 32 32.000002"
   version="1.1"
   id="svg1"
   inkscape:version="1.4.3 (0d15f75042, 2025-12-25)"
   sodipodi:docname="instagram.svg"
   xmlns:inkscape="http://www.inkscape.org/namespaces/inkscape"
   xmlns:sodipodi="http://sodipodi.sourceforge.net/DTD/sodipodi-0.dtd"
   xmlns:xlink="http://www.w3.org/1999/xlink"
   xmlns="http://www.w3.org/2000/svg"
   xmlns:svg="http://www.w3.org/2000/svg">
  <sodipodi:namedview
     id="namedview1"
     pagecolor="#ffffff"
     bordercolor="#000000"
     borderopacity="0.25"
     inkscape:showpageshadow="2"
     inkscape:pageopacity="0.0"
     inkscape:pagecheckerboard="0"
     inkscape:deskcolor="#d1d1d1"
     inkscape:document-units="px"
     inkscape:zoom="25.3125"
     inkscape:cx="16"
     inkscape:cy="16"
     inkscape:window-width="1920"
     inkscape:window-height="1012"
     inkscape:window-x="0"
     inkscape:window-y="0"
     inkscape:window-maximized="1"
     inkscape:current-layer="svg1" />
  <defs
     id="defs1">
    <linearGradient
       inkscape:collect="always"
       xlink:href="#4852"
       id="linearGradient4"
       x1="2"
       y1="2"
       x2="30"
       y2="30"
       gradientUnits="userSpaceOnUse" />
    <linearGradient
       inkscape:collect="always"
       id="4852">
      <stop
         style="stop-color:#272727;stop-opacity:1;"
         offset="0"
         id="stop14555" />
      <stop
         style="stop-color:#5d5d5d;stop-opacity:1;"
         offset="1"
         id="stop14557" />
    </linearGradient>
    <radialGradient
       inkscape:collect="always"
       xlink:href="#linearGradient12"
       id="radialGradient7"
       cx="1.7142857"
       cy="26.513166"
       fx="1.7142857"
       fy="26.513166"
       r="28"
       gradientUnits="userSpaceOnUse"
       gradientTransform="matrix(0,-0.87499995,0.86402115,0,-11.648677,33.5)" />
    <linearGradient
       id="linearGradient12">
      <stop
         id="stop7"
         stop-color="#fd5"
         offset="0"
         style="stop-color:#ffdd57;stop-opacity:1;" />
      <stop
         id="stop8"
         stop-color="#fd5"
         offset=".1" />
      <stop
         id="stop10"
         stop-color="#ff543e"
         offset=".5" />
      <stop
         id="stop12"
         stop-color="#c837ab"
         offset="1" />
    </linearGradient>
    <radialGradient
       inkscape:collect="always"
       xlink:href="#linearGradient5"
       id="radialGradient6"
       cx="-14.757336"
       cy="15.403809"
       fx="-14.757336"
       fy="15.403809"
       r="28"
       gradientUnits="userSpaceOnUse"
       gradientTransform="matrix(0.03889221,0.3523245,-1.1624833,0.12832361,19.665802,7.7630165)" />
    <linearGradient
       id="linearGradient5">
      <stop
         id="stop1"
         stop-color="#3771c8"
         offset="0"
         style="stop-color:#3771c8;stop-opacity:1;" />
      <stop
         id="stop3"
         offset=".128"
         stop-color="#3771c8" />
      <stop
         id="stop5"
         stop-opacity="0"
         stop-color="#60f"
         offset="1" />
    </linearGradient>
  </defs>
  <rect
     style="fill:#000000;stroke-width:1.75;opacity:0.2"
     id="rect1"
     width="28"
     height="28"
     x="2"
     y="3"
     ry="6" />
  <rect
     style="fill:url(#linearGradient4)"
     id="rect2"
     width="28"
     height="28"
     x="2"
     y="2"
     ry="6" />
  <path
     id="path1"
     style="fill:url(#radialGradient7);stroke-width:1"
     d="M 12,6 C 8.6932972,6 6,8.6932972 6,12 v 8 c 0,3.306703 2.6932972,6 6,6 h 8 c 3.306703,0 6,-2.693297 6,-6 V 12 C 26,8.6932972 23.306703,6 20,6 Z m 0,2 h 8 c 2.233297,0 4,1.7667028 4,4 v 8 c 0,2.233297 -1.766703,4 -4,4 H 12 C 9.7667028,24 8,22.233297 8,20 V 12 C 8,9.7667028 9.7667028,8 12,8 Z m 9.5,1 C 20.671573,9 20,9.6715729 20,10.5 20,11.328427 20.671573,12 21.5,12 22.328427,12 23,11.328427 23,10.5 23,9.6715729 22.328427,9 21.5,9 Z M 16,11 c -2.749579,0 -5,2.250421 -5,5 0,2.749579 2.250421,5 5,5 2.749579,0 5,-2.250421 5,-5 0,-2.749579 -2.250421,-5 -5,-5 z m 0,2 c 1.668699,0 3,1.331301 3,3 0,1.668699 -1.331301,3 -3,3 -1.668699,0 -3,-1.331301 -3,-3 0,-1.668699 1.331301,-3 3,-3 z" />
  <path
     id="path2"
     style="fill:url(#radialGradient6);stroke-width:0.5"
     d="M 12,6 C 8.6932972,6 6,8.6932972 6,12 v 8 c 0,3.306703 2.6932972,6 6,6 h 8 c 3.306703,0 6,-2.693297 6,-6 V 12 C 26,8.6932972 23.306703,6 20,6 Z m 0,2 h 8 c 2.233297,0 4,1.7667028 4,4 v 8 c 0,2.233297 -1.766703,4 -4,4 H 12 C 9.7667028,24 8,22.233297 8,20 V 12 C 8,9.7667028 9.7667028,8 12,8 Z m 9.5,1 C 20.671573,9 20,9.6715729 20,10.5 20,11.328427 20.671573,12 21.5,12 22.328427,12 23,11.328427 23,10.5 23,9.6715729 22.328427,9 21.5,9 Z M 16,11 c -2.749579,0 -5,2.250421 -5,5 0,2.749579 2.250421,5 5,5 2.749579,0 5,-2.250421 5,-5 0,-2.749579 -2.250421,-5 -5,-5 z m 0,2 c 1.668699,0 3,1.331301 3,3 0,1.668699 -1.331301,3 -3,3 -1.668699,0 -3,-1.331301 -3,-3 0,-1.668699 1.331301,-3 3,-3 z" />
</svg>
