<?xml version="1.0" encoding="UTF-8" standalone="no"?>
<!-- Created with Inkscape (http://www.inkscape.org/) -->

<svg
   width="32"
   height="32"
   viewBox="0 0 32 32.000002"
   version="1.1"
   id="svg1"
   inkscape:version="1.4.3 (0d15f75042, 2025-12-25)"
   sodipodi:docname="pulseeffects.svg"
   xmlns:inkscape="http://www.inkscape.org/namespaces/inkscape"
   xmlns:sodipodi="http://sodipodi.sourceforge.net/DTD/sodipodi-0.dtd"
   xmlns:xlink="http://www.w3.org/1999/xlink"
   xmlns="http://www.w3.org/2000/svg"
   xmlns:svg="http://www.w3.org/2000/svg">
  <sodipodi:namedview
     id="namedview1"
     pagecolor="#ffffff"
     bordercolor="#000000"
     borderopacity="0.25"
     inkscape:showpageshadow="2"
     inkscape:pageopacity="0.0"
     inkscape:pagecheckerboard="0"
     inkscape:deskcolor="#d1d1d1"
     inkscape:document-units="px"
     inkscape:zoom="25.3125"
     inkscape:cx="16"
     inkscape:cy="16"
     inkscape:window-width="1920"
     inkscape:window-height="1012"
     inkscape:window-x="0"
     inkscape:window-y="0"
     inkscape:window-maximized="1"
     inkscape:current-layer="svg1" />
  <defs
     id="defs1">
    <linearGradient
       inkscape:collect="always"
       xlink:href="#4852"
       id="linearGradient4"
       x1="16"
       y1="30"
       x2="16"
       y2="2"
       gradientUnits="userSpaceOnUse" />
    <linearGradient
       inkscape:collect="always"
       id="4852">
      <stop
         style="stop-color:#272727;stop-opacity:1;"
         offset="0"
         id="stop14555" />
      <stop
         style="stop-color:#5d5d5d;stop-opacity:1;"
         offset="1"
         id="stop14557" />
    </linearGradient>
  </defs>
  <rect
     style="fill:#000000;stroke-width:1.75;opacity:0.2"
     id="rect1"
     width="28"
     height="28"
     x="2"
     y="3"
     ry="6" />
  <rect
     style="fill:url(#linearGradient4)"
     id="rect2"
     width="28"
     height="28"
     x="2"
     y="2"
     ry="6" />
  <rect
     style="opacity:0.4;fill:#f9f9f9;stroke-width:1.89737"
     id="rect3"
     width="2"
     height="18"
     x="8"
     y="7"
     ry="1" />
  <rect
     style="opacity:0.4;fill:#f9f9f9;stroke-width:1.89737"
     id="rect4"
     width="2"
     height="18"
     x="15"
     y="7"
     ry="1" />
  <rect
     style="fill:#bef3ff;fill-opacity:1"
     id="rect5-6"
     width="2"
     height="11"
     x="8"
     y="14"
     ry="1" />
  <rect
     style="fill:#bef3ff;fill-opacity:1"
     id="rect6"
     width="2"
     height="6"
     x="15"
     y="19"
     ry="1" />
  <rect
     style="opacity:0.4;fill:#f9f9f9"
     id="rect5"
     width="2"
     height="18"
     x="22"
     y="7"
     ry="1" />
  <rect
     style="fill:#bef3ff;fill-opacity:1"
     id="rect7"
     width="2"
     height="9"
     x="22"
     y="16"
     ry="1" />
  <path
     id="path1"
     style="opacity:0.2;fill:#000000;stroke-width:0.999994"
     d="m 9,11 c -1.6568542,0 -3,1.343145 -3,3 0,1.656855 1.3431458,3 3,3 1.656855,0 3,-1.343145 3,-3 0,-1.656855 -1.343145,-3 -3,-3 z m 14,2 c -1.656854,0 -3,1.343145 -3,3 0,1.656855 1.343146,3 3,3 1.656855,0 3,-1.343145 3,-3 0,-1.656855 -1.343145,-3 -3,-3 z m -7,3 c -1.656854,0 -3,1.343145 -3,3 0,1.656855 1.343146,3 3,3 1.656855,0 3,-1.343145 3,-3 0,-1.656855 -1.343145,-3 -3,-3 z" />
  <path
     id="path2"
     style="fill:#f9f9f9;fill-opacity:1;stroke-width:4;stroke-linecap:round;stroke-linejoin:round"
     d="m 9,12 c -1.10457,0 -2,0.89543 -2,2 0,1.10457 0.89543,2 2,2 1.104569,0 2,-0.89543 2,-2 0,-1.10457 -0.895431,-2 -2,-2 z m 14,2 c -1.10457,0 -2,0.89543 -2,2 0,1.10457 0.89543,2 2,2 1.104569,0 2,-0.89543 2,-2 0,-1.10457 -0.895431,-2 -2,-2 z m -7,3 c -1.10457,0 -2,0.89543 -2,2 0,1.10457 0.89543,2 2,2 1.104569,0 2,-0.89543 2,-2 0,-1.10457 -0.895431,-2 -2,-2 z" />
</svg>
