<?xml version="1.0" encoding="UTF-8" standalone="no"?>
<!-- Created with Inkscape (http://www.inkscape.org/) -->

<svg
   width="32"
   height="32"
   viewBox="0 0 32 32.000002"
   version="1.1"
   id="svg1"
   inkscape:version="1.4.2 (ebf0e940d0, 2025-05-08)"
   sodipodi:docname="qbittorrent.svg"
   xmlns:inkscape="http://www.inkscape.org/namespaces/inkscape"
   xmlns:sodipodi="http://sodipodi.sourceforge.net/DTD/sodipodi-0.dtd"
   xmlns:xlink="http://www.w3.org/1999/xlink"
   xmlns="http://www.w3.org/2000/svg"
   xmlns:svg="http://www.w3.org/2000/svg">
  <sodipodi:namedview
     id="namedview1"
     pagecolor="#ffffff"
     bordercolor="#000000"
     borderopacity="0.25"
     inkscape:showpageshadow="2"
     inkscape:pageopacity="0.0"
     inkscape:pagecheckerboard="0"
     inkscape:deskcolor="#d1d1d1"
     inkscape:document-units="px"
     inkscape:zoom="25.03125"
     inkscape:cx="16"
     inkscape:cy="16"
     inkscape:window-width="1920"
     inkscape:window-height="1011"
     inkscape:window-x="0"
     inkscape:window-y="0"
     inkscape:window-maximized="1"
     inkscape:current-layer="svg1" />
  <defs
     id="defs1">
    <linearGradient
       inkscape:collect="always"
       xlink:href="#4852"
       id="linearGradient4"
       x1="16"
       y1="30"
       x2="16"
       y2="2"
       gradientUnits="userSpaceOnUse" />
    <linearGradient
       inkscape:collect="always"
       id="4852">
      <stop
         style="stop-color:#272727;stop-opacity:1;"
         offset="0"
         id="stop14555" />
      <stop
         style="stop-color:#5d5d5d;stop-opacity:1;"
         offset="1"
         id="stop14557" />
    </linearGradient>
  </defs>
  <rect
     style="fill:#000000;stroke-width:1.75;opacity:0.2"
     id="rect1"
     width="28"
     height="28"
     x="2"
     y="3"
     ry="6" />
  <rect
     style="fill:url(#linearGradient4)"
     id="rect2"
     width="28"
     height="28"
     x="2"
     y="2"
     ry="6" />
  <path
     id="path1"
     style="fill:#a6d3fb;fill-opacity:1;stroke-width:7;stroke-linecap:round"
     d="m 10.173828,11.773438 c -0.8324669,-1e-6 -1.5633664,0.209634 -2.1953124,0.628906 -0.62587,0.419272 -1.1126294,1.00629 -1.4589844,1.759765 C 6.1731766,14.909508 6,15.777123 6,16.767578 c 0,0.984378 0.1731808,1.853947 0.5195312,2.607422 0.346355,0.747399 0.8331204,1.334416 1.4589844,1.759766 0.631947,0.419272 1.3628445,0.628906 2.1953124,0.628906 0.419272,0 0.811196,-0.06207 1.175781,-0.183594 0.37066,-0.115453 0.711588,-0.294053 1.021485,-0.537109 0.309897,-0.243056 0.579643,-0.549262 0.810547,-0.919922 h 0.01953 V 25 H 14.75 V 11.955078 h -1.513672 v 1.421875 H 13.21875 C 13.012152,13.018446 12.75152,12.721355 12.435547,12.484375 12.119574,12.247396 11.765843,12.070531 11.376953,11.955078 10.99414,11.833546 10.5931,11.773438 10.173828,11.773438 Z m 0.238281,1.384765 c 0.595488,0 1.111326,0.149521 1.548829,0.447266 0.437499,0.297743 0.774738,0.717011 1.011718,1.257812 0.236976,0.540801 0.355469,1.175128 0.355469,1.904297 0,0.723093 -0.118489,1.355684 -0.355469,1.896484 -0.23698,0.5408 -0.574218,0.960069 -1.011718,1.257813 -0.437503,0.297743 -0.953341,0.447266 -1.548829,0.447266 -0.5529526,0 -1.0451371,-0.136719 -1.4765621,-0.410157 -0.425348,-0.273439 -0.7608503,-0.678167 -1.0039063,-1.21289 -0.243056,-0.534725 -0.3632812,-1.19466 -0.3632812,-1.978516 0,-0.789933 0.1202242,-1.451605 0.3632812,-1.986328 0.243056,-0.534725 0.5785583,-0.939452 1.0039063,-1.212891 0.431425,-0.273438 0.9236095,-0.410156 1.4765621,-0.410156 z" />
  <path
     d="m 21.622446,21.763065 c -0.413196,0 -0.808162,-0.06076 -1.1849,-0.182292 -0.376739,-0.115448 -0.723093,-0.294707 -1.039066,-0.537763 -0.315973,-0.243056 -0.589411,-0.549915 -0.820315,-0.920575 h -0.01823 v 1.458338 H 17.04691 V 8 h 1.549483 v 5.377621 h 0.01824 c 0.206598,-0.358507 0.464846,-0.656252 0.774743,-0.893232 0.309897,-0.236979 0.656251,-0.413195 1.039066,-0.528647 0.382814,-0.121529 0.780818,-0.182292 1.194014,-0.182292 0.838544,0 1.570751,0.209636 2.196621,0.628908 0.62587,0.419272 1.111983,1.005645 1.458338,1.75912 0.346355,0.747399 0.519533,1.616325 0.519533,2.606779 0,0.984378 -0.17318,1.853304 -0.519533,2.606779 -0.346355,0.747399 -0.832468,1.333771 -1.458338,1.759121 -0.62587,0.419272 -1.358077,0.628908 -2.196621,0.628908 z m -0.236982,-1.394537 c 0.559031,0 1.05122,-0.136727 1.476568,-0.410158 0.42535,-0.273437 0.759553,-0.677517 1.002608,-1.212242 0.243056,-0.534723 0.364585,-1.194015 0.364585,-1.977871 0,-0.789933 -0.12152,-1.452262 -0.364585,-1.986985 -0.243055,-0.534725 -0.577258,-0.938805 -1.002608,-1.212244 -0.425348,-0.273438 -0.917537,-0.410157 -1.476568,-0.410157 -0.595488,0 -1.111981,0.148872 -1.549483,0.446616 -0.437502,0.297744 -0.774742,0.717016 -1.011722,1.257816 -0.23698,0.540801 -0.355469,1.175785 -0.355469,1.904954 0,0.723093 0.118493,1.355039 0.355469,1.89584 0.23698,0.540801 0.57422,0.960073 1.011722,1.257816 0.437502,0.297743 0.953995,0.446616 1.549483,0.446615 z"
     style="fill:#ffffff;stroke-width:7;stroke-linecap:round"
     id="path2" />
</svg>
