<?xml version="1.0" encoding="UTF-8" standalone="no"?>
<!-- Created with Inkscape (http://www.inkscape.org/) -->

<svg
   width="32"
   height="32"
   viewBox="0 0 32 32.000002"
   version="1.1"
   id="svg1"
   inkscape:version="1.4.2 (1:1.4.2+202505120737+ebf0e940d0)"
   sodipodi:docname="rnote.svg"
   xmlns:inkscape="http://www.inkscape.org/namespaces/inkscape"
   xmlns:sodipodi="http://sodipodi.sourceforge.net/DTD/sodipodi-0.dtd"
   xmlns:xlink="http://www.w3.org/1999/xlink"
   xmlns="http://www.w3.org/2000/svg"
   xmlns:svg="http://www.w3.org/2000/svg">
  <sodipodi:namedview
     id="namedview1"
     pagecolor="#ffffff"
     bordercolor="#000000"
     borderopacity="0.25"
     inkscape:showpageshadow="2"
     inkscape:pageopacity="0.0"
     inkscape:pagecheckerboard="0"
     inkscape:deskcolor="#d1d1d1"
     inkscape:document-units="px"
     inkscape:zoom="25.21875"
     inkscape:cx="16"
     inkscape:cy="16"
     inkscape:window-width="1920"
     inkscape:window-height="1016"
     inkscape:window-x="0"
     inkscape:window-y="0"
     inkscape:window-maximized="1"
     inkscape:current-layer="svg1" />
  <defs
     id="defs1">
    <linearGradient
       inkscape:collect="always"
       xlink:href="#4852"
       id="linearGradient4"
       x1="16"
       y1="30"
       x2="16"
       y2="2"
       gradientUnits="userSpaceOnUse" />
    <linearGradient
       inkscape:collect="always"
       id="4852">
      <stop
         style="stop-color:#272727;stop-opacity:1;"
         offset="0"
         id="stop14555" />
      <stop
         style="stop-color:#5d5d5d;stop-opacity:1;"
         offset="1"
         id="stop14557" />
    </linearGradient>
    <linearGradient
       inkscape:collect="always"
       id="linearGradient1606">
      <stop
         style="stop-color:#eaebed;stop-opacity:1;"
         offset="0"
         id="stop1602" />
      <stop
         style="stop-color:#f9fafa;stop-opacity:1;"
         offset="1"
         id="stop1604" />
    </linearGradient>
    <linearGradient
       inkscape:collect="always"
       xlink:href="#linearGradient1606"
       id="linearGradient6"
       x1="11.000003"
       y1="13.000074"
       x2="11.000003"
       y2="3"
       gradientUnits="userSpaceOnUse"
       gradientTransform="matrix(2,0,0,2,0.99999994,0)" />
  </defs>
  <rect
     style="fill:#000000;stroke-width:1.75;opacity:0.2"
     id="rect1"
     width="28"
     height="28"
     x="2"
     y="3"
     ry="6" />
  <rect
     style="fill:url(#linearGradient4)"
     id="rect2"
     width="28"
     height="28"
     x="2"
     y="2"
     ry="6" />
  <path
     d="m 21.830736,10.475343 c -0.038,-0.315555 0.1992,-0.814908 0.16738,-1.494738 C 21.965256,8.299668 21.6418,7.350786 20.31409,6.6621008 20.29047,6.6499208 20.26687,6.6377328 20.24221,6.6255668 19.378632,6.1959698 18.119724,5.8881636 16.651334,6.0387454 15.51051,6.156109 14.32553,6.5447412 13.208324,7.230107 c -1.005282,0.614502 -1.931495,1.455984 -2.683145,2.496766 -0.441543,0.654363 -0.8266109,1.39509 -1.1018059,2.194496 -0.119114,0.345452 -0.2176908,0.703081 -0.2916232,1.068462 -0.0955,0.474994 -0.147856,0.994277 -0.127326,1.542349 0.05442,0.869162 0.2947036,1.819152 0.831744,2.673918 0.2536311,0.405242 0.5688711,0.772838 0.9334011,1.079536 0.362477,0.306696 0.777322,0.554712 1.230161,0.717474 0.72598,0.255766 1.439637,0.255766 2.030071,0.15944 0.313189,-0.05094 0.600704,-0.12954 0.854336,-0.217014 0.313186,-0.1074 0.600703,-0.231408 0.827636,-0.336592 0.494938,-0.233626 0.959074,-0.51375 1.328737,-0.739622 0.369664,-0.225872 0.73214,-0.45285 1.08024,-0.636648 0.207424,-0.1063 0.453866,-0.224762 0.697228,-0.314448 0.0647,-0.02324 0.12938,-0.0454 0.19408,-0.06422 0.242334,-0.07196 0.481592,-0.10408 0.694146,-0.08082 0.18174,0.0188 0.33578,0.08304 0.43949,0.16166 0.04414,0.0299 0.08214,0.07196 0.11398,0.11626 0.02772,0.04098 0.0462,0.07974 0.05648,0.10076 0.0114,0.02656 0.0176,0.08082 -0.0022,0.15944 -0.0186,0.0797 -0.05852,0.17162 -0.12014,0.263516 -0.06366,0.09412 -0.15196,0.19154 -0.271086,0.292304 -0.11706,0.09744 -0.25671,0.19266 -0.418952,0.284554 -0.356316,0.1849 -0.710576,0.308912 -1.208596,0.509318 -0.451812,0.18158 -0.990906,0.41631 -1.496113,0.788334 -0.264926,0.201514 -0.529852,0.45285 -0.757812,0.757334 -0.226932,0.304484 -0.424087,0.672078 -0.533958,1.102784 -0.09858,0.430706 -0.103712,0.909024 0.02874,1.368516 0.06674,0.233624 0.169428,0.455066 0.300867,0.65215 0.133496,0.1993 0.300864,0.379776 0.499047,0.523712 0.352205,0.252444 0.740353,0.34545 1.076131,0.355416 h 0.11398 c 0.284436,-0.0076 0.555524,-0.07086 0.802994,-0.16054 0.258764,-0.08524 0.492886,-0.200406 0.694146,-0.30227 0.20537,-0.10518 0.363502,-0.19042 0.528824,-0.261302 0.15094,-0.07196 0.282384,-0.11846 0.401498,-0.13842 0.11294,-0.0188 0.20537,-0.01 0.272114,0.01 0.02978,0.0088 0.05648,0.02324 0.07804,0.03766 0.02054,0.0144 0.03492,0.02768 0.0421,0.03434 0.0114,0.0056 0.02158,0.0144 0.02874,0.0168 0.0082,0 0.0154,0.0046 0.02568,0.0022 0.0092,-0.0022 0,0.03322 -0.03698,0.07974 -0.04312,0.05426 -0.10576,0.1085 -0.202288,0.18932 -0.09344,0.0764 -0.220774,0.17714 -0.336806,0.301162 -0.12834,0.13618 -0.253632,0.308912 -0.330644,0.522606 -0.07702,0.215906 -0.08934,0.437348 -0.0575,0.632218 0.03698,0.226978 0.13452,0.41299 0.24747,0.54475 0.15198,0.17936 0.32859,0.255764 0.458998,0.276802 0.03182,0.0046 0.0616,0.0066 0.08934,0.0056 0.232066,-0.0088 0.325508,-0.200406 0.366582,-0.256872 -0.0575,-0.05868 -0.11604,-0.209264 -0.16224,-0.337702 -0.0052,-0.0144 -0.0102,-0.02768 -0.0144,-0.04208 -0.0186,-0.05646 -0.0349,-0.11846 -0.0308,-0.17382 0.0022,-0.03986 0.0114,-0.08192 0.02876,-0.1085 0.0144,-0.02324 0.03492,-0.0443 0.0534,-0.05204 0.0186,-0.0088 0.0493,-0.03544 0.10474,-0.07196 0.0688,-0.0443 0.11708,-0.06974 0.239256,-0.14062 0.0955,-0.05426 0.237202,-0.13842 0.372744,-0.252446 0.13554,-0.11404 0.291624,-0.280124 0.402524,-0.511532 0.09858,-0.207048 0.14684,-0.436242 0.14684,-0.662114 10e-4,-0.22587 -0.0462,-0.4451 -0.12834,-0.641076 -0.08624,-0.19708 -0.20537,-0.365382 -0.340914,-0.503782 -0.13656,-0.139532 -0.291624,-0.250244 -0.453864,-0.333284 -0.325512,-0.16498 -0.668476,-0.211478 -0.969342,-0.1993 -0.311134,0.0122 -0.596596,0.08748 -0.831744,0.16718 -0.232066,0.08416 -0.472348,0.19488 -0.642806,0.269054 -0.19612,0.08526 -0.347072,0.14394 -0.489804,0.17936 -0.13452,0.02546 -0.236174,0.02324 -0.310108,0.0056 -0.0092,-0.0022 -0.0184,-0.0046 -0.02772,-0.0076 -0.07496,-0.02546 -0.11602,-0.06974 -0.10474,-0.0919 0.0062,-0.0088 0.0072,-0.02 0.0092,-0.03876 0.0022,-0.0176 0.004,-0.03766 0.0124,-0.05536 0.0124,-0.03766 0.03284,-0.10298 0.07498,-0.16386 0.0308,-0.06754 0.08214,-0.14394 0.16634,-0.230302 0.08624,-0.08858 0.1992,-0.17826 0.334752,-0.25798 0.27314,-0.17714 0.598652,-0.308912 1.020684,-0.451742 0.3902,-0.13286 0.925186,-0.295628 1.417046,-0.515962 0.264926,-0.11294 0.54012,-0.251338 0.8071,-0.426278 0.27314,-0.17826 0.5432,-0.39749 0.789642,-0.668756 0.255686,-0.283446 0.477484,-0.617826 0.640752,-0.992064 0.16738,-0.38531 0.27622,-0.822658 0.286488,-1.29101 0.0102,-0.461848 -0.07702,-0.89809 -0.222818,-1.283398 -0.14992,-0.39992 -0.368638,-0.758658 -0.629456,-1.058712 -0.552442,-0.635542 -1.251722,-0.980992 -1.880152,-1.130466 -0.728032,-0.173824 -1.410884,-0.10962 -1.935602,0.01002 -0.14582,0.03433 -0.283408,0.07197 -0.411764,0.112942 -0.484672,0.1539 -0.887194,0.360954 -1.169577,0.5215 -0.459001,0.255768 -0.915946,0.566894 -1.227079,0.771728 -0.36145,0.23805 -0.684905,0.443992 -1.009389,0.602324 -0.144792,0.07196 -0.302925,0.13618 -0.46722,0.18048 -0.131432,0.03434 -0.259792,0.05758 -0.386093,0.06422 -0.241309,0.0134 -0.444625,-0.03322 -0.582221,-0.11846 -0.0801,-0.0465 -0.162238,-0.11404 -0.237201,-0.20262 -0.07497,-0.08967 -0.138624,-0.193746 -0.181746,-0.304478 -0.09858,-0.245802 -0.12939,-0.543642 -0.08625,-0.82598 0.01138,-0.176046 0.04723,-0.353202 0.103712,-0.529248 0.04415,-0.136191 0.104734,-0.27459 0.181746,-0.414098 0.180724,-0.327736 0.44257,-0.637757 0.749598,-0.904593 0.477481,-0.474997 1.036085,-0.818232 1.602903,-1.040782 0.630483,-0.248016 1.234268,-0.333272 1.76412,-0.3377 0.677715,-0.0045 1.284585,0.120684 1.760011,0.180468 0.0134,0.0011 0.0267,0.0033 0.04004,0.0045 0.751652,0.08969 1.32771,-0.09966 1.839078,-0.363166 0.495966,-0.254659 0.939566,-0.599002 1.21681,-0.601215 z"
     style="fill:url(#linearGradient6);stroke-width:2"
     id="path1-5" />
</svg>
