<?xml version="1.0" encoding="UTF-8" standalone="no"?>
<!-- Created with Inkscape (http://www.inkscape.org/) -->

<svg
   width="256"
   height="256"
   viewBox="0 0 256 256.00002"
   version="1.1"
   id="svg1"
   inkscape:version="1.4.3 (0d15f75042, 2025-12-25)"
   sodipodi:docname="blockbench.svg"
   xmlns:inkscape="http://www.inkscape.org/namespaces/inkscape"
   xmlns:sodipodi="http://sodipodi.sourceforge.net/DTD/sodipodi-0.dtd"
   xmlns:xlink="http://www.w3.org/1999/xlink"
   xmlns="http://www.w3.org/2000/svg"
   xmlns:svg="http://www.w3.org/2000/svg">
  <sodipodi:namedview
     id="namedview1"
     pagecolor="#ffffff"
     bordercolor="#000000"
     borderopacity="0.25"
     inkscape:showpageshadow="2"
     inkscape:pageopacity="0.0"
     inkscape:pagecheckerboard="0"
     inkscape:deskcolor="#d1d1d1"
     inkscape:document-units="px"
     inkscape:zoom="3.1640625"
     inkscape:cx="128"
     inkscape:cy="128"
     inkscape:window-width="1920"
     inkscape:window-height="1012"
     inkscape:window-x="0"
     inkscape:window-y="0"
     inkscape:window-maximized="1"
     inkscape:current-layer="svg1" />
  <defs
     id="defs1">
    <linearGradient
       inkscape:collect="always"
       xlink:href="#4852"
       id="linearGradient4"
       x1="16"
       y1="30"
       x2="16"
       y2="2"
       gradientUnits="userSpaceOnUse"
       gradientTransform="scale(8)" />
    <linearGradient
       inkscape:collect="always"
       id="4852">
      <stop
         style="stop-color:#272727;stop-opacity:1;"
         offset="0"
         id="stop14555" />
      <stop
         style="stop-color:#5d5d5d;stop-opacity:1;"
         offset="1"
         id="stop14557" />
    </linearGradient>
    <linearGradient
       id="linearGradient3"
       inkscape:collect="always">
      <stop
         style="stop-color:#1a97e0;stop-opacity:1;"
         offset="0"
         id="stop3" />
      <stop
         style="stop-color:#52b0e8;stop-opacity:1;"
         offset="1"
         id="stop4" />
    </linearGradient>
    <linearGradient
       inkscape:collect="always"
       xlink:href="#linearGradient3"
       id="linearGradient2"
       x1="16"
       y1="30"
       x2="16"
       y2="2"
       gradientUnits="userSpaceOnUse"
       gradientTransform="scale(8)" />
  </defs>
  <rect
     style="opacity:0.2;fill:#000000;stroke-width:14"
     id="rect1"
     width="224"
     height="224"
     x="16"
     y="17"
     ry="48" />
  <rect
     style="fill:url(#linearGradient4);stroke-width:8"
     id="rect2"
     width="224"
     height="224"
     x="16"
     y="16"
     ry="48" />
  <path
     d="m 205.44326,72.000404 c -1.83104,0.0156 -7.39848,0.419948 -25.44478,1.662624 -6.77411,0.46642 -17.23249,1.185896 -23.24083,1.599024 -6.00834,0.4131 -15.79198,1.085764 -21.74142,1.494852 -5.94944,0.409108 -15.87767,1.0864 -22.06273,1.504896 -21.14152,1.430488 -19.842924,1.3145 -20.834416,1.862188 -1.237332,0.68352 -2.018608,2.036128 -2.390932,4.139392 -0.16616,0.938944 -0.39348,1.947964 -0.504964,2.242496 -0.11152,0.29448 -0.2724,1.101448 -0.35728,1.793164 -0.08488,0.69168 -0.28224,1.619844 -0.438404,2.062584 -0.15616,0.442716 -0.35456,1.368236 -0.440556,2.056304 -0.08592,0.68808 -0.2756,1.543192 -0.421364,1.900264 -0.14564,0.35704 -0.33296,1.214828 -0.416236,1.906532 -0.08344,0.691684 -0.27584,1.60966 -0.4276,2.039572 -0.15176,0.429916 -0.34796,1.30766 -0.43624,1.950874 -0.08848,0.64329 -0.28132,1.51078 -0.4284,1.92787 -0.14712,0.41704 -0.33992,1.28466 -0.428404,1.92788 -0.08848,0.64328 -0.28128,1.51076 -0.42848,1.92788 -0.14712,0.41704 -0.33992,1.28464 -0.428396,1.92786 -0.08848,0.64328 -0.28128,1.51077 -0.42848,1.92787 -0.1472,0.41703 -0.33992,1.28465 -0.428484,1.92787 -0.0884,0.64329 -0.28124,1.51078 -0.42848,1.92787 -0.1472,0.41704 -0.33992,1.28465 -0.428476,1.92787 -0.08848,0.64328 -0.28128,1.51078 -0.42848,1.92787 -0.1472,0.41704 -0.34008,1.28689 -0.428484,1.93247 -0.08832,0.6456 -0.25288,1.41453 -0.3656,1.70907 -0.11272,0.29448 -0.34176,1.30667 -0.50912,2.24918 -0.28352,1.59651 -0.27752,1.75028 0.08488,2.24919 0.765036,1.0531 1.688628,1.29166 8.350912,2.15714 3.499008,0.45456 8.964576,1.17052 12.145474,1.59066 3.18089,0.42016 8.69924,1.14643 12.26302,1.61409 3.56377,0.46769 9.44358,1.23983 13.06627,1.71575 3.62267,0.47592 9.14104,1.19577 12.26302,1.59987 6.78619,0.87838 17.73259,2.31213 22.11628,2.89684 7.18732,0.95861 9.76091,1.30031 15.36894,2.04124 3.23978,0.42808 8.25208,1.09477 11.13846,1.48147 6.5914,0.88305 6.75922,0.88935 7.1477,0.2724 0.30064,-0.47744 0.72144,-2.36582 1.63414,-7.33663 0.2596,-1.41377 0.69392,-3.72721 0.96558,-5.14099 0.2716,-1.41376 0.70288,-3.67901 0.95804,-5.03388 0.25512,-1.35487 0.6432,-3.28274 0.86222,-4.28416 0.21904,-1.00142 0.4609,-2.20634 0.5376,-2.6776 0.1426,-0.876 0.5084,-2.7877 1.47474,-7.71148 0.30064,-1.53159 0.74368,-3.82024 0.98482,-5.08618 0.24112,-1.26595 0.63632,-3.33842 0.87772,-4.605468 0.24152,-1.26706 0.66528,-3.46072 0.94174,-4.874488 0.2764,-1.413776 0.70518,-3.630824 0.95344,-4.92678 0.40984,-2.140044 0.70648,-3.659556 1.94414,-9.960672 0.92498,-4.7094 0.9687,-5.22438 0.50744,-6.014132 -0.23056,-0.39484 -0.7352,-0.902484 -1.1212,-1.12794 -0.2968,-0.17336 -0.0504,-0.30388 -1.14884,-0.29452 z M 76.002952,130.72809 c -0.878468,-0.01 -1.71426,0.0544 -2.569576,0.18656 -1.178104,0.18264 -10.383404,1.49967 -20.45622,2.92653 -10.072812,1.42686 -18.732292,2.74569 -19.242972,2.93072 -2.165896,0.7848 -2.345464,3.51363 -0.29872,4.53894 0.439368,0.22008 1.377416,0.56808 2.08428,0.7736 0.706856,0.20552 1.526184,0.44936 1.820712,0.54136 0.29452,0.0922 0.921064,0.27208 1.392308,0.40039 1.343768,0.36584 4.822804,1.34431 6.158284,1.73207 0.38292,0.11112 1.081716,0.30944 1.55296,0.44056 0.47124,0.13112 1.145976,0.3216 1.499404,0.42344 1.043828,0.30064 5.292364,1.49988 6.10474,1.72329 0.412336,0.11344 1.40034,0.39968 2.195564,0.63632 0.795216,0.23664 2.096496,0.62399 2.891712,0.86059 0.795224,0.23668 1.831428,0.5368 2.302668,0.66736 0.471232,0.13048 1.09778,0.3112 1.392308,0.40168 0.29452,0.0905 0.92106,0.26776 1.392308,0.3936 2.008196,0.5364 3.492572,0.95764 8.35384,2.37092 2.82746,0.82202 6.008348,1.72729 7.068648,2.01197 3.177588,0.85317 17.83956,5.04992 20.027812,5.73258 1.119188,0.3492 2.420468,0.74384 2.891708,0.87732 0.47129,0.13352 1.2877,0.37912 1.81444,0.5464 0.52664,0.16724 1.53883,0.44888 2.24912,0.62584 0.71032,0.17696 1.58065,0.40656 1.93409,0.51 0.35344,0.10344 0.97996,0.28184 1.3923,0.39664 0.4124,0.1148 1.7618,0.51376 2.99882,0.88653 3.22213,0.97116 4.67169,1.38304 6.10473,1.73375 0.47128,0.11528 1.48335,0.39696 2.24911,0.62592 0.76576,0.22888 2.45261,0.71424 3.74852,1.07898 1.29592,0.3648 2.77151,0.80155 3.27956,0.97063 0.508,0.16912 1.7129,0.50672 2.67751,0.75056 0.9646,0.24376 3.682,1.01081 6.0382,1.70447 6.22539,1.83267 6.5708,1.91844 7.33892,1.81992 0.38432,-0.0496 10.60104,-5.08369 22.70408,-11.18775 23.79814,-12.00242 22.97182,-11.52616 22.97182,-13.24617 0,-1.17353 0.94478,-0.94303 -11.03138,-2.69182 -3.18088,-0.46448 -7.08469,-1.03286 -8.67514,-1.26349 -1.59044,-0.23064 -3.85562,-0.56776 -5.03374,-0.74888 -1.1781,-0.18112 -4.79274,-0.71296 -8.03252,-1.18191 -3.23981,-0.46888 -8.54129,-1.24037 -11.78108,-1.7145 -3.2398,-0.47408 -7.86655,-1.14784 -10.28166,-1.49694 -5.57455,-0.80581 -17.43328,-2.54431 -24.09764,-3.53276 -2.82746,-0.41937 -7.11684,-1.04747 -9.53196,-1.39569 -14.765608,-2.12899 -19.3235,-2.81336 -20.56332,-3.08719 -1.987956,-0.43912 -3.570456,-0.65688 -5.034556,-0.67232 z m -12.44752,23.93731 c -0.38532,0.0818 -8.222064,16.90686 -8.222064,17.65249 0,0.84579 0.609576,1.80512 1.352564,2.12827 0.866352,0.37688 1.033792,0.378 2.0165,0.016 0.444188,-0.16384 1.81996,-0.60632 3.056976,-0.98319 1.237008,-0.37696 2.995136,-0.92025 3.907076,-1.20743 1.590828,-0.50104 2.667976,-0.83042 6.910084,-2.11446 3.509128,-1.06219 5.709184,-1.81813 6.285464,-2.16008 1.149072,-0.68176 2.376064,-2.92404 3.684512,-6.73206 0.37856,-1.10186 0.38144,-1.19557 0.0432,-1.45009 -0.19872,-0.1496 -0.75008,-0.36932 -1.224984,-0.48816 -1.69476,-0.42459 -6.518628,-1.71883 -11.965316,-3.211 -3.04322,-0.83373 -5.673052,-1.48633 -5.844092,-1.4501 z m 99.993488,13.29386 c -0.22504,0.006 -0.50472,0.0993 -0.82335,0.28408 -0.38992,0.22624 -1.55489,0.8817 -2.58881,1.45636 -1.66015,0.92273 -4.93924,2.84313 -7.12763,4.17413 -0.4124,0.25072 -1.23166,0.70088 -1.82072,1.00033 -0.58904,0.29944 -1.60114,0.87329 -2.24911,1.27562 -3.1688,1.96758 -4.46502,2.37811 -5.82693,1.84462 -0.27064,-0.106 -1.67673,-0.50832 -3.12475,-0.89407 -2.26509,-0.60328 -2.67194,-0.65856 -2.91305,-0.39616 -0.2604,0.28336 -0.56391,1.02591 -1.65629,4.05323 -0.23384,0.64792 -0.62184,1.6601 -0.86224,2.24917 -0.2404,0.58912 -0.51872,1.36021 -0.61784,1.71365 -0.0992,0.35344 -0.48312,1.462 -0.85347,2.46342 -0.3704,1.00142 -0.75407,2.06174 -0.85304,2.35628 -0.0989,0.29448 -0.48232,1.35486 -0.85178,2.35628 -0.62904,1.70502 -1.72824,5.62658 -1.71109,6.1045 0.0176,0.47488 1.04259,1.4367 1.83157,1.71786 1.09864,0.3914 1.17813,0.3888 2.61228,-0.0978 1.90121,-0.64528 13.95561,-6.82088 17.18293,-8.80302 1.59045,-0.9768 3.92527,-2.33158 5.18895,-3.01062 1.26368,-0.67904 2.50234,-1.37786 2.7524,-1.553 0.87447,-0.61248 1.49853,-1.84836 1.93702,-3.83734 0.24008,-1.0892 0.57696,-2.60715 0.74888,-3.37294 0.17184,-0.76576 0.3996,-1.82613 0.50624,-2.3563 0.10656,-0.53016 0.53704,-2.43957 0.95636,-4.24356 0.4192,-1.80399 0.76224,-3.51839 0.76224,-3.80931 0,-0.45416 -0.2236,-0.68552 -0.59872,-0.6752 z"
     style="fill:url(#linearGradient2);stroke-width:8"
     id="path1" />
</svg>
