<?xml version="1.0" encoding="UTF-8" standalone="no"?>
<!-- Created with Inkscape (http://www.inkscape.org/) -->

<svg
   width="256"
   height="256"
   viewBox="0 0 256 256.00002"
   version="1.1"
   id="svg1"
   inkscape:version="1.4.3 (0d15f75042, 2025-12-25)"
   sodipodi:docname="chrome-store.svg"
   xmlns:inkscape="http://www.inkscape.org/namespaces/inkscape"
   xmlns:sodipodi="http://sodipodi.sourceforge.net/DTD/sodipodi-0.dtd"
   xmlns:xlink="http://www.w3.org/1999/xlink"
   xmlns="http://www.w3.org/2000/svg"
   xmlns:svg="http://www.w3.org/2000/svg">
  <sodipodi:namedview
     id="namedview1"
     pagecolor="#ffffff"
     bordercolor="#000000"
     borderopacity="0.25"
     inkscape:showpageshadow="2"
     inkscape:pageopacity="0.0"
     inkscape:pagecheckerboard="0"
     inkscape:deskcolor="#d1d1d1"
     inkscape:document-units="px"
     inkscape:zoom="3.1171875"
     inkscape:cx="127.8396"
     inkscape:cy="128"
     inkscape:window-width="1854"
     inkscape:window-height="1011"
     inkscape:window-x="0"
     inkscape:window-y="0"
     inkscape:window-maximized="1"
     inkscape:current-layer="svg1"
     showguides="false" />
  <defs
     id="defs1">
    <linearGradient
       inkscape:collect="always"
       xlink:href="#linearGradient12495"
       id="linearGradient12497"
       x1="3.7041574"
       y1="5.15939"
       x2="8.9958239"
       y2="5.15939"
       gradientUnits="userSpaceOnUse"
       gradientTransform="matrix(2.6679017,0,0,2.6679017,-0.9411762,9.058824)" />
    <linearGradient
       inkscape:collect="always"
       id="linearGradient12495">
      <stop
         style="stop-color:#db3328;stop-opacity:1;"
         offset="0"
         id="stop12491" />
      <stop
         style="stop-color:#e53d30;stop-opacity:1"
         offset="1"
         id="stop12493" />
    </linearGradient>
    <linearGradient
       inkscape:collect="always"
       xlink:href="#linearGradient13171"
       id="linearGradient13173"
       x1="4.4023013"
       y1="4.2994838"
       x2="5.9898009"
       y2="7.474484"
       gradientUnits="userSpaceOnUse"
       gradientTransform="matrix(2.6679017,0,0,2.6679017,-0.9411762,9.058824)" />
    <linearGradient
       inkscape:collect="always"
       id="linearGradient13171">
      <stop
         style="stop-color:#32a651;stop-opacity:1;"
         offset="0"
         id="stop13167" />
      <stop
         style="stop-color:#279847;stop-opacity:1"
         offset="1"
         id="stop13169" />
    </linearGradient>
  </defs>
  <rect
     style="opacity:0.2;fill:#000000;stroke-width:14"
     id="rect1"
     width="224"
     height="224"
     x="16"
     y="17"
     ry="48" />
  <rect
     style="fill:#323232;fill-opacity:1;stroke-width:8"
     id="rect2"
     width="224"
     height="224"
     x="16"
     y="16"
     ry="48" />
  <path
     id="rect3"
     style="opacity:0.05;fill:#ffffff;fill-opacity:1;stroke-width:8"
     d="M 64,16 C 37.408,16 16,37.408 16,64 v 64 H 240 V 64 C 240,37.408 218.592,16 192,16 Z" />
  <rect
     style="opacity:1;fill:#060606;fill-opacity:1;stroke-width:8"
     id="rect4"
     width="80"
     height="24"
     x="88"
     y="48"
     ry="12" />
  <g
     id="g4"
     transform="scale(8)">
    <path
       id="path1309"
       style="fill:url(#linearGradient12497);fill-opacity:1;stroke-width:0.0468748"
       d="M 16,14 A 12,12 0 0 0 4.6777344,22.023438 L 6,27 10.804688,29 16,26 V 20 H 26.392578 A 12,12 0 0 0 16,14 Z" />
    <path
       id="path1449"
       style="fill:url(#linearGradient13173);fill-opacity:1;stroke-width:0.0468748"
       d="M 5.2949219,20.578125 A 12,12 0 0 0 4,26 12,12 0 0 0 4.3183594,28.744141 C 5.3334818,29.531865 6.6098704,30 8,30 H 11.527344 19 c 0.795141,0 1.516351,-0.02162 2.205078,-0.05469 L 21.195312,29 16,26 10.804688,29 Z" />
    <path
       id="path1829"
       style="fill:#fbbf12;stroke-width:0.0468748"
       d="m 16,20 v 6 l 5.197266,3 -0.945313,1 H 24 c 1.39017,0 2.666504,-0.468093 3.681641,-1.255859 A 12,12 0 0 0 28,26 12,12 0 0 0 26.392578,20 Z" />
    <path
       id="path2229"
       style="fill:#ffffff;stroke-width:0.0468748"
       d="m 16,20 a 6,6 0 0 0 -6,6 6,6 0 0 0 1.527344,4 h 8.945312 A 6,6 0 0 0 22,26 6,6 0 0 0 16,20 Z" />
    <path
       id="path2029"
       style="fill:#4688f4;fill-opacity:1;stroke-width:0.0480764"
       d="m 16,21 c -2.761382,0 -5,2.23862 -5,5 0,1.636047 0.785228,3.087814 2,4 h 6 c 1.214771,-0.912186 2,-2.363953 2,-4 0,-2.76138 -2.238622,-5 -5,-5 z" />
  </g>
</svg>
