<?xml version="1.0" encoding="UTF-8" standalone="no"?>
<!-- Created with Inkscape (http://www.inkscape.org/) -->

<svg
   width="256"
   height="256"
   viewBox="0 0 256 256.00002"
   version="1.1"
   id="svg1"
   inkscape:version="1.4.2 (1:1.4.2+202505120737+ebf0e940d0)"
   sodipodi:docname="rnote.svg"
   xmlns:inkscape="http://www.inkscape.org/namespaces/inkscape"
   xmlns:sodipodi="http://sodipodi.sourceforge.net/DTD/sodipodi-0.dtd"
   xmlns:xlink="http://www.w3.org/1999/xlink"
   xmlns="http://www.w3.org/2000/svg"
   xmlns:svg="http://www.w3.org/2000/svg">
  <sodipodi:namedview
     id="namedview1"
     pagecolor="#ffffff"
     bordercolor="#000000"
     borderopacity="0.25"
     inkscape:showpageshadow="2"
     inkscape:pageopacity="0.0"
     inkscape:pagecheckerboard="0"
     inkscape:deskcolor="#d1d1d1"
     inkscape:document-units="px"
     inkscape:zoom="3.1523438"
     inkscape:cx="128"
     inkscape:cy="128"
     inkscape:window-width="1920"
     inkscape:window-height="1016"
     inkscape:window-x="0"
     inkscape:window-y="0"
     inkscape:window-maximized="1"
     inkscape:current-layer="svg1" />
  <defs
     id="defs1">
    <linearGradient
       inkscape:collect="always"
       xlink:href="#4852"
       id="linearGradient4"
       x1="16"
       y1="30"
       x2="16"
       y2="2"
       gradientUnits="userSpaceOnUse"
       gradientTransform="scale(8)" />
    <linearGradient
       inkscape:collect="always"
       id="4852">
      <stop
         style="stop-color:#272727;stop-opacity:1;"
         offset="0"
         id="stop14555" />
      <stop
         style="stop-color:#5d5d5d;stop-opacity:1;"
         offset="1"
         id="stop14557" />
    </linearGradient>
    <linearGradient
       inkscape:collect="always"
       id="linearGradient1606">
      <stop
         style="stop-color:#eaebed;stop-opacity:1;"
         offset="0"
         id="stop1602" />
      <stop
         style="stop-color:#f9fafa;stop-opacity:1;"
         offset="1"
         id="stop1604" />
    </linearGradient>
    <linearGradient
       inkscape:collect="always"
       xlink:href="#linearGradient1606"
       id="linearGradient6"
       x1="11.000003"
       y1="13.000074"
       x2="11.000003"
       y2="3"
       gradientUnits="userSpaceOnUse"
       gradientTransform="matrix(16,0,0,16,8,0)" />
  </defs>
  <rect
     style="opacity:0.2;fill:#000000;stroke-width:14"
     id="rect1"
     width="224"
     height="224"
     x="16"
     y="17"
     ry="48" />
  <rect
     style="fill:url(#linearGradient4);stroke-width:8"
     id="rect2"
     width="224"
     height="224"
     x="16"
     y="16"
     ry="48" />
  <path
     d="m 174.64589,83.802744 c -0.304,-2.52444 1.5936,-6.519264 1.33904,-11.957904 -0.26288,-5.447496 -2.85053,-13.038552 -13.47221,-18.548036 -0.18896,-0.09744 -0.37776,-0.19492 -0.57504,-0.29228 -6.90862,-3.436776 -16.97989,-5.899224 -28.72701,-4.694568 -9.12659,0.938908 -18.60643,4.047968 -27.54408,9.530892 -8.042254,4.916016 -15.451958,11.647872 -21.465158,19.974128 -3.532344,5.234904 -6.612888,11.16072 -8.814448,17.555968 -0.952912,2.763616 -1.741524,5.624646 -2.332984,8.547696 -0.764,3.79995 -1.182848,7.95422 -1.018608,12.33879 0.43536,6.9533 2.357628,14.55322 6.653952,21.39135 2.029048,3.24193 4.550968,6.1827 7.467208,8.63628 2.899816,2.45357 6.218576,4.4377 9.841288,5.7398 5.80784,2.04612 11.5171,2.04612 16.24057,1.27552 2.50551,-0.40752 4.80563,-1.03632 6.83469,-1.73612 2.50548,-0.8592 4.80562,-1.85126 6.62108,-2.69273 3.95951,-1.86901 7.6726,-4.11 10.6299,-5.91698 2.95731,-1.80697 5.85712,-3.6228 8.64192,-5.09318 1.65939,-0.8504 3.63093,-1.7981 5.57782,-2.51559 0.5176,-0.18592 1.03504,-0.3632 1.55264,-0.51376 1.93868,-0.57568 3.85274,-0.83264 5.55317,-0.64656 1.45392,0.1504 2.68624,0.66432 3.51592,1.29328 0.35312,0.2392 0.65712,0.57568 0.91184,0.93008 0.22176,0.32784 0.3696,0.63792 0.45184,0.80608 0.0912,0.21248 0.1408,0.64656 -0.0176,1.27552 -0.1488,0.6376 -0.46816,1.37296 -0.96112,2.10813 -0.50928,0.75296 -1.21568,1.53232 -2.16869,2.33843 -0.93648,0.77952 -2.05368,1.54128 -3.35161,2.27644 -2.85053,1.4792 -5.68461,2.47129 -9.66877,4.07454 -3.6145,1.45264 -7.92725,3.33048 -11.9689,6.30667 -2.11941,1.61211 -4.23882,3.6228 -6.0625,6.05867 -1.81546,2.43588 -3.3927,5.37663 -4.27166,8.82228 -0.78864,3.44564 -0.8297,7.27219 0.22992,10.94812 0.53392,1.869 1.35542,3.64054 2.40693,5.2172 1.06797,1.5944 2.40691,3.03822 3.99238,4.1897 2.81764,2.01956 5.92282,2.7636 8.60905,2.84332 h 0.91184 c 2.27548,-0.0608 4.44419,-0.56688 6.42395,-1.28432 2.07011,-0.68192 3.94309,-1.60324 5.55317,-2.41816 1.64296,-0.84144 2.90801,-1.52336 4.23059,-2.0904 1.20752,-0.57568 2.25907,-0.94768 3.21198,-1.10736 0.90352,-0.1504 1.64296,-0.08 2.17691,0.08 0.23824,0.0704 0.45184,0.186 0.62432,0.30128 0.16432,0.1152 0.27936,0.22144 0.3368,0.27472 0.0912,0.0448 0.17264,0.1152 0.22992,0.1344 0.0656,0 0.1232,0.0368 0.20544,0.018 0.0736,-0.018 0,0.26576 -0.29584,0.63792 -0.34496,0.43408 -0.84608,0.868 -1.6183,1.51456 -0.74752,0.6112 -1.76619,1.41712 -2.69445,2.40928 -1.02672,1.08944 -2.02905,2.4713 -2.64515,4.18086 -0.61616,1.72724 -0.71472,3.49878 -0.46,5.05774 0.29584,1.81582 1.07616,3.30392 1.97976,4.358 1.21584,1.43488 2.62872,2.04612 3.67198,2.21442 0.25456,0.0368 0.4928,0.0528 0.71472,0.0448 1.85653,-0.0704 2.60407,-1.60326 2.93266,-2.05498 -0.46,-0.46944 -0.92832,-1.67412 -1.29792,-2.70162 -0.0416,-0.1152 -0.0816,-0.22144 -0.1152,-0.33664 -0.1488,-0.45168 -0.2792,-0.94768 -0.2464,-1.39056 0.0176,-0.31888 0.0912,-0.65536 0.23008,-0.868 0.1152,-0.186 0.27936,-0.3544 0.4272,-0.41632 0.1488,-0.0704 0.3944,-0.28352 0.83792,-0.57568 0.5504,-0.3544 0.93664,-0.55792 1.91405,-1.12496 0.764,-0.43408 1.89761,-1.10736 2.98195,-2.01956 1.08432,-0.91232 2.33299,-2.241 3.22019,-4.09226 0.78864,-1.65638 1.17472,-3.48994 1.17472,-5.29692 0.008,-1.80696 -0.3696,-3.56079 -1.02672,-5.1286 -0.68992,-1.57664 -1.64296,-2.92306 -2.72731,-4.03026 -1.09248,-1.11625 -2.33299,-2.00195 -3.63091,-2.66627 -2.6041,-1.31984 -5.34781,-1.69182 -7.75474,-1.5944 -2.48907,0.0976 -4.77277,0.69984 -6.65395,1.33744 -1.85653,0.67328 -3.77878,1.55904 -5.14245,2.15243 -1.56896,0.68208 -2.77657,1.15152 -3.91843,1.43488 -1.07616,0.20368 -1.88939,0.18592 -2.48086,0.0448 -0.0736,-0.0176 -0.1472,-0.0368 -0.22176,-0.0608 -0.59968,-0.20368 -0.92816,-0.55792 -0.83792,-0.7352 0.0496,-0.0704 0.0576,-0.16 0.0736,-0.31008 0.0176,-0.1408 0.032,-0.30128 0.0992,-0.44288 0.0992,-0.30128 0.26272,-0.82384 0.59984,-1.31088 0.2464,-0.54032 0.65712,-1.15152 1.33072,-1.84241 0.68992,-0.70864 1.5936,-1.42608 2.67801,-2.06384 2.18512,-1.41712 4.78922,-2.4713 8.16547,-3.61394 3.1216,-1.06288 7.40149,-2.36502 11.33637,-4.12769 2.11941,-0.90352 4.32096,-2.01071 6.4568,-3.41023 2.18512,-1.42608 4.3456,-3.17992 6.31714,-5.35005 2.04549,-2.26756 3.81987,-4.9426 5.12601,-7.93651 1.33904,-3.08248 2.20976,-6.58126 2.29191,-10.32808 0.0816,-3.69478 -0.61616,-7.18472 -1.78255,-10.26718 -1.19936,-3.19936 -2.9491,-6.06927 -5.03564,-8.4697 -4.41954,-5.08433 -10.01378,-7.84793 -15.04122,-9.04373 -5.82426,-1.39059 -11.28707,-0.87696 -15.48482,0.0802 -1.16656,0.27464 -2.26726,0.57576 -3.29411,0.90354 -3.87737,1.2312 -7.09755,2.88763 -9.35661,4.172 -3.67201,2.04614 -7.32757,4.53515 -9.81664,6.17382 -2.8916,1.9044 -5.47924,3.55194 -8.07511,4.8186 -1.15833,0.57568 -2.4234,1.08944 -3.73776,1.44384 -1.05145,0.27472 -2.07833,0.46064 -3.08874,0.51376 -1.93047,0.1072 -3.557,-0.26576 -4.65777,-0.94768 -0.6408,-0.372 -1.2979,-0.91232 -1.89761,-1.62096 -0.59976,-0.71736 -1.10899,-1.54997 -1.45397,-2.43583 -0.78864,-1.96641 -1.03512,-4.34913 -0.69,-6.60784 0.091,-1.40837 0.37784,-2.82561 0.8297,-4.23398 0.3532,-1.08953 0.83787,-2.19672 1.45397,-3.31279 1.44579,-2.62188 3.54056,-5.10205 5.99678,-7.23674 3.81985,-3.799976 8.28868,-6.545856 12.82323,-8.326256 5.04386,-1.984128 9.87414,-2.666176 14.11296,-2.7016 5.42172,-0.036 10.27668,0.965472 14.08008,1.443744 0.1072,0.0088 0.2136,0.0264 0.32032,0.036 6.01322,0.71752 10.62168,-0.79728 14.71263,-2.905328 3.96773,-2.037272 7.51653,-4.792016 9.73448,-4.80972 z"
     style="fill:url(#linearGradient6);stroke-width:16"
     id="path1-5" />
</svg>
