<?xml version="1.0" encoding="UTF-8" standalone="no"?>
<!-- Created with Inkscape (http://www.inkscape.org/) -->

<svg
   width="256"
   height="256"
   viewBox="0 0 256 256.00002"
   version="1.1"
   id="svg1"
   inkscape:version="1.4.2 (ebf0e940d0, 2025-05-08)"
   sodipodi:docname="sendanywhere.svg"
   xmlns:inkscape="http://www.inkscape.org/namespaces/inkscape"
   xmlns:sodipodi="http://sodipodi.sourceforge.net/DTD/sodipodi-0.dtd"
   xmlns:xlink="http://www.w3.org/1999/xlink"
   xmlns="http://www.w3.org/2000/svg"
   xmlns:svg="http://www.w3.org/2000/svg">
  <sodipodi:namedview
     id="namedview1"
     pagecolor="#ffffff"
     bordercolor="#000000"
     borderopacity="0.25"
     inkscape:showpageshadow="2"
     inkscape:pageopacity="0.0"
     inkscape:pagecheckerboard="0"
     inkscape:deskcolor="#d1d1d1"
     inkscape:document-units="px"
     inkscape:zoom="3.1601562"
     inkscape:cx="128"
     inkscape:cy="128"
     inkscape:window-width="1920"
     inkscape:window-height="1011"
     inkscape:window-x="0"
     inkscape:window-y="0"
     inkscape:window-maximized="1"
     inkscape:current-layer="svg1" />
  <defs
     id="defs1">
    <linearGradient
       inkscape:collect="always"
       xlink:href="#4852"
       id="linearGradient4"
       x1="16"
       y1="30"
       x2="16"
       y2="2"
       gradientUnits="userSpaceOnUse"
       gradientTransform="scale(8)" />
    <linearGradient
       inkscape:collect="always"
       id="4852">
      <stop
         style="stop-color:#272727;stop-opacity:1;"
         offset="0"
         id="stop14555" />
      <stop
         style="stop-color:#5d5d5d;stop-opacity:1;"
         offset="1"
         id="stop14557" />
    </linearGradient>
    <linearGradient
       inkscape:collect="always"
       xlink:href="#linearGradient1"
       id="linearGradient5"
       x1="16"
       y1="30"
       x2="16"
       y2="2"
       gradientUnits="userSpaceOnUse"
       gradientTransform="matrix(8,0,0,8,-0.00792,3.52e-4)" />
    <linearGradient
       id="linearGradient1"
       inkscape:collect="always">
      <stop
         style="stop-color:#ff2d55;stop-opacity:1;"
         offset="0"
         id="stop1" />
      <stop
         style="stop-color:#ff755e;stop-opacity:1;"
         offset="1"
         id="stop2" />
    </linearGradient>
  </defs>
  <rect
     style="opacity:0.2;fill:#000000;stroke-width:14"
     id="rect1"
     width="224"
     height="224"
     x="16"
     y="17"
     ry="48" />
  <rect
     style="fill:url(#linearGradient4);stroke-width:8"
     id="rect2"
     width="224"
     height="224"
     x="16"
     y="16"
     ry="48" />
  <path
     id="path3"
     style="baseline-shift:baseline;display:inline;overflow:visible;vector-effect:none;fill:url(#linearGradient5);stroke-width:8;enable-background:accumulate;stop-color:#000000"
     d="m 175.47646,44.000352 c -1.92897,0.028 -3.48439,1.60162 -3.48438,3.531248 V 60.000352 H 84.007704 c -17.673104,0 -32,14.326888 -32,32 v 71.999998 h 16 V 92.000352 c 0,-8.836552 7.163456,-16 16,-16 v 0.0312 c 0.10016,-0.0192 0.16396,-0.0272 0.18748,-0.0312 H 200.46082 c 3.14276,-0.0012 4.72146,-3.807696 2.5,-6.031248 L 178.02333,45.0316 c -0.674,-0.674428 -1.59359,-1.044632 -2.54687,-1.031248 z m 12.51562,55.999998 v 64 c 0,8.83655 -7.16345,16 -16,16 v -0.0312 c -0.10016,0.0192 -0.164,0.0272 -0.18748,0.0312 H 80.476456 76.007704 55.538956 c -3.143508,0.001 -4.722024,3.80768 -2.5,6.03125 l 24.9375,24.9375 c 0.67416,0.6744 1.593364,1.04464 2.546872,1.03126 1.929436,-0.028 3.484384,-1.60162 3.484376,-3.53126 v -12.46874 h 87.984376 c 17.67312,0 32,-14.3269 32,-32.00001 v -64 z m -80,12 c -4.432,0 -8,3.568 -8,8 v 16 c 0,4.432 3.568,8 8,8 h 4 c 4.432,0 8,-3.568 8,-8 v -16 c 0,-4.432 -3.568,-8 -8,-8 z m 36,0 c -4.432,0 -8,3.568 -8,8 v 16 c 0,4.432 3.568,8 8,8 h 4 c 4.432,0 8,-3.568 8,-8 v -16 c 0,-4.432 -3.568,-8 -8,-8 z" />
</svg>
