<?xml version="1.0" encoding="UTF-8" standalone="no"?>
<!-- Created with Inkscape (http://www.inkscape.org/) -->

<svg
   width="256"
   height="256"
   viewBox="0 0 256 256.00002"
   version="1.1"
   id="svg1"
   inkscape:version="1.4.2 (ebf0e940d0, 2025-05-08)"
   sodipodi:docname="slack.svg"
   xmlns:inkscape="http://www.inkscape.org/namespaces/inkscape"
   xmlns:sodipodi="http://sodipodi.sourceforge.net/DTD/sodipodi-0.dtd"
   xmlns:xlink="http://www.w3.org/1999/xlink"
   xmlns="http://www.w3.org/2000/svg"
   xmlns:svg="http://www.w3.org/2000/svg">
  <sodipodi:namedview
     id="namedview1"
     pagecolor="#ffffff"
     bordercolor="#000000"
     borderopacity="0.25"
     inkscape:showpageshadow="2"
     inkscape:pageopacity="0.0"
     inkscape:pagecheckerboard="0"
     inkscape:deskcolor="#d1d1d1"
     inkscape:document-units="px"
     inkscape:zoom="3.1601562"
     inkscape:cx="128"
     inkscape:cy="128"
     inkscape:window-width="1920"
     inkscape:window-height="1011"
     inkscape:window-x="0"
     inkscape:window-y="0"
     inkscape:window-maximized="1"
     inkscape:current-layer="svg1" />
  <defs
     id="defs1">
    <linearGradient
       inkscape:collect="always"
       xlink:href="#4852"
       id="linearGradient4"
       x1="16"
       y1="30"
       x2="16"
       y2="2"
       gradientUnits="userSpaceOnUse"
       gradientTransform="scale(8)" />
    <linearGradient
       inkscape:collect="always"
       id="4852">
      <stop
         style="stop-color:#272727;stop-opacity:1;"
         offset="0"
         id="stop14555" />
      <stop
         style="stop-color:#5d5d5d;stop-opacity:1;"
         offset="1"
         id="stop14557" />
    </linearGradient>
  </defs>
  <rect
     style="opacity:0.2;fill:#000000;stroke-width:14"
     id="rect1"
     width="224"
     height="224"
     x="16"
     y="17"
     ry="48" />
  <rect
     style="fill:url(#linearGradient4);stroke-width:8"
     id="rect2"
     width="224"
     height="224"
     x="16"
     y="16"
     ry="48" />
  <path
     style="fill:#36c5f0;stroke-width:8"
     d="m 108,52 a 16,16 0 0 0 -16,16 16,16 0 0 0 16,16 h 16 V 68 A 16,16 0 0 0 108,52 Z m -56,56 a 16,16 0 0 0 16,16 h 40 A 16,16 0 0 0 124,108 16,16 0 0 0 108,92 H 68 a 16,16 0 0 0 -16,16 z"
     id="path4" />
  <path
     style="fill:#2eb67d;stroke-width:8"
     d="m 188,92 a 16,16 0 0 1 16,16 16,16 0 0 1 -16,16 H 172 V 108 A 16,16 0 0 1 188,92 Z M 148,52 a 16,16 0 0 0 -16,16 v 40 a 16,16 0 0 0 16,16 16,16 0 0 0 16,-16 V 68 A 16,16 0 0 0 148,52 Z"
     id="path5" />
  <path
     style="fill:#ecb22e;stroke-width:8"
     d="m 148,204 a 16,16 0 0 0 16,-16 16,16 0 0 0 -16,-16 h -16 v 16 a 16,16 0 0 0 16,16 z m -16,-56 a 16,16 0 0 0 16,16 h 40 a 16,16 0 0 0 16,-16 16,16 0 0 0 -16,-16 h -40 a 16,16 0 0 0 -16,16 z"
     id="path6" />
  <path
     style="fill:#e01e5a;stroke-width:8"
     d="M 68,164 A 16,16 0 0 1 52,148 16,16 0 0 1 68,132 h 16 v 16 a 16,16 0 0 1 -16,16 z m 40,-32 a 16,16 0 0 0 -16,16 v 40 a 16,16 0 0 0 16,16 16,16 0 0 0 16,-16 v -40 a 16,16 0 0 0 -16,-16 z"
     id="path7" />
</svg>
