<?xml version="1.0" encoding="UTF-8" standalone="no"?>
<svg
   height="16"
   width="16"
   version="1.1"
   id="svg4"
   sodipodi:docname="object-rotate-right-symbolic.svg"
   inkscape:version="1.4.2 (ebf0e940d0, 2025-05-08)"
   xmlns:inkscape="http://www.inkscape.org/namespaces/inkscape"
   xmlns:sodipodi="http://sodipodi.sourceforge.net/DTD/sodipodi-0.dtd"
   xmlns="http://www.w3.org/2000/svg"
   xmlns:svg="http://www.w3.org/2000/svg">
  <defs
     id="defs4">
    <style
       id="current-color-scheme"
       type="text/css">
        .ColorScheme-Text { color:#363636; }
     </style>
  </defs>
  <sodipodi:namedview
     id="namedview4"
     pagecolor="#ffffff"
     bordercolor="#000000"
     borderopacity="0.25"
     inkscape:showpageshadow="2"
     inkscape:pageopacity="0.0"
     inkscape:pagecheckerboard="0"
     inkscape:deskcolor="#d1d1d1"
     inkscape:zoom="49.6875"
     inkscape:cx="8"
     inkscape:cy="8"
     inkscape:window-width="1920"
     inkscape:window-height="1010"
     inkscape:window-x="0"
     inkscape:window-y="0"
     inkscape:window-maximized="1"
     inkscape:current-layer="svg4" />
  <path
     id="path1"
     style="fill:currentColor"
     class="ColorScheme-Text"
     d="m 7.5747845,1.0118538 v 0.00195 A 7.006,7.006 0 0 1 12.541581,2.67396 l 1.367188,-1.3671874 c 0.266,0.7389999 0.518859,1.5094531 0.755859,2.3144531 0.231,0.801 0.438094,1.5911875 0.621094,2.3671875 -0.783,-0.176 -1.575,-0.3803282 -2.375,-0.6113282 -0.806,-0.237 -1.572688,-0.492625 -2.304688,-0.765625 L 11.83455,3.3829444 a 5.995,5.995 0 0 0 -6.2109373,-0.8945312 5.995,5.995 0 0 0 -3.5,6.7226562 c 0.57674,2.7887456 3.024693,4.7853126 5.8730468,4.7871126 l 0.7714843,-0.05273 0.066406,0.998046 -0.3339844,0.02149 v 0.03319 h -0.5 a 7.005,7.005 0 0 1 -6.8554687,-5.5839845 7.005,7.005 0 0 1 4.082031,-7.84375 c 0.761001,-0.328 1.5566567,-0.5115937 2.3476568,-0.5585937 z m 0.4257812,4.9863281 a 2,2 0 0 1 2.0000003,2 2,2 0 0 1 -2.0000003,2 2,2 0 0 1 -2,-2 2,2 0 0 1 2,-2 z m 0,1 a 1,1 0 0 0 -1,1 1,1 0 0 0 1,1 1,1 0 0 0 1,-1 1,1 0 0 0 -1,-1 z m 5.2128903,3.9726561 0.832031,0.554688 -0.480468,0.71875 -0.03906,0.05078 -0.0918,0.103516 -0.75,-0.660157 0.07227,-0.08398 z m -1.169922,1.445313 0.658203,0.751953 -0.421875,0.36914 -0.05078,0.03906 -0.367187,0.244141 -0.554688,-0.832032 0.339844,-0.226562 z m -1.550781,1.027343 0.441406,0.896485 -0.216797,0.109375 -0.06055,0.02344 -0.7167962,0.246094 -0.3222656,-0.947265 0.6757808,-0.230469 z" />
</svg>
