<?xml version="1.0" encoding="UTF-8" standalone="no"?>
<svg
   width="22"
   height="22"
   version="1.1"
   id="svg1"
   sodipodi:docname="applications-development-symbolic.svg"
   inkscape:version="1.4 (e7c3feb100, 2024-10-09)"
   xmlns:inkscape="http://www.inkscape.org/namespaces/inkscape"
   xmlns:sodipodi="http://sodipodi.sourceforge.net/DTD/sodipodi-0.dtd"
   xmlns="http://www.w3.org/2000/svg"
   xmlns:svg="http://www.w3.org/2000/svg">
  <defs
     id="defs1" />
  <sodipodi:namedview
     id="namedview1"
     pagecolor="#ffffff"
     bordercolor="#000000"
     borderopacity="0.25"
     inkscape:showpageshadow="2"
     inkscape:pageopacity="0.0"
     inkscape:pagecheckerboard="0"
     inkscape:deskcolor="#d1d1d1"
     inkscape:zoom="36.727273"
     inkscape:cx="10.986386"
     inkscape:cy="11"
     inkscape:window-width="1920"
     inkscape:window-height="1011"
     inkscape:window-x="0"
     inkscape:window-y="0"
     inkscape:window-maximized="1"
     inkscape:current-layer="svg1" />
  <path
     d="m 9.8809,2.966797 c -1.5196,0.072725 -3.2074,1.2188 -4.7871,3.4238 a 0.50005,0.50005 0 0 0 0.63477,0.73633 c 0,0 1.0937,-0.54233 2.0957,-0.64453 0.501,-0.051102 0.93915,0.014428 1.2188,0.21484 0.2796,0.20042 0.50195,0.55218 0.50195,1.3809 v 2.9219 H 9.0001 c -0.554,0 -1,0.446 -1,1 v 5 c 0,0.554 0.446,1 1,1 h 4 c 0.554,0 1,-0.446 1,-1 v -5 c 0,-0.554 -0.446,-1 -1,-1 h -0.63672 v -3.1133 c 0.0026,-0.12198 0.06249,-0.46171 0.20117,-0.69531 0.11413,-0.19224 0.29027,-0.27187 0.5332,-0.3125 l 0.70508,0.63086 a 0.50005,0.50005 0 0 0 0.33398,0.12695 h 1.3633 a 0.50005,0.50005 0 0 0 0.5,-0.5 v -3.6367 a 0.50005,0.50005 0 0 0 -0.5,-0.5 h -1.3633 A 0.50005,0.50005 0 0 0 13.85556,3.085975 L 13.129,3.576205 c -0.1609,-0.05454 -0.42114,-0.14816 -0.96875,-0.28906 -0.69018,-0.17759 -1.5365,-0.35586 -2.2793,-0.32031 z m 0.046875,0.99805 c 0.52992,-0.02536 1.3382,0.12474 1.9844,0.29102 0.64618,0.16627 1.1348,0.33984 1.1348,0.33984 a 0.50005,0.50005 0 0 0 0.44727,-0.058594 l 0.79492,-0.53711 h 0.71094 v 2.6367 h -0.67383 l -0.7793,-0.69727 a 0.50005,0.50005 0 0 0 -0.33398,-0.12695 c -0.71794,0 -1.2454,0.42511 -1.5078,0.86719 -0.2624,0.44208 -0.33532,0.88298 -0.3418,1.1855 a 0.50005,0.50005 0 0 0 0,0.011719 v 3.123 h -0.81836 v -2.9219 c 0,-1.0322 -0.34529,-1.7829 -0.91797,-2.1934 -0.57268,-0.41049 -1.2689,-0.46129 -1.9043,-0.39648 -0.2806,0.028622 -0.28107,0.10155 -0.54102,0.16602 1.0301,-0.99577 2.0202,-1.6547 2.7461,-1.6895 z m -0.92773,8.0352 h 4 v 5 h -4 z"
     fill="#f2f2f2"
     id="path1" />
</svg>
