<?xml version="1.0" encoding="UTF-8" standalone="no"?>
<svg
   width="22"
   height="22"
   version="1.1"
   id="svg1"
   sodipodi:docname="applications-engineering-symbolic.svg"
   inkscape:version="1.4 (e7c3feb100, 2024-10-09)"
   xmlns:inkscape="http://www.inkscape.org/namespaces/inkscape"
   xmlns:sodipodi="http://sodipodi.sourceforge.net/DTD/sodipodi-0.dtd"
   xmlns="http://www.w3.org/2000/svg"
   xmlns:svg="http://www.w3.org/2000/svg">
  <defs
     id="defs1" />
  <sodipodi:namedview
     id="namedview1"
     pagecolor="#ffffff"
     bordercolor="#000000"
     borderopacity="0.25"
     inkscape:showpageshadow="2"
     inkscape:pageopacity="0.0"
     inkscape:pagecheckerboard="0"
     inkscape:deskcolor="#d1d1d1"
     inkscape:zoom="36.727273"
     inkscape:cx="10.986386"
     inkscape:cy="11"
     inkscape:window-width="1920"
     inkscape:window-height="1011"
     inkscape:window-x="0"
     inkscape:window-y="0"
     inkscape:window-maximized="1"
     inkscape:current-layer="svg1" />
  <path
     d="m 14.02,3.53711 a 1.0001,1.0001 0 0 0 -0.58984,0.19336 c -0.89811,0.65868 -1.4296,1.7085 -1.4297,2.8223 0.0012,1.3259 0.86654,2.3529 2,2.9434 v 1.1797 a 7,7 0 0 1 1,0.58008 v -2.2559 c -1.1632,-0.23743 -1.9989,-1.2601 -2,-2.4473 9.8e-5,-0.7962 0.37943,-1.5447 1.0215,-2.0156 -0.004,0.036332 -0.02148,0.068046 -0.02148,0.10547 v 2 c 0,0.554 0.446,1 1,1 h 1 c 0.554,0 1,-0.446 1,-1 v -2 c 0,-0.037422 -0.01752,-0.069136 -0.02148,-0.10547 0.64204,0.47088 1.0214,1.2194 1.0215,2.0156 -1.29e-4,1.1879 -0.83612,2.2116 -2,2.4492 v 3.0996 a 7,7 0 0 1 1,1.2949 v -3.9004 c 1.134,-0.59095 1.9999,-1.6166 2,-2.9434 -1.38e-4,-1.1138 -0.53157,-2.1636 -1.4297,-2.8223 a 1.0001,1.0001 0 0 0 -1.5859,0.91602 c 0.01271,0.11643 0.01417,0.1478 0.01563,0.16797 v 1.8281 h -1 v -1.8281 c 0.0015,-0.020168 0.0029,-0.051534 0.01563,-0.16797 a 1.0001,1.0001 0 0 0 -0.99609,-1.1094 z m -3.0195,7.4629 a 6,6 0 0 0 -6,6 h -2 v 1 h 16 v -1 h -2 a 6,6 0 0 0 -6,-6 z m 0,1 a 5,5 0 0 1 5,5 h -1 a 4,4 0 0 0 -4,-4 4,4 0 0 0 -0.06055,0 4,4 0 0 0 -3.9395,4 h -1 a 5,5 0 0 1 5,-5 z m -0.05273,2 a 3,3 0 0 1 0.002,0 3,3 0 0 1 0.05078,0 3,3 0 0 1 3,3 H 8.0005002 a 3,3 0 0 1 2.9472998,-3 z"
     fill="#f2f2f2"
     id="path1" />
</svg>
