<?xml version="1.0" encoding="UTF-8" standalone="no"?>
<!-- Created with Inkscape (http://www.inkscape.org/) -->

<svg
   width="16"
   height="16"
   viewBox="0 0 16 16.000001"
   version="1.1"
   id="svg1"
   inkscape:version="1.4.3 (0d15f75042, 2025-12-25)"
   sodipodi:docname="abiword.svg"
   xmlns:inkscape="http://www.inkscape.org/namespaces/inkscape"
   xmlns:sodipodi="http://sodipodi.sourceforge.net/DTD/sodipodi-0.dtd"
   xmlns:xlink="http://www.w3.org/1999/xlink"
   xmlns="http://www.w3.org/2000/svg"
   xmlns:svg="http://www.w3.org/2000/svg">
  <sodipodi:namedview
     id="namedview1"
     pagecolor="#ffffff"
     bordercolor="#000000"
     borderopacity="0.25"
     inkscape:showpageshadow="2"
     inkscape:pageopacity="0.0"
     inkscape:pagecheckerboard="0"
     inkscape:deskcolor="#d1d1d1"
     inkscape:document-units="px"
     inkscape:zoom="51.1875"
     inkscape:cx="8"
     inkscape:cy="8"
     inkscape:window-width="1920"
     inkscape:window-height="1022"
     inkscape:window-x="0"
     inkscape:window-y="0"
     inkscape:window-maximized="1"
     inkscape:current-layer="svg1" />
  <defs
     id="defs1">
    <linearGradient
       inkscape:collect="always"
       xlink:href="#linearGradient1677"
       id="linearGradient2"
       x1="16"
       y1="15.735369"
       x2="16"
       y2="0"
       gradientUnits="userSpaceOnUse" />
    <linearGradient
       inkscape:collect="always"
       id="linearGradient1677">
      <stop
         style="stop-color:#5792d8;stop-opacity:1;"
         offset="0"
         id="stop1673" />
      <stop
         style="stop-color:#a2d2f9;stop-opacity:1;"
         offset="1"
         id="stop1675" />
    </linearGradient>
  </defs>
  <rect
     style="fill:url(#linearGradient2)"
     id="rect1"
     width="16"
     height="16"
     x="0"
     y="0"
     ry="4" />
  <path
     d="M 10.458576,9.8029465 C 8.6079355,10.673659 6.7035805,11.490087 4.6818695,11.925801 c -0.651642,-0.0036 -0.330142,-0.810714 -0.224857,-1.176427 0.5055,-1.5540695 1.289284,-3.0089962 2.034711,-4.4679933 0.295143,-0.4609278 0.504429,-1.0962126 1.099499,-1.2735694 0.577999,-0.061071 0.957784,0.4708564 1.257212,0.8588558 C 10.072862,7.6508779 11.228575,9.4815175 12.242859,11.381516 12.499287,11.876515 12.751429,12.374372 13,12.872942 12.260002,9.9979455 11.263575,7.1464501 9.6571475,4.5943833 9.2975055,4.0905984 8.9695775,3.5437421 8.4837925,3.1383142 c -0.473356,-0.3459288 -1.055641,0.0265 -1.405569,0.3614273 -1.099213,1.0490705 -1.768855,2.4180684 -2.424925,3.7399228 -0.765213,1.5644261 -1.267284,3.2318527 -1.635855,4.9161367 -0.129214,0.56727 0.483971,0.978998 1.028856,0.802999 1.509355,-0.298721 2.92771,-0.925285 4.262636,-1.644427 0.769285,-0.429871 1.5092117,-0.917999 2.1492115,-1.5114985 z"
     style="fill:#ffffff;stroke-width:0.714285"
     id="path11170" />
</svg>
