<?xml version="1.0" encoding="UTF-8" standalone="no"?>
<!-- Created with Inkscape (http://www.inkscape.org/) -->

<svg
   width="16"
   height="16"
   viewBox="0 0 16 16.000001"
   version="1.1"
   id="svg1"
   inkscape:version="1.4.3 (0d15f75042, 2025-12-25)"
   sodipodi:docname="conky.svg"
   xmlns:inkscape="http://www.inkscape.org/namespaces/inkscape"
   xmlns:sodipodi="http://sodipodi.sourceforge.net/DTD/sodipodi-0.dtd"
   xmlns:xlink="http://www.w3.org/1999/xlink"
   xmlns="http://www.w3.org/2000/svg"
   xmlns:svg="http://www.w3.org/2000/svg">
  <sodipodi:namedview
     id="namedview1"
     pagecolor="#ffffff"
     bordercolor="#000000"
     borderopacity="0.25"
     inkscape:showpageshadow="2"
     inkscape:pageopacity="0.0"
     inkscape:pagecheckerboard="0"
     inkscape:deskcolor="#d1d1d1"
     inkscape:document-units="px"
     inkscape:zoom="36.1875"
     inkscape:cx="8"
     inkscape:cy="8"
     inkscape:window-width="1440"
     inkscape:window-height="830"
     inkscape:window-x="0"
     inkscape:window-y="0"
     inkscape:window-maximized="1"
     inkscape:current-layer="svg1" />
  <defs
     id="defs1">
    <linearGradient
       id="linearGradient6"
       inkscape:collect="always">
      <stop
         style="stop-color:#6d10b1;stop-opacity:1;"
         offset="0"
         id="stop6" />
      <stop
         style="stop-color:#a642ee;stop-opacity:1;"
         offset="1"
         id="stop7" />
    </linearGradient>
    <linearGradient
       id="linearGradient4"
       inkscape:collect="always">
      <stop
         style="stop-color:#d6a9f6;stop-opacity:1;"
         offset="0"
         id="stop4" />
      <stop
         style="stop-color:#e6c9f8;stop-opacity:1;"
         offset="1"
         id="stop5" />
    </linearGradient>
    <linearGradient
       inkscape:collect="always"
       xlink:href="#linearGradient4"
       id="linearGradient5"
       x1="8"
       y1="16"
       x2="8"
       y2="0"
       gradientUnits="userSpaceOnUse" />
    <linearGradient
       inkscape:collect="always"
       xlink:href="#linearGradient6"
       id="linearGradient7"
       x1="8"
       y1="16"
       x2="8"
       y2="0"
       gradientUnits="userSpaceOnUse" />
  </defs>
  <rect
     style="fill:url(#linearGradient5);fill-opacity:1"
     id="rect1"
     width="16"
     height="16"
     x="0"
     y="0"
     ry="4" />
  <path
     id="rect234"
     style="fill:url(#linearGradient7);stroke-width:4;stroke-linecap:round;stroke-linejoin:round;fill-opacity:1"
     d="m 4.9999998,3.0000002 c -1.1079944,0 -1.9999999,0.8920056 -1.9999999,2 v 4 C 2.9999999,10.107995 3.8920054,11 4.9999998,11 h 2 v 1 h -1.5 c -0.2769997,0 -0.5,0.223 -0.5,0.5 0,0.277 0.2230003,0.5 0.5,0.5 H 10.5 C 10.776999,13 11,12.777 11,12.5 11,12.223 10.776999,12 10.5,12 H 8.9999999 V 11 H 11 c 1.107995,0 2,-0.892005 2,-1.9999998 v -0.5 c 0,-0.2761421 -0.223858,-0.5 -0.5,-0.5 -0.276142,0 -0.5,0.2238579 -0.5,0.5 v 0.5 C 12,9.5539976 11.553997,10 11,10 H 4.9999998 C 4.4460028,10 3.9999999,9.5539976 3.9999999,9.0000002 v -4 c 0,-0.553997 0.4460029,-1 0.9999999,-1 H 11 c 0.553997,0 1,0.446003 1,1 v 0.5 c 0,0.2761418 0.223858,0.5 0.5,0.5 0.276142,0 0.5,-0.2238582 0.5,-0.5 v -0.5 c 0,-1.1079944 -0.892005,-2 -2,-2 z" />
</svg>
