<?xml version="1.0" encoding="UTF-8" standalone="no"?>
<!-- Created with Inkscape (http://www.inkscape.org/) -->

<svg
   width="16"
   height="16"
   viewBox="0 0 16 16.000001"
   version="1.1"
   id="svg1"
   inkscape:version="1.4.2 (1:1.4.2+202505120737+ebf0e940d0)"
   sodipodi:docname="rnote.svg"
   xmlns:inkscape="http://www.inkscape.org/namespaces/inkscape"
   xmlns:sodipodi="http://sodipodi.sourceforge.net/DTD/sodipodi-0.dtd"
   xmlns:xlink="http://www.w3.org/1999/xlink"
   xmlns="http://www.w3.org/2000/svg"
   xmlns:svg="http://www.w3.org/2000/svg">
  <sodipodi:namedview
     id="namedview1"
     pagecolor="#ffffff"
     bordercolor="#000000"
     borderopacity="0.25"
     inkscape:showpageshadow="2"
     inkscape:pageopacity="0.0"
     inkscape:pagecheckerboard="0"
     inkscape:deskcolor="#d1d1d1"
     inkscape:document-units="px"
     inkscape:zoom="50.4375"
     inkscape:cx="8"
     inkscape:cy="8"
     inkscape:window-width="1920"
     inkscape:window-height="1016"
     inkscape:window-x="0"
     inkscape:window-y="0"
     inkscape:window-maximized="1"
     inkscape:current-layer="svg1" />
  <defs
     id="defs1">
    <linearGradient
       id="linearGradient1"
       inkscape:collect="always">
      <stop
         style="stop-color:#2e2e2e;stop-opacity:1;"
         offset="0"
         id="stop1" />
      <stop
         style="stop-color:#565656;stop-opacity:1;"
         offset="1"
         id="stop2" />
    </linearGradient>
    <linearGradient
       inkscape:collect="always"
       id="linearGradient1606">
      <stop
         style="stop-color:#eaebed;stop-opacity:1;"
         offset="0"
         id="stop1602" />
      <stop
         style="stop-color:#f9fafa;stop-opacity:1;"
         offset="1"
         id="stop1604" />
    </linearGradient>
    <linearGradient
       inkscape:collect="always"
       xlink:href="#linearGradient1606"
       id="linearGradient2"
       x1="16"
       y1="15.735369"
       x2="16"
       y2="0"
       gradientUnits="userSpaceOnUse" />
    <linearGradient
       inkscape:collect="always"
       xlink:href="#linearGradient1"
       id="linearGradient6"
       x1="11.000003"
       y1="13.000074"
       x2="11.000003"
       y2="3"
       gradientUnits="userSpaceOnUse" />
  </defs>
  <rect
     style="fill:url(#linearGradient2)"
     id="rect1"
     width="16"
     height="16"
     x="0"
     y="0"
     ry="4" />
  <path
     d="m 10.415368,5.2376714 c -0.019,-0.1577775 0.0996,-0.4074541 0.08369,-0.7473691 C 10.482628,4.149834 10.3209,3.6753931 9.657045,3.3310504 9.645235,3.3249604 9.633435,3.3188664 9.621105,3.3127834 9.189316,3.0979849 8.559862,2.9440818 7.8256671,3.0193727 7.2552548,3.0780545 6.6627651,3.2723706 6.104162,3.6150536 5.601521,3.9223046 5.1384147,4.3430456 4.7625894,4.8634366 4.541818,5.1906179 4.3492841,5.5609813 4.2116866,5.9606845 4.1521296,6.1334105 4.1028412,6.3122249 4.065875,6.4949156 4.018125,6.7324127 3.991947,6.992054 4.002212,7.2660896 4.029422,7.7006707 4.1495638,8.1756659 4.418084,8.6030494 4.5448997,8.8056695 4.7025196,8.9894676 4.8847845,9.142817 5.0660229,9.296165 5.2734457,9.420173 5.4998652,9.501554 5.8628548,9.629437 6.2196834,9.629437 6.5149007,9.581274 6.671495,9.555804 6.8152526,9.516504 6.9420683,9.472767 7.0986616,9.419067 7.2424201,9.357063 7.3558863,9.304471 7.6033557,9.187658 7.8354236,9.047596 8.020255,8.9346603 8.205087,8.8217244 8.386325,8.7082354 8.560375,8.6163363 8.664087,8.5631863 8.787308,8.5039546 8.908989,8.459112 8.941339,8.447488 8.973679,8.436414 9.006029,8.427 9.127196,8.391017 9.246825,8.374961 9.353102,8.386585 c 0.09087,0.00943 0.16789,0.041515 0.219745,0.08083 0.02207,0.014946 0.04107,0.035983 0.05699,0.058132 0.01386,0.020487 0.0231,0.039865 0.02824,0.050379 0.0057,0.013285 0.0088,0.040415 -0.0011,0.07972 -0.0093,0.039855 -0.02926,0.085812 -0.06007,0.1317579 -0.03183,0.047057 -0.07598,0.095775 -0.135543,0.1461522 C 9.402834,8.9822741 9.333009,9.0298821 9.251888,9.075833 9.07373,9.168283 8.8966,9.230289 8.64759,9.330492 8.421684,9.421282 8.152137,9.538647 7.8995335,9.724659 c -0.132463,0.100757 -0.264926,0.226425 -0.3789059,0.378667 -0.1134662,0.152242 -0.2120435,0.336039 -0.266979,0.551392 -0.049292,0.215353 -0.051856,0.454512 0.014371,0.684258 0.033369,0.116812 0.084714,0.227533 0.1504333,0.326075 0.066748,0.09965 0.1504323,0.189888 0.2495234,0.261856 0.1761029,0.126222 0.3701767,0.172725 0.5380657,0.177708 h 0.05699 c 0.142218,-0.0038 0.277762,-0.03543 0.401497,-0.08027 0.129382,-0.04262 0.246443,-0.100203 0.347073,-0.151135 0.102685,-0.05259 0.181751,-0.09521 0.264412,-0.130651 0.07547,-0.03598 0.141192,-0.05923 0.200749,-0.06921 0.05647,-0.0094 0.102685,-0.005 0.136057,0.005 0.01489,0.0044 0.02824,0.01162 0.03902,0.01883 0.01027,0.0072 0.01746,0.01384 0.02105,0.01717 0.0057,0.0028 0.01079,0.0072 0.01437,0.0084 0.0041,0 0.0077,0.0023 0.01284,0.0011 0.0046,-0.0011 0,0.01661 -0.01849,0.03987 -0.02156,0.02713 -0.05288,0.05425 -0.101144,0.09466 -0.04672,0.0382 -0.110387,0.08857 -0.168403,0.150581 -0.06417,0.06809 -0.126816,0.154456 -0.165322,0.261303 -0.03851,0.107953 -0.04467,0.218674 -0.02875,0.316109 0.01849,0.113489 0.06726,0.206495 0.123735,0.272375 0.07599,0.08968 0.164295,0.127882 0.229499,0.138401 0.01591,0.0023 0.0308,0.0033 0.04467,0.0028 0.116033,-0.0044 0.162754,-0.100203 0.183291,-0.128436 -0.02875,-0.02934 -0.05802,-0.104632 -0.08112,-0.168851 -0.0026,-0.0072 -0.0051,-0.01384 -0.0072,-0.02104 -0.0093,-0.02823 -0.01745,-0.05923 -0.0154,-0.08691 0.0011,-0.01993 0.0057,-0.04096 0.01438,-0.05425 0.0072,-0.01162 0.01746,-0.02215 0.0267,-0.02602 0.0093,-0.0044 0.02465,-0.01772 0.05237,-0.03598 0.0344,-0.02215 0.05854,-0.03487 0.119628,-0.07031 0.04775,-0.02713 0.118601,-0.06921 0.186372,-0.126223 0.06777,-0.05702 0.145812,-0.140062 0.201262,-0.255766 0.04929,-0.103524 0.07342,-0.218121 0.07342,-0.331057 5.13e-4,-0.112935 -0.0231,-0.22255 -0.06417,-0.320538 -0.04312,-0.09854 -0.102685,-0.182691 -0.170457,-0.251891 C 10.066691,11.052916 9.989159,10.99756 9.908039,10.95604 9.745283,10.87355 9.573801,10.850301 9.423368,10.85639 c -0.155567,0.0061 -0.298298,0.04374 -0.415872,0.08359 -0.116033,0.04208 -0.236174,0.09744 -0.321403,0.134527 -0.09806,0.04263 -0.173536,0.07197 -0.244902,0.08968 -0.06726,0.01273 -0.118087,0.01162 -0.155054,0.0028 -0.0046,-0.0011 -0.0092,-0.0023 -0.01386,-0.0038 -0.03748,-0.01273 -0.05801,-0.03487 -0.05237,-0.04595 0.0031,-0.0044 0.0036,-0.01 0.0046,-0.01938 0.0011,-0.0088 0.002,-0.01883 0.0062,-0.02768 0.0062,-0.01883 0.01642,-0.05149 0.03749,-0.08193 0.0154,-0.03377 0.04107,-0.07197 0.08317,-0.115151 0.04312,-0.04429 0.0996,-0.08913 0.167376,-0.12899 0.13657,-0.08857 0.299326,-0.154456 0.510342,-0.225871 0.1951,-0.06643 0.462593,-0.147814 0.708523,-0.257981 0.132463,-0.05647 0.27006,-0.125669 0.40355,-0.213139 0.13657,-0.08913 0.2716,-0.198745 0.394821,-0.334378 0.127843,-0.141723 0.238742,-0.308913 0.320376,-0.496032 0.08369,-0.192655 0.13811,-0.4113295 0.143244,-0.6455053 C 11.004702,8.3402759 10.961092,8.122155 10.88819,7.9295005 10.81323,7.7295409 10.703871,7.5501724 10.573462,7.4001448 10.297241,7.082374 9.947601,6.9096489 9.633386,6.8349122 9.26937,6.7480002 8.927944,6.7801022 8.665585,6.8399222 8.592675,6.8570882 8.523881,6.8759052 8.459703,6.8963932 8.217367,6.973343 8.016106,7.0768703 7.8749143,7.1571431 7.6454142,7.2850265 7.4169416,7.4405902 7.2613748,7.5430072 7.0806501,7.6620323 6.9189223,7.7650035 6.7566807,7.8441689 6.6842847,7.8801522 6.605218,7.9122641 6.5230707,7.9344122 6.4573547,7.9515785 6.3931745,7.9632029 6.330024,7.9665241 6.2093693,7.9732059 6.1077114,7.9499179 6.0389137,7.9072921 5.9988647,7.8840434 5.9577947,7.8502709 5.920313,7.8059815 5.882828,7.7611448 5.851001,7.7091055 5.82944,7.65374 5.780148,7.5308395 5.764745,7.3819192 5.786317,7.2407499 5.792007,7.1527272 5.809932,7.0641494 5.838173,6.9761258 5.860246,6.9080305 5.89054,6.8388309 5.929046,6.769077 6.019408,6.6052092 6.1503311,6.4501987 6.3038448,6.3167803 6.5425855,6.0792822 6.8218875,5.9076645 7.1052966,5.7963893 7.4205382,5.6723813 7.7224303,5.6297535 7.9873563,5.6275397 c 0.3388577,-0.00226 0.6422927,0.060342 0.8800057,0.090234 0.0067,5.532e-4 0.01335,0.00167 0.02002,0.00226 0.375826,0.044847 0.663855,-0.049828 0.919539,-0.1815833 0.247983,-0.1273292 0.469783,-0.2995011 0.608405,-0.3006075 z"
     style="fill:url(#linearGradient6)"
     id="path1-5" />
</svg>
