<?xml version="1.0" encoding="UTF-8" standalone="no"?>
<!-- Created with Inkscape (http://www.inkscape.org/) -->

<svg
   width="16"
   height="16"
   viewBox="0 0 16 16.000001"
   version="1.1"
   id="svg1"
   inkscape:version="1.4.2 (ebf0e940d0, 2025-05-08)"
   sodipodi:docname="wine.svg"
   xmlns:inkscape="http://www.inkscape.org/namespaces/inkscape"
   xmlns:sodipodi="http://sodipodi.sourceforge.net/DTD/sodipodi-0.dtd"
   xmlns:xlink="http://www.w3.org/1999/xlink"
   xmlns="http://www.w3.org/2000/svg"
   xmlns:svg="http://www.w3.org/2000/svg">
  <sodipodi:namedview
     id="namedview1"
     pagecolor="#ffffff"
     bordercolor="#000000"
     borderopacity="0.25"
     inkscape:showpageshadow="2"
     inkscape:pageopacity="0.0"
     inkscape:pagecheckerboard="0"
     inkscape:deskcolor="#d1d1d1"
     inkscape:document-units="px"
     inkscape:zoom="49.8125"
     inkscape:cx="8"
     inkscape:cy="8"
     inkscape:window-width="1920"
     inkscape:window-height="1011"
     inkscape:window-x="0"
     inkscape:window-y="0"
     inkscape:window-maximized="1"
     inkscape:current-layer="svg1" />
  <defs
     id="defs1">
    <linearGradient
       inkscape:collect="always"
       id="linearGradient1606">
      <stop
         style="stop-color:#eaebed;stop-opacity:1;"
         offset="0"
         id="stop1602" />
      <stop
         style="stop-color:#f9fafa;stop-opacity:1;"
         offset="1"
         id="stop1604" />
    </linearGradient>
    <linearGradient
       inkscape:collect="always"
       xlink:href="#linearGradient1606"
       id="linearGradient2"
       x1="16"
       y1="15.735369"
       x2="16"
       y2="0"
       gradientUnits="userSpaceOnUse" />
    <linearGradient
       inkscape:collect="always"
       xlink:href="#linearGradient1694"
       id="linearGradient2-5"
       x1="7.5"
       y1="9"
       x2="7.5"
       y2="4"
       gradientUnits="userSpaceOnUse" />
    <linearGradient
       inkscape:collect="always"
       id="linearGradient1694">
      <stop
         style="stop-color:#940e0e;stop-opacity:1;"
         offset="0"
         id="stop1690" />
      <stop
         style="stop-color:#d17979;stop-opacity:1;"
         offset="1"
         id="stop1692" />
    </linearGradient>
    <linearGradient
       inkscape:collect="always"
       xlink:href="#linearGradient3"
       id="linearGradient4"
       x1="10"
       y1="13"
       x2="10"
       y2="3"
       gradientUnits="userSpaceOnUse" />
    <linearGradient
       id="linearGradient3"
       inkscape:collect="always">
      <stop
         style="stop-color:#98a9ad;stop-opacity:1;"
         offset="0"
         id="stop3" />
      <stop
         style="stop-color:#c4c8cd;stop-opacity:1;"
         offset="1"
         id="stop4" />
    </linearGradient>
  </defs>
  <rect
     style="fill:url(#linearGradient2)"
     id="rect1"
     width="16"
     height="16"
     x="0"
     y="0"
     ry="4" />
  <path
     d="m 5.5,6 h 4 v 2 c 0,1.107999 -0.8920011,2 -2,2 -1.1079989,0 -2,-0.892001 -2,-2 z"
     style="fill:url(#linearGradient2-5);stroke-width:1.33333"
     id="path1" />
  <path
     id="path2"
     style="fill:url(#linearGradient4);fill-opacity:1"
     d="M 5,3 V 7.5 C 5,8.713956 5.8557915,9.721083 7,9.951172 V 12 H 6.5 C 6.2230015,12 6,12.223 6,12.5 6,12.777 6.2230015,13 6.5,13 h 2 C 8.7769985,13 9,12.777 9,12.5 9,12.223 8.7769985,12 8.5,12 H 8 V 9.951172 C 9.1442085,9.721083 10,8.713956 10,7.5 V 3 Z M 6,4 H 9 V 7.5 C 9,8.330999 8.3309992,9 7.5,9 6.6690008,9 6,8.330999 6,7.5 Z" />
</svg>
