<?xml version="1.0" encoding="UTF-8" standalone="no"?>
<!-- Created with Inkscape (http://www.inkscape.org/) -->

<svg
   width="128"
   height="128"
   viewBox="0 0 128 128"
   version="1.1"
   id="svg5"
   inkscape:version="1.4.2 (ebf0e940d0, 2025-05-08)"
   sodipodi:docname="system-restart.svg"
   xmlns:inkscape="http://www.inkscape.org/namespaces/inkscape"
   xmlns:sodipodi="http://sodipodi.sourceforge.net/DTD/sodipodi-0.dtd"
   xmlns:xlink="http://www.w3.org/1999/xlink"
   xmlns="http://www.w3.org/2000/svg"
   xmlns:svg="http://www.w3.org/2000/svg">
  <sodipodi:namedview
     id="namedview7"
     pagecolor="#ffffff"
     bordercolor="#666666"
     borderopacity="1.0"
     inkscape:showpageshadow="2"
     inkscape:pageopacity="0.0"
     inkscape:pagecheckerboard="0"
     inkscape:deskcolor="#d1d1d1"
     inkscape:document-units="px"
     showgrid="false"
     inkscape:zoom="6.21875"
     inkscape:cx="63.919598"
     inkscape:cy="64"
     inkscape:window-width="1920"
     inkscape:window-height="1010"
     inkscape:window-x="0"
     inkscape:window-y="0"
     inkscape:window-maximized="1"
     inkscape:current-layer="svg5" />
  <defs
     id="defs2">
    <linearGradient
       inkscape:collect="always"
       xlink:href="#linearGradient1500"
       id="linearGradient2881"
       x1="16.000002"
       y1="3.0000002"
       x2="16.000002"
       y2="29.000002"
       gradientUnits="userSpaceOnUse"
       gradientTransform="matrix(4.307692,0,0,4.307692,-4.9230768,-4.9230768)" />
    <linearGradient
       inkscape:collect="always"
       id="linearGradient1500">
      <stop
         style="stop-color:#afe481;stop-opacity:1;"
         offset="0"
         id="stop1496" />
      <stop
         style="stop-color:#74c72b;stop-opacity:1;"
         offset="1"
         id="stop1498" />
    </linearGradient>
  </defs>
  <circle
     style="opacity:0.2;fill:#000000;fill-opacity:1;stroke:none;stroke-width:8.6154;stroke-linecap:round;stroke-linejoin:round;stroke-dasharray:none;stroke-opacity:1"
     id="path2871"
     cx="64"
     cy="65"
     r="56" />
  <circle
     style="opacity:1;fill:url(#linearGradient2881);stroke:none;stroke-width:8.6154;stroke-linecap:round;stroke-linejoin:round;stroke-dasharray:none;stroke-opacity:1"
     id="path2873"
     cx="64"
     cy="64"
     r="56" />
  <path
     id="path291"
     style="fill:#ffffff;stroke-width:3.78948;stroke-linecap:round;stroke-linejoin:round"
     d="M 64,28 C 50.055356,28 37.975712,35.928036 32,47.523436 V 36 h -4 v 16 4 H 32 33.007812 48 V 52 H 34.328124 C 39.0752,40.273216 50.570588,32 64,32 78.911644,32 91.440788,42.196844 94.992188,56 h 4.101564 C 95.455312,39.968956 81.132068,28 64,28 Z M 28.90625,72 C 32.544684,88.031048 46.867936,100 64,100 77.944648,100 90.024288,92.071964 96,80.476564 V 92 h 4 V 76 72 H 99.093752 96 94.992188 80 v 4 H 93.671876 C 88.9248,87.726784 77.429416,96 64,96 49.08836,96 36.559212,85.803156 33.007812,72 Z" />
</svg>
