<?xml version="1.0" encoding="UTF-8" standalone="no"?>
<!-- Created with Inkscape (http://www.inkscape.org/) -->

<svg
   width="96"
   height="96"
   viewBox="0 0 96 96.000006"
   version="1.1"
   id="svg1"
   inkscape:version="1.4.3 (0d15f75042, 2025-12-25)"
   sodipodi:docname="0ad.svg"
   xmlns:inkscape="http://www.inkscape.org/namespaces/inkscape"
   xmlns:sodipodi="http://sodipodi.sourceforge.net/DTD/sodipodi-0.dtd"
   xmlns:xlink="http://www.w3.org/1999/xlink"
   xmlns="http://www.w3.org/2000/svg"
   xmlns:svg="http://www.w3.org/2000/svg">
  <sodipodi:namedview
     id="namedview1"
     pagecolor="#ffffff"
     bordercolor="#000000"
     borderopacity="0.25"
     inkscape:showpageshadow="2"
     inkscape:pageopacity="0.0"
     inkscape:pagecheckerboard="0"
     inkscape:deskcolor="#d1d1d1"
     inkscape:document-units="px"
     inkscape:zoom="6.0520833"
     inkscape:cx="48"
     inkscape:cy="48"
     inkscape:window-width="1440"
     inkscape:window-height="832"
     inkscape:window-x="0"
     inkscape:window-y="0"
     inkscape:window-maximized="1"
     inkscape:current-layer="svg1" />
  <defs
     id="defs1">
    <linearGradient
       inkscape:collect="always"
       xlink:href="#linearGradient4-6"
       id="linearGradient4"
       x1="16"
       y1="30"
       x2="16"
       y2="2"
       gradientUnits="userSpaceOnUse"
       gradientTransform="scale(3)" />
    <linearGradient
       inkscape:collect="always"
       id="linearGradient3149">
      <stop
         style="stop-color:#886c38;stop-opacity:1;"
         offset="0"
         id="stop3145-9" />
      <stop
         style="stop-color:#d1bc92;stop-opacity:1;"
         offset="1"
         id="stop3147" />
    </linearGradient>
    <linearGradient
       inkscape:collect="always"
       xlink:href="#linearGradient3149"
       id="linearGradient2"
       x1="16"
       y1="30"
       x2="16"
       y2="2"
       gradientUnits="userSpaceOnUse"
       gradientTransform="scale(3)" />
    <linearGradient
       inkscape:collect="always"
       id="linearGradient4-6">
      <stop
         style="stop-color:#2a2111;stop-opacity:1;"
         offset="0"
         id="stop3" />
      <stop
         style="stop-color:#534323;stop-opacity:1;"
         offset="1"
         id="stop4" />
    </linearGradient>
  </defs>
  <rect
     style="opacity:0.2;fill:#000000;stroke-width:5.25"
     id="rect1"
     width="84"
     height="84"
     x="6"
     y="7"
     ry="18" />
  <rect
     style="fill:url(#linearGradient4);stroke-width:3"
     id="rect2"
     width="84"
     height="84"
     x="6"
     y="6"
     ry="18" />
  <path
     d="M 48,18 C 31.431459,18 18,31.431459 18,48 18,64.568541 31.431459,78 48,78 64.568541,78 78,64.568541 78,48 78,31.431459 64.568541,18 48,18 Z m 3,6.193359 C 61.872426,25.565266 70.434735,34.127574 71.806641,45 H 51 Z m -6,0.04102 V 45 H 24.234375 C 25.619438,34.156782 34.156782,25.619438 45,24.234375 Z M 24.234375,51 H 45 V 71.765625 C 34.156782,70.380561 25.619438,61.843218 24.234375,51 Z M 51,51 H 71.765625 C 70.380561,61.843218 61.843218,70.380561 51,71.765625 Z"
     style="fill:url(#linearGradient2);stroke-width:6;stroke-linecap:round;stroke-linejoin:round"
     id="path1" />
</svg>
