<?xml version="1.0" encoding="UTF-8" standalone="no"?>
<!-- Created with Inkscape (http://www.inkscape.org/) -->

<svg
   width="96"
   height="96"
   viewBox="0 0 96 96.000006"
   version="1.1"
   id="svg1"
   inkscape:version="1.4.3 (0d15f75042, 2025-12-25)"
   sodipodi:docname="abiword.svg"
   xmlns:inkscape="http://www.inkscape.org/namespaces/inkscape"
   xmlns:sodipodi="http://sodipodi.sourceforge.net/DTD/sodipodi-0.dtd"
   xmlns:xlink="http://www.w3.org/1999/xlink"
   xmlns="http://www.w3.org/2000/svg"
   xmlns:svg="http://www.w3.org/2000/svg">
  <sodipodi:namedview
     id="namedview1"
     pagecolor="#ffffff"
     bordercolor="#000000"
     borderopacity="0.25"
     inkscape:showpageshadow="2"
     inkscape:pageopacity="0.0"
     inkscape:pagecheckerboard="0"
     inkscape:deskcolor="#d1d1d1"
     inkscape:document-units="px"
     inkscape:zoom="8.53125"
     inkscape:cx="47.941392"
     inkscape:cy="48"
     inkscape:window-width="1920"
     inkscape:window-height="1022"
     inkscape:window-x="0"
     inkscape:window-y="0"
     inkscape:window-maximized="1"
     inkscape:current-layer="svg1" />
  <defs
     id="defs1">
    <linearGradient
       inkscape:collect="always"
       xlink:href="#linearGradient1677"
       id="linearGradient4"
       x1="16"
       y1="30"
       x2="16"
       y2="2"
       gradientUnits="userSpaceOnUse"
       gradientTransform="scale(3)" />
    <linearGradient
       inkscape:collect="always"
       id="linearGradient1677">
      <stop
         style="stop-color:#5792d8;stop-opacity:1;"
         offset="0"
         id="stop1673" />
      <stop
         style="stop-color:#a2d2f9;stop-opacity:1;"
         offset="1"
         id="stop1675" />
    </linearGradient>
  </defs>
  <rect
     style="opacity:0.2;fill:#000000;stroke-width:5.25"
     id="rect1"
     width="84"
     height="84"
     x="6"
     y="7"
     ry="18" />
  <rect
     style="fill:url(#linearGradient4);stroke-width:3"
     id="rect2"
     width="84"
     height="84"
     x="6"
     y="6"
     ry="18" />
  <path
     d="m 61.273467,56.778417 c -9.9915,4.9614 -20.2752,9.6177 -31.191,12.0984 -3.519,-0.0171 -1.78275,-4.6191 -1.21437,-6.7044 2.72973,-8.8581 6.9624,-17.1513 10.9875,-25.4673 1.59372,-2.62743 2.72415,-6.2484 5.9376,-7.2594 3.1212,-0.34836 5.172,2.68356 6.7887,4.8954 6.6108,10.1697 12.8538,20.6055 18.3291,31.434 1.386,2.823 2.745,5.658 4.089,8.502 -3.996,-16.386 -9.378,-32.643 -18.051,-47.189997 -1.944,-2.871 -3.714,-5.988 -6.336,-8.2992 -2.556,-1.971901 -5.7,0.1512 -7.59,2.0601 -5.9364,5.9799 -9.5523,13.782897 -13.0953,21.317097 -4.1322,8.9169 -6.8433,18.4218 -8.8335,28.023 -0.69774,3.2334 2.61342,5.5806 5.556,4.5771 8.1504,-1.70271 15.8097,-5.2743 23.0184,-9.3729 4.1544,-2.45028 8.1495,-5.2326 11.6058,-8.6157 z"
     style="fill:#ffffff;stroke-width:3"
     id="path8520"
     sodipodi:nodetypes="ccccccccccccccccc" />
</svg>
