<?xml version="1.0" encoding="UTF-8" standalone="no"?>
<!-- Created with Inkscape (http://www.inkscape.org/) -->

<svg
   width="96"
   height="96"
   viewBox="0 0 96 96.000006"
   version="1.1"
   id="svg1"
   inkscape:version="1.4.3 (0d15f75042, 2025-12-25)"
   sodipodi:docname="accessories-ebook-reader.svg"
   xmlns:inkscape="http://www.inkscape.org/namespaces/inkscape"
   xmlns:sodipodi="http://sodipodi.sourceforge.net/DTD/sodipodi-0.dtd"
   xmlns:xlink="http://www.w3.org/1999/xlink"
   xmlns="http://www.w3.org/2000/svg"
   xmlns:svg="http://www.w3.org/2000/svg">
  <sodipodi:namedview
     id="namedview1"
     pagecolor="#ffffff"
     bordercolor="#000000"
     borderopacity="0.25"
     inkscape:showpageshadow="2"
     inkscape:pageopacity="0.0"
     inkscape:pagecheckerboard="0"
     inkscape:deskcolor="#d1d1d1"
     inkscape:document-units="px"
     inkscape:zoom="8.3125"
     inkscape:cx="47.93985"
     inkscape:cy="48"
     inkscape:window-width="1920"
     inkscape:window-height="1011"
     inkscape:window-x="0"
     inkscape:window-y="0"
     inkscape:window-maximized="1"
     inkscape:current-layer="svg1" />
  <defs
     id="defs1">
    <linearGradient
       inkscape:collect="always"
       xlink:href="#linearGradient3788"
       id="linearGradient4"
       x1="16"
       y1="30"
       x2="16"
       y2="2"
       gradientUnits="userSpaceOnUse"
       gradientTransform="scale(3)" />
    <linearGradient
       inkscape:collect="always"
       id="linearGradient3788">
      <stop
         style="stop-color:#ff7c15;stop-opacity:1;"
         offset="0"
         id="stop3784" />
      <stop
         style="stop-color:#f9bd00;stop-opacity:1;"
         offset="1"
         id="stop3786" />
    </linearGradient>
  </defs>
  <rect
     style="opacity:0.2;fill:#000000;stroke-width:5.25"
     id="rect1"
     width="84"
     height="84"
     x="6"
     y="7"
     ry="18" />
  <rect
     style="fill:url(#linearGradient4);stroke-width:3"
     id="rect2"
     width="84"
     height="84"
     x="6"
     y="6"
     ry="18" />
  <path
     id="path1839"
     style="color:#000000;fill:#ffffff;stroke:none;stroke-width:6.32446;stroke-linecap:round;stroke-linejoin:round"
     d="M 31.332031 27 C 25.471022 27 19.566894 29.833896 18 33 L 18 70.5 C 18 71.168397 18.000677 71.982039 18.833984 72 C 19.590707 72.0162 20.759979 70.825008 21.333984 70.5 C 24.083465 68.478588 27.612736 66.040446 31.332031 66 C 34.708277 66.0402 38.930264 66.388347 42.666016 69 C 44.105205 70.090407 46.047342 69.543657 45.998047 67.5 L 45.998047 33 C 42.267071 27.000006 36.378116 27 31.332031 27 z M 64.666016 27 C 59.619932 27 53.730976 27.000006 50 33 L 50 67.5 C 49.9507 69.543657 51.892843 70.090407 53.332031 69 C 57.067783 66.388347 61.28977 66.0402 64.666016 66 C 68.385312 66.04045 71.916535 68.478588 74.666016 70.5 C 75.240022 70.825008 76.409296 72.0162 77.166016 72 C 77.999324 71.98204 78 71.168397 78 70.5 L 78 33 C 76.433106 29.833896 70.527025 27 64.666016 27 z " />
</svg>
