<?xml version="1.0" encoding="UTF-8" standalone="no"?>
<!-- Created with Inkscape (http://www.inkscape.org/) -->

<svg
   width="96"
   height="96"
   viewBox="0 0 96 96.000006"
   version="1.1"
   id="svg1"
   inkscape:version="1.4.2 (ebf0e940d0, 2025-05-08)"
   sodipodi:docname="dosbox-staging.svg"
   xmlns:inkscape="http://www.inkscape.org/namespaces/inkscape"
   xmlns:sodipodi="http://sodipodi.sourceforge.net/DTD/sodipodi-0.dtd"
   xmlns:xlink="http://www.w3.org/1999/xlink"
   xmlns="http://www.w3.org/2000/svg"
   xmlns:svg="http://www.w3.org/2000/svg">
  <sodipodi:namedview
     id="namedview1"
     pagecolor="#ffffff"
     bordercolor="#000000"
     borderopacity="0.25"
     inkscape:showpageshadow="2"
     inkscape:pageopacity="0.0"
     inkscape:pagecheckerboard="0"
     inkscape:deskcolor="#d1d1d1"
     inkscape:document-units="px"
     inkscape:zoom="8.4270833"
     inkscape:cx="48"
     inkscape:cy="48"
     inkscape:window-width="1920"
     inkscape:window-height="1011"
     inkscape:window-x="0"
     inkscape:window-y="0"
     inkscape:window-maximized="1"
     inkscape:current-layer="svg1" />
  <defs
     id="defs1">
    <linearGradient
       inkscape:collect="always"
       id="linearGradient1606">
      <stop
         style="stop-color:#eaebed;stop-opacity:1;"
         offset="0"
         id="stop1602" />
      <stop
         style="stop-color:#f9fafa;stop-opacity:1;"
         offset="1"
         id="stop1604" />
    </linearGradient>
    <linearGradient
       inkscape:collect="always"
       xlink:href="#linearGradient1606"
       id="linearGradient4"
       x1="16"
       y1="30"
       x2="16"
       y2="2"
       gradientUnits="userSpaceOnUse"
       gradientTransform="scale(3)" />
  </defs>
  <rect
     style="opacity:0.2;fill:#000000;stroke-width:5.25"
     id="rect1"
     width="84"
     height="84"
     x="6"
     y="7"
     ry="18" />
  <rect
     style="fill:url(#linearGradient4);stroke-width:3"
     id="rect2"
     width="84"
     height="84"
     x="6"
     y="6"
     ry="18" />
  <path
     d="m 18,21 v 3 h 3 v 18 h -3 v 3 h 15 v -3 h 3 V 24 h -3 v -3 z m 24,0 v 3 h -3 v 18 h 3 v 3 h 12 v -3 h 3 V 24 h -3 v -3 z m 21,0 v 3 h -3 v 6 h 3 v 3 h 6 v 3 h 3 v 6 h -6 v -6 h -6 v 6 h 3 v 3 h 12 v -3 h 3 v -6 h -3 v -3 h -3 v -3 h -6 v -6 h 6 v 6 h 6 v -6 h -3 v -3 z m -36,3 h 3 v 18 h -3 z m 18,0 h 6 V 42 H 45 Z M 18,51 v 3 h 3 v 18 h -3 v 3 h 15 v -3 h 3 v -9 h -3 v -3 h 3 v -6 h -3 v -3 z m 24,0 v 3 h -3 v 18 h 3 v 3 h 12 v -3 h 3 V 54 h -3 v -3 z m 15,0 v 3 h 3 v 6 h 3 v 6 h -3 v 6 h -3 v 3 h 6 v -3 h 3 v -3 h 3 v 3 h 3 v 3 h 6 v -3 h -3 v -6 h -3 v -6 h 3 v -6 h 3 v -3 h -6 v 3 h -3 v 3 h -3 v -3 h -3 v -3 z m -30,3 h 3 v 6 h -3 z m 18,0 h 6 v 18 h -6 z m -18,9 h 3 v 9 h -3 z"
     style="fill:#6f6f6f;fill-opacity:1;stroke-width:3"
     id="path1" />
</svg>
