<?xml version="1.0" encoding="UTF-8" standalone="no"?>
<!-- Created with Inkscape (http://www.inkscape.org/) -->

<svg
   width="96"
   height="96"
   viewBox="0 0 96 96.000006"
   version="1.1"
   id="svg1"
   inkscape:version="1.4.2 (ebf0e940d0, 2025-05-08)"
   sodipodi:docname="electron.svg"
   xmlns:inkscape="http://www.inkscape.org/namespaces/inkscape"
   xmlns:sodipodi="http://sodipodi.sourceforge.net/DTD/sodipodi-0.dtd"
   xmlns="http://www.w3.org/2000/svg"
   xmlns:svg="http://www.w3.org/2000/svg">
  <sodipodi:namedview
     id="namedview1"
     pagecolor="#ffffff"
     bordercolor="#000000"
     borderopacity="0.25"
     inkscape:showpageshadow="2"
     inkscape:pageopacity="0.0"
     inkscape:pagecheckerboard="0"
     inkscape:deskcolor="#d1d1d1"
     inkscape:document-units="px"
     inkscape:zoom="8.4270833"
     inkscape:cx="48"
     inkscape:cy="48"
     inkscape:window-width="1920"
     inkscape:window-height="1011"
     inkscape:window-x="0"
     inkscape:window-y="0"
     inkscape:window-maximized="1"
     inkscape:current-layer="svg1" />
  <defs
     id="defs1" />
  <rect
     style="opacity:0.2;fill:#000000;stroke-width:5.25"
     id="rect1"
     width="84"
     height="84"
     x="6"
     y="7"
     ry="18" />
  <rect
     style="fill:#494c60;fill-opacity:1;stroke-width:3"
     id="rect2"
     width="84"
     height="84"
     x="6"
     y="6"
     ry="18" />
  <path
     d="m 49.289064,16.004969 c -1.530444,0.07185 -2.919174,0.917456 -3.685548,2.244141 -1.242318,2.15201 -0.505227,4.903646 1.646484,6.146483 1.441263,0.831681 3.223839,0.800133 4.634766,-0.08202 1.358805,1.473447 2.591472,3.358833 3.667968,5.537109 -5.632491,1.88196 -11.723295,5.013297 -17.179686,8.824221 -3.505908,2.448636 -6.355224,5.522571 -8.566407,8.830077 -0.09219,-0.11424 -0.18516,-0.23097 -0.2754,-0.345702 -4.449207,-5.656761 -6.318846,-11.761953 -4.740234,-15.533205 0.818763,-1.955991 1.948791,-2.804352 3.363279,-3.240234 1.414491,-0.435879 3.181863,-0.345876 4.921878,0.04101 3.480027,0.773787 6.650382,2.654298 6.650391,2.654298 0.707319,0.427173 1.626903,0.20187 2.056638,-0.503907 0.430134,-0.710106 0.20166,-1.634541 -0.509766,-2.0625 0,0 -3.447585,-2.106096 -7.546872,-3.017577 -2.04966,-0.455742 -4.304646,-0.639828 -6.457032,0.0234 -2.152389,0.663264 -4.130553,2.284986 -5.244141,4.945311 -2.286093,5.461395 0.319713,12.416466 5.144529,18.550779 0.318333,0.404733 0.64542,0.809154 0.984375,1.207032 -2.002305,3.652821 -3.273651,7.455906 -3.832029,10.933638 C 22.361865,61.688926 21.000609,63.46792 21,65.499121 c 0,2.485281 2.014719,4.5 4.5,4.5 2.485281,0 4.5,-2.014719 4.5,-4.5 0.0011,-1.767522 -1.032651,-3.372 -2.642577,-4.101564 0.494241,-2.739066 1.49973,-5.78571 3.017577,-8.777343 4.579314,4.587867 10.492602,8.403132 16.927734,10.148439 3.893583,1.056 7.880904,1.328844 11.572266,1.171875 -0.27717,1.23018 -0.603069,2.393787 -0.972657,3.480468 -0.963528,2.833164 -2.23869,5.10717 -3.703125,6.580077 -1.464432,1.472907 -3.028725,2.180955 -4.980468,2.103516 -4.303209,-0.17073 -6.746352,-2.139966 -8.273436,-4.113282 -1.527087,-1.973307 -1.98633,-3.849609 -1.98633,-3.849609 -0.19638,-0.806529 -1.010439,-1.300221 -1.816407,-1.101561 -0.806529,0.19638 -1.300221,1.010439 -1.101561,1.816407 0,0 0.608316,2.483922 2.53125,4.96875 1.922934,2.484828 5.313855,5.072598 10.523436,5.279295 2.804655,0.11127 5.306148,-1.052826 7.230471,-2.988282 1.92432,-1.93545 3.355194,-4.60353 4.417968,-7.728513 0.49869,-1.466352 0.91533,-3.038568 1.253907,-4.6875 3.032253,-0.325404 5.761275,-0.892896 7.927734,-1.470705 1.372749,1.796721 3.865581,2.295789 5.824218,1.166016 2.151711,-1.24284 2.888802,-3.994473 1.646484,-6.146484 -0.822291,-1.425267 -2.356932,-2.288079 -4.001952,-2.25 -0.754128,0.0183 -1.491573,0.22578 -2.144532,0.603516 -1.336926,0.772998 -2.184087,2.177556 -2.244141,3.720702 -1.791117,0.45231 -4.015755,0.910281 -6.46875,1.21875 0.634833,-4.586877 0.725121,-9.616611 0.29298,-14.625 -0.433284,-5.021409 -1.454325,-9.912969 -3.064452,-14.179686 0.04263,-0.0105 0.0864,-0.0189 0.12891,-0.0294 3.022569,-0.733377 5.704752,-0.943818 7.675782,-0.603516 1.971024,0.340308 3.134937,1.098942 3.773436,2.431641 3.043908,6.35337 -2.015625,13.306641 -2.015625,13.306641 -0.494439,0.663561 -0.358101,1.602186 0.304689,2.097657 0.663561,0.494436 1.602183,0.358101 2.097654,-0.304689 0,0 6.259392,-8.178582 2.320314,-16.400391 -1.107279,-2.310885 -3.375309,-3.635775 -5.97072,-4.083882 -2.595408,-0.448107 -5.615754,-0.15102 -8.894529,0.644532 -0.19947,0.04839 -0.402168,0.10017 -0.603516,0.15234 C 57.269886,26.180323 55.668357,23.770897 53.777343,21.887782 54.432981,19.868395 53.587962,17.665487 51.75,16.602625 51.003816,16.171931 50.149674,15.964497 49.289064,16.004969 Z M 49.5,18.99911 c 0.828426,0 1.5,0.671573 1.5,1.499999 0,0.828429 -0.671574,1.5 -1.5,1.5 -0.828426,0 -1.5,-0.671571 -1.5,-1.5 0,-0.828426 0.671574,-1.499999 1.5,-1.499999 z m 7.271484,13.605467 c 1.567368,3.992088 2.648898,8.686461 3.070314,13.570314 0.436452,5.058099 0.29865,10.155477 -0.386721,14.660154 -3.670377,0.23148 -7.643172,0.04908 -11.367186,-0.960936 -6.077505,-1.648314 -11.843586,-5.467767 -16.171875,-9.978516 2.070429,-3.304494 4.793019,-6.398499 8.173827,-8.759766 5.311431,-3.709674 11.326047,-6.767031 16.681641,-8.53125 z M 49.5,42.999109 c -2.470158,0 -4.5,2.029842 -4.5,4.5 0,2.470158 2.029842,4.5 4.5,4.5 2.470158,0 4.5,-2.029842 4.5,-4.5 0,-2.470158 -2.029842,-4.5 -4.5,-4.5 z m 24,15 c 0.828426,0 1.5,0.671574 1.5,1.5 0,0.828426 -0.671574,1.5 -1.5,1.5 -0.828426,0 -1.5,-0.671574 -1.5,-1.5 0,-0.828426 0.671574,-1.5 1.5,-1.5 z m -48,6 c 0.828426,0 1.5,0.671574 1.5,1.5 0,0.828426 -0.671574,1.5 -1.5,1.5 -0.828426,0 -1.5,-0.671574 -1.5,-1.5 0,-0.828426 0.671574,-1.5 1.5,-1.5 z"
     style="baseline-shift:baseline;display:inline;overflow:visible;vector-effect:none;fill:#cff7ff;stroke-width:3;stroke-linecap:round;enable-background:accumulate;stop-color:#000000"
     id="path1" />
</svg>
