<?xml version="1.0" encoding="UTF-8" standalone="no"?>
<!-- Created with Inkscape (http://www.inkscape.org/) -->

<svg
   width="96"
   height="96"
   viewBox="0 0 96 96.000006"
   version="1.1"
   id="svg1"
   inkscape:version="1.4.3 (0d15f75042, 2025-12-25)"
   sodipodi:docname="ktorrent.svg"
   xmlns:inkscape="http://www.inkscape.org/namespaces/inkscape"
   xmlns:sodipodi="http://sodipodi.sourceforge.net/DTD/sodipodi-0.dtd"
   xmlns:xlink="http://www.w3.org/1999/xlink"
   xmlns="http://www.w3.org/2000/svg"
   xmlns:svg="http://www.w3.org/2000/svg">
  <sodipodi:namedview
     id="namedview1"
     pagecolor="#ffffff"
     bordercolor="#000000"
     borderopacity="0.25"
     inkscape:showpageshadow="2"
     inkscape:pageopacity="0.0"
     inkscape:pagecheckerboard="0"
     inkscape:deskcolor="#d1d1d1"
     inkscape:document-units="px"
     inkscape:zoom="8.3125"
     inkscape:cx="47.93985"
     inkscape:cy="48"
     inkscape:window-width="1854"
     inkscape:window-height="1011"
     inkscape:window-x="0"
     inkscape:window-y="0"
     inkscape:window-maximized="1"
     inkscape:current-layer="svg1" />
  <defs
     id="defs1">
    <linearGradient
       inkscape:collect="always"
       xlink:href="#linearGradient1871"
       id="linearGradient4"
       x1="16"
       y1="30"
       x2="16"
       y2="2"
       gradientUnits="userSpaceOnUse"
       gradientTransform="scale(3)" />
    <linearGradient
       inkscape:collect="always"
       id="linearGradient1871">
      <stop
         style="stop-color:#3daee9;stop-opacity:1;"
         offset="0"
         id="stop1867" />
      <stop
         style="stop-color:#76c6ee;stop-opacity:1;"
         offset="1"
         id="stop1869" />
    </linearGradient>
  </defs>
  <rect
     style="opacity:0.2;fill:#000000;stroke-width:5.25"
     id="rect1"
     width="84"
     height="84"
     x="6"
     y="7"
     ry="18" />
  <rect
     style="fill:url(#linearGradient4);stroke-width:3"
     id="rect2"
     width="84"
     height="84"
     x="6"
     y="6"
     ry="18" />
  <rect
     style="fill:#ffffff;fill-opacity:1;stroke-width:7.74591;stroke-linecap:round;stroke-linejoin:round"
     id="rect919"
     width="24"
     height="37.499557"
     x="35.999992"
     y="18" />
  <path
     d="M 49.779765,33.000543 C 48.789534,33.050793 48,33.872877 48,34.875522 c 0,1.034988 0.839988,1.874979 1.874976,1.874979 1.034988,0 1.874979,-0.839991 1.874979,-1.874979 0,-1.034988 -0.839991,-1.874979 -1.874979,-1.874979 -0.03207,0 -0.06324,-0.0017 -0.09519,0 z m -8.342187,7.463298 c -0.09807,0.0117 -0.19347,0.0396 -0.28563,0.08058 -0.74046,0.324864 -0.987786,1.383555 -0.0147,3.603471 0.974601,2.219922 2.364966,3.759885 3.105429,3.435021 0.740481,-0.324864 0.548349,-2.386947 -0.424782,-4.606869 -0.851724,-1.943343 -1.689684,-2.589726 -2.380386,-2.504847 z m -17.907505,0.0366 c -0.990228,0.05028 -1.779762,0.872334 -1.779762,1.874979 0,1.034988 0.839988,1.874976 1.874976,1.874976 1.034988,0 1.874979,-0.839988 1.874979,-1.874976 0,-1.034988 -0.839991,-1.874979 -1.874979,-1.874979 -0.03228,0 -0.06327,-0.0017 -0.09522,3e-6 z m 10.217164,0 c -0.560781,0.0246 -1.216962,0.561303 -0.541983,1.303695 0.9585,1.056789 1.469826,2.941014 0.615225,3.317835 -0.858996,0.376824 -0.802803,-1.404756 -0.878895,-2.351049 -0.07464,-0.946293 -2.447142,-1.517187 -3.325156,-0.344262 -0.878019,1.172952 0.0023,2.440293 0.87157,2.695284 0.869235,0.25638 1.006851,1.217667 1.523418,2.219211 0.518034,1.001544 3.032808,0.750801 3.647418,0 0.614613,-0.750804 0.999279,-2.147322 -0.19773,-3.435021 -1.197027,-1.287696 -0.833808,-2.484744 -1.157208,-3.14205 -0.08049,-0.16434 -0.25362,-0.24669 -0.446772,-0.26367 -0.03585,-0.003 -0.07248,-0.0016 -0.10989,0 z m 34.782306,0 c -0.990225,0.05028 -1.779765,0.872334 -1.779765,1.874979 0,1.034988 0.839991,1.874976 1.874979,1.874976 1.034988,0 1.874979,-0.839988 1.874979,-1.874976 0,-1.034988 -0.839991,-1.874979 -1.874979,-1.874979 -0.03207,0 -0.06324,-0.0017 -0.09522,0 z m -6.708906,0.622554 c -0.676143,0.0153 -0.971073,1.379136 -1.142565,2.66598 -0.18291,1.372635 -0.872451,2.793699 -0.27834,3.068814 0.823869,0.365844 1.244565,-1.890468 2.175264,-2.731902 0.930699,-0.842895 0.16185,-2.805327 -0.615231,-2.988246 -0.04857,-0.0114 -0.09405,-0.0159 -0.13917,-0.0147 z m -23.605677,0.19773 c -0.807777,-6e-6 -1.464828,0.657048 -1.464828,1.464822 0,0.807777 0.657051,1.464828 1.464828,1.464828 0.807771,0 1.464825,-0.657051 1.464825,-1.464828 0,-0.807774 -0.657054,-1.464828 -1.464825,-1.464822 z m 16.58916,0.439449 c -0.951201,0.07023 -1.893024,1.694469 -2.358375,2.81979 -0.532659,1.284834 0.11151,3.79191 -1.142562,4.731393 -1.254099,0.940938 -2.171499,0.96201 -2.797815,0.58593 -0.626322,-0.376071 0.53103,-0.325167 -0.16845,-1.757793 -0.70095,-1.432635 -2.373462,-0.984711 -2.812467,0.13185 -0.439008,1.116546 0.468429,1.06266 0.15381,1.721169 -0.313164,0.658518 -2.978592,1.37496 -3.574176,-0.600579 -0.595617,-1.975536 -2.710614,-4.12881 -3.369126,-3.596145 -0.658515,0.532662 0.07788,2.497629 1.801737,4.064892 1.723839,1.56726 -0.442416,2.409924 -1.940895,1.230453 -1.498485,-1.180932 -3.257679,0.894936 -4.62153,2.28513 -1.365315,1.388727 -2.580531,1.484499 -3.552204,0.651846 -0.970204,-0.831189 -0.12414,-3.094524 -1.2451,-5.368593 -1.119471,-2.274063 -3.341583,-1.141023 -3.654741,0.395505 -0.313158,1.536531 2.810391,2.574555 2.204562,3.427695 -0.605832,0.85314 -3.028509,0.656094 -3.742632,-0.95214 -0.712656,-1.608234 -2.269047,-1.081185 -2.299776,0.23439 -0.03075,1.317027 1.205052,0.392076 2.167941,1.354965 L 48.732399,78.000009 73.605153,53.119932 c 2.926722,-2.926722 -0.422562,-1.669242 -1.113267,-1.01073 -0.689247,0.658515 -2.824437,1.190184 -3.076134,0.468744 -0.25023,-0.721434 2.389878,-1.931457 3.14205,-2.746548 0.752166,-0.815094 1.487058,-3.128256 0.27102,-3.977004 -1.216071,-0.848748 -2.936277,0.680811 -3.684057,1.809057 -0.752163,1.128255 -0.10209,4.007181 -1.105941,4.8852 -1.003866,0.878016 -1.555833,0.341994 -1.743147,-0.410151 -0.18879,-0.752172 2.166954,-1.812399 1.179189,-3.684039 -0.989235,-1.871643 -2.816247,-1.023036 -3.662067,-0.14649 -0.845826,0.878016 0.505677,2.230848 0.820302,3.6108 0.313167,1.379949 -2.891358,1.344207 -4.14546,0.842271 -1.25409,-0.50193 -1.664574,-3.649068 -2.197236,-3.837843 -0.532665,-0.18876 -1.892823,1.045353 -3.618126,0.512691 -1.723839,-0.532665 -0.29094,-1.602312 0.24171,-2.856411 0.532662,-1.254102 1.377324,-4.27191 0.3003,-4.746039 -0.13464,-0.06 -0.27552,-0.08346 -0.410151,-0.07323 z m -35.338939,3.310653 c -0.807774,0 -1.464828,0.657054 -1.464828,1.464828 0,0.80778 0.657054,1.464831 1.464828,1.464831 0.807774,0 1.464825,-0.657051 1.464825,-1.464831 0,-0.807774 -0.657051,-1.464828 -1.464825,-1.464828 z m 56.996398,2.944302 c -0.772842,0.03924 -1.391586,0.682296 -1.391586,1.464828 0,0.807777 0.657051,1.457505 1.464825,1.457505 0.807777,0 1.464828,-0.649728 1.464828,-1.457505 0,-0.807774 -0.657051,-1.464828 -1.464828,-1.464828 -0.0252,0 -0.0483,-0.0013 -0.07323,0 z"
     style="fill:#b0e8fb;fill-opacity:1;stroke-width:3.74994"
     id="path449"
     sodipodi:nodetypes="sssssssccccccccsssscccccsccsscccssssssscscccccssssscccscsccssccccssccsccccssccccccsscccccssssssssssss" />
</svg>
