<?xml version="1.0" encoding="UTF-8" standalone="no"?>
<!-- Created with Inkscape (http://www.inkscape.org/) -->

<svg
   width="96"
   height="96"
   viewBox="0 0 96 96.000006"
   version="1.1"
   id="svg1"
   inkscape:version="1.4.2 (ebf0e940d0, 2025-05-08)"
   sodipodi:docname="moonlight.svg"
   xmlns:inkscape="http://www.inkscape.org/namespaces/inkscape"
   xmlns:sodipodi="http://sodipodi.sourceforge.net/DTD/sodipodi-0.dtd"
   xmlns="http://www.w3.org/2000/svg"
   xmlns:svg="http://www.w3.org/2000/svg">
  <sodipodi:namedview
     id="namedview1"
     pagecolor="#ffffff"
     bordercolor="#000000"
     borderopacity="0.25"
     inkscape:showpageshadow="2"
     inkscape:pageopacity="0.0"
     inkscape:pagecheckerboard="0"
     inkscape:deskcolor="#d1d1d1"
     inkscape:document-units="px"
     inkscape:zoom="8.3229167"
     inkscape:cx="47.939925"
     inkscape:cy="48"
     inkscape:window-width="1920"
     inkscape:window-height="1011"
     inkscape:window-x="0"
     inkscape:window-y="0"
     inkscape:window-maximized="1"
     inkscape:current-layer="svg1" />
  <defs
     id="defs1" />
  <rect
     style="opacity:0.2;fill:#000000;stroke-width:5.25"
     id="rect1"
     width="84"
     height="84"
     x="6"
     y="7"
     ry="18" />
  <rect
     style="fill:#565c64;fill-opacity:1;stroke-width:3"
     id="rect2"
     width="84"
     height="84"
     x="6"
     y="6"
     ry="18" />
  <path
     id="path5017"
     style="fill:#ffffff;stroke-width:4"
     d="M 50.062502,18.105468 V 42.972654 L 67.648436,25.386718 a 30,30.010992 0 0 0 -17.585934,-7.28125 z m -4.195314,0.0625 A 30,30.010992 0 0 0 28.28125,25.386718 L 45.867188,42.972654 Z M 25.3125,28.36328 a 30,30.010992 0 0 0 -7.195312,17.578124 h 24.773436 z m 45.296872,0 L 53.03125,45.941404 H 77.882812 A 30,30.010992 0 0 0 70.609372,28.36328 Z M 18.117188,50.13672 a 30,30.010992 0 0 0 7.203124,17.570312 L 42.890624,50.13672 Z m 34.914062,0 17.578122,17.578124 a 30,30.010992 0 0 0 7.21094,-17.578124 z m -7.164062,2.968748 -17.578126,17.578128 a 30,30.010992 0 0 0 17.578126,7.210936 z m 4.195314,0 v 24.789064 a 30,30.010992 0 0 0 17.578122,-7.210936 z" />
</svg>
