<?xml version="1.0" encoding="UTF-8" standalone="no"?>
<!-- Created with Inkscape (http://www.inkscape.org/) -->

<svg
   width="96"
   height="96"
   viewBox="0 0 96 96.000006"
   version="1.1"
   id="svg1"
   inkscape:version="1.4.3 (0d15f75042, 2025-12-25)"
   sodipodi:docname="pulseeffects.svg"
   xmlns:inkscape="http://www.inkscape.org/namespaces/inkscape"
   xmlns:sodipodi="http://sodipodi.sourceforge.net/DTD/sodipodi-0.dtd"
   xmlns:xlink="http://www.w3.org/1999/xlink"
   xmlns="http://www.w3.org/2000/svg"
   xmlns:svg="http://www.w3.org/2000/svg">
  <sodipodi:namedview
     id="namedview1"
     pagecolor="#ffffff"
     bordercolor="#000000"
     borderopacity="0.25"
     inkscape:showpageshadow="2"
     inkscape:pageopacity="0.0"
     inkscape:pagecheckerboard="0"
     inkscape:deskcolor="#d1d1d1"
     inkscape:document-units="px"
     inkscape:zoom="8.4375"
     inkscape:cx="48"
     inkscape:cy="48"
     inkscape:window-width="1920"
     inkscape:window-height="1012"
     inkscape:window-x="0"
     inkscape:window-y="0"
     inkscape:window-maximized="1"
     inkscape:current-layer="svg1" />
  <defs
     id="defs1">
    <linearGradient
       inkscape:collect="always"
       xlink:href="#linearGradient3147"
       id="linearGradient4"
       x1="16"
       y1="30"
       x2="16"
       y2="2"
       gradientUnits="userSpaceOnUse"
       gradientTransform="scale(3)" />
    <linearGradient
       inkscape:collect="always"
       id="linearGradient3147">
      <stop
         style="stop-color:#0091f9;stop-opacity:1;"
         offset="0"
         id="stop3143" />
      <stop
         style="stop-color:#41bbff;stop-opacity:1;"
         offset="1"
         id="stop3145" />
    </linearGradient>
  </defs>
  <rect
     style="opacity:0.2;fill:#000000;stroke-width:5.25"
     id="rect1"
     width="84"
     height="84"
     x="6"
     y="7.5"
     ry="18" />
  <rect
     style="fill:url(#linearGradient4);stroke-width:3"
     id="rect2"
     width="84"
     height="84"
     x="6"
     y="6"
     ry="18" />
  <rect
     style="opacity:0.4;fill:#000000;stroke-width:5.69211"
     id="rect3"
     width="6"
     height="54"
     x="21"
     y="21"
     ry="3" />
  <rect
     style="opacity:0.4;fill:#000000;stroke-width:5.69211"
     id="rect4"
     width="6"
     height="54"
     x="45"
     y="21"
     ry="3" />
  <rect
     style="opacity:0.4;fill:#000000;stroke-width:1.5"
     id="rect5"
     width="6"
     height="54"
     x="69"
     y="21"
     ry="3" />
  <rect
     style="fill:#bef3ff;fill-opacity:1;stroke-width:3"
     id="rect5-6"
     width="6"
     height="39"
     x="21"
     y="36"
     ry="3" />
  <rect
     style="fill:#bef3ff;fill-opacity:1;stroke-width:3"
     id="rect6"
     width="6"
     height="18"
     x="45"
     y="57"
     ry="3" />
  <rect
     style="fill:#bef3ff;fill-opacity:1;stroke-width:3"
     id="rect7"
     width="6"
     height="31.5"
     x="69"
     y="43.5"
     ry="3" />
  <path
     id="path1"
     style="opacity:0.2;fill:#000000;stroke-width:2.66666"
     d="M 24 30 C 19.581722 30 16 33.581724 16 38 C 16 42.418278 19.581722 46 24 46 C 28.418278 46 32 42.418278 32 38 C 32 33.581724 28.418278 30 24 30 z M 72 36 C 67.581722 36 64 39.581724 64 44 C 64 48.418278 67.581722 52 72 52 C 76.418278 52 80 48.418278 80 44 C 80 39.581724 76.418278 36 72 36 z M 48 49 C 43.581722 49 40 52.581724 40 57 C 40 61.418278 43.581722 65 48 65 C 52.418278 65 56 61.418278 56 57 C 56 52.581724 52.418278 49 48 49 z " />
  <path
     id="path2"
     style="fill:#f9f9f9;fill-opacity:1;stroke-width:12;stroke-linecap:round;stroke-linejoin:round"
     d="M 24 32 C 20.68629 32 18 34.686291 18 38 C 18 41.31371 20.68629 44 24 44 C 27.313705 44 30 41.31371 30 38 C 30 34.686291 27.313705 32 24 32 z M 72 38 C 68.68629 38 66 40.686291 66 44 C 66 47.31371 68.68629 50 72 50 C 75.313705 50 78 47.31371 78 44 C 78 40.686291 75.313705 38 72 38 z M 48 51 C 44.68629 51 42 53.686291 42 57 C 42 60.31371 44.68629 63 48 63 C 51.313705 63 54 60.31371 54 57 C 54 53.686291 51.313705 51 48 51 z " />
</svg>
