<?xml version="1.0" encoding="UTF-8" standalone="no"?>
<!-- Created with Inkscape (http://www.inkscape.org/) -->

<svg
   width="96"
   height="96"
   viewBox="0 0 96 96.000006"
   version="1.1"
   id="svg1"
   inkscape:version="1.4.2 (ebf0e940d0, 2025-05-08)"
   sodipodi:docname="qbittorrent.svg"
   xmlns:inkscape="http://www.inkscape.org/namespaces/inkscape"
   xmlns:sodipodi="http://sodipodi.sourceforge.net/DTD/sodipodi-0.dtd"
   xmlns:xlink="http://www.w3.org/1999/xlink"
   xmlns="http://www.w3.org/2000/svg"
   xmlns:svg="http://www.w3.org/2000/svg">
  <sodipodi:namedview
     id="namedview1"
     pagecolor="#ffffff"
     bordercolor="#000000"
     borderopacity="0.25"
     inkscape:showpageshadow="2"
     inkscape:pageopacity="0.0"
     inkscape:pagecheckerboard="0"
     inkscape:deskcolor="#d1d1d1"
     inkscape:document-units="px"
     inkscape:zoom="8.34375"
     inkscape:cx="48"
     inkscape:cy="48"
     inkscape:window-width="1920"
     inkscape:window-height="1011"
     inkscape:window-x="0"
     inkscape:window-y="0"
     inkscape:window-maximized="1"
     inkscape:current-layer="svg1" />
  <defs
     id="defs1">
    <linearGradient
       inkscape:collect="always"
       xlink:href="#linearGradient3"
       id="linearGradient4"
       x1="16"
       y1="30"
       x2="16"
       y2="2"
       gradientUnits="userSpaceOnUse"
       gradientTransform="scale(3)" />
    <linearGradient
       inkscape:collect="always"
       id="linearGradient3">
      <stop
         style="stop-color:#2092ff;stop-opacity:1;"
         offset="0"
         id="stop1" />
      <stop
         style="stop-color:#74afe1;stop-opacity:1;"
         offset="1"
         id="stop2" />
    </linearGradient>
  </defs>
  <rect
     style="opacity:0.2;fill:#000000;stroke-width:5.25"
     id="rect1"
     width="84"
     height="84"
     x="6"
     y="7"
     ry="18" />
  <rect
     style="fill:url(#linearGradient4);stroke-width:3"
     id="rect2"
     width="84"
     height="84"
     x="6"
     y="6"
     ry="18" />
  <path
     id="path1"
     style="fill:#a6d3fb;fill-opacity:1;stroke-width:21;stroke-linecap:round"
     d="m 30.521484,34.320314 c -2.497401,-3e-6 -4.690098,0.628902 -6.585936,1.886718 -1.87761,1.257816 -3.33789,3.01887 -4.376955,5.279295 C 18.519531,43.728524 18,46.331369 18,49.302734 c 0,2.953134 0.519543,5.561841 1.558593,7.822266 1.039065,2.242197 2.499363,4.003248 4.376955,5.279298 1.895841,1.257816 4.088532,1.886718 6.585936,1.886718 1.257816,0 2.433588,-0.18621 3.527343,-0.550782 1.11198,-0.346359 2.134764,-0.882159 3.064455,-1.611327 0.929691,-0.729168 1.738929,-1.647786 2.431641,-2.759766 h 0.05859 V 74 H 44.25 V 34.865234 h -4.541016 v 4.265625 H 39.65625 C 39.036456,38.055338 38.25456,37.164065 37.306641,36.453125 36.358722,35.742188 35.297529,35.211593 34.130859,34.865234 32.98242,34.500638 31.7793,34.320314 30.521484,34.320314 Z m 0.714843,4.154295 c 1.786464,0 3.333978,0.448563 4.646487,1.341798 1.312497,0.893229 2.324214,2.151033 3.035154,3.773436 0.710928,1.622403 1.066407,3.525384 1.066407,5.712891 0,2.169279 -0.355467,4.067052 -1.066407,5.689452 -0.71094,1.6224 -1.722654,2.880207 -3.035154,3.773439 -1.312509,0.893229 -2.860023,1.341798 -4.646487,1.341798 -1.658859,0 -3.135411,-0.410157 -4.429686,-1.230471 -1.276044,-0.820317 -2.28255,-2.034501 -3.011718,-3.63867 -0.729168,-1.604175 -1.089846,-3.58398 -1.089846,-5.935548 0,-2.369799 0.360675,-4.354815 1.089846,-5.958984 0.729168,-1.604175 1.735674,-2.818356 3.011718,-3.638673 1.294275,-0.820314 2.770827,-1.230468 4.429686,-1.230468 z" />
  <path
     d="m 64.867338,64.289195 c -1.239588,0 -2.424486,-0.18228 -3.5547,-0.546876 -1.130217,-0.346344 -2.169279,-0.884121 -3.117198,-1.613289 -0.947919,-0.729168 -1.768233,-1.649745 -2.460945,-2.761725 h -0.05469 v 4.375014 H 51.14073 V 23 h 4.648449 v 16.132863 h 0.05472 c 0.619794,-1.075521 1.394538,-1.968756 2.324229,-2.679696 0.929691,-0.710937 1.968753,-1.239585 3.117198,-1.585941 1.148442,-0.364587 2.342454,-0.546876 3.582042,-0.546876 2.515632,0 4.712253,0.628908 6.589863,1.886724 1.87761,1.257816 3.335949,3.016935 4.375014,5.27736 1.039065,2.242197 1.558599,4.848975 1.558599,7.820337 0,2.953134 -0.51954,5.559912 -1.558599,7.820337 -1.039065,2.242197 -2.497404,4.001313 -4.375014,5.277363 -1.87761,1.257816 -4.074231,1.886724 -6.589863,1.886724 z m -0.710946,-4.183611 c 1.677093,0 3.15366,-0.410181 4.429704,-1.230474 1.27605,-0.820311 2.278659,-2.032551 3.007824,-3.636726 0.729168,-1.604169 1.093755,-3.582045 1.093755,-5.933613 0,-2.369799 -0.36456,-4.356786 -1.093755,-5.960955 -0.729165,-1.604175 -1.731774,-2.816415 -3.007824,-3.636732 -1.276044,-0.820314 -2.752611,-1.230471 -4.429704,-1.230471 -1.786464,0 -3.335943,0.446616 -4.648449,1.339848 -1.312506,0.893232 -2.324226,2.151048 -3.035166,3.773448 -0.71094,1.622403 -1.066407,3.527355 -1.066407,5.714862 0,2.169279 0.355479,4.065117 1.066407,5.68752 0.71094,1.622403 1.72266,2.880219 3.035166,3.773448 1.312506,0.893229 2.861985,1.339848 4.648449,1.339845 z"
     style="fill:#ffffff;stroke-width:21;stroke-linecap:round"
     id="path2" />
</svg>
