<?xml version="1.0" encoding="UTF-8" standalone="no"?>
<!-- Created with Inkscape (http://www.inkscape.org/) -->

<svg
   width="96"
   height="96"
   viewBox="0 0 96 96.000006"
   version="1.1"
   id="svg1"
   inkscape:version="1.4.2 (ebf0e940d0, 2025-05-08)"
   sodipodi:docname="qt.svg"
   xmlns:inkscape="http://www.inkscape.org/namespaces/inkscape"
   xmlns:sodipodi="http://sodipodi.sourceforge.net/DTD/sodipodi-0.dtd"
   xmlns:xlink="http://www.w3.org/1999/xlink"
   xmlns="http://www.w3.org/2000/svg"
   xmlns:svg="http://www.w3.org/2000/svg">
  <sodipodi:namedview
     id="namedview1"
     pagecolor="#ffffff"
     bordercolor="#000000"
     borderopacity="0.25"
     inkscape:showpageshadow="2"
     inkscape:pageopacity="0.0"
     inkscape:pagecheckerboard="0"
     inkscape:deskcolor="#d1d1d1"
     inkscape:document-units="px"
     inkscape:zoom="8.4270833"
     inkscape:cx="48"
     inkscape:cy="48"
     inkscape:window-width="1920"
     inkscape:window-height="1011"
     inkscape:window-x="0"
     inkscape:window-y="0"
     inkscape:window-maximized="1"
     inkscape:current-layer="svg1" />
  <defs
     id="defs1">
    <linearGradient
       inkscape:collect="always"
       xlink:href="#linearGradient3017"
       id="linearGradient4"
       x1="16"
       y1="30"
       x2="16"
       y2="2"
       gradientUnits="userSpaceOnUse"
       gradientTransform="scale(3)" />
    <linearGradient
       inkscape:collect="always"
       id="linearGradient3017">
      <stop
         style="stop-color:#26bc25;stop-opacity:1;"
         offset="0"
         id="stop3013" />
      <stop
         style="stop-color:#65df47;stop-opacity:1;"
         offset="1"
         id="stop3015" />
    </linearGradient>
  </defs>
  <rect
     style="opacity:0.2;fill:#000000;stroke-width:5.25"
     id="rect1"
     width="84"
     height="84"
     x="6"
     y="7"
     ry="18" />
  <rect
     style="fill:url(#linearGradient4);stroke-width:3"
     id="rect2"
     width="84"
     height="84"
     x="6"
     y="6"
     ry="18" />
  <path
     style="fill:#ffffff;stroke-width:3"
     d="m 60,27 v 9 h -6 v 6 h 6 V 54.351564 C 60,62.822151 62.997603,66 68.378907,66 H 75 V 60 H 69.046875 C 66.152514,60 66,57.989205 66,53.753907 V 42 h 9 V 36 H 66 V 27 Z M 36.076173,27.06444 C 24.164844,27.064452 21,33.794118 21,46.5 c 0,12.705882 3.109173,19.582032 15.076173,19.582032 h 3.398436 l 4.951173,8.466795 5.736327,-2.115234 -4.675782,-8.472657 C 49.939161,61.84329 51,54.970587 51,46.5 51,33.794118 47.987502,27.064452 36.076173,27.064452 Z M 36.023433,33 c 7.266018,0 8.976582,5.27097 8.976564,13.962891 C 44.999997,55.654809 43.344507,60 36.023433,60 28.702365,60 26.999997,55.654809 26.999997,46.962891 26.999997,38.27097 28.757424,33 36.023433,33 Z"
     id="path4867" />
</svg>
