<?xml version="1.0" encoding="UTF-8" standalone="no"?>
<!-- Created with Inkscape (http://www.inkscape.org/) -->

<svg
   width="96"
   height="96"
   viewBox="0 0 96 96.000006"
   version="1.1"
   id="svg1"
   inkscape:version="1.4.2 (1:1.4.2+202505120737+ebf0e940d0)"
   sodipodi:docname="rnote.svg"
   xmlns:inkscape="http://www.inkscape.org/namespaces/inkscape"
   xmlns:sodipodi="http://sodipodi.sourceforge.net/DTD/sodipodi-0.dtd"
   xmlns:xlink="http://www.w3.org/1999/xlink"
   xmlns="http://www.w3.org/2000/svg"
   xmlns:svg="http://www.w3.org/2000/svg">
  <sodipodi:namedview
     id="namedview1"
     pagecolor="#ffffff"
     bordercolor="#000000"
     borderopacity="0.25"
     inkscape:showpageshadow="2"
     inkscape:pageopacity="0.0"
     inkscape:pagecheckerboard="0"
     inkscape:deskcolor="#d1d1d1"
     inkscape:document-units="px"
     inkscape:zoom="8.40625"
     inkscape:cx="48"
     inkscape:cy="48"
     inkscape:window-width="1920"
     inkscape:window-height="1016"
     inkscape:window-x="0"
     inkscape:window-y="0"
     inkscape:window-maximized="1"
     inkscape:current-layer="svg1" />
  <defs
     id="defs1">
    <linearGradient
       inkscape:collect="always"
       id="linearGradient1606">
      <stop
         style="stop-color:#eaebed;stop-opacity:1;"
         offset="0"
         id="stop1602" />
      <stop
         style="stop-color:#f9fafa;stop-opacity:1;"
         offset="1"
         id="stop1604" />
    </linearGradient>
    <linearGradient
       inkscape:collect="always"
       xlink:href="#linearGradient1606"
       id="linearGradient4"
       x1="16"
       y1="30"
       x2="16"
       y2="2"
       gradientUnits="userSpaceOnUse"
       gradientTransform="scale(3)" />
    <linearGradient
       inkscape:collect="always"
       xlink:href="#linearGradient1"
       id="linearGradient6"
       x1="11.000003"
       y1="13.000074"
       x2="11.000003"
       y2="3"
       gradientUnits="userSpaceOnUse"
       gradientTransform="matrix(5.999952,0,0,5.999952,3.0001917,1.436e-4)" />
    <linearGradient
       id="linearGradient1"
       inkscape:collect="always">
      <stop
         style="stop-color:#2e2e2e;stop-opacity:1;"
         offset="0"
         id="stop1" />
      <stop
         style="stop-color:#565656;stop-opacity:1;"
         offset="1"
         id="stop2" />
    </linearGradient>
  </defs>
  <rect
     style="opacity:0.2;fill:#000000;stroke-width:5.25"
     id="rect1"
     width="84"
     height="84"
     x="6"
     y="7"
     ry="18" />
  <rect
     style="fill:url(#linearGradient4);stroke-width:3"
     id="rect2"
     width="84"
     height="84"
     x="6"
     y="6"
     ry="18" />
  <path
     d="m 65.491899,31.425921 c -0.114,-0.946656 0.597597,-2.444706 0.502137,-4.484179 -0.09858,-2.042793 -1.068939,-4.889416 -5.052036,-6.955455 -0.07086,-0.03654 -0.14166,-0.0731 -0.21564,-0.109602 -2.590713,-1.28878 -6.367407,-2.212192 -10.772541,-1.76045 -3.422445,0.352088 -6.977355,1.517975 -10.328949,3.574057 -3.015822,1.843491 -5.794437,4.367917 -8.049369,7.490237 -1.32462,1.963074 -2.479812,4.185237 -3.305392,6.583437 -0.357339,1.036347 -0.653067,2.109225 -0.874862,3.205359 -0.286497,1.424973 -0.443565,2.982807 -0.381975,4.627011 0.16326,2.607465 0.884104,5.457411 2.495211,8.021688 0.76089,1.215717 1.706601,2.318496 2.800182,3.238584 1.087422,0.920079 2.331948,1.664121 3.690453,2.152404 2.177922,0.767292 4.318875,0.767292 6.090165,0.478317 0.939558,-0.15282 1.802097,-0.388617 2.562987,-0.651036 0.939552,-0.3222 1.802094,-0.694221 2.482884,-1.00977 1.484808,-0.700872 2.877207,-1.541238 3.986184,-2.218848 1.108983,-0.67761 2.196402,-1.358538 3.240693,-1.909929 0.622266,-0.318897 1.361586,-0.67428 2.091666,-0.943335 0.1941,-0.06972 0.388137,-0.1362 0.582237,-0.19266 0.726996,-0.21588 1.444764,-0.312237 2.08242,-0.24246 0.545217,0.0564 1.007334,0.24912 1.318461,0.484977 0.13242,0.0897 0.24642,0.21588 0.341937,0.348777 0.08316,0.12294 0.1386,0.23922 0.16944,0.302277 0.0342,0.07968 0.0528,0.24246 -0.0066,0.478317 -0.0558,0.2391 -0.17556,0.514854 -0.36042,0.790539 -0.19098,0.28236 -0.455874,0.574617 -0.813249,0.876906 -0.351177,0.29232 -0.770124,0.577977 -1.256847,0.853656 -1.068939,0.554694 -2.13171,0.926727 -3.625758,1.527942 -1.355427,0.544734 -2.972694,1.248918 -4.4883,2.364981 -0.794772,0.604539 -1.589544,1.358541 -2.273418,2.271984 -0.680796,0.913446 -1.272255,2.016219 -1.601862,3.308328 -0.29574,1.292106 -0.311157,2.727048 0.08622,4.105515 0.20022,0.700866 0.508254,1.365186 0.902589,1.956432 0.400497,0.597897 0.902586,1.139319 1.497126,1.571124 1.056612,0.757326 2.221044,1.036344 3.228372,1.066239 h 0.341937 c 0.853302,-0.0228 1.666557,-0.21258 2.408961,-0.481614 0.776286,-0.25572 1.478646,-0.601215 2.082423,-0.906804 0.616104,-0.315537 1.090497,-0.571254 1.58646,-0.7839 0.452814,-0.21588 0.847143,-0.355377 1.204482,-0.415257 0.33882,-0.0564 0.616107,-0.03 0.816336,0.03 0.08934,0.0264 0.16944,0.06972 0.23412,0.11298 0.06162,0.0432 0.10476,0.08304 0.1263,0.10302 0.0342,0.0168 0.06474,0.0432 0.08622,0.0504 0.0246,0 0.0462,0.0138 0.07704,0.0066 0.0276,-0.0066 0,0.09966 -0.11094,0.23922 -0.12936,0.16278 -0.317277,0.325497 -0.606858,0.567954 -0.28032,0.2292 -0.662316,0.531417 -1.010412,0.90348 -0.385017,0.408537 -0.76089,0.926727 -0.991923,1.567806 -0.23106,0.647712 -0.26802,1.312032 -0.1725,1.896639 0.11094,0.680928 0.403554,1.238958 0.742404,1.634235 0.455934,0.538077 0.985761,0.767286 1.376982,0.8304 0.09546,0.0138 0.1848,0.0198 0.26802,0.0168 0.696192,-0.0264 0.976518,-0.601212 1.099737,-0.77061 -0.1725,-0.17604 -0.348117,-0.627786 -0.486714,-1.013097 -0.0156,-0.0432 -0.0306,-0.08304 -0.0432,-0.12624 -0.0558,-0.16938 -0.1047,-0.355377 -0.0924,-0.521454 0.0066,-0.11958 0.0342,-0.24576 0.08628,-0.3255 0.0432,-0.06972 0.10476,-0.1329 0.1602,-0.15612 0.0558,-0.0264 0.1479,-0.10632 0.314217,-0.21588 0.2064,-0.1329 0.351237,-0.20922 0.717765,-0.421854 0.2865,-0.16278 0.7116,-0.415257 1.118223,-0.757332 0.406614,-0.342117 0.874863,-0.840366 1.20756,-1.534584 0.29574,-0.621141 0.440517,-1.308717 0.440517,-1.986327 0.003,-0.677604 -0.1386,-1.335288 -0.385017,-1.923213 -0.25872,-0.591234 -0.616104,-1.096137 -1.022733,-1.511334 -0.409677,-0.418557 -0.874866,-0.75069 -1.36158,-0.999807 -0.97653,-0.494937 -2.005413,-0.634431 -2.908005,-0.597897 -0.933393,0.0366 -1.789773,0.26244 -2.495211,0.501537 -0.696192,0.25248 -1.417032,0.584637 -1.928403,0.807156 -0.588354,0.25578 -1.041207,0.431817 -1.4694,0.538074 -0.403557,0.07638 -0.708516,0.06972 -0.930318,0.0168 -0.0276,-0.0066 -0.0552,-0.0138 -0.08316,-0.0228 -0.22488,-0.07638 -0.348057,-0.20922 -0.314217,-0.2757 0.0186,-0.0264 0.0216,-0.06 0.0276,-0.11628 0.0066,-0.0528 0.012,-0.11298 0.0372,-0.16608 0.0372,-0.11298 0.09852,-0.308937 0.22494,-0.491577 0.0924,-0.20262 0.24642,-0.431817 0.499014,-0.6909 0.25872,-0.26574 0.597597,-0.534774 1.00425,-0.773934 0.819414,-0.531414 1.795941,-0.926727 3.062028,-1.355214 1.170588,-0.398577 2.775534,-0.886878 4.251102,-1.547874 0.794772,-0.338817 1.620348,-0.754008 2.421282,-1.278825 0.819414,-0.534774 1.629585,-1.192458 2.368905,-2.00625 0.767052,-0.850332 1.432443,-1.853463 1.922241,-2.976168 0.502137,-1.155921 0.828654,-2.467956 0.859458,-3.873 0.0306,-1.385532 -0.23106,-2.694249 -0.668448,-3.850164 -0.449757,-1.199751 -1.105905,-2.275956 -1.888353,-3.176109 -1.657314,-1.906611 -3.755136,-2.942955 -5.640411,-3.391371 -2.184078,-0.521469 -4.232619,-0.328857 -5.806761,0.03006 -0.437454,0.10299 -0.850215,0.21591 -1.23528,0.338823 -1.454004,0.461697 -2.661561,1.082853 -3.508707,1.564488 -1.376988,0.767295 -2.747811,1.700667 -3.681204,2.315163 -1.084341,0.714144 -2.0547,1.331967 -3.028143,1.80696 -0.434373,0.21588 -0.908769,0.408534 -1.401648,0.541434 -0.394293,0.10302 -0.77937,0.17274 -1.15827,0.19266 -0.723924,0.0402 -1.333866,-0.09966 -1.746648,-0.355377 -0.2403,-0.1395 -0.486711,-0.34212 -0.7116,-0.607857 -0.22491,-0.26904 -0.415863,-0.581268 -0.545226,-0.913461 -0.29574,-0.7374 -0.388167,-1.630914 -0.25875,-2.477922 0.03414,-0.528132 0.14169,-1.059597 0.311136,-1.587732 0.13245,-0.408567 0.314199,-0.823764 0.545232,-1.242282 0.542169,-0.983199 1.327701,-1.913256 2.248776,-2.713758 1.432431,-1.424979 3.108231,-2.454675 4.808673,-3.122322 1.891431,-0.744042 3.702768,-0.999807 5.292312,-1.013091 2.033133,-0.0135 3.853728,0.362049 5.279994,0.541401 0.0402,0.0033 0.0801,0.0099 0.12012,0.0135 2.254938,0.26907 3.983097,-0.29895 5.517189,-1.089492 1.487886,-0.763968 2.818677,-1.796991 3.6504,-1.80363 z"
     style="fill:url(#linearGradient6);stroke-width:5.99994"
     id="path1-5" />
</svg>
