<?xml version="1.0" encoding="UTF-8" standalone="no"?>
<!-- Created with Inkscape (http://www.inkscape.org/) -->

<svg
   width="96"
   height="96"
   viewBox="0 0 96 96.000006"
   version="1.1"
   id="svg1"
   inkscape:version="1.4.2 (ebf0e940d0, 2025-05-08)"
   sodipodi:docname="sendanywhere.svg"
   xmlns:inkscape="http://www.inkscape.org/namespaces/inkscape"
   xmlns:sodipodi="http://sodipodi.sourceforge.net/DTD/sodipodi-0.dtd"
   xmlns:xlink="http://www.w3.org/1999/xlink"
   xmlns="http://www.w3.org/2000/svg"
   xmlns:svg="http://www.w3.org/2000/svg">
  <sodipodi:namedview
     id="namedview1"
     pagecolor="#ffffff"
     bordercolor="#000000"
     borderopacity="0.25"
     inkscape:showpageshadow="2"
     inkscape:pageopacity="0.0"
     inkscape:pagecheckerboard="0"
     inkscape:deskcolor="#d1d1d1"
     inkscape:document-units="px"
     inkscape:zoom="8.4270833"
     inkscape:cx="48"
     inkscape:cy="48"
     inkscape:window-width="1920"
     inkscape:window-height="1011"
     inkscape:window-x="0"
     inkscape:window-y="0"
     inkscape:window-maximized="1"
     inkscape:current-layer="svg1" />
  <defs
     id="defs1">
    <linearGradient
       inkscape:collect="always"
       id="linearGradient1606">
      <stop
         style="stop-color:#eaebed;stop-opacity:1;"
         offset="0"
         id="stop1602" />
      <stop
         style="stop-color:#f9fafa;stop-opacity:1;"
         offset="1"
         id="stop1604" />
    </linearGradient>
    <linearGradient
       inkscape:collect="always"
       xlink:href="#linearGradient1606"
       id="linearGradient4"
       x1="16"
       y1="30"
       x2="16"
       y2="2"
       gradientUnits="userSpaceOnUse"
       gradientTransform="scale(3)" />
    <linearGradient
       inkscape:collect="always"
       xlink:href="#linearGradient1"
       id="linearGradient5"
       x1="16"
       y1="30"
       x2="16"
       y2="2"
       gradientUnits="userSpaceOnUse"
       gradientTransform="matrix(3,0,0,3,-0.002034,1.32e-4)" />
    <linearGradient
       id="linearGradient1"
       inkscape:collect="always">
      <stop
         style="stop-color:#ff2d55;stop-opacity:1;"
         offset="0"
         id="stop1" />
      <stop
         style="stop-color:#ff755e;stop-opacity:1;"
         offset="1"
         id="stop2" />
    </linearGradient>
  </defs>
  <rect
     style="opacity:0.2;fill:#000000;stroke-width:5.25"
     id="rect1"
     width="84"
     height="84"
     x="6"
     y="7"
     ry="18" />
  <rect
     style="fill:url(#linearGradient4);stroke-width:3"
     id="rect2"
     width="84"
     height="84"
     x="6"
     y="6"
     ry="18" />
  <path
     id="path3"
     style="baseline-shift:baseline;display:inline;overflow:visible;vector-effect:none;fill:url(#linearGradient5);stroke-width:3;enable-background:accumulate;stop-color:#000000"
     d="m 65.305624,17.000132 c -0.723365,0.0105 -1.308597,0.600607 -1.308594,1.324219 v 4.675781 H 32.002889 c -6.627414,0 -12,5.372583 -12,12 v 26 h 6 v -26 c 0,-3.313707 2.686296,-6 6,-6 v 0.01172 c 0.03756,-0.0072 0.06345,-0.01022 0.07227,-0.01172 h 42.599609 c 1.178534,-4.65e-4 1.770555,-1.427887 0.9375,-2.261719 l -9.35352,-9.351562 c -0.25275,-0.25293 -0.595645,-0.391738 -0.953124,-0.386719 z m 4.691406,18 v 26 c 0,3.313707 -2.686293,6 -6,6 v -0.01172 c -0.03756,0.0072 -0.06149,0.01022 -0.07031,0.01172 H 30.680624 29.002889 21.327108 c -1.178814,4.62e-4 -1.770759,1.427881 -0.9375,2.261719 l 9.353516,9.351562 c 0.25281,0.2529 0.595559,0.391738 0.953124,0.386719 0.723539,-0.0105 1.306644,-0.600607 1.306641,-1.324219 V 73.000132 H 63.99703 c 6.627417,0 12,-5.372583 12,-12 v -26 z m -30,7 c -1.662,0 -3,1.338 -3,3 v 6 c 0,1.662 1.338,3 3,3 1.662,0 3,-1.338 3,-3 v -6 c 0,-1.662 -1.338,-3 -3,-3 z m 16,0 c -1.662,0 -3,1.338 -3,3 v 6 c 0,1.662 1.338,3 3,3 1.662,0 3,-1.338 3,-3 v -6 c 0,-1.662 -1.338,-3 -3,-3 z" />
</svg>
