<?xml version="1.0" encoding="UTF-8" standalone="no"?>
<!-- Created with Inkscape (http://www.inkscape.org/) -->

<svg
   width="96"
   height="96"
   viewBox="0 0 96 96.000006"
   version="1.1"
   id="svg1"
   inkscape:version="1.4.2 (ebf0e940d0, 2025-05-08)"
   sodipodi:docname="steamdeck-gaming-return.svg"
   xmlns:inkscape="http://www.inkscape.org/namespaces/inkscape"
   xmlns:sodipodi="http://sodipodi.sourceforge.net/DTD/sodipodi-0.dtd"
   xmlns:xlink="http://www.w3.org/1999/xlink"
   xmlns="http://www.w3.org/2000/svg"
   xmlns:svg="http://www.w3.org/2000/svg">
  <sodipodi:namedview
     id="namedview1"
     pagecolor="#ffffff"
     bordercolor="#000000"
     borderopacity="0.25"
     inkscape:showpageshadow="2"
     inkscape:pageopacity="0.0"
     inkscape:pagecheckerboard="0"
     inkscape:deskcolor="#d1d1d1"
     inkscape:document-units="px"
     inkscape:zoom="8.3229167"
     inkscape:cx="47.939925"
     inkscape:cy="48"
     inkscape:window-width="1920"
     inkscape:window-height="1011"
     inkscape:window-x="0"
     inkscape:window-y="0"
     inkscape:window-maximized="1"
     inkscape:current-layer="svg1" />
  <defs
     id="defs1">
    <linearGradient
       inkscape:collect="always"
       xlink:href="#4852"
       id="linearGradient4"
       x1="16"
       y1="30"
       x2="16"
       y2="2"
       gradientUnits="userSpaceOnUse"
       gradientTransform="scale(3)" />
    <linearGradient
       inkscape:collect="always"
       id="4852">
      <stop
         style="stop-color:#272727;stop-opacity:1;"
         offset="0"
         id="stop14555" />
      <stop
         style="stop-color:#5d5d5d;stop-opacity:1;"
         offset="1"
         id="stop14557" />
    </linearGradient>
    <linearGradient
       inkscape:collect="always"
       xlink:href="#linearGradient2617"
       id="linearGradient2619"
       x1="5.659287"
       y1="8.0143023"
       x2="14.421036"
       y2="13.072803"
       gradientUnits="userSpaceOnUse"
       gradientTransform="matrix(3.75,0,0,3.75,6.7499997,6.7499964)" />
    <linearGradient
       inkscape:collect="always"
       id="linearGradient2617">
      <stop
         style="stop-color:#c957e6;stop-opacity:1;"
         offset="0.1"
         id="stop2613" />
      <stop
         style="stop-color:#1a9fff;stop-opacity:1;"
         offset="1"
         id="stop2615" />
    </linearGradient>
  </defs>
  <rect
     style="opacity:0.2;fill:#000000;stroke-width:5.25"
     id="rect1"
     width="84"
     height="84"
     x="6"
     y="7"
     ry="18" />
  <rect
     style="fill:url(#linearGradient4);stroke-width:3"
     id="rect2"
     width="84"
     height="84"
     x="6"
     y="6"
     ry="18" />
  <path
     id="path344"
     style="fill:#ffffff;stroke-width:8.57142;stroke-linecap:round;stroke-linejoin:round"
     d="m 48,18 v 9 A 21.000001,21.000001 0 0 1 69,48 21.000001,21.000001 0 0 1 48,69 v 9 C 64.568526,78 78.000003,64.568526 78,48 78,31.431477 64.568523,18.000001 48,18 Z" />
  <circle
     style="fill:url(#linearGradient2619);fill-opacity:1;stroke-width:7.5;stroke-linecap:round;stroke-linejoin:round"
     id="path466"
     cx="48"
     cy="48"
     r="15" />
  <path
     d="m 44.58594,38.585636 -8.000004,8 c -0.37508,0.375 -0.585856,0.88366 -0.585936,1.414064 8e-5,0.530404 0.21084,1.039052 0.585936,1.414064 l 8.000004,8 c 0.781008,0.780848 2.047112,0.780848 2.828124,0 0.780848,-0.781016 0.780848,-2.047112 0,-2.828128 L 42.828124,49.9997 h 15.17188 c 1.104568,0 2,-0.895432 2,-2 0,-1.104568 -0.895432,-2 -2,-2 h -15.17188 l 4.58594,-4.58594 c 0.780848,-0.781012 0.780848,-2.047112 0,-2.828124 -0.781012,-0.780848 -2.047112,-0.780848 -2.828124,0 z"
     style="color:#000000;fill:#ffffff;stroke-width:4;stroke-linecap:round;stroke-linejoin:round;-inkscape-stroke:none"
     id="path715" />
</svg>
