<?xml version="1.0" encoding="UTF-8" standalone="no"?>
<!-- Created with Inkscape (http://www.inkscape.org/) -->

<svg
   width="96"
   height="96"
   viewBox="0 0 96 96.000006"
   version="1.1"
   id="svg1"
   inkscape:version="1.4.2 (ebf0e940d0, 2025-05-08)"
   sodipodi:docname="wine.svg"
   xmlns:inkscape="http://www.inkscape.org/namespaces/inkscape"
   xmlns:sodipodi="http://sodipodi.sourceforge.net/DTD/sodipodi-0.dtd"
   xmlns:xlink="http://www.w3.org/1999/xlink"
   xmlns="http://www.w3.org/2000/svg"
   xmlns:svg="http://www.w3.org/2000/svg">
  <sodipodi:namedview
     id="namedview1"
     pagecolor="#ffffff"
     bordercolor="#000000"
     borderopacity="0.25"
     inkscape:showpageshadow="2"
     inkscape:pageopacity="0.0"
     inkscape:pagecheckerboard="0"
     inkscape:deskcolor="#d1d1d1"
     inkscape:document-units="px"
     inkscape:zoom="8.3020833"
     inkscape:cx="48"
     inkscape:cy="48"
     inkscape:window-width="1920"
     inkscape:window-height="1011"
     inkscape:window-x="0"
     inkscape:window-y="0"
     inkscape:window-maximized="1"
     inkscape:current-layer="svg1" />
  <defs
     id="defs1">
    <linearGradient
       inkscape:collect="always"
       id="linearGradient1606">
      <stop
         style="stop-color:#eaebed;stop-opacity:1;"
         offset="0"
         id="stop1602" />
      <stop
         style="stop-color:#f9fafa;stop-opacity:1;"
         offset="1"
         id="stop1604" />
    </linearGradient>
    <linearGradient
       inkscape:collect="always"
       xlink:href="#linearGradient1606"
       id="linearGradient4"
       x1="16"
       y1="30"
       x2="16"
       y2="2"
       gradientUnits="userSpaceOnUse"
       gradientTransform="scale(3)" />
    <linearGradient
       inkscape:collect="always"
       xlink:href="#linearGradient1694"
       id="linearGradient4-2"
       x1="24"
       y1="28"
       x2="24.001953"
       y2="10"
       gradientUnits="userSpaceOnUse"
       gradientTransform="scale(2)" />
    <linearGradient
       inkscape:collect="always"
       id="linearGradient1694">
      <stop
         style="stop-color:#940e0e;stop-opacity:1;"
         offset="0"
         id="stop1690" />
      <stop
         style="stop-color:#d17979;stop-opacity:1;"
         offset="1"
         id="stop1692" />
    </linearGradient>
    <linearGradient
       id="linearGradient3"
       inkscape:collect="always">
      <stop
         style="stop-color:#98a9ad;stop-opacity:1;"
         offset="0"
         id="stop3" />
      <stop
         style="stop-color:#c4c8cd;stop-opacity:1;"
         offset="1"
         id="stop4" />
    </linearGradient>
    <linearGradient
       inkscape:collect="always"
       xlink:href="#linearGradient3"
       id="linearGradient2"
       x1="24"
       y1="40"
       x2="24"
       y2="8"
       gradientUnits="userSpaceOnUse"
       gradientTransform="scale(2)" />
  </defs>
  <rect
     style="opacity:0.2;fill:#000000;stroke-width:5.25"
     id="rect1"
     width="84"
     height="84"
     x="6"
     y="7"
     ry="18" />
  <rect
     style="fill:url(#linearGradient4);stroke-width:3"
     id="rect2"
     width="84"
     height="84"
     x="6"
     y="6"
     ry="18" />
  <path
     id="path1"
     style="fill:url(#linearGradient2);stroke-width:8"
     d="M 48 16 C 41.558024 16.0094 35.900124 17.767516 32 20 L 32 44 C 32 52.185608 38.087886 58.891688 46 59.871094 L 46 74.060547 A 10 3 0 0 0 38 77 A 10 3 0 0 0 48 80 A 10 3 0 0 0 58 77 A 10 3 0 0 0 50 74.060547 L 50 59.871094 C 57.912114 58.891682 64 52.185608 64 44 L 64 20 C 60.099876 17.767516 54.441976 16.009462 48 16 z M 47.992188 20 L 48.003906 20 C 52.770242 20.009 56.823162 21.220819 60 22.667969 L 60 44 C 60 50.647964 54.647964 56 48 56 C 41.352036 56 36 50.647964 36 44 L 36 22.667969 C 39.176754 21.220803 43.225792 20.009 47.992188 20 z " />
  <path
     d="m 54,34 c 2.943026,0.012 4.956532,1.154554 6,2 v 8 C 60,50.647964 54.647964,56 48,56 41.352036,56 36,50.647964 36,44 v -6 c 1.44156,1.49096 4.029816,2.069328 6,2 3.311638,-0.11654 6.014972,-2.059408 7,-3 0.905232,-0.961694 2.742466,-2.99759 5,-3 z"
     style="fill:url(#linearGradient4-2);stroke:none;stroke-width:8"
     id="path2" />
</svg>
