<?xml version="1.0" encoding="UTF-8" standalone="no"?>
<svg
   width="16"
   height="16"
   version="1.1"
   id="svg1"
   sodipodi:docname="airplane-mode-symbolic.svg"
   inkscape:version="1.4.2 (ebf0e940d0, 2025-05-08)"
   xmlns:inkscape="http://www.inkscape.org/namespaces/inkscape"
   xmlns:sodipodi="http://sodipodi.sourceforge.net/DTD/sodipodi-0.dtd"
   xmlns="http://www.w3.org/2000/svg"
   xmlns:svg="http://www.w3.org/2000/svg">
  <defs
     id="defs1">
    <style
       id="current-color-scheme"
       type="text/css">
        .ColorScheme-Text { color:#363636; }
        .ColorScheme-NegativeText { color:#da4453; }
     </style>
  </defs>
  <sodipodi:namedview
     id="namedview1"
     pagecolor="#ffffff"
     bordercolor="#000000"
     borderopacity="0.25"
     inkscape:showpageshadow="2"
     inkscape:pageopacity="0.0"
     inkscape:pagecheckerboard="0"
     inkscape:deskcolor="#d1d1d1"
     inkscape:zoom="49.6875"
     inkscape:cx="8"
     inkscape:cy="8"
     inkscape:window-width="1920"
     inkscape:window-height="1010"
     inkscape:window-x="0"
     inkscape:window-y="0"
     inkscape:window-maximized="1"
     inkscape:current-layer="svg1" />
  <path
     id="path1"
     style="fill:currentColor"
     class="ColorScheme-Text"
     d="M 7.3359375 0 L 7.21875 0.001953125 A 1.0001 1.0001 0 0 0 7.1054688 0.009765625 C 6.4805088 0.087929625 6.0195563 0.68167063 6.0976562 1.3066406 A 1.0001 1.0001 0 0 0 6.0976562 1.3164062 L 6.7714844 6.2851562 L 4.140625 6.3632812 L 3.1816406 4.6855469 C 2.9400306 4.2627469 2.48694 4 2 4 A 1.0001 1.0001 0 0 0 1 5 L 1 6.5 L 1 6.5664062 C 0.41978 6.7873262 0 7.3526 0 8 C 0 8.64764 0.41935 9.2129938 1 9.4335938 L 1 9.5 L 1 10 L 1 11 A 1.0001 1.0001 0 0 0 2.1054688 11.994141 L 2.1816406 11.986328 A 1.0001 1.0001 0 0 0 2.2871094 11.96875 C 2.6608594 11.88809 2.9882806 11.652943 3.1816406 11.314453 L 4.140625 9.6347656 L 6.7714844 9.7128906 L 6.0976562 14.705078 A 1.0001 1.0001 0 0 0 6.0878906 14.837891 C 6.087895 15.467951 6.61983 16 7.25 16 L 7.3457031 16 C 7.9384231 16 8.48065 15.644183 8.71875 15.101562 L 8.7207031 15.101562 L 11.210938 9.8574219 L 14.015625 9.9511719 A 1.0001 1.0001 0 0 0 14.048828 9.9511719 C 15.114428 9.9511719 16 9.0656 16 8 A 1.0001 1.0001 0 0 0 16 7.9980469 A 1.0001 1.0001 0 0 0 16 7.9960938 A 1.0001 1.0001 0 0 0 16 7.9941406 A 1.0001 1.0001 0 0 0 16 7.9921875 A 1.0001 1.0001 0 0 0 16 7.9902344 A 1.0001 1.0001 0 0 0 16 7.9882812 A 1.0001 1.0001 0 0 0 16 7.9863281 A 1.0001 1.0001 0 0 0 16 7.984375 L 16 7.953125 A 1.0001 1.0001 0 0 0 15.998047 7.9355469 C 15.962582 6.8705469 15.049375 6.0152812 13.984375 6.0507812 L 11.210938 6.1425781 L 8.7207031 0.8984375 L 8.71875 0.8984375 C 8.48057 0.3557875 7.9383831 7.4014868e-17 7.3457031 0 A 1.0001 1.0001 0 0 0 7.3359375 0 z M 7.3457031 1 C 7.5443531 1 7.7250675 1.1168381 7.8046875 1.2988281 L 10.587891 7.1621094 L 14.017578 7.0488281 C 14.542578 7.0313281 14.9825 7.44391 15 7.96875 L 15 8 C 15 8.5251 14.573928 8.9511719 14.048828 8.9511719 L 10.587891 8.8359375 L 7.8046875 14.701172 C 7.7250575 14.883172 7.5443531 15 7.3457031 15 L 7.25 15 C 7.16048 15 7.0878906 14.927392 7.0878906 14.837891 L 7.9101562 8.7460938 L 3.5703125 8.6191406 L 2.3144531 10.818359 C 2.2629831 10.908459 2.1753319 10.970788 2.0761719 10.992188 L 2 11 L 2 10 L 2 9 L 2 8.5664062 L 1.515625 8.5332031 C 1.227855 8.5236031 1 8.2879 1 8 C 1 7.71206 1.227865 7.4763869 1.515625 7.4667969 L 2 7.4316406 L 2 7 L 2 6 L 2 5 C 2.12976 5 2.2500731 5.0689816 2.3144531 5.1816406 L 3.5703125 7.3808594 L 7.9101562 7.2519531 L 7.0898438 1.1816406 C 7.0787337 1.0927806 7.1416438 1.0130631 7.2304688 1.0019531 L 7.3457031 1 z " />
</svg>
