<?xml version="1.0" encoding="UTF-8" standalone="no"?>
<!-- Created with Inkscape (http://www.inkscape.org/) -->

<svg
   width="96"
   height="96"
   viewBox="0 0 96 96.000006"
   version="1.1"
   id="svg1"
   inkscape:version="1.4.3 (0d15f75042, 2025-12-25)"
   sodipodi:docname="accessories-ebook-reader.svg"
   xmlns:inkscape="http://www.inkscape.org/namespaces/inkscape"
   xmlns:sodipodi="http://sodipodi.sourceforge.net/DTD/sodipodi-0.dtd"
   xmlns:xlink="http://www.w3.org/1999/xlink"
   xmlns="http://www.w3.org/2000/svg"
   xmlns:svg="http://www.w3.org/2000/svg">
  <sodipodi:namedview
     id="namedview1"
     pagecolor="#ffffff"
     bordercolor="#000000"
     borderopacity="0.25"
     inkscape:showpageshadow="2"
     inkscape:pageopacity="0.0"
     inkscape:pagecheckerboard="0"
     inkscape:deskcolor="#d1d1d1"
     inkscape:document-units="px"
     inkscape:zoom="8.4166667"
     inkscape:cx="48.059406"
     inkscape:cy="48"
     inkscape:window-width="1920"
     inkscape:window-height="1011"
     inkscape:window-x="0"
     inkscape:window-y="0"
     inkscape:window-maximized="1"
     inkscape:current-layer="svg1" />
  <defs
     id="defs1">
    <linearGradient
       inkscape:collect="always"
       xlink:href="#4852"
       id="linearGradient4"
       x1="16"
       y1="30"
       x2="16"
       y2="2"
       gradientUnits="userSpaceOnUse"
       gradientTransform="scale(3)" />
    <linearGradient
       inkscape:collect="always"
       id="4852">
      <stop
         style="stop-color:#272727;stop-opacity:1;"
         offset="0"
         id="stop14555" />
      <stop
         style="stop-color:#5d5d5d;stop-opacity:1;"
         offset="1"
         id="stop14557" />
    </linearGradient>
    <linearGradient
       inkscape:collect="always"
       id="linearGradient3788">
      <stop
         style="stop-color:#ff7c15;stop-opacity:1;"
         offset="0"
         id="stop3784" />
      <stop
         style="stop-color:#f9bd00;stop-opacity:1;"
         offset="1"
         id="stop3786" />
    </linearGradient>
    <linearGradient
       inkscape:collect="always"
       xlink:href="#linearGradient3788"
       id="linearGradient2"
       x1="48"
       y1="90"
       x2="48"
       y2="6"
       gradientUnits="userSpaceOnUse" />
  </defs>
  <rect
     style="opacity:0.2;fill:#000000;stroke-width:5.25"
     id="rect1"
     width="84"
     height="84"
     x="6"
     y="7"
     ry="18" />
  <rect
     style="fill:url(#linearGradient4);stroke-width:3"
     id="rect2"
     width="84"
     height="84"
     x="6"
     y="6"
     ry="18" />
  <path
     id="path1839"
     style="color:#000000;fill:url(#linearGradient2);stroke:none;stroke-width:6.32446;stroke-linecap:round;stroke-linejoin:round"
     d="M 31.332031,27 C 25.471022,27 19.566894,29.833896 18,33 v 37.5 c 0,0.668397 6.77e-4,1.482039 0.833984,1.5 0.756723,0.0162 1.925995,-1.174992 2.5,-1.5 2.749481,-2.021412 6.278752,-4.459554 9.998047,-4.5 3.376246,0.0402 7.598233,0.388347 11.333985,3 1.439189,1.090407 3.381326,0.543657 3.332031,-1.5 V 33 C 42.267071,27.000006 36.378116,27 31.332031,27 Z m 33.333985,0 C 59.619932,27 53.730976,27.000006 50,33 v 34.5 c -0.0493,2.043657 1.892843,2.590407 3.332031,1.5 3.735752,-2.611653 7.957739,-2.9598 11.333985,-3 3.719296,0.04045 7.250519,2.478588 10,4.5 0.574006,0.325008 1.74328,1.5162 2.5,1.5 C 77.999324,71.98204 78,71.168397 78,70.5 V 33 C 76.433106,29.833896 70.527025,27 64.666016,27 Z" />
</svg>
