<?xml version="1.0" encoding="UTF-8" standalone="no"?>
<!-- Created with Inkscape (http://www.inkscape.org/) -->

<svg
   width="96"
   height="96"
   viewBox="0 0 96 96.000006"
   version="1.1"
   id="svg1"
   inkscape:version="1.4.2 (ebf0e940d0, 2025-05-08)"
   sodipodi:docname="cs-user-accounts.svg"
   xmlns:inkscape="http://www.inkscape.org/namespaces/inkscape"
   xmlns:sodipodi="http://sodipodi.sourceforge.net/DTD/sodipodi-0.dtd"
   xmlns:xlink="http://www.w3.org/1999/xlink"
   xmlns="http://www.w3.org/2000/svg"
   xmlns:svg="http://www.w3.org/2000/svg">
  <sodipodi:namedview
     id="namedview1"
     pagecolor="#ffffff"
     bordercolor="#000000"
     borderopacity="0.25"
     inkscape:showpageshadow="2"
     inkscape:pageopacity="0.0"
     inkscape:pagecheckerboard="0"
     inkscape:deskcolor="#d1d1d1"
     inkscape:document-units="px"
     inkscape:zoom="8.2916667"
     inkscape:cx="48"
     inkscape:cy="48"
     inkscape:window-width="1920"
     inkscape:window-height="1010"
     inkscape:window-x="0"
     inkscape:window-y="0"
     inkscape:window-maximized="1"
     inkscape:current-layer="svg1" />
  <defs
     id="defs1">
    <linearGradient
       inkscape:collect="always"
       xlink:href="#4852"
       id="linearGradient4"
       x1="16"
       y1="30"
       x2="16"
       y2="2"
       gradientUnits="userSpaceOnUse"
       gradientTransform="scale(3)" />
    <linearGradient
       inkscape:collect="always"
       id="4852">
      <stop
         style="stop-color:#272727;stop-opacity:1;"
         offset="0"
         id="stop14555" />
      <stop
         style="stop-color:#5d5d5d;stop-opacity:1;"
         offset="1"
         id="stop14557" />
    </linearGradient>
  </defs>
  <rect
     style="opacity:0.2;fill:#000000;stroke-width:5.25"
     id="rect1"
     width="84"
     height="84"
     x="6"
     y="7"
     ry="18" />
  <rect
     style="fill:url(#linearGradient4);stroke-width:3"
     id="rect2"
     width="84"
     height="84"
     x="6"
     y="6"
     ry="18" />
  <path
     id="path354"
     style="fill:#ffffff;stroke-width:2.25"
     d="m 57,24 c -4.373847,0 -8.01792,3.118218 -8.830077,7.253907 C 49.936401,33.343566 51,36.04791 51,39 51,39.23229 50.9955,39.462372 50.9823,39.691407 52.576734,41.126319 54.684939,42 57,42 c 4.9725,0 9,-4.0275 9,-9 0,-4.9725 -4.0275,-9 -9,-9 z m -18,6 c -4.970565,0 -9,4.02975 -9,9 0,4.9725 4.0275,9 9,9 4.9725,0 9,-4.0275 9,-9 0,-4.9725 -4.0275,-9 -9,-9 z M 57,48 C 51.339057,48.0042 47.460942,49.488222 44.800782,51.521484 53.451465,53.204094 57.174741,58.634553 58.78125,63 H 75 C 75,63 75,47.990001 57,48 Z M 39,54 C 20.9991,54.0129 21,68.994141 21,68.994141 L 57,69 c 0,0 0,-15.009999 -18,-15 z" />
</svg>
