<?xml version="1.0" encoding="UTF-8" standalone="no"?>
<!-- Created with Inkscape (http://www.inkscape.org/) -->

<svg
   width="96"
   height="96"
   viewBox="0 0 96 96.000006"
   version="1.1"
   id="svg1"
   inkscape:version="1.4.3 (0d15f75042, 2025-12-25)"
   sodipodi:docname="fbmessenger.svg"
   xmlns:inkscape="http://www.inkscape.org/namespaces/inkscape"
   xmlns:sodipodi="http://sodipodi.sourceforge.net/DTD/sodipodi-0.dtd"
   xmlns:xlink="http://www.w3.org/1999/xlink"
   xmlns="http://www.w3.org/2000/svg"
   xmlns:svg="http://www.w3.org/2000/svg">
  <sodipodi:namedview
     id="namedview1"
     pagecolor="#ffffff"
     bordercolor="#000000"
     borderopacity="0.25"
     inkscape:showpageshadow="2"
     inkscape:pageopacity="0.0"
     inkscape:pagecheckerboard="0"
     inkscape:deskcolor="#d1d1d1"
     inkscape:document-units="px"
     inkscape:zoom="8.53125"
     inkscape:cx="48"
     inkscape:cy="48"
     inkscape:window-width="1920"
     inkscape:window-height="1022"
     inkscape:window-x="0"
     inkscape:window-y="0"
     inkscape:window-maximized="1"
     inkscape:current-layer="svg1" />
  <defs
     id="defs1">
    <linearGradient
       inkscape:collect="always"
       xlink:href="#4852"
       id="linearGradient4"
       x1="16"
       y1="30"
       x2="16"
       y2="2"
       gradientUnits="userSpaceOnUse"
       gradientTransform="scale(3)" />
    <linearGradient
       inkscape:collect="always"
       id="4852">
      <stop
         style="stop-color:#272727;stop-opacity:1;"
         offset="0"
         id="stop14555" />
      <stop
         style="stop-color:#5d5d5d;stop-opacity:1;"
         offset="1"
         id="stop14557" />
    </linearGradient>
    <radialGradient
       inkscape:collect="always"
       xlink:href="#linearGradient982"
       id="radialGradient1977"
       cx="29.445274"
       cy="36.813942"
       fx="29.445274"
       fy="36.813942"
       r="20"
       gradientTransform="matrix(2.3000347e-7,3.2247138,-3.1501329,3.7481397e-7,146.51425,-16.909812)"
       gradientUnits="userSpaceOnUse" />
    <linearGradient
       inkscape:collect="always"
       id="linearGradient982">
      <stop
         style="stop-color:#0099ff;stop-opacity:1;"
         offset="0"
         id="stop978" />
      <stop
         style="stop-color:#a033ff;stop-opacity:1;"
         offset="0.60000002"
         id="stop986" />
      <stop
         style="stop-color:#ff5280;stop-opacity:1;"
         offset="0.93000001"
         id="stop988" />
      <stop
         style="stop-color:#ff7061;stop-opacity:1;"
         offset="1"
         id="stop980" />
    </linearGradient>
  </defs>
  <rect
     style="opacity:0.2;fill:#000000;stroke-width:5.25"
     id="rect1"
     width="84"
     height="84"
     x="6"
     y="7"
     ry="18" />
  <rect
     style="fill:url(#linearGradient4);stroke-width:3"
     id="rect2"
     width="84"
     height="84"
     x="6"
     y="6"
     ry="18" />
  <path
     d="m 48,18 c -16.897503,0 -30,12.381402 -30,29.09742 0,8.744223 3.585,16.303554 9.42,21.523089 0.4875,0.434964 0.7875,1.049907 0.8025,1.709847 l 0.165,5.339529 c 0.0525,1.70235 1.8075,2.812251 3.3675,2.122311 L 37.71,75.16743 c 0.5025,-0.22497 1.0725,-0.26247 1.605,-0.12 2.7375,0.749934 5.6475,1.154898 8.685,1.154898 16.8975,0 30,-12.381405 30,-29.09742 C 78,30.388902 64.8975,18 48,18 Z"
     style="fill:url(#radialGradient1977);fill-opacity:1;stroke-width:0.0749967"
     id="path1218" />
  <path
     d="m 30.22923,54.986433 8.692068,-12.831654 c 1.383333,-2.044527 4.342335,-2.547054 6.421032,-1.101429 l 6.916665,4.825641 c 0.636186,0.440568 1.50909,0.440568 2.137878,-0.0066 l 9.335652,-6.59481 c 1.24278,-0.881145 2.870232,0.509412 2.04171,1.741635 l -8.699463,12.824769 c -1.38333,2.044533 -4.342335,2.547057 -6.421035,1.101432 l -6.916665,-4.825638 c -0.636186,-0.440571 -1.509093,-0.440571 -2.137878,0.0069 l -9.335652,6.594789 c -1.242783,0.881142 -2.870235,-0.50253 -2.034312,-1.734756 z"
     style="fill:#333333;stroke-width:0.0713613"
     id="path11549" />
</svg>
