<?xml version="1.0" encoding="UTF-8" standalone="no"?>
<!-- Created with Inkscape (http://www.inkscape.org/) -->

<svg
   width="96"
   height="96"
   viewBox="0 0 96 96.000006"
   version="1.1"
   id="svg1"
   inkscape:version="1.4.4 (dcaf3e7d9e, 2026-05-05)"
   sodipodi:docname="google-gemini.svg"
   xmlns:inkscape="http://www.inkscape.org/namespaces/inkscape"
   xmlns:sodipodi="http://sodipodi.sourceforge.net/DTD/sodipodi-0.dtd"
   xmlns:xlink="http://www.w3.org/1999/xlink"
   xmlns="http://www.w3.org/2000/svg"
   xmlns:svg="http://www.w3.org/2000/svg">
  <sodipodi:namedview
     id="namedview1"
     pagecolor="#ffffff"
     bordercolor="#000000"
     borderopacity="0.25"
     inkscape:showpageshadow="2"
     inkscape:pageopacity="0.0"
     inkscape:pagecheckerboard="0"
     inkscape:deskcolor="#d1d1d1"
     inkscape:document-units="px"
     inkscape:zoom="6.0416667"
     inkscape:cx="47.917241"
     inkscape:cy="48"
     inkscape:window-width="1440"
     inkscape:window-height="831"
     inkscape:window-x="0"
     inkscape:window-y="0"
     inkscape:window-maximized="1"
     inkscape:current-layer="svg1" />
  <defs
     id="defs1">
    <linearGradient
       inkscape:collect="always"
       xlink:href="#4852"
       id="linearGradient4"
       x1="16"
       y1="30"
       x2="16"
       y2="2"
       gradientUnits="userSpaceOnUse"
       gradientTransform="scale(3)" />
    <linearGradient
       inkscape:collect="always"
       id="4852">
      <stop
         style="stop-color:#272727;stop-opacity:1;"
         offset="0"
         id="stop14555" />
      <stop
         style="stop-color:#5d5d5d;stop-opacity:1;"
         offset="1"
         id="stop14557" />
    </linearGradient>
    <radialGradient
       inkscape:collect="always"
       xlink:href="#linearGradient1"
       id="radialGradient2"
       cx="6.0314078"
       cy="5.2960987"
       fx="6.0314078"
       fy="5.2960987"
       r="5"
       gradientUnits="userSpaceOnUse"
       gradientTransform="matrix(7.6882758,-0.04130478,0.03681546,6.8526354,-7.5040374,-4.6362114)" />
    <linearGradient
       id="linearGradient1"
       inkscape:collect="always">
      <stop
         style="stop-color:#fc413d;stop-opacity:1;"
         offset="0"
         id="stop1" />
      <stop
         style="stop-color:#fc413d;stop-opacity:0;"
         offset="1"
         id="stop2" />
    </linearGradient>
    <radialGradient
       inkscape:collect="always"
       xlink:href="#linearGradient2"
       id="radialGradient4"
       cx="4.4745617"
       cy="7.4917331"
       fx="4.4745617"
       fy="7.4917331"
       r="5"
       gradientUnits="userSpaceOnUse"
       gradientTransform="matrix(5.9999997,0,0,5.1410574,1.2893766,11.240336)" />
    <linearGradient
       id="linearGradient2"
       inkscape:collect="always">
      <stop
         style="stop-color:#fbbc04;stop-opacity:1;"
         offset="0"
         id="stop3" />
      <stop
         style="stop-color:#fbbc04;stop-opacity:0;"
         offset="1"
         id="stop4" />
    </linearGradient>
    <radialGradient
       inkscape:collect="always"
       xlink:href="#linearGradient8"
       id="radialGradient10"
       cx="6.3957481"
       cy="12.007661"
       fx="6.3957481"
       fy="12.007661"
       r="5"
       gradientUnits="userSpaceOnUse"
       gradientTransform="matrix(5.8013094,-0.04387737,0.03879996,5.1299898,0.6648711,10.681446)" />
    <linearGradient
       id="linearGradient8"
       inkscape:collect="always">
      <stop
         style="stop-color:#00b95c;stop-opacity:1;"
         offset="0"
         id="stop9" />
      <stop
         style="stop-color:#00b95c;stop-opacity:0;"
         offset="1"
         id="stop10" />
    </linearGradient>
  </defs>
  <rect
     style="opacity:0.2;fill:#000000;stroke-width:5.25"
     id="rect1"
     width="84"
     height="84"
     x="6"
     y="7"
     ry="18" />
  <rect
     style="fill:url(#linearGradient4);stroke-width:3"
     id="rect2"
     width="84"
     height="84"
     x="6"
     y="6"
     ry="18" />
  <path
     d="M 48,18 C 48,34.568544 34.568544,48 18,48 34.568544,48 48,61.431456 48,78 48,61.431456 61.431456,48 78,48 61.431456,48 48,34.568544 48,18 Z"
     style="fill:#3186ff;fill-opacity:1;stroke-width:3"
     id="path1" />
  <path
     d="M 48,18 C 48,34.568544 34.568544,48 18,48 34.568544,48 48,61.431456 48,78 48,61.431456 61.431456,48 78,48 61.431456,48 48,34.568544 48,18 Z"
     style="fill:url(#radialGradient2);fill-opacity:1;stroke-width:3"
     id="path2" />
  <path
     d="M 48,18 C 48,34.568544 34.568544,48 18,48 34.568544,48 48,61.431456 48,78 48,61.431456 61.431456,48 78,48 61.431456,48 48,34.568544 48,18 Z"
     style="fill:url(#radialGradient4);fill-opacity:1;stroke-width:3"
     id="path3" />
  <path
     d="M 48,18 C 48,34.568544 34.568544,48 18,48 34.568544,48 48,61.431456 48,78 48,61.431456 61.431456,48 78,48 61.431456,48 48,34.568544 48,18 Z"
     style="fill:url(#radialGradient10);stroke-width:3"
     id="path4" />
</svg>
