<?xml version="1.0" encoding="UTF-8" standalone="no"?>
<!-- Created with Inkscape (http://www.inkscape.org/) -->

<svg
   width="96"
   height="96"
   viewBox="0 0 96 96.000006"
   version="1.1"
   id="svg1"
   inkscape:version="1.4.2 (ebf0e940d0, 2025-05-08)"
   sodipodi:docname="partitionmanager.svg"
   xmlns:inkscape="http://www.inkscape.org/namespaces/inkscape"
   xmlns:sodipodi="http://sodipodi.sourceforge.net/DTD/sodipodi-0.dtd"
   xmlns:xlink="http://www.w3.org/1999/xlink"
   xmlns="http://www.w3.org/2000/svg"
   xmlns:svg="http://www.w3.org/2000/svg">
  <sodipodi:namedview
     id="namedview1"
     pagecolor="#ffffff"
     bordercolor="#000000"
     borderopacity="0.25"
     inkscape:showpageshadow="2"
     inkscape:pageopacity="0.0"
     inkscape:pagecheckerboard="0"
     inkscape:deskcolor="#d1d1d1"
     inkscape:document-units="px"
     inkscape:zoom="8.3020833"
     inkscape:cx="48"
     inkscape:cy="48"
     inkscape:window-width="1920"
     inkscape:window-height="1011"
     inkscape:window-x="0"
     inkscape:window-y="0"
     inkscape:window-maximized="1"
     inkscape:current-layer="svg1" />
  <defs
     id="defs1">
    <linearGradient
       inkscape:collect="always"
       xlink:href="#4852"
       id="linearGradient4"
       x1="16"
       y1="30"
       x2="16"
       y2="2"
       gradientUnits="userSpaceOnUse"
       gradientTransform="scale(3)" />
    <linearGradient
       inkscape:collect="always"
       id="4852">
      <stop
         style="stop-color:#272727;stop-opacity:1;"
         offset="0"
         id="stop14555" />
      <stop
         style="stop-color:#5d5d5d;stop-opacity:1;"
         offset="1"
         id="stop14557" />
    </linearGradient>
    <linearGradient
       inkscape:collect="always"
       xlink:href="#linearGradient4-8"
       id="linearGradient5"
       x1="8"
       y1="13"
       x2="8"
       y2="3"
       gradientUnits="userSpaceOnUse"
       gradientTransform="scale(6)" />
    <linearGradient
       id="linearGradient4-8"
       inkscape:collect="always">
      <stop
         style="stop-color:#bf5cdf;stop-opacity:1;"
         offset="0"
         id="stop4" />
      <stop
         style="stop-color:#ca78e4;stop-opacity:1;"
         offset="1"
         id="stop5" />
    </linearGradient>
    <linearGradient
       inkscape:collect="always"
       xlink:href="#linearGradient6"
       id="linearGradient7"
       x1="8"
       y1="13"
       x2="8"
       y2="3"
       gradientUnits="userSpaceOnUse"
       gradientTransform="scale(6)" />
    <linearGradient
       id="linearGradient6"
       inkscape:collect="always">
      <stop
         style="stop-color:#4990f1;stop-opacity:1;"
         offset="0"
         id="stop6" />
      <stop
         style="stop-color:#50b2f0;stop-opacity:1;"
         offset="1"
         id="stop7" />
    </linearGradient>
    <linearGradient
       inkscape:collect="always"
       xlink:href="#linearGradient10"
       id="linearGradient11"
       x1="8"
       y1="13"
       x2="8"
       y2="3"
       gradientUnits="userSpaceOnUse"
       gradientTransform="scale(6)" />
    <linearGradient
       id="linearGradient10"
       inkscape:collect="always">
      <stop
         style="stop-color:#2bc92a;stop-opacity:1;"
         offset="0"
         id="stop10" />
      <stop
         style="stop-color:#5fde5e;stop-opacity:1;"
         offset="1"
         id="stop11" />
    </linearGradient>
    <linearGradient
       inkscape:collect="always"
       xlink:href="#linearGradient8"
       id="linearGradient9"
       x1="8"
       y1="13"
       x2="8"
       y2="3"
       gradientUnits="userSpaceOnUse"
       gradientTransform="scale(6)" />
    <linearGradient
       id="linearGradient8"
       inkscape:collect="always">
      <stop
         style="stop-color:#ffcd55;stop-opacity:1;"
         offset="0"
         id="stop8" />
      <stop
         style="stop-color:#ffe555;stop-opacity:1;"
         offset="1"
         id="stop9" />
    </linearGradient>
  </defs>
  <rect
     style="opacity:0.2;fill:#000000;stroke-width:5.25"
     id="rect1"
     width="84"
     height="84"
     x="6"
     y="7"
     ry="18" />
  <rect
     style="fill:url(#linearGradient4);stroke-width:3"
     id="rect2"
     width="84"
     height="84"
     x="6"
     y="6"
     ry="18" />
  <circle
     style="opacity:0.5;fill:#ffffff;stroke-width:3"
     id="path5"
     cx="48"
     cy="48"
     r="12" />
  <path
     id="path1"
     style="fill:url(#linearGradient5);fill-opacity:1;stroke-width:6"
     d="m 57,48 c 0,4.970556 -4.029444,9 -9,9 v 21 a 30,30 0 0 0 3.556641,-0.23439 c 0.28764,-0.03408 0.570378,-0.08091 0.855468,-0.12306 a 30,30 0 0 0 2.794923,-0.550779 c 0.2622,-0.06477 0.525738,-0.12759 0.785154,-0.19923 a 30,30 0 0 0 3.339846,-1.119141 30,30 0 0 0 3.251952,-1.57617 c 0.23313,-0.13005 0.4563,-0.27411 0.685548,-0.410157 a 30,30 0 0 0 2.32617,-1.529295 c 0.24561,-0.17847 0.492525,-0.353391 0.732423,-0.539064 a 30,30 0 0 0 2.660157,-2.285157 30,30 0 0 0 0.445311,-0.445311 30,30 0 0 0 2.285157,-2.660157 c 0.18567,-0.23991 0.360579,-0.486822 0.539064,-0.732423 a 30,30 0 0 0 1.529295,-2.32617 c 0.13605,-0.22926 0.28011,-0.452418 0.410157,-0.685548 a 30,30 0 0 0 1.57617,-3.251952 30,30 0 0 0 1.119141,-3.339846 c 0.07164,-0.25941 0.13443,-0.522969 0.19923,-0.785154 a 30,30 0 0 0 0.550779,-2.794923 c 0.04215,-0.28509 0.08898,-0.567825 0.12306,-0.855468 A 30,30 0 0 0 78,48 Z" />
  <path
     id="path2"
     style="fill:url(#linearGradient7);fill-opacity:1;stroke-width:6"
     d="m 48,18 v 21 c 4.970556,0 9,4.029444 9,9 h 21 a 30,30 0 0 0 -0.23439,-3.5625 c -0.03414,-0.28794 -0.08082,-0.570075 -0.12306,-0.855468 a 30,30 0 0 0 -0.539061,-2.748048 c -0.07272,-0.2961 -0.14706,-0.592185 -0.22851,-0.884766 a 30,30 0 0 0 -1.042968,-3.123045 c -0.027,-0.06738 -0.04863,-0.13794 -0.07617,-0.20508 A 30,30 0 0 0 74.16795,33.363282 c -0.108,-0.19266 -0.22773,-0.378345 -0.339843,-0.568359 a 30,30 0 0 0 -1.564452,-2.378907 c -0.19329,-0.26625 -0.378351,-0.537321 -0.58008,-0.796875 a 30,30 0 0 0 -2.267577,-2.625 30,30 0 0 0 -0.410157,-0.410157 30,30 0 0 0 -2.625,-2.267578 c -0.259536,-0.201729 -0.530598,-0.386788 -0.796857,-0.580078 a 30,30 0 0 0 -2.378907,-1.564453 c -0.190014,-0.112114 -0.375687,-0.23183 -0.568359,-0.339844 a 30,30 0 0 0 -3.257811,-1.58789 c -0.06714,-0.02754 -0.1377,-0.04909 -0.20508,-0.07617 A 30,30 0 0 0 56.050782,19.125 c -0.29259,-0.08145 -0.588657,-0.155784 -0.884766,-0.228516 A 30,30 0 0 0 52.417968,18.357422 C 52.132575,18.315182 51.850452,18.268517 51.5625,18.234375 A 30,30 0 0 0 48,18 Z" />
  <path
     id="path3"
     style="fill:url(#linearGradient11);fill-opacity:1;stroke-width:6"
     d="m 48,18 a 30,30 0 0 0 -3.5625,0.234375 c -0.28797,0.03415 -0.57006,0.0808 -0.855468,0.123048 a 30,30 0 0 0 -2.748048,0.539063 c -0.29613,0.07274 -0.59217,0.147054 -0.884766,0.228516 a 30,30 0 0 0 -3.052734,1.019531 c -0.09774,0.03899 -0.2016,0.06548 -0.29883,0.105468 a 30,30 0 0 0 -3.210939,1.564453 c -0.22116,0.123717 -0.432717,0.263466 -0.650391,0.392578 a 30,30 0 0 0 -2.314452,1.523438 c -0.26853,0.194843 -0.541015,0.38251 -0.802734,0.585937 a 30,30 0 0 0 -2.625,2.267578 c -0.137364,0.134763 -0.275394,0.272793 -0.410157,0.410157 a 30,30 0 0 0 -2.267578,2.625 c -0.20343,0.26172 -0.391092,0.5342 -0.585937,0.802733 a 30,30 0 0 0 -1.523438,2.314452 c -0.129111,0.21768 -0.26886,0.429219 -0.392578,0.650391 A 30,30 0 0 0 20.25,36.597657 c -0.03999,0.09723 -0.06648,0.20109 -0.105468,0.29883 A 30,30 0 0 0 19.125,39.949218 c -0.08146,0.29259 -0.155775,0.588642 -0.228516,0.884766 a 30,30 0 0 0 -0.539062,2.748048 c -0.04224,0.285408 -0.0889,0.567498 -0.123047,0.855468 A 30,30 0 0 0 18,48 h 21 c 0,-4.970556 4.029444,-9 9,-9 z" />
  <path
     id="path4"
     style="fill:url(#linearGradient9);fill-opacity:1;stroke-width:6"
     d="m 18,48 a 30,30 0 0 0 0.234375,3.556641 c 0.03407,0.28764 0.0809,0.570378 0.123048,0.855468 a 30,30 0 0 0 0.550781,2.794923 c 0.06478,0.2622 0.12759,0.525738 0.199218,0.785154 a 30,30 0 0 0 1.119141,3.339846 30,30 0 0 0 1.576172,3.251952 c 0.130059,0.23313 0.274113,0.4563 0.410156,0.685548 a 30,30 0 0 0 1.529297,2.32617 c 0.178482,0.24561 0.353389,0.492525 0.539063,0.732423 a 30,30 0 0 0 2.285156,2.660157 30,30 0 0 0 0.445312,0.445311 30,30 0 0 0 2.660157,2.285157 c 0.239898,0.18567 0.486821,0.360579 0.732422,0.539064 a 30,30 0 0 0 2.32617,1.529295 c 0.22926,0.13605 0.452418,0.28011 0.685548,0.410157 a 30,30 0 0 0 3.251952,1.57617 30,30 0 0 0 3.339846,1.119141 c 0.25941,0.07164 0.522969,0.13443 0.785154,0.19923 a 30,30 0 0 0 2.794923,0.550779 c 0.28509,0.04215 0.567825,0.08898 0.855468,0.12306 A 30,30 0 0 0 48,78 V 57 c -4.970556,0 -9,-4.029444 -9,-9 z" />
</svg>
