<?xml version="1.0" encoding="UTF-8" standalone="no"?>
<!-- Created with Inkscape (http://www.inkscape.org/) -->

<svg
   width="96"
   height="96"
   viewBox="0 0 96 96.000006"
   version="1.1"
   id="svg1"
   inkscape:version="1.4.3 (0d15f75042, 2025-12-25)"
   sodipodi:docname="pulseeffects.svg"
   xmlns:inkscape="http://www.inkscape.org/namespaces/inkscape"
   xmlns:sodipodi="http://sodipodi.sourceforge.net/DTD/sodipodi-0.dtd"
   xmlns:xlink="http://www.w3.org/1999/xlink"
   xmlns="http://www.w3.org/2000/svg"
   xmlns:svg="http://www.w3.org/2000/svg">
  <sodipodi:namedview
     id="namedview1"
     pagecolor="#ffffff"
     bordercolor="#000000"
     borderopacity="0.25"
     inkscape:showpageshadow="2"
     inkscape:pageopacity="0.0"
     inkscape:pagecheckerboard="0"
     inkscape:deskcolor="#d1d1d1"
     inkscape:document-units="px"
     inkscape:zoom="8.4375"
     inkscape:cx="48"
     inkscape:cy="48"
     inkscape:window-width="1920"
     inkscape:window-height="1012"
     inkscape:window-x="0"
     inkscape:window-y="0"
     inkscape:window-maximized="1"
     inkscape:current-layer="svg1" />
  <defs
     id="defs1">
    <linearGradient
       inkscape:collect="always"
       xlink:href="#4852"
       id="linearGradient4"
       x1="16"
       y1="30"
       x2="16"
       y2="2"
       gradientUnits="userSpaceOnUse"
       gradientTransform="scale(3)" />
    <linearGradient
       inkscape:collect="always"
       id="4852">
      <stop
         style="stop-color:#272727;stop-opacity:1;"
         offset="0"
         id="stop14555" />
      <stop
         style="stop-color:#5d5d5d;stop-opacity:1;"
         offset="1"
         id="stop14557" />
    </linearGradient>
  </defs>
  <rect
     style="opacity:0.2;fill:#000000;stroke-width:5.25"
     id="rect1"
     width="84"
     height="84"
     x="6"
     y="7"
     ry="18" />
  <rect
     style="fill:url(#linearGradient4);stroke-width:3"
     id="rect2"
     width="84"
     height="84"
     x="6"
     y="6"
     ry="18" />
  <rect
     style="opacity:0.4;fill:#f9f9f9;stroke-width:5.69211"
     id="rect3"
     width="6"
     height="54"
     x="21"
     y="21"
     ry="3" />
  <rect
     style="opacity:0.4;fill:#f9f9f9;stroke-width:5.69211"
     id="rect4"
     width="6"
     height="54"
     x="45"
     y="21"
     ry="3" />
  <rect
     style="opacity:0.4;fill:#f9f9f9;stroke-width:1.5"
     id="rect5"
     width="6"
     height="54"
     x="69"
     y="21"
     ry="3" />
  <rect
     style="fill:#bef3ff;fill-opacity:1;stroke-width:3"
     id="rect5-6"
     width="6"
     height="39"
     x="21"
     y="36"
     ry="3" />
  <rect
     style="fill:#bef3ff;fill-opacity:1;stroke-width:3"
     id="rect6"
     width="6"
     height="18"
     x="45"
     y="57"
     ry="3" />
  <rect
     style="fill:#bef3ff;fill-opacity:1;stroke-width:3"
     id="rect7"
     width="6"
     height="31.5"
     x="69"
     y="43.5"
     ry="3" />
  <path
     id="path1"
     style="opacity:0.2;fill:#000000;stroke-width:2.66666"
     d="m 24,30 c -4.418278,0 -8,3.581724 -8,8 0,4.418278 3.581722,8 8,8 4.418278,0 8,-3.581722 8,-8 0,-4.418276 -3.581722,-8 -8,-8 z m 48,6 c -4.418278,0 -8,3.581724 -8,8 0,4.418278 3.581722,8 8,8 4.418278,0 8,-3.581722 8,-8 0,-4.418276 -3.581722,-8 -8,-8 z M 48,49 c -4.418278,0 -8,3.581724 -8,8 0,4.418278 3.581722,8 8,8 4.418278,0 8,-3.581722 8,-8 0,-4.418276 -3.581722,-8 -8,-8 z" />
  <path
     id="path2"
     style="fill:#f9f9f9;fill-opacity:1;stroke-width:12;stroke-linecap:round;stroke-linejoin:round"
     d="m 24,32 c -3.31371,0 -6,2.686291 -6,6 0,3.31371 2.68629,6 6,6 3.313705,0 6,-2.68629 6,-6 0,-3.313709 -2.686295,-6 -6,-6 z m 48,6 c -3.31371,0 -6,2.686291 -6,6 0,3.31371 2.68629,6 6,6 3.313705,0 6,-2.68629 6,-6 0,-3.313709 -2.686295,-6 -6,-6 z M 48,51 c -3.31371,0 -6,2.686291 -6,6 0,3.31371 2.68629,6 6,6 3.313705,0 6,-2.68629 6,-6 0,-3.313709 -2.686295,-6 -6,-6 z" />
</svg>
