<?xml version="1.0" encoding="UTF-8" standalone="no"?>
<!-- Created with Inkscape (http://www.inkscape.org/) -->

<svg
   width="96"
   height="96"
   viewBox="0 0 96 96.000006"
   version="1.1"
   id="svg1"
   inkscape:version="1.4.2 (1:1.4.2+202505120737+ebf0e940d0)"
   sodipodi:docname="rnote.svg"
   xmlns:inkscape="http://www.inkscape.org/namespaces/inkscape"
   xmlns:sodipodi="http://sodipodi.sourceforge.net/DTD/sodipodi-0.dtd"
   xmlns:xlink="http://www.w3.org/1999/xlink"
   xmlns="http://www.w3.org/2000/svg"
   xmlns:svg="http://www.w3.org/2000/svg">
  <sodipodi:namedview
     id="namedview1"
     pagecolor="#ffffff"
     bordercolor="#000000"
     borderopacity="0.25"
     inkscape:showpageshadow="2"
     inkscape:pageopacity="0.0"
     inkscape:pagecheckerboard="0"
     inkscape:deskcolor="#d1d1d1"
     inkscape:document-units="px"
     inkscape:zoom="8.40625"
     inkscape:cx="48"
     inkscape:cy="48"
     inkscape:window-width="1920"
     inkscape:window-height="1016"
     inkscape:window-x="0"
     inkscape:window-y="0"
     inkscape:window-maximized="1"
     inkscape:current-layer="svg1" />
  <defs
     id="defs1">
    <linearGradient
       inkscape:collect="always"
       xlink:href="#4852"
       id="linearGradient4"
       x1="16"
       y1="30"
       x2="16"
       y2="2"
       gradientUnits="userSpaceOnUse"
       gradientTransform="scale(3)" />
    <linearGradient
       inkscape:collect="always"
       id="4852">
      <stop
         style="stop-color:#272727;stop-opacity:1;"
         offset="0"
         id="stop14555" />
      <stop
         style="stop-color:#5d5d5d;stop-opacity:1;"
         offset="1"
         id="stop14557" />
    </linearGradient>
    <linearGradient
       inkscape:collect="always"
       id="linearGradient1606">
      <stop
         style="stop-color:#eaebed;stop-opacity:1;"
         offset="0"
         id="stop1602" />
      <stop
         style="stop-color:#f9fafa;stop-opacity:1;"
         offset="1"
         id="stop1604" />
    </linearGradient>
    <linearGradient
       inkscape:collect="always"
       xlink:href="#linearGradient1606"
       id="linearGradient6"
       x1="11.000003"
       y1="13.000074"
       x2="11.000003"
       y2="3"
       gradientUnits="userSpaceOnUse"
       gradientTransform="matrix(6,0,0,6,2.9999998,0)" />
  </defs>
  <rect
     style="opacity:0.2;fill:#000000;stroke-width:5.25"
     id="rect1"
     width="84"
     height="84"
     x="6"
     y="7"
     ry="18" />
  <rect
     style="fill:url(#linearGradient4);stroke-width:3"
     id="rect2"
     width="84"
     height="84"
     x="6"
     y="6"
     ry="18" />
  <path
     d="m 65.492208,31.426029 c -0.114,-0.946665 0.5976,-2.444724 0.50214,-4.484214 -0.09858,-2.042811 -1.068948,-4.889457 -5.052078,-6.955513 -0.07086,-0.03654 -0.14166,-0.0731 -0.21564,-0.109602 -2.590734,-1.288791 -6.367458,-2.212209 -10.772628,-1.760464 -3.422472,0.352091 -6.977412,1.517988 -10.32903,3.574085 -3.015846,1.843506 -5.794485,4.367952 -8.049435,7.490298 -1.324629,1.963089 -2.479833,4.18527 -3.305418,6.583488 -0.357342,1.036356 -0.653072,2.109243 -0.874869,3.205386 -0.2865,1.424982 -0.443568,2.982831 -0.381978,4.627047 0.16326,2.607486 0.88411,5.457456 2.495232,8.021754 0.760893,1.215726 1.706613,2.318514 2.800203,3.238608 1.087431,0.920088 2.331966,1.664136 3.690483,2.152422 2.17794,0.767298 4.318911,0.767298 6.090213,0.47832 0.939567,-0.15282 1.802112,-0.38862 2.563008,-0.651042 0.939558,-0.3222 1.802109,-0.694224 2.482908,-1.009776 1.484814,-0.700878 2.877222,-1.54125 3.986211,-2.218866 1.108992,-0.677616 2.19642,-1.35855 3.24072,-1.909944 0.622272,-0.3189 1.361598,-0.674286 2.091684,-0.943344 0.1941,-0.06972 0.38814,-0.1362 0.58224,-0.19266 0.727002,-0.21588 1.444776,-0.31224 2.082438,-0.24246 0.54522,0.0564 1.00734,0.24912 1.31847,0.48498 0.13242,0.0897 0.24642,0.21588 0.34194,0.34878 0.08316,0.12294 0.1386,0.23922 0.16944,0.30228 0.0342,0.07968 0.0528,0.24246 -0.0066,0.47832 -0.0558,0.2391 -0.17556,0.51486 -0.36042,0.790548 -0.19098,0.28236 -0.45588,0.57462 -0.813258,0.876912 -0.35118,0.29232 -0.77013,0.57798 -1.256856,0.853662 -1.068948,0.5547 -2.131728,0.926736 -3.625788,1.527954 -1.355436,0.54474 -2.972718,1.24893 -4.488339,2.365002 -0.794778,0.604542 -1.589556,1.35855 -2.273436,2.272002 -0.680796,0.913452 -1.272261,2.016234 -1.601874,3.308352 -0.29574,1.292118 -0.311136,2.727072 0.08622,4.105548 0.20022,0.700872 0.508284,1.365198 0.902601,1.95645 0.400488,0.5979 0.902592,1.139328 1.497141,1.571136 1.056615,0.757332 2.221059,1.03635 3.228393,1.066248 h 0.34194 c 0.853308,-0.0228 1.666572,-0.21258 2.408982,-0.48162 0.776292,-0.25572 1.478658,-0.601218 2.082438,-0.90681 0.61611,-0.31554 1.090506,-0.57126 1.586472,-0.783906 0.45282,-0.21588 0.847152,-0.35538 1.204494,-0.41526 0.33882,-0.0564 0.61611,-0.03 0.816342,0.03 0.08934,0.0264 0.16944,0.06972 0.23412,0.11298 0.06162,0.0432 0.10476,0.08304 0.1263,0.10302 0.0342,0.0168 0.06474,0.0432 0.08622,0.0504 0.0246,0 0.0462,0.0138 0.07704,0.0066 0.0276,-0.0066 0,0.09966 -0.11094,0.23922 -0.12936,0.16278 -0.31728,0.3255 -0.606864,0.56796 -0.28032,0.2292 -0.662322,0.53142 -1.010418,0.903486 -0.38502,0.40854 -0.760896,0.926736 -0.991932,1.567818 -0.23106,0.647718 -0.26802,1.312044 -0.1725,1.896654 0.11094,0.680934 0.40356,1.23897 0.74241,1.63425 0.45594,0.53808 0.98577,0.767292 1.376994,0.830406 0.09546,0.0138 0.1848,0.0198 0.26802,0.0168 0.696198,-0.0264 0.976524,-0.601218 1.099746,-0.770616 -0.1725,-0.17604 -0.34812,-0.627792 -0.48672,-1.013106 -0.0156,-0.0432 -0.0306,-0.08304 -0.0432,-0.12624 -0.0558,-0.16938 -0.1047,-0.35538 -0.0924,-0.52146 0.0066,-0.11958 0.0342,-0.24576 0.08628,-0.3255 0.0432,-0.06972 0.10476,-0.1329 0.1602,-0.15612 0.0558,-0.0264 0.1479,-0.10632 0.31422,-0.21588 0.2064,-0.1329 0.35124,-0.20922 0.717768,-0.42186 0.2865,-0.16278 0.711606,-0.41526 1.118232,-0.757338 0.40662,-0.34212 0.874872,-0.840372 1.207572,-1.534596 0.29574,-0.621144 0.44052,-1.308726 0.44052,-1.986342 0.003,-0.67761 -0.1386,-1.3353 -0.38502,-1.923228 -0.25872,-0.59124 -0.61611,-1.096146 -1.022742,-1.511346 -0.40968,-0.418596 -0.874872,-0.750732 -1.361592,-0.999852 -0.976536,-0.49494 -2.005428,-0.634434 -2.908026,-0.5979 -0.933402,0.0366 -1.789788,0.26244 -2.495232,0.50154 -0.696198,0.25248 -1.417044,0.58464 -1.928418,0.807162 -0.58836,0.25578 -1.041216,0.43182 -1.469412,0.53808 -0.40356,0.07638 -0.708522,0.06972 -0.930324,0.0168 -0.0276,-0.0066 -0.0552,-0.0138 -0.08316,-0.0228 -0.22488,-0.07638 -0.34806,-0.20922 -0.31422,-0.2757 0.0186,-0.0264 0.0216,-0.06 0.0276,-0.11628 0.0066,-0.0528 0.012,-0.11298 0.0372,-0.16608 0.0372,-0.11298 0.09852,-0.30894 0.22494,-0.49158 0.0924,-0.20262 0.24642,-0.43182 0.49902,-0.690906 0.25872,-0.26574 0.5976,-0.53478 1.004256,-0.77394 0.81942,-0.53142 1.795956,-0.926736 3.062052,-1.355226 1.1706,-0.39858 2.775558,-0.886884 4.251138,-1.547886 0.794778,-0.33882 1.62036,-0.754014 2.4213,-1.278834 0.81942,-0.53478 1.6296,-1.19247 2.368926,-2.006268 0.767058,-0.850338 1.432452,-1.853478 1.922256,-2.976192 0.50214,-1.15593 0.82866,-2.467974 0.859464,-3.87303 0.0306,-1.385544 -0.23106,-2.69427 -0.668454,-3.850194 -0.44976,-1.19976 -1.105914,-2.275974 -1.888368,-3.176136 -1.657326,-1.906626 -3.755166,-2.942976 -5.640456,-3.391398 -2.184096,-0.521472 -4.232652,-0.32886 -5.806806,0.03006 -0.43746,0.10299 -0.850224,0.21591 -1.235292,0.338826 -1.454016,0.4617 -2.661582,1.082862 -3.508731,1.5645 -1.377003,0.767304 -2.747838,1.700682 -3.681237,2.315184 -1.08435,0.71415 -2.054715,1.331976 -3.028167,1.806972 -0.434376,0.21588 -0.908775,0.40854 -1.40166,0.54144 -0.394296,0.10302 -0.779376,0.17274 -1.158279,0.19266 -0.723927,0.0402 -1.333875,-0.09966 -1.746663,-0.35538 -0.2403,-0.1395 -0.486714,-0.34212 -0.711603,-0.60786 -0.22491,-0.26901 -0.415872,-0.581238 -0.545238,-0.913434 -0.29574,-0.737406 -0.38817,-1.630926 -0.25875,-2.47794 0.03414,-0.528138 0.14169,-1.059606 0.311136,-1.587744 0.13245,-0.408573 0.314202,-0.82377 0.545238,-1.242294 0.542172,-0.983208 1.32771,-1.913271 2.248794,-2.713779 1.432443,-1.424991 3.108255,-2.454696 4.808709,-3.122346 1.891449,-0.744048 3.702804,-0.999816 5.29236,-1.0131 2.033145,-0.0135 3.853755,0.362052 5.280033,0.541404 0.0402,0.0033 0.0801,0.0099 0.12012,0.0135 2.254956,0.26907 3.98313,-0.29898 5.517234,-1.089498 1.487898,-0.763977 2.818698,-1.797006 3.65043,-1.803645 z"
     style="fill:url(#linearGradient6);stroke-width:6"
     id="path1-5" />
</svg>
