<?xml version="1.0" encoding="UTF-8" standalone="no"?>
<!-- Created with Inkscape (http://www.inkscape.org/) -->

<svg
   width="96"
   height="96"
   viewBox="0 0 96 96.000006"
   version="1.1"
   id="svg1"
   inkscape:version="1.4.3 (0d15f75042, 2025-12-25)"
   sodipodi:docname="vmware-workstation.svg"
   xmlns:inkscape="http://www.inkscape.org/namespaces/inkscape"
   xmlns:sodipodi="http://sodipodi.sourceforge.net/DTD/sodipodi-0.dtd"
   xmlns:xlink="http://www.w3.org/1999/xlink"
   xmlns="http://www.w3.org/2000/svg"
   xmlns:svg="http://www.w3.org/2000/svg">
  <sodipodi:namedview
     id="namedview1"
     pagecolor="#ffffff"
     bordercolor="#000000"
     borderopacity="0.25"
     inkscape:showpageshadow="2"
     inkscape:pageopacity="0.0"
     inkscape:pagecheckerboard="0"
     inkscape:deskcolor="#d1d1d1"
     inkscape:document-units="px"
     inkscape:zoom="8.3125"
     inkscape:cx="47.93985"
     inkscape:cy="48"
     inkscape:window-width="1854"
     inkscape:window-height="1011"
     inkscape:window-x="0"
     inkscape:window-y="0"
     inkscape:window-maximized="1"
     inkscape:current-layer="svg1" />
  <defs
     id="defs1">
    <linearGradient
       inkscape:collect="always"
       xlink:href="#4852"
       id="linearGradient4"
       x1="16"
       y1="30"
       x2="16"
       y2="2"
       gradientUnits="userSpaceOnUse"
       gradientTransform="scale(3)" />
    <linearGradient
       inkscape:collect="always"
       id="4852">
      <stop
         style="stop-color:#272727;stop-opacity:1;"
         offset="0"
         id="stop14555" />
      <stop
         style="stop-color:#5d5d5d;stop-opacity:1;"
         offset="1"
         id="stop14557" />
    </linearGradient>
  </defs>
  <rect
     style="opacity:0.2;fill:#000000;stroke-width:5.25"
     id="rect1"
     width="84"
     height="84"
     x="6"
     y="7"
     ry="18" />
  <rect
     style="fill:url(#linearGradient4);stroke-width:3"
     id="rect2"
     width="84"
     height="84"
     x="6"
     y="6"
     ry="18" />
  <path
     d="m 24,33 c -3.324,0 -6,2.676 -6,6 v 33 c 0,3.324 2.676,6 6,6 h 33 c 3.324,0 6,-2.676 6,-6 V 39 c 0,-3.324 -2.676,-6 -6,-6 z m 6,9 h 21 c 1.662,0 3,1.338 3,3 v 21 c 0,1.662 -1.338,3 -3,3 H 30 c -1.662,0 -3,-1.338 -3,-3 V 45 c 0,-1.662 1.338,-3 3,-3 z"
     style="fill:#f38b00;fill-opacity:1;stroke-width:12;stroke-linecap:square"
     id="path1718"
     sodipodi:nodetypes="ssssssssssssssssss" />
  <path
     id="path1690"
     style="fill:#0097d3;fill-opacity:1;stroke-width:12;stroke-linecap:square"
     d="m 39,18 c -3.324,0 -6,2.676003 -6,6 v 9 h 9 v -3 c 0,-1.661997 1.338,-3 3,-3 h 21 c 1.662,0 3,1.338003 3,3 v 21 c 0,1.661997 -1.338,3 -3,3 H 45 c -1.662,0 -3,-1.338003 -3,-3 v -9 h -9 v 15 c 0,3.323997 2.676,6 6,6 h 33 c 3.324,0 6,-2.676003 6,-6 V 24 c 0,-3.323997 -2.676,-6 -6,-6 z"
     sodipodi:nodetypes="ssccssssssssccsssssss" />
</svg>
