<?xml version="1.0" encoding="UTF-8" standalone="no"?>
<!-- Created with Inkscape (http://www.inkscape.org/) -->

<svg
   width="16"
   height="16"
   viewBox="0 0 16 16.000001"
   version="1.1"
   id="svg1"
   inkscape:version="1.4.3 (0d15f75042, 2025-12-25)"
   sodipodi:docname="accessories-ebook-reader.svg"
   xmlns:inkscape="http://www.inkscape.org/namespaces/inkscape"
   xmlns:sodipodi="http://sodipodi.sourceforge.net/DTD/sodipodi-0.dtd"
   xmlns:xlink="http://www.w3.org/1999/xlink"
   xmlns="http://www.w3.org/2000/svg"
   xmlns:svg="http://www.w3.org/2000/svg">
  <sodipodi:namedview
     id="namedview1"
     pagecolor="#ffffff"
     bordercolor="#000000"
     borderopacity="0.25"
     inkscape:showpageshadow="2"
     inkscape:pageopacity="0.0"
     inkscape:pagecheckerboard="0"
     inkscape:deskcolor="#d1d1d1"
     inkscape:document-units="px"
     inkscape:zoom="49.875"
     inkscape:cx="7.9899749"
     inkscape:cy="8"
     inkscape:window-width="1920"
     inkscape:window-height="1011"
     inkscape:window-x="0"
     inkscape:window-y="0"
     inkscape:window-maximized="1"
     inkscape:current-layer="svg1" />
  <defs
     id="defs1">
    <linearGradient
       inkscape:collect="always"
       xlink:href="#4852"
       id="linearGradient2"
       x1="16"
       y1="15.735369"
       x2="16"
       y2="0"
       gradientUnits="userSpaceOnUse" />
    <linearGradient
       inkscape:collect="always"
       id="4852">
      <stop
         style="stop-color:#272727;stop-opacity:1;"
         offset="0"
         id="stop14555" />
      <stop
         style="stop-color:#5d5d5d;stop-opacity:1;"
         offset="1"
         id="stop14557" />
    </linearGradient>
    <linearGradient
       inkscape:collect="always"
       id="linearGradient3788">
      <stop
         style="stop-color:#ff7c15;stop-opacity:1;"
         offset="0"
         id="stop3784" />
      <stop
         style="stop-color:#f9bd00;stop-opacity:1;"
         offset="1"
         id="stop3786" />
    </linearGradient>
    <linearGradient
       inkscape:collect="always"
       xlink:href="#linearGradient3788"
       id="linearGradient3"
       x1="8"
       y1="16"
       x2="8"
       y2="0"
       gradientUnits="userSpaceOnUse" />
  </defs>
  <rect
     style="fill:url(#linearGradient2)"
     id="rect1"
     width="16"
     height="16"
     x="0"
     y="0"
     ry="4" />
  <path
     id="path1923"
     style="color:#000000;fill:url(#linearGradient3);stroke:none;stroke-width:1.38011;stroke-linecap:round;stroke-linejoin:round"
     d="m 4,4.0000002 c -1.081521,-3e-7 -1.770415,1.0354439 -2,1.5 V 12.642578 C 2,12.80172 2.08334,12.995723 2.25,13 2.356744,12.9816 2.405134,12.87096 2.5,12.75 2.719866,12.492947 3.162212,11.729927 4,11.5 4.675247,11.333819 5.627851,11.628181 6.375,12.25 6.662838,12.509619 7.009858,12.486583 7,12 V 5.5000002 c -0.394913,-0.8776223 -1.493348,-1.4999996 -3,-1.5 z m 7,0 c -1.506652,4e-7 -2.605087,0.6223777 -3,1.5 V 12 c -0.0099,0.486583 0.337162,0.509619 0.625,0.25 0.747149,-0.621819 1.699753,-0.916181 2.375,-0.75 0.837788,0.229927 1.280134,0.992947 1.5,1.25 0.09487,0.12096 0.143256,0.231594 0.25,0.25 C 12.91666,12.9957 13,12.80172 13,12.642578 V 5.5000002 c -0.229585,-0.4645561 -0.918479,-1.5000004 -2,-1.5 z"
     sodipodi:nodetypes="scsccccccssccccccscs" />
</svg>
