<?xml version="1.0" encoding="UTF-8" standalone="no"?>
<!-- Created with Inkscape (http://www.inkscape.org/) -->

<svg
   width="16"
   height="16"
   viewBox="0 0 16 16.000001"
   version="1.1"
   id="svg1"
   inkscape:version="1.4.3 (0d15f75042, 2025-12-25)"
   sodipodi:docname="conky.svg"
   xmlns:inkscape="http://www.inkscape.org/namespaces/inkscape"
   xmlns:sodipodi="http://sodipodi.sourceforge.net/DTD/sodipodi-0.dtd"
   xmlns:xlink="http://www.w3.org/1999/xlink"
   xmlns="http://www.w3.org/2000/svg"
   xmlns:svg="http://www.w3.org/2000/svg">
  <sodipodi:namedview
     id="namedview1"
     pagecolor="#ffffff"
     bordercolor="#000000"
     borderopacity="0.25"
     inkscape:showpageshadow="2"
     inkscape:pageopacity="0.0"
     inkscape:pagecheckerboard="0"
     inkscape:deskcolor="#d1d1d1"
     inkscape:document-units="px"
     inkscape:zoom="36.1875"
     inkscape:cx="8"
     inkscape:cy="8"
     inkscape:window-width="1440"
     inkscape:window-height="830"
     inkscape:window-x="0"
     inkscape:window-y="0"
     inkscape:window-maximized="1"
     inkscape:current-layer="svg1" />
  <defs
     id="defs1">
    <linearGradient
       inkscape:collect="always"
       xlink:href="#4852"
       id="linearGradient2"
       x1="16"
       y1="15.735369"
       x2="16"
       y2="0"
       gradientUnits="userSpaceOnUse" />
    <linearGradient
       inkscape:collect="always"
       id="4852">
      <stop
         style="stop-color:#272727;stop-opacity:1;"
         offset="0"
         id="stop14555" />
      <stop
         style="stop-color:#5d5d5d;stop-opacity:1;"
         offset="1"
         id="stop14557" />
    </linearGradient>
    <linearGradient
       inkscape:collect="always"
       xlink:href="#linearGradient6"
       id="linearGradient7"
       x1="8"
       y1="16"
       x2="8"
       y2="0"
       gradientUnits="userSpaceOnUse" />
    <linearGradient
       id="linearGradient6"
       inkscape:collect="always">
      <stop
         style="stop-color:#6d10b1;stop-opacity:1;"
         offset="0"
         id="stop6" />
      <stop
         style="stop-color:#a642ee;stop-opacity:1;"
         offset="1"
         id="stop7" />
    </linearGradient>
  </defs>
  <rect
     style="fill:url(#linearGradient2)"
     id="rect1"
     width="16"
     height="16"
     x="0"
     y="0"
     ry="4" />
  <path
     id="rect234"
     style="fill:url(#linearGradient7);fill-opacity:1;stroke-width:4;stroke-linecap:round;stroke-linejoin:round"
     d="M 4.9999999,3 C 3.8920055,3 3,3.8920056 3,5 v 4 c 0,1.107995 0.8920055,2 1.9999999,2 h 2 v 1 h -1.5 c -0.2769997,0 -0.5,0.223 -0.5,0.5 0,0.277 0.2230003,0.5 0.5,0.5 H 10.5 C 10.776999,13 11,12.777 11,12.5 11,12.223 10.776999,12 10.5,12 H 9 v -1 h 2 c 1.107995,0 2,-0.892005 2,-2 V 8.5 C 13,8.2238579 12.776142,8 12.5,8 12.223858,8 12,8.2238579 12,8.5 V 9 c 0,0.553997 -0.446003,1 -1,1 H 4.9999999 C 4.4460029,10 4,9.553997 4,9 V 5 C 4,4.446003 4.4460029,4 4.9999999,4 H 11 c 0.553997,0 1,0.446003 1,1 V 5.5 C 12,5.7761418 12.223858,6 12.5,6 12.776142,6 13,5.7761418 13,5.5 V 5 C 13,3.8920056 12.107995,3 11,3 Z" />
</svg>
