<?xml version="1.0" encoding="UTF-8" standalone="no"?>
<!-- Created with Inkscape (http://www.inkscape.org/) -->

<svg
   width="16"
   height="16"
   viewBox="0 0 16 16.000001"
   version="1.1"
   id="svg1"
   inkscape:version="1.4.2 (ebf0e940d0, 2025-05-08)"
   sodipodi:docname="electron.svg"
   xmlns:inkscape="http://www.inkscape.org/namespaces/inkscape"
   xmlns:sodipodi="http://sodipodi.sourceforge.net/DTD/sodipodi-0.dtd"
   xmlns:xlink="http://www.w3.org/1999/xlink"
   xmlns="http://www.w3.org/2000/svg"
   xmlns:svg="http://www.w3.org/2000/svg">
  <sodipodi:namedview
     id="namedview1"
     pagecolor="#ffffff"
     bordercolor="#000000"
     borderopacity="0.25"
     inkscape:showpageshadow="2"
     inkscape:pageopacity="0.0"
     inkscape:pagecheckerboard="0"
     inkscape:deskcolor="#d1d1d1"
     inkscape:document-units="px"
     inkscape:zoom="49.125"
     inkscape:cx="8.0101781"
     inkscape:cy="7.9898219"
     inkscape:window-width="1920"
     inkscape:window-height="1011"
     inkscape:window-x="0"
     inkscape:window-y="0"
     inkscape:window-maximized="1"
     inkscape:current-layer="svg1" />
  <defs
     id="defs1">
    <linearGradient
       inkscape:collect="always"
       xlink:href="#4852"
       id="linearGradient2"
       x1="16"
       y1="15.735369"
       x2="16"
       y2="0"
       gradientUnits="userSpaceOnUse" />
    <linearGradient
       inkscape:collect="always"
       id="4852">
      <stop
         style="stop-color:#272727;stop-opacity:1;"
         offset="0"
         id="stop14555" />
      <stop
         style="stop-color:#5d5d5d;stop-opacity:1;"
         offset="1"
         id="stop14557" />
    </linearGradient>
  </defs>
  <rect
     style="fill:url(#linearGradient2)"
     id="rect1"
     width="16"
     height="16"
     x="0"
     y="0"
     ry="4" />
  <path
     d="M 7.9531252,1.0019531 C 7.6134019,1.0180302 7.3051297,1.2056422 7.1347658,1.5 6.8591269,1.9779221 7.0225475,2.5887831 7.5000002,2.8652344 c 0.2155011,0.124517 0.4696859,0.1642116 0.7128906,0.1113281 0.2467717,0.3780046 0.5096136,0.9226267 0.7109375,1.5429687 0.006,0.018481 0.01165,0.036091 0.017578,0.054688 C 7.9094626,4.9976757 6.8318505,5.6056697 5.9121096,6.2480469 5.405263,6.602045 4.9099108,7.0176157 4.4609377,7.4667969 4.0196568,6.7710642 3.898335,6.0965064 4.0957033,5.625 4.2210449,5.3255632 4.3773923,5.1930795 4.5761721,5.1035156 c 0.1987797,-0.089564 0.4552029,-0.1171191 0.71875,-0.099609 0.5270941,0.035019 1.0175781,0.2441407 1.0175781,0.2441407 0.2524093,0.1122649 0.54803,-0.00144 0.6601562,-0.2539063 0.1122649,-0.2524093 -0.00144,-0.5480299 -0.2539062,-0.6601562 0,0 -0.6134643,-0.2786975 -1.3574219,-0.328125 -0.3719788,-0.024714 -0.7922709,0.00502 -1.1972656,0.1875 C 3.759068,4.3758373 3.3855471,4.7278261 3.1718752,5.2382812 2.7702727,6.1976965 3.0939318,7.284103 3.7714846,8.2304688 3.7081467,8.3082256 3.6457649,8.3862197 3.5859377,8.4648438 3.1915718,8.9831135 2.8664969,9.5141941 2.683594,10.050781 2.2751352,10.187019 1.9997439,10.56942 2.0000002,11 c 0,0.552285 0.4477152,1 1,1 0.5522848,0 1,-0.447715 1,-1 C 4.000168,10.723215 3.8856093,10.45874 3.683594,10.269531 3.827586,9.9029527 4.0647932,9.4856822 4.3808596,9.0703125 c 0.016959,-0.022288 0.033425,-0.044124 0.050781,-0.066406 0.7961293,0.789919 1.8635982,1.4411925 3.0742188,1.7695315 0.5570866,0.15109 1.1686573,0.210172 1.7792968,0.214843 -0.0023,0.0063 -0.0055,0.01327 -0.0078,0.01953 -0.14088,0.373906 -0.3171874,0.641121 -0.4863282,0.794922 -0.1691408,0.153801 -0.3108839,0.206948 -0.5,0.197266 -1.0631907,-0.05443 -1.34375,-0.714844 -1.34375,-0.714844 -0.1252691,-0.245773 -0.4259187,-0.343659 -0.671875,-0.21875 -0.2469105,0.125297 -0.3449826,0.427394 -0.21875,0.673828 0,0 0.6599173,1.179807 2.1835938,1.257813 0.4576007,0.02343 0.8954424,-0.155764 1.2246094,-0.455078 0.329167,-0.299314 0.5678468,-0.705331 0.7480468,-1.183594 0.04954,-0.131497 0.09414,-0.269216 0.134765,-0.412109 0.178334,-0.01431 0.354299,-0.03133 0.525391,-0.05078 0.53191,-0.06047 1.003862,-0.136137 1.394531,-0.216796 0.317353,0.341527 0.828579,0.418494 1.232422,0.185546 C 13.977452,10.588783 14.140873,9.9779219 13.865234,9.5 13.682589,9.1835084 13.341882,8.9918139 12.976562,9 12.808922,9.0042599 12.645044,9.0506024 12.5,9.1347656 c -0.214348,0.1239339 -0.375108,0.3229692 -0.451172,0.5585938 -0.360946,0.076504 -0.815424,0.15709 -1.289062,0.2109375 -0.06886,0.00783 -0.138774,0.01464 -0.208985,0.021484 0.08427,-0.6739205 0.09318,-1.426158 0.02344,-2.234375 -0.06464,-0.7490683 -0.205313,-1.6286086 -0.417969,-2.4902343 0.538308,-0.1620771 1.010607,-0.2277408 1.308594,-0.1953125 0.307602,0.033475 0.372814,0.082512 0.43164,0.2539062 0.190637,0.5554323 0.03117,0.9730254 -0.193359,1.3144532 -0.224531,0.3414279 -0.492188,0.5351562 -0.492187,0.5351562 -0.224228,0.1608087 -0.275801,0.4728631 -0.115235,0.6972656 0.160809,0.2242285 0.472864,0.2758006 0.697266,0.1152344 0,0 0.412742,-0.2919243 0.746093,-0.7988281 0.333352,-0.5069039 0.609259,-1.3001106 0.304688,-2.1875 -0.188779,-0.5500163 -0.732623,-0.8651865 -1.271486,-0.9238278 -0.516991,-0.056261 -1.081374,0.044214 -1.6874998,0.2265624 -0.0029,-0.00908 -0.0068,-0.018286 -0.0098,-0.027344 C 9.6324122,3.463449 9.3603832,2.7668055 8.9687502,2.2460938 9.0785702,1.8125108 8.8871664,1.3587233 8.5000002,1.1347656 8.3341778,1.0390644 8.1443713,0.99296858 7.9531252,1.0019531 Z m 1.257813,4.546875 c 0.184499,0.7746635 0.310316,1.5694262 0.367187,2.2285157 0.07099,0.8226761 0.048,1.5755341 -0.04687,2.2070312 C 8.8937368,9.9928384 8.2683545,9.9444122 7.7675783,9.8085938 6.7183289,9.5240213 5.7710371,8.9327232 5.0937502,8.25 5.5209049,7.8141976 6.0012835,7.4057663 6.4843752,7.0683594 7.3093394,6.4921774 8.2972867,5.9374937 9.2109382,5.5488281 Z M 8.0000002,7 c -0.5491079,0 -1,0.4508921 -1,1 0,0.5491079 0.4508921,1 1,1 0.5491079,0 1,-0.4508921 1,-1 0,-0.5491079 -0.4508921,-1 -1,-1 z"
     style="baseline-shift:baseline;display:inline;overflow:visible;vector-effect:none;fill:#cff7ff;stroke-linecap:round;enable-background:accumulate;stop-color:#000000"
     id="path1" />
</svg>
