<?xml version="1.0" encoding="UTF-8" standalone="no"?>
<!-- Created with Inkscape (http://www.inkscape.org/) -->

<svg
   width="16"
   height="16"
   viewBox="0 0 16 16.000001"
   version="1.1"
   id="svg1"
   inkscape:version="1.4.3 (0d15f75042, 2025-12-25)"
   sodipodi:docname="ktorrent.svg"
   xmlns:inkscape="http://www.inkscape.org/namespaces/inkscape"
   xmlns:sodipodi="http://sodipodi.sourceforge.net/DTD/sodipodi-0.dtd"
   xmlns:xlink="http://www.w3.org/1999/xlink"
   xmlns="http://www.w3.org/2000/svg"
   xmlns:svg="http://www.w3.org/2000/svg">
  <sodipodi:namedview
     id="namedview1"
     pagecolor="#ffffff"
     bordercolor="#000000"
     borderopacity="0.25"
     inkscape:showpageshadow="2"
     inkscape:pageopacity="0.0"
     inkscape:pagecheckerboard="0"
     inkscape:deskcolor="#d1d1d1"
     inkscape:document-units="px"
     inkscape:zoom="49.875"
     inkscape:cx="7.9899749"
     inkscape:cy="8"
     inkscape:window-width="1854"
     inkscape:window-height="1011"
     inkscape:window-x="0"
     inkscape:window-y="0"
     inkscape:window-maximized="1"
     inkscape:current-layer="svg1" />
  <defs
     id="defs1">
    <linearGradient
       inkscape:collect="always"
       xlink:href="#4852"
       id="linearGradient2"
       x1="16"
       y1="15.735369"
       x2="16"
       y2="0"
       gradientUnits="userSpaceOnUse" />
    <linearGradient
       inkscape:collect="always"
       id="4852">
      <stop
         style="stop-color:#272727;stop-opacity:1;"
         offset="0"
         id="stop14555" />
      <stop
         style="stop-color:#5d5d5d;stop-opacity:1;"
         offset="1"
         id="stop14557" />
    </linearGradient>
  </defs>
  <rect
     style="fill:url(#linearGradient2)"
     id="rect1"
     width="16"
     height="16"
     x="0"
     y="0"
     ry="4" />
  <rect
     style="fill:#ffffff;fill-opacity:1;stroke-width:1.29099;stroke-linecap:round;stroke-linejoin:round"
     id="rect919"
     width="4.0000005"
     height="6.2499275"
     x="5.9999404"
     y="3" />
  <path
     d="m 6.9062048,6.7439736 c -0.016345,0.00195 -0.032245,0.0066 -0.047605,0.01343 -0.12341,0.054144 -0.164631,0.2305926 -0.00245,0.6005791 0.1624339,0.369987 0.3941609,0.626647 0.5175719,0.572503 0.123413,-0.05414 0.09139,-0.397824 -0.0708,-0.767812 C 7.1609707,6.8387836 7.0213107,6.7310531 6.9061933,6.7451996 Z m -2.9845847,0.0061 c -0.165038,0.00838 -0.296627,0.145389 -0.296627,0.3124961 0,0.172498 0.139998,0.312497 0.312496,0.312497 0.172498,0 0.3124965,-0.139999 0.3124965,-0.312497 0,-0.1724976 -0.1399985,-0.3124961 -0.3124965,-0.3124961 -0.00538,0 -0.010545,-2.75e-4 -0.01587,5e-7 z m 1.7028611,0 c -0.093464,0.0041 -0.2028271,0.09355 -0.090331,0.2172826 0.1597505,0.1761315 0.2449715,0.4901695 0.102538,0.5529725 -0.1431661,0.0628 -0.1338006,-0.234126 -0.1464826,-0.391842 -0.01244,-0.157715 -0.407857,-0.2528641 -0.5541929,-0.05738 -0.1463365,0.195492 3.75e-4,0.406716 0.1452619,0.449215 0.1448725,0.04273 0.1678085,0.202944 0.253903,0.369868 0.086339,0.166924 0.5054681,0.125134 0.6079031,0 0.1024355,-0.125131 0.1665465,-0.357884 -0.032955,-0.572501 -0.1995045,-0.214616 -0.138968,-0.4141236 -0.192868,-0.5236746 -0.013415,-0.02739 -0.04227,-0.041115 -0.074462,-0.043945 -0.00597,-5e-4 -0.01208,-2.75e-4 -0.018315,0 z m 5.7970518,0 c -0.165037,0.00838 -0.296627,0.145389 -0.296627,0.3124961 0,0.172498 0.139998,0.312497 0.312496,0.312497 0.172498,0 0.312497,-0.139999 0.312497,-0.312497 0,-0.1724976 -0.139999,-0.3124961 -0.312497,-0.3124961 -0.0053,0 -0.01054,-2.75e-4 -0.01587,0 z m -1.118152,0.103759 c -0.112691,0.00255 -0.161846,0.2298561 -0.190428,0.4443301 -0.03048,0.228773 -0.1454077,0.465617 -0.04639,0.511469 0.137312,0.06097 0.207428,-0.315078 0.362545,-0.455317 0.155116,-0.140483 0.02698,-0.4675546 -0.102539,-0.4980411 -0.0081,-0.0019 -0.01567,-0.00265 -0.02319,-0.00245 z m -3.9342793,0.032955 c -0.1346295,-1e-6 -0.244138,0.1095081 -0.244138,0.2441371 0,0.134629 0.1095085,0.244138 0.244138,0.244138 0.1346286,0 0.2441376,-0.109509 0.2441376,-0.244138 0,-0.134629 -0.109509,-0.2441381 -0.2441376,-0.2441371 z m 2.76486,0.073242 c -0.158533,0.011705 -0.315504,0.2824111 -0.393062,0.4699651 -0.08878,0.214139 0.01858,0.631985 -0.190427,0.788565 -0.2090169,0.156823 -0.361917,0.160335 -0.466303,0.09765 -0.104387,-0.06268 0.08851,-0.05419 -0.02807,-0.292965 -0.1168251,-0.238773 -0.3955771,-0.164119 -0.4687441,0.02197 -0.07317,0.186091 0.07807,0.17711 0.02563,0.286861 -0.05219,0.109753 -0.496432,0.22916 -0.595696,-0.100096 -0.09927,-0.329256 -0.4517694,-0.688135 -0.5615215,-0.599358 -0.1097525,0.08878 0.01298,0.416272 0.3002896,0.677482 0.2873069,0.26121 -0.073736,0.401654 -0.3234826,0.205076 C 6.1828277,8.3183677 5.8896287,8.6643457 5.6623202,8.8960447 5.4347676,9.127499 5.2322316,9.143461 5.0702861,9.004686 4.9085852,8.8661537 5.0495961,8.4889317 4.8627692,8.1099197 c -0.1865785,-0.37901 -0.5569305,-0.19017 -0.6091236,0.065918 -0.052193,0.256088 0.4683986,0.429092 0.3674271,0.571282 -0.100972,0.14219 -0.5047516,0.109349 -0.6237721,-0.15869 -0.118776,-0.268039 -0.3781745,-0.180197 -0.383296,0.03906 -0.00513,0.219505 0.200842,0.06535 0.3613235,0.225828 L 8.1220087,12.999998 12.267468,8.8533177 c 0.487787,-0.487787 -0.07043,-0.278207 -0.185544,-0.168455 -0.114875,0.109752 -0.47074,0.198364 -0.512689,0.07812 -0.04171,-0.120239 0.398313,-0.32191 0.523675,-0.457758 0.125361,-0.135849 0.247843,-0.521376 0.04517,-0.662834 -0.202679,-0.141458 -0.48938,0.113468 -0.61401,0.301509 -0.12536,0.188043 -0.01702,0.667864 -0.184323,0.8142 -0.167311,0.146336 -0.259306,0.057 -0.290525,-0.06836 -0.03146,-0.125362 0.361159,-0.302067 0.196532,-0.614007 -0.164873,-0.31194 -0.469376,-0.170506 -0.610346,-0.02441 -0.140971,0.146336 0.08428,0.371808 0.136717,0.6018 0.05219,0.229992 -0.481893,0.224035 -0.69091,0.140379 -0.2090147,-0.08365 -0.2774287,-0.608178 -0.3662053,-0.639641 -0.08878,-0.03146 -0.315471,0.174226 -0.603021,0.08545 -0.287307,-0.08878 -0.04849,-0.267052 0.04028,-0.476069 0.08878,-0.209017 0.229554,-0.711985 0.05005,-0.7910065 -0.02244,-0.01 -0.04592,-0.01391 -0.06836,-0.012205 z M 3.244138,7.5118047 C 3.109509,7.5118047 3,7.6213137 3,7.7559427 c 0,0.13463 0.109509,0.244139 0.244138,0.244139 0.134629,0 0.2441376,-0.109509 0.2441376,-0.244139 0,-0.134629 -0.1095085,-0.244138 -0.2441376,-0.244138 z m 9.499401,0.490717 c -0.128807,0.0065 -0.231931,0.113716 -0.231931,0.244138 0,0.13463 0.109509,0.242918 0.244138,0.242918 0.134629,0 0.244138,-0.108288 0.244138,-0.242918 0,-0.134629 -0.109509,-0.244138 -0.244138,-0.244138 -0.0042,0 -0.008,-2.1e-4 -0.0122,0 z"
     style="fill:#b0e8fb;fill-opacity:1;stroke-width:0.62499"
     id="path449"
     sodipodi:nodetypes="ccccccccssssccsccsccsscccsscsssscscccccscssscscscsccssccccssccsccccssccccccsscccccsssssssssssss" />
</svg>
