<?xml version="1.0" encoding="UTF-8" standalone="no"?>
<!-- Created with Inkscape (http://www.inkscape.org/) -->

<svg
   width="16"
   height="16"
   viewBox="0 0 16 16.000001"
   version="1.1"
   id="svg1"
   inkscape:version="1.4.2 (ebf0e940d0, 2025-05-08)"
   sodipodi:docname="qbittorrent.svg"
   xmlns:inkscape="http://www.inkscape.org/namespaces/inkscape"
   xmlns:sodipodi="http://sodipodi.sourceforge.net/DTD/sodipodi-0.dtd"
   xmlns:xlink="http://www.w3.org/1999/xlink"
   xmlns="http://www.w3.org/2000/svg"
   xmlns:svg="http://www.w3.org/2000/svg">
  <sodipodi:namedview
     id="namedview1"
     pagecolor="#ffffff"
     bordercolor="#000000"
     borderopacity="0.25"
     inkscape:showpageshadow="2"
     inkscape:pageopacity="0.0"
     inkscape:pagecheckerboard="0"
     inkscape:deskcolor="#d1d1d1"
     inkscape:document-units="px"
     inkscape:zoom="50.0625"
     inkscape:cx="8"
     inkscape:cy="8"
     inkscape:window-width="1920"
     inkscape:window-height="1011"
     inkscape:window-x="0"
     inkscape:window-y="0"
     inkscape:window-maximized="1"
     inkscape:current-layer="svg1" />
  <defs
     id="defs1">
    <linearGradient
       inkscape:collect="always"
       xlink:href="#4852"
       id="linearGradient2"
       x1="16"
       y1="15.735369"
       x2="16"
       y2="0"
       gradientUnits="userSpaceOnUse" />
    <linearGradient
       inkscape:collect="always"
       id="4852">
      <stop
         style="stop-color:#272727;stop-opacity:1;"
         offset="0"
         id="stop14555" />
      <stop
         style="stop-color:#5d5d5d;stop-opacity:1;"
         offset="1"
         id="stop14557" />
    </linearGradient>
  </defs>
  <rect
     style="fill:url(#linearGradient2)"
     id="rect1"
     width="16"
     height="16"
     x="0"
     y="0"
     ry="4" />
  <path
     d="M 7.0000158,12.937531 H 6.1145963 V 9.927105 h -0.010417 c -0.1319449,0.211806 -0.2864592,0.387154 -0.4635431,0.526043 -0.1770839,0.138889 -0.3715289,0.24132 -0.5833352,0.307293 -0.208334,0.06944 -0.432293,0.104167 -0.6718771,0.104167 -0.4756959,0 -0.8941,-0.119792 -1.2552123,-0.359376 C 2.7725718,10.262175 2.4947932,9.927105 2.2968759,9.50002 2.0989586,9.069463 2,8.5729339 2,8.0104321 2,7.4444581 2.098959,6.9479288 2.2968759,6.5208441 2.4947932,6.0902872 2.7725719,5.7552167 3.1302119,5.5156326 3.4913242,5.2760485 3.9097283,5.1562565 4.3854242,5.1562565 c 0.2395841,0 0.4687515,0.034722 0.6875022,0.104167 0.2222229,0.065973 0.4236124,0.1666674 0.6041685,0.3020842 C 5.857651,5.6979248 6.0069571,5.8680643 6.125013,6.072926 H 6.13543 V 5.2604235 H 7.0000158 Z M 4.5208413,10.06773 c 0.3402789,0 0.6354187,-0.08507 0.8854195,-0.255209 C 5.6562615,9.642382 5.8489705,9.402798 5.9843876,9.093769 6.1198047,8.7847402 6.1875132,8.4236279 6.1875132,8.0104321 6.1875132,7.5937642 6.1198042,7.2309158 5.9843876,6.921887 5.8489705,6.6128583 5.6562615,6.3732742 5.4062608,6.2031348 5.15626,6.0329953 4.8611202,5.9479256 4.5208413,5.9479256 c -0.3159732,0 -0.5972241,0.078125 -0.8437527,0.2343758 C 3.4340323,6.3385519 3.2430594,6.5694554 3.1041701,6.8750119 2.9652808,7.1805684 2.8958362,7.5590418 2.8958362,8.0104321 c 0,0.4479181 0.069445,0.8246554 0.2083339,1.1302119 0.1388893,0.305556 0.3298622,0.53646 0.5729185,0.692711 0.2465286,0.15625 0.5277795,0.234375 0.8437527,0.234375 z"
     style="fill:#a6d3fb;fill-opacity:1;stroke-width:4;stroke-linecap:round"
     id="path1" />
  <path
     d="m 10.927112,10.864608 c -0.236112,0 -0.461807,-0.03472 -0.677086,-0.104167 C 10.034747,10.694471 9.83683,10.592037 9.656274,10.453148 9.475718,10.314259 9.319468,10.138911 9.187523,9.9271052 H 9.177103 V 10.760441 H 8.31252 V 2.9999996 H 9.197939 V 6.072926 h 0.01042 C 9.326415,5.8680643 9.473985,5.6979248 9.651069,5.5625077 9.828153,5.4270906 10.02607,5.3263959 10.244821,5.2604235 c 0.218751,-0.069445 0.446182,-0.104167 0.682294,-0.104167 0.479168,0 0.897572,0.119792 1.255212,0.3593761 0.35764,0.2395841 0.635419,0.5746546 0.833336,1.0052115 0.197917,0.4270847 0.296876,0.923614 0.296876,1.489588 0,0.5625018 -0.09896,1.0590312 -0.296876,1.4895881 -0.197917,0.427085 -0.475696,0.7621548 -0.833336,1.0052118 -0.35764,0.239584 -0.776044,0.359376 -1.255212,0.359376 z M 10.791694,10.06773 c 0.319446,0 0.600697,-0.07813 0.843753,-0.2343758 C 11.878504,9.6771041 12.069477,9.4462005 12.208366,9.140644 12.347255,8.8350875 12.4167,8.4583502 12.4167,8.0104321 12.4167,7.5590418 12.34726,7.1805684 12.208366,6.8750119 12.069477,6.5694554 11.878504,6.3385519 11.635447,6.1823014 11.392391,6.0260509 11.11114,5.9479256 10.791694,5.9479256 c -0.340279,0 -0.635418,0.08507 -0.885419,0.2552092 C 9.656274,6.3732742 9.463565,6.6128583 9.328148,6.921887 9.192731,7.2309158 9.125023,7.5937642 9.125023,8.0104321 c 0,0.4131958 0.06771,0.7743081 0.203125,1.0833368 0.135417,0.3090287 0.328126,0.5486128 0.578127,0.7187523 0.250001,0.170139 0.54514,0.2552088 0.885419,0.2552088 z"
     style="fill:#ffffff;stroke-width:4;stroke-linecap:round"
     id="path2" />
</svg>
