<?xml version="1.0" encoding="UTF-8" standalone="no"?>
<!-- Created with Inkscape (http://www.inkscape.org/) -->

<svg
   width="16"
   height="16"
   viewBox="0 0 16 16.000001"
   version="1.1"
   id="svg1"
   inkscape:version="1.4.2 (ebf0e940d0, 2025-05-08)"
   sodipodi:docname="sendanywhere.svg"
   xmlns:inkscape="http://www.inkscape.org/namespaces/inkscape"
   xmlns:sodipodi="http://sodipodi.sourceforge.net/DTD/sodipodi-0.dtd"
   xmlns:xlink="http://www.w3.org/1999/xlink"
   xmlns="http://www.w3.org/2000/svg"
   xmlns:svg="http://www.w3.org/2000/svg">
  <sodipodi:namedview
     id="namedview1"
     pagecolor="#ffffff"
     bordercolor="#000000"
     borderopacity="0.25"
     inkscape:showpageshadow="2"
     inkscape:pageopacity="0.0"
     inkscape:pagecheckerboard="0"
     inkscape:deskcolor="#d1d1d1"
     inkscape:document-units="px"
     inkscape:zoom="50.5625"
     inkscape:cx="8"
     inkscape:cy="8"
     inkscape:window-width="1920"
     inkscape:window-height="1011"
     inkscape:window-x="0"
     inkscape:window-y="0"
     inkscape:window-maximized="1"
     inkscape:current-layer="svg1" />
  <defs
     id="defs1">
    <linearGradient
       id="linearGradient1"
       inkscape:collect="always">
      <stop
         style="stop-color:#ff2d55;stop-opacity:1;"
         offset="0"
         id="stop1" />
      <stop
         style="stop-color:#ff755e;stop-opacity:1;"
         offset="1"
         id="stop2" />
    </linearGradient>
    <linearGradient
       inkscape:collect="always"
       xlink:href="#linearGradient1"
       id="linearGradient4"
       x1="8"
       y1="16"
       x2="8"
       y2="0"
       gradientUnits="userSpaceOnUse" />
    <linearGradient
       inkscape:collect="always"
       xlink:href="#4852"
       id="linearGradient2"
       x1="16"
       y1="15.735369"
       x2="16"
       y2="0"
       gradientUnits="userSpaceOnUse" />
    <linearGradient
       inkscape:collect="always"
       id="4852">
      <stop
         style="stop-color:#272727;stop-opacity:1;"
         offset="0"
         id="stop14555" />
      <stop
         style="stop-color:#5d5d5d;stop-opacity:1;"
         offset="1"
         id="stop14557" />
    </linearGradient>
  </defs>
  <rect
     style="fill:url(#linearGradient2)"
     id="rect1"
     width="16"
     height="16"
     x="0"
     y="0"
     ry="4" />
  <path
     d="M 11.261719,2 C 11.140625,2.0037144 10.999999,2.1189489 11,2.2636719 V 3 H 5.5 C 4.1192881,3 3,4.1192881 3,5.5 V 11 H 4 V 5.5 C 4,4.6715729 4.6715729,4 5.5,4 h 7.236328 c 0.235763,-9.24e-5 0.352199,-0.2844044 0.185547,-0.4511719 L 11.451172,2.078125 C 11.400612,2.027543 11.333208,1.9978067 11.261719,2 Z M 12,5 v 5.5 C 12,11.328427 11.328427,12 10.5,12 H 3.2636719 c -0.2357631,9.2e-5 -0.3521987,0.284405 -0.1855469,0.451172 l 1.4707031,1.470703 C 4.5993901,13.972455 4.6667689,14.001 4.7382812,14 4.8829892,13.997912 5.0000008,13.881051 5,13.736328 V 13 h 5.5 C 11.880712,13 13,11.880712 13,10.5 V 5 Z M 5.6679688,7 C 5.2984508,7 5,7.2984508 5,7.6679688 V 8.3320312 C 5,8.7015493 5.2984508,9 5.6679688,9 H 6.3320312 C 6.7015492,9 7,8.7015493 7,8.3320312 V 7.6679688 C 7,7.2984508 6.7015492,7 6.3320312,7 Z m 4,0 C 9.2984507,7 9,7.2984508 9,7.6679688 V 8.3320312 C 9,8.7015493 9.2984507,9 9.6679688,9 H 10.332031 C 10.701549,9 11,8.7015493 11,8.3320312 V 7.6679688 C 11,7.2984508 10.701549,7 10.332031,7 Z"
     style="baseline-shift:baseline;display:inline;overflow:visible;vector-effect:none;fill:url(#linearGradient4);enable-background:accumulate;stop-color:#000000"
     id="path1" />
</svg>
