<?xml version="1.0" encoding="UTF-8" standalone="no"?>
<!-- Created with Inkscape (http://www.inkscape.org/) -->

<svg
   width="16"
   height="16"
   viewBox="0 0 16 16.000001"
   version="1.1"
   id="svg1"
   inkscape:version="1.4.4 (dcaf3e7d9e, 2026-05-05)"
   sodipodi:docname="web-google.svg"
   xmlns:inkscape="http://www.inkscape.org/namespaces/inkscape"
   xmlns:sodipodi="http://sodipodi.sourceforge.net/DTD/sodipodi-0.dtd"
   xmlns:xlink="http://www.w3.org/1999/xlink"
   xmlns="http://www.w3.org/2000/svg"
   xmlns:svg="http://www.w3.org/2000/svg">
  <sodipodi:namedview
     id="namedview1"
     pagecolor="#ffffff"
     bordercolor="#000000"
     borderopacity="0.25"
     inkscape:showpageshadow="2"
     inkscape:pageopacity="0.0"
     inkscape:pagecheckerboard="0"
     inkscape:deskcolor="#d1d1d1"
     inkscape:document-units="px"
     inkscape:zoom="36.25"
     inkscape:cx="7.9862069"
     inkscape:cy="8"
     inkscape:window-width="1440"
     inkscape:window-height="831"
     inkscape:window-x="0"
     inkscape:window-y="0"
     inkscape:window-maximized="1"
     inkscape:current-layer="svg1" />
  <defs
     id="defs1">
    <linearGradient
       id="linearGradient9"
       inkscape:collect="always">
      <stop
         style="stop-color:#fbbc04;stop-opacity:1;"
         offset="0"
         id="stop9" />
      <stop
         style="stop-color:#fb642c;stop-opacity:1;"
         offset="0.25523826"
         id="stop11" />
      <stop
         style="stop-color:#fc413d;stop-opacity:1;"
         offset="0.64173776"
         id="stop12" />
      <stop
         style="stop-color:#fb4e5a;stop-opacity:1;"
         offset="1"
         id="stop10" />
    </linearGradient>
    <linearGradient
       id="linearGradient6"
       inkscape:collect="always">
      <stop
         style="stop-color:#fbbc04;stop-opacity:1;"
         offset="0"
         id="stop7" />
      <stop
         style="stop-color:#efb508;stop-opacity:1;"
         offset="0.70988506"
         id="stop13" />
      <stop
         style="stop-color:#0fbc5c;stop-opacity:1;"
         offset="1"
         id="stop8" />
    </linearGradient>
    <linearGradient
       id="linearGradient4"
       inkscape:collect="always">
      <stop
         style="stop-color:#0fbc5c;stop-opacity:1;"
         offset="0"
         id="stop4" />
      <stop
         style="stop-color:#1fa1ad;stop-opacity:1;"
         offset="0.52454919"
         id="stop6" />
      <stop
         style="stop-color:#3086ff;stop-opacity:1;"
         offset="1"
         id="stop5" />
    </linearGradient>
    <linearGradient
       inkscape:collect="always"
       xlink:href="#4852"
       id="linearGradient2"
       x1="16"
       y1="15.735369"
       x2="16"
       y2="0"
       gradientUnits="userSpaceOnUse" />
    <linearGradient
       inkscape:collect="always"
       id="4852">
      <stop
         style="stop-color:#272727;stop-opacity:1;"
         offset="0"
         id="stop14555" />
      <stop
         style="stop-color:#5d5d5d;stop-opacity:1;"
         offset="1"
         id="stop14557" />
    </linearGradient>
    <linearGradient
       inkscape:collect="always"
       xlink:href="#linearGradient4"
       id="linearGradient5"
       x1="9.6006889"
       y1="11.925255"
       x2="11.326503"
       y2="10.176216"
       gradientUnits="userSpaceOnUse" />
    <linearGradient
       inkscape:collect="always"
       xlink:href="#linearGradient6"
       id="linearGradient8"
       x1="3"
       y1="8"
       x2="5.7446046"
       y2="10.698293"
       gradientUnits="userSpaceOnUse" />
    <linearGradient
       inkscape:collect="always"
       xlink:href="#linearGradient9"
       id="linearGradient12"
       x1="4.8824315"
       y1="5.8423223"
       x2="9.5814972"
       y2="3.2567029"
       gradientUnits="userSpaceOnUse" />
  </defs>
  <rect
     style="fill:url(#linearGradient2)"
     id="rect1"
     width="16"
     height="16"
     x="0"
     y="0"
     ry="4" />
  <path
     id="path6313"
     style="fill:#3086ff;fill-opacity:1;stroke-width:0.625;stroke-linecap:round;stroke-linejoin:round"
     d="M 8 3 C 6.1421187 3 4.5280346 4.0173878 3.6660156 5.5214844 L 3.6601562 5.5175781 C 3.6344878 5.5617151 3.6100825 5.6056367 3.5859375 5.6503906 C 3.4776041 5.8535601 3.3826215 6.0645351 3.3027344 6.2832031 C 3.2219436 6.5044905 3.1555791 6.7304099 3.1074219 6.9609375 C 3.0719613 7.1286196 3.0455355 7.2992333 3.0273438 7.4726562 C 3.009208 7.6467381 3.0007586 7.8232513 3 8 C 3.00493 9.0796215 3.3494034 10.138414 4 11 C 4.9121792 12.214768 6.363929 13 8 13 C 9.0478656 12.9957 10.067901 12.662295 10.916016 12.046875 C 12.220041 11.110671 12.995257 9.6052836 13 8 C 12.999822 7.6641014 12.965796 7.3290757 12.898438 7 L 11.453125 7 L 10.826172 7 L 8 7 L 8 9 L 10.826172 9 C 10.571992 9.7104606 10.05942 10.299045 9.390625 10.648438 C 8.9623302 10.876345 8.4851492 10.996982 8 11 C 6.9157772 11 5.9645772 10.424357 5.4375 9.5625 C 5.149889 9.0940389 5.0023798 8.5497001 5 8 C 5 7.8879427 5.0075622 7.7768377 5.0195312 7.6679688 C 5.0319745 7.5575452 5.0501691 7.4484114 5.0742188 7.3398438 C 5.0982684 7.2312761 5.1281321 7.1244517 5.1640625 7.0195312 C 5.1649205 7.0170259 5.1651508 7.0142215 5.1660156 7.0117188 C 5.2019453 6.9086243 5.2444986 6.8085602 5.2910156 6.7109375 C 5.7731505 5.6991075 6.804514 5 8 5 C 8.5506554 5.0004876 9.090554 5.1525242 9.5605469 5.4394531 L 11 4 C 10.134519 3.3508894 9.0818511 3 8 3 z " />
  <path
     id="path6313-2"
     style="fill:#0fbc5c;fill-opacity:1;stroke-width:0.625;stroke-linecap:round;stroke-linejoin:round"
     d="M 5.1425781 9.4472656 C 4.5611685 9.4791487 3.4713903 10.299961 4 11 C 4.9121792 12.214768 6.363929 13 8 13 C 9.047866 12.9957 10.067901 12.662295 10.916016 12.046875 C 12.220041 11.110671 10.05942 10.299045 9.390625 10.648438 C 8.9623302 10.876345 8.4851492 10.996982 8 11 C 6.9157772 11 5.9645772 10.424357 5.4375 9.5625 C 5.3835729 9.4746635 5.2767496 9.439908 5.1425781 9.4472656 z " />
  <path
     id="path6313-7"
     style="fill:url(#linearGradient5);fill-opacity:1;stroke-width:0.625;stroke-linecap:round;stroke-linejoin:round"
     d="M 10.826172 9 C 10.794436 9.0887047 10.758343 9.1750891 10.71875 9.2597656 C 10.679132 9.3444965 10.634978 9.4275724 10.587891 9.5078125 C 10.544389 9.5819425 10.498768 9.6546879 10.449219 9.7246094 C 10.448382 9.72579 10.448104 9.7273363 10.447266 9.7285156 C 10.421707 9.7644546 10.39233 9.7972811 10.365234 9.8320312 C 10.337755 9.8672834 10.31222 9.9035218 10.283203 9.9375 C 10.279894 9.941375 10.275305 9.9452363 10.271484 9.9492188 C 10.268758 9.9523763 10.266412 9.9558382 10.263672 9.9589844 C 10.020157 10.238612 9.7250225 10.473741 9.390625 10.648438 C 8.96233 10.876345 8.485149 10.996982 8 11 C 7.2826595 11.605509 7.4988269 11.653649 7.8769531 11.929688 C 8.2292219 12.186849 8.4865804 12.825737 8.8027344 12.931641 C 8.896872 12.915927 8.9910574 12.897988 9.0839844 12.876953 C 9.7411501 12.728195 10.364597 12.447003 10.916016 12.046875 C 11.293756 11.775682 11.627035 11.456869 11.910156 11.101562 C 11.83964 9.9899444 10.826538 9.0003579 10.826172 9 z " />
  <path
     id="path6313-29"
     style="fill:url(#linearGradient8);fill-opacity:1;stroke-width:0.625;stroke-linecap:round;stroke-linejoin:round"
     d="M 4.4375 4.921875 C 4.2255681 4.9258472 4.003092 5.0476972 3.7949219 5.328125 C 3.7533315 5.3935052 3.704633 5.4541029 3.6660156 5.5214844 L 3.6601562 5.5175781 C 3.6344885 5.5617188 3.6100825 5.6056367 3.5859375 5.6503906 C 3.4776041 5.8535601 3.3826215 6.0645351 3.3027344 6.2832031 C 3.2219436 6.5044905 3.1555791 6.7304099 3.1074219 6.9609375 C 3.0719635 7.1286129 3.0455347 7.2992405 3.0273438 7.4726562 C 3.0092079 7.6467382 3.0007586 7.8232513 3 8 C 3.00493 9.0796215 3.3494034 10.138414 4 11 C 4.026139 11.03481 4.0547874 11.067789 4.0839844 11.099609 C 4.0921952 11.108558 4.0994446 11.121469 4.1074219 11.138672 C 4.675231 11.84204 5.4310881 12.389371 6.296875 12.703125 C 6.7178484 11.958973 7.0048915 11.133706 6.953125 10.8125 C 6.925853 10.802352 6.8999369 10.790208 6.8730469 10.779297 C 6.8578919 10.773151 6.8431559 10.766151 6.828125 10.759766 C 6.7187858 10.713286 6.6119935 10.662135 6.5097656 10.603516 C 6.415209 10.549295 6.3240515 10.489634 6.2363281 10.425781 C 6.2077091 10.404963 6.1801857 10.38312 6.1523438 10.361328 C 6.0675255 10.294911 5.9853321 10.225376 5.9082031 10.150391 C 5.8272067 10.071645 5.7514052 9.9877821 5.6796875 9.9003906 C 5.6632305 9.880351 5.6468011 9.8603118 5.6308594 9.8398438 C 5.5616233 9.7509088 5.4965262 9.6590174 5.4375 9.5625 C 5.149889 9.0940389 5.0023798 8.5497001 5 8 C 5.0000009 7.8879497 5.0075611 7.776831 5.0195312 7.6679688 C 5.0319743 7.5575452 5.0501688 7.4484114 5.0742188 7.3398438 C 5.0982687 7.231276 5.1281315 7.1244517 5.1640625 7.0195312 L 5.1640625 7.0175781 C 5.1641387 7.0172333 5.1639909 7.0159718 5.1640625 7.015625 L 5.1660156 7.0136719 L 5.1660156 7.0117188 C 5.2019456 6.9086242 5.2444986 6.8085602 5.2910156 6.7109375 L 5.2929688 6.7089844 C 5.6373769 5.9817533 5.0913233 4.9096203 4.4375 4.921875 z " />
  <path
     id="path6313-5"
     style="fill:url(#linearGradient12);fill-opacity:1;stroke-width:0.625;stroke-linecap:round;stroke-linejoin:round"
     d="M 8,3 C 6.1421187,3 4.5280346,4.0173878 3.6660156,5.5214844 l -0.00586,-0.00391 C 3.7373291,7.028798 4.2928505,6.6509624 5.291013,6.7109399 5.7731505,5.6991075 6.804514,5 8,5 8.5506554,5.0004876 9.090554,5.1525242 9.5605469,5.4394531 L 11,4 C 10.134519,3.3508894 9.0818511,3 8,3 Z"
     sodipodi:nodetypes="sccscccs" />
</svg>
