<?xml version="1.0" encoding="UTF-8" standalone="no"?>
<!-- Created with Inkscape (http://www.inkscape.org/) -->

<svg
   width="24"
   height="24"
   viewBox="0 0 24 24"
   version="1.1"
   id="svg5"
   inkscape:version="1.4.2 (ebf0e940d0, 2025-05-08)"
   sodipodi:docname="preferences-system-symbolic.svg"
   xmlns:inkscape="http://www.inkscape.org/namespaces/inkscape"
   xmlns:sodipodi="http://sodipodi.sourceforge.net/DTD/sodipodi-0.dtd"
   xmlns="http://www.w3.org/2000/svg"
   xmlns:svg="http://www.w3.org/2000/svg">
  <sodipodi:namedview
     id="namedview7"
     pagecolor="#ffffff"
     bordercolor="#666666"
     borderopacity="1.0"
     inkscape:showpageshadow="2"
     inkscape:pageopacity="0.0"
     inkscape:pagecheckerboard="0"
     inkscape:deskcolor="#d1d1d1"
     inkscape:document-units="px"
     showgrid="false"
     showguides="false"
     inkscape:zoom="33.125"
     inkscape:cx="12"
     inkscape:cy="12"
     inkscape:window-width="1920"
     inkscape:window-height="1010"
     inkscape:window-x="0"
     inkscape:window-y="0"
     inkscape:window-maximized="1"
     inkscape:current-layer="svg5" />
  <defs
     id="defs2">
    <style
       id="current-color-scheme"
       type="text/css">
        .ColorScheme-Text { color:#f2f2f2; }
        .ColorScheme-NeutralText { color:#f67400; }
        .ColorScheme-PositiveText { color:#37c837; }
        .ColorScheme-NegativeText { color:#f44336; }
        .ColorScheme-Highlight { color:#3daee9; }
     </style>
  </defs>
  <path
     d="m 16.402868,6.6728984 c 0,0 -0.247347,0.1121433 -0.815321,0.5841759 -0.694601,0.5770773 -1.124746,0.5305555 -1.632908,0.4453625 l -0.004,0.00401 c -0.0968,-0.044202 -0.194665,-0.085603 -0.29396,-0.1227515 v -0.00401 C 13.237025,7.2808252 12.900106,7.0092084 12.816984,6.1099712 12.748984,5.3749114 12.653539,5.1203225 12.653539,5.1203225 12.37663,4.9999615 12.000281,5 12.000281,5 c 0,0 -0.376452,3.85e-5 -0.65315,0.120424 0,0 -0.0957,0.2543754 -0.163523,0.9895682 -0.0831,0.8991952 -0.420215,1.1707032 -0.839675,1.4697104 l -7e-4,0.00501 c -0.0992,0.0371 -0.196786,0.078603 -0.293939,0.1227445 l -0.004,-0.00397 C 9.53717,7.7887888 9.106868,7.8350414 8.412236,7.2580125 7.844472,6.7862707 7.596953,6.6738371 7.596953,6.6738371 7.316685,6.7839117 7.05063,7.0499662 7.05063,7.0499662 c 0,0 -0.266178,0.2661778 -0.376693,0.547048 0,0 0.112395,0.2475854 0.584116,0.8153323 0.577067,0.6945897 0.530626,1.1250737 0.445496,1.6330365 l 0.004,0.004 c -0.044,0.0969 -0.0856,0.194694 -0.122874,0.293838 h -0.004 C 7.281895,10.762922 7.010258,11.099844 6.11109,11.183057 5.376052,11.250957 5.121295,11.346719 5.121295,11.346719 5.001021,11.623729 5.001,11.99954 5.001,11.99954 c 0,0 1.99e-4,0.37662 0.120494,0.653276 0,0 0.254316,0.09581 0.989498,0.163407 0.899147,0.0832 1.170343,0.420541 1.46956,0.839832 h 0.004 c 0.0372,0.09931 0.0787,0.196958 0.122716,0.293988 l -0.004,0.004 c 0.0855,0.508097 0.131672,0.938329 -0.445335,1.632887 -0.471721,0.567887 -0.584186,0.815784 -0.584186,0.815784 0.110925,0.280849 0.376711,0.546635 0.376711,0.546635 0,0 0.266268,0.266278 0.547044,0.376703 0,0 0.247497,-0.112024 0.815234,-0.584067 0.694652,-0.576987 1.125014,-0.530245 1.633026,-0.445433 l 0.004,-0.004 c 0.0972,0.0441 0.194725,0.0857 0.293988,0.122724 l -7e-4,0.005 c 0.419754,0.298835 0.756613,0.570413 0.839836,1.469553 0.0679,0.735081 0.163593,0.989915 0.163593,0.989915 0.27703,0.120056 0.652929,0.120234 0.652929,0.120234 0,0 0.376623,-1.01e-4 0.653171,-0.120644 0,0 0.0958,-0.254074 0.163505,-0.989386 0.0832,-0.899136 0.42066,-1.170455 0.839731,-1.469623 l -7e-4,-0.005 c 0.0992,-0.0371 0.196877,-0.0788 0.29396,-0.122762 l 0.004,0.004 c 0.508076,-0.08551 0.938287,-0.131645 1.632918,0.44539 0.567765,0.471735 0.815634,0.58426 0.815634,0.58426 0.280898,-0.111034 0.546715,-0.376843 0.546715,-0.376843 0,0 0.266265,-0.266265 0.376721,-0.547076 0,0 -0.112035,-0.247516 -0.584179,-0.815283 C 16.16382,14.892421 16.21059,14.462 16.295521,13.954075 l -0.004,-0.004 c 0.04411,-0.0972 0.0857,-0.194725 0.122745,-0.293939 h 0.006 c 0.298839,-0.419631 0.570448,-0.75654 1.469622,-0.839762 0.735141,-0.0679 0.989996,-0.163635 0.989996,-0.163635 0.120015,-0.277031 0.120046,-0.652999 0.120046,-0.652999 0,0 -6.3e-5,-0.376452 -0.120337,-0.653259 0,0 -0.254414,-0.0957 -0.989635,-0.163445 -0.899223,-0.0831 -1.170573,-0.420233 -1.469724,-0.839675 h -0.004 c -0.0371,-0.0992 -0.07841,-0.196944 -0.122755,-0.293946 l 0.004,-0.004 C 16.212179,9.5375009 16.165782,9.1071285 16.742814,8.4124865 17.214556,7.8447224 17.327189,7.5969443 17.327189,7.5969443 17.216355,7.3161543 16.9503,7.050096 16.9503,7.050096 c 0,0 -0.266279,-0.2662543 -0.547086,-0.3767106 z m -2.087829,7.6416096 c -1.278565,1.278555 -3.351425,1.278576 -4.629994,2.1e-5 -1.278566,-1.27857 -1.278545,-3.351429 2.1e-5,-4.6299944 1.278538,-1.2785378 3.351397,-1.2785551 4.629963,1.03e-5 1.278566,1.2785551 1.278548,3.3514251 1e-5,4.6299631 z"
     style="fill:currentColor"
     class="ColorScheme-Text"
     id="path429" />
</svg>
