<?xml version="1.0" encoding="UTF-8" standalone="no"?>
<!-- Created with Inkscape (http://www.inkscape.org/) -->

<svg
   width="24"
   height="24"
   viewBox="0 0 24 24"
   version="1.1"
   id="svg1"
   inkscape:version="1.4 (e7c3feb100, 2024-10-09)"
   sodipodi:docname="applications-all-symbolic.svg"
   xmlns:inkscape="http://www.inkscape.org/namespaces/inkscape"
   xmlns:sodipodi="http://sodipodi.sourceforge.net/DTD/sodipodi-0.dtd"
   xmlns="http://www.w3.org/2000/svg"
   xmlns:svg="http://www.w3.org/2000/svg">
  <sodipodi:namedview
     id="namedview1"
     pagecolor="#ffffff"
     bordercolor="#000000"
     borderopacity="0.25"
     inkscape:showpageshadow="2"
     inkscape:pageopacity="0.0"
     inkscape:pagecheckerboard="0"
     inkscape:deskcolor="#d1d1d1"
     inkscape:document-units="px"
     showguides="false"
     inkscape:zoom="32.75"
     inkscape:cx="12.015267"
     inkscape:cy="12"
     inkscape:window-width="1920"
     inkscape:window-height="1011"
     inkscape:window-x="0"
     inkscape:window-y="0"
     inkscape:window-maximized="1"
     inkscape:current-layer="svg1" />
  <defs
     id="defs1">
    <style
       id="current-color-scheme"
       type="text/css">
         .ColorScheme-Text { color:#363636; }
     </style>
  </defs>
  <path
     id="rect1"
     style="fill:currentColor;stroke-width:1.16667"
     class="ColorScheme-Text"
     d="M 6,4 C 4.892,4 4,4.892 4,6 v 3 c 0,1.108 0.892,2 2,2 h 3 c 1.108,0 2,-0.892 2,-2 V 6 C 11,4.892 10.108,4 9,4 Z m 8,0 c -1.108,0 -2,0.892 -2,2 v 3 c 0,1.108 0.892,2 2,2 h 3 c 1.108,0 2,-0.892 2,-2 V 6 C 19,4.892 18.108,4 17,4 Z M 6,5 h 3 c 0.554,0 1,0.446 1,1 v 3 c 0,0.554 -0.446,1 -1,1 H 6 C 5.446,10 5,9.554 5,9 V 6 C 5,5.446 5.446,5 6,5 Z m 8,0 h 3 c 0.554,0 1,0.446 1,1 v 3 c 0,0.554 -0.446,1 -1,1 H 14 C 13.446,10 13,9.554 13,9 V 6 c 0,-0.554 0.446,-1 1,-1 z m -8,7 c -1.108,0 -2,0.892 -2,2 v 3 c 0,1.108 0.892,2 2,2 h 3 c 1.108,0 2,-0.892 2,-2 v -3 c 0,-1.108 -0.892,-2 -2,-2 z m 8,0 c -1.108,0 -2,0.892 -2,2 v 3 c 0,1.108 0.892,2 2,2 h 3 c 1.108,0 2,-0.892 2,-2 v -3 c 0,-1.108 -0.892,-2 -2,-2 z m -8,1 h 3 c 0.554,0 1,0.446 1,1 v 3 c 0,0.554 -0.446,1 -1,1 H 6 C 5.446,18 5,17.554 5,17 v -3 c 0,-0.554 0.446,-1 1,-1 z m 8,0 h 3 c 0.554,0 1,0.446 1,1 v 3 c 0,0.554 -0.446,1 -1,1 h -3 c -0.554,0 -1,-0.446 -1,-1 v -3 c 0,-0.554 0.446,-1 1,-1 z" />
</svg>
