<?xml version="1.0" encoding="UTF-8" standalone="no"?>
<!-- Created with Inkscape (http://www.inkscape.org/) -->

<svg
   width="24"
   height="24"
   viewBox="0 0 24 24.000002"
   version="1.1"
   id="svg1"
   inkscape:version="1.4.2 (ebf0e940d0, 2025-05-08)"
   sodipodi:docname="cs-user-accounts.svg"
   xmlns:inkscape="http://www.inkscape.org/namespaces/inkscape"
   xmlns:sodipodi="http://sodipodi.sourceforge.net/DTD/sodipodi-0.dtd"
   xmlns:xlink="http://www.w3.org/1999/xlink"
   xmlns="http://www.w3.org/2000/svg"
   xmlns:svg="http://www.w3.org/2000/svg">
  <sodipodi:namedview
     id="namedview1"
     pagecolor="#ffffff"
     bordercolor="#000000"
     borderopacity="0.25"
     inkscape:showpageshadow="2"
     inkscape:pageopacity="0.0"
     inkscape:pagecheckerboard="0"
     inkscape:deskcolor="#d1d1d1"
     inkscape:document-units="px"
     inkscape:zoom="33.166667"
     inkscape:cx="12"
     inkscape:cy="12"
     inkscape:window-width="1920"
     inkscape:window-height="1010"
     inkscape:window-x="0"
     inkscape:window-y="0"
     inkscape:window-maximized="1"
     inkscape:current-layer="svg1" />
  <defs
     id="defs1">
    <linearGradient
       inkscape:collect="always"
       xlink:href="#linearGradient3147"
       id="linearGradient4"
       x1="16"
       y1="30"
       x2="16"
       y2="2"
       gradientUnits="userSpaceOnUse"
       gradientTransform="matrix(0.71428571,0,0,0.71428571,0.57142857,0.57142857)" />
    <linearGradient
       inkscape:collect="always"
       id="linearGradient3147">
      <stop
         style="stop-color:#0091f9;stop-opacity:1;"
         offset="0"
         id="stop3143" />
      <stop
         style="stop-color:#41bbff;stop-opacity:1;"
         offset="1"
         id="stop3145" />
    </linearGradient>
  </defs>
  <rect
     style="opacity:0.2;fill:#000000;stroke-width:1.75"
     id="rect1"
     width="20"
     height="20"
     x="2"
     y="2.5"
     ry="4" />
  <rect
     style="fill:url(#linearGradient4);stroke-width:0.714286"
     id="rect2"
     width="20"
     height="20"
     x="2"
     y="2"
     ry="4" />
  <path
     id="path905"
     style="fill:#ffffff;stroke-width:0.7905"
     d="M 14,5 C 12.973686,5 12.068244,5.5147167 11.527344,6.3007812 12.979346,6.9004855 14,8.3307909 14,10 14,10.344408 13.95676,10.679225 13.875,10.998047 13.916531,10.99975 13.958048,11 14,11 15.657496,11 17,9.657497 17,8 17,6.3425035 15.657496,5 14,5 Z m -4,2 c -1.6568513,0 -3,1.3432535 -3,3 0,1.657497 1.3425037,3 3,3 1.657496,0 3,-1.342503 3,-3 0,-1.6574965 -1.342504,-3 -3,-3 z m 4,5 c -0.186827,1.34e-4 -0.367595,0.0042 -0.542969,0.01367 -0.286868,0.491366 -0.675105,0.916923 -1.136719,1.246094 2.609335,0.641348 3.762593,2.35188 4.273438,3.740234 H 20 c 0,0 -1.2e-5,-5.003334 -6,-5 z m -4,2 C 3.999712,14.0043 4,18.998047 4,18.998047 L 16,19 c 0,0 -1.2e-5,-5.003334 -6,-5 z" />
</svg>
