<?xml version="1.0" encoding="UTF-8" standalone="no"?>
<!-- Created with Inkscape (http://www.inkscape.org/) -->

<svg
   width="24"
   height="24"
   viewBox="0 0 24 24.000002"
   version="1.1"
   id="svg1"
   inkscape:version="1.4.2 (ebf0e940d0, 2025-05-08)"
   sodipodi:docname="qt.svg"
   xmlns:inkscape="http://www.inkscape.org/namespaces/inkscape"
   xmlns:sodipodi="http://sodipodi.sourceforge.net/DTD/sodipodi-0.dtd"
   xmlns:xlink="http://www.w3.org/1999/xlink"
   xmlns="http://www.w3.org/2000/svg"
   xmlns:svg="http://www.w3.org/2000/svg">
  <sodipodi:namedview
     id="namedview1"
     pagecolor="#ffffff"
     bordercolor="#000000"
     borderopacity="0.25"
     inkscape:showpageshadow="2"
     inkscape:pageopacity="0.0"
     inkscape:pagecheckerboard="0"
     inkscape:deskcolor="#d1d1d1"
     inkscape:document-units="px"
     inkscape:zoom="33.708333"
     inkscape:cx="12"
     inkscape:cy="12"
     inkscape:window-width="1920"
     inkscape:window-height="1011"
     inkscape:window-x="0"
     inkscape:window-y="0"
     inkscape:window-maximized="1"
     inkscape:current-layer="svg1" />
  <defs
     id="defs1">
    <linearGradient
       inkscape:collect="always"
       xlink:href="#linearGradient3017"
       id="linearGradient4"
       x1="16"
       y1="30"
       x2="16"
       y2="2"
       gradientUnits="userSpaceOnUse"
       gradientTransform="matrix(0.71428571,0,0,0.71428571,0.57142859,0.57142857)" />
    <linearGradient
       inkscape:collect="always"
       id="linearGradient3017">
      <stop
         style="stop-color:#26bc25;stop-opacity:1;"
         offset="0"
         id="stop3013" />
      <stop
         style="stop-color:#65df47;stop-opacity:1;"
         offset="1"
         id="stop3015" />
    </linearGradient>
  </defs>
  <rect
     style="opacity:0.2;fill:#000000;stroke-width:1.75"
     id="rect1"
     width="20"
     height="20"
     x="2"
     y="2.5"
     ry="4" />
  <rect
     style="fill:url(#linearGradient4);stroke-width:0.714286"
     id="rect2"
     width="20"
     height="20"
     x="2"
     y="2"
     ry="4" />
  <path
     d="M 9.5175782,7 C 6.7382681,7 6,8.5 6,11.5 6,14.5 6.7252781,16 9.5175782,16 h 0.7929688 l 1.15625,2 1.337891,-0.5 -1.091797,-2 C 12.751886,15 13,13.5 13,11.5 13,8.5 12.296888,7 9.5175782,7 Z M 15,7 v 2 h -1 v 0.9999996 h 1 V 13.5 c 0,2 0.467967,2.5 1.935547,2.5 h 1.095703 l -0.0625,-1 H 16.730469 C 16.055118,15 16,14.5 16,13.5 V 9.9999996 h 2 V 9 H 16 V 7 Z M 9.5078126,8 C 11.52615,8 12.000005,9.1666667 12,11.5 12,13.833333 11.541444,15 9.5078126,15 7.4741812,15 7,13.833333 7,11.5 7,9.1666667 7.489475,8 9.5078126,8 Z"
     style="fill:#ffffff"
     id="path1746"
     sodipodi:nodetypes="sssccccsscccccssccssccccccscsss" />
</svg>
