<?xml version="1.0" encoding="UTF-8" standalone="no"?>
<!-- Created with Inkscape (http://www.inkscape.org/) -->

<svg
   width="24"
   height="24"
   viewBox="0 0 24 24.000002"
   version="1.1"
   id="svg1"
   inkscape:version="1.4.2 (ebf0e940d0, 2025-05-08)"
   sodipodi:docname="qtcreator.svg"
   xmlns:inkscape="http://www.inkscape.org/namespaces/inkscape"
   xmlns:sodipodi="http://sodipodi.sourceforge.net/DTD/sodipodi-0.dtd"
   xmlns:xlink="http://www.w3.org/1999/xlink"
   xmlns="http://www.w3.org/2000/svg"
   xmlns:svg="http://www.w3.org/2000/svg">
  <sodipodi:namedview
     id="namedview1"
     pagecolor="#ffffff"
     bordercolor="#000000"
     borderopacity="0.25"
     inkscape:showpageshadow="2"
     inkscape:pageopacity="0.0"
     inkscape:pagecheckerboard="0"
     inkscape:deskcolor="#d1d1d1"
     inkscape:document-units="px"
     inkscape:zoom="33.708333"
     inkscape:cx="12"
     inkscape:cy="12"
     inkscape:window-width="1920"
     inkscape:window-height="1011"
     inkscape:window-x="0"
     inkscape:window-y="0"
     inkscape:window-maximized="1"
     inkscape:current-layer="svg1" />
  <defs
     id="defs1">
    <linearGradient
       inkscape:collect="always"
       xlink:href="#linearGradient2833"
       id="linearGradient4"
       x1="16"
       y1="30"
       x2="16"
       y2="2"
       gradientUnits="userSpaceOnUse"
       gradientTransform="matrix(0.71428571,0,0,0.71428571,0.57142859,0.57142857)" />
    <linearGradient
       inkscape:collect="always"
       id="linearGradient2833">
      <stop
         style="stop-color:#38b517;stop-opacity:1;"
         offset="0"
         id="stop2829" />
      <stop
         style="stop-color:#97e527;stop-opacity:1;"
         offset="1"
         id="stop2831" />
    </linearGradient>
  </defs>
  <rect
     style="opacity:0.2;fill:#000000;stroke-width:1.75"
     id="rect1"
     width="20"
     height="20"
     x="2"
     y="2.5"
     ry="4" />
  <rect
     style="fill:url(#linearGradient4);stroke-width:0.714286"
     id="rect2"
     width="20"
     height="20"
     x="2"
     y="2"
     ry="4" />
  <path
     id="rect371"
     style="opacity:0.2;fill:#000000;stroke-width:3;stroke-linecap:round;stroke-linejoin:round"
     d="m 2,9 v 9 c 0,2.216 1.784,4 4,4 h 12 c 2.216,0 4,-1.784 4,-4 v -2 z" />
  <path
     id="path440"
     style="fill:#ffffff"
     d="M 8.25,6.9999995 C 6.4495022,6.9999995 5,8.4495013 5,10.25 v 2.5 C 5,14.550497 6.4495022,16 8.25,16 h 0.5 c 0.1444789,0 0.2844373,-0.0112 0.4238281,-0.0293 l 1.0371099,1.552737 0.820312,-0.408203 -0.896484,-1.304688 C 11.633814,14.997032 12,13.865235 12,12.75 v -2.5 C 12,8.4495013 10.550498,6.9999995 8.75,6.9999995 Z m 8.75,0 c -1.800498,0 -3,1.1995018 -3,3 V 13 c 0,1.800497 1.199502,3 3,3 h 2 V 15 H 16.75 C 15.754555,15 15,14.245445 15,13.25 V 9.7499998 C 15,8.7545546 15.754555,7.9998402 16.75,7.9999995 H 19 v -1 z M 8.1875,8.0332026 h 0.625 c 1.244306,0 2.1875,0.8816156 2.1875,2.0429694 v 2.916015 c 0,1.161351 -0.943194,2.041015 -2.1875,2.041015 H 8.1875 C 6.9431943,15.033203 6,14.153539 6,12.992188 V 10.076171 C 6,8.9148182 6.9431942,8.0332026 8.1875,8.0332026 Z" />
</svg>
