<?xml version="1.0" encoding="UTF-8" standalone="no"?>
<!-- Created with Inkscape (http://www.inkscape.org/) -->

<svg
   width="24"
   height="24"
   viewBox="0 0 24 24.000002"
   version="1.1"
   id="svg1"
   inkscape:version="1.4.3 (0d15f75042, 2025-12-25)"
   sodipodi:docname="vim.svg"
   xmlns:inkscape="http://www.inkscape.org/namespaces/inkscape"
   xmlns:sodipodi="http://sodipodi.sourceforge.net/DTD/sodipodi-0.dtd"
   xmlns:xlink="http://www.w3.org/1999/xlink"
   xmlns="http://www.w3.org/2000/svg"
   xmlns:svg="http://www.w3.org/2000/svg">
  <sodipodi:namedview
     id="namedview1"
     pagecolor="#ffffff"
     bordercolor="#000000"
     borderopacity="0.25"
     inkscape:showpageshadow="2"
     inkscape:pageopacity="0.0"
     inkscape:pagecheckerboard="0"
     inkscape:deskcolor="#d1d1d1"
     inkscape:document-units="px"
     inkscape:zoom="24.208333"
     inkscape:cx="11.979346"
     inkscape:cy="12"
     inkscape:window-width="1440"
     inkscape:window-height="832"
     inkscape:window-x="0"
     inkscape:window-y="0"
     inkscape:window-maximized="1"
     inkscape:current-layer="svg1"
     showguides="false" />
  <defs
     id="defs1">
    <linearGradient
       inkscape:collect="always"
       id="linearGradient6">
      <stop
         style="stop-color:#bbe88b;stop-opacity:1;"
         offset="0"
         id="stop5" />
      <stop
         style="stop-color:#c7f3b4;stop-opacity:1;"
         offset="1"
         id="stop6" />
    </linearGradient>
    <linearGradient
       inkscape:collect="always"
       id="linearGradient4">
      <stop
         style="stop-color:#3c8024;stop-opacity:1;"
         offset="0"
         id="stop3" />
      <stop
         style="stop-color:#70cf6a;stop-opacity:1;"
         offset="1"
         id="stop4" />
    </linearGradient>
    <linearGradient
       inkscape:collect="always"
       xlink:href="#linearGradient6"
       id="linearGradient8"
       x1="11"
       y1="21"
       x2="11"
       y2="1"
       gradientUnits="userSpaceOnUse"
       gradientTransform="translate(1,1)" />
    <linearGradient
       inkscape:collect="always"
       xlink:href="#linearGradient4"
       id="linearGradient10"
       x1="22.627417"
       y1="7.0710678"
       x2="8.485281"
       y2="-7.0710678"
       gradientUnits="userSpaceOnUse"
       gradientTransform="translate(1.4142136)" />
  </defs>
  <rect
     style="opacity:0.2;fill:#000000;stroke-width:1.75"
     id="rect1"
     width="20"
     height="20"
     x="2"
     y="2.5"
     ry="4" />
  <rect
     style="fill:url(#linearGradient8);fill-opacity:1;stroke-width:0.714286"
     id="rect2"
     width="20"
     height="20"
     x="2"
     y="2"
     ry="4" />
  <rect
     style="opacity:1;fill:url(#linearGradient10);stroke:none;stroke-width:2;stroke-linecap:square;stroke-linejoin:miter;stroke-dasharray:none;stroke-opacity:1;paint-order:stroke fill markers"
     id="rect3"
     width="10"
     height="10"
     x="11.970562"
     y="-5"
     ry="1"
     transform="rotate(45)" />
  <path
     id="path1"
     style="fill:#ffffff;stroke:none;stroke-linecap:round;stroke-linejoin:round;paint-order:stroke fill markers"
     d="M 7.5,7 C 7.2230003,7 7,7.2230003 7,7.5 7,7.7769997 7.2230003,8 7.5,8 H 8 V 8.5 16 c 10e-4,0.910838 1.1198606,1.3463 1.7363281,0.675781 L 17.853516,7.8535156 C 17.943886,7.7631406 18,7.6384999 18,7.5 18,7.2230003 17.777,7 17.5,7 h -3 C 14.223,7 14,7.2230003 14,7.5 14,7.7769997 14.223,8 14.5,8 h 0.478516 L 10,13.429688 V 8.5 8 h 0.5 C 10.777,8 11,7.7769997 11,7.5 11,7.2230003 10.777,7 10.5,7 Z" />
</svg>
