<?xml version="1.0" encoding="UTF-8" standalone="no"?>
<svg
   width="22"
   height="22"
   version="1.1"
   id="svg1"
   sodipodi:docname="applications-graphics-symbolic.svg"
   inkscape:version="1.4 (e7c3feb100, 2024-10-09)"
   xmlns:inkscape="http://www.inkscape.org/namespaces/inkscape"
   xmlns:sodipodi="http://sodipodi.sourceforge.net/DTD/sodipodi-0.dtd"
   xmlns="http://www.w3.org/2000/svg"
   xmlns:svg="http://www.w3.org/2000/svg">
  <defs
     id="defs1" />
  <sodipodi:namedview
     id="namedview1"
     pagecolor="#ffffff"
     bordercolor="#000000"
     borderopacity="0.25"
     inkscape:showpageshadow="2"
     inkscape:pageopacity="0.0"
     inkscape:pagecheckerboard="0"
     inkscape:deskcolor="#d1d1d1"
     inkscape:zoom="36.727273"
     inkscape:cx="10.986386"
     inkscape:cy="11"
     inkscape:window-width="1920"
     inkscape:window-height="1011"
     inkscape:window-x="0"
     inkscape:window-y="0"
     inkscape:window-maximized="1"
     inkscape:current-layer="svg1" />
  <g
     fill="#363636"
     stroke-linecap="round"
     stroke-linejoin="round"
     stroke-width="2"
     style="paint-order:stroke fill markers"
     aria-label=""
     id="g1"
     transform="translate(2.999993,3)">
    <path
       d="m 8,0 q 1.1016,0 2.125,0.28906 1.0234,0.28125 1.9141,0.80469 0.89062,0.51562 1.6172,1.25 0.73438,0.72656 1.25,1.6172 0.52344,0.89062 0.80469,1.9141 0.28906,1.0234 0.28906,2.125 0,1.1016 -0.28906,2.125 -0.28125,1.0234 -0.80469,1.9141 -0.51562,0.89062 -1.25,1.625 -0.72656,0.72656 -1.6172,1.25 -0.89062,0.51562 -1.9141,0.80469 -1.0234,0.28125 -2.125,0.28125 -0.41406,0 -0.78125,-0.15625 Q 6.85937,15.67978 6.58594,15.41415 6.32032,15.14071 6.15625,14.78134 6,14.41415 6,14.00009 q 0,-0.38281 0.070312,-0.66406 0.078125,-0.28906 0.1875,-0.52344 0.109375,-0.23438 0.24219,-0.4375 0.132815,-0.20312 0.24219,-0.40625 0.10938,-0.21094 0.17969,-0.4375 0.078125,-0.23438 0.078125,-0.53125 0,-0.40625 -0.16406,-0.77344 Q 6.679697,9.85946 6.406257,9.59384 6.140637,9.3204 5.773447,9.16415 5.406257,9.00009 5.000007,9.00009 q -0.29688,0 -0.53125,0.078125 -0.22656,0.070312 -0.4375,0.17969 -0.20312,0.10938 -0.40625,0.24219 -0.20313,0.13281 -0.4375,0.24219 -0.23437,0.10938 -0.52344,0.1875 -0.28906,0.070312 -0.66406,0.070312 -0.41406,0 -0.78125,-0.15625 Q 0.859377,9.679787 0.585947,9.414157 0.320327,9.140717 0.156257,8.781347 7e-6,8.414157 7e-6,8.000097 q 0,-1.1016 0.28125,-2.125 0.28906,-1.0234 0.80469,-1.9141 0.52344,-0.89062 1.25,-1.6172 0.73438,-0.73438 1.625,-1.25 0.89062,-0.52344 1.9062,-0.80469 1.0234,-0.28906 2.1328,-0.28906 z m 0,15 q 0.96094,0 1.8516,-0.25 0.89844,-0.25 1.6719,-0.70312 0.78125,-0.46094 1.4219,-1.1016 0.64065,-0.64066 1.0938,-1.4141 0.46094,-0.78125 0.71094,-1.6719 0.25,-0.89844 0.25,-1.8594 0,-0.96096 -0.25,-1.8516 -0.25,-0.89844 -0.71094,-1.6719 Q 13.58608,3.69513 12.9454,3.05448 12.30472,2.41383 11.5235,1.96068 10.75006,1.49974 9.8516,1.24974 8.96098,0.99974 8,0.99974 q -0.96098,0 -1.8594,0.25 -0.89062,0.25 -1.6719,0.71094 Q 3.69526,2.4138 3.0546,3.05448 2.41394,3.69516 1.953,4.47638 1.49988,5.24982 1.24988,6.14828 q -0.25,0.89062 -0.25,1.8516 0,0.21094 0.078125,0.39062 0.078125,0.17968 0.21094,0.32031 0.14062,0.13281 0.32031,0.21094 0.17969,0.07813 0.39062,0.078125 0.29688,0 0.52344,-0.070312 0.23438,-0.078125 0.4375,-0.1875 0.21094,-0.10938 0.40625,-0.24219 0.20312,-0.13281 0.42969,-0.24219 0.23438,-0.10938 0.52344,-0.17969 0.28906,-0.078125 0.67969,-0.078125 0.625,0 1.1719,0.23438 0.5469,0.23438 0.95312,0.64062 0.40622,0.40624 0.64062,0.95312 0.2344,0.54688 0.23438,1.1719 0,0.38281 -0.078125,0.67969 -0.070312,0.28906 -0.17969,0.52344 -0.10938,0.22656 -0.24219,0.42969 -0.13281,0.19531 -0.24219,0.40625 -0.10938,0.20312 -0.1875,0.4375 -0.070312,0.22656 -0.070312,0.52344 0,0.21094 0.078125,0.39062 0.078125,0.17969 0.21094,0.32031 0.14062,0.13281 0.32031,0.21094 0.17969,0.07813 0.39062,0.07813 z M 4,5 q 0.21094,0 0.39062,0.078125 0.17968,0.078125 0.3125,0.21875 0.14062,0.13281 0.21875,0.3125 Q 5,5.789065 4.999995,5.999995 4.99999,6.210925 4.92187,6.390615 4.84375,6.570305 4.70312,6.710925 4.57031,6.843735 4.39062,6.921865 4.21093,6.999995 4,6.99999 3.78907,6.999985 3.60938,6.921865 3.42969,6.843745 3.28907,6.710925 3.15626,6.570305 3.07813,6.390615 3,6.210925 3.000005,5.999995 3.00001,5.789065 3.07813,5.609375 3.15625,5.429685 3.28907,5.296875 3.42969,5.156255 3.60938,5.078125 3.78907,4.999995 4,5 Z M 7,3 q 0.21094,0 0.39062,0.078125 0.17968,0.078125 0.3125,0.21875 0.14062,0.13281 0.21875,0.3125 Q 8,3.789065 7.999995,3.999995 7.99999,4.210925 7.92187,4.390615 7.84375,4.570305 7.70312,4.710925 7.57031,4.843735 7.39062,4.921865 7.21093,4.999995 7,4.99999 6.78907,4.999985 6.60938,4.921865 6.42969,4.843745 6.28907,4.710925 6.15626,4.570305 6.07813,4.390615 6,4.210925 6.000005,3.999995 6.00001,3.789065 6.07813,3.609375 6.15625,3.429685 6.28907,3.296875 6.42969,3.156255 6.60938,3.078125 6.78907,2.999995 7,3 Z m 4,3 Q 10.78906,6 10.60938,5.921875 10.42969,5.84375 10.28907,5.710935 10.15626,5.570315 10.07813,5.390625 10,5.210935 10.000005,5.000005 q 5e-6,-0.21093 0.07813,-0.39062 0.07812,-0.17969 0.21094,-0.3125 0.14062,-0.14062 0.32031,-0.21875 Q 10.78907,4.00001 11,4.00001 q 0.21094,0 0.39062,0.078125 0.17969,0.078125 0.3125,0.21875 0.14062,0.13281 0.21875,0.3125 Q 12,4.789075 12,5.000005 q -5e-6,0.21093 -0.07813,0.39062 -0.07812,0.17969 -0.21875,0.32031 -0.13281,0.13281 -0.3125,0.21094 Q 11.21093,6 11,6 Z m 1,2 q 0.21094,0 0.39062,0.078125 0.17969,0.078125 0.3125,0.21875 0.14062,0.13281 0.21875,0.3125 Q 13,8.789065 13,8.999995 q -5e-6,0.21093 -0.07813,0.39062 -0.07812,0.17969 -0.21875,0.32031 -0.13281,0.13281 -0.3125,0.21094 Q 12.21093,9.99999 12,9.99999 q -0.21094,0 -0.39062,-0.078125 Q 11.42969,9.84374 11.28907,9.710925 11.15626,9.570305 11.07813,9.390615 11,9.210925 11.000005,8.999995 q 5e-6,-0.21093 0.07813,-0.39062 0.07812,-0.17969 0.21094,-0.3125 0.14062,-0.14062 0.32031,-0.21875 Q 11.78907,8 12,8 Z m -2,3 q 0.21094,0 0.39062,0.07813 0.17969,0.07813 0.3125,0.21875 0.14062,0.13281 0.21875,0.3125 Q 11,11.78906 11,12 q 0,0.21094 -0.07813,0.39062 -0.07813,0.17969 -0.21875,0.32031 -0.13281,0.13281 -0.3125,0.21094 Q 10.21094,13 10,13 9.78906,13 9.60938,12.92187 9.4297,12.84374 9.28907,12.71093 9.156255,12.57031 9.078125,12.39062 9,12.21093 9,12 9,11.78906 9.078125,11.60938 9.15625,11.42969 9.289065,11.29688 9.429685,11.15626 9.609375,11.07813 9.789065,11 9.999995,11.000005 Z"
       stroke-width="2"
       id="path1" />
  </g>
</svg>
