<?xml version="1.0" encoding="UTF-8" standalone="no"?>
<svg
   width="22"
   height="22"
   version="1.1"
   id="svg2"
   sodipodi:docname="applications-utilities-symbolic.svg"
   inkscape:version="1.4 (e7c3feb100, 2024-10-09)"
   xmlns:inkscape="http://www.inkscape.org/namespaces/inkscape"
   xmlns:sodipodi="http://sodipodi.sourceforge.net/DTD/sodipodi-0.dtd"
   xmlns="http://www.w3.org/2000/svg"
   xmlns:svg="http://www.w3.org/2000/svg">
  <defs
     id="defs2" />
  <sodipodi:namedview
     id="namedview2"
     pagecolor="#ffffff"
     bordercolor="#000000"
     borderopacity="0.25"
     inkscape:showpageshadow="2"
     inkscape:pageopacity="0.0"
     inkscape:pagecheckerboard="0"
     inkscape:deskcolor="#d1d1d1"
     inkscape:zoom="36.727273"
     inkscape:cx="10.986386"
     inkscape:cy="11"
     inkscape:window-width="1920"
     inkscape:window-height="1011"
     inkscape:window-x="0"
     inkscape:window-y="0"
     inkscape:window-maximized="1"
     inkscape:current-layer="svg2" />
  <g
     transform="translate(-809,-440.95)"
     fill="#363636"
     id="g2">
    <path
       transform="translate(812,443.95)"
       d="M 2.9336,0 C 1.3082,0 0,1.3321 0,2.9863 v 10.027 c 0,1.6542 1.3082,2.9863 2.9336,2.9863 h 0.13281 c 1.6254,0 2.9336,-1.3321 2.9336,-2.9863 V 2.9863 C 6.00001,1.3321 4.69181,0 3.06641,0 Z m 0.066406,1 c 1.108,0 2,0.892 2,2 v 10 c 0,1.108 -0.892,2 -2,2 -1.108,0 -2,-0.892 -2,-2 V 3 c 0,-1.108 0.892,-2 2,-2 z"
       id="path1" />
    <path
       d="m 817.408,443.948 c 0.878,0.713 1.469,1.792 1.469,3 v 1 h 2.125 c -0.074,-1.093 1.249,-2 2,-2 0.68,0 1,0.011 1,1 v 1 h 1.219 c 1.228,-0.6 1.78,-1.97 1.78,-2.688 0,-0.736 -2.385,-1.312 -3.687,-1.312 z m 1.594,5 v 4.313 c 2.766,2.661 6.125,2.406 6.125,2.406 0,0 0.353,-1.52 -1.906,-4.031 l -2.375,-2.688 h -1.782 c -0.02,0.002 -0.04,-0.002 -0.062,0 z m 2.975,2.532 1.683,1.737 c -1.799,0.165 -2.15,-0.856 -1.683,-1.737 z"
       overflow="visible"
       id="path2" />
  </g>
</svg>
