<?xml version="1.0" encoding="UTF-8" standalone="no"?>
<svg
   height="22"
   width="22"
   version="1.1"
   id="svg1"
   sodipodi:docname="applications-education-symbolic.svg"
   inkscape:version="1.4 (e7c3feb100, 2024-10-09)"
   xmlns:inkscape="http://www.inkscape.org/namespaces/inkscape"
   xmlns:sodipodi="http://sodipodi.sourceforge.net/DTD/sodipodi-0.dtd"
   xmlns="http://www.w3.org/2000/svg"
   xmlns:svg="http://www.w3.org/2000/svg">
  <defs
     id="defs1" />
  <sodipodi:namedview
     id="namedview1"
     pagecolor="#ffffff"
     bordercolor="#000000"
     borderopacity="0.25"
     inkscape:showpageshadow="2"
     inkscape:pageopacity="0.0"
     inkscape:pagecheckerboard="0"
     inkscape:deskcolor="#d1d1d1"
     inkscape:zoom="36.727273"
     inkscape:cx="10.986386"
     inkscape:cy="11"
     inkscape:window-width="1920"
     inkscape:window-height="1011"
     inkscape:window-x="0"
     inkscape:window-y="0"
     inkscape:window-maximized="1"
     inkscape:current-layer="svg1" />
  <path
     d="m 11.229,4.0840748 -4.006,3 a 0.5,0.5 0 0 0 0.277,0.916 H 8 V 10.000075 H 4.5 c -0.277,0 -0.5,0.223 -0.5,0.5 v 6 c 0,0.277 0.223,0.5 0.5,0.5 h 5 c 0.277,0 0.5,-0.223 0.5,-0.5 v -2.5 c 0,0 0,-1 1,-1 h 1 c 1,0 1,1 1,1 v 2.5 c 0,0.277 0.223,0.5 0.5,0.5 h 5 c 0.277,0 0.5,-0.223 0.5,-0.5 v -6 c 0,-0.277 -0.223,-0.5 -0.5,-0.5 H 15 V 8.0000748 h 0.5 a 0.5,0.5 0 0 0 0.277,-0.916 l -3.994,-3 a 0.5,0.5 0 0 0 -0.555,0 z m -1.979,3.916 h 0.5 a 0.25,0.25 0 0 1 0.25,0.25 v 1.5 A 0.25,0.25 0 0 1 9.75,10.000075 H 9.25 A 0.25,0.25 0 0 1 9,9.7500748 v -1.5 a 0.25,0.25 0 0 1 0.25,-0.25 z m 2,0 h 0.5 a 0.25,0.25 0 0 1 0.25,0.25 v 1.5 a 0.25,0.25 0 0 1 -0.25,0.2500002 h -0.5 A 0.25,0.25 0 0 1 11,9.7500748 v -1.5 a 0.25,0.25 0 0 1 0.25,-0.25 z m 2,0 h 0.5 a 0.25,0.25 0 0 1 0.25,0.25 v 1.5 a 0.25,0.25 0 0 1 -0.25,0.2500002 h -0.5 A 0.25,0.25 0 0 1 13,9.7500748 v -1.5 a 0.25,0.25 0 0 1 0.25,-0.25 z m -8,3.0000002 h 0.5 a 0.25,0.25 0 0 1 0.25,0.25 v 1.5 a 0.25,0.25 0 0 1 -0.25,0.25 h -0.5 a 0.25,0.25 0 0 1 -0.25,-0.25 v -1.5 a 0.25,0.25 0 0 1 0.25,-0.25 z m 2,0 h 0.5 a 0.25,0.25 0 0 1 0.25,0.25 v 1.5 a 0.25,0.25 0 0 1 -0.25,0.25 h -0.5 a 0.25,0.25 0 0 1 -0.25,-0.25 v -1.5 a 0.25,0.25 0 0 1 0.25,-0.25 z m 8,0 h 0.5 a 0.25,0.25 0 0 1 0.25,0.25 v 1.5 a 0.25,0.25 0 0 1 -0.25,0.25 h -0.5 a 0.25,0.25 0 0 1 -0.25,-0.25 v -1.5 a 0.25,0.25 0 0 1 0.25,-0.25 z m 2,0 h 0.5 a 0.25,0.25 0 0 1 0.25,0.25 v 1.5 a 0.25,0.25 0 0 1 -0.25,0.25 h -0.5 a 0.25,0.25 0 0 1 -0.25,-0.25 v -1.5 a 0.25,0.25 0 0 1 0.25,-0.25 z m -12,3 h 0.5 a 0.25,0.25 0 0 1 0.25,0.25 v 1.5 a 0.25,0.25 0 0 1 -0.25,0.25 h -0.5 a 0.25,0.25 0 0 1 -0.25,-0.25 v -1.5 a 0.25,0.25 0 0 1 0.25,-0.25 z m 2,0 h 0.5 a 0.25,0.25 0 0 1 0.25,0.25 v 1.5 a 0.25,0.25 0 0 1 -0.25,0.25 h -0.5 a 0.25,0.25 0 0 1 -0.25,-0.25 v -1.5 a 0.25,0.25 0 0 1 0.25,-0.25 z m 8,0 h 0.5 a 0.25,0.25 0 0 1 0.25,0.25 v 1.5 a 0.25,0.25 0 0 1 -0.25,0.25 h -0.5 a 0.25,0.25 0 0 1 -0.25,-0.25 v -1.5 a 0.25,0.25 0 0 1 0.25,-0.25 z m 2,0 h 0.5 a 0.25,0.25 0 0 1 0.25,0.25 v 1.5 a 0.25,0.25 0 0 1 -0.25,0.25 h -0.5 a 0.25,0.25 0 0 1 -0.25,-0.25 v -1.5 a 0.25,0.25 0 0 1 0.25,-0.25 z"
     fill="#363636"
     id="path1" />
</svg>
