<?xml version="1.0" encoding="UTF-8" standalone="no"?>
<svg
   height="22"
   width="22"
   version="1.1"
   id="svg1"
   sodipodi:docname="applications-multimedia-symbolic.svg"
   inkscape:version="1.4 (e7c3feb100, 2024-10-09)"
   xmlns:inkscape="http://www.inkscape.org/namespaces/inkscape"
   xmlns:sodipodi="http://sodipodi.sourceforge.net/DTD/sodipodi-0.dtd"
   xmlns="http://www.w3.org/2000/svg"
   xmlns:svg="http://www.w3.org/2000/svg">
  <defs
     id="defs1" />
  <sodipodi:namedview
     id="namedview1"
     pagecolor="#ffffff"
     bordercolor="#000000"
     borderopacity="0.25"
     inkscape:showpageshadow="2"
     inkscape:pageopacity="0.0"
     inkscape:pagecheckerboard="0"
     inkscape:deskcolor="#d1d1d1"
     inkscape:zoom="36.727273"
     inkscape:cx="10.986386"
     inkscape:cy="11"
     inkscape:window-width="1920"
     inkscape:window-height="1011"
     inkscape:window-x="0"
     inkscape:window-y="0"
     inkscape:window-maximized="1"
     inkscape:current-layer="svg1" />
  <path
     d="M 9,3 C 8.446,3 8,3.446 8,4 v 8 c 0,0.554 0.446,1 1,1 h 8 c 0.554,0 1,-0.446 1,-1 V 4 C 18,3.446 17.554,3 17,3 Z m 4.314,1.5 c 0.129,-0.001 0.259,0.041 0.327,0.152 0.052,0.308 0.157,0.612 0.326,0.881 0.168,0.35 0.49,0.609 0.736,0.91 0.696,0.85 0.655,2.118 0.01,2.983 C 14.653,9.492 14.597,9.633 14.49,9.604 14.45,9.584 14.395,9.534 14.42,9.482 14.605,9.057 14.737,8.59 14.73,8.123 14.742,7.477 14.243,6.928 13.687,6.635 V 9.97 c 0,0.749 -0.386,1.328 -1.054,1.486 -0.59,0.18 -1.308,-0.215 -1.38,-0.818 -0.05,-0.645 0.503,-1.205 1.122,-1.37 C 12.581,9.208 12.817,9.191 13,9.229 V 5.02 C 12.969,4.805 13.017,4.483 13.314,4.5 Z M 4.5,8 C 4.223,8 4,8.223 4,8.5 v 10 C 4,18.777 4.223,19 4.5,19 h 9 C 13.777,19 14,18.777 14,18.5 V 14 h -3 v 4 H 7 V 14 H 9 A 1.99,1.99 0 0 1 7.275,13 H 7 V 8 Z M 5,9 h 1 v 1 H 5 Z m 0,2 h 1 v 1 H 5 Z m 0,2 h 1 v 1 H 5 Z m 0,2 h 1 v 1 H 5 Z m 7,0 h 1 v 1 h -1 z m -7,2 h 1 v 1 H 5 Z m 7,0 h 1 v 1 h -1 z"
     fill="#363636"
     id="path1" />
</svg>
