<?xml version="1.0" encoding="UTF-8" standalone="no"?>
<svg
   width="22"
   height="22"
   version="1.1"
   id="svg1"
   sodipodi:docname="applications-games-symbolic.svg"
   inkscape:version="1.4 (e7c3feb100, 2024-10-09)"
   xmlns:inkscape="http://www.inkscape.org/namespaces/inkscape"
   xmlns:sodipodi="http://sodipodi.sourceforge.net/DTD/sodipodi-0.dtd"
   xmlns="http://www.w3.org/2000/svg"
   xmlns:svg="http://www.w3.org/2000/svg">
  <defs
     id="defs1">
    <style
       id="current-color-scheme"
       type="text/css">
         .ColorScheme-Text { color:#363636; }
     </style>
  </defs>
  <sodipodi:namedview
     id="namedview1"
     pagecolor="#ffffff"
     bordercolor="#000000"
     borderopacity="0.25"
     inkscape:showpageshadow="2"
     inkscape:pageopacity="0.0"
     inkscape:pagecheckerboard="0"
     inkscape:deskcolor="#d1d1d1"
     inkscape:zoom="36.727273"
     inkscape:cx="10.986386"
     inkscape:cy="11"
     inkscape:window-width="1920"
     inkscape:window-height="1011"
     inkscape:window-x="0"
     inkscape:window-y="0"
     inkscape:window-maximized="1"
     inkscape:current-layer="svg1" />
  <g
     fill="currentColor"
     class="ColorScheme-Text"
     stroke-linecap="round"
     stroke-linejoin="round"
     stroke-width="166667"
     style="paint-order:stroke fill markers"
     aria-label=""
     id="g1"
     transform="translate(2.999725,3.000003)">
    <path
       d="m 14.68,4.3203 q 0.64062,0.64062 0.97656,1.4609 0.34375,0.8125 0.34375,1.7188 0,0.27344 -0.01563,0.65625 -0.01563,0.38281 -0.07031,0.82812 -0.04687,0.44531 -0.14844,0.92188 -0.09375,0.46875 -0.25,0.92188 -0.23437,0.67188 -0.54687,1.1016 -0.3125,0.42188 -0.64844,0.66406 -0.33594,0.23438 -0.67969,0.32031 -0.34375,0.08594 -0.64062,0.08594 -0.25781,0 -0.47656,-0.08594 Q 12.31281,12.82035 12.1175,12.67972 11.93,12.5391 11.75812,12.35941 11.59406,12.17191 11.43,11.98441 11.26594,11.79691 11.10188,11.62504 10.94563,11.45316 10.77376,11.32035 10.60188,11.17973 10.40657,11.09379 10.21907,11.00785 9.99251,11.00004 h -3.9844 q -0.22656,0.0078 -0.42188,0.09375 -0.1875,0.08594 -0.35938,0.22656 -0.17188,0.13281 -0.33594,0.30469 -0.15625,0.17188 -0.32031,0.35938 -0.16406,0.1875 -0.33594,0.375 -0.16406,0.17969 -0.35938,0.32031 -0.1875,0.14062 -0.40625,0.23438 -0.21094,0.08594 -0.46875,0.08594 -0.29688,0 -0.64062,-0.08594 Q 2.01591,12.82817 1.67997,12.5938 1.34403,12.35161 1.03153,11.92974 0.71903,11.50005 0.48465,10.82814 0.3284,10.375017 0.22684,9.906257 0.13309,9.429697 0.0784,8.984377 0.031525,8.539067 0.0159,8.156257 2.75e-4,7.773447 2.75e-4,7.500007 q 0,-0.90625 0.33594,-1.7188 0.34375,-0.82031 0.98438,-1.4609 0.63281,-0.64062 1.4531,-0.97656 0.82031,-0.34375 1.7266,-0.34375 h 7 q 0.90625,0 1.7188,0.34375 0.82031,0.33594 1.4609,0.97656 z M 14.57062,10.5 Q 14.71906,10.08594 14.805,9.64062 14.89094,9.19531 14.93,8.78906 14.97687,8.375 14.98469,8.03906 15.000312,7.70312 15.000312,7.5 q 0,-0.72656 -0.28125,-1.3594 -0.27344,-0.64062 -0.75,-1.1094 -0.46875,-0.47656 -1.1094,-0.75 -0.63281,-0.28125 -1.3594,-0.28125 h -7 q -0.72656,0 -1.3672,0.28125 -0.63281,0.27344 -1.1094,0.75 -0.46875,0.46875 -0.75,1.1094 -0.27344,0.63281 -0.27344,1.3594 0,0.20312 0.00781,0.53906 0.015625,0.33594 0.054688,0.75 0.046875,0.40625 0.13281,0.85156 0.085938,0.44531 0.23438,0.85938 0.19531,0.5625 0.42969,0.86719 0.23438,0.30469 0.45312,0.44531 0.22656,0.14062 0.40625,0.16406 Q 2.90647,12 3.00022,12 q 0.17188,0 0.375,-0.20312 0.21094,-0.21094 0.4375,-0.46875 0.1875,-0.21875 0.39844,-0.44531 0.21875,-0.23438 0.47656,-0.42188 0.26562,-0.19531 0.58594,-0.32031 0.32032,-0.125 0.71094,-0.14062 h 4.031201 q 0.39062,0.01563 0.71094,0.14062 0.32031,0.125 0.57812,0.32031 0.26562,0.1875 0.47656,0.42188 0.21875,0.22656 0.40625,0.44531 0.226559,0.25781 0.42969,0.46875 Q 12.828301,12 13.000171,12 q 0.09375,0 0.27344,-0.02344 0.1875,-0.02344 0.40625,-0.16406 0.22656,-0.14062 0.46094,-0.44531 0.23438,-0.30468 0.42969,-0.86718 z M 4.00062,7 h 1 v 1 h -1 v 1 h -1 V 8 h -1 V 7 h 1 V 6 h 1 z m 9,1 q 0.21094,0 0.39062,0.078125 0.17969,0.078125 0.3125,0.21875 0.14062,0.13281 0.21875,0.3125 0.07813,0.17969 0.07813,0.39062 -5e-6,0.21093 -0.07813,0.39062 -0.07812,0.17969 -0.21875,0.32031 -0.13281,0.13281 -0.3125,0.21094 -0.17969,0.078125 -0.39062,0.078125 -0.21094,0 -0.39062,-0.078125 -0.17969,-0.078125 -0.32031,-0.21094 -0.13281,-0.14062 -0.21094,-0.32031 -0.07813,-0.17969 -0.07813,-0.39062 5e-6,-0.21093 0.07813,-0.39062 0.07812,-0.17969 0.21094,-0.3125 Q 12.43031,8.156255 12.61,8.078125 12.78969,8 13.00062,8 Z m -2,-2 q 0.21094,0 0.39062,0.078125 0.17969,0.078125 0.3125,0.21875 0.14062,0.13281 0.21875,0.3125 0.07813,0.17969 0.07813,0.39062 -5e-6,0.21093 -0.07813,0.39062 -0.07812,0.17969 -0.21875,0.32031 -0.13281,0.13281 -0.3125,0.21094 -0.17969,0.078125 -0.39062,0.078125 -0.21094,0 -0.39062,-0.078125 -0.17969,-0.078125 -0.32031,-0.21094 -0.13281,-0.14062 -0.21094,-0.32031 -0.07813,-0.17969 -0.07813,-0.39062 5e-6,-0.21093 0.07813,-0.39062 0.07812,-0.17969 0.21094,-0.3125 Q 10.43031,6.156255 10.61,6.078125 10.78969,6 11.00062,6 Z"
       stroke-width="166667"
       id="path1" />
  </g>
</svg>
