<?xml version="1.0" encoding="UTF-8" standalone="no"?>
<!-- Created with Inkscape (http://www.inkscape.org/) -->

<svg
   width="22"
   height="22"
   viewBox="0 0 22 22"
   version="1.1"
   id="svg5"
   inkscape:version="1.4.2 (ebf0e940d0, 2025-05-08)"
   sodipodi:docname="preferences-system-symbolic.svg"
   xmlns:inkscape="http://www.inkscape.org/namespaces/inkscape"
   xmlns:sodipodi="http://sodipodi.sourceforge.net/DTD/sodipodi-0.dtd"
   xmlns="http://www.w3.org/2000/svg"
   xmlns:svg="http://www.w3.org/2000/svg">
  <sodipodi:namedview
     id="namedview7"
     pagecolor="#ffffff"
     bordercolor="#666666"
     borderopacity="1.0"
     inkscape:showpageshadow="2"
     inkscape:pageopacity="0.0"
     inkscape:pagecheckerboard="0"
     inkscape:deskcolor="#d1d1d1"
     inkscape:document-units="px"
     showgrid="false"
     showguides="false"
     inkscape:zoom="36.136364"
     inkscape:cx="11"
     inkscape:cy="11"
     inkscape:window-width="1920"
     inkscape:window-height="1010"
     inkscape:window-x="0"
     inkscape:window-y="0"
     inkscape:window-maximized="1"
     inkscape:current-layer="svg5" />
  <defs
     id="defs2">
    <style
       id="current-color-scheme"
       type="text/css">
        .ColorScheme-Text { color:#363636; }
        .ColorScheme-NeutralText { color:#f67400; }
        .ColorScheme-PositiveText { color:#37c837; }
        .ColorScheme-NegativeText { color:#f44336; }
        .ColorScheme-Highlight { color:#3daee9; }
     </style>
  </defs>
  <path
     d="m 15.402868,5.6728984 c 0,0 -0.247347,0.1121433 -0.815321,0.5841759 -0.694601,0.5770773 -1.124746,0.5305555 -1.632908,0.4453625 l -0.004,0.00401 c -0.0968,-0.044202 -0.194665,-0.085603 -0.29396,-0.1227515 v -0.00401 C 12.237025,6.2808252 11.900106,6.0092084 11.816984,5.1099712 11.748984,4.3749114 11.653539,4.1203225 11.653539,4.1203225 11.37663,3.9999615 11.000281,4 11.000281,4 c 0,0 -0.376452,3.85e-5 -0.65315,0.120424 0,0 -0.0957,0.2543754 -0.163523,0.9895682 -0.0831,0.8991952 -0.420215,1.1707032 -0.839675,1.4697104 l -7e-4,0.00501 c -0.0992,0.0371 -0.196786,0.078603 -0.293939,0.1227445 l -0.004,-0.00397 C 8.53717,6.7887888 8.106868,6.8350414 7.412236,6.2580125 6.844472,5.7862707 6.596953,5.6738371 6.596953,5.6738371 6.316685,5.7839117 6.05063,6.0499662 6.05063,6.0499662 c 0,0 -0.266178,0.2661778 -0.376693,0.547048 0,0 0.112395,0.2475854 0.584116,0.8153323 0.577067,0.6945897 0.530626,1.1250737 0.445496,1.6330365 l 0.004,0.004 c -0.044,0.0969 -0.0856,0.194694 -0.122874,0.293838 h -0.004 C 6.281895,9.762922 6.010258,10.099844 5.11109,10.183057 4.376052,10.250957 4.121295,10.346719 4.121295,10.346719 4.001021,10.623729 4.001,10.99954 4.001,10.99954 c 0,0 1.99e-4,0.37662 0.120494,0.653276 0,0 0.254316,0.09581 0.989498,0.163407 0.899147,0.0832 1.170343,0.420541 1.46956,0.839832 h 0.004 c 0.0372,0.09931 0.0787,0.196958 0.122716,0.293988 l -0.004,0.004 c 0.0855,0.508097 0.131672,0.938329 -0.445335,1.632887 -0.471721,0.567887 -0.584186,0.815784 -0.584186,0.815784 0.110925,0.280849 0.376711,0.546635 0.376711,0.546635 0,0 0.266268,0.266278 0.547044,0.376703 0,0 0.247497,-0.112024 0.815234,-0.584067 0.694652,-0.576987 1.125014,-0.530245 1.633026,-0.445433 l 0.004,-0.004 c 0.0972,0.0441 0.194725,0.0857 0.293988,0.122724 l -7e-4,0.005 c 0.419754,0.298835 0.756613,0.570413 0.839836,1.469553 0.0679,0.735081 0.163593,0.989915 0.163593,0.989915 0.27703,0.120056 0.652929,0.120234 0.652929,0.120234 0,0 0.376623,-1.01e-4 0.653171,-0.120644 0,0 0.0958,-0.254074 0.163505,-0.989386 0.0832,-0.899136 0.42066,-1.170455 0.839731,-1.469623 l -7e-4,-0.005 c 0.0992,-0.0371 0.196877,-0.0788 0.29396,-0.122762 l 0.004,0.004 c 0.508076,-0.08551 0.938287,-0.131645 1.632918,0.44539 0.567765,0.471735 0.815634,0.58426 0.815634,0.58426 0.280898,-0.111034 0.546715,-0.376843 0.546715,-0.376843 0,0 0.266265,-0.266265 0.376721,-0.547076 0,0 -0.112035,-0.247516 -0.584179,-0.815283 C 15.16382,13.892421 15.21059,13.462 15.295521,12.954075 l -0.004,-0.004 c 0.04411,-0.0972 0.0857,-0.194725 0.122745,-0.293939 h 0.006 c 0.298839,-0.419631 0.570448,-0.75654 1.469622,-0.839762 0.735141,-0.0679 0.989996,-0.163635 0.989996,-0.163635 0.120015,-0.277031 0.120046,-0.652999 0.120046,-0.652999 0,0 -6.3e-5,-0.376452 -0.120337,-0.653259 0,0 -0.254414,-0.0957 -0.989635,-0.163445 -0.899223,-0.0831 -1.170573,-0.420233 -1.469724,-0.839675 h -0.004 c -0.0371,-0.0992 -0.07841,-0.196944 -0.122755,-0.293946 l 0.004,-0.004 C 15.212179,8.5375009 15.165782,8.1071285 15.742814,7.4124865 16.214556,6.8447224 16.327189,6.5969443 16.327189,6.5969443 16.216355,6.3161543 15.9503,6.050096 15.9503,6.050096 c 0,0 -0.266279,-0.2662543 -0.547086,-0.3767106 z m -2.087829,7.6416096 c -1.278565,1.278555 -3.351425,1.278576 -4.629994,2.1e-5 C 7.406479,12.035959 7.4065,9.9631 8.685066,8.6845346 c 1.278538,-1.2785378 3.351397,-1.2785551 4.629963,1.03e-5 1.278566,1.2785551 1.278548,3.3514251 1e-5,4.6299631 z"
     style="fill:currentColor"
     class="ColorScheme-Text"
     id="path429" />
</svg>
