<?xml version="1.0" encoding="UTF-8" standalone="no"?>
<!-- Created with Inkscape (http://www.inkscape.org/) -->

<svg
   width="256"
   height="256"
   viewBox="0 0 256 256.00002"
   version="1.1"
   id="svg1"
   inkscape:version="1.4.3 (0d15f75042, 2025-12-25)"
   sodipodi:docname="abiword.svg"
   xmlns:inkscape="http://www.inkscape.org/namespaces/inkscape"
   xmlns:sodipodi="http://sodipodi.sourceforge.net/DTD/sodipodi-0.dtd"
   xmlns:xlink="http://www.w3.org/1999/xlink"
   xmlns="http://www.w3.org/2000/svg"
   xmlns:svg="http://www.w3.org/2000/svg">
  <sodipodi:namedview
     id="namedview1"
     pagecolor="#ffffff"
     bordercolor="#000000"
     borderopacity="0.25"
     inkscape:showpageshadow="2"
     inkscape:pageopacity="0.0"
     inkscape:pagecheckerboard="0"
     inkscape:deskcolor="#d1d1d1"
     inkscape:document-units="px"
     inkscape:zoom="3.1992188"
     inkscape:cx="127.84371"
     inkscape:cy="128"
     inkscape:window-width="1920"
     inkscape:window-height="1022"
     inkscape:window-x="0"
     inkscape:window-y="0"
     inkscape:window-maximized="1"
     inkscape:current-layer="svg1" />
  <defs
     id="defs1">
    <linearGradient
       inkscape:collect="always"
       xlink:href="#linearGradient1677"
       id="linearGradient4"
       x1="16"
       y1="30"
       x2="16"
       y2="2"
       gradientUnits="userSpaceOnUse"
       gradientTransform="scale(8)" />
    <linearGradient
       inkscape:collect="always"
       id="linearGradient1677">
      <stop
         style="stop-color:#5792d8;stop-opacity:1;"
         offset="0"
         id="stop1673" />
      <stop
         style="stop-color:#a2d2f9;stop-opacity:1;"
         offset="1"
         id="stop1675" />
    </linearGradient>
  </defs>
  <rect
     style="opacity:0.2;fill:#000000;stroke-width:14"
     id="rect1"
     width="224"
     height="224"
     x="16"
     y="17"
     ry="48" />
  <rect
     style="fill:url(#linearGradient4);stroke-width:8"
     id="rect2"
     width="224"
     height="224"
     x="16"
     y="16"
     ry="48" />
  <path
     d="m 163.39591,151.40911 c -26.644,13.2304 -54.0672,25.6472 -83.175998,32.2624 -9.384,-0.0456 -4.754,-12.3176 -3.23832,-17.8784 7.27928,-23.6216 18.5664,-45.7368 29.299998,-67.912798 4.24992,-7.00648 7.2644,-16.6624 15.8336,-19.3584 8.3232,-0.92896 13.792,7.15616 18.1032,13.0544 17.6288,27.119198 34.2768,54.947998 48.87761,83.823998 3.696,7.528 7.32,15.08801 10.904,22.67201 -10.656,-43.69601 -25.00801,-87.04801 -48.13601,-125.84 -5.184,-7.656 -9.904,-15.968 -16.896,-22.1312 -6.816,-5.258404 -15.2,0.4032 -20.24,5.4936 -15.830398,15.9464 -25.472798,36.754392 -34.920798,56.84559 -11.0192,23.7784 -18.2488,49.1248 -23.556,74.72801 -1.86064,8.6224 6.96912,14.8816 14.816,12.2056 21.7344,-4.54056 42.159198,-14.0648 61.382398,-24.99441 11.0784,-6.53408 21.732,-13.9536 30.9488,-22.9752 z"
     style="fill:#ffffff;stroke-width:8"
     id="path8520"
     sodipodi:nodetypes="ccccccccccccccccc" />
</svg>
