<?xml version="1.0" encoding="UTF-8" standalone="no"?>
<!-- Created with Inkscape (http://www.inkscape.org/) -->

<svg
   width="256"
   height="256"
   viewBox="0 0 256 256.00002"
   version="1.1"
   id="svg1"
   inkscape:version="1.4.3 (0d15f75042, 2025-12-25)"
   sodipodi:docname="accessories-ebook-reader.svg"
   xmlns:inkscape="http://www.inkscape.org/namespaces/inkscape"
   xmlns:sodipodi="http://sodipodi.sourceforge.net/DTD/sodipodi-0.dtd"
   xmlns:xlink="http://www.w3.org/1999/xlink"
   xmlns="http://www.w3.org/2000/svg"
   xmlns:svg="http://www.w3.org/2000/svg">
  <sodipodi:namedview
     id="namedview1"
     pagecolor="#ffffff"
     bordercolor="#000000"
     borderopacity="0.25"
     inkscape:showpageshadow="2"
     inkscape:pageopacity="0.0"
     inkscape:pagecheckerboard="0"
     inkscape:deskcolor="#d1d1d1"
     inkscape:document-units="px"
     inkscape:zoom="3.1171875"
     inkscape:cx="127.8396"
     inkscape:cy="128"
     inkscape:window-width="1920"
     inkscape:window-height="1011"
     inkscape:window-x="0"
     inkscape:window-y="0"
     inkscape:window-maximized="1"
     inkscape:current-layer="svg1" />
  <defs
     id="defs1">
    <linearGradient
       inkscape:collect="always"
       xlink:href="#linearGradient3788"
       id="linearGradient4"
       x1="16"
       y1="30"
       x2="16"
       y2="2"
       gradientUnits="userSpaceOnUse"
       gradientTransform="scale(8)" />
    <linearGradient
       inkscape:collect="always"
       id="linearGradient3788">
      <stop
         style="stop-color:#ff7c15;stop-opacity:1;"
         offset="0"
         id="stop3784" />
      <stop
         style="stop-color:#f9bd00;stop-opacity:1;"
         offset="1"
         id="stop3786" />
    </linearGradient>
  </defs>
  <rect
     style="opacity:0.2;fill:#000000;stroke-width:14"
     id="rect1"
     width="224"
     height="224"
     x="16"
     y="17"
     ry="48" />
  <rect
     style="fill:url(#linearGradient4);stroke-width:8"
     id="rect2"
     width="224"
     height="224"
     x="16"
     y="16"
     ry="48" />
  <path
     d="M 84,68 C 69.933144,68 51.760656,75.557056 48,84.000004 V 184.00002 c 0,1.78238 0,3.9521 2,4 1.816192,0.0432 4.622344,-3.13332 6,-4 6.59896,-5.39044 19.073416,-11.89215 28,-12.00001 8.10324,0.1072 23.03392,1.03559 32,8 3.45416,2.90775 8.1183,1.44975 8,-4 V 84.000004 C 115.04538,68.000016 96.110968,68 84,68 Z m 88,0 c -12.11097,0 -31.04538,2e-5 -40,16.000004 v 92.000006 c -0.11832,5.44975 4.54584,6.90775 8,4 8.96608,-6.96441 23.89676,-7.8928 32,-8 8.92658,0.10784 21.40104,6.60957 28,12.00001 1.37766,0.86668 4.1838,4.0432 6,4 2,-0.048 2,-2.21762 2,-4 V 84.000004 C 204.23934,75.557056 186.06684,68 172,68 Z"
     style="color:#000000;fill:#ffffff;stroke:none;stroke-width:16;stroke-linecap:round;stroke-linejoin:round"
     id="path1867"
     sodipodi:nodetypes="scsccccccssccccccscs" />
</svg>
