<?xml version="1.0" encoding="UTF-8" standalone="no"?>
<!-- Created with Inkscape (http://www.inkscape.org/) -->

<svg
   width="256"
   height="256"
   viewBox="0 0 256 256.00002"
   version="1.1"
   id="svg1"
   inkscape:version="1.4.3 (0d15f75042, 2025-12-25)"
   sodipodi:docname="conky.svg"
   xmlns:inkscape="http://www.inkscape.org/namespaces/inkscape"
   xmlns:sodipodi="http://sodipodi.sourceforge.net/DTD/sodipodi-0.dtd"
   xmlns:xlink="http://www.w3.org/1999/xlink"
   xmlns="http://www.w3.org/2000/svg"
   xmlns:svg="http://www.w3.org/2000/svg">
  <sodipodi:namedview
     id="namedview1"
     pagecolor="#ffffff"
     bordercolor="#000000"
     borderopacity="0.25"
     inkscape:showpageshadow="2"
     inkscape:pageopacity="0.0"
     inkscape:pagecheckerboard="0"
     inkscape:deskcolor="#d1d1d1"
     inkscape:document-units="px"
     inkscape:zoom="2.2617188"
     inkscape:cx="128"
     inkscape:cy="128"
     inkscape:window-width="1440"
     inkscape:window-height="830"
     inkscape:window-x="0"
     inkscape:window-y="0"
     inkscape:window-maximized="1"
     inkscape:current-layer="svg1" />
  <defs
     id="defs1">
    <linearGradient
       inkscape:collect="always"
       xlink:href="#linearGradient4-9"
       id="linearGradient4"
       x1="16"
       y1="30"
       x2="16"
       y2="2"
       gradientUnits="userSpaceOnUse"
       gradientTransform="scale(8)" />
    <linearGradient
       id="linearGradient6"
       inkscape:collect="always">
      <stop
         style="stop-color:#6d10b1;stop-opacity:1;"
         offset="0"
         id="stop6" />
      <stop
         style="stop-color:#a642ee;stop-opacity:1;"
         offset="1"
         id="stop7" />
    </linearGradient>
    <linearGradient
       id="linearGradient4-9"
       inkscape:collect="always">
      <stop
         style="stop-color:#d6a9f6;stop-opacity:1;"
         offset="0"
         id="stop4" />
      <stop
         style="stop-color:#e6c9f8;stop-opacity:1;"
         offset="1"
         id="stop5" />
    </linearGradient>
    <linearGradient
       inkscape:collect="always"
       xlink:href="#linearGradient6"
       id="linearGradient2"
       x1="16"
       y1="30"
       x2="16"
       y2="2"
       gradientUnits="userSpaceOnUse"
       gradientTransform="scale(8)" />
  </defs>
  <rect
     style="opacity:0.2;fill:#000000;stroke-width:14"
     id="rect1"
     width="224"
     height="224"
     x="16"
     y="17"
     ry="48" />
  <rect
     style="fill:url(#linearGradient4);stroke-width:8"
     id="rect2"
     width="224"
     height="224"
     x="16"
     y="16"
     ry="48" />
  <path
     id="rect234"
     style="fill:url(#linearGradient2);stroke-width:32;stroke-linecap:round;stroke-linejoin:round"
     d="M 80,64 C 62.272072,64 48,78.272064 48,96 v 48 c 0,17.72794 14.272072,32 32,32 h 40 v 16 H 92 c -2.215992,0 -4,1.784 -4,4 0,2.216 1.784008,4 4,4 h 72 c 2.21599,0 4,-1.784 4,-4 0,-2.216 -1.78401,-4 -4,-4 h -28 v -16 h 40 c 17.72794,0 32,-14.27206 32,-32 v -12 c 0,-2.20914 -1.79086,-4 -4,-4 -2.20914,0 -4,1.79086 -4,4 v 12 c 0,13.29594 -10.70406,24 -24,24 H 80 C 66.704056,168 56,157.29594 56,144 V 96 C 56,82.704064 66.704056,72 80,72 h 96 c 13.29594,0 24,10.704064 24,24 v 12 c 0,2.20914 1.79086,4 4,4 2.20914,0 4,-1.79086 4,-4 V 96 C 208,78.272064 193.72794,64 176,64 Z"
     sodipodi:nodetypes="ssssccssssssccsssssssssssssssssss" />
</svg>
