<?xml version="1.0" encoding="UTF-8" standalone="no"?>
<!-- Created with Inkscape (http://www.inkscape.org/) -->

<svg
   width="256"
   height="256"
   viewBox="0 0 256 256.00002"
   version="1.1"
   id="svg1"
   inkscape:version="1.4.2 (ebf0e940d0, 2025-05-08)"
   sodipodi:docname="dosbox-staging.svg"
   xmlns:inkscape="http://www.inkscape.org/namespaces/inkscape"
   xmlns:sodipodi="http://sodipodi.sourceforge.net/DTD/sodipodi-0.dtd"
   xmlns:xlink="http://www.w3.org/1999/xlink"
   xmlns="http://www.w3.org/2000/svg"
   xmlns:svg="http://www.w3.org/2000/svg">
  <sodipodi:namedview
     id="namedview1"
     pagecolor="#ffffff"
     bordercolor="#000000"
     borderopacity="0.25"
     inkscape:showpageshadow="2"
     inkscape:pageopacity="0.0"
     inkscape:pagecheckerboard="0"
     inkscape:deskcolor="#d1d1d1"
     inkscape:document-units="px"
     inkscape:zoom="3.1601562"
     inkscape:cx="128"
     inkscape:cy="128"
     inkscape:window-width="1920"
     inkscape:window-height="1011"
     inkscape:window-x="0"
     inkscape:window-y="0"
     inkscape:window-maximized="1"
     inkscape:current-layer="svg1"
     showguides="false" />
  <defs
     id="defs1">
    <linearGradient
       inkscape:collect="always"
       id="linearGradient1606">
      <stop
         style="stop-color:#eaebed;stop-opacity:1;"
         offset="0"
         id="stop1602" />
      <stop
         style="stop-color:#f9fafa;stop-opacity:1;"
         offset="1"
         id="stop1604" />
    </linearGradient>
    <linearGradient
       inkscape:collect="always"
       xlink:href="#linearGradient1606"
       id="linearGradient4"
       x1="16"
       y1="30"
       x2="16"
       y2="2"
       gradientUnits="userSpaceOnUse"
       gradientTransform="scale(8)" />
  </defs>
  <rect
     style="opacity:0.2;fill:#000000;stroke-width:14"
     id="rect1"
     width="224"
     height="224"
     x="16"
     y="17"
     ry="48" />
  <rect
     style="fill:url(#linearGradient4);stroke-width:8"
     id="rect2"
     width="224"
     height="224"
     x="16"
     y="16"
     ry="48" />
  <path
     d="m 48,56 v 8 h 8 v 48 h -8 v 8 h 40 v -8 h 8 V 64 h -8 v -8 z m 64,0 v 8 h -8 v 48 h 8 v 8 h 32 v -8 h 8 V 64 h -8 v -8 z m 56,0 v 8 h -8 v 16 h 8 v 8 h 16 v 8 h 8 v 16 H 176 V 96 h -16 v 16 h 8 v 8 h 32 v -8 h 8 V 96 h -8 v -8 h -8 V 80 H 176 V 64 h 16 v 16 h 16 V 64 h -8 v -8 z m -96,8 h 8 v 48 h -8 z m 48,0 h 16 v 48 h -16 z m -72,72 v 8 h 8 v 48 h -8 v 8 h 40 v -8 h 8 v -24 h -8 v -8 h 8 v -16 h -8 v -8 z m 64,0 v 8 h -8 v 48 h 8 v 8 h 32 v -8 h 8 v -48 h -8 v -8 z m 40,0 v 8 h 8 v 16 h 8 v 16 h -8 v 16 h -8 v 8 h 16 v -8 h 8 v -8 h 8 v 8 h 8 v 8 h 16 v -8 h -8 v -16 h -8 v -16 h 8 v -16 h 8 v -8 h -16 v 8 h -8 v 8 h -8 v -8 h -8 v -8 z m -80,8 h 8 v 16 h -8 z m 48,0 h 16 v 48 h -16 z m -48,24 h 8 v 24 h -8 z"
     style="fill:#6f6f6f;fill-opacity:1;stroke-width:8"
     id="path1" />
</svg>
