<?xml version="1.0" encoding="UTF-8" standalone="no"?>
<!-- Created with Inkscape (http://www.inkscape.org/) -->

<svg
   width="256"
   height="256"
   viewBox="0 0 256 256.00002"
   version="1.1"
   id="svg1"
   inkscape:version="1.4.2 (ebf0e940d0, 2025-05-08)"
   sodipodi:docname="electron.svg"
   xmlns:inkscape="http://www.inkscape.org/namespaces/inkscape"
   xmlns:sodipodi="http://sodipodi.sourceforge.net/DTD/sodipodi-0.dtd"
   xmlns="http://www.w3.org/2000/svg"
   xmlns:svg="http://www.w3.org/2000/svg">
  <sodipodi:namedview
     id="namedview1"
     pagecolor="#ffffff"
     bordercolor="#000000"
     borderopacity="0.25"
     inkscape:showpageshadow="2"
     inkscape:pageopacity="0.0"
     inkscape:pagecheckerboard="0"
     inkscape:deskcolor="#d1d1d1"
     inkscape:document-units="px"
     inkscape:zoom="3.1601562"
     inkscape:cx="128"
     inkscape:cy="128"
     inkscape:window-width="1920"
     inkscape:window-height="1011"
     inkscape:window-x="0"
     inkscape:window-y="0"
     inkscape:window-maximized="1"
     inkscape:current-layer="svg1" />
  <defs
     id="defs1" />
  <rect
     style="opacity:0.2;fill:#000000;stroke-width:14"
     id="rect1"
     width="224"
     height="224"
     x="16"
     y="17"
     ry="48" />
  <rect
     style="fill:#494c60;fill-opacity:1;stroke-width:8"
     id="rect2"
     width="224"
     height="224"
     x="16"
     y="16"
     ry="48" />
  <path
     d="m 131.4375,40.013252 c -4.08118,0.1916 -7.78446,2.446552 -9.82812,5.984376 -3.31285,5.738696 -1.34727,13.076384 4.39062,16.390624 3.83996,2.217056 8.58954,2.135944 12.35156,-0.21092 3.62217,3.925904 6.9185,8.936912 9.78906,14.742188 -15.01907,5.022456 -31.26315,13.392948 -45.8125,23.55469 -9.350308,6.53056 -16.954744,14.72026 -22.851556,23.53906 -0.24768,-0.30688 -0.491972,-0.61368 -0.734376,-0.92187 -11.864556,-15.0847 -16.834632,-31.373024 -12.625,-41.429692 2.183368,-5.215992 5.181148,-7.462656 8.953124,-8.625 3.771976,-1.162348 8.500588,-0.93798 13.140624,0.09376 9.280076,2.063432 17.718754,7.093752 17.718754,7.093752 1.89194,1.141688 4.35121,0.532992 5.49219,-1.359376 1.14306,-1.8899 0.53801,-4.348584 -1.35157,-5.492188 0,0 -9.19354,-5.624068 -20.124998,-8.054688 -2.732864,-0.607656 -5.608848,-1.026428 -8.515624,-1.078124 -2.906776,-0.05168 -5.841088,0.26408 -8.710936,1.148436 -5.7397,1.768708 -11.014808,6.093296 -13.984376,13.1875 -6.096244,14.563724 0.86038,33.10277 13.72656,49.46094 0.848352,1.0786 1.721852,2.15046 2.625,3.21094 -5.344196,9.74346 -8.738416,19.8869 -10.22656,29.16406 -5.23054,1.41834 -8.861276,6.16647 -8.859376,11.58591 0,6.62741 5.372584,12 12,12 6.627416,0 12,-5.37259 12,-12 -0.0015,-4.71239 -2.761072,-8.98767 -7.054688,-10.92969 1.319548,-7.30612 4.00532,-15.43408 8.054688,-23.41406 12.207596,12.23867 27.9721,22.41606 45.13281,27.07031 10.38763,2.81729 21.01979,3.53822 30.86719,3.11719 -0.73837,3.27879 -1.601,6.38515 -2.58594,9.28125 -2.56941,7.55511 -5.96984,13.61913 -9.875,17.54687 -3.90516,3.92776 -8.09222,5.81588 -13.29687,5.60938 -11.47523,-0.4553 -17.97465,-5.70658 -22.04688,-10.96876 -4.07223,-5.26216 -5.3125,-10.26562 -5.3125,-10.26562 -0.52732,-2.14374 -2.69169,-3.45495 -4.835934,-2.92968 -2.14374,0.52732 -3.454952,2.69169 -2.929688,4.83593 0,0 1.62218,6.63161 6.750002,13.25781 5.12782,6.62622 14.16247,13.5113 28.05469,14.0625 7.47907,0.29676 14.15753,-2.79972 19.28906,-7.96094 5.13152,-5.1612 8.93937,-12.28388 11.77344,-20.61718 1.32865,-3.90678 2.4413,-8.09152 3.34374,-12.48438 8.0872,-0.86935 15.35546,-2.38811 21.13282,-3.92968 3.66144,4.79554 10.31424,6.12677 15.53906,3.10937 5.7379,-3.31424 7.70346,-10.65193 4.39062,-16.39062 -2.19276,-3.80071 -6.28514,-6.10155 -10.67186,-6 -2.01102,0.0486 -3.97754,0.60207 -5.71876,1.60937 -3.56814,2.05941 -5.8304,5.80525 -5.99218,9.92188 -4.77617,1.20502 -10.69384,2.41997 -17.23438,3.24218 1.69388,-12.23378 1.92612,-25.64143 0.77344,-39 -1.15519,-13.38762 -3.87195,-26.420644 -8.16407,-37.796868 0.1128,-0.028 0.22348,-0.05864 0.33592,-0.08592 8.06019,-1.955676 15.21267,-2.509044 20.46875,-1.60156 5.25608,0.90748 8.35984,2.91488 10.0625,6.468748 8.11708,16.94232 -5.375,35.48438 -5.375,35.48438 -1.32383,1.77084 -0.9599,4.27982 0.8125,5.60156 1.76746,1.3202 4.2701,0.96019 5.59374,-0.80469 0,0 16.6839,-21.80955 6.1797,-43.734374 -2.95266,-6.162916 -8.99298,-9.703484 -15.91406,-10.89844 -3.46055,-0.597476 -7.19964,-0.703504 -11.17188,-0.39064 -3.97224,0.31288 -8.17518,1.04084 -12.54688,2.101564 -0.53192,0.12908 -1.06463,0.25932 -1.60156,0.39844 -3.49862,-7.3805 -7.77002,-13.800072 -12.81248,-18.82032 1.7428,-5.384556 -0.51349,-11.254824 -5.41406,-14.085936 -1.98983,-1.14852 -4.26754,-1.701676 -6.5625,-1.593752 z M 132,47.997628 c 2.20914,0 4,1.79086 4,4 0,2.20914 -1.79086,4 -4,4 -2.20914,0 -4,-1.79086 -4,-4 0,-2.20914 1.79086,-4 4,-4 z m 19.39062,36.289064 c 4.17939,10.641908 7.06378,23.148778 8.1875,36.171868 1.16393,13.48889 0.7943,27.07856 -1.03124,39.09376 -9.79267,0.61806 -20.38679,0.13944 -30.32032,-2.55469 -16.20402,-4.39478 -31.583524,-14.57548 -43.124996,-26.60157 5.5214,-8.81466 12.788044,-17.06966 21.804686,-23.36718 14.16397,-9.892584 30.20267,-18.037632 44.48437,-22.742188 z M 128,111.99763 c -8.78278,0 -16,7.21722 -16,16 0,8.78278 7.21722,16 16,16 8.78278,0 16,-7.21722 16,-16 0,-8.78278 -7.21722,-16 -16,-16 z m 68,40 c 2.20914,0 4,1.79086 4,4 0,2.20914 -1.79086,4 -4,4 -2.20914,0 -4,-1.79086 -4,-4 0,-2.20914 1.79086,-4 4,-4 z m -128,16 c 2.20914,0 4,1.79086 4,4 0,2.20914 -1.79086,4 -4,4 -2.20914,0 -4,-1.79086 -4,-4 0,-2.20914 1.79086,-4 4,-4 z"
     style="baseline-shift:baseline;display:inline;overflow:visible;vector-effect:none;fill:#cff7ff;stroke-width:4;stroke-linecap:round;enable-background:accumulate;stop-color:#000000"
     id="path1" />
</svg>
