<?xml version="1.0" encoding="UTF-8" standalone="no"?>
<!-- Created with Inkscape (http://www.inkscape.org/) -->

<svg
   width="256"
   height="256"
   viewBox="0 0 256 256.00002"
   version="1.1"
   id="svg1"
   inkscape:version="1.4.3 (0d15f75042, 2025-12-25)"
   sodipodi:docname="instagram.svg"
   xmlns:inkscape="http://www.inkscape.org/namespaces/inkscape"
   xmlns:sodipodi="http://sodipodi.sourceforge.net/DTD/sodipodi-0.dtd"
   xmlns:xlink="http://www.w3.org/1999/xlink"
   xmlns="http://www.w3.org/2000/svg"
   xmlns:svg="http://www.w3.org/2000/svg">
  <sodipodi:namedview
     id="namedview1"
     pagecolor="#ffffff"
     bordercolor="#000000"
     borderopacity="0.25"
     inkscape:showpageshadow="2"
     inkscape:pageopacity="0.0"
     inkscape:pagecheckerboard="0"
     inkscape:deskcolor="#d1d1d1"
     inkscape:document-units="px"
     inkscape:zoom="3.1640625"
     inkscape:cx="128"
     inkscape:cy="128"
     inkscape:window-width="1920"
     inkscape:window-height="1012"
     inkscape:window-x="0"
     inkscape:window-y="0"
     inkscape:window-maximized="1"
     inkscape:current-layer="svg1" />
  <defs
     id="defs1">
    <radialGradient
       fy="578.08801"
       fx="158.429"
       gradientTransform="matrix(0,-0.79264487,0.7374231,0,-569.48284,165.5679)"
       gradientUnits="userSpaceOnUse"
       xlink:href="#linearGradient12"
       r="65"
       cy="578.08801"
       cx="158.429"
       id="c-1" />
    <linearGradient
       id="linearGradient12">
      <stop
         id="stop7"
         stop-color="#fd5"
         offset="0"
         style="stop-color:#ffdd57;stop-opacity:1;" />
      <stop
         id="stop8"
         stop-color="#fd5"
         offset=".1" />
      <stop
         id="stop10"
         stop-color="#ff543e"
         offset=".5" />
      <stop
         id="stop12"
         stop-color="#c837ab"
         offset="1" />
    </linearGradient>
    <radialGradient
       fy="473.45499"
       fx="147.694"
       gradientTransform="matrix(0.06956311,0.34742347,-1.4324541,0.28681875,579.21829,-210.36317)"
       gradientUnits="userSpaceOnUse"
       xlink:href="#linearGradient5"
       r="65"
       cy="473.45499"
       cx="147.694"
       id="d-5" />
    <linearGradient
       id="linearGradient5">
      <stop
         id="stop1"
         stop-color="#3771c8"
         offset="0"
         style="stop-color:#3771c8;stop-opacity:1;" />
      <stop
         id="stop3"
         offset=".128"
         stop-color="#3771c8" />
      <stop
         id="stop5"
         stop-opacity="0"
         stop-color="#60f"
         offset="1" />
    </linearGradient>
    <radialGradient
       inkscape:collect="always"
       xlink:href="#linearGradient5"
       id="radialGradient6"
       cx="-14.757336"
       cy="15.403809"
       fx="-14.757336"
       fy="15.403809"
       r="28"
       gradientUnits="userSpaceOnUse"
       gradientTransform="matrix(0.31113768,2.818596,-9.2998664,1.0265888,157.32642,62.104132)" />
    <radialGradient
       inkscape:collect="always"
       xlink:href="#linearGradient12"
       id="radialGradient7"
       cx="1.7142857"
       cy="26.513166"
       fx="1.7142857"
       fy="26.513166"
       r="28"
       gradientUnits="userSpaceOnUse"
       gradientTransform="matrix(0,-6.9999996,6.9121692,0,-93.189416,268)" />
  </defs>
  <rect
     style="opacity:0.2;fill:#000000;stroke-width:14"
     id="rect1"
     width="224"
     height="224"
     x="16"
     y="17"
     ry="48" />
  <rect
     style="fill:url(#radialGradient7);stroke-width:8"
     id="rect2"
     width="224"
     height="224"
     x="16"
     y="16"
     ry="48" />
  <rect
     style="opacity:1;fill:url(#radialGradient6);stroke-width:4"
     id="rect3"
     width="224"
     height="224"
     x="16"
     y="16"
     ry="48" />
  <path
     d="m 172,72 c -6.62742,0 -12,5.372584 -12,12 0,6.627416 5.37258,12 12,12 6.62742,0 12,-5.372584 12,-12 0,-6.627416 -5.37258,-12 -12,-12 z m -44,12 c -24.20577,0 -44,19.79423 -44,44 0,24.20577 19.79423,44 44,44 24.20577,0 44,-19.79423 44,-44 0,-24.20577 -19.79423,-44 -44,-44 z m 0,16 c 15.55873,0 28,12.44127 28,28 0,15.55873 -12.44127,28 -28,28 -15.55873,0 -28,-12.44127 -28,-28 0,-15.55873 12.44127,-28 28,-28 z M 91.406248,44 C 65.280596,44 44,65.280596 44,91.406248 V 164.59375 C 44,190.7194 65.280596,212 91.406248,212 H 164.59375 C 190.7194,212 212,190.7194 212,164.59375 V 91.406248 C 212,65.280596 190.7194,44 164.59375,44 Z m 0,16 H 164.59375 C 182.13216,60 196,73.86784 196,91.406248 V 164.59375 C 196,182.13216 182.13216,196 164.59375,196 H 91.406248 C 73.86784,196 60,182.13216 60,164.59375 V 91.406248 C 60,73.86784 73.86784,60 91.406248,60 Z"
     style="baseline-shift:baseline;display:inline;overflow:visible;vector-effect:none;fill:#ffffff;stroke-width:4;stroke-linecap:round;stroke-linejoin:round;enable-background:accumulate;stop-color:#000000"
     id="path1" />
</svg>
