<?xml version="1.0" encoding="UTF-8" standalone="no"?>
<!-- Created with Inkscape (http://www.inkscape.org/) -->

<svg
   width="256"
   height="256"
   viewBox="0 0 256 256.00002"
   version="1.1"
   id="svg1"
   inkscape:version="1.4.2 (ebf0e940d0, 2025-05-08)"
   sodipodi:docname="moonlight.svg"
   xmlns:inkscape="http://www.inkscape.org/namespaces/inkscape"
   xmlns:sodipodi="http://sodipodi.sourceforge.net/DTD/sodipodi-0.dtd"
   xmlns="http://www.w3.org/2000/svg"
   xmlns:svg="http://www.w3.org/2000/svg">
  <sodipodi:namedview
     id="namedview1"
     pagecolor="#ffffff"
     bordercolor="#000000"
     borderopacity="0.25"
     inkscape:showpageshadow="2"
     inkscape:pageopacity="0.0"
     inkscape:pagecheckerboard="0"
     inkscape:deskcolor="#d1d1d1"
     inkscape:document-units="px"
     inkscape:zoom="3.1210938"
     inkscape:cx="127.8398"
     inkscape:cy="128"
     inkscape:window-width="1920"
     inkscape:window-height="1011"
     inkscape:window-x="0"
     inkscape:window-y="0"
     inkscape:window-maximized="1"
     inkscape:current-layer="svg1" />
  <defs
     id="defs1" />
  <rect
     style="opacity:0.2;fill:#000000;stroke-width:14"
     id="rect1"
     width="224"
     height="224"
     x="16"
     y="17"
     ry="48" />
  <rect
     style="fill:#565c64;fill-opacity:1;stroke-width:8"
     id="rect2"
     width="224"
     height="224"
     x="16"
     y="16"
     ry="48" />
  <path
     id="path354"
     style="fill:#ffffff;stroke-width:8"
     d="M 131.90625,44.195312 V 118.42969 L 184.40624,65.929688 A 84,84 0 0 0 131.90625,44.195312 Z m -8,0.17188 A 84,84 0 0 0 71.5,66.02344 l 52.40625,52.40625 z m 66.15625,27.218752 -52.5,52.499996 h 74.25 a 84,84 0 0 0 -21.75,-52.499996 z M 65.843752,71.679704 A 84,84 0 0 0 44.1875,124.08594 H 118.25 Z M 44.1875,132.08595 a 84,84 0 0 0 21.640628,52.42187 L 118.25,132.08594 Z m 93.375,0 52.42188,52.42187 A 84,84 0 0 0 211.625,132.08594 Z m -13.65625,5.65625 -52.421874,52.42188 a 84,84 0 0 0 52.421874,21.64062 z m 8,0 v 74.0625 a 84,84 0 0 0 52.42187,-21.64062 z" />
</svg>
