<?xml version="1.0" encoding="UTF-8" standalone="no"?>
<!-- Created with Inkscape (http://www.inkscape.org/) -->

<svg
   width="256"
   height="256"
   viewBox="0 0 256 256.00002"
   version="1.1"
   id="svg1"
   inkscape:version="1.4.4 (dcaf3e7d9e, 2026-05-05)"
   sodipodi:docname="net.davidotek.pupgui2.svg"
   xmlns:inkscape="http://www.inkscape.org/namespaces/inkscape"
   xmlns:sodipodi="http://sodipodi.sourceforge.net/DTD/sodipodi-0.dtd"
   xmlns:xlink="http://www.w3.org/1999/xlink"
   xmlns="http://www.w3.org/2000/svg"
   xmlns:svg="http://www.w3.org/2000/svg">
  <sodipodi:namedview
     id="namedview1"
     pagecolor="#ffffff"
     bordercolor="#000000"
     borderopacity="0.25"
     inkscape:showpageshadow="2"
     inkscape:pageopacity="0.0"
     inkscape:pagecheckerboard="0"
     inkscape:deskcolor="#d1d1d1"
     inkscape:document-units="px"
     inkscape:zoom="3.140625"
     inkscape:cx="128"
     inkscape:cy="128"
     inkscape:window-width="1920"
     inkscape:window-height="1012"
     inkscape:window-x="0"
     inkscape:window-y="0"
     inkscape:window-maximized="1"
     inkscape:current-layer="svg1" />
  <defs
     id="defs1">
    <linearGradient
       inkscape:collect="always"
       id="linearGradient1606">
      <stop
         style="stop-color:#eaebed;stop-opacity:1;"
         offset="0"
         id="stop1602" />
      <stop
         style="stop-color:#f9fafa;stop-opacity:1;"
         offset="1"
         id="stop1604" />
    </linearGradient>
    <linearGradient
       inkscape:collect="always"
       xlink:href="#linearGradient1606"
       id="linearGradient4"
       x1="16"
       y1="30"
       x2="16"
       y2="2"
       gradientUnits="userSpaceOnUse"
       gradientTransform="scale(8)" />
    <linearGradient
       inkscape:collect="always"
       xlink:href="#linearGradient1"
       id="linearGradient4-7"
       x1="32"
       y1="60"
       x2="32"
       y2="4"
       gradientUnits="userSpaceOnUse"
       gradientTransform="scale(4)" />
    <linearGradient
       id="linearGradient1"
       inkscape:collect="always">
      <stop
         style="stop-color:#0ebb67;stop-opacity:1;"
         offset="0"
         id="stop1" />
      <stop
         style="stop-color:#0ecb6f;stop-opacity:1;"
         offset="1"
         id="stop2" />
    </linearGradient>
  </defs>
  <rect
     style="opacity:0.2;fill:#000000;stroke-width:14"
     id="rect1"
     width="224"
     height="224"
     x="16"
     y="17"
     ry="48" />
  <rect
     style="fill:url(#linearGradient4);stroke-width:8"
     id="rect2"
     width="224"
     height="224"
     x="16"
     y="16"
     ry="48" />
  <path
     d="m 127.99819,36 c -3.18242,4.8e-4 -6.23431,1.265076 -8.48438,3.515624 L 39.513812,119.51562 c -4.685084,4.68609 -4.685084,12.28267 0,16.96876 4.686084,4.68508 12.282668,4.68508 16.968752,0 L 115.99819,76.968752 V 208 c 0,6.62742 5.37258,12 12,12 6.62741,0 12,-5.37258 12,-12 V 76.968752 l 59.51563,59.515628 c 4.68608,4.68508 12.28266,4.68508 16.96874,0 4.68508,-4.68609 4.68508,-12.28267 0,-16.96876 l -80,-79.999996 C 134.2325,37.265076 131.1806,36.00048 127.99819,36 Z"
     style="fill:url(#linearGradient4-7);stroke-width:4"
     id="path1" />
  <path
     id="path5"
     style="baseline-shift:baseline;display:inline;overflow:visible;vector-effect:none;fill:#fe8f00;stroke-width:4;enable-background:accumulate;stop-color:#000000"
     d="m 110.60156,143 -15.703124,15.69531 8.203124,8.20313 7.5,-7.49219 L 122.20312,171 133.79688,159.40625 145.39844,171 l 15.70312,-15.69531 -8.20312,-8.20313 -7.5,7.49219 L 133.79688,143 122.20312,154.59375 Z" />
</svg>
