<?xml version="1.0" encoding="UTF-8" standalone="no"?>
<!-- Created with Inkscape (http://www.inkscape.org/) -->

<svg
   width="256"
   height="256"
   viewBox="0 0 256 256.00002"
   version="1.1"
   id="svg1"
   inkscape:version="1.4.3 (0d15f75042, 2025-12-25)"
   sodipodi:docname="pulseeffects.svg"
   xmlns:inkscape="http://www.inkscape.org/namespaces/inkscape"
   xmlns:sodipodi="http://sodipodi.sourceforge.net/DTD/sodipodi-0.dtd"
   xmlns:xlink="http://www.w3.org/1999/xlink"
   xmlns="http://www.w3.org/2000/svg"
   xmlns:svg="http://www.w3.org/2000/svg">
  <sodipodi:namedview
     id="namedview1"
     pagecolor="#ffffff"
     bordercolor="#000000"
     borderopacity="0.25"
     inkscape:showpageshadow="2"
     inkscape:pageopacity="0.0"
     inkscape:pagecheckerboard="0"
     inkscape:deskcolor="#d1d1d1"
     inkscape:document-units="px"
     inkscape:zoom="3.1640625"
     inkscape:cx="128"
     inkscape:cy="128"
     inkscape:window-width="1920"
     inkscape:window-height="1012"
     inkscape:window-x="0"
     inkscape:window-y="0"
     inkscape:window-maximized="1"
     inkscape:current-layer="svg1" />
  <defs
     id="defs1">
    <linearGradient
       inkscape:collect="always"
       xlink:href="#linearGradient3147"
       id="linearGradient4"
       x1="16"
       y1="30"
       x2="16"
       y2="2"
       gradientUnits="userSpaceOnUse"
       gradientTransform="scale(8)" />
    <linearGradient
       inkscape:collect="always"
       id="linearGradient3147">
      <stop
         style="stop-color:#0091f9;stop-opacity:1;"
         offset="0"
         id="stop3143" />
      <stop
         style="stop-color:#41bbff;stop-opacity:1;"
         offset="1"
         id="stop3145" />
    </linearGradient>
  </defs>
  <rect
     style="opacity:0.2;fill:#000000;stroke-width:14"
     id="rect1"
     width="224"
     height="224"
     x="16"
     y="17"
     ry="48" />
  <rect
     style="fill:url(#linearGradient4);stroke-width:8"
     id="rect2"
     width="224"
     height="224"
     x="16"
     y="16"
     ry="48" />
  <rect
     style="opacity:0.4;fill:#000000;stroke-width:15.179"
     id="rect3"
     width="16"
     height="144"
     x="56"
     y="56"
     ry="8" />
  <rect
     style="opacity:0.4;fill:#000000;stroke-width:15.179"
     id="rect4"
     width="16"
     height="144"
     x="120"
     y="56"
     ry="8" />
  <rect
     style="opacity:0.4;fill:#000000;stroke-width:4"
     id="rect5"
     width="16"
     height="144"
     x="184"
     y="56"
     ry="8" />
  <rect
     style="fill:#bef3ff;fill-opacity:1;stroke-width:8"
     id="rect5-6"
     width="16"
     height="104"
     x="56"
     y="96"
     ry="8" />
  <rect
     style="fill:#bef3ff;fill-opacity:1;stroke-width:8"
     id="rect6"
     width="16"
     height="48"
     x="120"
     y="152"
     ry="8" />
  <rect
     style="fill:#bef3ff;fill-opacity:1;stroke-width:8"
     id="rect7"
     width="16"
     height="84"
     x="184"
     y="116"
     ry="8" />
  <path
     id="path1"
     style="opacity:0.2;fill:#000000;stroke-width:6.66664"
     d="m 64,80 c -11.045696,0 -20,8.954308 -20,20 0,11.0457 8.954304,20 20,20 11.045696,0 20,-8.9543 20,-20 C 84,88.954308 75.045696,80 64,80 Z m 128,16 c -11.0457,0 -20,8.95431 -20,20 0,11.0457 8.9543,20 20,20 11.0457,0 20,-8.9543 20,-20 0,-11.04569 -8.9543,-20 -20,-20 z m -64,36 c -11.0457,0 -20,8.95431 -20,20 0,11.0457 8.9543,20 20,20 11.0457,0 20,-8.9543 20,-20 0,-11.04569 -8.9543,-20 -20,-20 z" />
  <path
     id="path2"
     style="fill:#f9f9f9;fill-opacity:1;stroke-width:32;stroke-linecap:round;stroke-linejoin:round"
     d="m 64,84 c -8.83656,0 -16,7.163444 -16,16 0,8.83656 7.16344,16 16,16 8.836548,0 16,-7.16344 16,-16 0,-8.836556 -7.163452,-16 -16,-16 z m 128,16 c -8.83656,0 -16,7.16344 -16,16 0,8.83656 7.16344,16 16,16 8.83654,0 16,-7.16344 16,-16 0,-8.83656 -7.16346,-16 -16,-16 z m -64,36 c -8.83656,0 -16,7.16344 -16,16 0,8.83656 7.16344,16 16,16 8.83655,0 16,-7.16344 16,-16 0,-8.83656 -7.16345,-16 -16,-16 z" />
</svg>
