<?xml version="1.0" encoding="UTF-8" standalone="no"?>
<!-- Created with Inkscape (http://www.inkscape.org/) -->

<svg
   width="256"
   height="256"
   viewBox="0 0 256 256.00002"
   version="1.1"
   id="svg1"
   inkscape:version="1.4.2 (ebf0e940d0, 2025-05-08)"
   sodipodi:docname="qbittorrent.svg"
   xmlns:inkscape="http://www.inkscape.org/namespaces/inkscape"
   xmlns:sodipodi="http://sodipodi.sourceforge.net/DTD/sodipodi-0.dtd"
   xmlns:xlink="http://www.w3.org/1999/xlink"
   xmlns="http://www.w3.org/2000/svg"
   xmlns:svg="http://www.w3.org/2000/svg">
  <sodipodi:namedview
     id="namedview1"
     pagecolor="#ffffff"
     bordercolor="#000000"
     borderopacity="0.25"
     inkscape:showpageshadow="2"
     inkscape:pageopacity="0.0"
     inkscape:pagecheckerboard="0"
     inkscape:deskcolor="#d1d1d1"
     inkscape:document-units="px"
     inkscape:zoom="3.1289062"
     inkscape:cx="128"
     inkscape:cy="128"
     inkscape:window-width="1920"
     inkscape:window-height="1011"
     inkscape:window-x="0"
     inkscape:window-y="0"
     inkscape:window-maximized="1"
     inkscape:current-layer="svg1" />
  <defs
     id="defs1">
    <linearGradient
       inkscape:collect="always"
       xlink:href="#linearGradient3"
       id="linearGradient4"
       x1="16"
       y1="30"
       x2="16"
       y2="2"
       gradientUnits="userSpaceOnUse"
       gradientTransform="scale(8)" />
    <linearGradient
       inkscape:collect="always"
       id="linearGradient3">
      <stop
         style="stop-color:#2092ff;stop-opacity:1;"
         offset="0"
         id="stop1" />
      <stop
         style="stop-color:#74afe1;stop-opacity:1;"
         offset="1"
         id="stop2" />
    </linearGradient>
  </defs>
  <rect
     style="opacity:0.2;fill:#000000;stroke-width:14"
     id="rect1"
     width="224"
     height="224"
     x="16"
     y="17"
     ry="48" />
  <rect
     style="fill:url(#linearGradient4);stroke-width:8"
     id="rect2"
     width="224"
     height="224"
     x="16"
     y="16"
     ry="48" />
  <path
     id="path1"
     style="fill:#a6d3fb;fill-opacity:1;stroke-width:56;stroke-linecap:round"
     d="m 81.390624,90.187504 c -6.659736,-8e-6 -12.506928,1.677072 -17.562496,5.031248 -5.00696,3.354176 -8.90104,8.050318 -11.67188,14.078118 C 49.385416,115.27606 48,122.21698 48,130.14062 c 0,7.87503 1.385448,14.83158 4.156248,20.85938 2.77084,5.97919 6.664968,10.67533 11.67188,14.07813 5.055576,3.35417 10.902752,5.03125 17.562496,5.03125 3.354176,0 6.489568,-0.49656 9.406248,-1.46876 2.96528,-0.92362 5.692704,-2.35242 8.17188,-4.29687 2.479178,-1.94445 4.637148,-4.39409 6.484378,-7.35937 h 0.15624 V 196 H 118 V 91.640624 H 105.89062 V 103.01562 H 105.75 c -1.65278,-2.86805 -3.73784,-5.24478 -6.265624,-7.14062 -2.527784,-1.895832 -5.357632,-3.310752 -8.468752,-4.234376 -3.062504,-0.972256 -6.270824,-1.45312 -9.625,-1.45312 z m 1.906248,11.078116 c 4.763904,0 8.890608,1.19617 12.390632,3.57813 3.499992,2.38195 6.197906,5.73609 8.093746,10.0625 1.89581,4.32641 2.84375,9.40102 2.84375,15.23437 0,5.78475 -0.94791,10.84548 -2.84375,15.17188 -1.89584,4.3264 -4.593746,7.68055 -8.093746,10.0625 -3.500024,2.38194 -7.626728,3.57813 -12.390632,3.57813 -4.423624,0 -8.361096,-1.09375 -11.812496,-3.28126 -3.402784,-2.18751 -6.0868,-5.42533 -8.031248,-9.70312 -1.944448,-4.2778 -2.906256,-9.55728 -2.906256,-15.82813 0,-6.31946 0.9618,-11.61284 2.906256,-15.89062 1.944448,-4.2778 4.628464,-7.51562 8.031248,-9.70313 3.4514,-2.1875 7.388872,-3.28125 11.812496,-3.28125 z" />
  <path
     d="m 172.97957,170.10452 c -3.30557,0 -6.4653,-0.48608 -9.4792,-1.45834 -3.01391,-0.92358 -5.78475,-2.35765 -8.31253,-4.3021 -2.52778,-1.94445 -4.71529,-4.39932 -6.56252,-7.3646 h -0.14584 v 11.6667 h -12.1042 V 60 h 12.39586 v 43.02097 h 0.14592 c 1.65279,-2.86806 3.71877,-5.250018 6.19795,-7.145858 2.47917,-1.895832 5.25001,-3.30556 8.31253,-4.229176 3.06251,-0.972232 6.24654,-1.458336 9.55211,-1.458336 6.70835,0 12.56601,1.677088 17.57297,5.031264 5.00696,3.354176 8.89586,8.045156 11.6667,14.072956 2.77084,5.9792 4.15626,12.9306 4.15626,20.85424 0,7.87502 -1.38544,14.82643 -4.15626,20.85423 -2.77084,5.97919 -6.65974,10.67017 -11.6667,14.07297 -5.00696,3.35417 -10.86462,5.03126 -17.57297,5.03126 z m -1.89586,-11.1563 c 4.47225,0 8.40976,-1.09381 11.81255,-3.28126 3.4028,-2.1875 6.07642,-5.42014 8.02086,-9.69794 1.94444,-4.27778 2.91668,-9.55212 2.91668,-15.82296 0,-6.31947 -0.97216,-11.6181 -2.91668,-15.89588 -1.94444,-4.2778 -4.61806,-7.51044 -8.02086,-9.69796 -3.40279,-2.1875 -7.3403,-3.28125 -11.81255,-3.28125 -4.7639,0 -8.89585,1.19097 -12.39586,3.57293 -3.50002,2.38195 -6.19794,5.73612 -8.09378,10.06252 -1.89584,4.32641 -2.84375,9.40628 -2.84375,15.23964 0,5.78474 0.94794,10.84031 2.84375,15.16672 1.89584,4.3264 4.59376,7.68058 8.09378,10.06252 3.50001,2.38195 7.63196,3.57293 12.39586,3.57292 z"
     style="fill:#ffffff;stroke-width:56;stroke-linecap:round"
     id="path2" />
</svg>
