<?xml version="1.0" encoding="UTF-8" standalone="no"?>
<!-- Created with Inkscape (http://www.inkscape.org/) -->

<svg
   width="256"
   height="256"
   viewBox="0 0 256 256.00002"
   version="1.1"
   id="svg1"
   inkscape:version="1.4.2 (1:1.4.2+202505120737+ebf0e940d0)"
   sodipodi:docname="rnote.svg"
   xmlns:inkscape="http://www.inkscape.org/namespaces/inkscape"
   xmlns:sodipodi="http://sodipodi.sourceforge.net/DTD/sodipodi-0.dtd"
   xmlns:xlink="http://www.w3.org/1999/xlink"
   xmlns="http://www.w3.org/2000/svg"
   xmlns:svg="http://www.w3.org/2000/svg">
  <sodipodi:namedview
     id="namedview1"
     pagecolor="#ffffff"
     bordercolor="#000000"
     borderopacity="0.25"
     inkscape:showpageshadow="2"
     inkscape:pageopacity="0.0"
     inkscape:pagecheckerboard="0"
     inkscape:deskcolor="#d1d1d1"
     inkscape:document-units="px"
     inkscape:zoom="3.1523438"
     inkscape:cx="128"
     inkscape:cy="128"
     inkscape:window-width="1920"
     inkscape:window-height="1016"
     inkscape:window-x="0"
     inkscape:window-y="0"
     inkscape:window-maximized="1"
     inkscape:current-layer="svg1" />
  <defs
     id="defs1">
    <linearGradient
       inkscape:collect="always"
       id="linearGradient1606">
      <stop
         style="stop-color:#eaebed;stop-opacity:1;"
         offset="0"
         id="stop1602" />
      <stop
         style="stop-color:#f9fafa;stop-opacity:1;"
         offset="1"
         id="stop1604" />
    </linearGradient>
    <linearGradient
       inkscape:collect="always"
       xlink:href="#linearGradient1606"
       id="linearGradient4"
       x1="16"
       y1="30"
       x2="16"
       y2="2"
       gradientUnits="userSpaceOnUse"
       gradientTransform="scale(8)" />
    <linearGradient
       inkscape:collect="always"
       xlink:href="#linearGradient1"
       id="linearGradient6"
       x1="11.000003"
       y1="13.000074"
       x2="11.000003"
       y2="3"
       gradientUnits="userSpaceOnUse"
       gradientTransform="matrix(15.999872,0,0,15.999872,8.000512,3.832e-4)" />
    <linearGradient
       id="linearGradient1"
       inkscape:collect="always">
      <stop
         style="stop-color:#2e2e2e;stop-opacity:1;"
         offset="0"
         id="stop1" />
      <stop
         style="stop-color:#565656;stop-opacity:1;"
         offset="1"
         id="stop2" />
    </linearGradient>
  </defs>
  <rect
     style="opacity:0.2;fill:#000000;stroke-width:14"
     id="rect1"
     width="224"
     height="224"
     x="16"
     y="17"
     ry="48" />
  <rect
     style="fill:url(#linearGradient4);stroke-width:8"
     id="rect2"
     width="224"
     height="224"
     x="16"
     y="16"
     ry="48" />
  <path
     d="m 174.64506,83.802456 c -0.304,-2.524416 1.5936,-6.519216 1.33904,-11.957808 -0.26288,-5.447448 -2.85051,-13.038444 -13.4721,-18.547884 -0.18896,-0.09744 -0.37776,-0.19496 -0.57504,-0.29228 -6.90857,-3.436748 -16.97975,-5.899176 -28.72678,-4.694532 -9.12652,0.9389 -18.60628,4.047936 -27.54386,9.53082 -8.042192,4.915976 -15.451832,11.64778 -21.464984,19.973964 -3.53232,5.234864 -6.612832,11.160632 -8.814376,17.555832 -0.952904,2.763592 -1.741512,5.624602 -2.332968,8.547622 -0.764,3.79993 -1.18284,7.95415 -1.0186,12.3387 0.43536,6.95324 2.357608,14.55309 6.653896,21.39117 2.02904,3.24191 4.550936,6.18265 7.467152,8.63622 2.899792,2.45354 6.218528,4.43766 9.841208,5.73974 5.807792,2.04612 11.517002,2.04612 16.240442,1.27552 2.50549,-0.40752 4.80559,-1.03632 6.83463,-1.7361 2.50547,-0.8592 4.80558,-1.85126 6.62102,-2.69272 3.95949,-1.86899 7.67256,-4.10997 10.62983,-5.91693 2.95729,-1.80696 5.85707,-3.62277 8.64185,-5.09314 1.65937,-0.85039 3.63089,-1.79808 5.57777,-2.51556 0.5176,-0.18592 1.03503,-0.3632 1.55263,-0.51376 1.93866,-0.57568 3.85271,-0.83263 5.55312,-0.64656 1.45392,0.1504 2.68623,0.66432 3.5159,1.29327 0.35312,0.2392 0.65712,0.57568 0.91183,0.93007 0.22176,0.32784 0.3696,0.63792 0.45184,0.80607 0.0912,0.21248 0.1408,0.64656 -0.0176,1.27552 -0.1488,0.6376 -0.46816,1.37294 -0.96112,2.1081 -0.50928,0.75296 -1.21566,1.53231 -2.16866,2.33842 -0.93647,0.77952 -2.05367,1.54127 -3.35159,2.27641 -2.85051,1.47919 -5.68456,2.47127 -9.66869,4.07451 -3.61447,1.45263 -7.92719,3.33045 -11.9688,6.30662 -2.11939,1.6121 -4.23879,3.62278 -6.06245,6.05862 -1.81546,2.43586 -3.39268,5.37659 -4.27163,8.82221 -0.78864,3.44562 -0.82975,7.27213 0.22992,10.94804 0.53392,1.86898 1.35534,3.64049 2.4069,5.21715 1.06799,1.5944 2.4069,3.03818 3.99234,4.18966 2.81763,2.01954 5.92278,2.7636 8.60899,2.84332 h 0.91183 c 2.27547,-0.0608 4.44415,-0.56688 6.4239,-1.28432 2.07009,-0.68192 3.94305,-1.60324 5.55313,-2.41814 1.64294,-0.84142 2.90799,-1.52334 4.23056,-2.0904 1.2075,-0.57568 2.25904,-0.94766 3.21195,-1.10734 0.90352,-0.1504 1.64295,-0.08 2.17689,0.08 0.23824,0.0704 0.45184,0.186 0.62432,0.30128 0.16432,0.1152 0.27936,0.22144 0.3368,0.27472 0.0912,0.0448 0.17264,0.1152 0.22992,0.1344 0.0656,0 0.1232,0.0368 0.20544,0.018 0.0736,-0.018 0,0.26576 -0.29584,0.63792 -0.34496,0.43408 -0.84607,0.86798 -1.61828,1.51454 -0.74752,0.6112 -1.76618,1.4171 -2.69444,2.40928 -1.02671,1.08942 -2.02904,2.47126 -2.64512,4.18082 -0.61616,1.72722 -0.71472,3.49874 -0.46,5.0577 0.29584,1.8158 1.07614,3.30388 1.97974,4.35796 1.21582,1.43486 2.6287,2.0461 3.67195,2.2144 0.25456,0.0368 0.4928,0.0528 0.71472,0.0448 1.85651,-0.0704 2.60405,-1.60324 2.93263,-2.05496 -0.46,-0.46944 -0.92831,-1.6741 -1.2979,-2.7016 -0.0416,-0.1152 -0.0816,-0.22144 -0.1152,-0.33664 -0.1488,-0.45168 -0.2792,-0.94766 -0.2464,-1.39054 0.0176,-0.31888 0.0912,-0.65536 0.23008,-0.868 0.1152,-0.186 0.27936,-0.3544 0.4272,-0.41632 0.1488,-0.0704 0.3944,-0.28352 0.83791,-0.57568 0.5504,-0.3544 0.93663,-0.55792 1.91404,-1.12494 0.764,-0.43408 1.8976,-1.10736 2.98193,-2.01956 1.0843,-0.9123 2.33297,-2.24098 3.22016,-4.09222 0.78864,-1.65638 1.17471,-3.48992 1.17471,-5.29688 0.008,-1.80694 -0.3696,-3.56076 -1.02671,-5.12856 -0.68992,-1.57662 -1.64294,-2.92303 -2.72729,-4.03022 -1.09247,-1.11616 -2.33297,-2.00184 -3.63088,-2.66616 -2.60408,-1.31983 -5.34777,-1.69181 -7.75468,-1.59439 -2.48905,0.0976 -4.77273,0.69984 -6.65389,1.33743 -1.85652,0.67328 -3.77876,1.55904 -5.14241,2.15242 -1.56895,0.68208 -2.77655,1.15151 -3.9184,1.43486 -1.07615,0.20368 -1.88938,0.18592 -2.48085,0.0448 -0.0736,-0.0176 -0.1472,-0.0368 -0.22176,-0.0608 -0.59968,-0.20368 -0.92815,-0.55792 -0.83791,-0.7352 0.0496,-0.0704 0.0576,-0.16 0.0736,-0.31008 0.0176,-0.1408 0.032,-0.30128 0.0992,-0.44288 0.0992,-0.30128 0.26272,-0.82383 0.59984,-1.31087 0.2464,-0.54032 0.65712,-1.15151 1.3307,-1.8424 0.68992,-0.70864 1.59359,-1.42606 2.678,-2.06382 2.18511,-1.41711 4.78918,-2.47127 8.16541,-3.61391 3.12157,-1.06287 7.40142,-2.365 11.33627,-4.12766 2.11939,-0.90351 4.32093,-2.01069 6.45675,-3.4102 2.18511,-1.42606 4.34556,-3.17989 6.31708,-5.35 2.04548,-2.26755 3.81985,-4.94257 5.12598,-7.93645 1.33903,-3.08245 2.20974,-6.58121 2.29189,-10.328 0.0816,-3.69475 -0.61616,-7.18466 -1.78253,-10.2671 -1.19935,-3.19934 -2.94908,-6.06922 -5.03561,-8.46963 -4.4195,-5.08429 -10.01369,-7.84788 -15.04109,-9.04365 -5.82421,-1.39059 -11.28699,-0.87695 -15.4847,0.0802 -1.16654,0.27464 -2.26724,0.57576 -3.29408,0.90353 -3.87734,1.23119 -7.0975,2.8876 -9.35655,4.17196 -3.67197,2.04612 -7.3275,4.53512 -9.81655,6.17377 -2.89157,1.90439 -5.4792,3.55191 -8.07504,4.81856 -1.15833,0.57568 -2.42339,1.08943 -3.73773,1.44383 -1.05145,0.27472 -2.07832,0.46064 -3.08872,0.51376 -1.93047,0.1072 -3.55698,-0.26576 -4.65773,-0.94768 -0.6408,-0.372 -1.2979,-0.91232 -1.8976,-1.62095 -0.59976,-0.71744 -1.10897,-1.55005 -1.45394,-2.43589 -0.78864,-1.9664 -1.03511,-4.34911 -0.69,-6.6078 0.091,-1.40835 0.37784,-2.82559 0.8297,-4.23395 0.3532,-1.08951 0.83786,-2.1967 1.45395,-3.31275 1.44579,-2.62186 3.54054,-5.10202 5.99674,-7.23669 3.81981,-3.799942 8.28861,-6.545798 12.82313,-8.32619 5.04381,-1.984112 9.87404,-2.666152 14.11283,-2.701576 5.42169,-0.036 10.27661,0.965464 14.07998,1.443736 0.1072,0.0088 0.2136,0.0264 0.32032,0.036 6.01317,0.71752 10.62159,-0.7972 14.71251,-2.905312 3.96769,-2.037248 7.51647,-4.791976 9.7344,-4.80968 z"
     style="fill:url(#linearGradient6);stroke-width:15.9998"
     id="path1-5" />
</svg>
