<?xml version="1.0" encoding="UTF-8" standalone="no"?>
<!-- Created with Inkscape (http://www.inkscape.org/) -->

<svg
   width="256"
   height="256"
   viewBox="0 0 256 256.00002"
   version="1.1"
   id="svg1"
   inkscape:version="1.4.3 (0d15f75042, 2025-12-25)"
   sodipodi:docname="vmware-workstation.svg"
   xmlns:inkscape="http://www.inkscape.org/namespaces/inkscape"
   xmlns:sodipodi="http://sodipodi.sourceforge.net/DTD/sodipodi-0.dtd"
   xmlns:xlink="http://www.w3.org/1999/xlink"
   xmlns="http://www.w3.org/2000/svg"
   xmlns:svg="http://www.w3.org/2000/svg">
  <sodipodi:namedview
     id="namedview1"
     pagecolor="#ffffff"
     bordercolor="#000000"
     borderopacity="0.25"
     inkscape:showpageshadow="2"
     inkscape:pageopacity="0.0"
     inkscape:pagecheckerboard="0"
     inkscape:deskcolor="#d1d1d1"
     inkscape:document-units="px"
     inkscape:zoom="3.1171875"
     inkscape:cx="127.8396"
     inkscape:cy="128"
     inkscape:window-width="1854"
     inkscape:window-height="1011"
     inkscape:window-x="0"
     inkscape:window-y="0"
     inkscape:window-maximized="1"
     inkscape:current-layer="svg1" />
  <defs
     id="defs1">
    <linearGradient
       inkscape:collect="always"
       id="linearGradient1606">
      <stop
         style="stop-color:#eaebed;stop-opacity:1;"
         offset="0"
         id="stop1602" />
      <stop
         style="stop-color:#f9fafa;stop-opacity:1;"
         offset="1"
         id="stop1604" />
    </linearGradient>
    <linearGradient
       inkscape:collect="always"
       xlink:href="#linearGradient1606"
       id="linearGradient4"
       x1="16"
       y1="30"
       x2="16"
       y2="2"
       gradientUnits="userSpaceOnUse"
       gradientTransform="scale(8)" />
  </defs>
  <rect
     style="opacity:0.2;fill:#000000;stroke-width:14"
     id="rect1"
     width="224"
     height="224"
     x="16"
     y="17"
     ry="48" />
  <rect
     style="fill:url(#linearGradient4);stroke-width:8"
     id="rect2"
     width="224"
     height="224"
     x="16"
     y="16"
     ry="47.999996" />
  <path
     d="M 63.999996,88 C 55.136,88 48,95.135996 48,104 v 88 c 0,8.864 7.136,16 15.999996,16 H 152 c 8.864,0 16,-7.136 16,-16 v -88 c 0,-8.864004 -7.136,-16 -16,-16 z M 80,112 h 56 c 4.432,0 8,3.568 8,8 v 56 c 0,4.432 -3.568,8 -8,8 H 80 c -4.432,0 -8,-3.568 -8,-8 v -56 c 0,-4.432 3.568,-8 8,-8 z"
     style="fill:#f38b00;fill-opacity:1;stroke-width:32;stroke-linecap:square"
     id="path1718"
     sodipodi:nodetypes="ssssssssssssssssss" />
  <path
     id="path1690"
     style="fill:#0097d3;fill-opacity:1;stroke-width:32;stroke-linecap:square"
     d="M 104,48 C 95.135996,48 88,55.136008 88,63.999996 V 88 h 24 v -8 c 0,-4.431992 3.568,-8 8,-8 h 56 c 4.432,0 8,3.568008 8,8 v 56 c 0,4.43199 -3.568,8 -8,8 h -56 c -4.432,0 -8,-3.56801 -8,-8 V 112 H 88 v 40 c 0,8.86399 7.135996,16 16,16 h 88 c 8.864,0 16,-7.13601 16,-16 V 63.999996 C 208,55.136008 200.864,48 192,48 Z"
     sodipodi:nodetypes="ssccssssssssccsssssss" />
</svg>
