<?xml version="1.0" encoding="UTF-8" standalone="no"?>
<!-- Created with Inkscape (http://www.inkscape.org/) -->

<svg
   width="256"
   height="256"
   viewBox="0 0 256 256.00002"
   version="1.1"
   id="svg1"
   inkscape:version="1.4.2 (ebf0e940d0, 2025-05-08)"
   sodipodi:docname="wine.svg"
   xmlns:inkscape="http://www.inkscape.org/namespaces/inkscape"
   xmlns:sodipodi="http://sodipodi.sourceforge.net/DTD/sodipodi-0.dtd"
   xmlns:xlink="http://www.w3.org/1999/xlink"
   xmlns="http://www.w3.org/2000/svg"
   xmlns:svg="http://www.w3.org/2000/svg">
  <sodipodi:namedview
     id="namedview1"
     pagecolor="#ffffff"
     bordercolor="#000000"
     borderopacity="0.25"
     inkscape:showpageshadow="2"
     inkscape:pageopacity="0.0"
     inkscape:pagecheckerboard="0"
     inkscape:deskcolor="#d1d1d1"
     inkscape:document-units="px"
     inkscape:zoom="3.1132812"
     inkscape:cx="128"
     inkscape:cy="128"
     inkscape:window-width="1920"
     inkscape:window-height="1011"
     inkscape:window-x="0"
     inkscape:window-y="0"
     inkscape:window-maximized="1"
     inkscape:current-layer="svg1" />
  <defs
     id="defs1">
    <linearGradient
       inkscape:collect="always"
       id="linearGradient1606">
      <stop
         style="stop-color:#eaebed;stop-opacity:1;"
         offset="0"
         id="stop1602" />
      <stop
         style="stop-color:#f9fafa;stop-opacity:1;"
         offset="1"
         id="stop1604" />
    </linearGradient>
    <linearGradient
       inkscape:collect="always"
       xlink:href="#linearGradient1606"
       id="linearGradient4"
       x1="16"
       y1="30"
       x2="16"
       y2="2"
       gradientUnits="userSpaceOnUse"
       gradientTransform="scale(8)" />
    <linearGradient
       inkscape:collect="always"
       xlink:href="#linearGradient1694"
       id="linearGradient2"
       x1="32"
       y1="38"
       x2="31.998047"
       y2="14"
       gradientUnits="userSpaceOnUse"
       gradientTransform="scale(4)" />
    <linearGradient
       inkscape:collect="always"
       id="linearGradient1694">
      <stop
         style="stop-color:#940e0e;stop-opacity:1;"
         offset="0"
         id="stop1690" />
      <stop
         style="stop-color:#d17979;stop-opacity:1;"
         offset="1"
         id="stop1692" />
    </linearGradient>
    <linearGradient
       id="linearGradient3"
       inkscape:collect="always">
      <stop
         style="stop-color:#98a9ad;stop-opacity:1;"
         offset="0"
         id="stop3" />
      <stop
         style="stop-color:#c4c8cd;stop-opacity:1;"
         offset="1"
         id="stop4" />
    </linearGradient>
    <linearGradient
       inkscape:collect="always"
       xlink:href="#linearGradient3"
       id="linearGradient5"
       x1="32"
       y1="52"
       x2="32"
       y2="12"
       gradientUnits="userSpaceOnUse"
       gradientTransform="scale(4)" />
  </defs>
  <rect
     style="opacity:0.2;fill:#000000;stroke-width:14"
     id="rect1"
     width="224"
     height="224"
     x="16"
     y="17"
     ry="48" />
  <rect
     style="fill:url(#linearGradient4);stroke-width:8"
     id="rect2"
     width="224"
     height="224"
     x="16"
     y="16"
     ry="48" />
  <path
     id="path1"
     style="fill:url(#linearGradient5);stroke-width:16"
     d="m 128,48 c -19.01145,0.0172 -30.785336,3.528236 -40,8 v 64 c 0,20.80942 15.73218,37.80991 36,39.80469 V 192.125 c -11.53284,0.6498 -19.98084,3.9762 -20,7.875 0,4.41828 10.74517,8 24,8 13.25483,0 24,-3.58172 24,-8 -0.008,-3.90176 -8.45844,-7.23252 -20,-7.88282 V 159.80469 C 152.26782,157.80991 168,140.80942 168,120 V 56 c -9.21466,-4.471768 -20.98855,-7.982696 -40,-8 z m -0.008,8 h 0.0156 c 15.23544,0.0156 24.37,2.489084 31.9924,5.617188 V 120 c 0,17.72794 -14.27206,32 -32,32 -17.72794,0 -32,-14.27206 -32,-32 V 61.617188 C 103.62242,58.489056 112.7574,56.0156 127.99219,56 Z" />
  <path
     d="m 146,88 c 5.57779,-0.09504 10.97265,4.584656 14,8 v 24 c 0,17.72794 -14.27206,32 -32,32 -17.72794,0 -32,-14.27206 -32,-32 V 96 c 1.411432,2.511424 9.16348,8 18,8 8.83652,0 15.37326,-5.491752 18,-8 2.14046,-2.047072 9.7928,-8.045216 14,-8 z"
     style="fill:url(#linearGradient2);stroke-width:16"
     id="path2" />
</svg>
