<?xml version="1.0" encoding="UTF-8" standalone="no"?>
<!-- Created with Inkscape (http://www.inkscape.org/) -->

<svg
   width="256"
   height="256"
   viewBox="0 0 256 256.00002"
   version="1.1"
   id="svg1"
   inkscape:version="1.4.4 (dcaf3e7d9e, 2026-05-05)"
   sodipodi:docname="winetricks.svg"
   xmlns:inkscape="http://www.inkscape.org/namespaces/inkscape"
   xmlns:sodipodi="http://sodipodi.sourceforge.net/DTD/sodipodi-0.dtd"
   xmlns:xlink="http://www.w3.org/1999/xlink"
   xmlns="http://www.w3.org/2000/svg"
   xmlns:svg="http://www.w3.org/2000/svg">
  <sodipodi:namedview
     id="namedview1"
     pagecolor="#ffffff"
     bordercolor="#000000"
     borderopacity="0.25"
     inkscape:showpageshadow="2"
     inkscape:pageopacity="0.0"
     inkscape:pagecheckerboard="0"
     inkscape:deskcolor="#d1d1d1"
     inkscape:document-units="px"
     inkscape:zoom="2.265625"
     inkscape:cx="127.77931"
     inkscape:cy="128"
     inkscape:window-width="1440"
     inkscape:window-height="831"
     inkscape:window-x="0"
     inkscape:window-y="0"
     inkscape:window-maximized="1"
     inkscape:current-layer="svg1" />
  <defs
     id="defs1">
    <linearGradient
       inkscape:collect="always"
       id="linearGradient1606">
      <stop
         style="stop-color:#eaebed;stop-opacity:1;"
         offset="0"
         id="stop1602" />
      <stop
         style="stop-color:#f9fafa;stop-opacity:1;"
         offset="1"
         id="stop1604" />
    </linearGradient>
    <linearGradient
       inkscape:collect="always"
       xlink:href="#linearGradient1606"
       id="linearGradient4"
       x1="16"
       y1="30"
       x2="16"
       y2="2"
       gradientUnits="userSpaceOnUse"
       gradientTransform="scale(8)" />
    <linearGradient
       inkscape:collect="always"
       xlink:href="#linearGradient1694"
       id="linearGradient2"
       x1="32"
       y1="38"
       x2="31.998047"
       y2="14"
       gradientUnits="userSpaceOnUse"
       gradientTransform="scale(4)" />
    <linearGradient
       inkscape:collect="always"
       id="linearGradient1694">
      <stop
         style="stop-color:#940e0e;stop-opacity:1;"
         offset="0"
         id="stop1690" />
      <stop
         style="stop-color:#d17979;stop-opacity:1;"
         offset="1"
         id="stop1692" />
    </linearGradient>
    <linearGradient
       id="linearGradient3"
       inkscape:collect="always">
      <stop
         style="stop-color:#98a9ad;stop-opacity:1;"
         offset="0"
         id="stop3" />
      <stop
         style="stop-color:#c4c8cd;stop-opacity:1;"
         offset="1"
         id="stop4" />
    </linearGradient>
    <linearGradient
       inkscape:collect="always"
       xlink:href="#linearGradient3"
       id="linearGradient5"
       x1="32"
       y1="52"
       x2="32"
       y2="12"
       gradientUnits="userSpaceOnUse"
       gradientTransform="scale(4)" />
    <linearGradient
       inkscape:collect="always"
       xlink:href="#linearGradient2205"
       id="linearGradient5187"
       x1="-12.832299"
       y1="-13.981112"
       x2="-14.419785"
       y2="-14.014091"
       gradientUnits="userSpaceOnUse" />
    <linearGradient
       inkscape:collect="always"
       xlink:href="#linearGradient950-6"
       id="linearGradient5250"
       x1="12.472872"
       y1="6.6415358"
       x2="14.060357"
       y2="6.6415358"
       gradientUnits="userSpaceOnUse"
       gradientTransform="translate(0.35942789,-1.0853405)" />
    <linearGradient
       inkscape:collect="always"
       id="linearGradient2205">
      <stop
         style="stop-color:#818181;stop-opacity:1"
         offset="0"
         id="stop2201" />
      <stop
         style="stop-color:#404040;stop-opacity:1"
         offset="1"
         id="stop2203" />
    </linearGradient>
    <linearGradient
       inkscape:collect="always"
       id="linearGradient950-6">
      <stop
         style="stop-color:#dddddd;stop-opacity:1;"
         offset="0"
         id="stop946-0" />
      <stop
         style="stop-color:#939393;stop-opacity:1;"
         offset="1"
         id="stop948-6" />
    </linearGradient>
  </defs>
  <rect
     style="opacity:0.2;fill:#000000;stroke-width:14"
     id="rect1"
     width="224"
     height="224"
     x="16"
     y="17"
     ry="48" />
  <rect
     style="fill:url(#linearGradient4);stroke-width:8"
     id="rect2"
     width="224"
     height="224"
     x="16"
     y="16"
     ry="48" />
  <path
     id="path1"
     style="fill:url(#linearGradient5);stroke-width:16"
     d="m 128,48 c -19.01145,0.0172 -30.785336,3.528236 -40,8 v 64 c 0,20.80942 15.73218,37.80991 36,39.80469 V 192.125 c -11.53284,0.6498 -19.98084,3.9762 -20,7.875 0,4.41828 10.74517,8 24,8 13.25483,0 24,-3.58172 24,-8 -0.008,-3.90176 -8.45844,-7.23252 -20,-7.88282 V 159.80469 C 152.26782,157.80991 168,140.80942 168,120 V 56 c -9.21466,-4.471768 -20.98855,-7.982696 -40,-8 z m -0.008,8 h 0.0156 c 15.23544,0.0156 24.37,2.489084 31.9924,5.617188 V 120 c 0,17.72794 -14.27206,32 -32,32 -17.72794,0 -32,-14.27206 -32,-32 V 61.617188 C 103.62242,58.489056 112.7574,56.0156 127.99219,56 Z" />
  <path
     d="m 146,88 c 5.57779,-0.09504 10.97265,4.584656 14,8 v 24 c 0,17.72794 -14.27206,32 -32,32 -17.72794,0 -32,-14.27206 -32,-32 V 96 c 1.411432,2.511424 9.16348,8 18,8 8.83652,0 15.37326,-5.491752 18,-8 2.14046,-2.047072 9.7928,-8.045216 14,-8 z"
     style="fill:url(#linearGradient2);stroke-width:16"
     id="path2" />
  <path
     id="rect1693"
     style="opacity:0.7;fill:#fed946;fill-opacity:1;stroke-width:8"
     d="m 112.00683,96 c 0,8.83665 -7.16351,16.00016 -16.000146,16.00015 8.836636,0 16.000146,7.16351 16.000146,16.00015 0,-8.83664 7.16351,-16.00015 16.00015,-16.00015 -8.83664,0 -16.00015,-7.16351 -16.00015,-16.00015 z"
     sodipodi:nodetypes="ccccc" />
  <path
     d="m 140.00668,120 c 0,6.62742 -5.37258,12 -12,12 6.62742,0 12,5.37258 12,11.99999 0,-6.62741 5.37259,-11.99999 12,-11.99999 -6.62741,0 -12,-5.37258 -12,-12 z"
     style="opacity:0.7;fill:#fed946;fill-opacity:1;stroke-width:1.58749"
     id="path4839" />
  <g
     id="g2705"
     transform="matrix(10.690218,10.690218,-10.690218,10.690218,114.39834,-86.913872)">
    <path
       id="rect4814"
       style="opacity:1;fill:url(#linearGradient5187);stroke-width:1.58749;stroke-linecap:round;stroke-linejoin:round"
       d="m -12.978733,-6.7976533 c 0.09069,-0.088558 0.146893,-0.2039788 0.146893,-0.3456723 v -7.9380404 c 0,-0.293156 -0.23595,-0.529105 -0.529106,-0.529105 h -0.529105 c -0.293155,0 -0.529836,0.23668 -0.529836,0.529836 v 7.9365785 c 0,0.6140056 1.048158,0.7301567 1.441154,0.3464032 z"
       transform="scale(-1)" />
    <path
       id="rect5241"
       style="opacity:1;fill:url(#linearGradient5250);stroke-width:1.58749;stroke-linecap:round;stroke-linejoin:round"
       d="m 13.361461,3.9688034 0.529162,10e-8 c 0.293156,5e-7 0.529162,0.2360065 0.529162,0.5291621 v 2.6456213 l -1.587485,-3e-7 V 4.4979659 c 0,-0.2931562 0.236006,-0.5291623 0.529161,-0.5291625 z"
       sodipodi:nodetypes="sssccss" />
  </g>
  <path
     d="m 144.00668,72 c 0,8.836556 -7.16344,16.000004 -16,15.999996 8.83656,0 16,7.163448 16,16.000004 0,-8.836556 7.16344,-16.000004 16,-16.000004 -8.83656,0 -16,-7.16344 -16,-15.999996 z"
     style="opacity:0.7;fill:#fed946;fill-opacity:1;stroke-width:2.11666"
     id="path5282" />
</svg>
