<?xml version="1.0" encoding="UTF-8" standalone="no"?>
<!-- Created with Inkscape (http://www.inkscape.org/) -->

<svg
   width="256"
   height="256"
   viewBox="0 0 256 256.00002"
   version="1.1"
   id="svg1"
   inkscape:version="1.4.3 (0d15f75042, 2025-12-25)"
   sodipodi:docname="xbox.svg"
   xmlns:inkscape="http://www.inkscape.org/namespaces/inkscape"
   xmlns:sodipodi="http://sodipodi.sourceforge.net/DTD/sodipodi-0.dtd"
   xmlns:xlink="http://www.w3.org/1999/xlink"
   xmlns="http://www.w3.org/2000/svg"
   xmlns:svg="http://www.w3.org/2000/svg">
  <sodipodi:namedview
     id="namedview1"
     pagecolor="#ffffff"
     bordercolor="#000000"
     borderopacity="0.25"
     inkscape:showpageshadow="2"
     inkscape:pageopacity="0.0"
     inkscape:pagecheckerboard="0"
     inkscape:deskcolor="#d1d1d1"
     inkscape:document-units="px"
     inkscape:zoom="3.1171875"
     inkscape:cx="127.8396"
     inkscape:cy="128"
     inkscape:window-width="1854"
     inkscape:window-height="1011"
     inkscape:window-x="0"
     inkscape:window-y="0"
     inkscape:window-maximized="1"
     inkscape:current-layer="svg1" />
  <defs
     id="defs1">
    <linearGradient
       inkscape:collect="always"
       xlink:href="#linearGradient1"
       id="linearGradient4"
       x1="16"
       y1="30"
       x2="16"
       y2="2"
       gradientUnits="userSpaceOnUse"
       gradientTransform="scale(8)" />
    <linearGradient
       id="linearGradient1"
       inkscape:collect="always">
      <stop
         style="stop-color:#0f670f;stop-opacity:1;"
         offset="0"
         id="stop1" />
      <stop
         style="stop-color:#42ab16;stop-opacity:1;"
         offset="1"
         id="stop2" />
    </linearGradient>
  </defs>
  <rect
     style="opacity:0.2;fill:#000000;stroke-width:14"
     id="rect1"
     width="224"
     height="224"
     x="16"
     y="17"
     ry="48" />
  <rect
     style="fill:url(#linearGradient4);stroke-width:8"
     id="rect2"
     width="224"
     height="224"
     x="16"
     y="16"
     ry="48" />
  <path
     d="m 120.02228,207.67138 c -12.32552,-1.1802 -24.803528,-5.60362 -35.522344,-12.59374 -8.98194,-5.85454 -11.008912,-8.26512 -11.008912,-13.06956 0,-9.65162 10.6184,-26.55915 28.786816,-45.82891 10.31528,-10.94706 24.68639,-23.77128 26.23916,-23.42558 3.02374,0.67472 27.18012,24.22476 36.22529,35.31305 14.30043,17.52645 20.87231,31.88213 17.53245,38.28124 -2.53839,4.8639 -18.29303,14.37242 -29.86541,18.02452 -9.53983,3.0109 -22.06805,4.2859 -32.38705,3.29898 z M 61.358892,171.9736 c -7.464496,-11.44515 -11.235788,-22.71188 -13.054488,-39.00793 -0.602516,-5.3806 -0.39052,-8.45655 1.363096,-19.50396 2.181328,-13.753514 10.023316,-29.681562 19.45156,-39.476286 4.013052,-4.163228 4.370092,-4.27474 9.2646,-2.620604 5.93218,2.007272 12.27346,6.386092 22.11081,15.277548 l 5.74622,5.19288 -3.14275,3.847264 c -14.557072,17.860978 -29.9212,43.193458 -35.704596,58.861298 -3.142752,8.51231 -4.407284,17.06179 -3.049764,20.62097 0.911208,2.405 0.0744,1.50917 -2.993984,-3.18561 z m 131.015408,1.94594 c 0.73832,-3.59822 -0.1952,-10.20362 -2.3803,-16.86851 -4.73274,-14.43188 -20.55619,-41.27909 -35.08535,-59.534098 l -4.57466,-5.74674 4.9503,-4.540512 c 6.4603,-5.928876 10.94568,-9.478768 15.78811,-12.495248 3.8178,-2.37898 9.27578,-4.484764 11.6226,-4.484764 1.44492,0 6.5384,5.296968 10.64816,11.058568 6.3673,8.9212 11.04982,19.756724 13.42268,31.019734 1.53418,7.28565 1.6625,22.86056 0.24736,30.12762 -1.17154,5.96233 -3.62624,13.69032 -6.00654,18.93337 -1.80382,3.9272 -6.2483,11.55668 -8.20088,14.03974 -1.00422,1.27685 -1.00422,1.27498 -0.44636,-1.47943 z M 121.34261,67.524992 c -6.70577,-3.401204 -17.04895,-7.053324 -22.761682,-8.038364 -2.00094,-0.34384 -5.417052,-0.538976 -7.58722,-0.427464 -4.715984,0.23792 -4.50584,-0.0076 3.055348,-3.577776 6.285484,-2.96816 11.529614,-4.713368 18.651934,-6.207672 8.00563,-1.682016 23.05921,-1.700596 30.9384,-0.04108 8.50773,1.793528 18.5292,5.519984 24.17498,8.995536 l 1.6811,1.029652 -3.84941,-0.19328 c -7.65417,-0.38628 -18.80814,2.704492 -30.78405,8.525568 -3.61137,1.75822 -6.7504,3.159588 -6.98099,3.122416 -0.22876,-0.0448 -3.17251,-1.477572 -6.54585,-3.187468 z"
     style="fill:#ffffff;stroke-width:8"
     id="path1" />
</svg>
