<?xml version="1.0" encoding="UTF-8" standalone="no"?>
<!-- Created with Inkscape (http://www.inkscape.org/) -->

<svg
   width="32"
   height="32"
   viewBox="0 0 32 32.000002"
   version="1.1"
   id="svg1"
   inkscape:version="1.4.3 (0d15f75042, 2025-12-25)"
   sodipodi:docname="accessories-ebook-reader.svg"
   xmlns:inkscape="http://www.inkscape.org/namespaces/inkscape"
   xmlns:sodipodi="http://sodipodi.sourceforge.net/DTD/sodipodi-0.dtd"
   xmlns:xlink="http://www.w3.org/1999/xlink"
   xmlns="http://www.w3.org/2000/svg"
   xmlns:svg="http://www.w3.org/2000/svg">
  <sodipodi:namedview
     id="namedview1"
     pagecolor="#ffffff"
     bordercolor="#000000"
     borderopacity="0.25"
     inkscape:showpageshadow="2"
     inkscape:pageopacity="0.0"
     inkscape:pagecheckerboard="0"
     inkscape:deskcolor="#d1d1d1"
     inkscape:document-units="px"
     inkscape:zoom="24.9375"
     inkscape:cx="15.97995"
     inkscape:cy="16"
     inkscape:window-width="1920"
     inkscape:window-height="1011"
     inkscape:window-x="0"
     inkscape:window-y="0"
     inkscape:window-maximized="1"
     inkscape:current-layer="svg1" />
  <defs
     id="defs1">
    <linearGradient
       inkscape:collect="always"
       xlink:href="#linearGradient3788"
       id="linearGradient4"
       x1="16"
       y1="30"
       x2="16"
       y2="2"
       gradientUnits="userSpaceOnUse" />
    <linearGradient
       inkscape:collect="always"
       id="linearGradient3788">
      <stop
         style="stop-color:#ff7c15;stop-opacity:1;"
         offset="0"
         id="stop3784" />
      <stop
         style="stop-color:#f9bd00;stop-opacity:1;"
         offset="1"
         id="stop3786" />
    </linearGradient>
  </defs>
  <rect
     style="fill:#000000;stroke-width:1.75;opacity:0.2"
     id="rect1"
     width="28"
     height="28"
     x="2"
     y="3"
     ry="6" />
  <rect
     style="fill:url(#linearGradient4)"
     id="rect2"
     width="28"
     height="28"
     x="2"
     y="2"
     ry="6" />
  <g
     id="g1"
     transform="translate(-1,-1)">
    <path
       d="m 11,10 c -1.7583565,0 -3.5299177,0.944632 -4,2 v 12.500001 c 0,0.222799 2e-7,0.494013 0.25,0.5 0.2270241,0.0054 0.5777932,-0.391664 0.75,-0.5 0.8248695,-0.673804 1.8841774,-1.486518 3,-1.5 1.012905,0.0134 2.87924,0.129449 4,1 0.43177,0.363469 1.014789,0.181219 1,-0.5 V 12 c -1.119327,-1.999998 -3.486128,-2 -5,-2 z m 12,0 c -1.513871,0 -3.880672,2e-6 -5,2 v 11.500001 c -0.01479,0.681219 0.56823,0.863469 1,0.5 1.12076,-0.870551 2.987095,-0.9866 4,-1 1.115823,0.01348 2.175131,0.826196 3,1.5 0.172207,0.108336 0.522976,0.5054 0.75,0.5 0.25,-0.006 0.25,-0.277201 0.25,-0.5 V 12 c -0.470083,-1.055368 -2.241644,-2 -4,-2 z"
       style="color:#000000;fill:#ffffff;stroke:none;stroke-width:2;stroke-linecap:round;stroke-linejoin:round"
       id="path1839"
       sodipodi:nodetypes="scsccccccssccccccscs" />
  </g>
</svg>
