<?xml version="1.0" encoding="UTF-8" standalone="no"?>
<!-- Created with Inkscape (http://www.inkscape.org/) -->

<svg
   width="32"
   height="32"
   viewBox="0 0 32 32.000002"
   version="1.1"
   id="svg1"
   inkscape:version="1.4.2 (ebf0e940d0, 2025-05-08)"
   sodipodi:docname="dolphin-emu.svg"
   xmlns:inkscape="http://www.inkscape.org/namespaces/inkscape"
   xmlns:sodipodi="http://sodipodi.sourceforge.net/DTD/sodipodi-0.dtd"
   xmlns:xlink="http://www.w3.org/1999/xlink"
   xmlns="http://www.w3.org/2000/svg"
   xmlns:svg="http://www.w3.org/2000/svg">
  <sodipodi:namedview
     id="namedview1"
     pagecolor="#ffffff"
     bordercolor="#000000"
     borderopacity="0.25"
     inkscape:showpageshadow="2"
     inkscape:pageopacity="0.0"
     inkscape:pagecheckerboard="0"
     inkscape:deskcolor="#d1d1d1"
     inkscape:document-units="px"
     inkscape:zoom="24.5625"
     inkscape:cx="16.020356"
     inkscape:cy="15.979644"
     inkscape:window-width="1920"
     inkscape:window-height="1011"
     inkscape:window-x="0"
     inkscape:window-y="0"
     inkscape:window-maximized="1"
     inkscape:current-layer="svg1" />
  <defs
     id="defs1">
    <linearGradient
       inkscape:collect="always"
       id="linearGradient1606">
      <stop
         style="stop-color:#eaebed;stop-opacity:1;"
         offset="0"
         id="stop1602" />
      <stop
         style="stop-color:#f9fafa;stop-opacity:1;"
         offset="1"
         id="stop1604" />
    </linearGradient>
    <linearGradient
       inkscape:collect="always"
       xlink:href="#linearGradient1606"
       id="linearGradient4"
       x1="16"
       y1="30"
       x2="16"
       y2="2"
       gradientUnits="userSpaceOnUse" />
    <linearGradient
       inkscape:collect="always"
       xlink:href="#linearGradient1786"
       id="linearGradient1788"
       x1="8.0000467"
       y1="16.700104"
       x2="8.0000467"
       y2="-0.10002648"
       gradientUnits="userSpaceOnUse"
       gradientTransform="matrix(1.6666537,0,0,1.6666537,2.6666926,2.1667095)" />
    <linearGradient
       inkscape:collect="always"
       id="linearGradient1786">
      <stop
         style="stop-color:#0b9af0;stop-opacity:1;"
         offset="0"
         id="stop1782" />
      <stop
         style="stop-color:#4bb7f6;stop-opacity:1;"
         offset="1"
         id="stop1784" />
    </linearGradient>
  </defs>
  <rect
     style="fill:#000000;stroke-width:1.75;opacity:0.2"
     id="rect1"
     width="28"
     height="28"
     x="2"
     y="3"
     ry="6" />
  <rect
     style="fill:url(#linearGradient4)"
     id="rect2"
     width="28"
     height="28"
     x="2"
     y="2"
     ry="6" />
  <path
     id="path358"
     style="fill:url(#linearGradient1788);fill-opacity:1;stroke-width:0.624967"
     d="m 20.114552,10.490174 c -0.138249,0.001 -0.287501,0.0063 -0.442705,0.01633 -1.165282,0.07475 -2.209853,0.757062 -2.405581,0.85285 -0.62757,-0.179643 -1.343553,-0.554533 -2.180973,-0.69661 -2.896494,-0.491421 -5.3486296,0.29205 -6.5787243,1.145825 -1.6122718,1.119032 -1.5662891,2.375565 -1.6992054,2.897114 -0.082331,0.323086 -0.8160546,0.922006 -0.8072854,1.341134 0.014333,0.547089 0.3548149,0.722652 0.3548149,0.722652 0.3076571,-0.02428 0.7666477,-0.245583 1.1588452,-0.406899 0.5821618,-0.239454 0.6290227,-0.368077 2.2200346,-0.605464 0.7319734,-0.109215 1.5032684,-0.141665 2.0768074,-0.146482 0.223188,0.471278 0.776837,1.439627 1.738267,1.904282 0.570505,0.26252 1.430195,0.38077 1.809882,0.455726 l 1.110018,0.166016 v -0.449215 c 0,0 -0.933806,-0.386973 -1.50715,-0.960279 -0.241973,-0.241955 -0.242311,-0.531423 -0.309242,-0.820305 0.883514,0.166332 1.668822,0.292334 3.531872,1.00585 1.715915,0.657165 2.88926,1.610221 2.890603,1.611316 v 0.0032 l 0.0033,0.0033 V 18.08131 l -0.0033,-0.0033 C 21.05916,18.05864 19.857627,16.568647 17.835923,15.571515 16.165049,14.747396 14.79207,14.33884 12.8913,14.246655 c -1.974036,-0.09575 -3.2882233,0.132466 -3.4309624,0.15625 0.1692666,-0.336416 0.5116891,-0.76933 1.4322804,-1.201163 1.36389,-0.639787 3.510729,-0.745402 5.973261,-0.117182 3.479017,0.887535 4.665557,2.399812 6.162061,3.961559 1.591877,1.661298 2.967135,4.449858 2.968727,4.453088 v 0.0033 L 26,21.509009 v -0.449214 l -0.013,-0.03582 c -0.06673,-0.223085 -0.479782,-1.568789 -1.178476,-2.858108 -0.920492,-1.698617 -1.711548,-2.913894 -3.030575,-4.147105 -0.920246,-0.686406 -1.856064,-1.618121 -1.695948,-2.021467 0.414115,-0.544885 1.535551,-0.878037 1.5397,-0.8789 h 0.0033 v -0.0032 -0.44596 c 0,0 -0.542699,-0.186172 -1.510403,-0.179035 z" />
</svg>
