<?xml version="1.0" encoding="UTF-8" standalone="no"?>
<!-- Created with Inkscape (http://www.inkscape.org/) -->

<svg
   width="32"
   height="32"
   viewBox="0 0 32 32.000002"
   version="1.1"
   id="svg1"
   inkscape:version="1.4.2 (ebf0e940d0, 2025-05-08)"
   sodipodi:docname="dosbox.svg"
   xmlns:inkscape="http://www.inkscape.org/namespaces/inkscape"
   xmlns:sodipodi="http://sodipodi.sourceforge.net/DTD/sodipodi-0.dtd"
   xmlns:xlink="http://www.w3.org/1999/xlink"
   xmlns="http://www.w3.org/2000/svg"
   xmlns:svg="http://www.w3.org/2000/svg">
  <sodipodi:namedview
     id="namedview1"
     pagecolor="#ffffff"
     bordercolor="#000000"
     borderopacity="0.25"
     inkscape:showpageshadow="2"
     inkscape:pageopacity="0.0"
     inkscape:pagecheckerboard="0"
     inkscape:deskcolor="#d1d1d1"
     inkscape:document-units="px"
     inkscape:zoom="25.28125"
     inkscape:cx="16"
     inkscape:cy="16"
     inkscape:window-width="1920"
     inkscape:window-height="1011"
     inkscape:window-x="0"
     inkscape:window-y="0"
     inkscape:window-maximized="1"
     inkscape:current-layer="svg1" />
  <defs
     id="defs1">
    <linearGradient
       inkscape:collect="always"
       id="linearGradient2">
      <stop
         style="stop-color:#484848;stop-opacity:1;"
         offset="0"
         id="stop1" />
      <stop
         style="stop-color:#797979;stop-opacity:1;"
         offset="1"
         id="stop2" />
    </linearGradient>
    <linearGradient
       inkscape:collect="always"
       xlink:href="#linearGradient2"
       id="linearGradient4"
       x1="16"
       y1="30"
       x2="16"
       y2="2"
       gradientUnits="userSpaceOnUse" />
  </defs>
  <rect
     style="fill:#000000;stroke-width:1.75;opacity:0.2"
     id="rect1"
     width="28"
     height="28"
     x="2"
     y="3"
     ry="6" />
  <rect
     style="fill:url(#linearGradient4)"
     id="rect2"
     width="28"
     height="28"
     x="2"
     y="2"
     ry="6" />
  <path
     d="m 6,7 v 1 h 1 v 6 H 6 v 1 h 5 v -1 h 1 V 8 H 11 V 7 Z m 8,0 v 1 h -1 v 6 h 1 v 1 h 4 v -1 h 1 V 8 H 18 V 7 Z m 7,0 v 1 h -1 v 2 h 1 v 1 h 2 v 1 h 1 v 2 h -2 v -2 h -2 v 2 h 1 v 1 h 4 v -1 h 1 V 12 H 25 V 11 H 24 V 10 H 22 V 8 h 2 v 2 h 2 V 8 H 25 V 7 Z M 9,8 h 1 v 6 H 9 Z m 6,0 h 2 v 6 h -2 z m -9,9 v 1 h 1 v 6 H 6 v 1 h 5 v -1 h 1 v -3 h -1 v -1 h 1 v -2 h -1 v -1 z m 8,0 v 1 h -1 v 6 h 1 v 1 h 4 v -1 h 1 v -6 h -1 v -1 z m 5,0 v 1 h 1 v 2 h 1 v 2 h -1 v 2 h -1 v 1 h 2 v -1 h 1 v -1 h 1 v 1 h 1 v 1 h 2 v -1 h -1 v -2 h -1 v -2 h 1 v -2 h 1 v -1 h -2 v 1 h -1 v 1 H 22 V 18 H 21 V 17 Z M 9,18 h 1 v 2 H 9 Z m 6,0 h 2 v 6 h -2 z m -6,3 h 1 v 3 H 9 Z"
     style="fill:#ffffff"
     id="path1" />
</svg>
