<?xml version="1.0" encoding="UTF-8" standalone="no"?>
<!-- Created with Inkscape (http://www.inkscape.org/) -->

<svg
   width="32"
   height="32"
   viewBox="0 0 32 32.000002"
   version="1.1"
   id="svg1"
   inkscape:version="1.4.2 (ebf0e940d0, 2025-05-08)"
   sodipodi:docname="electron.svg"
   xmlns:inkscape="http://www.inkscape.org/namespaces/inkscape"
   xmlns:sodipodi="http://sodipodi.sourceforge.net/DTD/sodipodi-0.dtd"
   xmlns="http://www.w3.org/2000/svg"
   xmlns:svg="http://www.w3.org/2000/svg">
  <sodipodi:namedview
     id="namedview1"
     pagecolor="#ffffff"
     bordercolor="#000000"
     borderopacity="0.25"
     inkscape:showpageshadow="2"
     inkscape:pageopacity="0.0"
     inkscape:pagecheckerboard="0"
     inkscape:deskcolor="#d1d1d1"
     inkscape:document-units="px"
     inkscape:zoom="25.28125"
     inkscape:cx="16"
     inkscape:cy="16"
     inkscape:window-width="1920"
     inkscape:window-height="1011"
     inkscape:window-x="0"
     inkscape:window-y="0"
     inkscape:window-maximized="1"
     inkscape:current-layer="svg1" />
  <defs
     id="defs1" />
  <rect
     style="fill:#000000;stroke-width:1.75;opacity:0.2"
     id="rect1"
     width="28"
     height="28"
     x="2"
     y="3"
     ry="6" />
  <rect
     style="fill:#494c60;fill-opacity:1"
     id="rect2"
     width="28"
     height="28"
     x="2"
     y="2"
     ry="6" />
  <path
     d="M 16.429688,5.0016563 C 15.91954,5.0256077 15.45663,5.3074749 15.201172,5.7497032 14.787066,6.4670403 15.032763,7.3842515 15.75,7.7985313 c 0.480421,0.2772271 1.074613,0.2667107 1.544922,-0.027344 0.452935,0.491149 0.863824,1.1196111 1.222656,1.8457029 C 16.640081,10.24421 14.609813,11.287989 12.791016,12.558297 11.62238,13.374509 10.672608,14.399154 9.9355469,15.501656 9.9048219,15.463576 9.873827,15.424666 9.84375,15.386422 8.3606807,13.500835 7.7374679,11.465771 8.2636719,10.208687 8.5365928,9.5566902 8.9132687,9.2739032 9.3847656,9.1286092 c 0.4714969,-0.1452929 1.0606204,-0.115292 1.6406254,0.01367 1.160009,0.257929 2.216794,0.8847658 2.216797,0.8847658 0.235773,0.142391 0.542301,0.06729 0.685546,-0.1679688 0.143378,-0.236702 0.06722,-0.544847 -0.169922,-0.6875 0,0 -1.149195,-0.7020321 -2.515624,-1.0058594 -0.68322,-0.1519136 -1.4348817,-0.213276 -2.1523442,0.00781 -0.7174628,0.2210885 -1.3768507,0.761662 -1.7480469,1.6484374 -0.7620304,1.8204648 0.106571,4.1388218 1.7148437,6.1835928 0.1061106,0.134911 0.2151399,0.269718 0.328125,0.402344 C 8.7173301,17.625498 8.2935475,18.893193 8.1074219,20.052437 7.4539546,20.229638 7.0002033,20.822636 7,21.499703 c 0,0.828427 0.6715729,1.5 1.5,1.5 0.8284271,0 1.5,-0.671573 1.5,-1.5 3.65e-4,-0.589174 -0.3442166,-1.124 -0.8808594,-1.367188 0.164747,-0.913022 0.4999106,-1.92857 1.0058594,-2.925781 1.526438,1.529289 3.497534,2.801044 5.642578,3.382813 1.297861,0.352 2.626968,0.442948 3.857422,0.390625 -0.09239,0.41006 -0.201023,0.797929 -0.324219,1.160156 -0.321176,0.944388 -0.74623,1.70239 -1.234375,2.193359 -0.488144,0.490969 -1.009575,0.726985 -1.660156,0.701172 -1.434403,-0.05691 -2.248784,-0.713322 -2.757812,-1.371094 -0.509029,-0.657769 -0.66211,-1.283203 -0.66211,-1.283203 -0.06546,-0.268843 -0.336813,-0.433407 -0.605469,-0.367187 -0.268843,0.06546 -0.433407,0.336813 -0.367187,0.605469 0,0 0.202772,0.827974 0.84375,1.65625 0.640978,0.828276 1.771285,1.690866 3.507812,1.759765 0.934885,0.03709 1.768716,-0.350942 2.410157,-0.996094 0.64144,-0.64515 1.118398,-1.53451 1.472656,-2.576171 0.16623,-0.488784 0.30511,-1.012856 0.417969,-1.5625 1.010751,-0.108468 1.920425,-0.297632 2.642578,-0.490235 0.457583,0.598907 1.288527,0.765263 1.941406,0.388672 0.717237,-0.41428 0.962934,-1.331491 0.548828,-2.048828 -0.274097,-0.475089 -0.785644,-0.762693 -1.333984,-0.75 -0.251376,0.0061 -0.497191,0.07526 -0.714844,0.201172 -0.445642,0.257666 -0.728029,0.725852 -0.748047,1.240234 -0.597039,0.15077 -1.338585,0.303427 -2.15625,0.40625 0.211611,-1.528959 0.241707,-3.205537 0.09766,-4.875 -0.144428,-1.673803 -0.484775,-3.304323 -1.021484,-4.726562 0.01421,-0.0035 0.0288,-0.0063 0.04297,-0.0098 1.007523,-0.2444588 1.901584,-0.3146058 2.558594,-0.201172 0.657008,0.113436 1.044979,0.366314 1.257812,0.810547 1.014636,2.11779 -0.671875,4.435547 -0.671875,4.435547 -0.164813,0.221187 -0.119367,0.534062 0.101563,0.699219 0.221187,0.164812 0.534061,0.119367 0.699218,-0.101563 0,0 2.086464,-2.726194 0.773438,-5.466797 -0.369093,-0.7702948 -1.125103,-1.2119248 -1.99024,-1.3612938 -0.865136,-0.1493688 -1.871918,-0.05034 -2.964843,0.214844 -0.06649,0.01613 -0.134056,0.03339 -0.201172,0.05078 C 19.089962,8.3934409 18.556119,7.5902992 17.925781,6.9625938 18.144327,6.2894654 17.862654,5.5551622 17.25,5.2008751 17.001272,5.0573103 16.716558,4.9881656 16.429688,5.0016563 Z M 16.5,5.9997032 c 0.276142,0 0.5,0.2238576 0.5,0.5 0,0.2761424 -0.223858,0.5 -0.5,0.5 -0.276142,0 -0.5,-0.2238576 -0.5,-0.5 0,-0.2761424 0.223858,-0.5 0.5,-0.5 z m 2.423828,4.5351558 c 0.522456,1.330696 0.882966,2.895487 1.023438,4.523438 0.145484,1.686033 0.09955,3.385159 -0.128907,4.886718 -1.223459,0.07716 -2.547724,0.01636 -3.789062,-0.320312 -2.025835,-0.549438 -3.947862,-1.822589 -5.390625,-3.326172 0.690143,-1.101498 1.597673,-2.132833 2.724609,-2.919922 1.770477,-1.236558 3.775349,-2.255677 5.560547,-2.84375 z M 16.5,13.999703 c -0.823386,0 -1.5,0.676614 -1.5,1.5 0,0.823386 0.676614,1.5 1.5,1.5 0.823386,0 1.5,-0.676614 1.5,-1.5 0,-0.823386 -0.676614,-1.5 -1.5,-1.5 z m 8,5 c 0.276142,0 0.5,0.223858 0.5,0.5 0,0.276142 -0.223858,0.5 -0.5,0.5 -0.276142,0 -0.5,-0.223858 -0.5,-0.5 0,-0.276142 0.223858,-0.5 0.5,-0.5 z m -16,2 c 0.2761424,0 0.5,0.223858 0.5,0.5 0,0.276142 -0.2238576,0.5 -0.5,0.5 -0.2761424,0 -0.5,-0.223858 -0.5,-0.5 0,-0.276142 0.2238576,-0.5 0.5,-0.5 z"
     style="baseline-shift:baseline;display:inline;overflow:visible;vector-effect:none;fill:#cff7ff;stroke-linecap:round;enable-background:accumulate;stop-color:#000000"
     id="path1" />
</svg>
