<?xml version="1.0" encoding="UTF-8" standalone="no"?>
<!-- Created with Inkscape (http://www.inkscape.org/) -->

<svg
   width="32"
   height="32"
   viewBox="0 0 32 32.000002"
   version="1.1"
   id="svg1"
   inkscape:version="1.4.4 (dcaf3e7d9e, 2026-05-05)"
   sodipodi:docname="forza-horizon-6.svg"
   xmlns:inkscape="http://www.inkscape.org/namespaces/inkscape"
   xmlns:sodipodi="http://sodipodi.sourceforge.net/DTD/sodipodi-0.dtd"
   xmlns:xlink="http://www.w3.org/1999/xlink"
   xmlns="http://www.w3.org/2000/svg"
   xmlns:svg="http://www.w3.org/2000/svg">
  <sodipodi:namedview
     id="namedview1"
     pagecolor="#ffffff"
     bordercolor="#000000"
     borderopacity="0.25"
     inkscape:showpageshadow="2"
     inkscape:pageopacity="0.0"
     inkscape:pagecheckerboard="0"
     inkscape:deskcolor="#d1d1d1"
     inkscape:document-units="px"
     inkscape:zoom="25.0625"
     inkscape:cx="16"
     inkscape:cy="16"
     inkscape:window-width="1920"
     inkscape:window-height="1010"
     inkscape:window-x="0"
     inkscape:window-y="0"
     inkscape:window-maximized="1"
     inkscape:current-layer="svg1" />
  <defs
     id="defs1">
    <linearGradient
       id="linearGradient3"
       inkscape:collect="always">
      <stop
         style="stop-color:#e72d83;stop-opacity:1;"
         offset="0"
         id="stop3" />
      <stop
         style="stop-color:#e666a2;stop-opacity:1;"
         offset="1"
         id="stop4" />
    </linearGradient>
    <linearGradient
       inkscape:collect="always"
       xlink:href="#linearGradient3"
       id="linearGradient4"
       x1="16"
       y1="30"
       x2="16"
       y2="2"
       gradientUnits="userSpaceOnUse" />
    <linearGradient
       inkscape:collect="always"
       xlink:href="#linearGradient1606"
       id="linearGradient4-1"
       x1="16"
       y1="30"
       x2="16"
       y2="2"
       gradientUnits="userSpaceOnUse" />
    <linearGradient
       inkscape:collect="always"
       id="linearGradient1606">
      <stop
         style="stop-color:#eaebed;stop-opacity:1;"
         offset="0"
         id="stop1602" />
      <stop
         style="stop-color:#f9fafa;stop-opacity:1;"
         offset="1"
         id="stop1604" />
    </linearGradient>
  </defs>
  <rect
     style="fill:#000000;stroke-width:1.75;opacity:0.2"
     id="rect1"
     width="28"
     height="28"
     x="2"
     y="3"
     ry="6" />
  <rect
     style="fill:url(#linearGradient4-1)"
     id="rect2"
     width="28"
     height="28"
     x="2"
     y="2"
     ry="6" />
  <path
     id="rect288"
     style="fill:#191919;fill-opacity:1;stroke-width:1;stroke-linecap:round;stroke-linejoin:round"
     d="m 14.5,11 c -2.761409,0 -3.85732,0.486106 -5,3 H 23 c 1.770062,0 3.69188,-1.633137 4,-3 z M 5,15 13.166016,16.900391 12,19.25 14.5,18.5 16,15 Z M 17,15 15.5,18.5 17.75,18 19,15 Z m 3,0 -1.25,2.775391 2.050781,-0.375 c 0.644162,-0.128833 0.781835,-0.479046 1,-0.900391 L 22.724609,15 Z M 8.263672,16.474609 6,22 l 4.599609,-2 1.220703,-2.445312 z"
     sodipodi:nodetypes="scscscccccccccccccccccccccc" />
  <path
     id="rect3"
     style="fill:url(#linearGradient4);fill-opacity:1"
     d="M 2.3398438 26 C 3.1600274 28.334851 5.3779284 30 8 30 L 24 30 C 26.622072 30 28.839973 28.334851 29.660156 26 L 2.3398438 26 z " />
</svg>
