<?xml version="1.0" encoding="UTF-8" standalone="no"?>
<!-- Created with Inkscape (http://www.inkscape.org/) -->

<svg
   width="32"
   height="32"
   viewBox="0 0 32 32.000002"
   version="1.1"
   id="svg1"
   inkscape:version="1.4.3 (0d15f75042, 2025-12-25)"
   sodipodi:docname="geforcenow.svg"
   xmlns:inkscape="http://www.inkscape.org/namespaces/inkscape"
   xmlns:sodipodi="http://sodipodi.sourceforge.net/DTD/sodipodi-0.dtd"
   xmlns:xlink="http://www.w3.org/1999/xlink"
   xmlns="http://www.w3.org/2000/svg"
   xmlns:svg="http://www.w3.org/2000/svg">
  <sodipodi:namedview
     id="namedview1"
     pagecolor="#ffffff"
     bordercolor="#000000"
     borderopacity="0.25"
     inkscape:showpageshadow="2"
     inkscape:pageopacity="0.0"
     inkscape:pagecheckerboard="0"
     inkscape:deskcolor="#d1d1d1"
     inkscape:document-units="px"
     inkscape:zoom="25.59375"
     inkscape:cx="16"
     inkscape:cy="16"
     inkscape:window-width="1920"
     inkscape:window-height="1022"
     inkscape:window-x="0"
     inkscape:window-y="0"
     inkscape:window-maximized="1"
     inkscape:current-layer="svg1" />
  <defs
     id="defs1">
    <linearGradient
       inkscape:collect="always"
       xlink:href="#linearGradient1270"
       id="linearGradient4"
       x1="16"
       y1="30"
       x2="16"
       y2="2"
       gradientUnits="userSpaceOnUse" />
    <linearGradient
       inkscape:collect="always"
       id="linearGradient1270">
      <stop
         style="stop-color:#80d935;stop-opacity:1;"
         offset="0"
         id="stop1266" />
      <stop
         style="stop-color:#afd65f;stop-opacity:1;"
         offset="1"
         id="stop1268" />
    </linearGradient>
  </defs>
  <rect
     style="fill:#000000;stroke-width:1.75;opacity:0.2"
     id="rect1"
     width="28"
     height="28"
     x="2"
     y="3"
     ry="6" />
  <rect
     style="fill:url(#linearGradient4)"
     id="rect2"
     width="28"
     height="28"
     x="2"
     y="2"
     ry="6" />
  <path
     d="m 7.2477393,14.496533 c 0,0 1.7832654,-2.910532 5.7548607,-3.211641 V 10.228955 C 8.6035544,10.579326 5,14.274319 5,14.274319 c 0,0 1.9517359,6.185636 8.0026,6.752001 V 19.903939 C 8.5621882,19.349935 7.2477393,14.496533 7.2477393,14.496533 Z M 13.0026,17.671796 v 1.027886 C 9.6466363,18.10632 8.9209479,14.646605 8.9209479,14.646605 c 0,0 1.4054911,-1.770268 4.0816521,-2.05735 v 1.127904 c -0.0021,0 -0.0034,-6e-4 -0.0052,-6e-4 -1.404594,-0.167165 -2.296012,1.134129 -2.296012,1.134129 0,0 0.409166,2.19068 2.301139,2.821122 m 0,-9.6717963 v 2.2289553 c 0.129136,-0.0098 0.464118,-0.01815 0.593962,-0.02253 5.001242,-0.167166 8.259889,4.067891 8.259889,4.067891 0,0 -3.742666,4.513372 -7.64187,4.513372 -0.357358,0 -0.897758,-0.03288 -1.211981,-0.0881 v 1.204344 c 0.268703,0.03382 0.753152,0.05373 1.043864,0.05373 3.628467,0 6.25248,-1.837766 8.793318,-4.012842 0.421263,0.334595 2.145914,1.148593 2.500444,1.504925 -2.415856,2.005896 -8.046163,3.622846 -11.238166,3.622846 -0.307682,0 -0.809014,-0.01848 -1.09946,-0.04629 V 23 H 27 V 8 Z m 0,4.5892543 v -1.304275 c 0.127811,-0.0088 0.46244,-0.01569 0.593962,-0.01981 3.596384,-0.112027 5.955846,3.064989 5.955846,3.064989 0,0 -2.54844,3.510119 -5.280904,3.510119 -0.393244,0 -0.951675,-0.06267 -1.268993,-0.16848 v -3.954637 c 1.400086,0.167779 1.887717,0.781128 2.729448,2.172709 l 1.87207,-1.565494 c 0,0 -1.366586,-1.777456 -3.670275,-1.777456 -0.250407,-8.8e-5 -0.695876,0.01736 -0.931168,0.04234"
     style="fill:#ffffff"
     id="path1" />
</svg>
