<?xml version="1.0" encoding="UTF-8" standalone="no"?>
<!-- Created with Inkscape (http://www.inkscape.org/) -->

<svg
   width="32"
   height="32"
   viewBox="0 0 32 32.000002"
   version="1.1"
   id="svg1"
   inkscape:version="1.4.4 (dcaf3e7d9e, 2026-05-05)"
   sodipodi:docname="google-sheets.svg"
   xmlns:inkscape="http://www.inkscape.org/namespaces/inkscape"
   xmlns:sodipodi="http://sodipodi.sourceforge.net/DTD/sodipodi-0.dtd"
   xmlns:xlink="http://www.w3.org/1999/xlink"
   xmlns="http://www.w3.org/2000/svg"
   xmlns:svg="http://www.w3.org/2000/svg">
  <sodipodi:namedview
     id="namedview1"
     pagecolor="#ffffff"
     bordercolor="#000000"
     borderopacity="0.25"
     inkscape:showpageshadow="2"
     inkscape:pageopacity="0.0"
     inkscape:pagecheckerboard="0"
     inkscape:deskcolor="#d1d1d1"
     inkscape:document-units="px"
     inkscape:zoom="24.125"
     inkscape:cx="16"
     inkscape:cy="15.958549"
     inkscape:window-width="1920"
     inkscape:window-height="1012"
     inkscape:window-x="0"
     inkscape:window-y="0"
     inkscape:window-maximized="1"
     inkscape:current-layer="svg1" />
  <defs
     id="defs1">
    <mask
       maskUnits="userSpaceOnUse"
       id="mask1">
      <rect
         width="158.40001"
         height="132"
         x="25.6"
         y="32"
         fill="#ffffff"
         id="rect2-7"
         style="stroke-width:0.976149"
         ry="17.6" />
    </mask>
    <filter
       id="b"
       width="168"
       height="126"
       x="-4"
       y="33"
       color-interpolation-filters="sRGB"
       filterUnits="userSpaceOnUse">
      <feFlood
         flood-opacity="0"
         result="BackgroundImageFix"
         id="feFlood4" />
      <feBlend
         in="SourceGraphic"
         in2="BackgroundImageFix"
         result="shape"
         mode="normal"
         id="feBlend4" />
      <feGaussianBlur
         result="effect1_foregroundBlur_37435_8174"
         stdDeviation="6"
         id="feGaussianBlur4" />
    </filter>
    <linearGradient
       inkscape:collect="always"
       xlink:href="#linearGradient4"
       id="linearGradient6"
       x1="144.00005"
       y1="96.000008"
       x2="24"
       y2="96"
       gradientUnits="userSpaceOnUse"
       gradientTransform="translate(0,4.5999669)" />
    <linearGradient
       id="linearGradient4"
       inkscape:collect="always">
      <stop
         style="stop-color:#0ebc5f;stop-opacity:1;"
         offset="0"
         id="stop5" />
      <stop
         style="stop-color:#78c9ff;stop-opacity:1;"
         offset="0.95074314"
         id="stop6" />
    </linearGradient>
  </defs>
  <rect
     style="fill:#000000;stroke-width:1.75;opacity:0.2"
     id="rect1"
     width="28"
     height="28"
     x="2"
     y="3"
     ry="6" />
  <rect
     style="fill:#fafafa;fill-opacity:1"
     id="rect2"
     width="28"
     height="28"
     x="2"
     y="2"
     ry="6" />
  <g
     id="g4">
    <rect
       style="fill:#009954"
       id="rect1-3"
       width="13"
       height="11"
       x="6"
       y="11"
       ry="2" />
    <g
       mask="url(#mask1)"
       transform="matrix(0.11363636,0,0,0.11363636,5.0909091,5.3636403)"
       id="g3">
      <path
         id="path2"
         d="M 25.600001,31.999966 V 163.99997 H 184.00001 V 31.999966 Z"
         style="fill:#0ebc5f;fill-opacity:1;stroke-width:1.01041" />
      <g
         filter="url(#b)"
         id="g2">
        <rect
           style="fill:url(#linearGradient6);stroke-width:0.22"
           id="rect4"
           width="140.8"
           height="96.800003"
           x="8"
           y="49.599968"
           rx="25.6" />
      </g>
    </g>
    <path
       id="rect3"
       style="fill:#ffffff"
       d="m 22,13 c -0.554,0 -1,0.446 -1,1 v 4 h -6 c -0.554,0 -1,0.446 -1,1 0,0.554 0.446,1 1,1 h 6 v 1 c 0,0.554 0.446,1 1,1 0.554,0 1,-0.446 1,-1 v -1 h 1 c 0.554,0 1,-0.446 1,-1 0,-0.554 -0.446,-1 -1,-1 h -1 v -4 c 0,-0.554 -0.446,-1 -1,-1 z" />
  </g>
</svg>
