<?xml version="1.0" encoding="UTF-8" standalone="no"?>
<!-- Created with Inkscape (http://www.inkscape.org/) -->

<svg
   width="32"
   height="32"
   viewBox="0 0 32 32.000002"
   version="1.1"
   id="svg1"
   inkscape:version="1.4.2 (ebf0e940d0, 2025-05-08)"
   sodipodi:docname="heroic.svg"
   xmlns:inkscape="http://www.inkscape.org/namespaces/inkscape"
   xmlns:sodipodi="http://sodipodi.sourceforge.net/DTD/sodipodi-0.dtd"
   xmlns:xlink="http://www.w3.org/1999/xlink"
   xmlns="http://www.w3.org/2000/svg"
   xmlns:svg="http://www.w3.org/2000/svg">
  <sodipodi:namedview
     id="namedview1"
     pagecolor="#ffffff"
     bordercolor="#000000"
     borderopacity="0.25"
     inkscape:showpageshadow="2"
     inkscape:pageopacity="0.0"
     inkscape:pagecheckerboard="0"
     inkscape:deskcolor="#d1d1d1"
     inkscape:document-units="px"
     inkscape:zoom="25.25"
     inkscape:cx="15.980198"
     inkscape:cy="15.980198"
     inkscape:window-width="1920"
     inkscape:window-height="1011"
     inkscape:window-x="0"
     inkscape:window-y="0"
     inkscape:window-maximized="1"
     inkscape:current-layer="svg1" />
  <defs
     id="defs1">
    <linearGradient
       inkscape:collect="always"
       xlink:href="#4852"
       id="linearGradient4"
       x1="16"
       y1="30"
       x2="16"
       y2="2"
       gradientUnits="userSpaceOnUse" />
    <linearGradient
       inkscape:collect="always"
       id="4852">
      <stop
         style="stop-color:#5d5d5d;stop-opacity:1;"
         offset="0"
         id="stop14555" />
      <stop
         style="stop-color:#272727;stop-opacity:1;"
         offset="1"
         id="stop14557" />
    </linearGradient>
    <linearGradient
       inkscape:collect="always"
       xlink:href="#linearGradient1"
       id="linearGradient2"
       x1="72"
       y1="78"
       x2="24"
       y2="18"
       gradientUnits="userSpaceOnUse"
       gradientTransform="scale(0.33333335)" />
    <linearGradient
       id="linearGradient1"
       inkscape:collect="always">
      <stop
         style="stop-color:#67def9;stop-opacity:1;"
         offset="0"
         id="stop1" />
      <stop
         style="stop-color:#3bb4f6;stop-opacity:1;"
         offset="1"
         id="stop2" />
    </linearGradient>
  </defs>
  <rect
     style="fill:#000000;stroke-width:1.75;opacity:0.2"
     id="rect1"
     width="28"
     height="28"
     x="2"
     y="3"
     ry="6" />
  <rect
     style="fill:url(#linearGradient4)"
     id="rect2"
     width="28"
     height="28"
     x="2"
     y="2"
     ry="6" />
  <path
     d="M 17.455,6.3571 C 17.091,6.2121 16.363,6 16,6 15.637,6 14.909,6.2121 14.545,6.3571 L 8.7273,8.5 C 8.3099,8.6647 8,8.8843 8,9.2143 8,9.5714 8.0836,9.7474 8.1817,10.1071 l 3.4547,11.9639 c 0,0 0.147,0.415 0.3636,0.715 0.1984,0.274 0.7273,0.714 0.7273,0.714 l 2.5457,2.143 c 0,0 0.456,0.357 0.727,0.357 0.271,0 0.727,-0.357 0.727,-0.357 L 19.273,23.5 c 0,0 0.521,-0.446 0.727,-0.714 0.215,-0.28 0.364,-0.715 0.364,-0.715 L 23.818,10.1071 C 23.933,9.7535 24,9.5714 24,9.2143 24,8.8985 23.767,8.6739 23.273,8.5 Z"
     style="fill:url(#linearGradient2);fill-opacity:1;stroke-width:1"
     id="path461" />
  <path
     d="m 16,8.5 -1.5,2.5 1,9 0.5,0.5 0.5,-0.5 1,-9 z M 13.5,20.25 13,21 13.5,21.75 15,21.5 15.5,21 15,20.5 Z m 5,0 L 17,20.5 16.5,21 17,21.5 18.5,21.75 19,21 Z M 16,21.5 15.5,22 15.25,23.5 16,24 16.75,23.5 16.5,22 Z"
     style="fill:#4f4f4f"
     id="path433"
     sodipodi:nodetypes="cccccccccccccccccccccccccccc" />
</svg>
