<?xml version="1.0" encoding="UTF-8" standalone="no"?>
<!-- Created with Inkscape (http://www.inkscape.org/) -->

<svg
   width="32"
   height="32"
   viewBox="0 0 32 32.000002"
   version="1.1"
   id="svg1"
   inkscape:version="1.4.2 (ebf0e940d0, 2025-05-08)"
   sodipodi:docname="meld.svg"
   xmlns:inkscape="http://www.inkscape.org/namespaces/inkscape"
   xmlns:sodipodi="http://sodipodi.sourceforge.net/DTD/sodipodi-0.dtd"
   xmlns:xlink="http://www.w3.org/1999/xlink"
   xmlns="http://www.w3.org/2000/svg"
   xmlns:svg="http://www.w3.org/2000/svg">
  <sodipodi:namedview
     id="namedview1"
     pagecolor="#ffffff"
     bordercolor="#000000"
     borderopacity="0.25"
     inkscape:showpageshadow="2"
     inkscape:pageopacity="0.0"
     inkscape:pagecheckerboard="0"
     inkscape:deskcolor="#d1d1d1"
     inkscape:document-units="px"
     inkscape:zoom="24.5625"
     inkscape:cx="15.979644"
     inkscape:cy="15.979644"
     inkscape:window-width="1920"
     inkscape:window-height="1011"
     inkscape:window-x="0"
     inkscape:window-y="0"
     inkscape:window-maximized="1"
     inkscape:current-layer="svg1" />
  <defs
     id="defs1">
    <linearGradient
       inkscape:collect="always"
       xlink:href="#linearGradient3147"
       id="linearGradient4"
       x1="16"
       y1="30"
       x2="16"
       y2="2"
       gradientUnits="userSpaceOnUse" />
    <linearGradient
       inkscape:collect="always"
       id="linearGradient3147">
      <stop
         style="stop-color:#0091f9;stop-opacity:1;"
         offset="0"
         id="stop3143" />
      <stop
         style="stop-color:#41bbff;stop-opacity:1;"
         offset="1"
         id="stop3145" />
    </linearGradient>
    <linearGradient
       inkscape:collect="always"
       xlink:href="#linearGradient4-9"
       id="linearGradient3"
       x1="7.9101562"
       y1="16"
       x2="8.0898438"
       y2="0"
       gradientUnits="userSpaceOnUse"
       gradientTransform="matrix(1.75,0,0,1.75,2,2)" />
    <linearGradient
       inkscape:collect="always"
       id="linearGradient4-9">
      <stop
         style="stop-color:#ff7905;stop-opacity:1;"
         offset="0"
         id="stop3" />
      <stop
         style="stop-color:#ffac4c;stop-opacity:1;"
         offset="1"
         id="stop4" />
    </linearGradient>
  </defs>
  <rect
     style="fill:#000000;stroke-width:1.75;opacity:0.2"
     id="rect1"
     width="28"
     height="28"
     x="2"
     y="3"
     ry="6" />
  <rect
     style="fill:url(#linearGradient4)"
     id="rect2"
     width="28"
     height="28"
     x="2"
     y="2"
     ry="6" />
  <path
     id="path1"
     style="fill:url(#linearGradient3);stroke-width:1.75"
     d="M 8 2 C 4.676 2 2 4.676 2 8 L 2 13.101562 L 2 14.800781 C 2.6576677 16.464387 3.6040328 18.019985 4.8847656 19.380859 C 6.382075 20.971855 8.6077796 22.301396 10.910156 22.794922 C 13.212533 23.288448 15.590539 22.944087 17.400391 21.189453 C 18.020284 20.588475 18.5442 19.697415 18.728516 18.785156 C 18.912826 17.872898 18.760254 16.940834 18.029297 16.25 C 17.797315 16.03075 17.455474 15.8432 17.107422 15.78125 C 16.761512 15.719678 16.251713 15.726204 16 16 C 16.280857 16.251902 16.500404 16.657626 16.4375 17.001953 C 16.37417 17.348612 16.186982 17.68892 15.962891 17.919922 C 15.259414 18.645101 14.306303 18.938407 13.378906 18.755859 C 12.451511 18.573308 11.546435 18.057263 10.935547 17.443359 C 9.5996368 16.100869 9.001423 14.301796 9.03125 12.595703 C 9.04125 12.027002 9.1150684 11.451738 9.2402344 10.882812 C 9.7409254 8.607111 11.159416 5.7806753 12.773438 4.3007812 C 13.803997 3.3558632 14.944861 2.5964238 16.158203 2 L 8 2 z M 16 16 C 15.719142 15.748098 15.499596 15.342374 15.5625 14.998047 C 15.62583 14.651388 15.813018 14.31108 16.037109 14.080078 C 16.740586 13.354899 17.693697 13.061593 18.621094 13.244141 C 19.548487 13.426692 20.453563 13.942737 21.064453 14.556641 C 22.400363 15.89913 22.998579 17.698204 22.96875 19.404297 C 22.95875 19.973 22.884942 20.548262 22.759766 21.117188 C 22.259075 23.392889 20.840585 26.219325 19.226562 27.699219 C 18.196003 28.644139 17.055138 29.403575 15.841797 30 L 24 30 C 27.324 30 30 27.324 30 24 L 30 18.898438 L 30 17.199219 C 29.342332 15.535613 28.395967 13.980015 27.115234 12.619141 C 25.617925 11.028144 23.392221 9.6986041 21.089844 9.2050781 C 18.787467 8.7115531 16.409461 9.0559128 14.599609 10.810547 C 13.979715 11.411525 13.4558 12.302585 13.271484 13.214844 C 13.087174 14.127102 13.239746 15.059167 13.970703 15.75 C 14.202685 15.969251 14.544524 16.1568 14.892578 16.21875 C 15.238486 16.280322 15.748287 16.273798 16 16 z " />
</svg>
