<?xml version="1.0" encoding="UTF-8" standalone="no"?>
<!-- Created with Inkscape (http://www.inkscape.org/) -->

<svg
   width="32"
   height="32"
   viewBox="0 0 32 32.000002"
   version="1.1"
   id="svg1"
   inkscape:version="1.4.4 (dcaf3e7d9e, 2026-05-05)"
   sodipodi:docname="net.davidotek.pupgui2.svg"
   xmlns:inkscape="http://www.inkscape.org/namespaces/inkscape"
   xmlns:sodipodi="http://sodipodi.sourceforge.net/DTD/sodipodi-0.dtd"
   xmlns:xlink="http://www.w3.org/1999/xlink"
   xmlns="http://www.w3.org/2000/svg"
   xmlns:svg="http://www.w3.org/2000/svg">
  <sodipodi:namedview
     id="namedview1"
     pagecolor="#ffffff"
     bordercolor="#000000"
     borderopacity="0.25"
     inkscape:showpageshadow="2"
     inkscape:pageopacity="0.0"
     inkscape:pagecheckerboard="0"
     inkscape:deskcolor="#d1d1d1"
     inkscape:document-units="px"
     inkscape:zoom="25.25"
     inkscape:cx="15.960396"
     inkscape:cy="15.960396"
     inkscape:window-width="1920"
     inkscape:window-height="1012"
     inkscape:window-x="0"
     inkscape:window-y="0"
     inkscape:window-maximized="1"
     inkscape:current-layer="svg1" />
  <defs
     id="defs1">
    <linearGradient
       inkscape:collect="always"
       id="linearGradient1606">
      <stop
         style="stop-color:#eaebed;stop-opacity:1;"
         offset="0"
         id="stop1602" />
      <stop
         style="stop-color:#f9fafa;stop-opacity:1;"
         offset="1"
         id="stop1604" />
    </linearGradient>
    <linearGradient
       inkscape:collect="always"
       xlink:href="#linearGradient1606"
       id="linearGradient4"
       x1="16"
       y1="30"
       x2="16"
       y2="2"
       gradientUnits="userSpaceOnUse" />
    <linearGradient
       inkscape:collect="always"
       xlink:href="#linearGradient1"
       id="linearGradient2"
       x1="7.9999928"
       y1="14.499685"
       x2="7.9999928"
       y2="0.50003785"
       gradientUnits="userSpaceOnUse"
       gradientTransform="matrix(2.0000503,0,0,2.0000503,-3.879e-4,0.9998992)" />
    <linearGradient
       id="linearGradient1"
       inkscape:collect="always">
      <stop
         style="stop-color:#0ebb67;stop-opacity:1;"
         offset="0"
         id="stop1" />
      <stop
         style="stop-color:#0ecb6f;stop-opacity:1;"
         offset="1"
         id="stop2" />
    </linearGradient>
  </defs>
  <rect
     style="fill:#000000;stroke-width:1.75;opacity:0.2"
     id="rect1"
     width="28"
     height="28"
     x="2"
     y="3"
     ry="6" />
  <rect
     style="fill:url(#linearGradient4)"
     id="rect2"
     width="28"
     height="28"
     x="2"
     y="2"
     ry="6" />
  <path
     id="path1"
     style="baseline-shift:baseline;display:inline;overflow:visible;vector-effect:none;fill:url(#linearGradient2);stroke-width:2.00005;stroke-linecap:round;stroke-linejoin:round;enable-background:accumulate;stop-color:#000000"
     d="M 15.999713,5 C 15.284019,5.00872 14.958111,5.2303414 14.585651,5.5859375 L 5.5856504,14.585938 c -0.7808671,0.781034 -0.7808673,2.04709 0,2.828124 0.7810334,0.780868 2.0470919,0.780868 2.828125,0 L 13.999713,11.828125 V 25 c 0,1.104597 0.895402,2 2,2 1.104598,0 2,-0.895403 2,-2 V 11.828125 l 5.585938,5.585937 c 0.781034,0.780868 2.047091,0.780868 2.828124,0 0.780869,-0.781034 0.780869,-2.047091 0,-2.828124 l -9,-9.0000005 C 17.074455,5.268276 16.757708,5.0009968 15.999713,5 Z" />
  <path
     id="path2"
     style="baseline-shift:baseline;display:inline;overflow:visible;vector-effect:none;fill:#ff9611;fill-opacity:1;stroke-width:2.00005;enable-background:accumulate;stop-color:#000000"
     d="m 13.601215,18.070666 -2.168023,2.164119 1.132841,1.13284 1.035182,-1.035182 1.597696,1.597696 1.601604,-1.597696 1.597696,1.597696 2.168023,-2.164116 -1.132841,-1.132843 -1.035182,1.035182 -1.597696,-1.597696 -1.601604,1.597696 z" />
</svg>
