<?xml version="1.0" encoding="UTF-8" standalone="no"?>
<!-- Created with Inkscape (http://www.inkscape.org/) -->

<svg
   width="32"
   height="32"
   viewBox="0 0 32 32.000002"
   version="1.1"
   id="svg1"
   inkscape:version="1.4.3 (0d15f75042, 2025-12-25)"
   sodipodi:docname="pulseeffects.svg"
   xmlns:inkscape="http://www.inkscape.org/namespaces/inkscape"
   xmlns:sodipodi="http://sodipodi.sourceforge.net/DTD/sodipodi-0.dtd"
   xmlns:xlink="http://www.w3.org/1999/xlink"
   xmlns="http://www.w3.org/2000/svg"
   xmlns:svg="http://www.w3.org/2000/svg">
  <sodipodi:namedview
     id="namedview1"
     pagecolor="#ffffff"
     bordercolor="#000000"
     borderopacity="0.25"
     inkscape:showpageshadow="2"
     inkscape:pageopacity="0.0"
     inkscape:pagecheckerboard="0"
     inkscape:deskcolor="#d1d1d1"
     inkscape:document-units="px"
     inkscape:zoom="25.3125"
     inkscape:cx="16"
     inkscape:cy="16"
     inkscape:window-width="1920"
     inkscape:window-height="1012"
     inkscape:window-x="0"
     inkscape:window-y="0"
     inkscape:window-maximized="1"
     inkscape:current-layer="svg1"
     showguides="false" />
  <defs
     id="defs1">
    <linearGradient
       inkscape:collect="always"
       xlink:href="#linearGradient3147"
       id="linearGradient4"
       x1="16"
       y1="30"
       x2="16"
       y2="2"
       gradientUnits="userSpaceOnUse" />
    <linearGradient
       inkscape:collect="always"
       id="linearGradient3147">
      <stop
         style="stop-color:#0091f9;stop-opacity:1;"
         offset="0"
         id="stop3143" />
      <stop
         style="stop-color:#41bbff;stop-opacity:1;"
         offset="1"
         id="stop3145" />
    </linearGradient>
  </defs>
  <rect
     style="fill:#000000;stroke-width:1.75;opacity:0.2"
     id="rect1"
     width="28"
     height="28"
     x="2"
     y="3"
     ry="6" />
  <rect
     style="fill:url(#linearGradient4)"
     id="rect2"
     width="28"
     height="28"
     x="2"
     y="2"
     ry="6" />
  <rect
     style="opacity:0.4;fill:#1a1a1a;stroke-width:1.89737"
     id="rect3"
     width="2"
     height="18"
     x="8"
     y="7"
     ry="1" />
  <rect
     style="opacity:0.4;fill:#000000;stroke-width:1.89737"
     id="rect4"
     width="2"
     height="18"
     x="15"
     y="7"
     ry="1" />
  <rect
     style="fill:#bef3ff;fill-opacity:1"
     id="rect5-6"
     width="2"
     height="11"
     x="8"
     y="14"
     ry="1" />
  <rect
     style="fill:#bef3ff;fill-opacity:1"
     id="rect6"
     width="2"
     height="6"
     x="15"
     y="19"
     ry="1" />
  <rect
     style="opacity:0.4;fill:#000000"
     id="rect5"
     width="2"
     height="18"
     x="22"
     y="7"
     ry="1" />
  <rect
     style="fill:#bef3ff;fill-opacity:1"
     id="rect7"
     width="2"
     height="9"
     x="22"
     y="16"
     ry="1" />
  <path
     id="path1"
     style="opacity:0.2;fill:#000000;stroke-width:0.999994"
     d="M 9 11 C 7.3431458 11 6 12.343145 6 14 C 6 15.656855 7.3431458 17 9 17 C 10.656855 17 12 15.656855 12 14 C 12 12.343145 10.656855 11 9 11 z M 23 13 C 21.343146 13 20 14.343145 20 16 C 20 17.656855 21.343146 19 23 19 C 24.656855 19 26 17.656855 26 16 C 26 14.343145 24.656855 13 23 13 z M 16 16 C 14.343146 16 13 17.343145 13 19 C 13 20.656855 14.343146 22 16 22 C 17.656855 22 19 20.656855 19 19 C 19 17.343145 17.656855 16 16 16 z " />
  <path
     id="path2"
     style="fill:#f9f9f9;fill-opacity:1;stroke-width:4;stroke-linecap:round;stroke-linejoin:round"
     d="M 9 12 C 7.89543 12 7 12.89543 7 14 C 7 15.10457 7.89543 16 9 16 C 10.104569 16 11 15.10457 11 14 C 11 12.89543 10.104569 12 9 12 z M 23 14 C 21.89543 14 21 14.89543 21 16 C 21 17.10457 21.89543 18 23 18 C 24.104569 18 25 17.10457 25 16 C 25 14.89543 24.104569 14 23 14 z M 16 17 C 14.89543 17 14 17.89543 14 19 C 14 20.10457 14.89543 21 16 21 C 17.104569 21 18 20.10457 18 19 C 18 17.89543 17.104569 17 16 17 z " />
</svg>
