<?xml version="1.0" encoding="UTF-8" standalone="no"?>
<!-- Created with Inkscape (http://www.inkscape.org/) -->

<svg
   width="32"
   height="32"
   viewBox="0 0 32 32.000002"
   version="1.1"
   id="svg1"
   inkscape:version="1.4.2 (ebf0e940d0, 2025-05-08)"
   sodipodi:docname="qt.svg"
   xmlns:inkscape="http://www.inkscape.org/namespaces/inkscape"
   xmlns:sodipodi="http://sodipodi.sourceforge.net/DTD/sodipodi-0.dtd"
   xmlns:xlink="http://www.w3.org/1999/xlink"
   xmlns="http://www.w3.org/2000/svg"
   xmlns:svg="http://www.w3.org/2000/svg">
  <sodipodi:namedview
     id="namedview1"
     pagecolor="#ffffff"
     bordercolor="#000000"
     borderopacity="0.25"
     inkscape:showpageshadow="2"
     inkscape:pageopacity="0.0"
     inkscape:pagecheckerboard="0"
     inkscape:deskcolor="#d1d1d1"
     inkscape:document-units="px"
     inkscape:zoom="25.25"
     inkscape:cx="15.980198"
     inkscape:cy="15.980198"
     inkscape:window-width="1920"
     inkscape:window-height="1011"
     inkscape:window-x="0"
     inkscape:window-y="0"
     inkscape:window-maximized="1"
     inkscape:current-layer="svg1" />
  <defs
     id="defs1">
    <linearGradient
       inkscape:collect="always"
       xlink:href="#linearGradient3017"
       id="linearGradient4"
       x1="16"
       y1="30"
       x2="16"
       y2="2"
       gradientUnits="userSpaceOnUse" />
    <linearGradient
       inkscape:collect="always"
       id="linearGradient3017">
      <stop
         style="stop-color:#26bc25;stop-opacity:1;"
         offset="0"
         id="stop3013" />
      <stop
         style="stop-color:#65df47;stop-opacity:1;"
         offset="1"
         id="stop3015" />
    </linearGradient>
  </defs>
  <rect
     style="fill:#000000;stroke-width:1.75;opacity:0.2"
     id="rect1"
     width="28"
     height="28"
     x="2"
     y="3"
     ry="6" />
  <rect
     style="fill:url(#linearGradient4)"
     id="rect2"
     width="28"
     height="28"
     x="2"
     y="2"
     ry="6" />
  <path
     style="fill:#ffffff"
     d="m 20,9 v 3 h -2 v 2 h 2 v 4.117188 C 20,20.940717 20.999201,22 22.792969,22 H 25 V 20 H 23.015625 C 22.050838,20 22,19.329735 22,17.917969 V 14 h 3 V 12 H 22 V 9 Z M 12.025391,9.021484 C 8.0549477,9.0214844 7,11.264706 7,15.5 c 0,4.235294 1.0363907,6.527344 5.025391,6.527344 h 1.132812 l 1.650391,2.822265 1.912109,-0.705078 -1.558594,-2.824219 C 16.646387,20.61443 17,18.323529 17,15.5 17,11.264706 15.995834,9.0214844 12.025391,9.021484 Z M 12.007811,11 c 2.422006,0 2.992194,1.75699 2.992188,4.654297 C 14.999999,18.551603 14.448169,20 12.007811,20 9.567455,20 8.9999987,18.551603 8.9999987,15.654297 8.9999987,12.75699 9.585808,11 12.007811,11 Z"
     id="path4867" />
</svg>
