<?xml version="1.0" encoding="UTF-8" standalone="no"?>
<!-- Created with Inkscape (http://www.inkscape.org/) -->

<svg
   width="32"
   height="32"
   viewBox="0 0 32 32.000002"
   version="1.1"
   id="svg1"
   inkscape:version="1.4.2 (1:1.4.2+202505120737+ebf0e940d0)"
   sodipodi:docname="rnote.svg"
   xmlns:inkscape="http://www.inkscape.org/namespaces/inkscape"
   xmlns:sodipodi="http://sodipodi.sourceforge.net/DTD/sodipodi-0.dtd"
   xmlns:xlink="http://www.w3.org/1999/xlink"
   xmlns="http://www.w3.org/2000/svg"
   xmlns:svg="http://www.w3.org/2000/svg">
  <sodipodi:namedview
     id="namedview1"
     pagecolor="#ffffff"
     bordercolor="#000000"
     borderopacity="0.25"
     inkscape:showpageshadow="2"
     inkscape:pageopacity="0.0"
     inkscape:pagecheckerboard="0"
     inkscape:deskcolor="#d1d1d1"
     inkscape:document-units="px"
     inkscape:zoom="25.21875"
     inkscape:cx="16"
     inkscape:cy="16"
     inkscape:window-width="1920"
     inkscape:window-height="1016"
     inkscape:window-x="0"
     inkscape:window-y="0"
     inkscape:window-maximized="1"
     inkscape:current-layer="svg1" />
  <defs
     id="defs1">
    <linearGradient
       inkscape:collect="always"
       id="linearGradient1606">
      <stop
         style="stop-color:#eaebed;stop-opacity:1;"
         offset="0"
         id="stop1602" />
      <stop
         style="stop-color:#f9fafa;stop-opacity:1;"
         offset="1"
         id="stop1604" />
    </linearGradient>
    <linearGradient
       inkscape:collect="always"
       xlink:href="#linearGradient1606"
       id="linearGradient4"
       x1="16"
       y1="30"
       x2="16"
       y2="2"
       gradientUnits="userSpaceOnUse" />
    <linearGradient
       inkscape:collect="always"
       xlink:href="#linearGradient1"
       id="linearGradient6"
       x1="11.000003"
       y1="13.000074"
       x2="11.000003"
       y2="3"
       gradientUnits="userSpaceOnUse"
       gradientTransform="matrix(1.999984,0,0,1.999984,1.0000639,4.7882215e-5)" />
    <linearGradient
       id="linearGradient1"
       inkscape:collect="always">
      <stop
         style="stop-color:#2e2e2e;stop-opacity:1;"
         offset="0"
         id="stop1" />
      <stop
         style="stop-color:#565656;stop-opacity:1;"
         offset="1"
         id="stop2" />
    </linearGradient>
  </defs>
  <rect
     style="fill:#000000;stroke-width:1.75;opacity:0.2"
     id="rect1"
     width="28"
     height="28"
     x="2"
     y="3"
     ry="6" />
  <rect
     style="fill:url(#linearGradient4)"
     id="rect2"
     width="28"
     height="28"
     x="2"
     y="2"
     ry="6" />
  <path
     d="m 21.830633,10.475307 c -0.038,-0.315552 0.199199,-0.814902 0.167379,-1.4947262 C 21.965152,8.2996496 21.641699,7.3507754 20.314,6.6620955 20.29038,6.6499155 20.26678,6.6377275 20.24212,6.6255615 19.378549,6.1959682 18.119651,5.8881645 16.651273,6.0387451 15.510458,6.1561077 14.325488,6.5447368 13.20829,7.2300974 c -1.005274,0.614497 -1.931479,1.4559723 -2.683123,2.4967456 -0.44154,0.654358 -0.826604,1.395079 -1.1017972,2.194479 -0.1191131,0.345449 -0.2176891,0.703075 -0.2916209,1.068453 -0.095499,0.474991 -0.1478548,0.994269 -0.127325,1.542337 0.05442,0.869155 0.2947013,1.819137 0.8317371,2.673896 0.25363,0.405239 0.568867,0.772832 0.933394,1.079528 0.362474,0.306693 0.777316,0.554707 1.230151,0.717468 0.725974,0.255764 1.439625,0.255764 2.030055,0.159439 0.313186,-0.05094 0.600699,-0.129539 0.854329,-0.217012 0.313184,-0.1074 0.600698,-0.231407 0.827628,-0.33659 0.494936,-0.233624 0.959069,-0.513746 1.328728,-0.739616 0.369661,-0.22587 0.732134,-0.452846 1.080231,-0.636643 0.207422,-0.106299 0.453862,-0.22476 0.697222,-0.314445 0.0647,-0.02324 0.129379,-0.0454 0.194079,-0.06422 0.242332,-0.07196 0.481588,-0.104079 0.69414,-0.08082 0.181739,0.0188 0.335778,0.08304 0.439487,0.161659 0.04414,0.0299 0.08214,0.07196 0.113979,0.116259 0.02772,0.04098 0.0462,0.07974 0.05648,0.100759 0.0114,0.02656 0.0176,0.08082 -0.0022,0.159439 -0.0186,0.0797 -0.05852,0.171618 -0.12014,0.263513 -0.06366,0.09412 -0.151958,0.191539 -0.271083,0.292302 -0.117059,0.09744 -0.256708,0.192659 -0.418949,0.284552 -0.356313,0.184898 -0.71057,0.308909 -1.208586,0.509314 -0.451809,0.181578 -0.990898,0.416306 -1.4961,0.788327 -0.264924,0.201513 -0.529848,0.452847 -0.757806,0.757328 -0.226932,0.304482 -0.424085,0.672073 -0.533954,1.102776 -0.09858,0.430702 -0.103719,0.909016 0.02874,1.368505 0.06674,0.233622 0.169418,0.455062 0.300863,0.652144 0.133499,0.199299 0.300862,0.379773 0.499042,0.523708 0.352204,0.252442 0.740348,0.345448 1.076124,0.355413 h 0.113979 c 0.284434,-0.0076 0.555519,-0.07086 0.802987,-0.160538 0.258762,-0.08524 0.492882,-0.200405 0.694141,-0.302268 0.205368,-0.105179 0.363499,-0.190418 0.52882,-0.2613 0.150938,-0.07196 0.282381,-0.118459 0.401494,-0.138419 0.11294,-0.0188 0.205369,-0.01 0.272112,0.01 0.02978,0.0088 0.05648,0.02324 0.07804,0.03766 0.02054,0.0144 0.03492,0.02768 0.0421,0.03434 0.0114,0.0056 0.02158,0.0144 0.02874,0.0168 0.0082,0 0.0154,0.0046 0.02568,0.0022 0.0092,-0.0022 0,0.03322 -0.03698,0.07974 -0.04312,0.05426 -0.105759,0.108499 -0.202286,0.189318 -0.09344,0.0764 -0.220772,0.177139 -0.336804,0.30116 -0.128339,0.136179 -0.25363,0.308909 -0.330641,0.522602 -0.07702,0.215904 -0.08934,0.437344 -0.0575,0.632213 0.03698,0.226976 0.134518,0.412986 0.247468,0.544745 0.151978,0.179359 0.328587,0.255762 0.458994,0.2768 0.03182,0.0046 0.0616,0.0066 0.08934,0.0056 0.232064,-0.0088 0.325506,-0.200404 0.366579,-0.25687 -0.0575,-0.05868 -0.116039,-0.209262 -0.162238,-0.337699 -0.0052,-0.0144 -0.0102,-0.02768 -0.0144,-0.04208 -0.0186,-0.05646 -0.0349,-0.118459 -0.0308,-0.173818 0.0022,-0.03986 0.0114,-0.08192 0.02876,-0.1085 0.0144,-0.02324 0.03492,-0.0443 0.0534,-0.05204 0.0186,-0.0088 0.0493,-0.03544 0.104739,-0.07196 0.0688,-0.0443 0.117079,-0.06974 0.239255,-0.140618 0.0955,-0.05426 0.2372,-0.138419 0.372741,-0.252444 0.135538,-0.114039 0.291621,-0.280122 0.40252,-0.511528 0.09858,-0.207047 0.146839,-0.436239 0.146839,-0.662109 10e-4,-0.225868 -0.0462,-0.445096 -0.128339,-0.641071 -0.08624,-0.197078 -0.205368,-0.365379 -0.340911,-0.503778 -0.136559,-0.139519 -0.291622,-0.25023 -0.45386,-0.333269 -0.32551,-0.164979 -0.668471,-0.211477 -0.969335,-0.199299 -0.311131,0.0122 -0.596591,0.08748 -0.831737,0.167179 -0.232064,0.08416 -0.472344,0.194879 -0.642801,0.269052 -0.196118,0.08526 -0.347069,0.143939 -0.4898,0.179358 -0.134519,0.02546 -0.236172,0.02324 -0.310106,0.0056 -0.0092,-0.0022 -0.0184,-0.0046 -0.02772,-0.0076 -0.07496,-0.02546 -0.116019,-0.06974 -0.104739,-0.0919 0.0062,-0.0088 0.0072,-0.02 0.0092,-0.03876 0.0022,-0.0176 0.004,-0.03766 0.0124,-0.05536 0.0124,-0.03766 0.03284,-0.102979 0.07498,-0.163859 0.0308,-0.06754 0.08214,-0.143939 0.166338,-0.2303 0.08624,-0.08858 0.199199,-0.178258 0.33475,-0.257978 0.273138,-0.177138 0.598647,-0.308909 1.020676,-0.451738 0.390196,-0.132859 0.925178,-0.295626 1.417034,-0.515958 0.264924,-0.112939 0.540116,-0.251336 0.807094,-0.426275 0.273138,-0.178258 0.543195,-0.397486 0.789635,-0.66875 0.255684,-0.283444 0.477481,-0.617821 0.640747,-0.992056 0.167379,-0.385307 0.276218,-0.822652 0.286486,-1.291 0.0102,-0.461844 -0.07702,-0.898083 -0.222816,-1.283388 -0.149919,-0.399917 -0.368635,-0.758652 -0.629451,-1.058703 -0.552438,-0.635537 -1.251712,-0.980985 -1.880137,-1.130457 -0.728026,-0.173823 -1.410873,-0.109619 -1.935587,0.01002 -0.145818,0.03433 -0.283405,0.07197 -0.41176,0.112941 -0.484668,0.153899 -0.887187,0.360951 -1.169569,0.521496 -0.458996,0.255765 -0.915937,0.566889 -1.227068,0.771721 -0.361447,0.238048 -0.6849,0.443989 -1.009381,0.60232 -0.144791,0.07196 -0.302923,0.136178 -0.467216,0.180478 -0.131431,0.03434 -0.25979,0.05758 -0.38609,0.06422 -0.241308,0.0134 -0.444622,-0.03322 -0.582216,-0.118459 -0.0801,-0.0465 -0.162237,-0.11404 -0.2372,-0.202619 -0.07497,-0.08968 -0.138621,-0.193756 -0.181742,-0.304487 -0.09858,-0.2458 -0.129389,-0.543638 -0.08625,-0.825974 0.01138,-0.176044 0.04723,-0.353199 0.103712,-0.529244 0.04415,-0.136189 0.104733,-0.274588 0.181744,-0.414094 0.180723,-0.327733 0.442567,-0.637752 0.749592,-0.904586 0.477477,-0.474993 1.036077,-0.818225 1.602891,-1.040774 0.630477,-0.248014 1.234256,-0.333269 1.764104,-0.337697 0.677711,-0.0045 1.284576,0.120683 1.759998,0.180467 0.0134,0.0011 0.0267,0.0033 0.04004,0.0045 0.751646,0.08969 1.327699,-0.09965 1.839063,-0.363164 0.495962,-0.254656 0.939559,-0.598997 1.2168,-0.60121 z"
     style="fill:url(#linearGradient6);stroke-width:1.99998"
     id="path1-5" />
</svg>
