<?xml version="1.0" encoding="UTF-8" standalone="no"?>
<!-- Created with Inkscape (http://www.inkscape.org/) -->

<svg
   width="32"
   height="32"
   viewBox="0 0 32 32.000002"
   version="1.1"
   id="svg1"
   inkscape:version="1.4.4 (dcaf3e7d9e, 2026-05-05)"
   sodipodi:docname="winetricks.svg"
   xmlns:inkscape="http://www.inkscape.org/namespaces/inkscape"
   xmlns:sodipodi="http://sodipodi.sourceforge.net/DTD/sodipodi-0.dtd"
   xmlns:xlink="http://www.w3.org/1999/xlink"
   xmlns="http://www.w3.org/2000/svg"
   xmlns:svg="http://www.w3.org/2000/svg">
  <sodipodi:namedview
     id="namedview1"
     pagecolor="#ffffff"
     bordercolor="#000000"
     borderopacity="0.25"
     inkscape:showpageshadow="2"
     inkscape:pageopacity="0.0"
     inkscape:pagecheckerboard="0"
     inkscape:deskcolor="#d1d1d1"
     inkscape:document-units="px"
     inkscape:zoom="18.125"
     inkscape:cx="15.972414"
     inkscape:cy="16"
     inkscape:window-width="1440"
     inkscape:window-height="831"
     inkscape:window-x="0"
     inkscape:window-y="0"
     inkscape:window-maximized="1"
     inkscape:current-layer="svg1" />
  <defs
     id="defs1">
    <linearGradient
       inkscape:collect="always"
       id="linearGradient1606">
      <stop
         style="stop-color:#eaebed;stop-opacity:1;"
         offset="0"
         id="stop1602" />
      <stop
         style="stop-color:#f9fafa;stop-opacity:1;"
         offset="1"
         id="stop1604" />
    </linearGradient>
    <linearGradient
       inkscape:collect="always"
       xlink:href="#linearGradient1606"
       id="linearGradient4"
       x1="16"
       y1="30"
       x2="16"
       y2="2"
       gradientUnits="userSpaceOnUse" />
    <linearGradient
       inkscape:collect="always"
       xlink:href="#linearGradient1694"
       id="linearGradient3"
       x1="16"
       y1="19"
       x2="16"
       y2="7"
       gradientUnits="userSpaceOnUse" />
    <linearGradient
       inkscape:collect="always"
       id="linearGradient1694">
      <stop
         style="stop-color:#940e0e;stop-opacity:1;"
         offset="0"
         id="stop1690" />
      <stop
         style="stop-color:#d17979;stop-opacity:1;"
         offset="1"
         id="stop1692" />
    </linearGradient>
    <linearGradient
       id="linearGradient3-0"
       inkscape:collect="always">
      <stop
         style="stop-color:#98a9ad;stop-opacity:1;"
         offset="0"
         id="stop3" />
      <stop
         style="stop-color:#c4c8cd;stop-opacity:1;"
         offset="1"
         id="stop4" />
    </linearGradient>
    <linearGradient
       inkscape:collect="always"
       xlink:href="#linearGradient3-0"
       id="linearGradient2"
       x1="15.824121"
       y1="26.170855"
       x2="16"
       y2="6"
       gradientUnits="userSpaceOnUse" />
    <linearGradient
       inkscape:collect="always"
       xlink:href="#linearGradient2205"
       id="linearGradient5187"
       x1="-12.832299"
       y1="-13.981112"
       x2="-14.419785"
       y2="-14.014091"
       gradientUnits="userSpaceOnUse"
       gradientTransform="matrix(-1.3362772,-1.3362772,1.3362772,-1.3362772,15.298793,-10.864234)" />
    <linearGradient
       inkscape:collect="always"
       xlink:href="#linearGradient950"
       id="linearGradient5250"
       x1="12.472872"
       y1="6.6415358"
       x2="14.060357"
       y2="6.6415358"
       gradientUnits="userSpaceOnUse"
       gradientTransform="matrix(1.3362772,1.3362772,-1.3362772,1.3362772,17.229404,-11.834254)" />
    <linearGradient
       inkscape:collect="always"
       id="linearGradient2205">
      <stop
         style="stop-color:#818181;stop-opacity:1"
         offset="0"
         id="stop2201" />
      <stop
         style="stop-color:#404040;stop-opacity:1"
         offset="1"
         id="stop2203" />
    </linearGradient>
    <linearGradient
       inkscape:collect="always"
       id="linearGradient950">
      <stop
         style="stop-color:#dddddd;stop-opacity:1;"
         offset="0"
         id="stop946" />
      <stop
         style="stop-color:#939393;stop-opacity:1;"
         offset="1"
         id="stop948" />
    </linearGradient>
  </defs>
  <rect
     style="fill:#000000;stroke-width:1.75;opacity:0.2"
     id="rect1"
     width="28"
     height="28"
     x="2"
     y="3"
     ry="6" />
  <rect
     style="fill:url(#linearGradient4)"
     id="rect2"
     width="28"
     height="28"
     x="2"
     y="2"
     ry="6" />
  <path
     id="path1"
     style="fill:url(#linearGradient2);stroke-width:2"
     d="m 16,6 c -2.376441,0.0022 -3.848163,0.441027 -5,1 v 8 c 0,2.427902 1.711593,4.442166 4,4.902344 v 4.15625 C 13.802816,24.199683 13.001782,24.576732 13,25 c 0,0.552285 1.343146,1 3,1 1.656854,0 3,-0.447715 3,-1 6.99e-4,-0.423985 -0.80079,-0.802031 -2,-0.943359 V 19.902344 C 19.288407,19.442166 21,17.427902 21,15 V 7 C 19.848163,6.441027 18.376441,6.002163 16,6 Z m 0,1 c 1.906172,0.00174 3.0467,0.3118105 4,0.703125 V 12 15 c 0,2.215989 -1.784013,4 -4,4 -2.215989,0 -4,-1.784011 -4,-4 V 12 7.703125 C 12.9533,7.3118097 14.093829,7.00173 16,7 Z" />
  <path
     d="m 12,12 c 0.176429,0.31393 1.145431,1 2.25,1 1.104569,0 1.921655,-0.686467 2.25,-1 0.26756,-0.255886 1.224098,-1.005652 1.75,-1 0.697226,-0.01188 1.371579,0.57308 1.75,1 v 3 c 0,2.215989 -1.784013,4 -4,4 -2.215989,0 -4,-1.784011 -4,-4 z"
     style="fill:url(#linearGradient3);stroke-width:2"
     id="path2" />
  <path
     id="rect1693"
     style="opacity:0.7;fill:#fed946;fill-opacity:1;stroke-width:1"
     d="m 14.000019,13 c 0,1.104581 -0.895439,2.00002 -2.000019,2.000019 1.10458,0 2.000019,0.895439 2.000019,2.000019 0,-1.10458 0.895438,-2.000019 2.000018,-2.000019 -1.10458,0 -2.000018,-0.895439 -2.000018,-2.000019 z"
     sodipodi:nodetypes="ccccc" />
  <path
     d="m 17,16 c 0,1.10457 -0.89543,2 -2,2 1.10457,0 2,0.89543 2,2 0,-1.10457 0.895432,-2 2,-2 -1.104568,0 -2,-0.89543 -2,-2 z"
     style="opacity:0.7;fill:#fed946;fill-opacity:1;stroke-width:0.264582"
     id="path4839" />
  <path
     d="m 18,9 c 0,1.656855 -1.343145,3 -3,3 1.656855,0 3,1.343145 3,3 0,-1.656855 1.343145,-3 3,-3 -1.656855,0 -3,-1.343145 -3,-3 z"
     style="opacity:0.7;fill:#fed946;fill-opacity:1;stroke-width:0.396873"
     id="path5282" />
  <path
     id="rect4814"
     style="fill:url(#linearGradient5187);stroke-width:3.00001;stroke-linecap:round;stroke-linejoin:round"
     d="m 23.558429,15.5625 c -0.239525,-0.0028 -0.468862,0.07628 -0.658204,0.265624 L 12.292803,26.435547 c -0.391738,0.391737 -0.391737,1.022325 1e-6,1.414063 l 0.707031,0.707031 c 0.391736,0.391736 1.024278,0.391738 1.416016,0 L 25.021319,17.951172 C 25.841801,17.13069 24.596382,15.574851 23.558429,15.5625 Z" />
  <path
     id="rect5241"
     style="fill:url(#linearGradient5250);fill-opacity:1;stroke-width:3.00001;stroke-linecap:round;stroke-linejoin:round"
     d="m 27.849987,12.293803 0.707107,0.707107 c 0.391737,0.391739 0.391737,1.022478 0,1.414215 l -3.535283,3.535283 -2.12132,-2.12132 3.535283,-3.535283 c 0.391738,-0.391738 1.022477,-0.391738 1.414213,-2e-6 z"
     sodipodi:nodetypes="sssccss" />
</svg>
