<?xml version="1.0" encoding="UTF-8" standalone="no"?>
<!-- Created with Inkscape (http://www.inkscape.org/) -->

<svg
   width="22"
   height="22"
   viewBox="0 0 22 22.000002"
   version="1.1"
   id="svg1"
   inkscape:version="1.4.3 (0d15f75042, 2025-12-25)"
   sodipodi:docname="accessories-ebook-reader.svg"
   xmlns:inkscape="http://www.inkscape.org/namespaces/inkscape"
   xmlns:sodipodi="http://sodipodi.sourceforge.net/DTD/sodipodi-0.dtd"
   xmlns:xlink="http://www.w3.org/1999/xlink"
   xmlns="http://www.w3.org/2000/svg"
   xmlns:svg="http://www.w3.org/2000/svg">
  <sodipodi:namedview
     id="namedview1"
     pagecolor="#ffffff"
     bordercolor="#000000"
     borderopacity="0.25"
     inkscape:showpageshadow="2"
     inkscape:pageopacity="0.0"
     inkscape:pagecheckerboard="0"
     inkscape:deskcolor="#d1d1d1"
     inkscape:document-units="px"
     inkscape:zoom="36.136364"
     inkscape:cx="11"
     inkscape:cy="10.986163"
     inkscape:window-width="1920"
     inkscape:window-height="1011"
     inkscape:window-x="0"
     inkscape:window-y="0"
     inkscape:window-maximized="1"
     inkscape:current-layer="svg1" />
  <defs
     id="defs1">
    <linearGradient
       inkscape:collect="always"
       xlink:href="#4852"
       id="linearGradient4"
       x1="16"
       y1="30"
       x2="16"
       y2="2"
       gradientUnits="userSpaceOnUse"
       gradientTransform="matrix(0.71428571,0,0,0.71428571,-0.42857143,-0.4285714)" />
    <linearGradient
       inkscape:collect="always"
       id="4852">
      <stop
         style="stop-color:#272727;stop-opacity:1;"
         offset="0"
         id="stop14555" />
      <stop
         style="stop-color:#5d5d5d;stop-opacity:1;"
         offset="1"
         id="stop14557" />
    </linearGradient>
    <linearGradient
       inkscape:collect="always"
       id="linearGradient3788">
      <stop
         style="stop-color:#ff7c15;stop-opacity:1;"
         offset="0"
         id="stop3784" />
      <stop
         style="stop-color:#f9bd00;stop-opacity:1;"
         offset="1"
         id="stop3786" />
    </linearGradient>
    <linearGradient
       inkscape:collect="always"
       xlink:href="#linearGradient3788"
       id="linearGradient2"
       x1="11"
       y1="21"
       x2="11"
       y2="1"
       gradientUnits="userSpaceOnUse" />
  </defs>
  <rect
     style="opacity:0.2;fill:#000000;stroke-width:1.75"
     id="rect1"
     width="20"
     height="20"
     x="1"
     y="1.5"
     ry="4" />
  <rect
     style="fill:url(#linearGradient4);stroke-width:0.714286"
     id="rect2"
     width="20"
     height="20"
     x="1"
     y="1"
     ry="4" />
  <path
     d="M 7,5.9999999 C 5.10905,5.9999999 4.313378,6.7461691 4,7.5 v 8.142578 c 0,0.159142 0.08334,0.353144 0.25,0.357421 0.151344,0.0039 0.32115,-0.236461 0.416016,-0.357421 C 4.885882,15.385524 5.795024,14.565863 7,14.499999 c 0.675248,0.0096 1.586834,0.163337 2.333984,0.785157 C 9.621822,15.544775 10.009858,15.486582 10,14.999999 V 7.5 C 9.2379,6.3020643 8.186342,5.9999999 7,5.9999999 Z m 7,0 c -1.186342,0 -2.2379,0.3020646 -3,1.5000001 v 7.499999 c -0.0099,0.486583 0.378178,0.544776 0.666016,0.285157 0.74715,-0.62182 1.658736,-0.775587 2.333984,-0.785157 1.204976,0.06586 2.114118,0.885525 2.333984,1.142579 0.09487,0.12096 0.264672,0.361321 0.416016,0.357421 0.16666,-0.0043 0.25,-0.19828 0.25,-0.357421 V 7.5 C 16.686622,6.7461691 15.89095,5.9999999 14,5.9999999 Z"
     style="color:#000000;fill:url(#linearGradient2);stroke:none;stroke-width:1.38011;stroke-linecap:round;stroke-linejoin:round"
     id="path1923" />
</svg>
