<?xml version="1.0" encoding="UTF-8" standalone="no"?>
<!-- Created with Inkscape (http://www.inkscape.org/) -->

<svg
   width="22"
   height="22"
   viewBox="0 0 22 22.000002"
   version="1.1"
   id="svg1"
   inkscape:version="1.4.3 (0d15f75042, 2025-12-25)"
   sodipodi:docname="conky.svg"
   xmlns:inkscape="http://www.inkscape.org/namespaces/inkscape"
   xmlns:sodipodi="http://sodipodi.sourceforge.net/DTD/sodipodi-0.dtd"
   xmlns:xlink="http://www.w3.org/1999/xlink"
   xmlns="http://www.w3.org/2000/svg"
   xmlns:svg="http://www.w3.org/2000/svg">
  <sodipodi:namedview
     id="namedview1"
     pagecolor="#ffffff"
     bordercolor="#000000"
     borderopacity="0.25"
     inkscape:showpageshadow="2"
     inkscape:pageopacity="0.0"
     inkscape:pagecheckerboard="0"
     inkscape:deskcolor="#d1d1d1"
     inkscape:document-units="px"
     inkscape:zoom="26.318182"
     inkscape:cx="11"
     inkscape:cy="11"
     inkscape:window-width="1440"
     inkscape:window-height="830"
     inkscape:window-x="0"
     inkscape:window-y="0"
     inkscape:window-maximized="1"
     inkscape:current-layer="svg1" />
  <defs
     id="defs1">
    <linearGradient
       inkscape:collect="always"
       xlink:href="#4852"
       id="linearGradient4"
       x1="16"
       y1="30"
       x2="16"
       y2="2"
       gradientUnits="userSpaceOnUse"
       gradientTransform="matrix(0.71428571,0,0,0.71428571,-0.42857143,-0.42857143)" />
    <linearGradient
       inkscape:collect="always"
       id="4852">
      <stop
         style="stop-color:#272727;stop-opacity:1;"
         offset="0"
         id="stop14555" />
      <stop
         style="stop-color:#5d5d5d;stop-opacity:1;"
         offset="1"
         id="stop14557" />
    </linearGradient>
    <linearGradient
       inkscape:collect="always"
       xlink:href="#linearGradient6"
       id="linearGradient2"
       x1="11"
       y1="21"
       x2="11"
       y2="1"
       gradientUnits="userSpaceOnUse" />
    <linearGradient
       id="linearGradient6"
       inkscape:collect="always">
      <stop
         style="stop-color:#6d10b1;stop-opacity:1;"
         offset="0"
         id="stop6" />
      <stop
         style="stop-color:#a642ee;stop-opacity:1;"
         offset="1"
         id="stop7" />
    </linearGradient>
  </defs>
  <rect
     style="opacity:0.2;fill:#000000;stroke-width:1.75"
     id="rect1"
     width="20"
     height="20"
     x="1"
     y="1.5"
     ry="4" />
  <rect
     style="fill:url(#linearGradient4);stroke-width:0.714286"
     id="rect2"
     width="20"
     height="20"
     x="1"
     y="1"
     ry="4" />
  <path
     id="rect234"
     style="fill:url(#linearGradient2);stroke-width:4;stroke-linecap:round;stroke-linejoin:round"
     d="M 5.999999,5 C 4.892005,5 4,5.8920056 4,7.0000001 V 13 c 0,1.107995 0.892005,2 1.999999,2 H 10 v 2 H 6.499999 c -0.276999,0 -0.5,0.223 -0.5,0.5 0,0.277 0.223001,0.5 0.5,0.5 h 9 c 0.276999,0 0.5,-0.223 0.5,-0.5 0,-0.277 -0.223001,-0.5 -0.5,-0.5 H 12 v -2 h 3.999999 C 17.107994,15 18,14.107995 18,13 V 11.5 C 18,11.223858 17.776141,11 17.499999,11 c -0.276142,0 -0.5,0.223858 -0.5,0.5 V 13 c 0,0.553997 -0.446003,1 -1,1 h -10 C 5.446002,14 5,13.553997 5,13 V 7.0000001 C 5,6.446003 5.446002,6 5.999999,6 h 10 c 0.553997,0 1,0.446003 1,1.0000001 V 8.5 c 0,0.2761415 0.223858,0.5 0.5,0.5 C 17.776141,9 18,8.7761415 18,8.5 V 7.0000001 C 18,5.8920056 17.107994,5 15.999999,5 Z"
     sodipodi:nodetypes="ssssccssssssccsssssssssssssssssss" />
</svg>
