<?xml version="1.0" encoding="UTF-8" standalone="no"?>
<!-- Created with Inkscape (http://www.inkscape.org/) -->

<svg
   width="22"
   height="22"
   viewBox="0 0 22 22.000002"
   version="1.1"
   id="svg1"
   inkscape:version="1.4.2 (ebf0e940d0, 2025-05-08)"
   sodipodi:docname="electron.svg"
   xmlns:inkscape="http://www.inkscape.org/namespaces/inkscape"
   xmlns:sodipodi="http://sodipodi.sourceforge.net/DTD/sodipodi-0.dtd"
   xmlns:xlink="http://www.w3.org/1999/xlink"
   xmlns="http://www.w3.org/2000/svg"
   xmlns:svg="http://www.w3.org/2000/svg">
  <sodipodi:namedview
     id="namedview1"
     pagecolor="#ffffff"
     bordercolor="#000000"
     borderopacity="0.25"
     inkscape:showpageshadow="2"
     inkscape:pageopacity="0.0"
     inkscape:pagecheckerboard="0"
     inkscape:deskcolor="#d1d1d1"
     inkscape:document-units="px"
     inkscape:zoom="35.727273"
     inkscape:cx="10.902036"
     inkscape:cy="11.013995"
     inkscape:window-width="1920"
     inkscape:window-height="1011"
     inkscape:window-x="0"
     inkscape:window-y="0"
     inkscape:window-maximized="1"
     inkscape:current-layer="svg1" />
  <defs
     id="defs1">
    <linearGradient
       inkscape:collect="always"
       xlink:href="#4852"
       id="linearGradient4"
       x1="16"
       y1="30"
       x2="16"
       y2="2"
       gradientUnits="userSpaceOnUse"
       gradientTransform="matrix(0.71428571,0,0,0.71428571,-0.42857143,-0.42857143)" />
    <linearGradient
       inkscape:collect="always"
       id="4852">
      <stop
         style="stop-color:#272727;stop-opacity:1;"
         offset="0"
         id="stop14555" />
      <stop
         style="stop-color:#5d5d5d;stop-opacity:1;"
         offset="1"
         id="stop14557" />
    </linearGradient>
  </defs>
  <rect
     style="opacity:0.2;fill:#000000;stroke-width:1.75"
     id="rect1"
     width="20"
     height="20"
     x="1"
     y="1.5"
     ry="4" />
  <rect
     style="fill:url(#linearGradient4);stroke-width:0.714286"
     id="rect2"
     width="20"
     height="20"
     x="1"
     y="1"
     ry="4" />
  <path
     d="M 11.429688,3.0019531 C 10.91954,3.0259045 10.45663,3.3077717 10.201172,3.75 9.7870662,4.4673371 10.032763,5.3845483 10.75,5.7988281 c 0.374721,0.216551 0.824715,0.2606959 1.234375,0.1210938 0.170592,0.1814301 0.338131,0.3784725 0.498047,0.5917969 C 11.172086,6.9344414 9.8109233,7.5974936 8.625,8.4257812 7.7372531,9.0458123 6.9970595,9.7760344 6.421875,10.552734 5.8270846,10.003445 5.3873871,9.4434571 5.171875,8.9394531 4.9544866,8.4310613 4.9392257,8.0093795 5.1640625,7.5585938 5.4134382,7.0586088 5.7037313,6.8105026 6.0097656,6.6699219 6.3158,6.5293412 6.6574451,6.4997104 6.9941406,6.5351562 7.6675317,6.6060481 8.25,6.9335938 8.25,6.9335938 8.4894326,7.0719286 8.7956846,6.9896781 8.9335938,6.75 9.0719286,6.5105674 8.9896781,6.2043154 8.75,6.0664062 c 0,0 -0.726165,-0.4278864 -1.6523438,-0.5253906 C 6.6345669,5.4922635 6.1047364,5.5260935 5.5917969,5.7617188 5.0788574,5.9973439 4.6045161,6.4397016 4.2695312,7.1113281 3.9100075,7.8321541 3.9498938,8.6256253 4.2519531,9.3320312 c 0.3020594,0.7064058 0.8401326,1.3570818 1.5078125,1.9707028 0.035864,0.03296 0.072745,0.0649 0.109375,0.09766 C 5.5636802,11.939257 5.3352953,12.49083 5.1894531,13.033203 4.4963234,13.17988 4.0003328,13.791521 4,14.5 4,15.328427 4.6715729,16 5.5,16 6.3284271,16 7,15.328427 7,14.5 c 5.23e-5,-0.555933 -0.3073716,-1.066302 -0.7988281,-1.326172 0.1113965,-0.3631 0.2698717,-0.738951 0.4707031,-1.115234 1.2098601,0.916681 2.6668045,1.729333 4.042969,2.373047 0.933027,0.436432 1.876845,0.627538 2.779297,0.648437 -0.03883,0.120565 -0.08022,0.23775 -0.123047,0.351563 -0.259327,0.689184 -0.591648,1.243733 -0.949219,1.597656 -0.357571,0.353923 -0.711168,0.512591 -1.126953,0.496094 -0.955173,-0.0379 -1.4860204,-0.538135 -1.8398439,-1.072266 -0.3538234,-0.534131 -0.4648437,-1.056641 -0.4648437,-1.056641 -0.056683,-0.271082 -0.3228931,-0.444469 -0.59375,-0.386718 -0.2710828,0.05668 -0.4444698,0.322893 -0.3867188,0.59375 0,0 0.1437179,0.696441 0.6113282,1.402343 0.4676099,0.705903 1.3249896,1.467564 2.6347652,1.519532 0.716689,0.02844 1.368193,-0.287386 1.871094,-0.785157 0.502901,-0.49777 0.885061,-1.174036 1.179688,-1.957031 0.09096,-0.241731 0.174282,-0.494853 0.248047,-0.755859 0.675661,-0.08082 1.313002,-0.246465 1.888671,-0.462891 0.480376,0.476757 1.220515,0.572775 1.806641,0.234375 0.717237,-0.41428 0.962934,-1.331491 0.548828,-2.048828 -0.274097,-0.475089 -0.785644,-0.762693 -1.333984,-0.75 -0.251376,0.0061 -0.497191,0.07526 -0.714844,0.201172 -0.51225,0.295687 -0.80292,0.864786 -0.742188,1.453125 -0.377137,0.135481 -0.783276,0.248319 -1.210937,0.322265 0.213668,-1.173911 0.271056,-2.460061 0.162109,-3.722656 -0.09882,-1.1453126 -0.425375,-2.2024004 -0.892578,-3.1210935 0.757203,-0.1453108 1.433469,-0.1672185 1.919922,-0.072266 0.488568,0.095366 0.746897,0.2739732 0.871094,0.5332031 0.338109,0.7057153 0.17803,1.2832425 -0.07813,1.7578125 -0.256151,0.47457 -0.595703,0.7675789 -0.595703,0.7675789 -0.211002,0.17846 -0.237244,0.494237 -0.05859,0.705078 0.179031,0.210402 0.494756,0.235765 0.705078,0.05664 0,0 0.477777,-0.401978 0.830078,-1.0546875 C 18.012457,9.1734628 18.252964,8.1915342 17.759765,7.162109 17.46831,6.5537693 16.85671,6.2106578 16.177734,6.078125 15.498759,5.9455922 14.713369,5.98891 13.867188,6.152344 13.755605,6.173895 13.642843,6.19687 13.529297,6.222656 c -0.232714,-0.3422038 -0.484839,-0.655752 -0.75,-0.9394531 0.0067,-0.010984 0.01316,-0.022052 0.01953,-0.033203 C 13.212934,4.5326629 12.967237,3.6154517 12.25,3.2011719 12.001272,3.0576071 11.716558,2.9884624 11.429688,3.0019531 Z M 11.5,4 C 11.776142,4 12,4.2238576 12,4.5 12,4.7761424 11.776142,5 11.5,5 11.223858,5 11,4.7761424 11,4.5 11,4.2238576 11.223858,4 11.5,4 Z m 1.546875,3.3867188 c 0.474337,0.8557869 0.821989,1.863439 0.916016,2.9531252 0.109863,1.273223 0.02973,2.587344 -0.207032,3.734375 -0.849997,0.01343 -1.744209,-0.140485 -2.617187,-0.548828 C 9.7830004,12.891262 8.3419922,12.076666 7.203125,11.205078 7.7138254,10.495646 8.3829445,9.8162058 9.1992188,9.2460938 10.371432,8.4273815 11.764206,7.772228 13.046875,7.3867188 Z M 11,10 c -0.549108,0 -1,0.450892 -1,1 0,0.549108 0.450892,1 1,1 0.549108,0 1,-0.450892 1,-1 0,-0.549108 -0.450892,-1 -1,-1 z m 6.5,3 C 17.776142,13 18,13.223858 18,13.5 18,13.776142 17.776142,14 17.5,14 17.223858,14 17,13.776142 17,13.5 17,13.223858 17.223858,13 17.5,13 Z m -12,1 C 5.7761424,14 6,14.223858 6,14.5 6,14.776142 5.7761424,15 5.5,15 5.2238576,15 5,14.776142 5,14.5 5,14.223858 5.2238576,14 5.5,14 Z"
     style="fill:#cff7ff"
     id="path1" />
</svg>
