<?xml version="1.0" encoding="UTF-8" standalone="no"?>
<!-- Created with Inkscape (http://www.inkscape.org/) -->

<svg
   width="22"
   height="22"
   viewBox="0 0 22 22.000002"
   version="1.1"
   id="svg1"
   inkscape:version="1.4.3 (0d15f75042, 2025-12-25)"
   sodipodi:docname="hexchat.svg"
   xmlns:inkscape="http://www.inkscape.org/namespaces/inkscape"
   xmlns:sodipodi="http://sodipodi.sourceforge.net/DTD/sodipodi-0.dtd"
   xmlns:xlink="http://www.w3.org/1999/xlink"
   xmlns="http://www.w3.org/2000/svg"
   xmlns:svg="http://www.w3.org/2000/svg">
  <sodipodi:namedview
     id="namedview1"
     pagecolor="#ffffff"
     bordercolor="#000000"
     borderopacity="0.25"
     inkscape:showpageshadow="2"
     inkscape:pageopacity="0.0"
     inkscape:pagecheckerboard="0"
     inkscape:deskcolor="#d1d1d1"
     inkscape:document-units="px"
     inkscape:zoom="36.727273"
     inkscape:cx="10.959158"
     inkscape:cy="11"
     inkscape:window-width="1854"
     inkscape:window-height="1011"
     inkscape:window-x="0"
     inkscape:window-y="0"
     inkscape:window-maximized="1"
     inkscape:current-layer="svg1" />
  <defs
     id="defs1">
    <linearGradient
       inkscape:collect="always"
       xlink:href="#4852"
       id="linearGradient4"
       x1="16"
       y1="30"
       x2="16"
       y2="2"
       gradientUnits="userSpaceOnUse"
       gradientTransform="matrix(0.71428571,0,0,0.71428571,-0.42857143,-0.42857143)" />
    <linearGradient
       inkscape:collect="always"
       id="4852">
      <stop
         style="stop-color:#272727;stop-opacity:1;"
         offset="0"
         id="stop14555" />
      <stop
         style="stop-color:#5d5d5d;stop-opacity:1;"
         offset="1"
         id="stop14557" />
    </linearGradient>
    <linearGradient
       inkscape:collect="always"
       id="linearGradient1123">
      <stop
         style="stop-color:#f87c00;stop-opacity:1;"
         offset="0"
         id="stop1119" />
      <stop
         style="stop-color:#ff981e;stop-opacity:1;"
         offset="1"
         id="stop1121" />
    </linearGradient>
    <linearGradient
       inkscape:collect="always"
       xlink:href="#linearGradient1123"
       id="linearGradient2"
       x1="11"
       y1="21"
       x2="11"
       y2="1"
       gradientUnits="userSpaceOnUse" />
  </defs>
  <rect
     style="opacity:0.2;fill:#000000;stroke-width:1.75"
     id="rect1"
     width="20"
     height="20"
     x="1"
     y="1.5"
     ry="4" />
  <rect
     style="fill:url(#linearGradient4);stroke-width:0.714286"
     id="rect2"
     width="20"
     height="20"
     x="1"
     y="1"
     ry="4" />
  <path
     d="M 10.933998,5.0021506 C 9.33568,5.0174829 7.739092,5.1126152 7.437776,5.2815236 6.835144,5.6193403 3.992937,10.399032 4.000013,11.06304 c 0.0071,0.664008 2.952517,5.389701 3.562224,5.715892 0.609707,0.32619 6.397356,0.278755 6.999987,-0.05906 0.602631,-0.337817 3.444839,-5.117508 3.437763,-5.781516 C 17.992887,10.274349 15.047471,5.5420926 14.437764,5.215902 14.13291,5.0528072 12.532315,4.9868257 10.933998,5.0021543 Z m 0.458243,1.4381136 c 1.018589,0.00425 1.942414,0.060342 2.139409,0.1687496 0.0135,0.00748 0.03158,0.027978 0.04808,0.041252 L 11.096168,9.4458683 10.986793,9.5639928 10.883075,9.4458683 8.296738,6.71214 c 0.024,-0.021941 0.04934,-0.04368 0.06789,-0.054379 0.222528,-0.128304 1.406909,-0.2039788 2.587283,-0.2156234 0.147546,-0.00138 0.294813,-0.00249 0.440327,-0.00185 z m 3.534881,2.1037328 c 0.634839,1.0349398 1.237142,2.143079 1.239895,2.407481 0.0031,0.286488 -0.675863,1.57441 -1.34267,2.685917 l -2.441133,-2.199359 -0.117861,-0.104999 0.110318,-0.104061 z m -7.874986,0.0075 2.385502,2.677478 0.09806,0.104061 -0.103718,0.0975 -2.263869,2.199358 C 6.497379,12.549506 5.835875,11.328118 5.832984,11.048982 5.830184,10.778975 6.426504,9.6167859 7.052136,8.5515016 Z m 3.934664,3.947781 0.09618,0.0975 2.716455,2.574354 c -0.07001,0.08112 -0.128849,0.141284 -0.171606,0.165936 -0.44505,0.256609 -4.716742,0.31059 -5.167017,0.06282 -0.05023,-0.02765 -0.132021,-0.106152 -0.219692,-0.208125 l 2.641967,-2.59498 z"
     style="fill:url(#linearGradient2);stroke-width:0.481372"
     id="path350" />
</svg>
