<?xml version="1.0" encoding="UTF-8" standalone="no"?>
<!-- Created with Inkscape (http://www.inkscape.org/) -->

<svg
   width="22"
   height="22"
   viewBox="0 0 22 22.000002"
   version="1.1"
   id="svg1"
   inkscape:version="1.4.2 (ebf0e940d0, 2025-05-08)"
   sodipodi:docname="moonlight.svg"
   xmlns:inkscape="http://www.inkscape.org/namespaces/inkscape"
   xmlns:sodipodi="http://sodipodi.sourceforge.net/DTD/sodipodi-0.dtd"
   xmlns:xlink="http://www.w3.org/1999/xlink"
   xmlns="http://www.w3.org/2000/svg"
   xmlns:svg="http://www.w3.org/2000/svg">
  <sodipodi:namedview
     id="namedview1"
     pagecolor="#ffffff"
     bordercolor="#000000"
     borderopacity="0.25"
     inkscape:showpageshadow="2"
     inkscape:pageopacity="0.0"
     inkscape:pagecheckerboard="0"
     inkscape:deskcolor="#d1d1d1"
     inkscape:document-units="px"
     inkscape:zoom="36.727273"
     inkscape:cx="10.972772"
     inkscape:cy="10.986386"
     inkscape:window-width="1920"
     inkscape:window-height="1011"
     inkscape:window-x="0"
     inkscape:window-y="0"
     inkscape:window-maximized="1"
     inkscape:current-layer="svg1" />
  <defs
     id="defs1">
    <linearGradient
       inkscape:collect="always"
       xlink:href="#4852"
       id="linearGradient4"
       x1="16"
       y1="30"
       x2="16"
       y2="2"
       gradientUnits="userSpaceOnUse"
       gradientTransform="matrix(0.71428571,0,0,0.71428571,-0.42857143,-0.42857143)" />
    <linearGradient
       inkscape:collect="always"
       id="4852">
      <stop
         style="stop-color:#272727;stop-opacity:1;"
         offset="0"
         id="stop14555" />
      <stop
         style="stop-color:#5d5d5d;stop-opacity:1;"
         offset="1"
         id="stop14557" />
    </linearGradient>
  </defs>
  <rect
     style="opacity:0.2;fill:#000000;stroke-width:1.75"
     id="rect1"
     width="20"
     height="20"
     x="1"
     y="1.5"
     ry="4" />
  <rect
     style="fill:url(#linearGradient4);stroke-width:0.714286"
     id="rect2"
     width="20"
     height="20"
     x="1"
     y="1"
     ry="4" />
  <path
     id="path5017"
     style="fill:#ffffff"
     d="M 11.023438,3.0214844 V 9.2382812 L 15.419922,4.8417969 A 7.5,7.502748 0 0 0 11.023438,3.0214844 Z M 9.9746094,3.0371094 A 7.5,7.502748 0 0 0 5.578125,4.8417969 L 9.9746094,9.2382812 Z M 4.8359375,5.5859375 A 7.5,7.502748 0 0 0 3.0371094,9.9804688 h 6.1933594 z m 11.3242185,0 -4.394531,4.3945313 h 6.212891 A 7.5,7.502748 0 0 0 16.160156,5.5859375 Z M 3.0371094,11.029297 a 7.5,7.502748 0 0 0 1.8007812,4.392578 l 4.3925782,-4.392578 z m 8.7285156,0 4.394531,4.394531 a 7.5,7.502748 0 0 0 1.802735,-4.394531 z m -1.7910156,0.742187 -4.3945313,4.394532 a 7.5,7.502748 0 0 0 4.3945313,1.802734 z m 1.0488286,0 v 6.197266 a 7.5,7.502748 0 0 0 4.394531,-1.802734 z" />
</svg>
