<?xml version="1.0" encoding="UTF-8" standalone="no"?>
<!-- Created with Inkscape (http://www.inkscape.org/) -->

<svg
   width="22"
   height="22"
   viewBox="0 0 22 22.000002"
   version="1.1"
   id="svg1"
   inkscape:version="1.4.4 (dcaf3e7d9e, 2026-05-05)"
   sodipodi:docname="web-google.svg"
   xmlns:inkscape="http://www.inkscape.org/namespaces/inkscape"
   xmlns:sodipodi="http://sodipodi.sourceforge.net/DTD/sodipodi-0.dtd"
   xmlns:xlink="http://www.w3.org/1999/xlink"
   xmlns="http://www.w3.org/2000/svg"
   xmlns:svg="http://www.w3.org/2000/svg">
  <sodipodi:namedview
     id="namedview1"
     pagecolor="#ffffff"
     bordercolor="#000000"
     borderopacity="0.25"
     inkscape:showpageshadow="2"
     inkscape:pageopacity="0.0"
     inkscape:pagecheckerboard="0"
     inkscape:deskcolor="#d1d1d1"
     inkscape:document-units="px"
     inkscape:zoom="26.363636"
     inkscape:cx="10.981034"
     inkscape:cy="11"
     inkscape:window-width="1440"
     inkscape:window-height="831"
     inkscape:window-x="0"
     inkscape:window-y="0"
     inkscape:window-maximized="1"
     inkscape:current-layer="svg1" />
  <defs
     id="defs1">
    <linearGradient
       inkscape:collect="always"
       xlink:href="#4852"
       id="linearGradient4"
       x1="16"
       y1="30"
       x2="16"
       y2="2"
       gradientUnits="userSpaceOnUse"
       gradientTransform="matrix(0.71428571,0,0,0.71428571,-0.42857143,-0.42857143)" />
    <linearGradient
       inkscape:collect="always"
       id="4852">
      <stop
         style="stop-color:#272727;stop-opacity:1;"
         offset="0"
         id="stop14555" />
      <stop
         style="stop-color:#5d5d5d;stop-opacity:1;"
         offset="1"
         id="stop14557" />
    </linearGradient>
    <linearGradient
       inkscape:collect="always"
       xlink:href="#linearGradient4-5"
       id="linearGradient5"
       x1="9.6006889"
       y1="11.925255"
       x2="11.326503"
       y2="10.176216"
       gradientUnits="userSpaceOnUse"
       gradientTransform="matrix(1.4,0,0,1.4,-0.2,-0.2)" />
    <linearGradient
       id="linearGradient4-5"
       inkscape:collect="always">
      <stop
         style="stop-color:#0fbc5c;stop-opacity:1;"
         offset="0"
         id="stop4" />
      <stop
         style="stop-color:#1fa1ad;stop-opacity:1;"
         offset="0.52454919"
         id="stop6" />
      <stop
         style="stop-color:#3086ff;stop-opacity:1;"
         offset="1"
         id="stop5" />
    </linearGradient>
    <linearGradient
       inkscape:collect="always"
       xlink:href="#linearGradient6"
       id="linearGradient8"
       x1="3"
       y1="8"
       x2="5.7446046"
       y2="10.698293"
       gradientUnits="userSpaceOnUse"
       gradientTransform="matrix(1.4,0,0,1.4,-0.2,-0.2)" />
    <linearGradient
       id="linearGradient6"
       inkscape:collect="always">
      <stop
         style="stop-color:#fbbc04;stop-opacity:1;"
         offset="0"
         id="stop7" />
      <stop
         style="stop-color:#efb508;stop-opacity:1;"
         offset="0.70988506"
         id="stop13" />
      <stop
         style="stop-color:#0fbc5c;stop-opacity:1;"
         offset="1"
         id="stop8" />
    </linearGradient>
    <linearGradient
       inkscape:collect="always"
       xlink:href="#linearGradient9"
       id="linearGradient12"
       x1="4.8824315"
       y1="5.8423223"
       x2="9.5814972"
       y2="3.2567029"
       gradientUnits="userSpaceOnUse"
       gradientTransform="matrix(1.4,0,0,1.4,-0.2,-0.2)" />
    <linearGradient
       id="linearGradient9"
       inkscape:collect="always">
      <stop
         style="stop-color:#fbbc04;stop-opacity:1;"
         offset="0"
         id="stop9" />
      <stop
         style="stop-color:#fb642c;stop-opacity:1;"
         offset="0.25523826"
         id="stop11" />
      <stop
         style="stop-color:#fc413d;stop-opacity:1;"
         offset="0.64173776"
         id="stop12" />
      <stop
         style="stop-color:#fb4e5a;stop-opacity:1;"
         offset="1"
         id="stop10" />
    </linearGradient>
  </defs>
  <rect
     style="opacity:0.2;fill:#000000;stroke-width:1.75"
     id="rect1"
     width="20"
     height="20"
     x="1"
     y="1.5"
     ry="4" />
  <rect
     style="fill:url(#linearGradient4);stroke-width:0.714286"
     id="rect2"
     width="20"
     height="20"
     x="1"
     y="1"
     ry="4" />
  <path
     id="path6313"
     style="fill:#3086ff;fill-opacity:1;stroke-width:0.875;stroke-linecap:round;stroke-linejoin:round"
     d="M 11,4 C 8.3989666,4 6.139249,5.4243429 4.9324224,7.5300782 l -0.00826,-0.00547 C 4.8882244,7.5864016 4.8540644,7.647891 4.8202544,7.7105468 4.6685868,7.9949841 4.5356106,8.2903491 4.4237688,8.5964843 4.3106628,8.9062867 4.2177518,9.2225739 4.150332,9.5453125 4.100688,9.780068 4.063686,10.018926 4.03822,10.261718 4.0128912,10.505433 4.0010626,10.752551 4,11 4.00686,12.511471 4.4891642,13.99378 5.4,15.2 6.6770506,16.900675 8.7095006,18 11,18 12.467012,17.994 13.895061,17.527213 15.082422,16.665625 16.908057,15.354939 17.99336,13.247398 18,11 17.999751,10.529741 17.95212,10.060706 17.857813,9.6 H 15.834375 14.956641 11 v 2.8 h 3.956641 c -0.355852,0.994645 -1.073453,1.818663 -2.009766,2.307813 C 12.347262,15.026883 11.679209,15.195775 11,15.2 9.4820878,15.2 8.1504078,14.3941 7.4125,13.1875 7.0098446,12.531655 6.803332,11.76958 6.8,11 c 0,-0.15688 0.01064,-0.312427 0.027342,-0.464843 0.017416,-0.154594 0.042896,-0.307382 0.076566,-0.459375 0.03367,-0.1519956 0.075474,-0.3015492 0.125776,-0.4484386 0.0012,-0.0035 0.00154,-0.00742 0.00266,-0.01092 0.050302,-0.144332 0.109872,-0.2844218 0.175,-0.4210935 C 7.8824114,7.7787505 9.3263196,6.8 11,6.8 c 0.770917,6.826e-4 1.526776,0.2135339 2.184766,0.6152343 L 15.2,5.4 C 13.988327,4.4912452 12.514591,4 11,4 Z" />
  <path
     id="path6313-2"
     style="fill:#0fbc5c;fill-opacity:1;stroke-width:0.875;stroke-linecap:round;stroke-linejoin:round"
     d="M 6.9996092,13.026172 C 6.1856366,13.070809 4.659946,14.219945 5.4,15.2 6.6770506,16.900675 8.7095006,18 11,18 12.467012,17.994 13.895061,17.527213 15.082422,16.665625 16.908057,15.354939 13.883188,14.218663 12.946875,14.707813 12.347262,15.026883 11.679209,15.195775 11,15.2 9.4820878,15.2 8.1504078,14.3941 7.4125,13.1875 7.336998,13.064524 7.18745,13.015871 6.9996092,13.026172 Z" />
  <path
     id="path6313-7"
     style="fill:url(#linearGradient5);fill-opacity:1;stroke-width:0.875;stroke-linecap:round;stroke-linejoin:round"
     d="m 14.956641,12.4 c -0.04444,0.12418 -0.09496,0.245125 -0.150391,0.363672 -0.05547,0.118622 -0.117278,0.234929 -0.183203,0.347266 -0.0609,0.103782 -0.124768,0.205625 -0.19414,0.303515 -0.0012,0.0017 -0.0015,0.0038 -0.0028,0.0055 -0.03578,0.05032 -0.07692,0.09626 -0.114842,0.144922 -0.03847,0.04935 -0.07421,0.100086 -0.114842,0.147657 -0.0046,0.0055 -0.01106,0.01078 -0.01641,0.01641 -0.0038,0.0045 -0.0071,0.0092 -0.01092,0.01372 -0.340875,0.391466 -0.754063,0.720647 -1.22222,0.965223 C 12.347262,15.026883 11.679209,15.195775 11,15.2 c -1.004276,0.847713 -0.701642,0.915109 -0.172266,1.301563 0.493177,0.360026 0.853478,1.254469 1.296094,1.402734 0.131796,-0.02199 0.263652,-0.04711 0.39375,-0.07657 0.920032,-0.208261 1.792858,-0.60193 2.564844,-1.162109 0.528836,-0.37967 0.995427,-0.826008 1.391796,-1.323438 C 16.375496,13.785922 14.957153,12.400501 14.956641,12.4 Z" />
  <path
     id="path6313-29"
     style="fill:url(#linearGradient8);fill-opacity:1;stroke-width:0.875;stroke-linecap:round;stroke-linejoin:round"
     d="M 6.0125,6.690625 C 5.7157952,6.696183 5.4043288,6.8667761 5.1128908,7.259375 5.0546648,7.350907 4.9864848,7.4357441 4.9324224,7.5300782 l -0.00826,-0.00547 C 4.8882244,7.5864058 4.8540644,7.647891 4.8202544,7.7105468 4.6685868,7.9949841 4.5356106,8.2903491 4.4237688,8.5964843 4.3106628,8.9062867 4.2177518,9.2225739 4.150332,9.5453125 4.100688,9.7800582 4.063686,10.018937 4.03822,10.261718 4.0128912,10.505433 4.0010626,10.752551 4,11 c 0.00686,1.511471 0.4891642,2.99378 1.4,4.2 0.036596,0.04873 0.076706,0.09491 0.117572,0.139454 0.01148,0.01246 0.021644,0.0306 0.032816,0.05468 0.7949326,0.984715 1.8531324,1.750979 3.0652342,2.190234 0.5893636,-1.041813 0.9912238,-2.197186 0.91875,-2.646875 -0.038178,-0.01421 -0.074466,-0.03121 -0.112112,-0.04648 -0.021224,-0.0085 -0.041846,-0.01841 -0.062888,-0.02734 -0.1530732,-0.06507 -0.302582,-0.13668 -0.4457012,-0.218751 -0.132384,-0.07591 -0.2599996,-0.159434 -0.3828132,-0.248829 -0.040068,-0.02915 -0.078596,-0.05972 -0.117572,-0.09023 -0.118748,-0.09299 -0.2338168,-0.190332 -0.3417974,-0.295311 -0.1134,-0.11025 -0.2195172,-0.227653 -0.319921,-0.35 -0.023044,-0.02806 -0.046046,-0.05611 -0.068362,-0.08477 C 7.5862722,13.451273 7.4951364,13.322624 7.4125,13.1875 7.0098446,12.531655 6.803332,11.76958 6.8,11 6.8000014,10.84313 6.81064,10.687563 6.827342,10.535157 6.844758,10.380563 6.870238,10.227775 6.903908,10.075782 6.937578,9.9237864 6.979382,9.7742328 7.029684,9.6273434 v -0.0028 c 1.064e-4,-4.83e-4 -1.008e-4,-0.00224 0,-0.00266 l 0.00266,-0.0028 v -0.0028 c 0.050302,-0.1443322 0.109872,-0.2844218 0.175,-0.4210935 l 0.0028,-0.00273 C 7.6923278,8.1744546 6.9278522,6.6734684 6.0125,6.690625 Z" />
  <path
     id="path6313-5"
     style="fill:url(#linearGradient12);fill-opacity:1;stroke-width:0.875;stroke-linecap:round;stroke-linejoin:round"
     d="M 11,4 C 8.3989666,4 6.139249,5.4243429 4.9324224,7.5300782 l -0.00826,-0.00547 c 0.108038,2.115713 0.885773,1.5867432 2.2831998,1.6707117 C 7.8824114,7.7787505 9.3263196,6.8 11,6.8 c 0.770917,6.826e-4 1.526776,0.2135339 2.184766,0.6152343 L 15.2,5.4 C 13.988327,4.4912452 12.514591,4 11,4 Z"
     sodipodi:nodetypes="sccscccs" />
</svg>
