<?xml version="1.0" encoding="UTF-8" standalone="no"?>
<!-- Created with Inkscape (http://www.inkscape.org/) -->

<svg
   width="64"
   height="64"
   viewBox="0 0 64 64.000005"
   version="1.1"
   id="svg1"
   inkscape:version="1.4.4 (dcaf3e7d9e, 2026-05-05)"
   sodipodi:docname="accessories-calculator.svg"
   xmlns:inkscape="http://www.inkscape.org/namespaces/inkscape"
   xmlns:sodipodi="http://sodipodi.sourceforge.net/DTD/sodipodi-0.dtd"
   xmlns:xlink="http://www.w3.org/1999/xlink"
   xmlns="http://www.w3.org/2000/svg"
   xmlns:svg="http://www.w3.org/2000/svg">
  <sodipodi:namedview
     id="namedview1"
     pagecolor="#ffffff"
     bordercolor="#000000"
     borderopacity="0.25"
     inkscape:showpageshadow="2"
     inkscape:pageopacity="0.0"
     inkscape:pagecheckerboard="0"
     inkscape:deskcolor="#d1d1d1"
     inkscape:document-units="px"
     inkscape:zoom="12.5625"
     inkscape:cx="32"
     inkscape:cy="32"
     inkscape:window-width="1920"
     inkscape:window-height="1012"
     inkscape:window-x="0"
     inkscape:window-y="0"
     inkscape:window-maximized="1"
     inkscape:current-layer="svg1" />
  <defs
     id="defs1">
    <linearGradient
       inkscape:collect="always"
       xlink:href="#4852"
       id="linearGradient4"
       x1="16"
       y1="30"
       x2="16"
       y2="2"
       gradientUnits="userSpaceOnUse"
       gradientTransform="scale(2)" />
    <linearGradient
       inkscape:collect="always"
       id="4852">
      <stop
         style="stop-color:#272727;stop-opacity:1;"
         offset="0"
         id="stop14555" />
      <stop
         style="stop-color:#5d5d5d;stop-opacity:1;"
         offset="1"
         id="stop14557" />
    </linearGradient>
    <linearGradient
       inkscape:collect="always"
       xlink:href="#linearGradient3147"
       id="linearGradient1525"
       x1="35.554195"
       y1="49.459599"
       x2="35.554195"
       y2="35.459599"
       gradientUnits="userSpaceOnUse"
       gradientTransform="matrix(2,0,0,2,-39.108395,-38.919195)" />
    <linearGradient
       inkscape:collect="always"
       id="linearGradient3147">
      <stop
         style="stop-color:#e87600;stop-opacity:1;"
         offset="0"
         id="stop3143" />
      <stop
         style="stop-color:#e2c800;stop-opacity:1;"
         offset="1"
         id="stop3145" />
    </linearGradient>
  </defs>
  <rect
     style="opacity:0.2;fill:#000000;stroke-width:3.5"
     id="rect1"
     width="56"
     height="56"
     x="4"
     y="5"
     ry="12" />
  <rect
     style="fill:url(#linearGradient4);stroke-width:2"
     id="rect2"
     width="56"
     height="56"
     x="4"
     y="4"
     ry="12" />
  <path
     id="rect686"
     style="fill:url(#linearGradient1525);stroke-width:3.14285;stroke-linecap:round;stroke-linejoin:round"
     d="m 36,32 c -2.215998,0 -4,1.784002 -4,4 v 18 c 0,2.216 1.784002,4 4,4 H 48 A 10,10 0 0 0 58,48 V 36 c 0,-2.215998 -1.784,-4 -4,-4 z" />
  <path
     id="path364"
     style="fill:#f9f9f9;stroke-width:13.7173;stroke-linejoin:round"
     d="m 17.999032,14 v 6 h -6.000001 v 2 h 6.000001 v 6 h 2 v -6 h 6 v -2 h -6 v -6 z m 20,6 v 2 H 51.99903 V 20 Z M 12.706062,37.292968 11.292,38.707032 16.584968,44 11.292,49.29297 12.706062,50.70703 17.999032,45.414062 23.292,50.70703 24.706064,49.29297 19.413094,44 24.706064,38.707032 23.292,37.292968 17.999032,42.585937 Z" />
  <path
     d="m 37.999032,40 v 1.999997 H 51.99903 V 40 Z m 0,6 v 2 H 51.99903 v -2 z"
     style="fill:#ffffff;stroke-width:13.7172;stroke-linejoin:round"
     id="path697"
     sodipodi:nodetypes="cccccccccc" />
</svg>
