<?xml version="1.0" encoding="UTF-8" standalone="no"?>
<!-- Created with Inkscape (http://www.inkscape.org/) -->

<svg
   width="128"
   height="128"
   viewBox="0 0 128 128.00001"
   version="1.1"
   id="svg1"
   inkscape:version="1.4.3 (0d15f75042, 2025-12-25)"
   sodipodi:docname="0ad.svg"
   xmlns:inkscape="http://www.inkscape.org/namespaces/inkscape"
   xmlns:sodipodi="http://sodipodi.sourceforge.net/DTD/sodipodi-0.dtd"
   xmlns:xlink="http://www.w3.org/1999/xlink"
   xmlns="http://www.w3.org/2000/svg"
   xmlns:svg="http://www.w3.org/2000/svg">
  <sodipodi:namedview
     id="namedview1"
     pagecolor="#ffffff"
     bordercolor="#000000"
     borderopacity="0.25"
     inkscape:showpageshadow="2"
     inkscape:pageopacity="0.0"
     inkscape:pagecheckerboard="0"
     inkscape:deskcolor="#d1d1d1"
     inkscape:document-units="px"
     inkscape:zoom="4.5390625"
     inkscape:cx="64"
     inkscape:cy="64"
     inkscape:window-width="1440"
     inkscape:window-height="832"
     inkscape:window-x="0"
     inkscape:window-y="0"
     inkscape:window-maximized="1"
     inkscape:current-layer="svg1" />
  <defs
     id="defs1">
    <linearGradient
       inkscape:collect="always"
       xlink:href="#linearGradient4-6"
       id="linearGradient4"
       x1="16"
       y1="30"
       x2="16"
       y2="2"
       gradientUnits="userSpaceOnUse"
       gradientTransform="scale(4)" />
    <linearGradient
       inkscape:collect="always"
       id="linearGradient3149">
      <stop
         style="stop-color:#886c38;stop-opacity:1;"
         offset="0"
         id="stop3145-9" />
      <stop
         style="stop-color:#d1bc92;stop-opacity:1;"
         offset="1"
         id="stop3147" />
    </linearGradient>
    <linearGradient
       inkscape:collect="always"
       xlink:href="#linearGradient3149"
       id="linearGradient2"
       x1="16"
       y1="30"
       x2="16"
       y2="2"
       gradientUnits="userSpaceOnUse"
       gradientTransform="scale(4)" />
    <linearGradient
       inkscape:collect="always"
       id="linearGradient4-6">
      <stop
         style="stop-color:#2a2111;stop-opacity:1;"
         offset="0"
         id="stop3" />
      <stop
         style="stop-color:#534323;stop-opacity:1;"
         offset="1"
         id="stop4" />
    </linearGradient>
  </defs>
  <rect
     style="opacity:0.2;fill:#000000;stroke-width:7"
     id="rect1"
     width="112"
     height="112"
     x="8"
     y="9"
     ry="24" />
  <rect
     style="fill:url(#linearGradient4);stroke-width:4"
     id="rect2"
     width="112"
     height="112"
     x="8"
     y="8"
     ry="24" />
  <path
     d="m 64,24 c -22.091388,0 -40,17.908612 -40,40 0,22.091388 17.908612,40 40,40 22.091388,0 40,-17.908612 40,-40 C 104,41.908612 86.091388,24 64,24 Z m 4,8.257812 C 82.496568,34.08702 93.91298,45.503432 95.742188,60 H 68 Z m -8,0.05468 V 60 H 32.3125 C 34.15925,45.542376 45.542376,34.15925 60,32.3125 Z M 32.3125,68 H 60 V 95.6875 C 45.542376,93.840748 34.15925,82.457624 32.3125,68 Z M 68,68 H 95.6875 C 93.840748,82.457624 82.457624,93.840748 68,95.6875 Z"
     style="fill:url(#linearGradient2);stroke-width:8;stroke-linecap:round;stroke-linejoin:round"
     id="path1" />
</svg>
