<?xml version="1.0" encoding="UTF-8" standalone="no"?>
<!-- Created with Inkscape (http://www.inkscape.org/) -->

<svg
   width="128"
   height="128"
   viewBox="0 0 128 128.00001"
   version="1.1"
   id="svg1"
   inkscape:version="1.4.2 (ebf0e940d0, 2025-05-08)"
   sodipodi:docname="dosbox.svg"
   xmlns:inkscape="http://www.inkscape.org/namespaces/inkscape"
   xmlns:sodipodi="http://sodipodi.sourceforge.net/DTD/sodipodi-0.dtd"
   xmlns:xlink="http://www.w3.org/1999/xlink"
   xmlns="http://www.w3.org/2000/svg"
   xmlns:svg="http://www.w3.org/2000/svg">
  <sodipodi:namedview
     id="namedview1"
     pagecolor="#ffffff"
     bordercolor="#000000"
     borderopacity="0.25"
     inkscape:showpageshadow="2"
     inkscape:pageopacity="0.0"
     inkscape:pagecheckerboard="0"
     inkscape:deskcolor="#d1d1d1"
     inkscape:document-units="px"
     inkscape:zoom="6.3203125"
     inkscape:cx="64"
     inkscape:cy="64"
     inkscape:window-width="1920"
     inkscape:window-height="1011"
     inkscape:window-x="0"
     inkscape:window-y="0"
     inkscape:window-maximized="1"
     inkscape:current-layer="svg1" />
  <defs
     id="defs1">
    <linearGradient
       inkscape:collect="always"
       id="linearGradient2">
      <stop
         style="stop-color:#484848;stop-opacity:1;"
         offset="0"
         id="stop1" />
      <stop
         style="stop-color:#797979;stop-opacity:1;"
         offset="1"
         id="stop2" />
    </linearGradient>
    <linearGradient
       inkscape:collect="always"
       xlink:href="#linearGradient2"
       id="linearGradient4"
       x1="16"
       y1="30"
       x2="16"
       y2="2"
       gradientUnits="userSpaceOnUse"
       gradientTransform="scale(4)" />
  </defs>
  <rect
     style="opacity:0.2;fill:#000000;stroke-width:7"
     id="rect1"
     width="112"
     height="112"
     x="8"
     y="9"
     ry="24" />
  <rect
     style="fill:url(#linearGradient4);stroke-width:4"
     id="rect2"
     width="112"
     height="112"
     x="8"
     y="8"
     ry="24" />
  <path
     d="m 24,28 v 4 h 4 v 24 h -4 v 4 h 20 v -4 h 4 V 32 h -4 v -4 z m 32,0 v 4 h -4 v 24 h 4 v 4 h 16 v -4 h 4 V 32 h -4 v -4 z m 28,0 v 4 h -4 v 8 h 4 v 4 h 8 v 4 h 4 v 8 h -8 v -8 h -8 v 8 h 4 v 4 h 16 v -4 h 4 v -8 h -4 v -4 h -4 v -4 h -8 v -8 h 8 v 8 h 8 v -8 h -4 v -4 z m -48,4 h 4 v 24 h -4 z m 24,0 h 8 V 56 H 60 Z M 24,68 v 4 h 4 v 24 h -4 v 4 h 20 v -4 h 4 V 84 h -4 v -4 h 4 v -8 h -4 v -4 z m 32,0 v 4 h -4 v 24 h 4 v 4 h 16 v -4 h 4 V 72 h -4 v -4 z m 20,0 v 4 h 4 v 8 h 4 v 8 h -4 v 8 h -4 v 4 h 8 v -4 h 4 v -4 h 4 v 4 h 4 v 4 h 8 v -4 h -4 v -8 h -4 v -8 h 4 v -8 h 4 v -4 h -8 v 4 h -4 v 4 h -4 v -4 h -4 v -4 z m -40,4 h 4 v 8 h -4 z m 24,0 h 8 V 96 H 60 Z M 36,84 h 4 v 12 h -4 z"
     style="fill:#ffffff;stroke-width:4"
     id="path1" />
</svg>
