<?xml version="1.0" encoding="UTF-8" standalone="no"?>
<!-- Created with Inkscape (http://www.inkscape.org/) -->

<svg
   width="128"
   height="128"
   viewBox="0 0 128 128.00001"
   version="1.1"
   id="svg1"
   inkscape:version="1.4.2 (ebf0e940d0, 2025-05-08)"
   sodipodi:docname="electron.svg"
   xmlns:inkscape="http://www.inkscape.org/namespaces/inkscape"
   xmlns:sodipodi="http://sodipodi.sourceforge.net/DTD/sodipodi-0.dtd"
   xmlns="http://www.w3.org/2000/svg"
   xmlns:svg="http://www.w3.org/2000/svg">
  <sodipodi:namedview
     id="namedview1"
     pagecolor="#ffffff"
     bordercolor="#000000"
     borderopacity="0.25"
     inkscape:showpageshadow="2"
     inkscape:pageopacity="0.0"
     inkscape:pagecheckerboard="0"
     inkscape:deskcolor="#d1d1d1"
     inkscape:document-units="px"
     inkscape:zoom="6.3203125"
     inkscape:cx="64"
     inkscape:cy="64"
     inkscape:window-width="1920"
     inkscape:window-height="1011"
     inkscape:window-x="0"
     inkscape:window-y="0"
     inkscape:window-maximized="1"
     inkscape:current-layer="svg1" />
  <defs
     id="defs1" />
  <rect
     style="opacity:0.2;fill:#000000;stroke-width:7"
     id="rect1"
     width="112"
     height="112"
     x="8"
     y="9"
     ry="24" />
  <rect
     style="fill:#494c60;fill-opacity:1;stroke-width:4"
     id="rect2"
     width="112"
     height="112"
     x="8"
     y="8"
     ry="24" />
  <path
     d="m 65.71875,20.006626 c -2.040592,0.0958 -3.89223,1.223276 -4.914062,2.992188 -1.656422,2.869348 -0.673634,6.538192 2.195312,8.195312 1.91998,1.108528 4.294772,1.067972 6.175782,-0.10546 1.811084,1.962952 3.459246,4.468456 4.89453,7.371094 -7.509538,2.511228 -15.631578,6.696474 -22.90625,11.777344 -4.675156,3.26528 -8.477374,7.36013 -11.42578,11.76953 -0.12384,-0.15344 -0.245986,-0.30684 -0.367188,-0.460936 -5.932278,-7.542348 -8.417316,-15.68651 -6.3125,-20.714844 1.091684,-2.607996 2.590574,-3.731328 4.476562,-4.3125 1.885988,-0.581174 4.250294,-0.46899 6.570312,0.04688 4.640038,1.031716 8.859376,3.546876 8.859376,3.546876 0.94597,0.570844 2.175606,0.266496 2.746094,-0.679688 0.571532,-0.94495 0.269006,-2.174292 -0.675782,-2.746094 0,0 -4.596772,-2.812034 -10.0625,-4.027344 -1.366432,-0.303828 -2.804424,-0.513214 -4.257812,-0.539062 -1.453388,-0.02584 -2.920544,0.13204 -4.355468,0.574218 -2.86985,0.884354 -5.507404,3.046648 -6.992188,6.59375 -3.048122,7.281862 0.43019,16.551384 6.86328,24.73047 0.424176,0.539298 0.860926,1.075228 1.3125,1.605468 C 34.87087,70.49556 33.17376,75.56728 32.429688,80.20586 29.814418,80.91503 27.99905,83.289096 28,85.998814 c 0,3.313708 2.686292,6 6,6 3.313708,0 6,-2.686292 6,-6 C 39.99923,83.642622 38.619464,81.504978 36.472656,80.53397 37.13243,76.880908 38.475316,72.816932 40.5,68.826938 46.603798,74.946276 54.486052,80.03497 63.066406,82.362096 68.26022,83.770738 73.576298,84.131204 78.5,83.92069 c -0.369186,1.639396 -0.8005,3.192576 -1.292968,4.640624 -1.284706,3.777552 -2.984922,6.809562 -4.9375,8.773438 -1.95258,1.963876 -4.046114,2.907938 -6.648438,2.804688 -5.737612,-0.22765 -8.987322,-2.853292 -11.023438,-5.484376 -2.036116,-2.631084 -2.65625,-5.132812 -2.65625,-5.132812 -0.26366,-1.07187 -1.345846,-1.727476 -2.417968,-1.464844 -1.07187,0.26366 -1.727476,1.345846 -1.464844,2.417968 0,0 0.81109,3.315802 3.375,6.628906 2.56391,3.313108 7.081234,6.755648 14.027344,7.031248 3.739536,0.14838 7.078768,-1.39986 9.64453,-3.98047 2.565764,-2.580604 4.469688,-6.141942 5.88672,-10.30859 0.664326,-1.953388 1.220654,-4.04576 1.671874,-6.242188 4.0436,-0.434676 7.677728,-1.194056 10.566406,-1.964844 1.830722,2.397772 5.157122,3.063388 7.769532,1.554688 2.86895,-1.65712 3.85173,-5.325964 2.19531,-8.195312 -1.09638,-1.900354 -3.14257,-3.050774 -5.335934,-3 C 96.85387,72.023134 95.870614,72.29985 95,72.803502 c -1.784072,1.029704 -2.915196,2.902622 -2.996094,4.960936 -2.388082,0.602514 -5.346916,1.209988 -8.617188,1.621094 0.84694,-6.116894 0.96306,-12.820716 0.38672,-19.5 -0.577592,-6.69381 -1.935974,-13.210324 -4.082032,-18.898436 0.0564,-0.014 0.11174,-0.02932 0.16796,-0.04296 4.030094,-0.977838 7.606336,-1.254522 10.234374,-0.80078 2.628038,0.45374 4.179918,1.45744 5.03125,3.234374 4.058542,8.471158 -2.6875,17.742188 -2.6875,17.742188 -0.661914,0.885424 -0.479952,2.13991 0.40625,2.800782 0.883728,0.660102 2.135048,0.480094 2.796874,-0.402344 0,0 8.341946,-10.904778 3.089844,-21.867188 -1.47633,-3.081458 -4.496484,-4.851742 -7.95703,-5.44922 -1.730274,-0.298738 -3.599818,-0.351752 -5.585938,-0.19532 -1.98612,0.15644 -4.087588,0.52042 -6.273438,1.050782 -0.265962,0.06454 -0.532318,0.12966 -0.80078,0.19922 -1.749312,-3.69025 -3.88501,-6.900036 -6.40624,-9.41016 C 72.57843,25.154192 71.450284,22.219058 69,20.803502 68.005086,20.229242 66.866232,19.952664 65.71875,20.006626 Z M 66,23.998814 c 1.10457,0 2,0.89543 2,2 0,1.10457 -0.89543,2 -2,2 -1.10457,0 -2,-0.89543 -2,-2 0,-1.10457 0.89543,-2 2,-2 z m 9.695312,18.144532 c 2.089692,5.320954 3.531886,11.574388 4.09375,18.085936 0.581964,6.744444 0.39715,13.53928 -0.515624,19.546876 -4.896334,0.309034 -10.193394,0.06972 -15.160156,-1.277344 -8.10201,-2.19739 -15.791764,-7.287738 -21.5625,-13.300782 2.7607,-4.40733 6.394022,-8.534834 10.902342,-11.683594 7.081988,-4.94629 15.101336,-9.018814 22.242188,-11.371092 z M 64,55.998814 c -4.39139,0 -8,3.60861 -8,8 0,4.39139 3.60861,8 8,8 4.39139,0 8,-3.60861 8,-8 0,-4.39139 -3.60861,-8 -8,-8 z m 34,20 c 1.10457,0 2,0.89543 2,2 0,1.10457 -0.89543,2 -2,2 -1.10457,0 -2,-0.89543 -2,-2 0,-1.10457 0.89543,-2 2,-2 z m -64,8 c 1.10457,0 2,0.89543 2,2 0,1.10457 -0.89543,2 -2,2 -1.10457,0 -2,-0.89543 -2,-2 0,-1.10457 0.89543,-2 2,-2 z"
     style="baseline-shift:baseline;display:inline;overflow:visible;vector-effect:none;fill:#cff7ff;stroke-width:2;stroke-linecap:round;enable-background:accumulate;stop-color:#000000"
     id="path1" />
</svg>
