<?xml version="1.0" encoding="UTF-8" standalone="no"?>
<!-- Created with Inkscape (http://www.inkscape.org/) -->

<svg
   width="128"
   height="128"
   viewBox="0 0 128 128.00001"
   version="1.1"
   id="svg1"
   inkscape:version="1.4.4 (dcaf3e7d9e, 2026-05-05)"
   sodipodi:docname="net.davidotek.pupgui2.svg"
   xmlns:inkscape="http://www.inkscape.org/namespaces/inkscape"
   xmlns:sodipodi="http://sodipodi.sourceforge.net/DTD/sodipodi-0.dtd"
   xmlns:xlink="http://www.w3.org/1999/xlink"
   xmlns="http://www.w3.org/2000/svg"
   xmlns:svg="http://www.w3.org/2000/svg">
  <sodipodi:namedview
     id="namedview1"
     pagecolor="#ffffff"
     bordercolor="#000000"
     borderopacity="0.25"
     inkscape:showpageshadow="2"
     inkscape:pageopacity="0.0"
     inkscape:pagecheckerboard="0"
     inkscape:deskcolor="#d1d1d1"
     inkscape:document-units="px"
     inkscape:zoom="6.28125"
     inkscape:cx="64"
     inkscape:cy="64"
     inkscape:window-width="1920"
     inkscape:window-height="1012"
     inkscape:window-x="0"
     inkscape:window-y="0"
     inkscape:window-maximized="1"
     inkscape:current-layer="svg1" />
  <defs
     id="defs1">
    <linearGradient
       inkscape:collect="always"
       id="linearGradient1606">
      <stop
         style="stop-color:#eaebed;stop-opacity:1;"
         offset="0"
         id="stop1602" />
      <stop
         style="stop-color:#f9fafa;stop-opacity:1;"
         offset="1"
         id="stop1604" />
    </linearGradient>
    <linearGradient
       inkscape:collect="always"
       xlink:href="#linearGradient1606"
       id="linearGradient4"
       x1="16"
       y1="30"
       x2="16"
       y2="2"
       gradientUnits="userSpaceOnUse"
       gradientTransform="scale(4)" />
    <linearGradient
       inkscape:collect="always"
       xlink:href="#linearGradient1"
       id="linearGradient4-7"
       x1="32"
       y1="60"
       x2="32"
       y2="4"
       gradientUnits="userSpaceOnUse"
       gradientTransform="scale(2)" />
    <linearGradient
       id="linearGradient1"
       inkscape:collect="always">
      <stop
         style="stop-color:#0ebb67;stop-opacity:1;"
         offset="0"
         id="stop1" />
      <stop
         style="stop-color:#0ecb6f;stop-opacity:1;"
         offset="1"
         id="stop2" />
    </linearGradient>
  </defs>
  <rect
     style="opacity:0.2;fill:#000000;stroke-width:7"
     id="rect1"
     width="112"
     height="112"
     x="8"
     y="9"
     ry="24" />
  <rect
     style="fill:url(#linearGradient4);stroke-width:4"
     id="rect2"
     width="112"
     height="112"
     x="8"
     y="8"
     ry="24" />
  <path
     d="m 63.999094,18 c -1.591208,2.4e-4 -3.117154,0.632538 -4.242188,1.757812 l -40,40 c -2.342542,2.343042 -2.342542,6.141334 0,8.484376 2.343042,2.342542 6.141334,2.342542 8.484376,0 L 57.999094,38.484376 V 104 c 0,3.31371 2.686292,6 6,6 3.313708,0 6,-2.68629 6,-6 V 38.484376 l 29.757812,29.757812 c 2.343044,2.342542 6.141334,2.342542 8.484374,0 2.34254,-2.343042 2.34254,-6.141334 0,-8.484376 l -39.999998,-40 C 67.116248,18.632538 65.590302,18.00024 63.999094,18 Z"
     style="fill:url(#linearGradient4-7);stroke-width:2"
     id="path1" />
  <path
     id="path5"
     style="baseline-shift:baseline;display:inline;overflow:visible;vector-effect:none;fill:#fe8f00;stroke-width:2;enable-background:accumulate;stop-color:#000000"
     d="m 55.300782,71.5 -7.851564,7.847656 4.101564,4.101562 3.75,-3.746094 5.80078,5.796876 5.796876,-5.796876 5.80078,5.796876 7.851564,-7.847656 -4.101564,-4.101562 -3.75,3.746094 L 66.898438,71.5 61.101562,77.296876 Z" />
</svg>
