<?xml version="1.0" encoding="UTF-8" standalone="no"?>
<!-- Created with Inkscape (http://www.inkscape.org/) -->

<svg
   width="128"
   height="128"
   viewBox="0 0 128 128.00001"
   version="1.1"
   id="svg1"
   inkscape:version="1.4.3 (0d15f75042, 2025-12-25)"
   sodipodi:docname="pulseeffects.svg"
   xmlns:inkscape="http://www.inkscape.org/namespaces/inkscape"
   xmlns:sodipodi="http://sodipodi.sourceforge.net/DTD/sodipodi-0.dtd"
   xmlns:xlink="http://www.w3.org/1999/xlink"
   xmlns="http://www.w3.org/2000/svg"
   xmlns:svg="http://www.w3.org/2000/svg">
  <sodipodi:namedview
     id="namedview1"
     pagecolor="#ffffff"
     bordercolor="#000000"
     borderopacity="0.25"
     inkscape:showpageshadow="2"
     inkscape:pageopacity="0.0"
     inkscape:pagecheckerboard="0"
     inkscape:deskcolor="#d1d1d1"
     inkscape:document-units="px"
     inkscape:zoom="6.328125"
     inkscape:cx="64"
     inkscape:cy="64"
     inkscape:window-width="1920"
     inkscape:window-height="1012"
     inkscape:window-x="0"
     inkscape:window-y="0"
     inkscape:window-maximized="1"
     inkscape:current-layer="svg1" />
  <defs
     id="defs1">
    <linearGradient
       inkscape:collect="always"
       xlink:href="#linearGradient3147"
       id="linearGradient4"
       x1="16"
       y1="30"
       x2="16"
       y2="2"
       gradientUnits="userSpaceOnUse"
       gradientTransform="scale(4)" />
    <linearGradient
       inkscape:collect="always"
       id="linearGradient3147">
      <stop
         style="stop-color:#0091f9;stop-opacity:1;"
         offset="0"
         id="stop3143" />
      <stop
         style="stop-color:#41bbff;stop-opacity:1;"
         offset="1"
         id="stop3145" />
    </linearGradient>
  </defs>
  <rect
     style="opacity:0.2;fill:#000000;stroke-width:7"
     id="rect1"
     width="112"
     height="112"
     x="8"
     y="9"
     ry="24" />
  <rect
     style="fill:url(#linearGradient4);stroke-width:4"
     id="rect2"
     width="112"
     height="112"
     x="8"
     y="8"
     ry="24" />
  <rect
     style="opacity:0.4;fill:#000000;stroke-width:7.58948"
     id="rect3"
     width="8"
     height="72"
     x="28"
     y="28"
     ry="4" />
  <rect
     style="opacity:0.4;fill:#000000;stroke-width:7.58948"
     id="rect4"
     width="8"
     height="72"
     x="60"
     y="28"
     ry="4" />
  <rect
     style="opacity:0.4;fill:#000000;stroke-width:2"
     id="rect5"
     width="8"
     height="72"
     x="92"
     y="28"
     ry="4" />
  <rect
     style="fill:#bef3ff;fill-opacity:1;stroke-width:4"
     id="rect5-6"
     width="8"
     height="52"
     x="28"
     y="48"
     ry="4" />
  <rect
     style="fill:#bef3ff;fill-opacity:1;stroke-width:4"
     id="rect6"
     width="8"
     height="24"
     x="60"
     y="76"
     ry="4" />
  <rect
     style="fill:#bef3ff;fill-opacity:1;stroke-width:4"
     id="rect7"
     width="8"
     height="42"
     x="92"
     y="58"
     ry="4" />
  <path
     id="path1"
     style="opacity:0.2;fill:#000000;stroke-width:3.33332"
     d="m 32,40 c -5.522848,0 -10,4.477154 -10,10 0,5.522848 4.477152,10 10,10 5.522848,0 10,-4.477152 10,-10 0,-5.522846 -4.477152,-10 -10,-10 z m 64,8 c -5.522848,0 -10,4.477154 -10,10 0,5.522848 4.477152,10 10,10 5.52285,0 10,-4.477152 10,-10 0,-5.522846 -4.47715,-10 -10,-10 z M 64,66 c -5.522848,0 -10,4.477154 -10,10 0,5.522848 4.477152,10 10,10 5.522848,0 10,-4.477152 10,-10 0,-5.522846 -4.477152,-10 -10,-10 z" />
  <path
     id="path2"
     style="fill:#f9f9f9;fill-opacity:1;stroke-width:16;stroke-linecap:round;stroke-linejoin:round"
     d="m 32,42 c -4.41828,0 -8,3.581722 -8,8 0,4.41828 3.58172,8 8,8 4.418274,0 8,-3.58172 8,-8 0,-4.418278 -3.581726,-8 -8,-8 z m 64,8 c -4.41828,0 -8,3.581722 -8,8 0,4.41828 3.58172,8 8,8 4.41827,0 8,-3.58172 8,-8 0,-4.418278 -3.58173,-8 -8,-8 z M 64,68 c -4.41828,0 -8,3.581722 -8,8 0,4.41828 3.58172,8 8,8 4.418274,0 8,-3.58172 8,-8 0,-4.418278 -3.581726,-8 -8,-8 z" />
</svg>
