<?xml version="1.0" encoding="UTF-8" standalone="no"?>
<!-- Created with Inkscape (http://www.inkscape.org/) -->

<svg
   width="128"
   height="128"
   viewBox="0 0 128 128.00001"
   version="1.1"
   id="svg1"
   inkscape:version="1.4.2 (ebf0e940d0, 2025-05-08)"
   sodipodi:docname="qtdbusviewer.svg"
   xmlns:inkscape="http://www.inkscape.org/namespaces/inkscape"
   xmlns:sodipodi="http://sodipodi.sourceforge.net/DTD/sodipodi-0.dtd"
   xmlns:xlink="http://www.w3.org/1999/xlink"
   xmlns="http://www.w3.org/2000/svg"
   xmlns:svg="http://www.w3.org/2000/svg">
  <sodipodi:namedview
     id="namedview1"
     pagecolor="#ffffff"
     bordercolor="#000000"
     borderopacity="0.25"
     inkscape:showpageshadow="2"
     inkscape:pageopacity="0.0"
     inkscape:pagecheckerboard="0"
     inkscape:deskcolor="#d1d1d1"
     inkscape:document-units="px"
     inkscape:zoom="6.3203125"
     inkscape:cx="64"
     inkscape:cy="64"
     inkscape:window-width="1920"
     inkscape:window-height="1011"
     inkscape:window-x="0"
     inkscape:window-y="0"
     inkscape:window-maximized="1"
     inkscape:current-layer="svg1" />
  <defs
     id="defs1">
    <linearGradient
       inkscape:collect="always"
       xlink:href="#linearGradient2833"
       id="linearGradient4"
       x1="16"
       y1="30"
       x2="16"
       y2="2"
       gradientUnits="userSpaceOnUse"
       gradientTransform="scale(4)" />
    <linearGradient
       inkscape:collect="always"
       id="linearGradient2833">
      <stop
         style="stop-color:#38b517;stop-opacity:1;"
         offset="0"
         id="stop2829" />
      <stop
         style="stop-color:#97e527;stop-opacity:1;"
         offset="1"
         id="stop2831" />
    </linearGradient>
  </defs>
  <rect
     style="opacity:0.2;fill:#000000;stroke-width:7"
     id="rect1"
     width="112"
     height="112"
     x="8"
     y="9"
     ry="24" />
  <rect
     style="fill:url(#linearGradient4);stroke-width:4"
     id="rect2"
     width="112"
     height="112"
     x="8"
     y="8"
     ry="24" />
  <path
     id="rect12240"
     style="opacity:0.2;fill:#000000;stroke-width:12;stroke-linecap:round;stroke-linejoin:round"
     d="m 8,40 v 56 c 0,13.296 10.704,24 24,24 h 64 c 13.296,0 24,-10.704 24,-24 v -8 z" />
  <path
     id="path9641"
     style="fill:#ffffff;stroke-width:4"
     d="M 26,40 V 88 H 45.285156 C 54.544858,88 62,80.270624 62,70.667968 V 57.332032 C 62,47.729372 54.544858,40 45.285156,40 Z m 42,0 14,48 h 8 L 104,40 H 96 L 86,76 76,40 Z M 34,48 H 45.285156 C 50.404588,48 54,52.022992 54,57.332032 V 70.667968 C 54,75.977008 50.404588,80 45.285156,80 H 34 Z"
     sodipodi:nodetypes="ccssssccccccccccsssscc" />
</svg>
