<?xml version="1.0" encoding="UTF-8" standalone="no"?>
<!-- Created with Inkscape (http://www.inkscape.org/) -->

<svg
   width="128"
   height="128"
   viewBox="0 0 128 128.00001"
   version="1.1"
   id="svg1"
   inkscape:version="1.4.2 (1:1.4.2+202505120737+ebf0e940d0)"
   sodipodi:docname="rnote.svg"
   xmlns:inkscape="http://www.inkscape.org/namespaces/inkscape"
   xmlns:sodipodi="http://sodipodi.sourceforge.net/DTD/sodipodi-0.dtd"
   xmlns:xlink="http://www.w3.org/1999/xlink"
   xmlns="http://www.w3.org/2000/svg"
   xmlns:svg="http://www.w3.org/2000/svg">
  <sodipodi:namedview
     id="namedview1"
     pagecolor="#ffffff"
     bordercolor="#000000"
     borderopacity="0.25"
     inkscape:showpageshadow="2"
     inkscape:pageopacity="0.0"
     inkscape:pagecheckerboard="0"
     inkscape:deskcolor="#d1d1d1"
     inkscape:document-units="px"
     inkscape:zoom="6.3046875"
     inkscape:cx="64"
     inkscape:cy="64"
     inkscape:window-width="1920"
     inkscape:window-height="1016"
     inkscape:window-x="0"
     inkscape:window-y="0"
     inkscape:window-maximized="1"
     inkscape:current-layer="svg1" />
  <defs
     id="defs1">
    <linearGradient
       inkscape:collect="always"
       id="linearGradient1606">
      <stop
         style="stop-color:#eaebed;stop-opacity:1;"
         offset="0"
         id="stop1602" />
      <stop
         style="stop-color:#f9fafa;stop-opacity:1;"
         offset="1"
         id="stop1604" />
    </linearGradient>
    <linearGradient
       inkscape:collect="always"
       xlink:href="#linearGradient1606"
       id="linearGradient4"
       x1="16"
       y1="30"
       x2="16"
       y2="2"
       gradientUnits="userSpaceOnUse"
       gradientTransform="scale(4)" />
    <linearGradient
       inkscape:collect="always"
       xlink:href="#linearGradient1"
       id="linearGradient6"
       x1="11.000003"
       y1="13.000074"
       x2="11.000003"
       y2="3"
       gradientUnits="userSpaceOnUse"
       gradientTransform="matrix(7.999936,0,0,7.999936,4.0002556,1.916e-4)" />
    <linearGradient
       id="linearGradient1"
       inkscape:collect="always">
      <stop
         style="stop-color:#2e2e2e;stop-opacity:1;"
         offset="0"
         id="stop1" />
      <stop
         style="stop-color:#565656;stop-opacity:1;"
         offset="1"
         id="stop2" />
    </linearGradient>
  </defs>
  <rect
     style="opacity:0.2;fill:#000000;stroke-width:7"
     id="rect1"
     width="112"
     height="112"
     x="8"
     y="9"
     ry="24" />
  <rect
     style="fill:url(#linearGradient4);stroke-width:4"
     id="rect2"
     width="112"
     height="112"
     x="8"
     y="8"
     ry="24" />
  <path
     d="m 87.322532,41.901228 c -0.152,-1.262208 0.796796,-3.259608 0.669516,-5.978904 -0.13144,-2.723724 -1.425252,-6.519222 -6.736048,-9.273942 -0.09448,-0.04872 -0.18888,-0.09748 -0.28752,-0.14614 -3.454284,-1.718374 -8.489876,-2.949588 -14.363388,-2.347266 -4.56326,0.46945 -9.30314,2.023968 -13.771932,4.76541 -4.021096,2.457988 -7.725916,5.82389 -10.732492,9.986982 -1.76616,2.617432 -3.306416,5.580316 -4.407188,8.777916 -0.476452,1.381796 -0.870756,2.8123 -1.166484,4.273812 -0.382,1.899964 -0.59142,3.977076 -0.5093,6.169348 0.21768,3.47662 1.178804,7.276548 3.326948,10.695584 1.01452,1.620956 2.275468,3.091328 3.733576,4.318112 1.449896,1.226772 3.109264,2.218828 4.920604,2.869872 2.903896,1.023056 5.7585,1.023056 8.12022,0.637756 1.252744,-0.20376 2.402796,-0.518156 3.417316,-0.868048 1.252736,-0.4296 2.402792,-0.925628 3.310512,-1.34636 1.979744,-0.934496 3.836276,-2.054984 5.314912,-2.958464 1.478644,-0.90348 2.928536,-1.811384 4.320924,-2.546572 0.829688,-0.425196 1.815448,-0.89904 2.788888,-1.25778 0.2588,-0.09296 0.517516,-0.1816 0.776316,-0.25688 0.969328,-0.28784 1.926352,-0.416316 2.77656,-0.32328 0.726956,0.0752 1.343112,0.33216 1.757948,0.646636 0.17656,0.1196 0.32856,0.28784 0.455916,0.465036 0.11088,0.16392 0.1848,0.31896 0.22592,0.403036 0.0456,0.10624 0.0704,0.32328 -0.0088,0.637756 -0.0744,0.3188 -0.23408,0.686472 -0.48056,1.054052 -0.25464,0.37648 -0.607832,0.766156 -1.084332,1.169208 -0.468236,0.38976 -1.026832,0.770636 -1.675796,1.138208 -1.425252,0.739592 -2.84228,1.235636 -4.834344,2.037256 -1.807236,0.726312 -3.963592,1.665224 -5.9844,3.153308 -1.059696,0.806052 -2.119392,1.811388 -3.031224,3.029312 -0.907728,1.217928 -1.69634,2.688292 -2.135816,4.411104 -0.39432,1.722808 -0.414876,3.636064 0.11496,5.47402 0.26696,0.934488 0.677672,1.820248 1.203452,2.608576 0.533996,0.797196 1.203448,1.519092 1.996168,2.094832 1.408816,1.009768 2.961392,1.381792 4.304496,1.421652 h 0.455916 c 1.137736,-0.0304 2.222076,-0.28344 3.211948,-0.642152 1.035048,-0.34096 1.971528,-0.80162 2.776564,-1.209072 0.821472,-0.420716 1.453996,-0.761672 2.11528,-1.0452 0.603752,-0.28784 1.129524,-0.473836 1.605976,-0.553676 0.45176,-0.0752 0.821476,-0.04 1.088448,0.04 0.11912,0.0352 0.22592,0.09296 0.31216,0.15064 0.08216,0.0576 0.13968,0.11072 0.1684,0.13736 0.0456,0.0224 0.08632,0.0576 0.11496,0.0672 0.0328,0 0.0616,0.0184 0.10272,0.0088 0.0368,-0.0088 0,0.13288 -0.14792,0.31896 -0.17248,0.21704 -0.423036,0.433996 -0.809144,0.757272 -0.37376,0.3056 -0.883088,0.708556 -1.347216,1.20464 -0.513356,0.544716 -1.01452,1.235636 -1.322564,2.090408 -0.30808,0.863616 -0.35736,1.749376 -0.23,2.528854 0.14792,0.9079 0.538072,1.65194 0.989872,2.17898 0.607912,0.71743 1.314348,1.02305 1.835976,1.1072 0.12728,0.0184 0.2464,0.0264 0.35736,0.0224 0.928256,-0.0352 1.302024,-0.80162 1.466316,-1.02748 -0.23,-0.23472 -0.464156,-0.83705 -0.648952,-1.3508 -0.0208,-0.0576 -0.0408,-0.11072 -0.0576,-0.16832 -0.0744,-0.22584 -0.1396,-0.47383 -0.1232,-0.69527 0.0088,-0.15944 0.0456,-0.32768 0.11504,-0.434 0.0576,-0.093 0.13968,-0.1772 0.2136,-0.20816 0.0744,-0.0352 0.1972,-0.14176 0.418956,-0.28784 0.2752,-0.1772 0.468316,-0.27896 0.95702,-0.562472 0.382,-0.21704 0.9488,-0.553676 1.490964,-1.009776 0.542152,-0.456156 1.166484,-1.120488 1.61008,-2.046112 0.39432,-0.828188 0.587356,-1.744956 0.587356,-2.648436 0.004,-0.903472 -0.1848,-1.780384 -0.513356,-2.564284 -0.34496,-0.788312 -0.821472,-1.461516 -1.363644,-2.015112 -0.546236,-0.558076 -1.166488,-1.00092 -1.81544,-1.333076 -1.30204,-0.659916 -2.673884,-0.845908 -3.87734,-0.797196 -1.244524,0.0488 -2.386364,0.34992 -3.326948,0.668716 -0.928256,0.33664 -1.889376,0.779516 -2.571204,1.076208 -0.784472,0.34104 -1.388276,0.575756 -1.9592,0.717432 -0.538076,0.10184 -0.944688,0.09296 -1.240424,0.0224 -0.0368,-0.0088 -0.0736,-0.0184 -0.11088,-0.0304 -0.29984,-0.10184 -0.464076,-0.27896 -0.418956,-0.3676 0.0248,-0.0352 0.0288,-0.08 0.0368,-0.15504 0.0088,-0.0704 0.016,-0.15064 0.0496,-0.22144 0.0496,-0.15064 0.13136,-0.411916 0.29992,-0.655436 0.1232,-0.27016 0.32856,-0.575756 0.665352,-0.9212 0.34496,-0.35432 0.796796,-0.713032 1.339,-1.031912 1.092552,-0.708552 2.394588,-1.235636 4.082704,-1.806952 1.560784,-0.531436 3.700712,-1.182504 5.668136,-2.063832 1.059696,-0.451756 2.160464,-1.005344 3.228376,-1.7051 1.092552,-0.713032 2.17278,-1.589944 3.15854,-2.675 1.022736,-1.133776 1.909924,-2.471284 2.562988,-3.968224 0.669516,-1.541228 1.104872,-3.290608 1.145944,-5.164 0.0408,-1.847376 -0.30808,-3.592332 -0.891264,-5.133552 -0.599676,-1.599668 -1.47454,-3.034608 -2.517804,-4.234812 -2.209752,-2.542148 -5.006848,-3.92394 -7.520548,-4.521828 -2.912104,-0.695292 -5.643492,-0.438476 -7.742348,0.04008 -0.583272,0.13732 -1.13362,0.28788 -1.64704,0.451764 -1.938672,0.615596 -3.548748,1.443804 -4.678276,2.085984 -1.835984,1.02306 -3.663748,2.267556 -4.908272,3.086884 -1.445788,0.952192 -2.7396,1.775956 -4.037524,2.40928 -0.579164,0.28784 -1.211692,0.544712 -1.868864,0.721912 -0.525724,0.13736 -1.03916,0.23032 -1.54436,0.25688 -0.965232,0.0536 -1.778488,-0.13288 -2.328864,-0.473836 -0.3204,-0.186 -0.648948,-0.45616 -0.9488,-0.810476 -0.29988,-0.35872 -0.554484,-0.775024 -0.726968,-1.217948 -0.39432,-0.9832 -0.517556,-2.174552 -0.345,-3.303896 0.04552,-0.704176 0.18892,-1.412796 0.414848,-2.116976 0.1766,-0.544756 0.418932,-1.098352 0.726976,-1.656376 0.722892,-1.310932 1.770268,-2.551008 2.998368,-3.618344 1.909908,-1.899972 4.144308,-3.2729 6.411564,-4.163096 2.521908,-0.992056 4.937024,-1.333076 7.056416,-1.350788 2.710844,-0.018 5.138304,0.482732 7.039992,0.721868 0.0536,0.0044 0.1068,0.0132 0.16016,0.018 3.006584,0.35876 5.310796,-0.3986 7.356252,-1.452656 1.983848,-1.018624 3.758236,-2.395988 4.8672,-2.40484 z"
     style="fill:url(#linearGradient6);stroke-width:7.99992"
     id="path1-5" />
</svg>
