<?xml version="1.0" encoding="UTF-8" standalone="no"?>
<!-- Created with Inkscape (http://www.inkscape.org/) -->

<svg
   width="128"
   height="128"
   viewBox="0 0 128 128.00001"
   version="1.1"
   id="svg1"
   inkscape:version="1.4.2 (ebf0e940d0, 2025-05-08)"
   sodipodi:docname="sendanywhere.svg"
   xmlns:inkscape="http://www.inkscape.org/namespaces/inkscape"
   xmlns:sodipodi="http://sodipodi.sourceforge.net/DTD/sodipodi-0.dtd"
   xmlns:xlink="http://www.w3.org/1999/xlink"
   xmlns="http://www.w3.org/2000/svg"
   xmlns:svg="http://www.w3.org/2000/svg">
  <sodipodi:namedview
     id="namedview1"
     pagecolor="#ffffff"
     bordercolor="#000000"
     borderopacity="0.25"
     inkscape:showpageshadow="2"
     inkscape:pageopacity="0.0"
     inkscape:pagecheckerboard="0"
     inkscape:deskcolor="#d1d1d1"
     inkscape:document-units="px"
     inkscape:zoom="6.3203125"
     inkscape:cx="64"
     inkscape:cy="64"
     inkscape:window-width="1920"
     inkscape:window-height="1011"
     inkscape:window-x="0"
     inkscape:window-y="0"
     inkscape:window-maximized="1"
     inkscape:current-layer="svg1" />
  <defs
     id="defs1">
    <linearGradient
       inkscape:collect="always"
       id="linearGradient1606">
      <stop
         style="stop-color:#eaebed;stop-opacity:1;"
         offset="0"
         id="stop1602" />
      <stop
         style="stop-color:#f9fafa;stop-opacity:1;"
         offset="1"
         id="stop1604" />
    </linearGradient>
    <linearGradient
       inkscape:collect="always"
       xlink:href="#linearGradient1606"
       id="linearGradient4"
       x1="16"
       y1="30"
       x2="16"
       y2="2"
       gradientUnits="userSpaceOnUse"
       gradientTransform="scale(4)" />
    <linearGradient
       id="linearGradient1"
       inkscape:collect="always">
      <stop
         style="stop-color:#ff2d55;stop-opacity:1;"
         offset="0"
         id="stop1" />
      <stop
         style="stop-color:#ff755e;stop-opacity:1;"
         offset="1"
         id="stop2" />
    </linearGradient>
    <linearGradient
       inkscape:collect="always"
       xlink:href="#linearGradient1"
       id="linearGradient5"
       x1="16"
       y1="30"
       x2="16"
       y2="2"
       gradientUnits="userSpaceOnUse"
       gradientTransform="scale(4)" />
  </defs>
  <rect
     style="opacity:0.2;fill:#000000;stroke-width:7"
     id="rect1"
     width="112"
     height="112"
     x="8"
     y="9"
     ry="24" />
  <rect
     style="fill:url(#linearGradient4);stroke-width:4"
     id="rect2"
     width="112"
     height="112"
     x="8"
     y="8"
     ry="24" />
  <path
     id="path3"
     style="baseline-shift:baseline;display:inline;overflow:visible;vector-effect:none;fill:url(#linearGradient5);stroke-width:4;enable-background:accumulate;stop-color:#000000"
     d="M 87.742188,22 C 86.777704,22.014 85.999996,22.80081 86,23.765624 V 30 H 42.007812 c -8.836552,0 -16,7.163444 -16,16 v 36 h 8 V 46 c 0,-4.418276 3.581728,-8 8,-8 v 0.0156 C 42.057892,38.006 42.089792,38.002 42.101552,38 h 58.132818 c 1.57138,-6.2e-4 2.36073,-1.903848 1.25,-3.015624 L 89.015624,22.515624 C 88.678626,22.17841 88.218828,21.993308 87.742188,22 Z M 94,50 v 32 c 0,4.418276 -3.581724,8 -8,8 V 89.9844 C 85.94992,89.994 85.918,89.998 85.90626,90 H 40.242188 38.007812 27.773438 c -1.571754,6.16e-4 -2.361012,1.90384 -1.25,3.015624 l 12.46875,12.468756 c 0.33708,0.33719 0.796682,0.52231 1.273436,0.51562 0.964718,-0.014 1.742192,-0.80081 1.742188,-1.76562 V 98 H 86 c 8.836556,0 16,-7.163444 16,-16 V 50 Z m -40,6 c -2.216,0 -4,1.784 -4,4 v 8 c 0,2.216 1.784,4 4,4 h 2 c 2.216,0 4,-1.784 4,-4 v -8 c 0,-2.216 -1.784,-4 -4,-4 z m 18,0 c -2.216,0 -4,1.784 -4,4 v 8 c 0,2.216 1.784,4 4,4 h 2 c 2.216,0 4,-1.784 4,-4 v -8 c 0,-2.216 -1.784,-4 -4,-4 z" />
</svg>
