<?xml version="1.0" encoding="UTF-8" standalone="no"?>
<!-- Created with Inkscape (http://www.inkscape.org/) -->

<svg
   width="128"
   height="128"
   viewBox="0 0 128 128.00001"
   version="1.1"
   id="svg1"
   inkscape:version="1.4.2 (ebf0e940d0, 2025-05-08)"
   sodipodi:docname="slack.svg"
   xmlns:inkscape="http://www.inkscape.org/namespaces/inkscape"
   xmlns:sodipodi="http://sodipodi.sourceforge.net/DTD/sodipodi-0.dtd"
   xmlns:xlink="http://www.w3.org/1999/xlink"
   xmlns="http://www.w3.org/2000/svg"
   xmlns:svg="http://www.w3.org/2000/svg">
  <sodipodi:namedview
     id="namedview1"
     pagecolor="#ffffff"
     bordercolor="#000000"
     borderopacity="0.25"
     inkscape:showpageshadow="2"
     inkscape:pageopacity="0.0"
     inkscape:pagecheckerboard="0"
     inkscape:deskcolor="#d1d1d1"
     inkscape:document-units="px"
     inkscape:zoom="6.3203125"
     inkscape:cx="64"
     inkscape:cy="64"
     inkscape:window-width="1920"
     inkscape:window-height="1011"
     inkscape:window-x="0"
     inkscape:window-y="0"
     inkscape:window-maximized="1"
     inkscape:current-layer="svg1" />
  <defs
     id="defs1">
    <linearGradient
       inkscape:collect="always"
       id="linearGradient1606">
      <stop
         style="stop-color:#eaebed;stop-opacity:1;"
         offset="0"
         id="stop1602" />
      <stop
         style="stop-color:#f9fafa;stop-opacity:1;"
         offset="1"
         id="stop1604" />
    </linearGradient>
    <linearGradient
       inkscape:collect="always"
       xlink:href="#linearGradient1606"
       id="linearGradient4"
       x1="16"
       y1="30"
       x2="16"
       y2="2"
       gradientUnits="userSpaceOnUse"
       gradientTransform="scale(4)" />
  </defs>
  <rect
     style="opacity:0.2;fill:#000000;stroke-width:7"
     id="rect1"
     width="112"
     height="112"
     x="8"
     y="9"
     ry="24" />
  <rect
     style="fill:url(#linearGradient4);stroke-width:4"
     id="rect2"
     width="112"
     height="112"
     x="8"
     y="8"
     ry="24" />
  <path
     style="fill:#36c5f0;stroke-width:4"
     d="m 54,26 a 8,8 0 0 0 -8,8 8,8 0 0 0 8,8 h 8 V 34 A 8,8 0 0 0 54,26 Z M 26,54 a 8,8 0 0 0 8,8 h 20 a 8,8 0 0 0 8,-8 8,8 0 0 0 -8,-8 H 34 a 8,8 0 0 0 -8,8 z"
     id="path4" />
  <path
     style="fill:#2eb67d;stroke-width:4"
     d="m 94,46 a 8,8 0 0 1 8,8 8,8 0 0 1 -8,8 h -8 v -8 a 8,8 0 0 1 8,-8 z M 74,26 a 8,8 0 0 0 -8,8 v 20 a 8,8 0 0 0 8,8 8,8 0 0 0 8,-8 V 34 a 8,8 0 0 0 -8,-8 z"
     id="path5" />
  <path
     style="fill:#ecb22e;stroke-width:4"
     d="m 74,102 a 8,8 0 0 0 8,-8 8,8 0 0 0 -8,-8 h -8 v 8 a 8,8 0 0 0 8,8 z M 66,74 a 8,8 0 0 0 8,8 h 20 a 8,8 0 0 0 8,-8 8,8 0 0 0 -8,-8 H 74 a 8,8 0 0 0 -8,8 z"
     id="path6" />
  <path
     style="fill:#e01e5a;stroke-width:4"
     d="m 34,82 a 8,8 0 0 1 -8,-8 8,8 0 0 1 8,-8 h 8 v 8 a 8,8 0 0 1 -8,8 z M 54,66 a 8,8 0 0 0 -8,8 v 20 a 8,8 0 0 0 8,8 8,8 0 0 0 8,-8 V 74 a 8,8 0 0 0 -8,-8 z"
     id="path7" />
</svg>
