<?xml version="1.0" encoding="UTF-8" standalone="no"?>
<!-- Created with Inkscape (http://www.inkscape.org/) -->

<svg
   width="128"
   height="128"
   viewBox="0 0 128 128.00001"
   version="1.1"
   id="svg1"
   inkscape:version="1.4.3 (0d15f75042, 2025-12-25)"
   sodipodi:docname="vmware-workstation.svg"
   xmlns:inkscape="http://www.inkscape.org/namespaces/inkscape"
   xmlns:sodipodi="http://sodipodi.sourceforge.net/DTD/sodipodi-0.dtd"
   xmlns:xlink="http://www.w3.org/1999/xlink"
   xmlns="http://www.w3.org/2000/svg"
   xmlns:svg="http://www.w3.org/2000/svg">
  <sodipodi:namedview
     id="namedview1"
     pagecolor="#ffffff"
     bordercolor="#000000"
     borderopacity="0.25"
     inkscape:showpageshadow="2"
     inkscape:pageopacity="0.0"
     inkscape:pagecheckerboard="0"
     inkscape:deskcolor="#d1d1d1"
     inkscape:document-units="px"
     inkscape:zoom="6.234375"
     inkscape:cx="63.919799"
     inkscape:cy="64"
     inkscape:window-width="1854"
     inkscape:window-height="1011"
     inkscape:window-x="0"
     inkscape:window-y="0"
     inkscape:window-maximized="1"
     inkscape:current-layer="svg1" />
  <defs
     id="defs1">
    <linearGradient
       inkscape:collect="always"
       id="linearGradient1606">
      <stop
         style="stop-color:#eaebed;stop-opacity:1;"
         offset="0"
         id="stop1602" />
      <stop
         style="stop-color:#f9fafa;stop-opacity:1;"
         offset="1"
         id="stop1604" />
    </linearGradient>
    <linearGradient
       inkscape:collect="always"
       xlink:href="#linearGradient1606"
       id="linearGradient4"
       x1="16"
       y1="30"
       x2="16"
       y2="2"
       gradientUnits="userSpaceOnUse"
       gradientTransform="scale(4)" />
  </defs>
  <rect
     style="opacity:0.2;fill:#000000;stroke-width:7"
     id="rect1"
     width="112"
     height="112"
     x="8"
     y="9"
     ry="24" />
  <rect
     style="fill:url(#linearGradient4);stroke-width:4"
     id="rect2"
     width="112"
     height="112"
     x="8"
     y="8"
     ry="23.999998" />
  <path
     d="M 31.999998,44 C 27.568,44 24,47.567998 24,51.999998 v 44 C 24,100.432 27.568,104 31.999998,104 H 76 c 4.432,0 7.999998,-3.568 7.999998,-8.000002 v -44 C 83.999998,47.567998 80.432,44 76,44 Z M 40,56 h 28 c 2.215998,0 3.999998,1.784 3.999998,3.999998 v 28 c 0,2.216 -1.784,4 -3.999998,4 H 40 c -2.216,0 -4,-1.784 -4,-4 v -28 C 36,57.784 37.784,56 40,56 Z"
     style="fill:#f38b00;fill-opacity:1;stroke-width:16;stroke-linecap:square"
     id="path1718"
     sodipodi:nodetypes="ssssssssssssssssss" />
  <path
     id="path1690"
     style="fill:#0097d3;fill-opacity:1;stroke-width:16;stroke-linecap:square"
     d="M 51.999998,24 C 47.567998,24 44,27.568004 44,31.999998 V 44 h 12 v -4 c 0,-2.215996 1.784,-4 3.999998,-4 h 28 c 2.216,0 4,1.784004 4,4 v 28 c 0,2.215994 -1.784,3.999998 -4,3.999998 h -28 C 57.784,71.999998 56,70.215994 56,68 V 56 H 44 v 20 c 0,4.431996 3.567998,7.999998 7.999998,7.999998 h 44 C 100.432,83.999998 104,80.431996 104,76 V 31.999998 C 104,27.568004 100.432,24 95.999998,24 Z"
     sodipodi:nodetypes="ssccssssssssccsssssss" />
</svg>
