<?xml version="1.0" encoding="UTF-8" standalone="no"?>
<!-- Created with Inkscape (http://www.inkscape.org/) -->

<svg
   width="128"
   height="128"
   viewBox="0 0 128 128.00001"
   version="1.1"
   id="svg1"
   inkscape:version="1.4.3 (0d15f75042, 2025-12-25)"
   sodipodi:docname="vmware-player.svg"
   xmlns:inkscape="http://www.inkscape.org/namespaces/inkscape"
   xmlns:sodipodi="http://sodipodi.sourceforge.net/DTD/sodipodi-0.dtd"
   xmlns:xlink="http://www.w3.org/1999/xlink"
   xmlns="http://www.w3.org/2000/svg"
   xmlns:svg="http://www.w3.org/2000/svg">
  <sodipodi:namedview
     id="namedview1"
     pagecolor="#ffffff"
     bordercolor="#000000"
     borderopacity="0.25"
     inkscape:showpageshadow="2"
     inkscape:pageopacity="0.0"
     inkscape:pagecheckerboard="0"
     inkscape:deskcolor="#d1d1d1"
     inkscape:document-units="px"
     inkscape:zoom="6.234375"
     inkscape:cx="63.919799"
     inkscape:cy="64"
     inkscape:window-width="1854"
     inkscape:window-height="1011"
     inkscape:window-x="0"
     inkscape:window-y="0"
     inkscape:window-maximized="1"
     inkscape:current-layer="svg1" />
  <defs
     id="defs1">
    <linearGradient
       inkscape:collect="always"
       id="linearGradient1606">
      <stop
         style="stop-color:#eaebed;stop-opacity:1;"
         offset="0"
         id="stop1602" />
      <stop
         style="stop-color:#f9fafa;stop-opacity:1;"
         offset="1"
         id="stop1604" />
    </linearGradient>
    <linearGradient
       inkscape:collect="always"
       xlink:href="#linearGradient1606"
       id="linearGradient4"
       x1="16"
       y1="30"
       x2="16"
       y2="2"
       gradientUnits="userSpaceOnUse"
       gradientTransform="scale(4)" />
  </defs>
  <rect
     style="opacity:0.2;fill:#000000;stroke-width:7"
     id="rect1"
     width="112"
     height="112"
     x="8"
     y="9"
     ry="24" />
  <rect
     style="fill:url(#linearGradient4);stroke-width:4"
     id="rect2"
     width="112"
     height="112"
     x="8"
     y="8"
     ry="24" />
  <path
     id="path3"
     d="M 29.710936,24 C 26.54522,24 24,26.5451 24,29.710936 v 25.718752 c 0,3.165716 2.5451,5.710936 5.710936,5.710936 3.16572,0 5.718752,-2.5451 5.718752,-5.710936 V 43.460936 L 44,52.039064 v 9.10156 h 11.429688 v -2.85156 c 0,-1.58288 1.276496,-2.859376 2.859376,-2.859376 h 2.85156 V 44 h -9.10156 l -8.578128,-8.570312 h 11.968752 c 3.165716,0 5.710936,-2.5451 5.710936,-5.710936 C 61.140624,26.553032 58.595524,24 55.429688,24 Z m 42.859376,0 c -3.165716,0 -5.710936,2.5451 -5.710936,5.710936 0,3.16572 2.5451,5.718752 5.710936,5.718752 H 84.531248 L 75.960936,44 h -9.10156 v 11.429688 h 2.85156 c 1.58288,0 2.859376,1.276496 2.859376,2.859376 v 2.85156 H 84 v -9.10156 l 8.570312,-8.578128 v 11.968752 c 0,3.165716 2.5451,5.710936 5.710936,5.710936 3.165722,0 5.718752,-2.5451 5.718752,-5.710936 V 29.710936 C 104,26.54522 101.44709,24 98.281248,24 Z M 44,66.859376 V 78.281248 C 44,81.449248 46.54294,84 49.710936,84 H 61.140624 V 72.570312 h -2.85156 c -1.58288,0 -2.859376,-1.276496 -2.859376,-2.859376 v -2.85156 z m 28.570312,0 v 2.85156 c 0,1.58288 -1.276496,2.859376 -2.859376,2.859376 h -2.85156 V 84 h 9.10156 l 8.570312,8.570312 H 72.570312 c -3.165716,0 -5.718748,2.5451 -5.718748,5.710936 0,3.165722 2.552912,5.718752 5.718748,5.718752 H 98.281248 C 101.44525,104.004 104,101.45706 104,98.289064 V 72.570312 c 0,-3.165716 -2.55291,-5.710936 -5.718752,-5.710936 -3.165716,0 -5.710936,2.5451 -5.710936,5.710936 v 11.968752 l -8.578124,-8.570312 v -9.109376 z"
     style="fill:#edb200;fill-opacity:1;stroke-width:4" />
</svg>
