<?xml version="1.0" encoding="UTF-8" standalone="no"?>
<!-- Created with Inkscape (http://www.inkscape.org/) -->

<svg
   width="128"
   height="128"
   viewBox="0 0 128 128.00001"
   version="1.1"
   id="svg1"
   inkscape:version="1.4.3 (0d15f75042, 2025-12-25)"
   sodipodi:docname="xbox.svg"
   xmlns:inkscape="http://www.inkscape.org/namespaces/inkscape"
   xmlns:sodipodi="http://sodipodi.sourceforge.net/DTD/sodipodi-0.dtd"
   xmlns:xlink="http://www.w3.org/1999/xlink"
   xmlns="http://www.w3.org/2000/svg"
   xmlns:svg="http://www.w3.org/2000/svg">
  <sodipodi:namedview
     id="namedview1"
     pagecolor="#ffffff"
     bordercolor="#000000"
     borderopacity="0.25"
     inkscape:showpageshadow="2"
     inkscape:pageopacity="0.0"
     inkscape:pagecheckerboard="0"
     inkscape:deskcolor="#d1d1d1"
     inkscape:document-units="px"
     inkscape:zoom="6.234375"
     inkscape:cx="63.919799"
     inkscape:cy="64"
     inkscape:window-width="1854"
     inkscape:window-height="1011"
     inkscape:window-x="0"
     inkscape:window-y="0"
     inkscape:window-maximized="1"
     inkscape:current-layer="svg1" />
  <defs
     id="defs1">
    <linearGradient
       inkscape:collect="always"
       xlink:href="#linearGradient1"
       id="linearGradient4"
       x1="16"
       y1="30"
       x2="16"
       y2="2"
       gradientUnits="userSpaceOnUse"
       gradientTransform="scale(4)" />
    <linearGradient
       id="linearGradient1"
       inkscape:collect="always">
      <stop
         style="stop-color:#0f670f;stop-opacity:1;"
         offset="0"
         id="stop1" />
      <stop
         style="stop-color:#42ab16;stop-opacity:1;"
         offset="1"
         id="stop2" />
    </linearGradient>
  </defs>
  <rect
     style="opacity:0.2;fill:#000000;stroke-width:7"
     id="rect1"
     width="112"
     height="112"
     x="8"
     y="9"
     ry="24" />
  <rect
     style="fill:url(#linearGradient4);stroke-width:4"
     id="rect2"
     width="112"
     height="112"
     x="8"
     y="8"
     ry="24" />
  <path
     d="m 60.011138,103.83569 c -6.16276,-0.5901 -12.401762,-2.80181 -17.76117,-6.296874 -4.49097,-2.927264 -5.504456,-4.132558 -5.504456,-6.534776 0,-4.825808 5.3092,-13.279574 14.39341,-22.914456 5.15764,-5.473528 12.343192,-11.88564 13.11958,-11.71279 1.511866,0.33736 13.590058,12.112382 18.112642,17.656528 7.150216,8.763222 10.436154,15.941064 8.766224,19.140616 -1.269192,2.43195 -9.146512,7.186212 -14.932704,9.012262 -4.769912,1.50545 -11.034024,2.14295 -16.193526,1.64949 z M 30.679446,85.9868 c -3.732248,-5.722576 -5.617894,-11.355942 -6.527244,-19.503966 -0.301258,-2.690298 -0.19526,-4.228272 0.681548,-9.751978 1.090664,-6.876758 5.011658,-14.840782 9.72578,-19.738144 2.006526,-2.081614 2.185046,-2.13737 4.6323,-1.310302 2.96609,1.003636 6.13673,3.193046 11.055404,7.638774 l 2.87311,2.59644 -1.571376,1.923632 C 44.270434,56.771744 36.58837,69.437984 33.696672,77.271906 32.125296,81.528058 31.49303,85.8028 32.17179,87.582392 c 0.455604,1.202498 0.0372,0.754584 -1.496992,-1.592806 z m 65.5077,0.972968 C 96.556306,85.160662 96.08952,81.85796 94.996998,78.525514 92.630632,71.309576 84.718906,57.885968 77.454326,48.758466 l -2.287332,-2.87337 2.475152,-2.270256 c 3.23015,-2.964438 5.47284,-4.739384 7.894056,-6.247624 1.9089,-1.18949 4.637886,-2.242382 5.8113,-2.242382 0.722458,0 3.269202,2.648484 5.324074,5.529284 3.183658,4.4606 5.524914,9.878364 6.711344,15.509868 0.76709,3.642824 0.83125,11.43028 0.12368,15.063808 -0.58577,2.981168 -1.81312,6.84516 -3.00327,9.466688 -0.901912,1.963598 -3.124154,5.778336 -4.100444,7.01987 -0.502102,0.638424 -0.502102,0.63749 -0.223174,-0.739718 z M 60.671306,33.762496 c -3.352888,-1.700602 -8.524474,-3.526662 -11.380842,-4.019182 -1.00047,-0.17192 -2.708526,-0.269488 -3.79361,-0.213732 -2.357992,0.11896 -2.25292,-0.0038 1.527674,-1.788888 3.142744,-1.48408 5.764806,-2.356684 9.325966,-3.103836 4.002818,-0.841008 11.529608,-0.850298 15.4692,-0.02054 4.253866,0.896764 9.2646,2.759992 12.08749,4.497768 l 0.84055,0.514826 -1.924704,-0.09664 c -3.827086,-0.19314 -9.40407,1.352246 -15.392024,4.262784 -1.805686,0.87911 -3.3752,1.579794 -3.490494,1.561208 -0.11438,-0.0224 -1.586258,-0.738786 -3.272928,-1.593734 z"
     style="fill:#ffffff;stroke-width:4"
     id="path1" />
</svg>
