<?xml version="1.0" encoding="UTF-8" standalone="no"?>
<!-- Created with Inkscape (http://www.inkscape.org/) -->

<svg
   width="128"
   height="128"
   viewBox="0 0 128 128.00001"
   version="1.1"
   id="svg1"
   inkscape:version="1.4.3 (0d15f75042, 2025-12-25)"
   sodipodi:docname="blockbench.svg"
   xmlns:inkscape="http://www.inkscape.org/namespaces/inkscape"
   xmlns:sodipodi="http://sodipodi.sourceforge.net/DTD/sodipodi-0.dtd"
   xmlns:xlink="http://www.w3.org/1999/xlink"
   xmlns="http://www.w3.org/2000/svg"
   xmlns:svg="http://www.w3.org/2000/svg">
  <sodipodi:namedview
     id="namedview1"
     pagecolor="#ffffff"
     bordercolor="#000000"
     borderopacity="0.25"
     inkscape:showpageshadow="2"
     inkscape:pageopacity="0.0"
     inkscape:pagecheckerboard="0"
     inkscape:deskcolor="#d1d1d1"
     inkscape:document-units="px"
     inkscape:zoom="6.328125"
     inkscape:cx="64"
     inkscape:cy="64"
     inkscape:window-width="1920"
     inkscape:window-height="1012"
     inkscape:window-x="0"
     inkscape:window-y="0"
     inkscape:window-maximized="1"
     inkscape:current-layer="svg1" />
  <defs
     id="defs1">
    <linearGradient
       inkscape:collect="always"
       xlink:href="#4852"
       id="linearGradient4"
       x1="16"
       y1="30"
       x2="16"
       y2="2"
       gradientUnits="userSpaceOnUse"
       gradientTransform="scale(4)" />
    <linearGradient
       inkscape:collect="always"
       id="4852">
      <stop
         style="stop-color:#272727;stop-opacity:1;"
         offset="0"
         id="stop14555" />
      <stop
         style="stop-color:#5d5d5d;stop-opacity:1;"
         offset="1"
         id="stop14557" />
    </linearGradient>
    <linearGradient
       id="linearGradient3"
       inkscape:collect="always">
      <stop
         style="stop-color:#1a97e0;stop-opacity:1;"
         offset="0"
         id="stop3" />
      <stop
         style="stop-color:#52b0e8;stop-opacity:1;"
         offset="1"
         id="stop4" />
    </linearGradient>
    <linearGradient
       inkscape:collect="always"
       xlink:href="#linearGradient3"
       id="linearGradient2"
       x1="16"
       y1="30"
       x2="16"
       y2="2"
       gradientUnits="userSpaceOnUse"
       gradientTransform="scale(4)" />
  </defs>
  <rect
     style="opacity:0.2;fill:#000000;stroke-width:7"
     id="rect1"
     width="112"
     height="112"
     x="8"
     y="9"
     ry="24" />
  <rect
     style="fill:url(#linearGradient4);stroke-width:4"
     id="rect2"
     width="112"
     height="112"
     x="8"
     y="8"
     ry="24" />
  <path
     d="m 102.72163,36.000202 c -0.91552,0.0078 -3.699244,0.209974 -12.72239,0.831312 -3.387054,0.23321 -8.616246,0.592948 -11.620414,0.799512 -3.004172,0.20655 -7.895992,0.542882 -10.870712,0.747426 -2.97472,0.204554 -7.938832,0.5432 -11.031364,0.752448 -10.57076,0.715244 -9.921462,0.65725 -10.417208,0.931094 -0.618666,0.34176 -1.009304,1.018064 -1.195466,2.069696 -0.08308,0.469472 -0.19674,0.973982 -0.252482,1.121248 -0.05576,0.14724 -0.1362,0.550724 -0.17864,0.896582 -0.04244,0.34584 -0.14112,0.809922 -0.219202,1.031292 -0.07808,0.221358 -0.17728,0.684118 -0.220278,1.028152 -0.04296,0.34404 -0.1378,0.771596 -0.210682,0.950132 -0.07282,0.17852 -0.16648,0.607414 -0.208118,0.953266 -0.04172,0.345842 -0.13792,0.80483 -0.2138,1.019786 -0.07588,0.214958 -0.17398,0.65383 -0.21812,0.975438 -0.04424,0.321642 -0.14066,0.755388 -0.2142,0.963936 -0.07356,0.20852 -0.16996,0.64233 -0.214202,0.963938 -0.04424,0.321638 -0.14064,0.755382 -0.21424,0.963938 -0.07356,0.208522 -0.16996,0.642324 -0.214198,0.963932 -0.04424,0.32164 -0.14064,0.755386 -0.21424,0.963934 -0.0736,0.208518 -0.16996,0.642326 -0.214242,0.963938 -0.0442,0.321642 -0.14062,0.755386 -0.21424,0.963932 -0.0736,0.20852 -0.16996,0.642324 -0.214238,0.963938 -0.04424,0.32164 -0.14064,0.755386 -0.21424,0.963934 -0.0736,0.20852 -0.17004,0.643442 -0.214242,0.966236 -0.04416,0.3228 -0.12644,0.707264 -0.1828,0.854532 -0.05636,0.14724 -0.17088,0.653336 -0.25456,1.124592 -0.14176,0.798254 -0.13876,0.87514 0.04244,1.124592 0.382518,0.526552 0.844314,0.64583 4.175456,1.078572 1.749504,0.22728 4.482288,0.585258 6.072736,0.795332 1.590444,0.21008 4.349622,0.573212 6.13151,0.807044 1.781884,0.233842 4.721792,0.619916 6.533136,0.857876 1.811336,0.23796 4.57052,0.597882 6.131508,0.799932 3.393096,0.439192 8.866296,1.156068 11.058144,1.44842 3.593658,0.479308 4.880452,0.650158 7.684468,1.02062 1.619892,0.214042 4.126044,0.547388 5.56923,0.740736 3.295702,0.441524 3.379614,0.444676 3.57385,0.1362 0.15032,-0.23872 0.360718,-1.182912 0.817068,-3.668316 0.1298,-0.706884 0.34696,-1.863604 0.482788,-2.570492 0.1358,-0.706884 0.35144,-1.839506 0.479024,-2.516944 0.12756,-0.677432 0.3216,-1.641368 0.431114,-2.14208 0.10952,-0.500708 0.230442,-1.103168 0.268796,-1.3388 0.0713,-0.438 0.2542,-1.393848 0.73737,-3.85574 0.15032,-0.765794 0.37184,-1.910116 0.49241,-2.54309 0.12056,-0.632972 0.31816,-1.66921 0.43886,-2.302732 0.12076,-0.63353 0.33264,-1.73036 0.47087,-2.437244 0.1382,-0.706888 0.35259,-1.815412 0.47672,-2.46339 0.20492,-1.070022 0.35324,-1.829778 0.97207,-4.980336 0.46249,-2.3547 0.48435,-2.61219 0.25372,-3.007066 -0.11528,-0.19742 -0.3676,-0.451242 -0.5606,-0.56397 -0.1484,-0.08668 -0.0252,-0.15194 -0.57442,-0.14726 z M 38.001476,65.364046 c -0.439234,-0.0048 -0.85713,0.0272 -1.284788,0.09328 -0.589052,0.09132 -5.191702,0.749832 -10.22811,1.463264 -5.036406,0.713432 -9.366146,1.372846 -9.621486,1.46536 -1.082948,0.392402 -1.172732,1.756816 -0.14936,2.269468 0.219684,0.11004 0.688708,0.28404 1.04214,0.3868 0.353428,0.10276 0.763092,0.22468 0.910356,0.270682 0.14726,0.04608 0.460532,0.13604 0.696154,0.200196 0.671884,0.18292 2.411402,0.672156 3.079142,0.866036 0.19146,0.05556 0.540858,0.15472 0.77648,0.22028 0.23562,0.06556 0.572988,0.1608 0.749702,0.21172 0.521914,0.15032 2.646182,0.74994 3.05237,0.861642 0.206168,0.05672 0.70017,0.19984 1.097782,0.31816 0.397608,0.11832 1.048248,0.311998 1.445856,0.430298 0.397612,0.11834 0.915714,0.2684 1.151334,0.33368 0.235616,0.06524 0.54889,0.1556 0.696154,0.20084 0.14726,0.04524 0.46053,0.13388 0.696154,0.1968 1.004098,0.2682 1.746286,0.478816 4.17692,1.18546 1.41373,0.411008 3.004174,0.863644 3.534324,1.005984 1.588794,0.426584 8.91978,2.52496 10.013906,2.866288 0.559596,0.1746 1.210236,0.37192 1.445856,0.43866 0.235642,0.06676 0.643848,0.18956 0.90722,0.2732 0.26332,0.08362 0.769412,0.22444 1.124556,0.31292 0.355162,0.08848 0.790328,0.20328 0.967046,0.255 0.17672,0.05172 0.489982,0.14092 0.69615,0.19832 0.206202,0.0574 0.8809,0.25688 1.499412,0.443268 1.611062,0.485576 2.335842,0.69152 3.052364,0.866872 0.23564,0.05764 0.741674,0.19848 1.124556,0.31296 0.38288,0.11444 1.226304,0.35712 1.87426,0.539492 0.64796,0.1824 1.385756,0.400772 1.63978,0.485316 0.254,0.08456 0.85645,0.25336 1.338756,0.37528 0.482296,0.12188 1.840996,0.505404 3.0191,0.852232 3.112692,0.916338 3.2854,0.95922 3.669456,0.90996 0.19216,-0.0248 5.30052,-2.541844 11.35204,-5.593872 11.899072,-6.001212 11.485908,-5.763084 11.485908,-6.623088 0,-0.586764 0.472392,-0.471516 -5.515684,-1.345908 -1.590444,-0.23224 -3.542348,-0.516432 -4.337572,-0.631748 -0.79522,-0.11532 -1.927808,-0.28388 -2.516868,-0.37444 -0.589052,-0.09056 -2.396372,-0.356478 -4.016264,-0.590952 -1.619904,-0.23444 -4.270644,-0.620186 -5.89054,-0.857252 -1.619896,-0.23704 -3.933272,-0.57392 -5.140828,-0.74847 -2.787276,-0.402902 -8.71664,-1.272154 -12.04882,-1.76638 -1.413728,-0.209682 -3.55842,-0.523734 -4.76598,-0.697846 -7.382804,-1.064492 -9.66175,-1.40668 -10.28166,-1.543592 -0.993978,-0.21956 -1.785228,-0.32844 -2.517278,-0.336162 z m -6.22376,11.968656 c -0.19266,0.04088 -4.111032,8.453428 -4.111032,8.826244 0,0.422892 0.304788,0.90256 0.676282,1.064132 0.433176,0.18844 0.516896,0.189 1.00825,0.008 0.222094,-0.08192 0.90998,-0.30316 1.528488,-0.491592 0.618504,-0.18848 1.497568,-0.460124 1.953538,-0.603716 0.795414,-0.25052 1.333988,-0.415208 3.455042,-1.057232 1.754564,-0.531092 2.854592,-0.909064 3.142732,-1.080036 0.574536,-0.34088 1.188032,-1.46202 1.842256,-3.366032 0.18928,-0.550928 0.19072,-0.597784 0.0216,-0.725044 -0.09936,-0.0748 -0.37504,-0.18466 -0.612492,-0.24408 C 39.835,79.451052 37.423066,78.803932 34.699722,78.057844 33.178112,77.64098 31.863196,77.31468 31.777676,77.332796 Z m 49.996746,6.646928 c -0.11252,0.003 -0.25236,0.04964 -0.411676,0.14204 -0.19496,0.11312 -0.777448,0.440852 -1.294404,0.72818 -0.830076,0.461364 -2.469624,1.421564 -3.563816,2.087064 -0.2062,0.12536 -0.615832,0.35044 -0.91036,0.500164 -0.29452,0.14972 -0.800572,0.436648 -1.124556,0.637812 -1.5844,0.983788 -2.232508,1.189056 -2.913464,0.922308 -0.13532,-0.053 -0.838364,-0.25416 -1.562376,-0.447032 -1.132546,-0.30164 -1.335972,-0.32928 -1.456524,-0.19808 -0.1302,0.14168 -0.281958,0.512952 -0.828148,2.026612 -0.11692,0.32396 -0.31092,0.830054 -0.43112,1.124586 -0.1202,0.29456 -0.25936,0.68011 -0.30892,0.856828 -0.0496,0.17672 -0.241558,0.730994 -0.426732,1.231706 -0.1852,0.500708 -0.377038,1.030872 -0.42652,1.17814 -0.04944,0.14724 -0.24116,0.677432 -0.425892,1.178144 -0.31452,0.852512 -0.864118,2.813288 -0.855544,3.052252 0.0088,0.23744 0.521294,0.718346 0.915784,0.858924 0.54932,0.195702 0.589064,0.194402 1.30614,-0.04892 0.950608,-0.322638 6.977804,-3.410442 8.591468,-4.401512 0.795224,-0.488396 1.962632,-1.165782 2.594472,-1.505308 0.63184,-0.339518 1.251172,-0.688926 1.3762,-0.776502 0.437236,-0.30624 0.749264,-0.92418 0.968512,-1.918664 0.12004,-0.544604 0.28848,-1.303576 0.37444,-1.686472 0.08592,-0.382882 0.1998,-0.913064 0.25312,-1.178148 0.05328,-0.26508 0.26852,-1.219788 0.47818,-2.121784 0.2096,-0.901992 0.38112,-1.759192 0.38112,-1.904652 0,-0.22708 -0.1118,-0.34276 -0.29936,-0.3376 z"
     style="fill:url(#linearGradient2);stroke-width:4"
     id="path1" />
</svg>
