<?xml version="1.0" encoding="UTF-8" standalone="no"?>
<!-- Created with Inkscape (http://www.inkscape.org/) -->

<svg
   width="128"
   height="128"
   viewBox="0 0 128 128.00001"
   version="1.1"
   id="svg1"
   inkscape:version="1.4.3 (0d15f75042, 2025-12-25)"
   sodipodi:docname="geforcenow.svg"
   xmlns:inkscape="http://www.inkscape.org/namespaces/inkscape"
   xmlns:sodipodi="http://sodipodi.sourceforge.net/DTD/sodipodi-0.dtd"
   xmlns:xlink="http://www.w3.org/1999/xlink"
   xmlns="http://www.w3.org/2000/svg"
   xmlns:svg="http://www.w3.org/2000/svg">
  <sodipodi:namedview
     id="namedview1"
     pagecolor="#ffffff"
     bordercolor="#000000"
     borderopacity="0.25"
     inkscape:showpageshadow="2"
     inkscape:pageopacity="0.0"
     inkscape:pagecheckerboard="0"
     inkscape:deskcolor="#d1d1d1"
     inkscape:document-units="px"
     inkscape:zoom="6.3984375"
     inkscape:cx="64"
     inkscape:cy="64"
     inkscape:window-width="1920"
     inkscape:window-height="1022"
     inkscape:window-x="0"
     inkscape:window-y="0"
     inkscape:window-maximized="1"
     inkscape:current-layer="svg1" />
  <defs
     id="defs1">
    <linearGradient
       inkscape:collect="always"
       xlink:href="#4852"
       id="linearGradient4"
       x1="16"
       y1="30"
       x2="16"
       y2="2"
       gradientUnits="userSpaceOnUse"
       gradientTransform="scale(4)" />
    <linearGradient
       inkscape:collect="always"
       id="4852">
      <stop
         style="stop-color:#272727;stop-opacity:1;"
         offset="0"
         id="stop14555" />
      <stop
         style="stop-color:#5d5d5d;stop-opacity:1;"
         offset="1"
         id="stop14557" />
    </linearGradient>
    <linearGradient
       inkscape:collect="always"
       id="linearGradient1270">
      <stop
         style="stop-color:#80d935;stop-opacity:1;"
         offset="0"
         id="stop1266" />
      <stop
         style="stop-color:#afd65f;stop-opacity:1;"
         offset="1"
         id="stop1268" />
    </linearGradient>
    <linearGradient
       inkscape:collect="always"
       xlink:href="#linearGradient1270"
       id="linearGradient2"
       x1="32"
       y1="60"
       x2="32"
       y2="4"
       gradientUnits="userSpaceOnUse"
       gradientTransform="scale(2)" />
  </defs>
  <rect
     style="opacity:0.2;fill:#000000;stroke-width:7"
     id="rect1"
     width="112"
     height="112"
     x="8"
     y="9"
     ry="24" />
  <rect
     style="fill:url(#linearGradient4);stroke-width:4"
     id="rect2"
     width="112"
     height="112"
     x="8"
     y="8"
     ry="24" />
  <path
     d="m 28.990958,59.986132 c 0,0 7.13306,-11.642128 23.019442,-12.846564 V 42.91582 C 34.414218,44.317304 20,59.097276 20,59.097276 c 0,0 7.806944,24.742544 32.0104,27.008004 V 81.615756 C 34.248752,79.39974 28.990958,59.986132 28.990958,59.986132 Z M 52.0104,72.687184 v 4.111544 C 38.586546,74.42528 35.683792,60.58642 35.683792,60.58642 c 0,0 5.621964,-7.081072 16.326608,-8.2294 v 4.511616 c -0.0084,0 -0.0136,-0.0024 -0.0208,-0.0024 -5.618376,-0.66866 -9.184048,4.536516 -9.184048,4.536516 0,0 1.636664,8.76272 9.204556,11.284488 m 0,-38.687186 v 8.915822 c 0.516544,-0.0392 1.856472,-0.0726 2.375848,-0.09012 20.004968,-0.668664 33.039556,16.271564 33.039556,16.271564 0,0 -14.970664,18.053488 -30.56748,18.053488 -1.429432,0 -3.591032,-0.13152 -4.847924,-0.3524 v 4.817376 c 1.074812,0.13528 3.012608,0.21492 4.175456,0.21492 14.513868,0 25.00992,-7.351064 35.173272,-16.051368 1.685052,1.33838 8.583656,4.594372 10.001774,6.0197 -9.663422,8.023584 -32.18465,14.491384 -44.952662,14.491384 -1.230728,0 -3.236056,-0.07392 -4.39784,-0.18516 V 94 H 108 V 34 Z m 0,18.357018 v -5.2171 c 0.511244,-0.0352 1.84976,-0.06276 2.375848,-0.07924 14.385536,-0.448108 23.823384,12.259956 23.823384,12.259956 0,0 -10.19376,14.040476 -21.123616,14.040476 -1.572976,0 -3.8067,-0.25068 -5.075972,-0.67392 V 56.868696 c 5.600344,0.671116 7.550868,3.124512 10.917792,8.690836 l 7.48828,-6.261976 c 0,0 -5.466344,-7.109824 -14.6811,-7.109824 -1.001628,-3.52e-4 -2.783504,0.06944 -3.724672,0.16936"
     style="fill:url(#linearGradient2);stroke-width:2"
     id="path1" />
</svg>
