<?xml version="1.0" encoding="UTF-8" standalone="no"?>
<!-- Created with Inkscape (http://www.inkscape.org/) -->

<svg
   width="128"
   height="128"
   viewBox="0 0 128 128.00001"
   version="1.1"
   id="svg1"
   inkscape:version="1.4.2 (ebf0e940d0, 2025-05-08)"
   sodipodi:docname="git.svg"
   xmlns:inkscape="http://www.inkscape.org/namespaces/inkscape"
   xmlns:sodipodi="http://sodipodi.sourceforge.net/DTD/sodipodi-0.dtd"
   xmlns:xlink="http://www.w3.org/1999/xlink"
   xmlns="http://www.w3.org/2000/svg"
   xmlns:svg="http://www.w3.org/2000/svg">
  <sodipodi:namedview
     id="namedview1"
     pagecolor="#ffffff"
     bordercolor="#000000"
     borderopacity="0.25"
     inkscape:showpageshadow="2"
     inkscape:pageopacity="0.0"
     inkscape:pagecheckerboard="0"
     inkscape:deskcolor="#d1d1d1"
     inkscape:document-units="px"
     inkscape:zoom="6.3203125"
     inkscape:cx="64"
     inkscape:cy="64"
     inkscape:window-width="1920"
     inkscape:window-height="1011"
     inkscape:window-x="0"
     inkscape:window-y="0"
     inkscape:window-maximized="1"
     inkscape:current-layer="svg1" />
  <defs
     id="defs1">
    <linearGradient
       inkscape:collect="always"
       xlink:href="#4852"
       id="linearGradient4"
       x1="16"
       y1="30"
       x2="16"
       y2="2"
       gradientUnits="userSpaceOnUse"
       gradientTransform="scale(4)" />
    <linearGradient
       inkscape:collect="always"
       id="4852">
      <stop
         style="stop-color:#272727;stop-opacity:1;"
         offset="0"
         id="stop14555" />
      <stop
         style="stop-color:#5d5d5d;stop-opacity:1;"
         offset="1"
         id="stop14557" />
    </linearGradient>
    <linearGradient
       inkscape:collect="always"
       id="linearGradient1482">
      <stop
         style="stop-color:#b32420;stop-opacity:1;"
         offset="0"
         id="stop1478" />
      <stop
         style="stop-color:#ec6b52;stop-opacity:1;"
         offset="1"
         id="stop1480" />
    </linearGradient>
    <linearGradient
       inkscape:collect="always"
       xlink:href="#linearGradient1482"
       id="linearGradient2"
       x1="32"
       y1="60"
       x2="32"
       y2="4"
       gradientUnits="userSpaceOnUse"
       gradientTransform="scale(2)" />
  </defs>
  <rect
     style="opacity:0.2;fill:#000000;stroke-width:7"
     id="rect1"
     width="112"
     height="112"
     x="8"
     y="9"
     ry="24" />
  <rect
     style="fill:url(#linearGradient4);stroke-width:4"
     id="rect2"
     width="112"
     height="112"
     x="8"
     y="8"
     ry="24" />
  <path
     id="rect2-6"
     style="opacity:1;fill:#ffffff;stroke-width:2"
     d="M 51.273438,31.472656 48.445312,34.300782 44,74 62,98 99.292968,63.492188 64,32 Z" />
  <path
     id="rect7265"
     style="fill:url(#linearGradient2);stroke-width:4"
     d="m 24.402018,58.343148 c -3.133886,3.13389 -3.13389,8.179816 2e-6,11.313706 l 33.941126,33.941126 c 3.133892,3.13389 8.179816,3.13389 11.313706,0 L 103.59798,69.656854 c 3.13389,-3.133892 3.13389,-8.179816 0,-11.313708 L 69.656854,24.40202 c -3.1339,-3.133894 -8.179818,-3.133896 -11.313708,0 l -7.071068,7.071068 7.253366,7.253368 a 8,8 0 0 1 9.717196,1.231914 8,8 0 0 1 1.218102,9.703382 l 7.44948,7.44948 a 8,8 0 0 1 9.71719,1.231916 8,8 0 0 1 2e-6,11.313706 8,8 0 0 1 -11.313706,-2e-6 8,8 0 0 1 -1.218102,-9.70338 l -7.46329,-7.463292 a 8,8 0 0 1 -2.046744,0.820354 l -2e-6,18.50631 a 8,8 0 0 1 3.65707,2.08265 8,8 0 0 1 0,11.31371 8,8 0 0 1 -11.31371,0 8,8 0 0 1 0,-11.31371 8,8 0 0 1 3.65707,-2.08265 l -2e-6,-18.50631 A 8,8 0 0 1 56.928932,51.272078 8,8 0 0 1 55.71083,41.568694 l -7.26718,-7.267178 z" />
</svg>
