<?xml version="1.0" encoding="UTF-8" standalone="no"?>
<!-- Created with Inkscape (http://www.inkscape.org/) -->

<svg
   width="128"
   height="128"
   viewBox="0 0 128 128.00001"
   version="1.1"
   id="svg1"
   inkscape:version="1.4.3 (0d15f75042, 2025-12-25)"
   sodipodi:docname="instagram.svg"
   xmlns:inkscape="http://www.inkscape.org/namespaces/inkscape"
   xmlns:sodipodi="http://sodipodi.sourceforge.net/DTD/sodipodi-0.dtd"
   xmlns:xlink="http://www.w3.org/1999/xlink"
   xmlns="http://www.w3.org/2000/svg"
   xmlns:svg="http://www.w3.org/2000/svg">
  <sodipodi:namedview
     id="namedview1"
     pagecolor="#ffffff"
     bordercolor="#000000"
     borderopacity="0.25"
     inkscape:showpageshadow="2"
     inkscape:pageopacity="0.0"
     inkscape:pagecheckerboard="0"
     inkscape:deskcolor="#d1d1d1"
     inkscape:document-units="px"
     inkscape:zoom="6.328125"
     inkscape:cx="64"
     inkscape:cy="64"
     inkscape:window-width="1920"
     inkscape:window-height="1012"
     inkscape:window-x="0"
     inkscape:window-y="0"
     inkscape:window-maximized="1"
     inkscape:current-layer="svg1" />
  <defs
     id="defs1">
    <linearGradient
       inkscape:collect="always"
       xlink:href="#4852"
       id="linearGradient4"
       x1="2"
       y1="2"
       x2="30"
       y2="30"
       gradientUnits="userSpaceOnUse"
       gradientTransform="scale(4)" />
    <linearGradient
       inkscape:collect="always"
       id="4852">
      <stop
         style="stop-color:#272727;stop-opacity:1;"
         offset="0"
         id="stop14555" />
      <stop
         style="stop-color:#5d5d5d;stop-opacity:1;"
         offset="1"
         id="stop14557" />
    </linearGradient>
    <radialGradient
       inkscape:collect="always"
       xlink:href="#linearGradient12"
       id="radialGradient7"
       cx="1.7142857"
       cy="26.513166"
       fx="1.7142857"
       fy="26.513166"
       r="28"
       gradientUnits="userSpaceOnUse"
       gradientTransform="matrix(0,-3.4999998,3.4560846,0,-46.594708,134)" />
    <linearGradient
       id="linearGradient12">
      <stop
         id="stop7"
         stop-color="#fd5"
         offset="0"
         style="stop-color:#ffdd57;stop-opacity:1;" />
      <stop
         id="stop8"
         stop-color="#fd5"
         offset=".1" />
      <stop
         id="stop10"
         stop-color="#ff543e"
         offset=".5" />
      <stop
         id="stop12"
         stop-color="#c837ab"
         offset="1" />
    </linearGradient>
    <radialGradient
       inkscape:collect="always"
       xlink:href="#linearGradient5"
       id="radialGradient6"
       cx="-14.757336"
       cy="15.403809"
       fx="-14.757336"
       fy="15.403809"
       r="28"
       gradientUnits="userSpaceOnUse"
       gradientTransform="matrix(0.15556884,1.409298,-4.6499332,0.51329442,78.663208,31.052066)" />
    <linearGradient
       id="linearGradient5">
      <stop
         id="stop1"
         stop-color="#3771c8"
         offset="0"
         style="stop-color:#3771c8;stop-opacity:1;" />
      <stop
         id="stop3"
         offset=".128"
         stop-color="#3771c8" />
      <stop
         id="stop5"
         stop-opacity="0"
         stop-color="#60f"
         offset="1" />
    </linearGradient>
  </defs>
  <rect
     style="opacity:0.2;fill:#000000;stroke-width:7"
     id="rect1"
     width="112"
     height="112"
     x="8"
     y="9"
     ry="24" />
  <rect
     style="fill:url(#linearGradient4);stroke-width:4"
     id="rect2"
     width="112"
     height="112"
     x="8"
     y="8"
     ry="24" />
  <path
     id="path1"
     style="fill:url(#radialGradient7);stroke-width:4"
     d="M 45.703124,22 C 32.640298,22 22,32.640298 22,45.703124 V 82.296876 C 22,95.359702 32.640298,106 45.703124,106 H 82.296876 C 95.359702,106 106,95.3597 106,82.296876 V 45.703124 C 106,32.640298 95.3597,22 82.296876,22 Z m 0,8 H 82.296876 C 91.06608,30 98,36.93392 98,45.703124 V 82.296876 C 98,91.06608 91.06608,98 82.296876,98 H 45.703124 C 36.93392,98 30,91.06608 30,82.296876 V 45.703124 C 30,36.93392 36.93392,30 45.703124,30 Z M 86,36 c -3.313708,0 -6,2.686292 -6,6 0,3.313708 2.686292,6 6,6 3.313708,0 6,-2.686292 6,-6 0,-3.313708 -2.686292,-6 -6,-6 z M 64,42 C 51.897114,42 42,51.897114 42,64 42,76.102886 51.897114,86 64,86 76.102886,86 86,76.102886 86,64 86,51.897114 76.102886,42 64,42 Z m 0,8 c 7.779366,0 14,6.220634 14,14 0,7.779366 -6.220634,14 -14,14 -7.779366,0 -14,-6.220634 -14,-14 0,-7.779366 6.220634,-14 14,-14 z" />
  <path
     id="path2"
     style="fill:url(#radialGradient6);stroke-width:2"
     d="M 45.703124,22 C 32.640298,22 22,32.640298 22,45.703124 V 82.296876 C 22,95.359702 32.640298,106 45.703124,106 H 82.296876 C 95.359702,106 106,95.359702 106,82.296876 V 45.703124 C 106,32.640298 95.359702,22 82.296876,22 Z m 0,8 H 82.296876 C 91.06608,30 98,36.93392 98,45.703124 V 82.296876 C 98,91.06608 91.06608,98 82.296876,98 H 45.703124 C 36.93392,98 30,91.06608 30,82.296876 V 45.703124 C 30,36.93392 36.93392,30 45.703124,30 Z M 86,36 c -3.313708,0 -6,2.686292 -6,6 0,3.313708 2.686292,6 6,6 3.313708,0 6,-2.686292 6,-6 0,-3.313708 -2.686292,-6 -6,-6 z M 64,42 C 51.897114,42 42,51.897114 42,64 42,76.102886 51.897114,86 64,86 76.102886,86 86,76.102886 86,64 86,51.897114 76.102886,42 64,42 Z m 0,8 c 7.779366,0 14,6.220634 14,14 0,7.779366 -6.220634,14 -14,14 -7.779366,0 -14,-6.220634 -14,-14 0,-7.779366 6.220634,-14 14,-14 z" />
</svg>
