<?xml version="1.0" encoding="UTF-8" standalone="no"?>
<!-- Created with Inkscape (http://www.inkscape.org/) -->

<svg
   width="128"
   height="128"
   viewBox="0 0 128 128.00001"
   version="1.1"
   id="svg1"
   inkscape:version="1.4.2 (ebf0e940d0, 2025-05-08)"
   sodipodi:docname="qbittorrent.svg"
   xmlns:inkscape="http://www.inkscape.org/namespaces/inkscape"
   xmlns:sodipodi="http://sodipodi.sourceforge.net/DTD/sodipodi-0.dtd"
   xmlns:xlink="http://www.w3.org/1999/xlink"
   xmlns="http://www.w3.org/2000/svg"
   xmlns:svg="http://www.w3.org/2000/svg">
  <sodipodi:namedview
     id="namedview1"
     pagecolor="#ffffff"
     bordercolor="#000000"
     borderopacity="0.25"
     inkscape:showpageshadow="2"
     inkscape:pageopacity="0.0"
     inkscape:pagecheckerboard="0"
     inkscape:deskcolor="#d1d1d1"
     inkscape:document-units="px"
     inkscape:zoom="6.2578125"
     inkscape:cx="64"
     inkscape:cy="63.8402"
     inkscape:window-width="1920"
     inkscape:window-height="1011"
     inkscape:window-x="0"
     inkscape:window-y="0"
     inkscape:window-maximized="1"
     inkscape:current-layer="svg1" />
  <defs
     id="defs1">
    <linearGradient
       inkscape:collect="always"
       xlink:href="#4852"
       id="linearGradient4"
       x1="16"
       y1="30"
       x2="16"
       y2="2"
       gradientUnits="userSpaceOnUse"
       gradientTransform="scale(4)" />
    <linearGradient
       inkscape:collect="always"
       id="4852">
      <stop
         style="stop-color:#272727;stop-opacity:1;"
         offset="0"
         id="stop14555" />
      <stop
         style="stop-color:#5d5d5d;stop-opacity:1;"
         offset="1"
         id="stop14557" />
    </linearGradient>
  </defs>
  <rect
     style="opacity:0.2;fill:#000000;stroke-width:7"
     id="rect1"
     width="112"
     height="112"
     x="8"
     y="9"
     ry="24" />
  <rect
     style="fill:url(#linearGradient4);stroke-width:4"
     id="rect2"
     width="112"
     height="112"
     x="8"
     y="8"
     ry="24" />
  <path
     id="path1"
     style="fill:#a6d3fb;fill-opacity:1;stroke-width:28;stroke-linecap:round"
     d="m 40.695312,45.093752 c -3.329868,-4e-6 -6.253464,0.838536 -8.781248,2.515624 -2.50348,1.677088 -4.45052,4.02516 -5.83594,7.03906 C 24.692708,57.638032 24,61.108492 24,65.070312 24,69.007824 24.692724,72.4861 26.078124,75.5 c 1.38542,2.989596 3.332484,5.337664 5.83594,7.039064 2.527788,1.677088 5.451376,2.515624 8.781248,2.515624 1.677088,0 3.244784,-0.24828 4.703124,-0.734376 1.48264,-0.461812 2.846352,-1.176212 4.08594,-2.148436 1.239588,-0.972224 2.318572,-2.197048 3.242188,-3.679688 h 0.07812 V 98 H 59 V 45.820312 h -6.054688 v 5.6875 H 52.875 C 52.048608,50.073784 51.00608,48.88542 49.742188,47.9375 48.478296,46.989584 47.063372,46.282124 45.507812,45.820312 43.97656,45.334184 42.3724,45.093752 40.695312,45.093752 Z m 0.953124,5.53906 c 2.381952,0 4.445304,0.598084 6.195316,1.789064 1.749996,1.190972 3.098952,2.868044 4.046872,5.031248 0.947904,2.163204 1.421876,4.700512 1.421876,7.617188 0,2.892372 -0.473956,5.422736 -1.421876,7.585936 -0.94792,2.1632 -2.296872,3.840276 -4.046872,5.031252 -1.750012,1.190972 -3.813364,1.789064 -6.195316,1.789064 -2.211812,0 -4.180548,-0.546876 -5.906248,-1.640628 -1.701392,-1.093756 -3.0434,-2.712668 -4.015624,-4.85156 -0.972224,-2.1389 -1.453128,-4.77864 -1.453128,-7.914064 0,-3.159732 0.4809,-5.80642 1.453128,-7.945312 0.972224,-2.1389 2.314232,-3.757808 4.015624,-4.851564 1.7257,-1.093752 3.694436,-1.640624 5.906248,-1.640624 z" />
  <path
     d="m 86.489784,85.05226 c -1.652784,0 -3.232648,-0.24304 -4.7396,-0.729168 C 80.243228,83.8613 78.857812,83.144264 77.59392,82.17204 76.330028,81.199816 75.236276,79.97238 74.31266,78.48974 h -0.07292 v 5.833352 h -6.0521 V 30 h 6.197932 v 21.510484 h 0.07296 c 0.826392,-1.434028 1.859384,-2.625008 3.098972,-3.572928 1.239588,-0.947916 2.625004,-1.65278 4.156264,-2.114588 1.531256,-0.486116 3.123272,-0.729168 4.776056,-0.729168 3.354176,0 6.283004,0.838544 8.786484,2.515632 2.50348,1.677088 4.447932,4.02258 5.833352,7.03648 1.38542,2.989596 2.07813,6.4653 2.07813,10.427116 0,3.937512 -0.69272,7.413216 -2.07813,10.427116 -1.38542,2.989596 -3.329872,5.335084 -5.833352,7.036484 -2.50348,1.677088 -5.432308,2.515632 -8.786484,2.515632 z m -0.947928,-5.578148 c 2.236124,0 4.20488,-0.546908 5.906272,-1.640632 1.7014,-1.093748 3.038212,-2.710068 4.010432,-4.848968 0.972224,-2.138892 1.45834,-4.77606 1.45834,-7.911484 0,-3.159732 -0.48608,-5.809048 -1.45834,-7.94794 -0.97222,-2.1389 -2.309032,-3.75522 -4.010432,-4.848976 -1.701392,-1.093752 -3.670148,-1.640628 -5.906272,-1.640628 -2.381952,0 -4.447924,0.595488 -6.197932,1.786464 -1.750008,1.190976 -3.098968,2.868064 -4.046888,5.031264 -0.94792,2.163204 -1.421876,4.70314 -1.421876,7.619816 0,2.892372 0.473972,5.420156 1.421876,7.58336 0.94792,2.163204 2.29688,3.840292 4.046888,5.031264 1.750008,1.190972 3.81598,1.786464 6.197932,1.78646 z"
     style="fill:#ffffff;stroke-width:28;stroke-linecap:round"
     id="path2" />
</svg>
