<?xml version="1.0" encoding="UTF-8" standalone="no"?>
<!-- Created with Inkscape (http://www.inkscape.org/) -->

<svg
   width="128"
   height="128"
   viewBox="0 0 128 128.00001"
   version="1.1"
   id="svg1"
   inkscape:version="1.4.2 (1:1.4.2+202505120737+ebf0e940d0)"
   sodipodi:docname="rnote.svg"
   xmlns:inkscape="http://www.inkscape.org/namespaces/inkscape"
   xmlns:sodipodi="http://sodipodi.sourceforge.net/DTD/sodipodi-0.dtd"
   xmlns:xlink="http://www.w3.org/1999/xlink"
   xmlns="http://www.w3.org/2000/svg"
   xmlns:svg="http://www.w3.org/2000/svg">
  <sodipodi:namedview
     id="namedview1"
     pagecolor="#ffffff"
     bordercolor="#000000"
     borderopacity="0.25"
     inkscape:showpageshadow="2"
     inkscape:pageopacity="0.0"
     inkscape:pagecheckerboard="0"
     inkscape:deskcolor="#d1d1d1"
     inkscape:document-units="px"
     inkscape:zoom="6.3046875"
     inkscape:cx="64"
     inkscape:cy="64"
     inkscape:window-width="1920"
     inkscape:window-height="1016"
     inkscape:window-x="0"
     inkscape:window-y="0"
     inkscape:window-maximized="1"
     inkscape:current-layer="svg1" />
  <defs
     id="defs1">
    <linearGradient
       inkscape:collect="always"
       xlink:href="#4852"
       id="linearGradient4"
       x1="16"
       y1="30"
       x2="16"
       y2="2"
       gradientUnits="userSpaceOnUse"
       gradientTransform="scale(4)" />
    <linearGradient
       inkscape:collect="always"
       id="4852">
      <stop
         style="stop-color:#272727;stop-opacity:1;"
         offset="0"
         id="stop14555" />
      <stop
         style="stop-color:#5d5d5d;stop-opacity:1;"
         offset="1"
         id="stop14557" />
    </linearGradient>
    <linearGradient
       inkscape:collect="always"
       id="linearGradient1606">
      <stop
         style="stop-color:#eaebed;stop-opacity:1;"
         offset="0"
         id="stop1602" />
      <stop
         style="stop-color:#f9fafa;stop-opacity:1;"
         offset="1"
         id="stop1604" />
    </linearGradient>
    <linearGradient
       inkscape:collect="always"
       xlink:href="#linearGradient1606"
       id="linearGradient6"
       x1="11.000003"
       y1="13.000074"
       x2="11.000003"
       y2="3"
       gradientUnits="userSpaceOnUse"
       gradientTransform="matrix(8,0,0,8,4,0)" />
  </defs>
  <rect
     style="opacity:0.2;fill:#000000;stroke-width:7"
     id="rect1"
     width="112"
     height="112"
     x="8"
     y="9"
     ry="24" />
  <rect
     style="fill:url(#linearGradient4);stroke-width:4"
     id="rect2"
     width="112"
     height="112"
     x="8"
     y="8"
     ry="24" />
  <path
     d="m 87.322944,41.901372 c -0.152,-1.26222 0.7968,-3.259632 0.66952,-5.978952 -0.13144,-2.723748 -1.425264,-6.519276 -6.736104,-9.274018 -0.09448,-0.04872 -0.18888,-0.09746 -0.28752,-0.14614 -3.454312,-1.718388 -8.489944,-2.949612 -14.363504,-2.347284 -4.563296,0.469454 -9.303216,2.023984 -13.77204,4.765446 -4.021128,2.458008 -7.72598,5.823936 -10.73258,9.987064 -1.766172,2.617452 -3.306444,5.58036 -4.407224,8.777984 -0.476456,1.381808 -0.870762,2.812324 -1.166492,4.273848 -0.382,1.899976 -0.591424,3.977108 -0.509304,6.169396 0.21768,3.476648 1.178814,7.276608 3.326976,10.695672 1.014524,1.620968 2.275484,3.091352 3.733604,4.318144 1.449908,1.226784 3.109288,2.218848 4.920644,2.869896 2.90392,1.023064 5.758548,1.023064 8.120284,0.63776 1.252756,-0.20376 2.402816,-0.51816 3.417344,-0.868056 1.252744,-0.4296 2.402812,-0.925632 3.310544,-1.346368 1.979752,-0.934504 3.836296,-2.055 5.314948,-2.958488 1.478656,-0.903488 2.92856,-1.8114 4.32096,-2.546592 0.829696,-0.4252 1.815464,-0.899048 2.788912,-1.257792 0.2588,-0.09296 0.51752,-0.1816 0.77632,-0.25688 0.969336,-0.28784 1.926368,-0.41632 2.776584,-0.32328 0.72696,0.0752 1.34312,0.33216 1.75796,0.64664 0.17656,0.1196 0.32856,0.28784 0.45592,0.46504 0.11088,0.16392 0.1848,0.31896 0.22592,0.40304 0.0456,0.10624 0.0704,0.32328 -0.0088,0.63776 -0.0744,0.3188 -0.23408,0.68648 -0.48056,1.054064 -0.25464,0.37648 -0.60784,0.76616 -1.084344,1.169216 -0.46824,0.38976 -1.02684,0.77064 -1.675808,1.138216 -1.425264,0.7396 -2.842304,1.235648 -4.834384,2.037272 -1.807248,0.72632 -3.963624,1.66524 -5.984452,3.153336 -1.059704,0.806056 -2.119408,1.8114 -3.031248,3.029336 -0.907728,1.217936 -1.696348,2.688312 -2.135832,4.411136 -0.39432,1.722824 -0.414848,3.636096 0.11496,5.474064 0.26696,0.934496 0.677712,1.820264 1.203468,2.6086 0.533984,0.7972 1.203456,1.519104 1.996188,2.094848 1.40882,1.009776 2.961412,1.3818 4.304524,1.421664 h 0.45592 c 1.137744,-0.0304 2.222096,-0.28344 3.211976,-0.64216 1.035056,-0.34096 1.971544,-0.801624 2.776584,-1.20908 0.82148,-0.42072 1.454008,-0.76168 2.115296,-1.045208 0.60376,-0.28784 1.129536,-0.47384 1.605992,-0.55368 0.45176,-0.0752 0.82148,-0.04 1.088456,0.04 0.11912,0.0352 0.22592,0.09296 0.31216,0.15064 0.08216,0.0576 0.13968,0.11072 0.1684,0.13736 0.0456,0.0224 0.08632,0.0576 0.11496,0.0672 0.0328,0 0.0616,0.0184 0.10272,0.0088 0.0368,-0.0088 0,0.13288 -0.14792,0.31896 -0.17248,0.21704 -0.42304,0.434 -0.809152,0.75728 -0.37376,0.3056 -0.883096,0.70856 -1.347224,1.204648 -0.51336,0.54472 -1.014528,1.235648 -1.322576,2.090424 -0.30808,0.863624 -0.35736,1.749392 -0.23,2.528872 0.14792,0.90791 0.53808,1.65196 0.98988,2.179 0.60792,0.71744 1.31436,1.02306 1.835992,1.10721 0.12728,0.0184 0.2464,0.0264 0.35736,0.0224 0.928264,-0.0352 1.302032,-0.80163 1.466328,-1.02749 -0.23,-0.23472 -0.46416,-0.83706 -0.64896,-1.35081 -0.0208,-0.0576 -0.0408,-0.11072 -0.0576,-0.16832 -0.0744,-0.22584 -0.1396,-0.47384 -0.1232,-0.69528 0.0088,-0.15944 0.0456,-0.32768 0.11504,-0.434 0.0576,-0.093 0.13968,-0.1772 0.2136,-0.20816 0.0744,-0.0352 0.1972,-0.141758 0.41896,-0.287838 0.2752,-0.1772 0.46832,-0.27896 0.957024,-0.56248 0.382,-0.21704 0.948808,-0.55368 1.490976,-1.009784 0.54216,-0.45616 1.166496,-1.120496 1.610096,-2.046128 0.39432,-0.828192 0.58736,-1.744968 0.58736,-2.648456 0.004,-0.90348 -0.1848,-1.7804 -0.51336,-2.564304 -0.34496,-0.78832 -0.82148,-1.461528 -1.363656,-2.015128 -0.54624,-0.558128 -1.166496,-1.000976 -1.815456,-1.333136 -1.302048,-0.65992 -2.673904,-0.845912 -3.877368,-0.7972 -1.244536,0.0488 -2.386384,0.34992 -3.326976,0.66872 -0.928264,0.33664 -1.889392,0.77952 -2.571224,1.076216 -0.78448,0.34104 -1.388288,0.57576 -1.959216,0.71744 -0.53808,0.10184 -0.944696,0.09296 -1.240432,0.0224 -0.0368,-0.0088 -0.0736,-0.0184 -0.11088,-0.0304 -0.29984,-0.10184 -0.46408,-0.27896 -0.41896,-0.3676 0.0248,-0.0352 0.0288,-0.08 0.0368,-0.15504 0.0088,-0.0704 0.016,-0.15064 0.0496,-0.22144 0.0496,-0.15064 0.13136,-0.41192 0.29992,-0.65544 0.1232,-0.27016 0.32856,-0.57576 0.66536,-0.921208 0.34496,-0.35432 0.7968,-0.71304 1.339008,-1.03192 1.09256,-0.70856 2.394608,-1.235648 4.082736,-1.806968 1.5608,-0.53144 3.700744,-1.182512 5.668184,-2.063848 1.059704,-0.45176 2.16048,-1.005352 3.2284,-1.705112 1.09256,-0.71304 2.1728,-1.58996 3.158568,-2.675024 1.022744,-1.133784 1.909936,-2.471304 2.563008,-3.968256 0.66952,-1.54124 1.10488,-3.290632 1.145952,-5.16404 0.0408,-1.847392 -0.30808,-3.59236 -0.891272,-5.133592 -0.59968,-1.59968 -1.474552,-3.034632 -2.517824,-4.234848 -2.209768,-2.542168 -5.006888,-3.923968 -7.520608,-4.521864 -2.912128,-0.695296 -5.643536,-0.43848 -7.742408,0.04008 -0.58328,0.13732 -1.133632,0.28788 -1.647056,0.451768 -1.938688,0.6156 -3.548776,1.443816 -4.678308,2.086 -1.836004,1.023072 -3.663784,2.267576 -4.908316,3.086912 -1.4458,0.9522 -2.73962,1.775968 -4.037556,2.409296 -0.579168,0.28784 -1.2117,0.54472 -1.86888,0.72192 -0.525728,0.13736 -1.039168,0.23032 -1.544372,0.25688 -0.965236,0.0536 -1.7785,-0.13288 -2.328884,-0.47384 -0.3204,-0.186 -0.648952,-0.45616 -0.948804,-0.81048 -0.29988,-0.35868 -0.554496,-0.774984 -0.726984,-1.217912 -0.39432,-0.983208 -0.51756,-2.174568 -0.345,-3.30392 0.04552,-0.704184 0.18892,-1.412808 0.414848,-2.116992 0.1766,-0.544764 0.418936,-1.09836 0.726984,-1.656392 0.722896,-1.310944 1.77028,-2.551028 2.998392,-3.618372 1.909924,-1.899988 4.14434,-3.272928 6.411612,-4.163128 2.521932,-0.992064 4.937072,-1.333088 7.05648,-1.3508 2.71086,-0.018 5.13834,0.482736 7.040044,0.721872 0.0536,0.0044 0.1068,0.0132 0.16016,0.018 3.006608,0.35876 5.31084,-0.39864 7.356312,-1.452664 1.983864,-1.018636 3.758264,-2.396008 4.86724,-2.40486 z"
     style="fill:url(#linearGradient6);stroke-width:8"
     id="path1-5" />
</svg>
