<?xml version="1.0" encoding="UTF-8" standalone="no"?>
<!-- Created with Inkscape (http://www.inkscape.org/) -->

<svg
   width="128"
   height="128"
   viewBox="0 0 128 128.00001"
   version="1.1"
   id="svg1"
   inkscape:version="1.4.2 (ebf0e940d0, 2025-05-08)"
   sodipodi:docname="sendanywhere.svg"
   xmlns:inkscape="http://www.inkscape.org/namespaces/inkscape"
   xmlns:sodipodi="http://sodipodi.sourceforge.net/DTD/sodipodi-0.dtd"
   xmlns:xlink="http://www.w3.org/1999/xlink"
   xmlns="http://www.w3.org/2000/svg"
   xmlns:svg="http://www.w3.org/2000/svg">
  <sodipodi:namedview
     id="namedview1"
     pagecolor="#ffffff"
     bordercolor="#000000"
     borderopacity="0.25"
     inkscape:showpageshadow="2"
     inkscape:pageopacity="0.0"
     inkscape:pagecheckerboard="0"
     inkscape:deskcolor="#d1d1d1"
     inkscape:document-units="px"
     inkscape:zoom="6.3203125"
     inkscape:cx="64"
     inkscape:cy="64"
     inkscape:window-width="1920"
     inkscape:window-height="1011"
     inkscape:window-x="0"
     inkscape:window-y="0"
     inkscape:window-maximized="1"
     inkscape:current-layer="svg1" />
  <defs
     id="defs1">
    <linearGradient
       inkscape:collect="always"
       xlink:href="#4852"
       id="linearGradient4"
       x1="16"
       y1="30"
       x2="16"
       y2="2"
       gradientUnits="userSpaceOnUse"
       gradientTransform="scale(4)" />
    <linearGradient
       inkscape:collect="always"
       id="4852">
      <stop
         style="stop-color:#272727;stop-opacity:1;"
         offset="0"
         id="stop14555" />
      <stop
         style="stop-color:#5d5d5d;stop-opacity:1;"
         offset="1"
         id="stop14557" />
    </linearGradient>
    <linearGradient
       inkscape:collect="always"
       xlink:href="#linearGradient1"
       id="linearGradient5"
       x1="16"
       y1="30"
       x2="16"
       y2="2"
       gradientUnits="userSpaceOnUse"
       gradientTransform="matrix(4,0,0,4,-0.00396,1.76e-4)" />
    <linearGradient
       id="linearGradient1"
       inkscape:collect="always">
      <stop
         style="stop-color:#ff2d55;stop-opacity:1;"
         offset="0"
         id="stop1" />
      <stop
         style="stop-color:#ff755e;stop-opacity:1;"
         offset="1"
         id="stop2" />
    </linearGradient>
  </defs>
  <rect
     style="opacity:0.2;fill:#000000;stroke-width:7"
     id="rect1"
     width="112"
     height="112"
     x="8"
     y="9"
     ry="24" />
  <rect
     style="fill:url(#linearGradient4);stroke-width:4"
     id="rect2"
     width="112"
     height="112"
     x="8"
     y="8"
     ry="24" />
  <path
     id="path3"
     style="baseline-shift:baseline;display:inline;overflow:visible;vector-effect:none;fill:url(#linearGradient5);stroke-width:4;enable-background:accumulate;stop-color:#000000"
     d="m 87.738228,22.000176 c -0.964484,0.014 -1.742192,0.80081 -1.742188,1.765624 v 6.234376 H 42.003852 c -8.836552,0 -16,7.163444 -16,16 v 36 h 8 v -36 c 0,-4.418276 3.581728,-8 8,-8 v 0.0156 c 0.05008,-0.0096 0.08198,-0.0136 0.09374,-0.0156 h 58.132818 c 1.57138,-6.2e-4 2.36073,-1.903848 1.25,-3.015624 L 89.011664,22.5158 c -0.336998,-0.337214 -0.796796,-0.522316 -1.273436,-0.515624 z m 6.257812,28 v 32 c 0,4.418276 -3.581724,8 -8,8 v -0.0156 c -0.05008,0.0096 -0.082,0.0136 -0.09374,0.0156 H 40.238228 38.003852 27.769478 c -1.571754,6.16e-4 -2.361012,1.90384 -1.25,3.015624 l 12.46875,12.46875 c 0.33708,0.3372 0.796682,0.52232 1.273436,0.51563 0.964718,-0.014 1.742192,-0.80081 1.742188,-1.76563 V 98.000176 H 85.99604 c 8.836556,0 16,-7.163444 16,-16 v -32 z m -40,6 c -2.216,0 -4,1.784 -4,4 v 8 c 0,2.216 1.784,4 4,4 h 2 c 2.216,0 4,-1.784 4,-4 v -8 c 0,-2.216 -1.784,-4 -4,-4 z m 18,0 c -2.216,0 -4,1.784 -4,4 v 8 c 0,2.216 1.784,4 4,4 h 2 c 2.216,0 4,-1.784 4,-4 v -8 c 0,-2.216 -1.784,-4 -4,-4 z" />
</svg>
