<?xml version="1.0" encoding="UTF-8" standalone="no"?>
<!-- Created with Inkscape (http://www.inkscape.org/) -->

<svg
   width="128"
   height="128"
   viewBox="0 0 128 128.00001"
   version="1.1"
   id="svg1"
   inkscape:version="1.4.3 (0d15f75042, 2025-12-25)"
   sodipodi:docname="vmware-workstation.svg"
   xmlns:inkscape="http://www.inkscape.org/namespaces/inkscape"
   xmlns:sodipodi="http://sodipodi.sourceforge.net/DTD/sodipodi-0.dtd"
   xmlns:xlink="http://www.w3.org/1999/xlink"
   xmlns="http://www.w3.org/2000/svg"
   xmlns:svg="http://www.w3.org/2000/svg">
  <sodipodi:namedview
     id="namedview1"
     pagecolor="#ffffff"
     bordercolor="#000000"
     borderopacity="0.25"
     inkscape:showpageshadow="2"
     inkscape:pageopacity="0.0"
     inkscape:pagecheckerboard="0"
     inkscape:deskcolor="#d1d1d1"
     inkscape:document-units="px"
     inkscape:zoom="6.234375"
     inkscape:cx="63.919799"
     inkscape:cy="64"
     inkscape:window-width="1854"
     inkscape:window-height="1011"
     inkscape:window-x="0"
     inkscape:window-y="0"
     inkscape:window-maximized="1"
     inkscape:current-layer="svg1" />
  <defs
     id="defs1">
    <linearGradient
       inkscape:collect="always"
       xlink:href="#4852"
       id="linearGradient4"
       x1="16"
       y1="30"
       x2="16"
       y2="2"
       gradientUnits="userSpaceOnUse"
       gradientTransform="scale(4)" />
    <linearGradient
       inkscape:collect="always"
       id="4852">
      <stop
         style="stop-color:#272727;stop-opacity:1;"
         offset="0"
         id="stop14555" />
      <stop
         style="stop-color:#5d5d5d;stop-opacity:1;"
         offset="1"
         id="stop14557" />
    </linearGradient>
  </defs>
  <rect
     style="opacity:0.2;fill:#000000;stroke-width:7"
     id="rect1"
     width="112"
     height="112"
     x="8"
     y="9"
     ry="24" />
  <rect
     style="fill:url(#linearGradient4);stroke-width:4"
     id="rect2"
     width="112"
     height="112"
     x="8"
     y="8"
     ry="24" />
  <path
     d="m 32,44 c -4.432,0 -8,3.568 -8,8 v 44 c 0,4.432 3.568,8 8,8 h 44 c 4.432,0 8,-3.568 8,-8 V 52 c 0,-4.432 -3.568,-8 -8,-8 z m 8,12 h 28 c 2.216,0 4,1.784 4,4 v 28 c 0,2.216 -1.784,4 -4,4 H 40 c -2.216,0 -4,-1.784 -4,-4 V 60 c 0,-2.216 1.784,-4 4,-4 z"
     style="fill:#f38b00;fill-opacity:1;stroke-width:16;stroke-linecap:square"
     id="path1718"
     sodipodi:nodetypes="ssssssssssssssssss" />
  <path
     id="path1690"
     style="fill:#0097d3;fill-opacity:1;stroke-width:16;stroke-linecap:square"
     d="m 52,24 c -4.432,0 -8,3.568004 -8,8 v 12 h 12 v -4 c 0,-2.215996 1.784,-4 4,-4 h 28 c 2.216,0 4,1.784004 4,4 v 28 c 0,2.215996 -1.784,4 -4,4 H 60 c -2.216,0 -4,-1.784004 -4,-4 V 56 H 44 v 20 c 0,4.431996 3.568,8 8,8 h 44 c 4.432,0 8,-3.568004 8,-8 V 32 c 0,-4.431996 -3.568,-8 -8,-8 z"
     sodipodi:nodetypes="ssccssssssssccsssssss" />
</svg>
