<?xml version="1.0" encoding="UTF-8" standalone="no"?>
<!-- Created with Inkscape (http://www.inkscape.org/) -->

<svg
   width="64"
   height="64"
   viewBox="0 0 64 64.000004"
   version="1.1"
   id="svg1"
   inkscape:version="1.4.3 (0d15f75042, 2025-12-25)"
   sodipodi:docname="conky.svg"
   xmlns:inkscape="http://www.inkscape.org/namespaces/inkscape"
   xmlns:sodipodi="http://sodipodi.sourceforge.net/DTD/sodipodi-0.dtd"
   xmlns:xlink="http://www.w3.org/1999/xlink"
   xmlns="http://www.w3.org/2000/svg"
   xmlns:svg="http://www.w3.org/2000/svg">
  <sodipodi:namedview
     id="namedview1"
     pagecolor="#ffffff"
     bordercolor="#000000"
     borderopacity="0.25"
     inkscape:showpageshadow="2"
     inkscape:pageopacity="0.0"
     inkscape:pagecheckerboard="0"
     inkscape:deskcolor="#d1d1d1"
     inkscape:document-units="px"
     inkscape:zoom="9.046875"
     inkscape:cx="32"
     inkscape:cy="32"
     inkscape:window-width="1440"
     inkscape:window-height="830"
     inkscape:window-x="0"
     inkscape:window-y="0"
     inkscape:window-maximized="1"
     inkscape:current-layer="svg1" />
  <defs
     id="defs1">
    <linearGradient
       inkscape:collect="always"
       xlink:href="#linearGradient4-9"
       id="linearGradient4"
       x1="16"
       y1="30"
       x2="16"
       y2="2"
       gradientUnits="userSpaceOnUse"
       gradientTransform="scale(2)" />
    <linearGradient
       id="linearGradient6"
       inkscape:collect="always">
      <stop
         style="stop-color:#6d10b1;stop-opacity:1;"
         offset="0"
         id="stop6" />
      <stop
         style="stop-color:#a642ee;stop-opacity:1;"
         offset="1"
         id="stop7" />
    </linearGradient>
    <linearGradient
       id="linearGradient4-9"
       inkscape:collect="always">
      <stop
         style="stop-color:#d6a9f6;stop-opacity:1;"
         offset="0"
         id="stop4" />
      <stop
         style="stop-color:#e6c9f8;stop-opacity:1;"
         offset="1"
         id="stop5" />
    </linearGradient>
    <linearGradient
       inkscape:collect="always"
       xlink:href="#linearGradient6"
       id="linearGradient2"
       x1="16"
       y1="30"
       x2="16"
       y2="2"
       gradientUnits="userSpaceOnUse"
       gradientTransform="scale(2)" />
  </defs>
  <rect
     style="opacity:0.2;fill:#000000;stroke-width:3.5"
     id="rect1"
     width="56"
     height="56"
     x="4"
     y="5"
     ry="12" />
  <rect
     style="fill:url(#linearGradient4);stroke-width:2"
     id="rect2"
     width="56"
     height="56"
     x="4"
     y="4"
     ry="12" />
  <path
     id="rect234"
     style="fill:url(#linearGradient2);stroke-width:8;stroke-linecap:round;stroke-linejoin:round"
     d="m 20,16 c -4.431982,0 -8,3.568016 -8,8 v 12 c 0,4.431984 3.568018,8 8,8 h 10 v 4 h -7 c -0.553998,0 -1,0.446 -1,1 0,0.554 0.446002,1 1,1 h 18 c 0.553998,0 1,-0.446 1,-1 0,-0.554 -0.446002,-1 -1,-1 h -7 v -4 h 10 c 4.431984,0 8,-3.568016 8,-8 v -3 c 0,-0.552284 -0.447716,-1 -1,-1 -0.552284,0 -1,0.447716 -1,1 v 3 c 0,3.323984 -2.676016,6 -6,6 H 20 c -3.323986,0 -6,-2.676016 -6,-6 V 24 c 0,-3.323984 2.676014,-6 6,-6 h 24 c 3.323984,0 6,2.676016 6,6 v 3 c 0,0.552284 0.447716,1 1,1 0.552284,0 1,-0.447716 1,-1 v -3 c 0,-4.431984 -3.568016,-8 -8,-8 z"
     sodipodi:nodetypes="ssssccssssssccsssssssssssssssssss" />
</svg>
