<?xml version="1.0" encoding="UTF-8" standalone="no"?>
<!-- Created with Inkscape (http://www.inkscape.org/) -->

<svg
   width="64"
   height="64"
   viewBox="0 0 64 64.000004"
   version="1.1"
   id="svg1"
   inkscape:version="1.4.2 (ebf0e940d0, 2025-05-08)"
   sodipodi:docname="dosbox.svg"
   xmlns:inkscape="http://www.inkscape.org/namespaces/inkscape"
   xmlns:sodipodi="http://sodipodi.sourceforge.net/DTD/sodipodi-0.dtd"
   xmlns:xlink="http://www.w3.org/1999/xlink"
   xmlns="http://www.w3.org/2000/svg"
   xmlns:svg="http://www.w3.org/2000/svg">
  <sodipodi:namedview
     id="namedview1"
     pagecolor="#ffffff"
     bordercolor="#000000"
     borderopacity="0.25"
     inkscape:showpageshadow="2"
     inkscape:pageopacity="0.0"
     inkscape:pagecheckerboard="0"
     inkscape:deskcolor="#d1d1d1"
     inkscape:document-units="px"
     inkscape:zoom="12.640625"
     inkscape:cx="32"
     inkscape:cy="32"
     inkscape:window-width="1920"
     inkscape:window-height="1011"
     inkscape:window-x="0"
     inkscape:window-y="0"
     inkscape:window-maximized="1"
     inkscape:current-layer="svg1" />
  <defs
     id="defs1">
    <linearGradient
       inkscape:collect="always"
       id="linearGradient2">
      <stop
         style="stop-color:#484848;stop-opacity:1;"
         offset="0"
         id="stop1" />
      <stop
         style="stop-color:#797979;stop-opacity:1;"
         offset="1"
         id="stop2" />
    </linearGradient>
    <linearGradient
       inkscape:collect="always"
       xlink:href="#linearGradient2"
       id="linearGradient4"
       x1="16"
       y1="30"
       x2="16"
       y2="2"
       gradientUnits="userSpaceOnUse"
       gradientTransform="scale(2)" />
  </defs>
  <rect
     style="opacity:0.2;fill:#000000;stroke-width:3.5"
     id="rect1"
     width="56"
     height="56"
     x="4"
     y="5"
     ry="12" />
  <rect
     style="fill:url(#linearGradient4);stroke-width:2"
     id="rect2"
     width="56"
     height="56"
     x="4"
     y="4"
     ry="12" />
  <path
     d="m 12,14 v 2 h 2 v 12 h -2 v 2 h 10 v -2 h 2 V 16 h -2 v -2 z m 16,0 v 2 h -2 v 12 h 2 v 2 h 8 v -2 h 2 V 16 h -2 v -2 z m 14,0 v 2 h -2 v 4 h 2 v 2 h 4 v 2 h 2 v 4 h -4 v -4 h -4 v 4 h 2 v 2 h 8 v -2 h 2 v -4 h -2 v -2 h -2 v -2 h -4 v -4 h 4 v 4 h 4 v -4 h -2 v -2 z m -24,2 h 2 v 12 h -2 z m 12,0 h 4 V 28 H 30 Z M 12,34 v 2 h 2 v 12 h -2 v 2 h 10 v -2 h 2 v -6 h -2 v -2 h 2 v -4 h -2 v -2 z m 16,0 v 2 h -2 v 12 h 2 v 2 h 8 v -2 h 2 V 36 h -2 v -2 z m 10,0 v 2 h 2 v 4 h 2 v 4 h -2 v 4 h -2 v 2 h 4 v -2 h 2 v -2 h 2 v 2 h 2 v 2 h 4 v -2 h -2 v -4 h -2 v -4 h 2 v -4 h 2 v -2 h -4 v 2 h -2 v 2 h -2 v -2 h -2 v -2 z m -20,2 h 2 v 4 h -2 z m 12,0 h 4 v 12 h -4 z m -12,6 h 2 v 6 h -2 z"
     style="fill:#ffffff;stroke-width:2"
     id="path1" />
</svg>
