<?xml version="1.0" encoding="UTF-8" standalone="no"?>
<!-- Created with Inkscape (http://www.inkscape.org/) -->

<svg
   width="64"
   height="64"
   viewBox="0 0 64 64.000004"
   version="1.1"
   id="svg1"
   inkscape:version="1.4.2 (ebf0e940d0, 2025-05-08)"
   sodipodi:docname="electron.svg"
   xmlns:inkscape="http://www.inkscape.org/namespaces/inkscape"
   xmlns:sodipodi="http://sodipodi.sourceforge.net/DTD/sodipodi-0.dtd"
   xmlns="http://www.w3.org/2000/svg"
   xmlns:svg="http://www.w3.org/2000/svg">
  <sodipodi:namedview
     id="namedview1"
     pagecolor="#ffffff"
     bordercolor="#000000"
     borderopacity="0.25"
     inkscape:showpageshadow="2"
     inkscape:pageopacity="0.0"
     inkscape:pagecheckerboard="0"
     inkscape:deskcolor="#d1d1d1"
     inkscape:document-units="px"
     inkscape:zoom="12.640625"
     inkscape:cx="32"
     inkscape:cy="32"
     inkscape:window-width="1920"
     inkscape:window-height="1011"
     inkscape:window-x="0"
     inkscape:window-y="0"
     inkscape:window-maximized="1"
     inkscape:current-layer="svg1" />
  <defs
     id="defs1" />
  <rect
     style="opacity:0.2;fill:#000000;stroke-width:3.5"
     id="rect1"
     width="56"
     height="56"
     x="4"
     y="5"
     ry="12" />
  <rect
     style="fill:#494c60;stroke-width:2;fill-opacity:1"
     id="rect2"
     width="56"
     height="56"
     x="4"
     y="4"
     ry="12" />
  <path
     d="m 32.859375,10.003313 c -1.020296,0.0479 -1.946115,0.611638 -2.457031,1.496094 -0.828211,1.434674 -0.336817,3.269096 1.097656,4.097656 0.95999,0.554264 2.147386,0.533986 3.087891,-0.05273 0.905542,0.981476 1.729623,2.234228 2.447265,3.685547 -3.754769,1.255614 -7.815789,3.348237 -11.453125,5.888672 -2.337578,1.63264 -4.238687,3.680065 -5.71289,5.884765 -0.06192,-0.07672 -0.122993,-0.15342 -0.183594,-0.230468 -2.966139,-3.771174 -4.208658,-7.843255 -3.15625,-10.357422 0.545842,-1.303998 1.295287,-1.865664 2.238281,-2.15625 0.942994,-0.290587 2.125147,-0.234495 3.285156,0.02344 2.320019,0.515858 4.429688,1.773438 4.429688,1.773438 0.472985,0.285422 1.087803,0.133248 1.373047,-0.339844 0.285766,-0.472475 0.134503,-1.087146 -0.337891,-1.373047 0,0 -2.298386,-1.406017 -5.03125,-2.013672 -0.683216,-0.151914 -1.402212,-0.256607 -2.128906,-0.269531 -0.726694,-0.01292 -1.460272,0.06602 -2.177734,0.287109 -1.434925,0.442177 -2.753702,1.523324 -3.496094,3.296875 -1.524061,3.640931 0.215095,8.275692 3.43164,12.365235 0.212088,0.269649 0.430463,0.537614 0.65625,0.802734 -1.336049,2.435866 -2.184604,4.971726 -2.55664,7.291016 -1.307635,0.354585 -2.215319,1.541618 -2.214844,2.896477 0,1.656854 1.343146,3 3,3 1.656854,0 3,-1.343146 3,-3 -3.85e-4,-1.178096 -0.690268,-2.246918 -1.763672,-2.732422 0.329887,-1.826531 1.00133,-3.858519 2.013672,-5.853516 3.051899,3.059669 6.993026,5.604016 11.283203,6.767579 2.596907,0.704321 5.254946,0.884554 7.716797,0.779297 -0.184593,0.819698 -0.40025,1.596288 -0.646484,2.320312 -0.642353,1.888776 -1.492461,3.404781 -2.46875,4.386719 -0.97629,0.981938 -2.023057,1.453969 -3.324219,1.402343 -2.868806,-0.113824 -4.493661,-1.426645 -5.511719,-2.742187 -1.018058,-1.315542 -1.328125,-2.566406 -1.328125,-2.566406 -0.13183,-0.535935 -0.672923,-0.863738 -1.208984,-0.732422 -0.535935,0.13183 -0.863738,0.672923 -0.732422,1.208984 0,0 0.405545,1.657901 1.6875,3.314453 1.281955,1.656553 3.540617,3.377826 7.013672,3.515625 1.869768,0.07419 3.539384,-0.69993 4.822265,-1.990234 1.282882,-1.290304 2.234844,-3.070973 2.94336,-5.154297 0.332163,-0.976694 0.610327,-2.02288 0.835937,-3.121094 2.0218,-0.217338 3.838864,-0.597028 5.283203,-0.982422 0.915361,1.198886 2.578561,1.531694 3.884766,0.777344 1.434473,-0.82856 1.925867,-2.662982 1.097656,-4.097656 -0.548193,-0.950177 -1.571287,-1.525387 -2.667968,-1.5 -0.502753,0.01216 -0.994381,0.150518 -1.429688,0.402344 -0.892036,0.514852 -1.457598,1.451311 -1.498047,2.480468 -1.194041,0.301257 -2.673458,0.604994 -4.308594,0.810547 0.42347,-3.058447 0.48153,-6.410358 0.19336,-9.75 -0.288796,-3.346905 -0.967987,-6.605162 -2.041016,-9.449218 0.0282,-0.007 0.05587,-0.01466 0.08398,-0.02148 2.015047,-0.488919 3.803168,-0.627261 5.117187,-0.40039 1.314019,0.22687 2.089959,0.72872 2.515625,1.617187 2.029271,4.235579 -1.34375,8.871094 -1.34375,8.871094 -0.330957,0.442712 -0.239976,1.069955 0.203125,1.400391 0.441864,0.330051 1.067524,0.240047 1.398437,-0.201172 0,0 4.170975,-5.452389 1.544922,-10.933594 -0.738165,-1.540729 -2.248242,-2.425871 -3.978515,-2.72461 -0.865137,-0.149369 -1.799909,-0.175876 -2.792969,-0.09766 -0.99306,0.07822 -2.043794,0.26021 -3.136719,0.525391 -0.132981,0.03227 -0.266159,0.06483 -0.40039,0.09961 C 38.18198,16.78319 37.114131,15.178297 35.853516,13.923235 36.289215,12.577096 35.725142,11.109529 34.5,10.401751 34.002543,10.114621 33.433116,9.9763316 32.859375,10.003313 Z M 33,11.999407 c 0.552285,0 1,0.447715 1,1 0,0.552285 -0.447715,1 -1,1 -0.552285,0 -1,-0.447715 -1,-1 0,-0.552285 0.447715,-1 1,-1 z m 4.847656,9.072266 c 1.044846,2.660477 1.765943,5.787194 2.046875,9.042968 0.290982,3.372222 0.198575,6.76964 -0.257812,9.773438 -2.448167,0.154517 -5.096697,0.03486 -7.580078,-0.638672 -4.051005,-1.098695 -7.895882,-3.643869 -10.78125,-6.650391 1.38035,-2.203665 3.197011,-4.267417 5.451171,-5.841797 3.540994,-2.473145 7.550668,-4.509407 11.121094,-5.685546 z M 32,27.999407 c -2.195695,0 -4,1.804305 -4,4 0,2.195695 1.804305,4 4,4 2.195695,0 4,-1.804305 4,-4 0,-2.195695 -1.804305,-4 -4,-4 z m 17,10 c 0.552285,0 1,0.447715 1,1 0,0.552285 -0.447715,1 -1,1 -0.552285,0 -1,-0.447715 -1,-1 0,-0.552285 0.447715,-1 1,-1 z m -32,4 c 0.552285,0 1,0.447715 1,1 0,0.552285 -0.447715,1 -1,1 -0.552285,0 -1,-0.447715 -1,-1 0,-0.552285 0.447715,-1 1,-1 z"
     style="baseline-shift:baseline;display:inline;overflow:visible;vector-effect:none;fill:#cff7ff;stroke-linecap:round;enable-background:accumulate;stop-color:#000000"
     id="path1" />
</svg>
