<?xml version="1.0" encoding="UTF-8" standalone="no"?>
<!-- Created with Inkscape (http://www.inkscape.org/) -->

<svg
   width="64"
   height="64"
   viewBox="0 0 64 64.000004"
   version="1.1"
   id="svg1"
   inkscape:version="1.4.3 (0d15f75042, 2025-12-25)"
   sodipodi:docname="fbmessenger.svg"
   xmlns:inkscape="http://www.inkscape.org/namespaces/inkscape"
   xmlns:sodipodi="http://sodipodi.sourceforge.net/DTD/sodipodi-0.dtd"
   xmlns:xlink="http://www.w3.org/1999/xlink"
   xmlns="http://www.w3.org/2000/svg"
   xmlns:svg="http://www.w3.org/2000/svg">
  <sodipodi:namedview
     id="namedview1"
     pagecolor="#ffffff"
     bordercolor="#000000"
     borderopacity="0.25"
     inkscape:showpageshadow="2"
     inkscape:pageopacity="0.0"
     inkscape:pagecheckerboard="0"
     inkscape:deskcolor="#d1d1d1"
     inkscape:document-units="px"
     inkscape:zoom="12.796875"
     inkscape:cx="32"
     inkscape:cy="32"
     inkscape:window-width="1920"
     inkscape:window-height="1022"
     inkscape:window-x="0"
     inkscape:window-y="0"
     inkscape:window-maximized="1"
     inkscape:current-layer="svg1" />
  <defs
     id="defs1">
    <linearGradient
       inkscape:collect="always"
       id="linearGradient1606">
      <stop
         style="stop-color:#eaebed;stop-opacity:1;"
         offset="0"
         id="stop1602" />
      <stop
         style="stop-color:#f9fafa;stop-opacity:1;"
         offset="1"
         id="stop1604" />
    </linearGradient>
    <linearGradient
       inkscape:collect="always"
       xlink:href="#linearGradient1606"
       id="linearGradient4"
       x1="16"
       y1="30"
       x2="16"
       y2="2"
       gradientUnits="userSpaceOnUse"
       gradientTransform="scale(2)" />
    <radialGradient
       inkscape:collect="always"
       xlink:href="#linearGradient982"
       id="radialGradient1977"
       cx="29.445274"
       cy="36.813942"
       fx="29.445274"
       fy="36.813942"
       r="20"
       gradientTransform="matrix(1.5333565e-7,2.1498092,-2.1000886,2.4987598e-7,97.676167,-11.273208)"
       gradientUnits="userSpaceOnUse" />
    <linearGradient
       inkscape:collect="always"
       id="linearGradient982">
      <stop
         style="stop-color:#0099ff;stop-opacity:1;"
         offset="0"
         id="stop978" />
      <stop
         style="stop-color:#a033ff;stop-opacity:1;"
         offset="0.60000002"
         id="stop986" />
      <stop
         style="stop-color:#ff5280;stop-opacity:1;"
         offset="0.93000001"
         id="stop988" />
      <stop
         style="stop-color:#ff7061;stop-opacity:1;"
         offset="1"
         id="stop980" />
    </linearGradient>
  </defs>
  <rect
     style="opacity:0.2;fill:#000000;stroke-width:3.5"
     id="rect1"
     width="56"
     height="56"
     x="4"
     y="5"
     ry="12" />
  <rect
     style="fill:url(#linearGradient4);stroke-width:2"
     id="rect2"
     width="56"
     height="56"
     x="4"
     y="4"
     ry="12" />
  <path
     d="m 32,12 c -11.265002,0 -20,8.254268 -20,19.39828 0,5.829482 2.39,10.869036 6.28,14.348726 0.325,0.289976 0.525,0.699938 0.535,1.139898 l 0.11,3.559686 c 0.035,1.1349 1.205,1.874834 2.245,1.414874 l 3.97,-1.749844 c 0.335,-0.14998 0.715,-0.17498 1.07,-0.08 1.825,0.499956 3.765,0.769932 5.79,0.769932 11.265,0 20,-8.25427 20,-19.39828 C 52,20.259268 43.265,12 32,12 Z"
     style="fill:url(#radialGradient1977);fill-opacity:1;stroke-width:0.0499978"
     id="path1218" />
  <path
     d="m 20.15282,36.657622 5.794712,-8.554436 c 0.922222,-1.363018 2.89489,-1.698036 4.280688,-0.734286 l 4.61111,3.217094 c 0.424124,0.293712 1.00606,0.293712 1.425252,-0.0044 l 6.223768,-4.39654 c 0.82852,-0.58743 1.913488,0.339608 1.36114,1.16109 l -5.799642,8.549846 c -0.92222,1.363022 -2.89489,1.698038 -4.28069,0.734288 l -4.61111,-3.217092 c -0.424124,-0.293714 -1.006062,-0.293714 -1.425252,0.0046 l -6.223768,4.396526 c -0.828522,0.587428 -1.91349,-0.33502 -1.356208,-1.156504 z"
     style="fill:#ffffff;stroke-width:0.0475742"
     id="path11549" />
</svg>
