<?xml version="1.0" encoding="UTF-8" standalone="no"?>
<!-- Created with Inkscape (http://www.inkscape.org/) -->

<svg
   width="64"
   height="64"
   viewBox="0 0 64 64.000004"
   version="1.1"
   id="svg1"
   inkscape:version="1.4.3 (0d15f75042, 2025-12-25)"
   sodipodi:docname="hexchat.svg"
   xmlns:inkscape="http://www.inkscape.org/namespaces/inkscape"
   xmlns:sodipodi="http://sodipodi.sourceforge.net/DTD/sodipodi-0.dtd"
   xmlns:xlink="http://www.w3.org/1999/xlink"
   xmlns="http://www.w3.org/2000/svg"
   xmlns:svg="http://www.w3.org/2000/svg">
  <sodipodi:namedview
     id="namedview1"
     pagecolor="#ffffff"
     bordercolor="#000000"
     borderopacity="0.25"
     inkscape:showpageshadow="2"
     inkscape:pageopacity="0.0"
     inkscape:pagecheckerboard="0"
     inkscape:deskcolor="#d1d1d1"
     inkscape:document-units="px"
     inkscape:zoom="12.46875"
     inkscape:cx="31.9599"
     inkscape:cy="32"
     inkscape:window-width="1854"
     inkscape:window-height="1011"
     inkscape:window-x="0"
     inkscape:window-y="0"
     inkscape:window-maximized="1"
     inkscape:current-layer="svg1" />
  <defs
     id="defs1">
    <linearGradient
       inkscape:collect="always"
       xlink:href="#linearGradient1123"
       id="linearGradient4"
       x1="16"
       y1="30"
       x2="16"
       y2="2"
       gradientUnits="userSpaceOnUse"
       gradientTransform="scale(2)" />
    <linearGradient
       inkscape:collect="always"
       id="linearGradient1123">
      <stop
         style="stop-color:#f87c00;stop-opacity:1;"
         offset="0"
         id="stop1119" />
      <stop
         style="stop-color:#ff981e;stop-opacity:1;"
         offset="1"
         id="stop1121" />
    </linearGradient>
  </defs>
  <rect
     style="opacity:0.2;fill:#000000;stroke-width:3.5"
     id="rect1"
     width="56"
     height="56"
     x="4"
     y="5"
     ry="12" />
  <rect
     style="fill:url(#linearGradient4);stroke-width:2"
     id="rect2"
     width="56"
     height="56"
     x="4"
     y="4"
     ry="12" />
  <path
     id="path350"
     style="fill:#ffffff;stroke-width:1.5434"
     d="m 31.81399,15.006211 c -4.566612,0.04345 -9.131642,0.310931 -9.992542,0.789529 -1.7218,0.957193 -9.841628,14.499438 -9.82141,16.38088 0.02022,1.881444 8.436536,15.272164 10.178552,16.196414 1.742016,0.924246 18.278164,0.79117 19.999962,-0.16602 1.7218,-0.957198 9.841628,-14.499442 9.82141,-16.380884 -0.0202,-1.881438 -8.436536,-15.2943 -10.178552,-16.218547 -0.871008,-0.462126 -5.440816,-0.644805 -10.00742,-0.601372 z m 1.33184,3.770554 c 2.978606,0.01246 5.68137,0.172634 6.25743,0.486999 0.03948,0.02153 0.09312,0.08329 0.14138,0.121752 l -7.265622,8.109272 -0.319938,0.339424 -0.30134,-0.339424 -7.56695,-7.928493 c 0.0702,-0.06364 0.15038,-0.131318 0.204614,-0.162334 0.650718,-0.372085 4.111532,-0.589738 7.563228,-0.623507 0.431464,-0.0042 0.86169,-0.0054 1.2872,-0.0037 z m 10.338524,6.098559 c 1.856426,3.00134 3.615506,6.217242 3.623506,6.984008 0.0088,0.83082 -1.97494,4.564914 -3.924844,7.788298 l -7.139124,-6.37895 -0.342262,-0.30622 0.32366,-0.29884 z m -23.031952,0.02214 6.979154,7.766164 0.282738,0.29884 -0.297618,0.284082 -6.622012,6.37895 c -1.961386,-3.13316 -3.894066,-6.676276 -3.902523,-7.485774 -0.0082,-0.783024 1.730762,-4.15293 3.560261,-7.242268 z m 11.506676,11.448172 0.282736,0.280394 7.946414,7.467322 c -0.204716,0.235258 -0.377184,0.41181 -0.50223,0.48331 -1.30143,0.744164 -13.791146,0.89934 -15.107858,0.18076 -0.1469,-0.08016 -0.387228,-0.305642 -0.6436,-0.60137 l 7.723198,-7.530042 z" />
</svg>
