<?xml version="1.0" encoding="UTF-8" standalone="no"?>
<!-- Created with Inkscape (http://www.inkscape.org/) -->

<svg
   width="64"
   height="64"
   viewBox="0 0 64 64.000004"
   version="1.1"
   id="svg1"
   inkscape:version="1.4.2 (ebf0e940d0, 2025-05-08)"
   sodipodi:docname="meld.svg"
   xmlns:inkscape="http://www.inkscape.org/namespaces/inkscape"
   xmlns:sodipodi="http://sodipodi.sourceforge.net/DTD/sodipodi-0.dtd"
   xmlns:xlink="http://www.w3.org/1999/xlink"
   xmlns="http://www.w3.org/2000/svg"
   xmlns:svg="http://www.w3.org/2000/svg">
  <sodipodi:namedview
     id="namedview1"
     pagecolor="#ffffff"
     bordercolor="#000000"
     borderopacity="0.25"
     inkscape:showpageshadow="2"
     inkscape:pageopacity="0.0"
     inkscape:pagecheckerboard="0"
     inkscape:deskcolor="#d1d1d1"
     inkscape:document-units="px"
     inkscape:zoom="12.453125"
     inkscape:cx="32"
     inkscape:cy="32"
     inkscape:window-width="1920"
     inkscape:window-height="1011"
     inkscape:window-x="0"
     inkscape:window-y="0"
     inkscape:window-maximized="1"
     inkscape:current-layer="svg1" />
  <defs
     id="defs1">
    <linearGradient
       inkscape:collect="always"
       xlink:href="#linearGradient3147"
       id="linearGradient4"
       x1="16"
       y1="30"
       x2="16"
       y2="2"
       gradientUnits="userSpaceOnUse"
       gradientTransform="scale(2)" />
    <linearGradient
       inkscape:collect="always"
       id="linearGradient3147">
      <stop
         style="stop-color:#0091f9;stop-opacity:1;"
         offset="0"
         id="stop3143" />
      <stop
         style="stop-color:#41bbff;stop-opacity:1;"
         offset="1"
         id="stop3145" />
    </linearGradient>
    <linearGradient
       inkscape:collect="always"
       xlink:href="#linearGradient4-9"
       id="linearGradient3"
       x1="7.9101562"
       y1="16"
       x2="8.0898438"
       y2="0"
       gradientUnits="userSpaceOnUse"
       gradientTransform="matrix(3.4999999,0,0,3.4999999,3.9999999,3.9999999)" />
    <linearGradient
       inkscape:collect="always"
       id="linearGradient4-9">
      <stop
         style="stop-color:#ff7905;stop-opacity:1;"
         offset="0"
         id="stop3" />
      <stop
         style="stop-color:#ffac4c;stop-opacity:1;"
         offset="1"
         id="stop4" />
    </linearGradient>
  </defs>
  <rect
     style="opacity:0.2;fill:#000000;stroke-width:3.5"
     id="rect1"
     width="56"
     height="56"
     x="4"
     y="5"
     ry="12" />
  <rect
     style="fill:url(#linearGradient4);stroke-width:2"
     id="rect2"
     width="56"
     height="56"
     x="4"
     y="4"
     ry="12" />
  <path
     id="path1"
     style="fill:url(#linearGradient3);stroke-width:3.5"
     d="M 16,4 C 9.352,4 4,9.352 4,16 v 10.203124 3.398437 c 1.3153353,3.327212 3.2080653,6.438408 5.769532,9.160158 2.994619,3.18199 7.446027,5.841073 12.05078,6.828125 4.604753,0.987052 9.360767,0.298331 12.980469,-3.210939 1.239787,-1.201956 2.287619,-2.984076 2.656251,-4.808593 C 37.825652,35.745796 37.520508,33.881668 36.058593,32.5 35.594629,32.0615 34.910948,31.6864 34.214844,31.5625 33.523024,31.439356 32.503425,31.452408 32,32 c 0.561713,0.503804 1.000808,1.315252 0.875,2.003905 -0.126667,0.693319 -0.501036,1.373935 -0.949219,1.835939 -1.406953,1.450357 -3.313176,2.036969 -5.167969,1.671873 -1.854791,-0.365101 -3.664943,-1.397192 -4.886719,-2.625 -2.67182,-2.68498 -3.868248,-6.283125 -3.808593,-9.695312 0.02,-1.137401 0.167636,-2.287929 0.417968,-3.425781 C 19.481851,17.214221 22.318832,11.561351 25.546876,8.601563 27.607993,6.7117267 29.889721,5.1928476 32.316405,4 Z m 16,28 c -0.561716,-0.503804 -1.000808,-1.315252 -0.875,-2.003907 0.126667,-0.693317 0.501036,-1.373933 0.949219,-1.835937 1.406953,-1.450359 3.313174,-2.036971 5.167969,-1.671873 1.854787,0.365101 3.664939,1.397192 4.886719,2.625 2.67182,2.684977 3.868252,6.283125 3.808593,9.695312 -0.02,1.137405 -0.167616,2.287929 -0.417968,3.425781 -1.001383,4.551403 -3.838363,10.204273 -7.066408,13.164061 C 36.392005,57.288277 34.110276,58.807149 31.683593,60 H 48 c 6.648,0 12,-5.352 12,-12 V 37.796876 34.398437 c -1.315336,-3.327212 -3.208067,-6.438408 -5.769532,-9.160156 -2.994619,-3.181993 -7.446025,-5.841073 -12.05078,-6.828125 -4.604755,-0.987051 -9.360767,-0.298331 -12.980469,3.210937 -1.239788,1.201956 -2.287619,2.984076 -2.656251,4.808595 -0.36862,1.824516 -0.06348,3.688645 1.398437,5.070312 0.463964,0.438501 1.147643,0.8136 1.843751,0.9375 C 30.476972,32.560644 31.496573,32.547596 32,32 Z" />
</svg>
