<?xml version="1.0" encoding="UTF-8" standalone="no"?>
<!-- Created with Inkscape (http://www.inkscape.org/) -->

<svg
   width="64"
   height="64"
   viewBox="0 0 64 64.000004"
   version="1.1"
   id="svg1"
   inkscape:version="1.4.4 (dcaf3e7d9e, 2026-05-05)"
   sodipodi:docname="net.davidotek.pupgui2.svg"
   xmlns:inkscape="http://www.inkscape.org/namespaces/inkscape"
   xmlns:sodipodi="http://sodipodi.sourceforge.net/DTD/sodipodi-0.dtd"
   xmlns:xlink="http://www.w3.org/1999/xlink"
   xmlns="http://www.w3.org/2000/svg"
   xmlns:svg="http://www.w3.org/2000/svg">
  <sodipodi:namedview
     id="namedview1"
     pagecolor="#ffffff"
     bordercolor="#000000"
     borderopacity="0.25"
     inkscape:showpageshadow="2"
     inkscape:pageopacity="0.0"
     inkscape:pagecheckerboard="0"
     inkscape:deskcolor="#d1d1d1"
     inkscape:document-units="px"
     inkscape:zoom="12.453125"
     inkscape:cx="31.959849"
     inkscape:cy="31.959849"
     inkscape:window-width="1920"
     inkscape:window-height="1012"
     inkscape:window-x="0"
     inkscape:window-y="0"
     inkscape:window-maximized="1"
     inkscape:current-layer="svg1" />
  <defs
     id="defs1">
    <linearGradient
       inkscape:collect="always"
       id="linearGradient1606">
      <stop
         style="stop-color:#eaebed;stop-opacity:1;"
         offset="0"
         id="stop1602" />
      <stop
         style="stop-color:#f9fafa;stop-opacity:1;"
         offset="1"
         id="stop1604" />
    </linearGradient>
    <linearGradient
       inkscape:collect="always"
       xlink:href="#linearGradient1606"
       id="linearGradient4"
       x1="16"
       y1="30"
       x2="16"
       y2="2"
       gradientUnits="userSpaceOnUse"
       gradientTransform="scale(2)" />
    <linearGradient
       inkscape:collect="always"
       xlink:href="#linearGradient1"
       id="linearGradient4-7"
       x1="32"
       y1="60"
       x2="32"
       y2="4"
       gradientUnits="userSpaceOnUse" />
    <linearGradient
       id="linearGradient1"
       inkscape:collect="always">
      <stop
         style="stop-color:#0ebb67;stop-opacity:1;"
         offset="0"
         id="stop1" />
      <stop
         style="stop-color:#0ecb6f;stop-opacity:1;"
         offset="1"
         id="stop2" />
    </linearGradient>
  </defs>
  <rect
     style="opacity:0.2;fill:#000000;stroke-width:3.5"
     id="rect1"
     width="56"
     height="56"
     x="4"
     y="5"
     ry="12" />
  <rect
     style="fill:url(#linearGradient4);stroke-width:2"
     id="rect2"
     width="56"
     height="56"
     x="4"
     y="4"
     ry="12" />
  <path
     d="m 31.999547,9 c -0.795604,1.2e-4 -1.558577,0.316269 -2.121094,0.878906 l -19.9999997,20 c -1.1712711,1.171521 -1.1712711,3.070667 0,4.242188 1.1715207,1.171271 3.0706667,1.171271 4.2421877,0 L 28.999547,19.242188 V 52 c 0,1.656854 1.343146,3 3,3 1.656854,0 3,-1.343146 3,-3 V 19.242188 l 14.878906,14.878906 c 1.171521,1.171271 3.070667,1.171271 4.242188,0 1.171271,-1.171521 1.171271,-3.070667 0,-4.242188 l -20,-20 C 33.558124,9.316269 32.795151,9.00012 31.999547,9 Z"
     style="fill:url(#linearGradient4-7)"
     id="path1" />
  <path
     id="path5"
     style="baseline-shift:baseline;display:inline;overflow:visible;vector-effect:none;fill:#fe8f00;enable-background:accumulate;stop-color:#000000"
     d="m 27.650391,35.75 -3.925782,3.923828 2.050782,2.050781 1.875,-1.873047 2.90039,2.898438 2.898438,-2.898438 2.90039,2.898438 3.925782,-3.923828 -2.050782,-2.050781 -1.875,1.873047 -2.90039,-2.898438 -2.898438,2.898438 z" />
</svg>
