<?xml version="1.0" encoding="UTF-8" standalone="no"?>
<!-- Created with Inkscape (http://www.inkscape.org/) -->

<svg
   width="64"
   height="64"
   viewBox="0 0 64 64.000004"
   version="1.1"
   id="svg1"
   inkscape:version="1.4.3 (0d15f75042, 2025-12-25)"
   sodipodi:docname="pulseeffects.svg"
   xmlns:inkscape="http://www.inkscape.org/namespaces/inkscape"
   xmlns:sodipodi="http://sodipodi.sourceforge.net/DTD/sodipodi-0.dtd"
   xmlns:xlink="http://www.w3.org/1999/xlink"
   xmlns="http://www.w3.org/2000/svg"
   xmlns:svg="http://www.w3.org/2000/svg">
  <sodipodi:namedview
     id="namedview1"
     pagecolor="#ffffff"
     bordercolor="#000000"
     borderopacity="0.25"
     inkscape:showpageshadow="2"
     inkscape:pageopacity="0.0"
     inkscape:pagecheckerboard="0"
     inkscape:deskcolor="#d1d1d1"
     inkscape:document-units="px"
     inkscape:zoom="12.65625"
     inkscape:cx="32"
     inkscape:cy="32"
     inkscape:window-width="1920"
     inkscape:window-height="1012"
     inkscape:window-x="0"
     inkscape:window-y="0"
     inkscape:window-maximized="1"
     inkscape:current-layer="svg1" />
  <defs
     id="defs1">
    <linearGradient
       inkscape:collect="always"
       xlink:href="#linearGradient3147"
       id="linearGradient4"
       x1="16"
       y1="30"
       x2="16"
       y2="2"
       gradientUnits="userSpaceOnUse"
       gradientTransform="scale(2)" />
    <linearGradient
       inkscape:collect="always"
       id="linearGradient3147">
      <stop
         style="stop-color:#0091f9;stop-opacity:1;"
         offset="0"
         id="stop3143" />
      <stop
         style="stop-color:#41bbff;stop-opacity:1;"
         offset="1"
         id="stop3145" />
    </linearGradient>
  </defs>
  <rect
     style="opacity:0.2;fill:#000000;stroke-width:3.5"
     id="rect1"
     width="56"
     height="56"
     x="4"
     y="5"
     ry="12" />
  <rect
     style="fill:url(#linearGradient4);stroke-width:2"
     id="rect2"
     width="56"
     height="56"
     x="4"
     y="4"
     ry="12" />
  <rect
     style="opacity:0.4;fill:#000000;stroke-width:3.79474"
     id="rect3"
     width="4"
     height="36"
     x="14"
     y="14"
     ry="2" />
  <rect
     style="opacity:0.4;fill:#000000;stroke-width:3.79474"
     id="rect4"
     width="4"
     height="36"
     x="30"
     y="14"
     ry="2" />
  <rect
     style="opacity:0.4;fill:#000000"
     id="rect5"
     width="4"
     height="36"
     x="46"
     y="14"
     ry="2" />
  <rect
     style="fill:#bef3ff;fill-opacity:1;stroke-width:2"
     id="rect5-6"
     width="4"
     height="26"
     x="14"
     y="24"
     ry="2" />
  <rect
     style="fill:#bef3ff;fill-opacity:1;stroke-width:2"
     id="rect6"
     width="4"
     height="12"
     x="30"
     y="38"
     ry="2" />
  <rect
     style="fill:#bef3ff;fill-opacity:1;stroke-width:2"
     id="rect7"
     width="4"
     height="21"
     x="46"
     y="29"
     ry="2" />
  <path
     id="path1"
     style="opacity:0.2;fill:#000000;stroke-width:1.66666"
     d="M 16 20 C 13.238576 20 11 22.238577 11 25 C 11 27.761424 13.238576 30 16 30 C 18.761424 30 21 27.761424 21 25 C 21 22.238577 18.761424 20 16 20 z M 48 24 C 45.238576 24 43 26.238577 43 29 C 43 31.761424 45.238576 34 48 34 C 50.761424 34 53 31.761424 53 29 C 53 26.238577 50.761424 24 48 24 z M 32 33 C 29.238576 33 27 35.238577 27 38 C 27 40.761424 29.238576 43 32 43 C 34.761424 43 37 40.761424 37 38 C 37 35.238577 34.761424 33 32 33 z " />
  <path
     id="path2"
     style="fill:#f9f9f9;fill-opacity:1;stroke-width:8;stroke-linecap:round;stroke-linejoin:round"
     d="M 16 21 C 13.79086 21 12 22.790861 12 25 C 12 27.20914 13.79086 29 16 29 C 18.209137 29 20 27.20914 20 25 C 20 22.790861 18.209137 21 16 21 z M 48 25 C 45.79086 25 44 26.790861 44 29 C 44 31.20914 45.79086 33 48 33 C 50.209137 33 52 31.20914 52 29 C 52 26.790861 50.209137 25 48 25 z M 32 34 C 29.79086 34 28 35.790861 28 38 C 28 40.20914 29.79086 42 32 42 C 34.209137 42 36 40.20914 36 38 C 36 35.790861 34.209137 34 32 34 z " />
</svg>
