<?xml version="1.0" encoding="UTF-8" standalone="no"?>
<!-- Created with Inkscape (http://www.inkscape.org/) -->

<svg
   width="64"
   height="64"
   viewBox="0 0 64 64.000004"
   version="1.1"
   id="svg1"
   inkscape:version="1.4.2 (ebf0e940d0, 2025-05-08)"
   sodipodi:docname="qtcreator.svg"
   xmlns:inkscape="http://www.inkscape.org/namespaces/inkscape"
   xmlns:sodipodi="http://sodipodi.sourceforge.net/DTD/sodipodi-0.dtd"
   xmlns:xlink="http://www.w3.org/1999/xlink"
   xmlns="http://www.w3.org/2000/svg"
   xmlns:svg="http://www.w3.org/2000/svg">
  <sodipodi:namedview
     id="namedview1"
     pagecolor="#ffffff"
     bordercolor="#000000"
     borderopacity="0.25"
     inkscape:showpageshadow="2"
     inkscape:pageopacity="0.0"
     inkscape:pagecheckerboard="0"
     inkscape:deskcolor="#d1d1d1"
     inkscape:document-units="px"
     inkscape:zoom="12.640625"
     inkscape:cx="32"
     inkscape:cy="32"
     inkscape:window-width="1920"
     inkscape:window-height="1011"
     inkscape:window-x="0"
     inkscape:window-y="0"
     inkscape:window-maximized="1"
     inkscape:current-layer="svg1" />
  <defs
     id="defs1">
    <linearGradient
       inkscape:collect="always"
       xlink:href="#linearGradient2833"
       id="linearGradient4"
       x1="16"
       y1="30"
       x2="16"
       y2="2"
       gradientUnits="userSpaceOnUse"
       gradientTransform="scale(2)" />
    <linearGradient
       inkscape:collect="always"
       id="linearGradient2833">
      <stop
         style="stop-color:#38b517;stop-opacity:1;"
         offset="0"
         id="stop2829" />
      <stop
         style="stop-color:#97e527;stop-opacity:1;"
         offset="1"
         id="stop2831" />
    </linearGradient>
  </defs>
  <rect
     style="opacity:0.2;fill:#000000;stroke-width:3.5"
     id="rect1"
     width="56"
     height="56"
     x="4"
     y="5"
     ry="12" />
  <rect
     style="fill:url(#linearGradient4);stroke-width:2"
     id="rect2"
     width="56"
     height="56"
     x="4"
     y="4"
     ry="12" />
  <path
     id="rect12240"
     style="opacity:0.2;fill:#000000;stroke-width:6;stroke-linecap:round;stroke-linejoin:round"
     d="m 4,20 v 28 c 0,6.648 5.352,12 12,12 h 32 c 6.648,0 12,-5.352 12,-12 v -4 z" />
  <path
     id="path4867"
     style="fill:#ffffff;stroke-width:2"
     d="M 44.800781,18 C 39.923242,18 36,21.86274 36,26.664062 v 8.675781 c 0,4.801325 3.923242,8.660156 8.800781,8.660156 H 50 v -4 h -5.199219 c -2.696655,0 -4.738281,-2.005637 -4.738281,-4.660156 v -8.675781 c 0,-2.654514 2.041626,-4.664063 4.738281,-4.664063 H 50 V 18 Z m -22.75,0.04297 C 14.109903,18.042971 12,22.529419 12,30.999999 c 0,8.47058 2.072789,13.054688 10.050781,13.054688 h 2.265625 l 3.300782,5.644531 3.824218,-1.410157 -3.117187,-5.648437 C 31.292772,41.228861 32,36.647051 32,30.999999 32,22.529419 29.991659,18.042971 22.050781,18.04297 Z m -0.03516,3.957029 c 4.844007,0 5.984387,3.513986 5.984375,9.308594 0,5.794606 -1.103664,8.691406 -5.984375,8.691406 -4.880707,0 -6.015625,-2.8968 -6.015625,-8.691406 0,-5.794608 1.171624,-9.308594 6.015625,-9.308594 z" />
</svg>
