<?xml version="1.0" encoding="UTF-8" standalone="no"?>
<!-- Created with Inkscape (http://www.inkscape.org/) -->

<svg
   width="64"
   height="64"
   viewBox="0 0 64 64.000004"
   version="1.1"
   id="svg1"
   inkscape:version="1.4.2 (1:1.4.2+202505120737+ebf0e940d0)"
   sodipodi:docname="rnote.svg"
   xmlns:inkscape="http://www.inkscape.org/namespaces/inkscape"
   xmlns:sodipodi="http://sodipodi.sourceforge.net/DTD/sodipodi-0.dtd"
   xmlns:xlink="http://www.w3.org/1999/xlink"
   xmlns="http://www.w3.org/2000/svg"
   xmlns:svg="http://www.w3.org/2000/svg">
  <sodipodi:namedview
     id="namedview1"
     pagecolor="#ffffff"
     bordercolor="#000000"
     borderopacity="0.25"
     inkscape:showpageshadow="2"
     inkscape:pageopacity="0.0"
     inkscape:pagecheckerboard="0"
     inkscape:deskcolor="#d1d1d1"
     inkscape:document-units="px"
     inkscape:zoom="12.609375"
     inkscape:cx="32"
     inkscape:cy="32"
     inkscape:window-width="1920"
     inkscape:window-height="1016"
     inkscape:window-x="0"
     inkscape:window-y="0"
     inkscape:window-maximized="1"
     inkscape:current-layer="svg1" />
  <defs
     id="defs1">
    <linearGradient
       inkscape:collect="always"
       id="linearGradient1606">
      <stop
         style="stop-color:#eaebed;stop-opacity:1;"
         offset="0"
         id="stop1602" />
      <stop
         style="stop-color:#f9fafa;stop-opacity:1;"
         offset="1"
         id="stop1604" />
    </linearGradient>
    <linearGradient
       inkscape:collect="always"
       xlink:href="#linearGradient1606"
       id="linearGradient4"
       x1="16"
       y1="30"
       x2="16"
       y2="2"
       gradientUnits="userSpaceOnUse"
       gradientTransform="scale(2)" />
    <linearGradient
       inkscape:collect="always"
       xlink:href="#linearGradient1"
       id="linearGradient6"
       x1="11.000003"
       y1="13.000074"
       x2="11.000003"
       y2="3"
       gradientUnits="userSpaceOnUse"
       gradientTransform="matrix(3.999968,0,0,3.999968,2.0001278,9.58e-5)" />
    <linearGradient
       id="linearGradient1"
       inkscape:collect="always">
      <stop
         style="stop-color:#2e2e2e;stop-opacity:1;"
         offset="0"
         id="stop1" />
      <stop
         style="stop-color:#565656;stop-opacity:1;"
         offset="1"
         id="stop2" />
    </linearGradient>
  </defs>
  <rect
     style="opacity:0.2;fill:#000000;stroke-width:3.5"
     id="rect1"
     width="56"
     height="56"
     x="4"
     y="5"
     ry="12" />
  <rect
     style="fill:url(#linearGradient4);stroke-width:2"
     id="rect2"
     width="56"
     height="56"
     x="4"
     y="4"
     ry="12" />
  <path
     d="m 43.661266,20.950614 c -0.076,-0.631104 0.398398,-1.629804 0.334758,-2.989452 -0.06572,-1.361862 -0.712626,-3.259611 -3.368024,-4.636971 -0.04724,-0.02436 -0.09444,-0.04874 -0.14376,-0.07307 -1.727142,-0.859187 -4.244938,-1.474794 -7.181694,-1.173633 -2.28163,0.234725 -4.65157,1.011984 -6.885966,2.382705 -2.010548,1.228994 -3.862958,2.911945 -5.366246,4.993491 -0.88308,1.308716 -1.653208,2.790158 -2.203594,4.388958 -0.238226,0.690898 -0.435378,1.40615 -0.583242,2.136906 -0.191,0.949982 -0.29571,1.988538 -0.25465,3.084674 0.10884,1.73831 0.589402,3.638274 1.663474,5.347792 0.50726,0.810478 1.137734,1.545664 1.866788,2.159056 0.724948,0.613386 1.554632,1.109414 2.460302,1.434936 1.451948,0.511528 2.87925,0.511528 4.06011,0.318878 0.626372,-0.10188 1.201398,-0.259078 1.708658,-0.434024 0.626368,-0.2148 1.201396,-0.462814 1.655256,-0.67318 0.989872,-0.467248 1.918138,-1.027492 2.657456,-1.479232 0.739322,-0.45174 1.464268,-0.905692 2.160462,-1.273286 0.414844,-0.212598 0.907724,-0.44952 1.394444,-0.62889 0.1294,-0.04648 0.258758,-0.0908 0.388158,-0.12844 0.484664,-0.14392 0.963176,-0.208158 1.38828,-0.16164 0.363478,0.0376 0.671556,0.16608 0.878974,0.323318 0.08828,0.0598 0.16428,0.14392 0.227958,0.232518 0.05544,0.08196 0.0924,0.15948 0.11296,0.201518 0.0228,0.05312 0.0352,0.16164 -0.0044,0.318878 -0.0372,0.1594 -0.11704,0.343236 -0.24028,0.527026 -0.12732,0.18824 -0.303916,0.383078 -0.542166,0.584604 -0.234118,0.19488 -0.513416,0.385318 -0.837898,0.569104 -0.712626,0.369796 -1.42114,0.617818 -2.417172,1.018628 -0.903618,0.363156 -1.981796,0.832612 -2.9922,1.576654 -0.529848,0.403026 -1.059696,0.905694 -1.515612,1.514656 -0.453864,0.608964 -0.84817,1.344146 -1.067908,2.205552 -0.19716,0.861404 -0.207438,1.818032 0.05748,2.73701 0.13348,0.467244 0.338836,0.910124 0.601726,1.304288 0.266998,0.398598 0.601724,0.759546 0.998084,1.047416 0.704408,0.504884 1.480696,0.690896 2.152248,0.710826 h 0.227958 c 0.568868,-0.0152 1.111038,-0.14172 1.605974,-0.321076 0.517524,-0.17048 0.985764,-0.40081 1.388282,-0.604536 0.410736,-0.210358 0.726998,-0.380836 1.05764,-0.5226 0.301876,-0.14392 0.564762,-0.236918 0.802988,-0.276838 0.22588,-0.0376 0.410738,-0.02 0.544224,0.02 0.05956,0.0176 0.11296,0.04648 0.15608,0.07532 0.04108,0.0288 0.06984,0.05536 0.0842,0.06868 0.0228,0.0112 0.04316,0.0288 0.05748,0.0336 0.0164,0 0.0308,0.0092 0.05136,0.0044 0.0184,-0.0044 0,0.06644 -0.07396,0.15948 -0.08624,0.10852 -0.211518,0.216998 -0.404572,0.378636 -0.18688,0.1528 -0.441544,0.354278 -0.673608,0.60232 -0.256678,0.272358 -0.50726,0.617818 -0.661282,1.045204 -0.15404,0.431808 -0.17868,0.874688 -0.115,1.264426 0.07396,0.453952 0.269036,0.825972 0.494936,1.08949 0.303956,0.358718 0.657174,0.511524 0.917988,0.5536 0.06364,0.0092 0.1232,0.0132 0.17868,0.0112 0.464128,-0.0176 0.651012,-0.400808 0.733158,-0.51374 -0.115,-0.11736 -0.232078,-0.418524 -0.324476,-0.675398 -0.0104,-0.0288 -0.0204,-0.05536 -0.0288,-0.08416 -0.0372,-0.11292 -0.0698,-0.236918 -0.0616,-0.347636 0.0044,-0.07972 0.0228,-0.16384 0.05752,-0.217 0.0288,-0.04648 0.06984,-0.0886 0.1068,-0.10408 0.0372,-0.0176 0.0986,-0.07088 0.209478,-0.14392 0.1376,-0.0886 0.234158,-0.13948 0.47851,-0.281236 0.191,-0.10852 0.4744,-0.276838 0.745482,-0.504888 0.271076,-0.228078 0.583242,-0.560244 0.80504,-1.023056 0.19716,-0.414094 0.293678,-0.872478 0.293678,-1.324218 0.002,-0.451736 -0.0924,-0.890192 -0.256678,-1.282142 -0.17248,-0.394156 -0.410736,-0.730758 -0.681822,-1.007556 -0.273118,-0.279038 -0.583244,-0.50046 -0.90772,-0.666538 -0.65102,-0.329958 -1.336942,-0.422954 -1.93867,-0.398598 -0.622262,0.0244 -1.193182,0.17496 -1.663474,0.334358 -0.464128,0.16832 -0.944688,0.389758 -1.285602,0.538104 -0.392236,0.17052 -0.694138,0.287878 -0.9796,0.358716 -0.269038,0.05092 -0.472344,0.04648 -0.620212,0.0112 -0.0184,-0.0044 -0.0368,-0.0092 -0.05544,-0.0152 -0.14992,-0.05092 -0.232038,-0.13948 -0.209478,-0.1838 0.0124,-0.0176 0.0144,-0.04 0.0184,-0.07752 0.0044,-0.0352 0.008,-0.07532 0.0248,-0.11072 0.0248,-0.07532 0.06568,-0.205958 0.14996,-0.327718 0.0616,-0.13508 0.16428,-0.287878 0.332676,-0.4606 0.17248,-0.17716 0.398398,-0.356516 0.6695,-0.515956 0.546276,-0.354276 1.197294,-0.617818 2.041352,-0.903476 0.780392,-0.265718 1.850356,-0.591252 2.834068,-1.031916 0.529848,-0.225878 1.080232,-0.502672 1.614188,-0.85255 0.546276,-0.356516 1.08639,-0.794972 1.57927,-1.3375 0.511368,-0.566888 0.954962,-1.235642 1.281494,-1.984112 0.334758,-0.770614 0.552436,-1.645304 0.572972,-2.582 0.0204,-0.923688 -0.15404,-1.796166 -0.445632,-2.566776 -0.299838,-0.799834 -0.73727,-1.517304 -1.258902,-2.117406 -1.104876,-1.271074 -2.503424,-1.96197 -3.760274,-2.260914 -1.456052,-0.347646 -2.821746,-0.219238 -3.871174,0.02004 -0.291636,0.06866 -0.56681,0.14394 -0.82352,0.225882 -0.969336,0.307798 -1.774374,0.721902 -2.339138,1.042992 -0.917992,0.51153 -1.831874,1.133778 -2.454136,1.543442 -0.722894,0.476096 -1.3698,0.887978 -2.018762,1.20464 -0.289582,0.14392 -0.605846,0.272356 -0.934432,0.360956 -0.262862,0.06868 -0.51958,0.11516 -0.77218,0.12844 -0.482616,0.0268 -0.889244,-0.06644 -1.164432,-0.236918 -0.1602,-0.093 -0.324474,-0.22808 -0.4744,-0.405238 -0.14994,-0.17936 -0.277242,-0.387512 -0.363484,-0.608974 -0.19716,-0.4916 -0.258778,-1.087276 -0.1725,-1.651948 0.02276,-0.352088 0.09446,-0.706398 0.207424,-1.058488 0.0883,-0.272378 0.209466,-0.549176 0.363488,-0.828188 0.361446,-0.655466 0.885134,-1.275504 1.499184,-1.809172 0.954954,-0.949986 2.072154,-1.63645 3.205782,-2.081548 1.260954,-0.496028 2.468512,-0.666538 3.528208,-0.675394 1.355422,-0.009 2.569152,0.241366 3.519996,0.360934 0.0268,0.0022 0.0534,0.0066 0.08008,0.009 1.503292,0.17938 2.655398,-0.1993 3.678126,-0.726328 0.991924,-0.509312 1.879118,-1.197994 2.4336,-1.20242 z"
     style="fill:url(#linearGradient6);stroke-width:3.99996"
     id="path1-5" />
</svg>
