<?xml version="1.0" encoding="UTF-8" standalone="no"?>
<!-- Created with Inkscape (http://www.inkscape.org/) -->

<svg
   width="64"
   height="64"
   viewBox="0 0 64 64.000004"
   version="1.1"
   id="svg1"
   inkscape:version="1.4.2 (ebf0e940d0, 2025-05-08)"
   sodipodi:docname="steamdeck-gaming-return.svg"
   xmlns:inkscape="http://www.inkscape.org/namespaces/inkscape"
   xmlns:sodipodi="http://sodipodi.sourceforge.net/DTD/sodipodi-0.dtd"
   xmlns:xlink="http://www.w3.org/1999/xlink"
   xmlns="http://www.w3.org/2000/svg"
   xmlns:svg="http://www.w3.org/2000/svg">
  <sodipodi:namedview
     id="namedview1"
     pagecolor="#ffffff"
     bordercolor="#000000"
     borderopacity="0.25"
     inkscape:showpageshadow="2"
     inkscape:pageopacity="0.0"
     inkscape:pagecheckerboard="0"
     inkscape:deskcolor="#d1d1d1"
     inkscape:document-units="px"
     inkscape:zoom="12.421875"
     inkscape:cx="31.959748"
     inkscape:cy="31.919497"
     inkscape:window-width="1920"
     inkscape:window-height="1011"
     inkscape:window-x="0"
     inkscape:window-y="0"
     inkscape:window-maximized="1"
     inkscape:current-layer="svg1" />
  <defs
     id="defs1">
    <linearGradient
       inkscape:collect="always"
       xlink:href="#4852"
       id="linearGradient4"
       x1="16"
       y1="30"
       x2="16"
       y2="2"
       gradientUnits="userSpaceOnUse"
       gradientTransform="scale(2)" />
    <linearGradient
       inkscape:collect="always"
       id="4852">
      <stop
         style="stop-color:#272727;stop-opacity:1;"
         offset="0"
         id="stop14555" />
      <stop
         style="stop-color:#5d5d5d;stop-opacity:1;"
         offset="1"
         id="stop14557" />
    </linearGradient>
    <linearGradient
       inkscape:collect="always"
       xlink:href="#linearGradient2617"
       id="linearGradient2619"
       x1="5.659287"
       y1="8.0143023"
       x2="14.421036"
       y2="13.072803"
       gradientUnits="userSpaceOnUse"
       gradientTransform="matrix(2.5,0,0,2.5,4.4999998,4.4999976)" />
    <linearGradient
       inkscape:collect="always"
       id="linearGradient2617">
      <stop
         style="stop-color:#c957e6;stop-opacity:1;"
         offset="0.1"
         id="stop2613" />
      <stop
         style="stop-color:#1a9fff;stop-opacity:1;"
         offset="1"
         id="stop2615" />
    </linearGradient>
  </defs>
  <rect
     style="opacity:0.2;fill:#000000;stroke-width:3.5"
     id="rect1"
     width="56"
     height="56"
     x="4"
     y="5"
     ry="12" />
  <rect
     style="fill:url(#linearGradient4);stroke-width:2"
     id="rect2"
     width="56"
     height="56"
     x="4"
     y="4"
     ry="12" />
  <path
     id="path344"
     style="fill:#ffffff;stroke-width:5.71428;stroke-linecap:round;stroke-linejoin:round"
     d="m 32,12 v 6 A 14.000001,14.000001 0 0 1 46,32 14.000001,14.000001 0 0 1 32,46 v 6 C 43.045684,52 52.000002,43.045684 52,32 52,20.954318 43.045682,12.000001 32,12 Z" />
  <circle
     style="fill:url(#linearGradient2619);fill-opacity:1;stroke-width:5;stroke-linecap:round;stroke-linejoin:round"
     id="path466"
     cx="32"
     cy="32"
     r="10" />
  <path
     d="m 28.292918,27.292826 -4.00012,4.00012 c -0.18756,0.1875 -0.292938,0.441842 -0.292978,0.707052 4e-5,0.26521 0.10542,0.519542 0.292978,0.707052 l 4.00012,4.000122 c 0.390518,0.390436 1.023586,0.390436 1.414106,0 0.390436,-0.39052 0.390436,-1.023586 0,-1.414108 l -2.29304,-2.293036 H 39.00015 c 0.552302,0 1.00003,-0.44773 1.00003,-1.000028 0,-0.5523 -0.447728,-1.00003 -1.00003,-1.00003 H 27.413984 l 2.29304,-2.293038 c 0.390436,-0.390518 0.390436,-1.023586 0,-1.414104 -0.390518,-0.390436 -1.023588,-0.390436 -1.414106,-2e-6 z"
     style="color:#000000;fill:#ffffff;stroke-width:2.00006;stroke-linecap:round;stroke-linejoin:round"
     id="path715"
     sodipodi:nodetypes="ccccccccssscccc" />
</svg>
