<?xml version="1.0" encoding="UTF-8" standalone="no"?>
<!-- Created with Inkscape (http://www.inkscape.org/) -->

<svg
   width="64"
   height="64"
   viewBox="0 0 64 64.000004"
   version="1.1"
   id="svg1"
   inkscape:version="1.4.3 (0d15f75042, 2025-12-25)"
   sodipodi:docname="vim.svg"
   xmlns:inkscape="http://www.inkscape.org/namespaces/inkscape"
   xmlns:sodipodi="http://sodipodi.sourceforge.net/DTD/sodipodi-0.dtd"
   xmlns:xlink="http://www.w3.org/1999/xlink"
   xmlns="http://www.w3.org/2000/svg"
   xmlns:svg="http://www.w3.org/2000/svg">
  <sodipodi:namedview
     id="namedview1"
     pagecolor="#ffffff"
     bordercolor="#000000"
     borderopacity="0.25"
     inkscape:showpageshadow="2"
     inkscape:pageopacity="0.0"
     inkscape:pagecheckerboard="0"
     inkscape:deskcolor="#d1d1d1"
     inkscape:document-units="px"
     inkscape:zoom="9.078125"
     inkscape:cx="31.944923"
     inkscape:cy="32"
     inkscape:window-width="1440"
     inkscape:window-height="832"
     inkscape:window-x="0"
     inkscape:window-y="0"
     inkscape:window-maximized="1"
     inkscape:current-layer="svg1" />
  <defs
     id="defs1">
    <linearGradient
       inkscape:collect="always"
       id="linearGradient6">
      <stop
         style="stop-color:#bbe88b;stop-opacity:1;"
         offset="0"
         id="stop5" />
      <stop
         style="stop-color:#c7f3b4;stop-opacity:1;"
         offset="1"
         id="stop6" />
    </linearGradient>
    <linearGradient
       inkscape:collect="always"
       id="linearGradient4">
      <stop
         style="stop-color:#3c8024;stop-opacity:1;"
         offset="0"
         id="stop3" />
      <stop
         style="stop-color:#70cf6a;stop-opacity:1;"
         offset="1"
         id="stop4" />
    </linearGradient>
    <linearGradient
       inkscape:collect="always"
       xlink:href="#linearGradient6"
       id="linearGradient5"
       x1="16"
       y1="30"
       x2="16"
       y2="2"
       gradientUnits="userSpaceOnUse"
       gradientTransform="scale(2)" />
    <linearGradient
       inkscape:collect="always"
       xlink:href="#linearGradient4"
       id="linearGradient8"
       x1="32.526913"
       y1="9.8994951"
       x2="12.727922"
       y2="-9.8994951"
       gradientUnits="userSpaceOnUse"
       gradientTransform="scale(2.0000001)" />
  </defs>
  <rect
     style="opacity:0.2;fill:#000000;stroke-width:3.5"
     id="rect1"
     width="56"
     height="56"
     x="4"
     y="5"
     ry="12" />
  <rect
     style="fill:url(#linearGradient5);stroke-width:2"
     id="rect2"
     width="56"
     height="56"
     x="4"
     y="4"
     ry="12" />
  <rect
     style="opacity:1;fill:url(#linearGradient8);stroke:none;stroke-width:8;stroke-linecap:square;stroke-linejoin:miter;stroke-dasharray:none;stroke-opacity:1;paint-order:stroke fill markers"
     id="rect3"
     width="32"
     height="32"
     x="29.254833"
     y="-16"
     ry="4"
     transform="rotate(45)" />
  <path
     id="path1"
     style="fill:#ffffff;stroke:none;stroke-width:3;stroke-linecap:round;stroke-linejoin:round;paint-order:stroke fill markers"
     d="m 18,18 c -1.107999,0 -2,0.892002 -2,2 0,1.107998 0.892001,2 2,2 h 1 v 0.5 22.499796 c 0.003,2.73251 3.361538,4.0389 5.210938,2.027344 L 47.195312,21.605468 C 47.684536,21.241548 48,20.65929 48,20 48,18.892002 47.107998,18 46,18 h -8 c -1.107998,0 -2,0.892002 -2,2 0,1.107998 0.892002,2 2,2 h 0.609376 L 25,37.288858 V 22.5 22 h 1 c 1.107998,0 2,-0.892002 2,-2 0,-1.107998 -0.892002,-2 -2,-2 z" />
</svg>
