<?xml version="1.0" encoding="UTF-8" standalone="no"?>
<!-- Created with Inkscape (http://www.inkscape.org/) -->

<svg
   width="64"
   height="64"
   viewBox="0 0 64 64.000004"
   version="1.1"
   id="svg1"
   inkscape:version="1.4.3 (0d15f75042, 2025-12-25)"
   sodipodi:docname="vmware-workstation.svg"
   xmlns:inkscape="http://www.inkscape.org/namespaces/inkscape"
   xmlns:sodipodi="http://sodipodi.sourceforge.net/DTD/sodipodi-0.dtd"
   xmlns:xlink="http://www.w3.org/1999/xlink"
   xmlns="http://www.w3.org/2000/svg"
   xmlns:svg="http://www.w3.org/2000/svg">
  <sodipodi:namedview
     id="namedview1"
     pagecolor="#ffffff"
     bordercolor="#000000"
     borderopacity="0.25"
     inkscape:showpageshadow="2"
     inkscape:pageopacity="0.0"
     inkscape:pagecheckerboard="0"
     inkscape:deskcolor="#d1d1d1"
     inkscape:document-units="px"
     inkscape:zoom="12.46875"
     inkscape:cx="31.9599"
     inkscape:cy="32"
     inkscape:window-width="1854"
     inkscape:window-height="1011"
     inkscape:window-x="0"
     inkscape:window-y="0"
     inkscape:window-maximized="1"
     inkscape:current-layer="svg1" />
  <defs
     id="defs1">
    <linearGradient
       inkscape:collect="always"
       id="linearGradient1606">
      <stop
         style="stop-color:#eaebed;stop-opacity:1;"
         offset="0"
         id="stop1602" />
      <stop
         style="stop-color:#f9fafa;stop-opacity:1;"
         offset="1"
         id="stop1604" />
    </linearGradient>
    <linearGradient
       inkscape:collect="always"
       xlink:href="#linearGradient1606"
       id="linearGradient4"
       x1="16"
       y1="30"
       x2="16"
       y2="2"
       gradientUnits="userSpaceOnUse"
       gradientTransform="scale(2)" />
  </defs>
  <rect
     style="opacity:0.2;fill:#000000;stroke-width:3.5"
     id="rect1"
     width="56"
     height="56"
     x="4"
     y="5"
     ry="12" />
  <rect
     style="fill:url(#linearGradient4);stroke-width:2"
     id="rect2"
     width="56"
     height="56"
     x="4"
     y="4"
     ry="11.999999" />
  <path
     d="M 15.999999,22 C 13.784,22 12,23.783999 12,25.999999 v 22 c 0,2.216 1.784,4 3.999999,4 H 38 c 2.216,0 3.999999,-1.784 3.999999,-4 v -22 C 41.999999,23.783999 40.216,22 38,22 Z M 20,28 h 14 c 1.107999,0 1.999999,0.892 1.999999,1.999999 v 14 c 0,1.108 -0.892,2 -1.999999,2 H 20 c -1.108,0 -2,-0.892 -2,-2 v -14 C 18,28.892 18.892,28 20,28 Z"
     style="fill:#f38b00;fill-opacity:1;stroke-width:7.99999;stroke-linecap:square"
     id="path1718"
     sodipodi:nodetypes="ssssssssssssssssss" />
  <path
     id="path1690"
     style="fill:#0097d3;fill-opacity:1;stroke-width:7.99999;stroke-linecap:square"
     d="M 25.999999,12 C 23.783999,12 22,13.784002 22,15.999999 V 22 h 6 v -2 c 0,-1.107998 0.892,-2 1.999999,-2 h 14 c 1.108,0 2,0.892002 2,2 v 14 c 0,1.107997 -0.892,1.999999 -2,1.999999 h -14 C 28.892,35.999999 28,35.107997 28,34 v -6 h -6 v 10 c 0,2.215998 1.783999,3.999999 3.999999,3.999999 h 22 c 2.216,0 4,-1.784001 4,-3.999999 V 15.999999 c 0,-2.215997 -1.784,-3.999999 -4,-3.999999 z"
     sodipodi:nodetypes="ssccssssssssccsssssss" />
</svg>
