<?xml version="1.0" encoding="UTF-8" standalone="no"?>
<!-- Created with Inkscape (http://www.inkscape.org/) -->

<svg
   width="64"
   height="64"
   viewBox="0 0 64 64.000004"
   version="1.1"
   id="svg1"
   inkscape:version="1.4.2 (ebf0e940d0, 2025-05-08)"
   sodipodi:docname="wine.svg"
   xmlns:inkscape="http://www.inkscape.org/namespaces/inkscape"
   xmlns:sodipodi="http://sodipodi.sourceforge.net/DTD/sodipodi-0.dtd"
   xmlns:xlink="http://www.w3.org/1999/xlink"
   xmlns="http://www.w3.org/2000/svg"
   xmlns:svg="http://www.w3.org/2000/svg">
  <sodipodi:namedview
     id="namedview1"
     pagecolor="#ffffff"
     bordercolor="#000000"
     borderopacity="0.25"
     inkscape:showpageshadow="2"
     inkscape:pageopacity="0.0"
     inkscape:pagecheckerboard="0"
     inkscape:deskcolor="#d1d1d1"
     inkscape:document-units="px"
     inkscape:zoom="12.453125"
     inkscape:cx="32"
     inkscape:cy="32"
     inkscape:window-width="1920"
     inkscape:window-height="1011"
     inkscape:window-x="0"
     inkscape:window-y="0"
     inkscape:window-maximized="1"
     inkscape:current-layer="svg1" />
  <defs
     id="defs1">
    <linearGradient
       inkscape:collect="always"
       id="linearGradient1606">
      <stop
         style="stop-color:#eaebed;stop-opacity:1;"
         offset="0"
         id="stop1602" />
      <stop
         style="stop-color:#f9fafa;stop-opacity:1;"
         offset="1"
         id="stop1604" />
    </linearGradient>
    <linearGradient
       inkscape:collect="always"
       xlink:href="#linearGradient1606"
       id="linearGradient4"
       x1="16"
       y1="30"
       x2="16"
       y2="2"
       gradientUnits="userSpaceOnUse"
       gradientTransform="scale(2)" />
    <linearGradient
       inkscape:collect="always"
       xlink:href="#linearGradient1694"
       id="linearGradient2"
       x1="32"
       y1="38"
       x2="31.998047"
       y2="14"
       gradientUnits="userSpaceOnUse" />
    <linearGradient
       inkscape:collect="always"
       id="linearGradient1694">
      <stop
         style="stop-color:#940e0e;stop-opacity:1;"
         offset="0"
         id="stop1690" />
      <stop
         style="stop-color:#d17979;stop-opacity:1;"
         offset="1"
         id="stop1692" />
    </linearGradient>
    <linearGradient
       id="linearGradient3"
       inkscape:collect="always">
      <stop
         style="stop-color:#98a9ad;stop-opacity:1;"
         offset="0"
         id="stop3" />
      <stop
         style="stop-color:#c4c8cd;stop-opacity:1;"
         offset="1"
         id="stop4" />
    </linearGradient>
    <linearGradient
       inkscape:collect="always"
       xlink:href="#linearGradient3"
       id="linearGradient5"
       x1="32"
       y1="52"
       x2="32"
       y2="12"
       gradientUnits="userSpaceOnUse" />
  </defs>
  <rect
     style="opacity:0.2;fill:#000000;stroke-width:3.5"
     id="rect1"
     width="56"
     height="56"
     x="4"
     y="5"
     ry="12" />
  <rect
     style="fill:url(#linearGradient4);stroke-width:2"
     id="rect2"
     width="56"
     height="56"
     x="4"
     y="4"
     ry="12" />
  <path
     id="path1"
     style="fill:url(#linearGradient5);stroke-width:4"
     d="M 32 12 C 27.247138 12.0043 24.303666 12.882059 22 14 L 22 30 C 22 35.202354 25.933045 39.452477 31 39.951172 L 31 48.03125 C 28.116791 48.193699 26.004791 49.025299 26 50 C 26 51.104569 28.686292 52 32 52 C 35.313708 52 38 51.104569 38 50 C 37.9981 49.024561 35.885389 48.19187 33 48.029297 L 33 39.951172 C 38.066955 39.452477 42 35.202354 42 30 L 42 14 C 39.696334 12.882058 36.752862 12.004326 32 12 z M 31.998047 14 L 32.001953 14 C 35.810761 14.0039 38.0944 14.622271 40 15.404297 L 40 30 C 40 34.431984 36.431984 38 32 38 C 27.568016 38 24 34.431984 24 30 L 24 15.404297 C 25.905605 14.622264 28.189351 14.0039 31.998047 14 z " />
  <path
     d="m 36.5,22 c 1.394448,-0.02376 2.743162,1.146164 3.5,2 v 6 c 0,4.431984 -3.568016,8 -8,8 -4.431984,0 -8,-3.568016 -8,-8 v -6 c 0.352858,0.627856 2.29087,2 4.5,2 2.20913,0 3.843314,-1.372938 4.5,-2 0.535116,-0.511768 2.4482,-2.011304 3.5,-2 z"
     style="fill:url(#linearGradient2);stroke-width:4"
     id="path2" />
</svg>
