<?xml version="1.0" encoding="UTF-8" standalone="no"?>
<!-- Created with Inkscape (http://www.inkscape.org/) -->

<svg
   width="64"
   height="64"
   viewBox="0 0 64 64.000004"
   version="1.1"
   id="svg1"
   inkscape:version="1.4.4 (dcaf3e7d9e, 2026-05-05)"
   sodipodi:docname="winetricks.svg"
   xmlns:inkscape="http://www.inkscape.org/namespaces/inkscape"
   xmlns:sodipodi="http://sodipodi.sourceforge.net/DTD/sodipodi-0.dtd"
   xmlns:xlink="http://www.w3.org/1999/xlink"
   xmlns="http://www.w3.org/2000/svg"
   xmlns:svg="http://www.w3.org/2000/svg">
  <sodipodi:namedview
     id="namedview1"
     pagecolor="#ffffff"
     bordercolor="#000000"
     borderopacity="0.25"
     inkscape:showpageshadow="2"
     inkscape:pageopacity="0.0"
     inkscape:pagecheckerboard="0"
     inkscape:deskcolor="#d1d1d1"
     inkscape:document-units="px"
     inkscape:zoom="9.0625"
     inkscape:cx="31.944828"
     inkscape:cy="32"
     inkscape:window-width="1440"
     inkscape:window-height="831"
     inkscape:window-x="0"
     inkscape:window-y="0"
     inkscape:window-maximized="1"
     inkscape:current-layer="svg1" />
  <defs
     id="defs1">
    <linearGradient
       inkscape:collect="always"
       id="linearGradient1606">
      <stop
         style="stop-color:#eaebed;stop-opacity:1;"
         offset="0"
         id="stop1602" />
      <stop
         style="stop-color:#f9fafa;stop-opacity:1;"
         offset="1"
         id="stop1604" />
    </linearGradient>
    <linearGradient
       inkscape:collect="always"
       xlink:href="#linearGradient1606"
       id="linearGradient4"
       x1="16"
       y1="30"
       x2="16"
       y2="2"
       gradientUnits="userSpaceOnUse"
       gradientTransform="scale(2)" />
    <linearGradient
       inkscape:collect="always"
       xlink:href="#linearGradient1694"
       id="linearGradient2"
       x1="32"
       y1="38"
       x2="31.998047"
       y2="14"
       gradientUnits="userSpaceOnUse" />
    <linearGradient
       inkscape:collect="always"
       id="linearGradient1694">
      <stop
         style="stop-color:#940e0e;stop-opacity:1;"
         offset="0"
         id="stop1690" />
      <stop
         style="stop-color:#d17979;stop-opacity:1;"
         offset="1"
         id="stop1692" />
    </linearGradient>
    <linearGradient
       id="linearGradient3"
       inkscape:collect="always">
      <stop
         style="stop-color:#98a9ad;stop-opacity:1;"
         offset="0"
         id="stop3" />
      <stop
         style="stop-color:#c4c8cd;stop-opacity:1;"
         offset="1"
         id="stop4" />
    </linearGradient>
    <linearGradient
       inkscape:collect="always"
       xlink:href="#linearGradient3"
       id="linearGradient5"
       x1="32"
       y1="52"
       x2="32"
       y2="12"
       gradientUnits="userSpaceOnUse" />
    <linearGradient
       inkscape:collect="always"
       xlink:href="#linearGradient2205"
       id="linearGradient5187"
       x1="-12.832299"
       y1="-13.981112"
       x2="-14.419785"
       y2="-14.014091"
       gradientUnits="userSpaceOnUse" />
    <linearGradient
       inkscape:collect="always"
       xlink:href="#linearGradient950-6"
       id="linearGradient5250"
       x1="12.472872"
       y1="6.6415358"
       x2="14.060357"
       y2="6.6415358"
       gradientUnits="userSpaceOnUse"
       gradientTransform="translate(0.35942789,-1.0853405)" />
    <linearGradient
       inkscape:collect="always"
       id="linearGradient2205">
      <stop
         style="stop-color:#818181;stop-opacity:1"
         offset="0"
         id="stop2201" />
      <stop
         style="stop-color:#404040;stop-opacity:1"
         offset="1"
         id="stop2203" />
    </linearGradient>
    <linearGradient
       inkscape:collect="always"
       id="linearGradient950-6">
      <stop
         style="stop-color:#dddddd;stop-opacity:1;"
         offset="0"
         id="stop946-0" />
      <stop
         style="stop-color:#939393;stop-opacity:1;"
         offset="1"
         id="stop948-6" />
    </linearGradient>
  </defs>
  <rect
     style="opacity:0.2;fill:#000000;stroke-width:3.5"
     id="rect1"
     width="56"
     height="56"
     x="4"
     y="5"
     ry="12" />
  <rect
     style="fill:url(#linearGradient4);stroke-width:2"
     id="rect2"
     width="56"
     height="56"
     x="4"
     y="4"
     ry="12" />
  <path
     id="path1"
     style="fill:url(#linearGradient5);stroke-width:4"
     d="M 32 12 C 27.247138 12.0043 24.303666 12.882059 22 14 L 22 30 C 22 35.202354 25.933045 39.452477 31 39.951172 L 31 48.03125 C 28.116791 48.193699 26.004791 49.025299 26 50 C 26 51.104569 28.686292 52 32 52 C 35.313708 52 38 51.104569 38 50 C 37.9981 49.024561 35.885389 48.19187 33 48.029297 L 33 39.951172 C 38.066955 39.452477 42 35.202354 42 30 L 42 14 C 39.696334 12.882058 36.752862 12.004326 32 12 z M 31.998047 14 L 32.001953 14 C 35.810761 14.0039 38.0944 14.622271 40 15.404297 L 40 30 C 40 34.431984 36.431984 38 32 38 C 27.568016 38 24 34.431984 24 30 L 24 15.404297 C 25.905605 14.622264 28.189351 14.0039 31.998047 14 z " />
  <path
     d="m 36.5,22 c 1.394448,-0.02376 2.743162,1.146164 3.5,2 v 6 c 0,4.431984 -3.568016,8 -8,8 -4.431984,0 -8,-3.568016 -8,-8 v -6 c 0.352858,0.627856 2.29087,2 4.5,2 2.20913,0 3.843314,-1.372938 4.5,-2 0.535116,-0.511768 2.4482,-2.011304 3.5,-2 z"
     style="fill:url(#linearGradient2);stroke-width:4"
     id="path2" />
  <path
     id="rect1693"
     style="opacity:0.7;fill:#fed946;fill-opacity:1;stroke-width:2"
     d="m 28.001708,24 c 0,2.209162 -1.790877,4.00004 -4.000037,4.000038 2.20916,0 4.000037,1.790878 4.000037,4.000038 0,-2.20916 1.790876,-4.000038 4.000036,-4.000038 -2.20916,0 -4.000036,-1.790878 -4.000036,-4.000038 z"
     sodipodi:nodetypes="ccccc" />
  <path
     d="m 35.00167,30 c 0,1.656855 -1.343145,3.000001 -3,3 1.656855,0 3,1.343145 3,2.999998 0,-1.656853 1.343148,-2.999998 3,-2.999998 -1.656852,0 -3,-1.343145 -3,-3 z"
     style="opacity:0.7;fill:#fed946;fill-opacity:1;stroke-width:0.396873"
     id="path4839" />
  <g
     id="g2705"
     transform="matrix(2.6725544,2.6725544,-2.6725544,2.6725544,28.599586,-21.728468)">
    <path
       id="rect4814"
       style="opacity:1;fill:url(#linearGradient5187);stroke-width:1.58749;stroke-linecap:round;stroke-linejoin:round"
       d="m -12.978733,-6.7976533 c 0.09069,-0.088558 0.146893,-0.2039788 0.146893,-0.3456723 v -7.9380404 c 0,-0.293156 -0.23595,-0.529105 -0.529106,-0.529105 h -0.529105 c -0.293155,0 -0.529836,0.23668 -0.529836,0.529836 v 7.9365785 c 0,0.6140056 1.048158,0.7301567 1.441154,0.3464032 z"
       transform="scale(-1)" />
    <path
       id="rect5241"
       style="opacity:1;fill:url(#linearGradient5250);stroke-width:1.58749;stroke-linecap:round;stroke-linejoin:round"
       d="m 13.361461,3.9688034 0.529162,10e-8 c 0.293156,5e-7 0.529162,0.2360065 0.529162,0.5291621 v 2.6456213 l -1.587485,-3e-7 V 4.4979659 c 0,-0.2931562 0.236006,-0.5291623 0.529161,-0.5291625 z"
       sodipodi:nodetypes="sssccss" />
  </g>
  <path
     d="m 36.00167,18 c 0,2.209139 -1.79086,4.000001 -4,3.999999 2.20914,0 4,1.790862 4,4.000001 0,-2.209139 1.79086,-4.000001 4,-4.000001 -2.20914,0 -4,-1.79086 -4,-3.999999 z"
     style="opacity:0.7;fill:#fed946;fill-opacity:1;stroke-width:0.529164"
     id="path5282" />
</svg>
