<?xml version="1.0" encoding="UTF-8" standalone="no"?>
<!-- Created with Inkscape (http://www.inkscape.org/) -->

<svg
   width="64"
   height="64"
   viewBox="0 0 64 64.000004"
   version="1.1"
   id="svg1"
   inkscape:version="1.4.3 (0d15f75042, 2025-12-25)"
   sodipodi:docname="xbox.svg"
   xmlns:inkscape="http://www.inkscape.org/namespaces/inkscape"
   xmlns:sodipodi="http://sodipodi.sourceforge.net/DTD/sodipodi-0.dtd"
   xmlns:xlink="http://www.w3.org/1999/xlink"
   xmlns="http://www.w3.org/2000/svg"
   xmlns:svg="http://www.w3.org/2000/svg">
  <sodipodi:namedview
     id="namedview1"
     pagecolor="#ffffff"
     bordercolor="#000000"
     borderopacity="0.25"
     inkscape:showpageshadow="2"
     inkscape:pageopacity="0.0"
     inkscape:pagecheckerboard="0"
     inkscape:deskcolor="#d1d1d1"
     inkscape:document-units="px"
     inkscape:zoom="12.46875"
     inkscape:cx="31.9599"
     inkscape:cy="32"
     inkscape:window-width="1854"
     inkscape:window-height="1011"
     inkscape:window-x="0"
     inkscape:window-y="0"
     inkscape:window-maximized="1"
     inkscape:current-layer="svg1" />
  <defs
     id="defs1">
    <linearGradient
       inkscape:collect="always"
       xlink:href="#linearGradient1"
       id="linearGradient4"
       x1="16"
       y1="30"
       x2="16"
       y2="2"
       gradientUnits="userSpaceOnUse"
       gradientTransform="scale(2)" />
    <linearGradient
       id="linearGradient1"
       inkscape:collect="always">
      <stop
         style="stop-color:#0f670f;stop-opacity:1;"
         offset="0"
         id="stop1" />
      <stop
         style="stop-color:#42ab16;stop-opacity:1;"
         offset="1"
         id="stop2" />
    </linearGradient>
  </defs>
  <rect
     style="opacity:0.2;fill:#000000;stroke-width:3.5"
     id="rect1"
     width="56"
     height="56"
     x="4"
     y="5"
     ry="12" />
  <rect
     style="fill:url(#linearGradient4);stroke-width:2"
     id="rect2"
     width="56"
     height="56"
     x="4"
     y="4"
     ry="12" />
  <path
     d="m 30.005569,51.917845 c -3.08138,-0.295048 -6.200881,-1.400905 -8.880585,-3.148437 -2.245485,-1.463632 -2.752228,-2.066279 -2.752228,-3.267388 0,-2.412904 2.6546,-6.639787 7.196705,-11.457228 2.57882,-2.736764 6.171596,-5.94282 6.55979,-5.856395 0.755933,0.16868 6.795029,6.056191 9.056321,8.828264 3.575108,4.381611 5.218077,7.970532 4.383112,9.570308 -0.634596,1.215975 -4.573256,3.593104 -7.466352,4.506132 -2.384956,0.752724 -5.517012,1.071472 -8.096763,0.824744 z M 15.339723,42.9934 c -1.866124,-2.861288 -2.808947,-5.677971 -3.263622,-9.751983 -0.150629,-1.345149 -0.09763,-2.114136 0.340774,-4.875989 0.545332,-3.438379 2.505829,-7.420391 4.86289,-9.869072 1.003263,-1.040807 1.092523,-1.068685 2.31615,-0.655151 1.483045,0.501818 3.068365,1.596523 5.527702,3.819387 l 1.436555,1.29822 -0.785688,0.961816 c -3.639267,4.465244 -7.480299,10.798364 -8.926148,14.715325 -0.785688,2.128076 -1.101821,4.265447 -0.762441,5.155243 0.227802,0.601249 0.0186,0.377292 -0.748496,-0.796403 z m 32.75385,0.486484 C 48.278153,42.580331 48.04476,40.92898 47.498499,39.262757 46.315316,35.654788 42.359453,28.942984 38.727163,24.379233 l -1.143666,-1.436685 1.237576,-1.135128 c 1.615075,-1.482219 2.73642,-2.369692 3.947028,-3.123812 0.95445,-0.594745 2.318943,-1.121191 2.90565,-1.121191 0.361229,0 1.634601,1.324242 2.662037,2.764642 1.591829,2.2303 2.762457,4.939182 3.355673,7.754934 0.383546,1.821412 0.415624,5.71514 0.06184,7.531904 -0.292886,1.490584 -0.90656,3.42258 -1.501636,4.733344 -0.450956,0.981799 -1.562077,2.889168 -2.050222,3.509935 -0.251051,0.319212 -0.251051,0.318745 -0.111587,-0.369859 z M 30.335653,16.881248 c -1.676444,-0.850301 -4.262237,-1.763331 -5.690421,-2.009591 -0.500235,-0.08596 -1.354263,-0.134744 -1.896805,-0.106866 -1.178996,0.05948 -1.12646,-0.0019 0.763837,-0.894444 1.571372,-0.74204 2.882403,-1.178342 4.662983,-1.551918 2.001409,-0.420504 5.764804,-0.425149 7.7346,-0.01027 2.126933,0.448382 4.6323,1.379996 6.043745,2.248884 l 0.420275,0.257413 -0.962352,-0.04832 c -1.913543,-0.09657 -4.702035,0.676123 -7.696012,2.131392 -0.902843,0.439555 -1.6876,0.789897 -1.745247,0.780604 -0.05719,-0.0112 -0.793129,-0.369393 -1.636464,-0.796867 z"
     style="fill:#ffffff;stroke-width:2"
     id="path1" />
</svg>
