<?xml version="1.0" encoding="UTF-8" standalone="no"?>
<!-- Created with Inkscape (http://www.inkscape.org/) -->

<svg
   width="48"
   height="48"
   viewBox="0 0 48 48.000003"
   version="1.1"
   id="svg1"
   inkscape:version="1.4.3 (0d15f75042, 2025-12-25)"
   sodipodi:docname="abiword.svg"
   xmlns:inkscape="http://www.inkscape.org/namespaces/inkscape"
   xmlns:sodipodi="http://sodipodi.sourceforge.net/DTD/sodipodi-0.dtd"
   xmlns:xlink="http://www.w3.org/1999/xlink"
   xmlns="http://www.w3.org/2000/svg"
   xmlns:svg="http://www.w3.org/2000/svg">
  <sodipodi:namedview
     id="namedview1"
     pagecolor="#ffffff"
     bordercolor="#000000"
     borderopacity="0.25"
     inkscape:showpageshadow="2"
     inkscape:pageopacity="0.0"
     inkscape:pagecheckerboard="0"
     inkscape:deskcolor="#d1d1d1"
     inkscape:document-units="px"
     inkscape:zoom="16.833333"
     inkscape:cx="24.029703"
     inkscape:cy="23.910892"
     inkscape:window-width="1920"
     inkscape:window-height="1022"
     inkscape:window-x="0"
     inkscape:window-y="0"
     inkscape:window-maximized="1"
     inkscape:current-layer="svg1" />
  <defs
     id="defs1">
    <linearGradient
       inkscape:collect="always"
       xlink:href="#4852"
       id="linearGradient4"
       x1="16"
       y1="30"
       x2="16"
       y2="2"
       gradientUnits="userSpaceOnUse"
       gradientTransform="scale(1.5)" />
    <linearGradient
       inkscape:collect="always"
       id="4852">
      <stop
         style="stop-color:#272727;stop-opacity:1;"
         offset="0"
         id="stop14555" />
      <stop
         style="stop-color:#5d5d5d;stop-opacity:1;"
         offset="1"
         id="stop14557" />
    </linearGradient>
    <linearGradient
       inkscape:collect="always"
       id="linearGradient1677">
      <stop
         style="stop-color:#5792d8;stop-opacity:1;"
         offset="0"
         id="stop1673" />
      <stop
         style="stop-color:#a2d2f9;stop-opacity:1;"
         offset="1"
         id="stop1675" />
    </linearGradient>
    <linearGradient
       inkscape:collect="always"
       xlink:href="#linearGradient1677"
       id="linearGradient2"
       x1="24"
       y1="45"
       x2="24"
       y2="3"
       gradientUnits="userSpaceOnUse" />
  </defs>
  <rect
     style="opacity:0.2;fill:#000000;stroke-width:2.625"
     id="rect1"
     width="42"
     height="42"
     x="3"
     y="4"
     ry="9" />
  <rect
     style="fill:url(#linearGradient4);stroke-width:1.5"
     id="rect2"
     width="42"
     height="42"
     x="3"
     y="3"
     ry="9" />
  <path
     d="m 29.646519,28.367436 c -4.6258,2.3502 -9.3867,4.5558 -14.441,5.7308 -1.6292,-0.0082 -0.82535,-2.188 -0.56221,-3.1757 1.2632,-4.196 3.223,-8.124 5.086,-12.063 0.73783,-1.2446 1.2612,-2.9598 2.7488,-3.4387 1.445,-0.16501 2.3944,1.2712 3.1429,2.3189 3.0605,4.8172 5.9508,9.7605 8.4857,14.89 0.64202,1.337 1.271,2.6806 1.8933,4.0274 -1.8504,-7.7623 -4.3411,-15.462 -8.3563,-22.352 -0.90008,-1.3607 -1.7198,-2.8372 -2.9342,-3.9319 -1.1835,-0.9340602 -2.6392,0.07157 -3.5139,0.97577 -2.7482,2.8326 -4.4221,6.5288 -6.0624,10.098 -1.913,4.2239 -3.1682,8.7262 -4.0896,13.274 -0.32303,1.5316 1.2099,2.6434 2.5722,2.1681 3.7733,-0.80655 7.3194,-2.4984 10.657,-4.4399 1.9233,-1.1607 3.773,-2.4786 5.3731,-4.0811 z"
     style="fill:url(#linearGradient2)"
     id="path3720"
     sodipodi:nodetypes="ccccccccccccccccc" />
</svg>
