<?xml version="1.0" encoding="UTF-8" standalone="no"?>
<!-- Created with Inkscape (http://www.inkscape.org/) -->

<svg
   width="48"
   height="48"
   viewBox="0 0 48 48.000003"
   version="1.1"
   id="svg1"
   inkscape:version="1.4.2 (ebf0e940d0, 2025-05-08)"
   sodipodi:docname="electron.svg"
   xmlns:inkscape="http://www.inkscape.org/namespaces/inkscape"
   xmlns:sodipodi="http://sodipodi.sourceforge.net/DTD/sodipodi-0.dtd"
   xmlns:xlink="http://www.w3.org/1999/xlink"
   xmlns="http://www.w3.org/2000/svg"
   xmlns:svg="http://www.w3.org/2000/svg">
  <sodipodi:namedview
     id="namedview1"
     pagecolor="#ffffff"
     bordercolor="#000000"
     borderopacity="0.25"
     inkscape:showpageshadow="2"
     inkscape:pageopacity="0.0"
     inkscape:pagecheckerboard="0"
     inkscape:deskcolor="#d1d1d1"
     inkscape:document-units="px"
     inkscape:zoom="16.854167"
     inkscape:cx="24.059332"
     inkscape:cy="24.059332"
     inkscape:window-width="1920"
     inkscape:window-height="1011"
     inkscape:window-x="0"
     inkscape:window-y="0"
     inkscape:window-maximized="1"
     inkscape:current-layer="svg1" />
  <defs
     id="defs1">
    <linearGradient
       inkscape:collect="always"
       xlink:href="#4852"
       id="linearGradient4"
       x1="16"
       y1="30"
       x2="16"
       y2="2"
       gradientUnits="userSpaceOnUse"
       gradientTransform="scale(1.5)" />
    <linearGradient
       inkscape:collect="always"
       id="4852">
      <stop
         style="stop-color:#272727;stop-opacity:1;"
         offset="0"
         id="stop14555" />
      <stop
         style="stop-color:#5d5d5d;stop-opacity:1;"
         offset="1"
         id="stop14557" />
    </linearGradient>
  </defs>
  <g
     id="g1">
    <rect
       style="opacity:0.2;fill:#000000;stroke-width:2.625"
       id="rect1"
       width="42"
       height="42"
       x="3"
       y="4"
       ry="9" />
  </g>
  <rect
     style="fill:url(#linearGradient4);stroke-width:1.5"
     id="rect2"
     width="42"
     height="42"
     x="3"
     y="3"
     ry="9" />
  <path
     d="M 23.859375,8.0039062 C 22.839079,8.0518093 21.91326,8.6155436 21.402344,9.5 20.574133,10.934674 21.065527,12.769096 22.5,13.597656 c 0.943665,0.544783 2.108526,0.535063 3.042969,-0.02539 0.393687,0.458458 0.765945,0.978735 1.109375,1.554687 -2.52284,0.848249 -5.122987,2.133996 -7.400391,3.724609 -1.769119,1.235611 -3.245932,2.689181 -4.394531,4.236329 -0.776291,-1.007269 -1.340498,-2.00996 -1.636719,-2.933594 -0.367123,-1.144712 -0.347368,-2.127233 0.107422,-3.039063 0.498751,-0.99997 1.079338,-1.494229 1.691406,-1.77539 0.612069,-0.281162 1.295359,-0.33847 1.96875,-0.267578 C 18.335063,15.214049 19.5,15.867185 19.5,15.867188 19.978865,16.143858 20.59137,15.979357 20.867188,15.5 21.143858,15.021135 20.979357,14.40863 20.5,14.132812 c 0,0 -1.450377,-0.855772 -3.302734,-1.050781 -0.926179,-0.0975 -1.987793,-0.02984 -3.013672,0.441407 -1.025879,0.471249 -1.976515,1.355965 -2.646485,2.699218 -0.713931,1.431394 -0.706834,3.031319 -0.222656,4.541016 0.452871,1.412075 1.300882,2.782347 2.396485,4.089844 -0.596651,1.061549 -1.042913,2.143155 -1.330079,3.210937 C 10.993107,28.357159 9.9999379,29.581715 10,31 c 0,1.656854 1.343146,3 3,3 1.656854,0 3,-1.343146 3,-3 -2.36e-4,-1.110743 -0.614166,-2.130453 -1.595703,-2.650391 0.1916,-0.625861 0.45071,-1.270111 0.775391,-1.917968 2.303547,2.246954 5.268467,4.234266 8.25,5.628906 1.596748,0.746895 3.200967,1.028588 4.75,1.005859 -0.398188,1.317983 -0.933833,2.371533 -1.53125,3.035156 -0.617057,0.685443 -1.225566,0.982271 -2.058594,0.949219 -1.910347,-0.0758 -2.972041,-1.07627 -3.679688,-2.144531 -0.707646,-1.068261 -0.93164,-2.111328 -0.93164,-2.111328 -0.113431,-0.540304 -0.643212,-0.886498 -1.183594,-0.773438 -0.540304,0.113431 -0.886498,0.643212 -0.773438,1.183594 0,0 0.285484,1.392882 1.220704,2.804688 0.93522,1.411805 2.649977,2.935127 5.269531,3.039062 1.431921,0.05681 2.708613,-0.59143 3.625,-1.609375 0.916387,-1.017945 1.545887,-2.37813 2.001953,-3.943359 0.06158,-0.211336 0.120634,-0.425641 0.175781,-0.644532 1.709458,-0.31419 3.304431,-0.932854 4.691406,-1.609374 0.966392,0.859134 2.374534,1.002388 3.494141,0.355468 C 39.934473,30.769096 40.425867,28.934674 39.597656,27.5 39.049463,26.549823 38.026369,25.974613 36.929688,26 36.426935,26.01216 35.935307,26.150518 35.5,26.402344 c -1.078922,0.623121 -1.660397,1.84826 -1.460938,3.078125 -1.018574,0.488575 -2.132273,0.92863 -3.298828,1.21875 0.381859,-2.549263 0.418316,-5.403281 0.177735,-8.191407 -0.191372,-2.217836 -0.665044,-4.292776 -1.386719,-6.115234 0.196522,-0.04457 0.390316,-0.08602 0.582031,-0.123047 1.522403,-0.29404 2.882239,-0.341123 3.859375,-0.15039 0.977136,0.190732 1.493793,0.549899 1.742188,1.068359 0.626786,1.308254 0.146203,2.717354 -0.623047,3.945312 -0.76925,1.227959 -1.736328,2.085938 -1.736328,2.085938 -0.415561,0.364462 -0.456675,0.996913 -0.0918,1.412109 0.364462,0.415561 0.996913,0.456675 1.412109,0.0918 0,0 1.16411,-1.015293 2.111328,-2.527344 0.947219,-1.512049 1.766299,-3.709067 0.730469,-5.871093 -0.582913,-1.216681 -1.804157,-1.902903 -3.162109,-2.167969 -1.357952,-0.265066 -2.928731,-0.178431 -4.621094,0.148438 -0.351988,0.06798 -0.709059,0.147427 -1.070313,0.236328 -0.529586,-0.963993 -1.14104,-1.826904 -1.828124,-2.5625 C 27.304373,10.620352 26.744167,9.1207375 25.5,8.4023438 25.002543,8.1152141 24.433116,7.9769246 23.859375,8.0039062 Z M 24,10 c 0.552285,0 1,0.447715 1,1 0,0.552285 -0.447715,1 -1,1 -0.552285,0 -1,-0.447715 -1,-1 0,-0.552285 0.447715,-1 1,-1 z m 3.560547,6.939453 c 0.695067,1.659267 1.181288,3.608446 1.365234,5.740235 0.249269,2.888804 0.166147,5.870111 -0.271484,8.353515 -1.447317,0.09581 -2.931435,-0.107047 -4.376953,-0.783203 -2.929803,-1.370443 -5.897441,-3.411852 -8.042969,-5.59375 1.041033,-1.507177 2.435479,-2.960081 4.162109,-4.166016 2.182354,-1.524227 4.749937,-2.764971 7.164063,-3.550781 z M 24,21 c -1.646771,0 -3,1.353229 -3,3 0,1.646771 1.353229,3 3,3 1.646771,0 3,-1.353229 3,-3 0,-1.646771 -1.353229,-3 -3,-3 z m 13,7 c 0.552285,0 1,0.447715 1,1 0,0.552285 -0.447715,1 -1,1 -0.552285,0 -1,-0.447715 -1,-1 0,-0.552285 0.447715,-1 1,-1 z m -24,2 c 0.552285,0 1,0.447715 1,1 0,0.552285 -0.447715,1 -1,1 -0.552285,0 -1,-0.447715 -1,-1 0,-0.552285 0.447715,-1 1,-1 z"
     style="baseline-shift:baseline;display:inline;overflow:visible;vector-effect:none;fill:#cff7ff;stroke-linecap:round;enable-background:accumulate;stop-color:#000000"
     id="path1" />
</svg>
