<?xml version="1.0" encoding="UTF-8" standalone="no"?>
<!-- Created with Inkscape (http://www.inkscape.org/) -->

<svg
   width="48"
   height="48"
   viewBox="0 0 48 48.000004"
   version="1.1"
   id="svg1"
   inkscape:version="1.4.2 (ebf0e940d0, 2025-05-08)"
   sodipodi:docname="heroic.svg"
   xmlns:inkscape="http://www.inkscape.org/namespaces/inkscape"
   xmlns:sodipodi="http://sodipodi.sourceforge.net/DTD/sodipodi-0.dtd"
   xmlns:xlink="http://www.w3.org/1999/xlink"
   xmlns="http://www.w3.org/2000/svg"
   xmlns:svg="http://www.w3.org/2000/svg">
  <sodipodi:namedview
     id="namedview1"
     pagecolor="#ffffff"
     bordercolor="#000000"
     borderopacity="0.25"
     inkscape:showpageshadow="2"
     inkscape:pageopacity="0.0"
     inkscape:pagecheckerboard="0"
     inkscape:deskcolor="#d1d1d1"
     inkscape:document-units="px"
     inkscape:zoom="16.854167"
     inkscape:cx="24"
     inkscape:cy="24"
     inkscape:window-width="1920"
     inkscape:window-height="1011"
     inkscape:window-x="0"
     inkscape:window-y="0"
     inkscape:window-maximized="1"
     inkscape:current-layer="svg1" />
  <defs
     id="defs1">
    <linearGradient
       inkscape:collect="always"
       xlink:href="#4852"
       id="linearGradient4"
       x1="16"
       y1="30"
       x2="16"
       y2="2"
       gradientUnits="userSpaceOnUse"
       gradientTransform="scale(1.5)" />
    <linearGradient
       inkscape:collect="always"
       id="4852">
      <stop
         style="stop-color:#5d5d5d;stop-opacity:1;"
         offset="0"
         id="stop14555" />
      <stop
         style="stop-color:#272727;stop-opacity:1;"
         offset="1"
         id="stop14557" />
    </linearGradient>
    <linearGradient
       inkscape:collect="always"
       xlink:href="#linearGradient1"
       id="linearGradient2"
       x1="72"
       y1="78"
       x2="24"
       y2="18"
       gradientUnits="userSpaceOnUse"
       gradientTransform="scale(0.50000002)" />
    <linearGradient
       id="linearGradient1"
       inkscape:collect="always">
      <stop
         style="stop-color:#67def9;stop-opacity:1;"
         offset="0"
         id="stop1" />
      <stop
         style="stop-color:#3bb4f6;stop-opacity:1;"
         offset="1"
         id="stop2" />
    </linearGradient>
  </defs>
  <rect
     style="opacity:0.2;fill:#000000;stroke-width:3.675"
     id="rect1"
     width="42"
     height="42"
     x="3"
     y="4"
     ry="9" />
  <rect
     style="fill:url(#linearGradient4);stroke-width:1.5"
     id="rect2"
     width="42"
     height="42"
     x="3"
     y="3"
     ry="9" />
  <path
     d="M 26.1825,9.53565 C 25.6365,9.31815 24.5445,9 24,9 23.4555,9 22.3635,9.31815 21.8175,9.53565 L 13.09095,12.75 C 12.46485,12.99705 12,13.32645 12,13.82145 c 0,0.53565 0.1254,0.79965 0.27255,1.3392 L 17.4546,33.1065 c 0,0 0.2205,0.6225 0.5454,1.0725 0.2976,0.411 1.09095,1.071 1.09095,1.071 l 3.81855,3.2145 c 0,0 0.684,0.5355 1.0905,0.5355 0.4065,0 1.0905,-0.5355 1.0905,-0.5355 l 3.819,-3.2145 c 0,0 0.7815,-0.669 1.0905,-1.071 0.3225,-0.42 0.546,-1.0725 0.546,-1.0725 L 35.727,15.16065 C 35.8995,14.63025 36,14.3571 36,13.82145 36,13.34775 35.6505,13.01085 34.9095,12.75 Z"
     style="fill:url(#linearGradient2);fill-opacity:1;stroke-width:1.5"
     id="path461" />
  <path
     d="M 24,13 22,16 23.25,28.25 24,29 24.75,28.25 26,16 Z M 20.5,29 20,30 20.5,31 23,30.75 23.5,30 23,29.25 Z m 7,0 L 25,29.25 24.5,30 25,30.75 27.5,31 28,30 Z M 24,31 23.25,31.75 23,34 24,34.5 25,34 24.75,31.75 Z"
     style="fill:#4f4f4f"
     id="path468" />
</svg>
