<?xml version="1.0" encoding="UTF-8" standalone="no"?>
<!-- Created with Inkscape (http://www.inkscape.org/) -->

<svg
   width="48"
   height="48"
   viewBox="0 0 48 48.000003"
   version="1.1"
   id="svg1"
   inkscape:version="1.4.3 (0d15f75042, 2025-12-25)"
   sodipodi:docname="instagram.svg"
   xmlns:inkscape="http://www.inkscape.org/namespaces/inkscape"
   xmlns:sodipodi="http://sodipodi.sourceforge.net/DTD/sodipodi-0.dtd"
   xmlns:xlink="http://www.w3.org/1999/xlink"
   xmlns="http://www.w3.org/2000/svg"
   xmlns:svg="http://www.w3.org/2000/svg">
  <sodipodi:namedview
     id="namedview1"
     pagecolor="#ffffff"
     bordercolor="#000000"
     borderopacity="0.25"
     inkscape:showpageshadow="2"
     inkscape:pageopacity="0.0"
     inkscape:pagecheckerboard="0"
     inkscape:deskcolor="#d1d1d1"
     inkscape:document-units="px"
     inkscape:zoom="16.875"
     inkscape:cx="24"
     inkscape:cy="24"
     inkscape:window-width="1920"
     inkscape:window-height="1012"
     inkscape:window-x="0"
     inkscape:window-y="0"
     inkscape:window-maximized="1"
     inkscape:current-layer="svg1"
     showguides="false" />
  <defs
     id="defs1">
    <linearGradient
       inkscape:collect="always"
       xlink:href="#4852"
       id="linearGradient4"
       x1="2"
       y1="2"
       x2="30"
       y2="30"
       gradientUnits="userSpaceOnUse"
       gradientTransform="scale(1.5)" />
    <linearGradient
       inkscape:collect="always"
       id="4852">
      <stop
         style="stop-color:#272727;stop-opacity:1;"
         offset="0"
         id="stop14555" />
      <stop
         style="stop-color:#5d5d5d;stop-opacity:1;"
         offset="1"
         id="stop14557" />
    </linearGradient>
    <radialGradient
       inkscape:collect="always"
       xlink:href="#linearGradient12"
       id="radialGradient7"
       cx="1.7142857"
       cy="26.513166"
       fx="1.7142857"
       fy="26.513166"
       r="28"
       gradientUnits="userSpaceOnUse"
       gradientTransform="matrix(0,-1.3124999,1.2960317,0,-17.473015,50.25)" />
    <linearGradient
       id="linearGradient12">
      <stop
         id="stop7"
         stop-color="#fd5"
         offset="0"
         style="stop-color:#ffdd57;stop-opacity:1;" />
      <stop
         id="stop8"
         stop-color="#fd5"
         offset=".1" />
      <stop
         id="stop10"
         stop-color="#ff543e"
         offset=".5" />
      <stop
         id="stop12"
         stop-color="#c837ab"
         offset="1" />
    </linearGradient>
    <radialGradient
       inkscape:collect="always"
       xlink:href="#linearGradient5"
       id="radialGradient6"
       cx="-14.757336"
       cy="15.403809"
       fx="-14.757336"
       fy="15.403809"
       r="28"
       gradientUnits="userSpaceOnUse"
       gradientTransform="matrix(0.05833832,0.52848674,-1.743725,0.19248541,29.498703,11.644525)" />
    <linearGradient
       id="linearGradient5">
      <stop
         id="stop1"
         stop-color="#3771c8"
         offset="0"
         style="stop-color:#3771c8;stop-opacity:1;" />
      <stop
         id="stop3"
         offset=".128"
         stop-color="#3771c8" />
      <stop
         id="stop5"
         stop-opacity="0"
         stop-color="#60f"
         offset="1" />
    </linearGradient>
  </defs>
  <rect
     style="opacity:0.2;fill:#000000;stroke-width:2.625"
     id="rect1"
     width="42"
     height="42"
     x="3"
     y="4"
     ry="9" />
  <rect
     style="fill:url(#linearGradient4);stroke-width:1.5"
     id="rect2"
     width="42"
     height="42"
     x="3"
     y="3"
     ry="9" />
  <path
     id="path1"
     style="fill:url(#radialGradient7);stroke-width:1.5"
     d="M 17.5,9 C 12.816946,9 9,12.816946 9,17.5 v 13 c 0,4.683054 3.816946,8.5 8.5,8.5 h 13 c 4.683054,0 8.5,-3.816946 8.5,-8.5 v -13 C 39,12.816946 35.183054,9 30.5,9 Z m 0,3 h 13 c 3.072946,0 5.5,2.427054 5.5,5.5 v 13 c 0,3.072946 -2.427054,5.5 -5.5,5.5 h -13 C 14.427054,36 12,33.572946 12,30.5 v -13 C 12,14.427054 14.427054,12 17.5,12 Z M 32,14 c -1.104569,0 -2,0.895431 -2,2 0,1.104569 0.895431,2 2,2 1.104569,0 2,-0.895431 2,-2 0,-1.104569 -0.895431,-2 -2,-2 z m -8,2 c -4.400511,0 -8,3.599489 -8,8 0,4.400511 3.599489,8 8,8 4.400511,0 8,-3.599489 8,-8 0,-4.400511 -3.599489,-8 -8,-8 z m 0,3 c 2.779191,0 5,2.220809 5,5 0,2.779191 -2.220809,5 -5,5 -2.779191,0 -5,-2.220809 -5,-5 0,-2.779191 2.220809,-5 5,-5 z" />
  <path
     id="path2"
     style="fill:url(#radialGradient6);stroke-width:0.75"
     d="M 17.5,9 C 12.816946,9 9,12.816946 9,17.5 v 13 c 0,4.683054 3.816946,8.5 8.5,8.5 h 13 c 4.683054,0 8.5,-3.816946 8.5,-8.5 v -13 C 39,12.816946 35.183054,9 30.5,9 Z m 0,3 h 13 c 3.072946,0 5.5,2.427054 5.5,5.5 v 13 c 0,3.072946 -2.427054,5.5 -5.5,5.5 h -13 C 14.427054,36 12,33.572946 12,30.5 v -13 C 12,14.427054 14.427054,12 17.5,12 Z M 32,14 c -1.104569,0 -2,0.895431 -2,2 0,1.104569 0.895431,2 2,2 1.104569,0 2,-0.895431 2,-2 0,-1.104569 -0.895431,-2 -2,-2 z m -8,2 c -4.400511,0 -8,3.599489 -8,8 0,4.400511 3.599489,8 8,8 4.400511,0 8,-3.599489 8,-8 0,-4.400511 -3.599489,-8 -8,-8 z m 0,3 c 2.779191,0 5,2.220809 5,5 0,2.779191 -2.220809,5 -5,5 -2.779191,0 -5,-2.220809 -5,-5 0,-2.779191 2.220809,-5 5,-5 z" />
</svg>
