<?xml version="1.0" encoding="UTF-8" standalone="no"?>
<!-- Created with Inkscape (http://www.inkscape.org/) -->

<svg
   width="48"
   height="48"
   viewBox="0 0 48 48.000004"
   version="1.1"
   id="svg1"
   inkscape:version="1.4.2 (ebf0e940d0, 2025-05-08)"
   sodipodi:docname="kmenuedit.svg"
   xmlns:inkscape="http://www.inkscape.org/namespaces/inkscape"
   xmlns:sodipodi="http://sodipodi.sourceforge.net/DTD/sodipodi-0.dtd"
   xmlns:xlink="http://www.w3.org/1999/xlink"
   xmlns="http://www.w3.org/2000/svg"
   xmlns:svg="http://www.w3.org/2000/svg">
  <sodipodi:namedview
     id="namedview1"
     pagecolor="#ffffff"
     bordercolor="#000000"
     borderopacity="0.25"
     inkscape:showpageshadow="2"
     inkscape:pageopacity="0.0"
     inkscape:pagecheckerboard="0"
     inkscape:deskcolor="#d1d1d1"
     inkscape:document-units="px"
     inkscape:zoom="16.854167"
     inkscape:cx="24"
     inkscape:cy="24"
     inkscape:window-width="1920"
     inkscape:window-height="1011"
     inkscape:window-x="0"
     inkscape:window-y="0"
     inkscape:window-maximized="1"
     inkscape:current-layer="svg1" />
  <defs
     id="defs1">
    <linearGradient
       inkscape:collect="always"
       xlink:href="#4852"
       id="linearGradient4"
       x1="16"
       y1="30"
       x2="16"
       y2="2"
       gradientUnits="userSpaceOnUse"
       gradientTransform="scale(1.5)" />
    <linearGradient
       inkscape:collect="always"
       id="4852">
      <stop
         style="stop-color:#272727;stop-opacity:1;"
         offset="0"
         id="stop14555" />
      <stop
         style="stop-color:#5d5d5d;stop-opacity:1;"
         offset="1"
         id="stop14557" />
    </linearGradient>
  </defs>
  <rect
     style="opacity:0.2;fill:#000000;stroke-width:3.675"
     id="rect1"
     width="42"
     height="42"
     x="3"
     y="4"
     ry="9" />
  <rect
     style="fill:url(#linearGradient4);stroke-width:1.5"
     id="rect2"
     width="42"
     height="42"
     x="3"
     y="3"
     ry="9" />
  <path
     id="rect376"
     style="opacity:0.5;fill:#ffffff;fill-opacity:1;stroke-width:4;stroke-linecap:round;stroke-linejoin:round"
     d="M 11 11 C 10.447715 11 10 11.447715 10 12 C 10 12.552285 10.447715 13 11 13 C 11.552285 13 12 12.552285 12 12 C 12 11.447715 11.552285 11 11 11 z M 17 11 C 16.446002 11 16 11.446002 16 12 C 16 12.553998 16.446002 13 17 13 L 37 13 C 37.553998 13 38 12.553998 38 12 C 38 11.446002 37.553998 11 37 11 L 17 11 z M 11 35 C 10.447715 35 10 35.447715 10 36 C 10 36.552285 10.447715 37 11 37 C 11.552285 37 12 36.552285 12 36 C 12 35.447715 11.552285 35 11 35 z M 17 35 C 16.446002 35 16 35.446003 16 36 C 16 36.553999 16.446002 37 17 37 L 37 37 C 37.553998 37 38 36.553999 38 36 C 38 35.446003 37.553998 35 37 35 L 17 35 z " />
  <rect
     style="opacity:0.8;fill:#39aceb;fill-opacity:1;stroke-width:2.56174"
     id="rect2-0"
     width="42"
     height="12"
     x="3"
     y="18"
     ry="2" />
  <path
     d="m 11,23 c -0.552284,0 -1,0.447716 -1,1 0,0.552284 0.447716,1 1,1 0.552284,0 1,-0.447716 1,-1 0,-0.552284 -0.447716,-1 -1,-1 z m 6,0 c -0.553997,0 -1,0.446003 -1,1 0,0.553997 0.446003,1 1,1 h 20 c 0.553997,0 1,-0.446003 1,-1 0,-0.553997 -0.446003,-1 -1,-1 z"
     style="fill:#ffffff;fill-opacity:1;stroke-width:4;stroke-linecap:round;stroke-linejoin:round"
     id="path1" />
</svg>
