<?xml version="1.0" encoding="UTF-8" standalone="no"?>
<!-- Created with Inkscape (http://www.inkscape.org/) -->

<svg
   width="48"
   height="48"
   viewBox="0 0 48 48.000004"
   version="1.1"
   id="svg1"
   inkscape:version="1.4.3 (0d15f75042, 2025-12-25)"
   sodipodi:docname="pulseeffects.svg"
   xmlns:inkscape="http://www.inkscape.org/namespaces/inkscape"
   xmlns:sodipodi="http://sodipodi.sourceforge.net/DTD/sodipodi-0.dtd"
   xmlns:xlink="http://www.w3.org/1999/xlink"
   xmlns="http://www.w3.org/2000/svg"
   xmlns:svg="http://www.w3.org/2000/svg">
  <sodipodi:namedview
     id="namedview1"
     pagecolor="#ffffff"
     bordercolor="#000000"
     borderopacity="0.25"
     inkscape:showpageshadow="2"
     inkscape:pageopacity="0.0"
     inkscape:pagecheckerboard="0"
     inkscape:deskcolor="#d1d1d1"
     inkscape:document-units="px"
     inkscape:zoom="16.833333"
     inkscape:cx="24"
     inkscape:cy="24"
     inkscape:window-width="1920"
     inkscape:window-height="1012"
     inkscape:window-x="0"
     inkscape:window-y="0"
     inkscape:window-maximized="1"
     inkscape:current-layer="svg1" />
  <defs
     id="defs1">
    <linearGradient
       inkscape:collect="always"
       xlink:href="#4852"
       id="linearGradient4"
       x1="16"
       y1="30"
       x2="16"
       y2="2"
       gradientUnits="userSpaceOnUse"
       gradientTransform="scale(1.5)" />
    <linearGradient
       inkscape:collect="always"
       id="4852">
      <stop
         style="stop-color:#272727;stop-opacity:1;"
         offset="0"
         id="stop14555" />
      <stop
         style="stop-color:#5d5d5d;stop-opacity:1;"
         offset="1"
         id="stop14557" />
    </linearGradient>
  </defs>
  <rect
     style="opacity:0.2;fill:#000000;stroke-width:3.675"
     id="rect1"
     width="42"
     height="42"
     x="3"
     y="4"
     ry="9" />
  <rect
     style="fill:url(#linearGradient4);stroke-width:1.5"
     id="rect2"
     width="42"
     height="42"
     x="3"
     y="3"
     ry="9" />
  <rect
     style="opacity:0.4;fill:#f9f9f9;stroke-width:2"
     id="rect3"
     width="4"
     height="28"
     x="10"
     y="10"
     ry="2" />
  <rect
     style="opacity:0.4;fill:#f9f9f9;stroke-width:2"
     id="rect4"
     width="4"
     height="28"
     x="22"
     y="10"
     ry="2" />
  <rect
     style="opacity:0.4;fill:#f9f9f9"
     id="rect5"
     width="4"
     height="28"
     x="34"
     y="10"
     ry="2" />
  <rect
     style="fill:#bef3ff;fill-opacity:1;stroke-width:2"
     id="rect5-6"
     width="4"
     height="18"
     x="10"
     y="20"
     ry="2" />
  <rect
     style="fill:#bef3ff;fill-opacity:1;stroke-width:2"
     id="rect6"
     width="4"
     height="12"
     x="22"
     y="26"
     ry="2" />
  <rect
     style="fill:#bef3ff;fill-opacity:1;stroke-width:2"
     id="rect7"
     width="4"
     height="15"
     x="34"
     y="23"
     ry="2" />
  <path
     id="path1"
     style="opacity:0.15;fill:#000000;stroke-width:1.66668"
     d="m 12,16 c -2.761423,0 -5,2.238578 -5,5 0,2.761422 2.238577,5 5,5 2.761422,0 5,-2.238578 5,-5 0,-2.761422 -2.238578,-5 -5,-5 z m 24,4 c -2.761423,0 -5,2.238578 -5,5 0,2.761422 2.238577,5 5,5 2.761422,0 5,-2.238578 5,-5 0,-2.761422 -2.238578,-5 -5,-5 z m -12,4 c -2.761423,0 -5,2.238578 -5,5 0,2.761422 2.238577,5 5,5 2.761422,0 5,-2.238578 5,-5 0,-2.761422 -2.238578,-5 -5,-5 z" />
  <path
     id="path2"
     style="fill:#f9f9f9;fill-opacity:1;stroke-width:8;stroke-linecap:round;stroke-linejoin:round"
     d="m 12,17 c -2.209137,0 -4,1.79086 -4,4 0,2.209139 1.790863,4 4,4 2.209139,0 4,-1.790861 4,-4 0,-2.20914 -1.790861,-4 -4,-4 z m 24,4 c -2.209137,0 -4,1.79086 -4,4 0,2.209139 1.790863,4 4,4 2.209139,0 4,-1.790861 4,-4 0,-2.20914 -1.790861,-4 -4,-4 z m -12,4 c -2.209137,0 -4,1.79086 -4,4 0,2.209139 1.790863,4 4,4 2.209139,0 4,-1.790861 4,-4 0,-2.20914 -1.790861,-4 -4,-4 z" />
</svg>
