<?xml version="1.0" encoding="UTF-8" standalone="no"?>
<!-- Created with Inkscape (http://www.inkscape.org/) -->

<svg
   width="48"
   height="48"
   viewBox="0 0 48 48.000003"
   version="1.1"
   id="svg1"
   inkscape:version="1.4.2 (ebf0e940d0, 2025-05-08)"
   sodipodi:docname="slack.svg"
   xmlns:inkscape="http://www.inkscape.org/namespaces/inkscape"
   xmlns:sodipodi="http://sodipodi.sourceforge.net/DTD/sodipodi-0.dtd"
   xmlns:xlink="http://www.w3.org/1999/xlink"
   xmlns="http://www.w3.org/2000/svg"
   xmlns:svg="http://www.w3.org/2000/svg">
  <sodipodi:namedview
     id="namedview1"
     pagecolor="#ffffff"
     bordercolor="#000000"
     borderopacity="0.25"
     inkscape:showpageshadow="2"
     inkscape:pageopacity="0.0"
     inkscape:pagecheckerboard="0"
     inkscape:deskcolor="#d1d1d1"
     inkscape:document-units="px"
     inkscape:zoom="16.854167"
     inkscape:cx="24"
     inkscape:cy="24"
     inkscape:window-width="1920"
     inkscape:window-height="1011"
     inkscape:window-x="0"
     inkscape:window-y="0"
     inkscape:window-maximized="1"
     inkscape:current-layer="svg1" />
  <defs
     id="defs1">
    <linearGradient
       inkscape:collect="always"
       xlink:href="#4852"
       id="linearGradient4"
       x1="16"
       y1="30"
       x2="16"
       y2="2"
       gradientUnits="userSpaceOnUse"
       gradientTransform="scale(1.5)" />
    <linearGradient
       inkscape:collect="always"
       id="4852">
      <stop
         style="stop-color:#272727;stop-opacity:1;"
         offset="0"
         id="stop14555" />
      <stop
         style="stop-color:#5d5d5d;stop-opacity:1;"
         offset="1"
         id="stop14557" />
    </linearGradient>
  </defs>
  <rect
     style="opacity:0.2;fill:#000000;stroke-width:2.625"
     id="rect1"
     width="42"
     height="42"
     x="3"
     y="4"
     ry="9" />
  <rect
     style="fill:url(#linearGradient4);stroke-width:1.5"
     id="rect2"
     width="42"
     height="42"
     x="3"
     y="3"
     ry="9" />
  <path
     style="fill:#2eb67d"
     d="m 28,9 a 3,3 0 0 0 -3,3 v 8 a 3,3 0 0 0 3,3 3,3 0 0 0 3,-3 V 12 A 3,3 0 0 0 28,9 Z m 8,8 a 3,3 0 0 1 3,3 3,3 0 0 1 -3,3 h -3 v -3 a 3,3 0 0 1 3,-3 z"
     id="path4" />
  <path
     style="fill:#e01e5a"
     d="m 20,25 a 3,3 0 0 0 -3,3 v 8 a 3,3 0 0 0 3,3 3,3 0 0 0 3,-3 v -8 a 3,3 0 0 0 -3,-3 z m -8,6 a 3,3 0 0 1 -3,-3 3,3 0 0 1 3,-3 h 3 v 3 a 3,3 0 0 1 -3,3 z"
     id="path5" />
  <path
     style="fill:#ecb22e"
     d="m 39,28 a 3,3 0 0 0 -3,-3 h -8 a 3,3 0 0 0 -3,3 3,3 0 0 0 3,3 h 8 a 3,3 0 0 0 3,-3 z M 28,39 a 3,3 0 0 0 3,-3 3,3 0 0 0 -3,-3 h -3 v 3 a 3,3 0 0 0 3,3 z"
     id="path6" />
  <path
     style="fill:#36c5f0"
     d="m 23,20 a 3,3 0 0 0 -3,-3 h -8 a 3,3 0 0 0 -3,3 3,3 0 0 0 3,3 h 8 a 3,3 0 0 0 3,-3 z M 20,9 a 3,3 0 0 0 -3,3 3,3 0 0 0 3,3 h 3 V 12 A 3,3 0 0 0 20,9 Z"
     id="path7" />
</svg>
