<?xml version="1.0" encoding="UTF-8" standalone="no"?>
<!-- Created with Inkscape (http://www.inkscape.org/) -->

<svg
   width="48"
   height="48"
   viewBox="0 0 48 48.000003"
   version="1.1"
   id="svg1"
   inkscape:version="1.4.3 (0d15f75042, 2025-12-25)"
   sodipodi:docname="vmware-workstation.svg"
   xmlns:inkscape="http://www.inkscape.org/namespaces/inkscape"
   xmlns:sodipodi="http://sodipodi.sourceforge.net/DTD/sodipodi-0.dtd"
   xmlns:xlink="http://www.w3.org/1999/xlink"
   xmlns="http://www.w3.org/2000/svg"
   xmlns:svg="http://www.w3.org/2000/svg">
  <sodipodi:namedview
     id="namedview1"
     pagecolor="#ffffff"
     bordercolor="#000000"
     borderopacity="0.25"
     inkscape:showpageshadow="2"
     inkscape:pageopacity="0.0"
     inkscape:pagecheckerboard="0"
     inkscape:deskcolor="#d1d1d1"
     inkscape:document-units="px"
     inkscape:zoom="16.833333"
     inkscape:cx="24.029703"
     inkscape:cy="23.940595"
     inkscape:window-width="1854"
     inkscape:window-height="1011"
     inkscape:window-x="0"
     inkscape:window-y="0"
     inkscape:window-maximized="1"
     inkscape:current-layer="svg1" />
  <defs
     id="defs1">
    <linearGradient
       inkscape:collect="always"
       xlink:href="#4852"
       id="linearGradient4"
       x1="16"
       y1="30"
       x2="16"
       y2="2"
       gradientUnits="userSpaceOnUse"
       gradientTransform="scale(1.5)" />
    <linearGradient
       inkscape:collect="always"
       id="4852">
      <stop
         style="stop-color:#272727;stop-opacity:1;"
         offset="0"
         id="stop14555" />
      <stop
         style="stop-color:#5d5d5d;stop-opacity:1;"
         offset="1"
         id="stop14557" />
    </linearGradient>
  </defs>
  <rect
     style="opacity:0.2;fill:#000000;stroke-width:2.625"
     id="rect1"
     width="42"
     height="42"
     x="3"
     y="4"
     ry="9" />
  <rect
     style="fill:url(#linearGradient4);stroke-width:1.5"
     id="rect2"
     width="42"
     height="42"
     x="3"
     y="3"
     ry="9" />
  <path
     id="path3129"
     style="fill:#f38b00;fill-opacity:1;stroke-width:4;stroke-linecap:square"
     d="m 12,18 c -1.656858,0 -3,1.343142 -3,3 v 15 c 0,1.656858 1.343142,3 3,3 h 15 c 1.656858,0 3,-1.343142 3,-3 V 21 c 0,-1.656858 -1.343142,-3 -3,-3 z m 3,4 h 9 c 1.107999,0 2,0.892001 2,2 v 9 c 0,1.107999 -0.892001,2 -2,2 h -9 c -1.107999,0 -2,-0.892001 -2,-2 v -9 c 0,-1.107999 0.892001,-2 2,-2 z" />
  <path
     id="path2501"
     style="fill:#0097d3;fill-opacity:1;stroke-width:4;stroke-linecap:square"
     d="m 21,9 c -1.656856,0 -3,1.343144 -3,3 v 6 h 4 v -3 c 0,-1.107998 0.892002,-2 2,-2 h 9 c 1.107998,0 2,0.892002 2,2 v 9 c 0,1.107998 -0.892002,2 -2,2 h -9 c -1.107998,0 -2,-0.892002 -2,-2 v -2 h -4 v 5 c 0,1.656856 1.343144,3 3,3 h 15 c 1.656856,0 3,-1.343144 3,-3 V 12 C 39,10.343144 37.656856,9 36,9 Z" />
</svg>
