<?xml version="1.0" encoding="UTF-8" standalone="no"?>
<!-- Created with Inkscape (http://www.inkscape.org/) -->

<svg
   width="48"
   height="48"
   viewBox="0 0 48 48.000004"
   version="1.1"
   id="svg1"
   inkscape:version="1.4.3 (0d15f75042, 2025-12-25)"
   sodipodi:docname="xbox.svg"
   xmlns:inkscape="http://www.inkscape.org/namespaces/inkscape"
   xmlns:sodipodi="http://sodipodi.sourceforge.net/DTD/sodipodi-0.dtd"
   xmlns:xlink="http://www.w3.org/1999/xlink"
   xmlns="http://www.w3.org/2000/svg"
   xmlns:svg="http://www.w3.org/2000/svg">
  <sodipodi:namedview
     id="namedview1"
     pagecolor="#ffffff"
     bordercolor="#000000"
     borderopacity="0.25"
     inkscape:showpageshadow="2"
     inkscape:pageopacity="0.0"
     inkscape:pagecheckerboard="0"
     inkscape:deskcolor="#d1d1d1"
     inkscape:document-units="px"
     inkscape:zoom="16.625"
     inkscape:cx="23.969925"
     inkscape:cy="24"
     inkscape:window-width="1854"
     inkscape:window-height="1011"
     inkscape:window-x="0"
     inkscape:window-y="0"
     inkscape:window-maximized="1"
     inkscape:current-layer="svg1" />
  <defs
     id="defs1">
    <linearGradient
       inkscape:collect="always"
       xlink:href="#4852"
       id="linearGradient4"
       x1="16"
       y1="30"
       x2="16"
       y2="2"
       gradientUnits="userSpaceOnUse"
       gradientTransform="scale(1.5)" />
    <linearGradient
       inkscape:collect="always"
       id="4852">
      <stop
         style="stop-color:#272727;stop-opacity:1;"
         offset="0"
         id="stop14555" />
      <stop
         style="stop-color:#5d5d5d;stop-opacity:1;"
         offset="1"
         id="stop14557" />
    </linearGradient>
    <linearGradient
       id="linearGradient1"
       inkscape:collect="always">
      <stop
         style="stop-color:#0f670f;stop-opacity:1;"
         offset="0"
         id="stop1" />
      <stop
         style="stop-color:#42ab16;stop-opacity:1;"
         offset="1"
         id="stop2" />
    </linearGradient>
    <linearGradient
       inkscape:collect="always"
       xlink:href="#linearGradient1"
       id="linearGradient5"
       x1="16"
       y1="30"
       x2="16"
       y2="2"
       gradientUnits="userSpaceOnUse"
       gradientTransform="scale(1.5)" />
  </defs>
  <rect
     style="opacity:0.2;fill:#000000;stroke-width:2.625"
     id="rect1"
     width="42"
     height="42"
     x="3"
     y="4"
     ry="9" />
  <rect
     style="fill:url(#linearGradient4);stroke-width:1.5"
     id="rect2"
     width="42"
     height="42"
     x="3"
     y="3"
     ry="9" />
  <path
     d="m 22.504177,38.938384 c -2.311035,-0.221284 -4.650661,-1.050679 -6.660439,-2.361326 -1.684114,-1.097727 -2.064172,-1.54971 -2.064172,-2.450543 0,-1.809679 1.990951,-4.979839 5.397531,-8.592921 1.934115,-2.052573 4.628696,-4.457115 4.91984,-4.392296 0.566952,0.12651 5.096273,4.542143 6.792242,6.621199 2.681331,3.286207 3.913558,5.977899 3.287335,7.17773 -0.475948,0.911982 -3.429943,2.694829 -5.599765,3.379598 -1.788718,0.564544 -4.137759,0.803606 -6.072572,0.618559 z M 11.504792,32.24505 c -1.399593,-2.145966 -2.106711,-4.258478 -2.447716,-7.313987 -0.112972,-1.008862 -0.07322,-1.585601 0.25558,-3.656992 0.408999,-2.578784 1.879372,-5.565293 3.647168,-7.401803 0.752447,-0.780606 0.819392,-0.801515 1.737112,-0.491364 1.112284,0.376363 2.301274,1.197392 4.145777,2.86454 l 1.077416,0.973665 -0.589265,0.721362 c -2.729451,3.348933 -5.610225,8.098773 -6.694613,11.036495 -0.589265,1.596056 -0.826366,3.199084 -0.571831,3.86643 0.170853,0.450938 0.01395,0.28297 -0.561372,-0.5973 z m 24.565389,0.364864 c 0.138435,-0.674666 -0.03661,-1.913179 -0.446306,-3.162846 -0.887389,-2.705977 -3.854284,-7.739829 -6.578503,-11.162642 l -0.857749,-1.077515 0.928183,-0.851346 c 1.211305,-1.111664 2.052315,-1.777269 2.960271,-2.342859 0.715835,-0.446059 1.739207,-0.840893 2.179236,-0.840893 0.270922,0 1.225949,0.993181 1.996529,2.073481 1.193873,1.672725 2.071842,3.704388 2.516753,5.816202 0.287659,1.366058 0.311719,4.286355 0.04638,5.648927 -0.219664,1.117939 -0.67992,2.566935 -1.126226,3.550009 -0.338217,0.736348 -1.171557,2.166875 -1.537669,2.632449 -0.188288,0.23941 -0.188288,0.239061 -0.08369,-0.277393 z M 22.751741,12.660936 c -1.257334,-0.637726 -3.19668,-1.322498 -4.267817,-1.507193 -0.375176,-0.06447 -1.015697,-0.101058 -1.422605,-0.08015 -0.884247,0.0446 -0.844845,-0.0014 0.572879,-0.670833 1.178528,-0.55653 2.161801,-0.883755 3.497236,-1.163937 1.501057,-0.315379 4.323604,-0.318863 5.80095,-0.0077 1.595201,0.336286 3.474225,1.034997 4.53281,1.686663 l 0.315205,0.19306 -0.721763,-0.03625 c -1.435157,-0.07243 -3.526526,0.507091 -5.772009,1.598544 -0.677132,0.329666 -1.2657,0.592423 -1.308936,0.585454 -0.04288,-0.0084 -0.594847,-0.277045 -1.227347,-0.597651 z"
     style="fill:url(#linearGradient5);stroke-width:1.5"
     id="path1" />
</svg>
