<?xml version="1.0" encoding="UTF-8" standalone="no"?>
<!-- Created with Inkscape (http://www.inkscape.org/) -->

<svg
   width="22"
   height="22"
   viewBox="0 0 22 22.000002"
   version="1.1"
   id="svg1"
   inkscape:version="1.4.3 (0d15f75042, 2025-12-25)"
   sodipodi:docname="chrome-store.svg"
   xmlns:inkscape="http://www.inkscape.org/namespaces/inkscape"
   xmlns:sodipodi="http://sodipodi.sourceforge.net/DTD/sodipodi-0.dtd"
   xmlns:xlink="http://www.w3.org/1999/xlink"
   xmlns="http://www.w3.org/2000/svg"
   xmlns:svg="http://www.w3.org/2000/svg">
  <sodipodi:namedview
     id="namedview1"
     pagecolor="#ffffff"
     bordercolor="#000000"
     borderopacity="0.25"
     inkscape:showpageshadow="2"
     inkscape:pageopacity="0.0"
     inkscape:pagecheckerboard="0"
     inkscape:deskcolor="#d1d1d1"
     inkscape:document-units="px"
     inkscape:zoom="36.272727"
     inkscape:cx="10.986216"
     inkscape:cy="11"
     inkscape:window-width="1854"
     inkscape:window-height="1011"
     inkscape:window-x="0"
     inkscape:window-y="0"
     inkscape:window-maximized="1"
     inkscape:current-layer="svg1" />
  <defs
     id="defs1">
    <linearGradient
       inkscape:collect="always"
       xlink:href="#linearGradient12495"
       id="linearGradient12497"
       x1="3.7041574"
       y1="5.15939"
       x2="8.9958239"
       y2="5.15939"
       gradientUnits="userSpaceOnUse" />
    <linearGradient
       inkscape:collect="always"
       id="linearGradient12495">
      <stop
         style="stop-color:#db3328;stop-opacity:1;"
         offset="0"
         id="stop12491" />
      <stop
         style="stop-color:#e53d30;stop-opacity:1"
         offset="1"
         id="stop12493" />
    </linearGradient>
    <linearGradient
       inkscape:collect="always"
       xlink:href="#linearGradient13171"
       id="linearGradient13173"
       x1="4.4023013"
       y1="4.2994838"
       x2="5.9898009"
       y2="7.474484"
       gradientUnits="userSpaceOnUse" />
    <linearGradient
       inkscape:collect="always"
       id="linearGradient13171">
      <stop
         style="stop-color:#32a651;stop-opacity:1;"
         offset="0"
         id="stop13167" />
      <stop
         style="stop-color:#279847;stop-opacity:1"
         offset="1"
         id="stop13169" />
    </linearGradient>
  </defs>
  <rect
     style="opacity:0.2;fill:#000000;stroke-width:1.75"
     id="rect1"
     width="20"
     height="20"
     x="1"
     y="1.5"
     ry="4" />
  <rect
     style="fill:#eeeeee;stroke-width:0.714286;fill-opacity:1"
     id="rect2"
     width="20"
     height="20"
     x="1"
     y="1"
     ry="4" />
  <path
     id="rect3"
     style="fill:#000000;fill-opacity:1;opacity:0.05"
     d="M 5 1 C 2.784 1 1 2.784 1 5 L 1 11 L 21 11 L 21 5 C 21 2.784 19.216 1 17 1 L 5 1 z " />
  <rect
     style="opacity:1;fill:#fafafa;fill-opacity:1"
     id="rect4"
     width="6"
     height="2"
     x="8"
     y="3"
     ry="1" />
  <g
     id="g13900"
     transform="matrix(1.7786011,0,0,1.7786011,-0.2941835,6.705831)">
    <path
       d="m 6.3499908,1.8520833 c -1.6648002,0 -3.1172325,0.9051142 -3.8949803,2.2495046 L 2.6017322,6.7248018 4.4023011,7.4744838 6.3499908,6.3500302 V 4.1010567 H 10.244704 C 9.4668234,2.7569983 8.014591,1.8520833 6.3499908,1.8520833 Z"
       style="fill:url(#linearGradient12497);fill-opacity:1;stroke-width:0.0175699"
       id="path1309" />
    <path
       id="path1449"
       style="fill:url(#linearGradient13173);fill-opacity:1;stroke-width:0.0175699"
       d="M 2.4549907 4.1010708 C 2.0722462 4.7626873 1.8521205 5.5306449 1.8521205 6.3500292 C 1.8521205 6.8822205 1.9448984 7.3927004 2.1145722 7.8665388 C 2.3799034 7.9761806 2.670751 8.0367481 2.9765997 8.0367481 L 8.3036004 8.0367481 L 8.2981098 7.4745085 L 6.3500374 6.3500292 L 4.401965 7.4745085 L 2.4549907 4.1010708 z " />
    <path
       id="path1829"
       style="fill:#fbbf12;stroke-width:0.0175699"
       d="M 6.3500374 4.1010708 L 6.3500374 6.3500292 L 8.2981098 7.4745085 L 7.973065 8.0367481 L 9.7234751 8.0367481 C 10.029299 8.0367481 10.320189 7.9761637 10.585503 7.8665388 C 10.755187 7.3926929 10.847954 6.8822304 10.847954 6.3500292 C 10.847954 5.5305122 10.628043 4.7628731 10.245084 4.1010708 L 6.3500374 4.1010708 z " />
    <path
       id="path2229"
       style="fill:#ffffff;stroke-width:0.0175699"
       d="M 6.3500374 4.1010708 C 5.1079784 4.1010708 4.1010789 5.1079704 4.1010789 6.3500292 C 4.1010789 7.021725 4.3951836 7.6246528 4.862079 8.0367481 L 7.8379958 8.0367481 C 8.3048912 7.6246528 8.5989959 7.021725 8.5989959 6.3500292 C 8.5989959 5.1079704 7.592096 4.1010708 6.3500374 4.1010708 z " />
    <path
       d="m 8.0367562,6.3500305 c 0,0.9315358 -0.7551839,1.6867176 -1.6867188,1.6867176 -0.9315358,0 -1.6867189,-0.7551818 -1.6867189,-1.6867176 0,-0.9315354 0.7551831,-1.6867184 1.6867189,-1.6867184 0.9315349,0 1.6867188,0.755183 1.6867188,1.6867184"
       style="fill:#4688f4;fill-opacity:1;stroke-width:0.0162182"
       id="path2029" />
  </g>
</svg>
