<?xml version="1.0" encoding="UTF-8" standalone="no"?>
<!-- Created with Inkscape (http://www.inkscape.org/) -->

<svg
   width="22"
   height="22"
   viewBox="0 0 22 22.000002"
   version="1.1"
   id="svg1"
   inkscape:version="1.4.3 (0d15f75042, 2025-12-25)"
   sodipodi:docname="geforcenow.svg"
   xmlns:inkscape="http://www.inkscape.org/namespaces/inkscape"
   xmlns:sodipodi="http://sodipodi.sourceforge.net/DTD/sodipodi-0.dtd"
   xmlns:xlink="http://www.w3.org/1999/xlink"
   xmlns="http://www.w3.org/2000/svg"
   xmlns:svg="http://www.w3.org/2000/svg">
  <sodipodi:namedview
     id="namedview1"
     pagecolor="#ffffff"
     bordercolor="#000000"
     borderopacity="0.25"
     inkscape:showpageshadow="2"
     inkscape:pageopacity="0.0"
     inkscape:pagecheckerboard="0"
     inkscape:deskcolor="#d1d1d1"
     inkscape:document-units="px"
     inkscape:zoom="37.227273"
     inkscape:cx="11"
     inkscape:cy="11"
     inkscape:window-width="1920"
     inkscape:window-height="1022"
     inkscape:window-x="0"
     inkscape:window-y="0"
     inkscape:window-maximized="1"
     inkscape:current-layer="svg1" />
  <defs
     id="defs1">
    <linearGradient
       inkscape:collect="always"
       xlink:href="#linearGradient1270"
       id="linearGradient4"
       x1="16"
       y1="30"
       x2="16"
       y2="2"
       gradientUnits="userSpaceOnUse"
       gradientTransform="matrix(0.71428571,0,0,0.71428571,-0.42857143,-0.42857143)" />
    <linearGradient
       inkscape:collect="always"
       id="linearGradient1270">
      <stop
         style="stop-color:#80d935;stop-opacity:1;"
         offset="0"
         id="stop1266" />
      <stop
         style="stop-color:#afd65f;stop-opacity:1;"
         offset="1"
         id="stop1268" />
    </linearGradient>
  </defs>
  <rect
     style="opacity:0.2;fill:#000000;stroke-width:1.75"
     id="rect1"
     width="20"
     height="20"
     x="1"
     y="1.5"
     ry="4" />
  <rect
     style="fill:url(#linearGradient4);stroke-width:0.714286"
     id="rect2"
     width="20"
     height="20"
     x="1"
     y="1"
     ry="4" />
  <path
     d="m 4.6347195,9.764127 c 0,0 1.4787225,-2.134392 4.3671555,-2.3552045 V 6.634568 C 5.802569,6.8915075 3,9.601169 3,9.601169 c 0,0 1.6012465,4.536135 6.001875,4.95147 v -0.82308 C 5.7724845,13.32329 4.6347195,9.764127 4.6347195,9.764127 Z m 4.3671555,2.328526 v 0.753784 C 6.561174,12.411305 5.8515985,9.87418 5.8515985,9.87418 c 0,0 1.203977,-1.298198 3.1502765,-1.508725 v 0.827131 c -0.0015,0 -0.0025,-4.4e-4 -0.00375,-4.4e-4 -1.021523,-0.122588 -1.851629,0.831695 -1.851629,0.831695 0,0 0.4793775,1.606499 1.855357,2.068823 m 0,-7.092654 v 1.634568 c 0.09392,-0.0072 0.15574,-0.013305 0.250171,-0.01652 3.637267,-0.122588 6.007192,2.983122 6.007192,2.983122 0,0 -2.721939,3.309808 -5.557724,3.309808 -0.259897,0 -0.471112,-0.02411 -0.699639,-0.0646 v 0.883185 c 0.195421,0.0248 0.365945,0.0394 0.577372,0.0394 2.638886,0 4.547258,-1.347694 6.39514,-2.942751 0.306374,0.245369 1.560666,0.842301 1.818505,1.103612 -1.756986,1.47099 -5.851755,2.656754 -8.173211,2.656754 -0.223769,0 -0.406572,-0.01355 -0.617806,-0.03395 v 1.447367 H 19 V 5 Z m 0,3.365455 V 7.4089965 c 0.09295,-0.0065 0.154518,-0.011505 0.250171,-0.01453 2.615551,-0.082154 4.331524,2.2476595 4.331524,2.2476595 0,0 -1.85341,2.574088 -3.840657,2.574088 -0.285996,0 -0.510325,-0.04596 -0.741102,-0.123552 V 9.192594 c 1.018245,0.123038 1.191083,0.572827 1.803251,1.593321 l 1.361506,-1.14803 c 0,0 -0.993881,-1.3034685 -2.669291,-1.3034685 -0.182114,-6.45e-5 -0.32429,0.01273 -0.495411,0.03105"
     style="fill:#ffffff"
     id="path1" />
</svg>
