<?xml version="1.0" encoding="UTF-8" standalone="no"?>
<!-- Created with Inkscape (http://www.inkscape.org/) -->

<svg
   width="22"
   height="22"
   viewBox="0 0 22 22.000002"
   version="1.1"
   id="svg1"
   inkscape:version="1.4.2 (ebf0e940d0, 2025-05-08)"
   sodipodi:docname="git.svg"
   xmlns:inkscape="http://www.inkscape.org/namespaces/inkscape"
   xmlns:sodipodi="http://sodipodi.sourceforge.net/DTD/sodipodi-0.dtd"
   xmlns:xlink="http://www.w3.org/1999/xlink"
   xmlns="http://www.w3.org/2000/svg"
   xmlns:svg="http://www.w3.org/2000/svg">
  <sodipodi:namedview
     id="namedview1"
     pagecolor="#ffffff"
     bordercolor="#000000"
     borderopacity="0.25"
     inkscape:showpageshadow="2"
     inkscape:pageopacity="0.0"
     inkscape:pagecheckerboard="0"
     inkscape:deskcolor="#d1d1d1"
     inkscape:document-units="px"
     inkscape:zoom="36.772727"
     inkscape:cx="11"
     inkscape:cy="11"
     inkscape:window-width="1920"
     inkscape:window-height="1011"
     inkscape:window-x="0"
     inkscape:window-y="0"
     inkscape:window-maximized="1"
     inkscape:current-layer="svg1" />
  <defs
     id="defs1">
    <linearGradient
       inkscape:collect="always"
       xlink:href="#linearGradient1482"
       id="linearGradient4"
       x1="16"
       y1="30"
       x2="16"
       y2="2"
       gradientUnits="userSpaceOnUse"
       gradientTransform="matrix(0.71428571,0,0,0.71428571,-0.42857141,-0.42857143)" />
    <linearGradient
       inkscape:collect="always"
       id="linearGradient1482">
      <stop
         style="stop-color:#b32420;stop-opacity:1;"
         offset="0"
         id="stop1478" />
      <stop
         style="stop-color:#ec6b52;stop-opacity:1;"
         offset="1"
         id="stop1480" />
    </linearGradient>
  </defs>
  <rect
     style="opacity:0.2;fill:#000000;stroke-width:1.75"
     id="rect1"
     width="20"
     height="20"
     x="1"
     y="1.5"
     ry="4" />
  <rect
     style="fill:url(#linearGradient4);stroke-width:0.714286"
     id="rect2"
     width="20"
     height="20"
     x="1"
     y="1"
     ry="4" />
  <path
     id="rect2-0"
     style="opacity:0.3;fill:#ffffff"
     d="M 10.292969 3.9296875 L 3.9296875 10.292969 L 11 17.244141 L 16.302734 9.9394531 L 10.292969 3.9296875 z " />
  <path
     id="rect2963"
     style="fill:#ffffff"
     d="m 11.000115,3.635 c -0.255619,-10e-8 -0.511163,0.099054 -0.707031,0.2949221 L 8.9649591,5.2580472 9.8536304,6.1467184 c 0.2018726,-0.096429 0.4227626,-0.1464778 0.6464846,-0.1464839 0.828427,10e-8 1.5,0.6715734 1.5,1.4999997 -6e-6,0.2237221 -0.05005,0.4446101 -0.146484,0.6464849 l 1,0.9999996 c 0.201872,-0.096429 0.422763,-0.146478 0.646484,-0.146484 0.828426,-6e-7 1.5,0.6715733 1.5,1.4999993 0,0.828427 -0.671574,1.500001 -1.5,1.5 -0.828426,0 -1.5,-0.671574 -1.5,-1.499999 6e-6,-0.223722 0.05006,-0.444611 0.146484,-0.646485 L 11.1466,8.8537503 c -0.04792,0.019441 -0.09682,0.036388 -0.146483,0.050783 v 3.1835937 c 0.598592,0.211633 0.999109,0.777208 1,1.41211 0,0.828426 -0.671573,1.5 -1.5,1.5 -0.8284263,-2e-6 -1.5,-0.671575 -1.4999995,-1.5 0.00418,-0.632034 0.4040953,-1.193632 0.9999975,-1.404299 V 8.9045317 C 9.4042125,8.6938634 9.0042952,8.1322653 9.0001152,7.5002345 9.0001214,7.2765124 9.0501714,7.055624 9.1465992,6.8537496 L 8.2579279,5.9650783 3.9298028,10.293203 c -0.3917368,0.391737 -0.3917373,1.022326 -10e-8,1.414063 l 6.3632813,6.363281 c 0.391737,0.391737 1.022326,0.391737 1.414063,0 l 6.363281,-6.363281 c 0.391737,-0.391737 0.391736,-1.022326 0,-1.414062 L 11.707146,3.929922 C 11.511278,3.7340534 11.255734,3.6350001 11.000115,3.635 Z" />
</svg>
