<?xml version="1.0" encoding="UTF-8" standalone="no"?>
<!-- Created with Inkscape (http://www.inkscape.org/) -->

<svg
   width="22"
   height="22"
   viewBox="0 0 22 22.000002"
   version="1.1"
   id="svg1"
   inkscape:version="1.4.4 (dcaf3e7d9e, 2026-05-05)"
   sodipodi:docname="google-gemini.svg"
   xmlns:inkscape="http://www.inkscape.org/namespaces/inkscape"
   xmlns:sodipodi="http://sodipodi.sourceforge.net/DTD/sodipodi-0.dtd"
   xmlns:xlink="http://www.w3.org/1999/xlink"
   xmlns="http://www.w3.org/2000/svg"
   xmlns:svg="http://www.w3.org/2000/svg">
  <sodipodi:namedview
     id="namedview1"
     pagecolor="#ffffff"
     bordercolor="#000000"
     borderopacity="0.25"
     inkscape:showpageshadow="2"
     inkscape:pageopacity="0.0"
     inkscape:pagecheckerboard="0"
     inkscape:deskcolor="#d1d1d1"
     inkscape:document-units="px"
     inkscape:zoom="26.363636"
     inkscape:cx="10.981034"
     inkscape:cy="11"
     inkscape:window-width="1440"
     inkscape:window-height="831"
     inkscape:window-x="0"
     inkscape:window-y="0"
     inkscape:window-maximized="1"
     inkscape:current-layer="svg1" />
  <defs
     id="defs1">
    <radialGradient
       inkscape:collect="always"
       xlink:href="#linearGradient1"
       id="radialGradient2"
       cx="6.0314078"
       cy="5.2960987"
       fx="6.0314078"
       fy="5.2960987"
       r="5"
       gradientUnits="userSpaceOnUse"
       gradientTransform="matrix(1.7939311,-0.00963779,0.00859027,1.5989483,-1.9509421,-1.2817827)" />
    <linearGradient
       id="linearGradient1"
       inkscape:collect="always">
      <stop
         style="stop-color:#fc413d;stop-opacity:1;"
         offset="0"
         id="stop1" />
      <stop
         style="stop-color:#fc413d;stop-opacity:0;"
         offset="1"
         id="stop2" />
    </linearGradient>
    <radialGradient
       inkscape:collect="always"
       xlink:href="#linearGradient2"
       id="radialGradient4"
       cx="4.4745617"
       cy="7.4917331"
       fx="4.4745617"
       fy="7.4917331"
       r="5"
       gradientUnits="userSpaceOnUse"
       gradientTransform="matrix(1.3999999,0,0,1.1995801,0.1008546,2.4227452)" />
    <linearGradient
       id="linearGradient2"
       inkscape:collect="always">
      <stop
         style="stop-color:#fbbc04;stop-opacity:1;"
         offset="0"
         id="stop3" />
      <stop
         style="stop-color:#fbbc04;stop-opacity:0;"
         offset="1"
         id="stop4" />
    </linearGradient>
    <radialGradient
       inkscape:collect="always"
       xlink:href="#linearGradient8"
       id="radialGradient10"
       cx="6.3957481"
       cy="12.007661"
       fx="6.3957481"
       fy="12.007661"
       r="5"
       gradientUnits="userSpaceOnUse"
       gradientTransform="matrix(1.3536502,-0.00862423,0.00905332,1.4209977,-0.04493529,-0.40770022)" />
    <linearGradient
       id="linearGradient8"
       inkscape:collect="always">
      <stop
         style="stop-color:#00b95c;stop-opacity:1;"
         offset="0"
         id="stop9" />
      <stop
         style="stop-color:#00b95c;stop-opacity:0;"
         offset="1"
         id="stop10" />
    </linearGradient>
  </defs>
  <rect
     style="opacity:0.2;fill:#000000;stroke-width:1.75"
     id="rect1"
     width="20"
     height="20"
     x="1"
     y="1.5"
     ry="4" />
  <rect
     style="fill:#fafafa;fill-opacity:1;stroke-width:0.714286"
     id="rect2"
     width="20"
     height="20"
     x="1"
     y="1"
     ry="4" />
  <path
     d="m 11,4 c 0,3.8659936 -3.1340064,7 -7,7 3.8659936,0 7,3.134006 7,7 0,-3.865994 3.134006,-7 7,-7 -3.865994,0 -7,-3.1340064 -7,-7 z"
     style="fill:#3186ff;fill-opacity:1;stroke-width:0.7"
     id="path1" />
  <path
     d="m 11,4 c 0,3.8659936 -3.1340064,7 -7,7 3.8659936,0 7,3.134006 7,7 0,-3.865994 3.134006,-7 7,-7 -3.865994,0 -7,-3.1340064 -7,-7 z"
     style="fill:url(#radialGradient2);fill-opacity:1;stroke-width:0.7"
     id="path2" />
  <path
     d="m 11,4 c 0,3.8659936 -3.1340064,7 -7,7 3.8659936,0 7,3.134006 7,7 0,-3.865994 3.134006,-7 7,-7 -3.865994,0 -7,-3.1340064 -7,-7 z"
     style="fill:url(#radialGradient4);fill-opacity:1;stroke-width:0.7"
     id="path3" />
  <path
     d="m 11,4 c 0,3.8659936 -3.1340064,7 -7,7 3.8659936,0 7,3.134006 7,7 0,-3.865994 3.134006,-7 7,-7 -3.865994,0 -7,-3.1340064 -7,-7 z"
     style="fill:url(#radialGradient10);stroke-width:0.7"
     id="path4" />
</svg>
