<?xml version="1.0" encoding="UTF-8" standalone="no"?>
<!-- Created with Inkscape (http://www.inkscape.org/) -->

<svg
   width="22"
   height="22"
   viewBox="0 0 22 22.000002"
   version="1.1"
   id="svg1"
   inkscape:version="1.4.4 (dcaf3e7d9e, 2026-05-05)"
   sodipodi:docname="net.davidotek.pupgui2.svg"
   xmlns:inkscape="http://www.inkscape.org/namespaces/inkscape"
   xmlns:sodipodi="http://sodipodi.sourceforge.net/DTD/sodipodi-0.dtd"
   xmlns:xlink="http://www.w3.org/1999/xlink"
   xmlns="http://www.w3.org/2000/svg"
   xmlns:svg="http://www.w3.org/2000/svg">
  <sodipodi:namedview
     id="namedview1"
     pagecolor="#ffffff"
     bordercolor="#000000"
     borderopacity="0.25"
     inkscape:showpageshadow="2"
     inkscape:pageopacity="0.0"
     inkscape:pagecheckerboard="0"
     inkscape:deskcolor="#d1d1d1"
     inkscape:document-units="px"
     inkscape:zoom="36.136364"
     inkscape:cx="11.013836"
     inkscape:cy="10.986163"
     inkscape:window-width="1920"
     inkscape:window-height="1012"
     inkscape:window-x="0"
     inkscape:window-y="0"
     inkscape:window-maximized="1"
     inkscape:current-layer="svg1" />
  <defs
     id="defs1">
    <linearGradient
       inkscape:collect="always"
       id="linearGradient1606">
      <stop
         style="stop-color:#eaebed;stop-opacity:1;"
         offset="0"
         id="stop1602" />
      <stop
         style="stop-color:#f9fafa;stop-opacity:1;"
         offset="1"
         id="stop1604" />
    </linearGradient>
    <linearGradient
       inkscape:collect="always"
       xlink:href="#linearGradient1606"
       id="linearGradient4"
       x1="16"
       y1="30"
       x2="16"
       y2="2"
       gradientUnits="userSpaceOnUse"
       gradientTransform="matrix(0.71428571,0,0,0.71428571,-0.42857141,-0.42857143)" />
    <linearGradient
       inkscape:collect="always"
       xlink:href="#linearGradient1"
       id="linearGradient4-6"
       x1="24.000301"
       y1="44"
       x2="24.000301"
       y2="4"
       gradientUnits="userSpaceOnUse"
       gradientTransform="matrix(0.5,0,0,0.5,-1.000151,-1)" />
    <linearGradient
       id="linearGradient1"
       inkscape:collect="always">
      <stop
         style="stop-color:#0ebb67;stop-opacity:1;"
         offset="0"
         id="stop1" />
      <stop
         style="stop-color:#0ecb6f;stop-opacity:1;"
         offset="1"
         id="stop2" />
    </linearGradient>
  </defs>
  <rect
     style="opacity:0.2;fill:#000000;stroke-width:1.75"
     id="rect1"
     width="20"
     height="20"
     x="1"
     y="1.5"
     ry="4" />
  <rect
     style="fill:url(#linearGradient4);stroke-width:0.714286"
     id="rect2"
     width="20"
     height="20"
     x="1"
     y="1"
     ry="4" />
  <path
     d="m 10.999849,3 c -0.265201,4e-5 -0.519526,0.1054231 -0.707031,0.2929687 L 3.2928177,10.292969 c -0.3904236,0.390507 -0.3904236,1.023555 0,1.414062 0.3905071,0.390424 1.0235558,0.390424 1.4140628,0 L 9.999849,6.4140625 V 18 c 0,0.552284 0.447715,1 1,1 0.552285,0 1,-0.447716 1,-1 V 6.4140625 l 5.292968,5.2929685 c 0.390507,0.390424 1.023556,0.390424 1.414063,0 0.390423,-0.390507 0.390423,-1.023555 0,-1.414062 l -7,-7.0000002 C 11.519375,3.1054232 11.26505,3.0000401 10.999849,3 Z"
     style="fill:url(#linearGradient4-6);fill-opacity:1;stroke-width:0.5"
     id="path1" />
  <path
     id="path6"
     style="baseline-shift:baseline;display:inline;overflow:visible;vector-effect:none;fill:#fe8f00;stroke-width:0.5;enable-background:accumulate;stop-color:#000000"
     d="m 9.499865,12.293 -1.353516,1.353516 0.707031,0.707031 0.646485,-0.646485 1,1 1,-1 1,1 1.353515,-1.353515 -0.707031,-0.707031 -0.646484,0.646484 -1,-1 -1,1 z" />
</svg>
