<?xml version="1.0" encoding="UTF-8" standalone="no"?>
<!-- Created with Inkscape (http://www.inkscape.org/) -->

<svg
   width="22"
   height="22"
   viewBox="0 0 22 22.000002"
   version="1.1"
   id="svg1"
   inkscape:version="1.4.2 (ebf0e940d0, 2025-05-08)"
   sodipodi:docname="qtcreator.svg"
   xmlns:inkscape="http://www.inkscape.org/namespaces/inkscape"
   xmlns:sodipodi="http://sodipodi.sourceforge.net/DTD/sodipodi-0.dtd"
   xmlns:xlink="http://www.w3.org/1999/xlink"
   xmlns="http://www.w3.org/2000/svg"
   xmlns:svg="http://www.w3.org/2000/svg">
  <sodipodi:namedview
     id="namedview1"
     pagecolor="#ffffff"
     bordercolor="#000000"
     borderopacity="0.25"
     inkscape:showpageshadow="2"
     inkscape:pageopacity="0.0"
     inkscape:pagecheckerboard="0"
     inkscape:deskcolor="#d1d1d1"
     inkscape:document-units="px"
     inkscape:zoom="36.772727"
     inkscape:cx="10.972806"
     inkscape:cy="10.972806"
     inkscape:window-width="1920"
     inkscape:window-height="1011"
     inkscape:window-x="0"
     inkscape:window-y="0"
     inkscape:window-maximized="1"
     inkscape:current-layer="svg1" />
  <defs
     id="defs1">
    <linearGradient
       inkscape:collect="always"
       xlink:href="#linearGradient2833"
       id="linearGradient4"
       x1="16"
       y1="30"
       x2="16"
       y2="2"
       gradientUnits="userSpaceOnUse"
       gradientTransform="matrix(0.71428571,0,0,0.71428571,-0.42857141,-0.42857143)" />
    <linearGradient
       inkscape:collect="always"
       id="linearGradient2833">
      <stop
         style="stop-color:#38b517;stop-opacity:1;"
         offset="0"
         id="stop2829" />
      <stop
         style="stop-color:#97e527;stop-opacity:1;"
         offset="1"
         id="stop2831" />
    </linearGradient>
  </defs>
  <rect
     style="opacity:0.2;fill:#000000;stroke-width:1.75"
     id="rect1"
     width="20"
     height="20"
     x="1"
     y="1.5"
     ry="4" />
  <rect
     style="fill:url(#linearGradient4);stroke-width:0.714286"
     id="rect2"
     width="20"
     height="20"
     x="1"
     y="1"
     ry="4" />
  <path
     id="rect371"
     style="opacity:0.2;fill:#000000;stroke-width:3;stroke-linecap:round;stroke-linejoin:round"
     d="M 1 8 L 1 17 C 1 19.216 2.784 21 5 21 L 17 21 C 19.216 21 21 19.216 21 17 L 21 15 L 1 8 z " />
  <path
     id="path440"
     style="fill:#ffffff"
     d="m 7.25,5.9999995 c -1.8004978,0 -3.25,1.4495018 -3.25,3.25 V 11.75 C 4,13.550497 5.4495022,15 7.25,15 h 0.5 c 0.1444789,0 0.2844373,-0.0112 0.4238281,-0.0293 L 9.210938,16.523437 10.03125,16.115234 9.134766,14.810546 C 10.633814,13.997032 11,12.865235 11,11.75 V 9.2499995 c 0,-1.8004982 -1.449502,-3.25 -3.25,-3.25 z m 8.75,0 c -1.800498,0 -3,1.1995018 -3,3 V 12 c 0,1.800497 1.199502,3 3,3 h 2 V 14 H 15.75 C 14.754555,14 14,13.245445 14,12.25 V 8.7499998 C 14,7.7545546 14.754555,6.9998402 15.75,6.9999995 H 18 v -1 z M 7.1875,7.0332026 h 0.625 c 1.244306,0 2.1875,0.8816156 2.1875,2.0429689 v 2.9160155 c 0,1.161351 -0.943194,2.041015 -2.1875,2.041015 H 7.1875 C 5.9431943,14.033203 5,13.153539 5,11.992188 V 9.0761715 C 5,7.9148182 5.9431942,7.0332026 7.1875,7.0332026 Z" />
</svg>
