<?xml version="1.0" encoding="UTF-8" standalone="no"?>
<!-- Created with Inkscape (http://www.inkscape.org/) -->

<svg
   width="22"
   height="22"
   viewBox="0 0 22 22.000002"
   version="1.1"
   id="svg1"
   inkscape:version="1.4.2 (1:1.4.2+202505120737+ebf0e940d0)"
   sodipodi:docname="rnote.svg"
   xmlns:inkscape="http://www.inkscape.org/namespaces/inkscape"
   xmlns:sodipodi="http://sodipodi.sourceforge.net/DTD/sodipodi-0.dtd"
   xmlns:xlink="http://www.w3.org/1999/xlink"
   xmlns="http://www.w3.org/2000/svg"
   xmlns:svg="http://www.w3.org/2000/svg">
  <sodipodi:namedview
     id="namedview1"
     pagecolor="#ffffff"
     bordercolor="#000000"
     borderopacity="0.25"
     inkscape:showpageshadow="2"
     inkscape:pageopacity="0.0"
     inkscape:pagecheckerboard="0"
     inkscape:deskcolor="#d1d1d1"
     inkscape:document-units="px"
     inkscape:zoom="36.681818"
     inkscape:cx="11"
     inkscape:cy="11"
     inkscape:window-width="1920"
     inkscape:window-height="1016"
     inkscape:window-x="0"
     inkscape:window-y="0"
     inkscape:window-maximized="1"
     inkscape:current-layer="svg1" />
  <defs
     id="defs1">
    <linearGradient
       inkscape:collect="always"
       id="linearGradient1606">
      <stop
         style="stop-color:#eaebed;stop-opacity:1;"
         offset="0"
         id="stop1602" />
      <stop
         style="stop-color:#f9fafa;stop-opacity:1;"
         offset="1"
         id="stop1604" />
    </linearGradient>
    <linearGradient
       inkscape:collect="always"
       xlink:href="#linearGradient1606"
       id="linearGradient4"
       x1="16"
       y1="30"
       x2="16"
       y2="2"
       gradientUnits="userSpaceOnUse"
       gradientTransform="matrix(0.71428571,0,0,0.71428571,-0.42857141,-0.42857143)" />
    <linearGradient
       id="linearGradient1"
       inkscape:collect="always">
      <stop
         style="stop-color:#2e2e2e;stop-opacity:1;"
         offset="0"
         id="stop1" />
      <stop
         style="stop-color:#565656;stop-opacity:1;"
         offset="1"
         id="stop2" />
    </linearGradient>
    <linearGradient
       inkscape:collect="always"
       xlink:href="#linearGradient1"
       id="linearGradient5"
       x1="15.999935"
       y1="17.999947"
       x2="15.999935"
       y2="4"
       gradientUnits="userSpaceOnUse" />
  </defs>
  <rect
     style="opacity:0.2;fill:#000000;stroke-width:1.75"
     id="rect1"
     width="20"
     height="20"
     x="1"
     y="1.5"
     ry="4" />
  <rect
     style="fill:url(#linearGradient4);stroke-width:0.714286"
     id="rect2"
     width="20"
     height="20"
     x="1"
     y="1"
     ry="4" />
  <path
     d="M 15.164627,7.1327333 C 15.1375,6.911845 15.306916,6.5622987 15.284178,6.086421 15.260697,5.6097684 15.029672,4.945553 14.081329,4.463475 14.064456,4.454935 14.047602,4.446422 14.029993,4.437896 13.413157,4.1371773 12.513955,3.9217152 11.465127,4.0271216 10.650272,4.1092815 9.8038758,4.3813169 9.0058889,4.861071 8.287846,5.2912211 7.6262782,5.8802558 7.0893975,6.6087995 6.7740177,7.0668513 6.4989753,7.5853572 6.3024115,8.1449402 6.2173342,8.3867546 6.1469211,8.6370945 6.0941134,8.8928586 6.0259026,9.2253544 5.9884973,9.5888502 6.0031582,9.9724972 c 0.038879,0.6084128 0.2104982,1.2734018 0.5940901,1.8717368 0.1811615,0.283666 0.4063284,0.540982 0.6667013,0.75567 0.2589068,0.214687 0.5552179,0.388298 0.8786666,0.50223 0.5185461,0.179035 1.0282896,0.179035 1.4500215,0.111614 0.2237002,-0.03565 0.4290653,-0.09068 0.6102243,-0.151909 0.223701,-0.07518 0.429066,-0.161985 0.591158,-0.235614 0.353519,-0.163535 0.685036,-0.35962 0.949076,-0.517731 0.264041,-0.158109 0.522946,-0.316993 0.771585,-0.445651 0.148156,-0.0744 0.324183,-0.157334 0.498009,-0.220112 0.04621,-0.01628 0.09242,-0.03178 0.138622,-0.04495 0.173092,-0.05039 0.343984,-0.07286 0.495807,-0.05658 0.129821,0.01317 0.239837,0.05812 0.313916,0.113155 0.03153,0.02092 0.05868,0.05039 0.08141,0.08137 0.0198,0.02868 0.03301,0.0558 0.04034,0.07052 0.008,0.01861 0.01247,0.05658 -0.0014,0.111615 -0.0132,0.0558 -0.0418,0.120132 -0.08581,0.184462 -0.04547,0.06587 -0.108544,0.134082 -0.193629,0.204613 -0.08362,0.0682 -0.183362,0.134856 -0.299246,0.199185 -0.254506,0.129433 -0.507544,0.216238 -0.863264,0.356522 -0.322718,0.127107 -0.707776,0.291417 -1.068631,0.551833 -0.189227,0.141057 -0.378457,0.316992 -0.541283,0.530129 -0.16209,0.213139 -0.30291,0.470454 -0.381388,0.771947 -0.07041,0.301493 -0.07408,0.636314 0.02054,0.957956 0.04768,0.163534 0.121019,0.318544 0.214898,0.456502 0.09535,0.139509 0.2149,0.265841 0.356454,0.366597 0.251571,0.17671 0.528814,0.241815 0.768651,0.24879 h 0.08141 c 0.203165,-0.0054 0.396795,-0.04961 0.573555,-0.112385 0.184827,-0.05967 0.352053,-0.140282 0.495808,-0.211586 0.146689,-0.07363 0.259639,-0.133309 0.377725,-0.182912 0.107822,-0.05039 0.201696,-0.08293 0.286777,-0.09688 0.08068,-0.01317 0.146689,-0.007 0.194361,0.007 0.02127,0.0062 0.04034,0.01628 0.05573,0.02635 0.01468,0.01003 0.02494,0.01939 0.03007,0.02403 0.008,0.0038 0.0154,0.01003 0.02053,0.01167 0.0059,0 0.011,0.0031 0.01834,0.0016 0.0066,-0.0016 0,0.02325 -0.0264,0.0558 -0.03081,0.03798 -0.07554,0.07595 -0.144488,0.132533 -0.06674,0.05348 -0.15769,0.124008 -0.240571,0.210812 -0.09168,0.09533 -0.18116,0.216238 -0.236169,0.365822 -0.055,0.151134 -0.0638,0.306143 -0.04107,0.44255 0.0264,0.158887 0.09609,0.289094 0.17676,0.381324 0.108543,0.125557 0.234702,0.179036 0.32785,0.193763 0.02273,0.0032 0.04401,0.0047 0.0638,0.0038 0.165758,-0.0062 0.232501,-0.140282 0.26184,-0.179811 -0.04107,-0.04108 -0.08288,-0.146484 -0.115885,-0.236387 -0.0036,-0.01003 -0.0073,-0.01939 -0.01022,-0.02945 -0.0132,-0.03953 -0.02493,-0.08293 -0.02201,-0.121681 0.0014,-0.02791 0.008,-0.05735 0.02053,-0.07595 0.01022,-0.01628 0.02494,-0.031 0.03814,-0.03642 0.0132,-0.0062 0.0352,-0.0248 0.07481,-0.05039 0.04914,-0.031 0.08362,-0.04882 0.170893,-0.09843 0.06821,-0.03797 0.169424,-0.09688 0.266239,-0.176711 0.09681,-0.07983 0.2083,-0.196085 0.287512,-0.358071 0.07041,-0.144933 0.104877,-0.305368 0.104877,-0.463476 7.32e-4,-0.158111 -0.03301,-0.311569 -0.09168,-0.448752 -0.06161,-0.137958 -0.146691,-0.255767 -0.243505,-0.352646 -0.09756,-0.09766 -0.208298,-0.175161 -0.324184,-0.233289 -0.232501,-0.115488 -0.477471,-0.148034 -0.692371,-0.139508 -0.222234,0.0085 -0.426132,0.06123 -0.594091,0.117031 -0.165759,0.05891 -0.337384,0.136408 -0.459138,0.188336 -0.140086,0.05969 -0.247901,0.100753 -0.349851,0.125559 -0.09609,0.01783 -0.168693,0.01627 -0.221501,0.0038 -0.0066,-0.0016 -0.0132,-0.0031 -0.0198,-0.0054 -0.05354,-0.01783 -0.08288,-0.04884 -0.07481,-0.06433 0.0045,-0.0062 0.0052,-0.01395 0.0066,-0.02714 0.0014,-0.01239 0.003,-0.02635 0.0088,-0.03874 0.0088,-0.02635 0.02348,-0.07209 0.05354,-0.114707 0.02201,-0.04727 0.05868,-0.100753 0.118819,-0.16121 0.06161,-0.06201 0.142289,-0.124782 0.239102,-0.180586 0.195097,-0.124007 0.427599,-0.216237 0.729045,-0.316218 0.278708,-0.09301 0.660834,-0.206938 1.012154,-0.361172 0.189229,-0.07905 0.385793,-0.175935 0.576488,-0.298392 0.195096,-0.124783 0.387992,-0.278241 0.564018,-0.468127 0.182628,-0.198412 0.341051,-0.432476 0.45767,-0.694442 0.119551,-0.269716 0.197297,-0.575859 0.204631,-0.903703 0.0073,-0.323195 -0.055,-0.628563 -0.159157,-0.898278 -0.106894,-0.279955 -0.263123,-0.531069 -0.44942,-0.741106 -0.394655,-0.4448768 -0.894132,-0.6866903 -1.342999,-0.7913214 -0.520012,-0.1216824 -1.007755,-0.076727 -1.382543,0.00699 -0.104156,0.024029 -0.202431,0.050384 -0.294111,0.079054 -0.346187,0.1077366 -0.633698,0.2526636 -0.835395,0.3650456 -0.327848,0.179036 -0.654231,0.3968238 -0.876465,0.5402068 -0.258172,0.166636 -0.489208,0.310794 -0.7209759,0.421626 -0.1034218,0.05039 -0.2163703,0.09533 -0.333722,0.126332 -0.093889,0.02403 -0.1855616,0.04031 -0.2757745,0.04495 -0.1723605,0.0093 -0.3175822,-0.02325 -0.4158651,-0.08293 -0.0572,-0.03256 -0.1158818,-0.07983 -0.1694249,-0.141832 C 8.6899566,10.665232 8.6444896,10.592379 8.613681,10.514874 8.543271,10.342814 8.521259,10.134328 8.55207,9.9366912 8.56007,9.8134572 8.585813,9.6894502 8.626147,9.5662182 8.6575234,9.4710652 8.7008011,9.3741868 8.7558098,9.2765314 8.8848948,9.047118 9.0719241,8.8301051 9.2912233,8.6433187 9.6322753,8.310824 10.031269,8.0705596 10.436131,7.9147754 c 0.450337,-0.17361 0.881601,-0.2332881 1.260057,-0.2363883 0.484075,-0.0031 0.917541,0.084479 1.257126,0.1263325 0.0096,7.732e-4 0.01907,0.00232 0.02861,0.0031 0.536881,0.062779 0.948344,-0.069754 1.313601,-0.2542152 0.354253,-0.1782603 0.6711,-0.4192997 0.869131,-0.4208498 z"
     style="fill:url(#linearGradient5);stroke-width:1.13854"
     id="path1" />
</svg>
