<?xml version="1.0" encoding="UTF-8" standalone="no"?>
<!-- Created with Inkscape (http://www.inkscape.org/) -->

<svg
   width="22"
   height="22"
   viewBox="0 0 22 22.000002"
   version="1.1"
   id="svg1"
   inkscape:version="1.4.2 (ebf0e940d0, 2025-05-08)"
   sodipodi:docname="slack.svg"
   xmlns:inkscape="http://www.inkscape.org/namespaces/inkscape"
   xmlns:sodipodi="http://sodipodi.sourceforge.net/DTD/sodipodi-0.dtd"
   xmlns:xlink="http://www.w3.org/1999/xlink"
   xmlns="http://www.w3.org/2000/svg"
   xmlns:svg="http://www.w3.org/2000/svg">
  <sodipodi:namedview
     id="namedview1"
     pagecolor="#ffffff"
     bordercolor="#000000"
     borderopacity="0.25"
     inkscape:showpageshadow="2"
     inkscape:pageopacity="0.0"
     inkscape:pagecheckerboard="0"
     inkscape:deskcolor="#d1d1d1"
     inkscape:document-units="px"
     inkscape:zoom="36.772727"
     inkscape:cx="11"
     inkscape:cy="11"
     inkscape:window-width="1920"
     inkscape:window-height="1011"
     inkscape:window-x="0"
     inkscape:window-y="0"
     inkscape:window-maximized="1"
     inkscape:current-layer="svg1" />
  <defs
     id="defs1">
    <linearGradient
       inkscape:collect="always"
       id="linearGradient1606">
      <stop
         style="stop-color:#eaebed;stop-opacity:1;"
         offset="0"
         id="stop1602" />
      <stop
         style="stop-color:#f9fafa;stop-opacity:1;"
         offset="1"
         id="stop1604" />
    </linearGradient>
    <linearGradient
       inkscape:collect="always"
       xlink:href="#linearGradient1606"
       id="linearGradient4"
       x1="16"
       y1="30"
       x2="16"
       y2="2"
       gradientUnits="userSpaceOnUse"
       gradientTransform="matrix(0.71428571,0,0,0.71428571,-0.42857141,-0.42857143)" />
  </defs>
  <rect
     style="opacity:0.2;fill:#000000;stroke-width:1.75"
     id="rect1"
     width="20"
     height="20"
     x="1"
     y="1.5"
     ry="4" />
  <rect
     style="fill:url(#linearGradient4);stroke-width:0.714286"
     id="rect2"
     width="20"
     height="20"
     x="1"
     y="1"
     ry="4" />
  <path
     style="fill:#36c5f0"
     d="M 8.5,4 A 1.5,1.5 0 0 0 7,5.5 1.5,1.5 0 0 0 8.5,7 H 10 V 5.5 A 1.5,1.5 0 0 0 8.5,4 Z M 10,9.5 A 1.5,1.5 0 0 0 8.5,8 h -4 A 1.5,1.5 0 0 0 3,9.5 1.5,1.5 0 0 0 4.5,11 h 4 A 1.5,1.5 0 0 0 10,9.5 Z"
     id="path4" />
  <path
     style="fill:#2eb67d"
     d="M 16.5,8 A 1.5,1.5 0 0 1 18,9.5 1.5,1.5 0 0 1 16.5,11 H 15 V 9.5 A 1.5,1.5 0 0 1 16.5,8 Z m -4,-4 A 1.5,1.5 0 0 0 11,5.5 v 4 A 1.5,1.5 0 0 0 12.5,11 1.5,1.5 0 0 0 14,9.5 v -4 A 1.5,1.5 0 0 0 12.5,4 Z"
     id="path5" />
  <path
     style="fill:#ecb22e"
     d="M 12.5,19 A 1.5,1.5 0 0 0 14,17.5 1.5,1.5 0 0 0 12.5,16 H 11 v 1.5 A 1.5,1.5 0 0 0 12.5,19 Z M 18,13.5 A 1.5,1.5 0 0 0 16.5,12 h -4 A 1.5,1.5 0 0 0 11,13.5 1.5,1.5 0 0 0 12.5,15 h 4 A 1.5,1.5 0 0 0 18,13.5 Z"
     id="path6" />
  <path
     style="fill:#e01e5a"
     d="M 4.5,15 A 1.5,1.5 0 0 1 3,13.5 1.5,1.5 0 0 1 4.5,12 H 6 v 1.5 A 1.5,1.5 0 0 1 4.5,15 Z m 4,-3 A 1.5,1.5 0 0 0 7,13.5 v 4 A 1.5,1.5 0 0 0 8.5,19 1.5,1.5 0 0 0 10,17.5 v -4 A 1.5,1.5 0 0 0 8.5,12 Z"
     id="path7" />
</svg>
