<?xml version="1.0" encoding="UTF-8" standalone="no"?>
<!-- Created with Inkscape (http://www.inkscape.org/) -->

<svg
   width="22"
   height="22"
   viewBox="0 0 22 22.000002"
   version="1.1"
   id="svg1"
   inkscape:version="1.4.3 (0d15f75042, 2025-12-25)"
   sodipodi:docname="vim.svg"
   xmlns:inkscape="http://www.inkscape.org/namespaces/inkscape"
   xmlns:sodipodi="http://sodipodi.sourceforge.net/DTD/sodipodi-0.dtd"
   xmlns:xlink="http://www.w3.org/1999/xlink"
   xmlns="http://www.w3.org/2000/svg"
   xmlns:svg="http://www.w3.org/2000/svg">
  <sodipodi:namedview
     id="namedview1"
     pagecolor="#ffffff"
     bordercolor="#000000"
     borderopacity="0.25"
     inkscape:showpageshadow="2"
     inkscape:pageopacity="0.0"
     inkscape:pagecheckerboard="0"
     inkscape:deskcolor="#d1d1d1"
     inkscape:document-units="px"
     inkscape:zoom="26.409091"
     inkscape:cx="10.981067"
     inkscape:cy="11"
     inkscape:window-width="1440"
     inkscape:window-height="832"
     inkscape:window-x="0"
     inkscape:window-y="0"
     inkscape:window-maximized="1"
     inkscape:current-layer="svg1"
     showguides="false" />
  <defs
     id="defs1">
    <linearGradient
       inkscape:collect="always"
       id="linearGradient6">
      <stop
         style="stop-color:#bbe88b;stop-opacity:1;"
         offset="0"
         id="stop5" />
      <stop
         style="stop-color:#c7f3b4;stop-opacity:1;"
         offset="1"
         id="stop6" />
    </linearGradient>
    <linearGradient
       inkscape:collect="always"
       id="linearGradient4">
      <stop
         style="stop-color:#3c8024;stop-opacity:1;"
         offset="0"
         id="stop3" />
      <stop
         style="stop-color:#70cf6a;stop-opacity:1;"
         offset="1"
         id="stop4" />
    </linearGradient>
    <linearGradient
       inkscape:collect="always"
       xlink:href="#linearGradient6"
       id="linearGradient8"
       x1="11"
       y1="21"
       x2="11"
       y2="1"
       gradientUnits="userSpaceOnUse" />
    <linearGradient
       inkscape:collect="always"
       xlink:href="#linearGradient4"
       id="linearGradient10"
       x1="22.627417"
       y1="7.0710678"
       x2="8.485281"
       y2="-7.0710678"
       gradientUnits="userSpaceOnUse" />
  </defs>
  <rect
     style="opacity:0.2;fill:#000000;stroke-width:1.75"
     id="rect1"
     width="20"
     height="20"
     x="1"
     y="1.5"
     ry="4" />
  <rect
     style="fill:url(#linearGradient8);stroke-width:0.714286;fill-opacity:1"
     id="rect2"
     width="20"
     height="20"
     x="1"
     y="1"
     ry="4" />
  <rect
     style="opacity:1;fill:url(#linearGradient10);stroke:none;stroke-width:2;stroke-linecap:square;stroke-linejoin:miter;stroke-dasharray:none;stroke-opacity:1;paint-order:stroke fill markers"
     id="rect3"
     width="10"
     height="10"
     x="10.556349"
     y="-5"
     ry="1"
     transform="rotate(45)" />
  <path
     id="path1"
     style="fill:#ffffff;stroke:none;stroke-linecap:round;stroke-linejoin:round;paint-order:stroke fill markers"
     d="M 6.5,6 C 6.2230003,6 6,6.2230003 6,6.5 6,6.7769997 6.2230003,7 6.5,7 H 7 V 7.5 15 c 0.001,0.910838 1.1198606,1.3463 1.7363281,0.675781 L 16.853516,6.8535156 C 16.943886,6.7631406 17,6.6384999 17,6.5 17,6.2230003 16.777,6 16.5,6 h -3 C 13.223,6 13,6.2230003 13,6.5 13,6.7769997 13.223,7 13.5,7 h 0.478516 L 9,12.429688 V 7.5 7 H 9.5 C 9.7769997,7 10,6.7769997 10,6.5 10,6.2230003 9.7769997,6 9.5,6 Z" />
</svg>
