<?xml version="1.0" encoding="UTF-8" standalone="no"?>
<!-- Created with Inkscape (http://www.inkscape.org/) -->

<svg
   width="32"
   height="32"
   viewBox="0 0 32 32.000002"
   version="1.1"
   id="svg1"
   inkscape:version="1.4.4 (dcaf3e7d9e, 2026-05-05)"
   sodipodi:docname="accessories-calculator.svg"
   xmlns:inkscape="http://www.inkscape.org/namespaces/inkscape"
   xmlns:sodipodi="http://sodipodi.sourceforge.net/DTD/sodipodi-0.dtd"
   xmlns:xlink="http://www.w3.org/1999/xlink"
   xmlns="http://www.w3.org/2000/svg"
   xmlns:svg="http://www.w3.org/2000/svg">
  <sodipodi:namedview
     id="namedview1"
     pagecolor="#ffffff"
     bordercolor="#000000"
     borderopacity="0.25"
     inkscape:showpageshadow="2"
     inkscape:pageopacity="0.0"
     inkscape:pagecheckerboard="0"
     inkscape:deskcolor="#d1d1d1"
     inkscape:document-units="px"
     inkscape:zoom="24.5625"
     inkscape:cx="16"
     inkscape:cy="15.959288"
     inkscape:window-width="1920"
     inkscape:window-height="1012"
     inkscape:window-x="0"
     inkscape:window-y="0"
     inkscape:window-maximized="1"
     inkscape:current-layer="svg1" />
  <defs
     id="defs1">
    <linearGradient
       inkscape:collect="always"
       id="linearGradient1606">
      <stop
         style="stop-color:#eaebed;stop-opacity:1;"
         offset="0"
         id="stop1602" />
      <stop
         style="stop-color:#f9fafa;stop-opacity:1;"
         offset="1"
         id="stop1604" />
    </linearGradient>
    <linearGradient
       inkscape:collect="always"
       xlink:href="#linearGradient1606"
       id="linearGradient4"
       x1="16"
       y1="30"
       x2="16"
       y2="2"
       gradientUnits="userSpaceOnUse" />
    <linearGradient
       inkscape:collect="always"
       id="linearGradient3147">
      <stop
         style="stop-color:#19d19a;stop-opacity:1;"
         offset="0"
         id="stop3143" />
      <stop
         style="stop-color:#6ee3c4;stop-opacity:1;"
         offset="1"
         id="stop3145" />
    </linearGradient>
    <linearGradient
       inkscape:collect="always"
       xlink:href="#linearGradient3147"
       id="linearGradient3"
       x1="16"
       y1="30"
       x2="16"
       y2="16"
       gradientUnits="userSpaceOnUse" />
  </defs>
  <rect
     style="fill:#000000;stroke-width:1.75;opacity:0.2"
     id="rect1"
     width="28"
     height="28"
     x="2"
     y="3"
     ry="6" />
  <rect
     style="fill:url(#linearGradient4)"
     id="rect2"
     width="28"
     height="28"
     x="2"
     y="2"
     ry="6" />
  <path
     id="rect686"
     style="fill:url(#linearGradient3);fill-opacity:1;stroke-width:1.57143;stroke-linecap:round;stroke-linejoin:round"
     d="m 18,16 c -1.107999,0 -2,0.892001 -2,2 v 9 c 0,1.107999 0.892001,2 2,2 h 6 a 5,5 0 0 0 5,-5 v -6 c 0,-1.107999 -0.892001,-2 -2,-2 z" />
  <path
     id="path364"
     style="fill:#666666;stroke-width:6.85863;stroke-linejoin:round;fill-opacity:1"
     d="m 8.9995156,7 v 3 h -3 v 1 h 3 v 3 H 9.999516 v -3 h 3 v -1 h -3 V 7 Z m 10.0000004,3 v 1 h 7 V 10 Z M 6.3530312,18.646484 5.646,19.353516 8.2924844,22 5.646,24.646484 6.3530312,25.353516 8.9995156,22.707031 11.646,25.353516 12.353032,24.646484 9.706547,22 12.353032,19.353516 11.646,18.646484 8.9995156,21.292969 Z" />
  <path
     d="m 18.999516,20 v 0.999999 h 7 V 20 Z m 0,3.000001 V 24 h 7 v -0.999999 z"
     style="fill:#ffffff;stroke-width:6.8586;stroke-linejoin:round"
     id="path697"
     sodipodi:nodetypes="cccccccccc" />
</svg>
