<?xml version="1.0" encoding="UTF-8" standalone="no"?>
<!-- Created with Inkscape (http://www.inkscape.org/) -->

<svg
   width="48"
   height="48"
   viewBox="0 0 48 48.000003"
   version="1.1"
   id="svg1"
   inkscape:version="1.4.2 (ebf0e940d0, 2025-05-08)"
   sodipodi:docname="cs-user-accounts.svg"
   xmlns:inkscape="http://www.inkscape.org/namespaces/inkscape"
   xmlns:sodipodi="http://sodipodi.sourceforge.net/DTD/sodipodi-0.dtd"
   xmlns:xlink="http://www.w3.org/1999/xlink"
   xmlns="http://www.w3.org/2000/svg"
   xmlns:svg="http://www.w3.org/2000/svg">
  <sodipodi:namedview
     id="namedview1"
     pagecolor="#ffffff"
     bordercolor="#000000"
     borderopacity="0.25"
     inkscape:showpageshadow="2"
     inkscape:pageopacity="0.0"
     inkscape:pagecheckerboard="0"
     inkscape:deskcolor="#d1d1d1"
     inkscape:document-units="px"
     inkscape:zoom="16.583333"
     inkscape:cx="24"
     inkscape:cy="24"
     inkscape:window-width="1920"
     inkscape:window-height="1010"
     inkscape:window-x="0"
     inkscape:window-y="0"
     inkscape:window-maximized="1"
     inkscape:current-layer="svg1" />
  <defs
     id="defs1">
    <linearGradient
       inkscape:collect="always"
       xlink:href="#linearGradient3147"
       id="linearGradient4"
       x1="16"
       y1="30"
       x2="16"
       y2="2"
       gradientUnits="userSpaceOnUse"
       gradientTransform="scale(1.5)" />
    <linearGradient
       inkscape:collect="always"
       id="linearGradient3147">
      <stop
         style="stop-color:#0091f9;stop-opacity:1;"
         offset="0"
         id="stop3143" />
      <stop
         style="stop-color:#41bbff;stop-opacity:1;"
         offset="1"
         id="stop3145" />
    </linearGradient>
  </defs>
  <rect
     style="opacity:0.2;fill:#000000;stroke-width:2.625"
     id="rect1"
     width="42"
     height="42"
     x="3"
     y="4"
     ry="9" />
  <rect
     style="fill:url(#linearGradient4);stroke-width:1.5"
     id="rect2"
     width="42"
     height="42"
     x="3"
     y="3"
     ry="9" />
  <path
     id="path905"
     style="fill:#ffffff;stroke-width:1.3175"
     d="m 28,11 c -2.01552,0 -3.751655,1.192179 -4.542969,2.910156 C 25.573861,15.113695 27,17.389683 27,20 27,20.300975 26.98017,20.597729 26.94336,20.888672 27.283687,20.961758 27.637758,21 28,21 c 2.762491,0 5,-2.237509 5,-5 0,-2.762491 -2.237509,-5 -5,-5 z m -8,4 c -2.761416,0 -5,2.238759 -5,5 0,2.762491 2.237509,5 5,5 2.762491,0 5,-2.237509 5,-5 0,-2.762491 -2.237509,-5 -5,-5 z m 8,9 c -0.852862,6.05e-4 -1.639495,0.05606 -2.365234,0.15625 -0.64549,0.87403 -1.488646,1.591944 -2.464844,2.087891 5.428169,0.894205 7.858526,4.079608 8.947266,6.753906 L 39,33 c 0,0 -3.3e-5,-9.006 -11,-9 z m -8,4 C 8.999483,28.0078 9,36.996094 9,36.996094 L 31,37 c 0,0 -3.3e-5,-9.006 -11,-9 z" />
</svg>
