<?xml version="1.0" encoding="UTF-8" standalone="no"?>
<!-- Created with Inkscape (http://www.inkscape.org/) -->

<svg
   width="48"
   height="48"
   viewBox="0 0 48 48.000003"
   version="1.1"
   id="svg1"
   inkscape:version="1.4.3 (0d15f75042, 2025-12-25)"
   sodipodi:docname="fbmessenger.svg"
   xmlns:inkscape="http://www.inkscape.org/namespaces/inkscape"
   xmlns:sodipodi="http://sodipodi.sourceforge.net/DTD/sodipodi-0.dtd"
   xmlns:xlink="http://www.w3.org/1999/xlink"
   xmlns="http://www.w3.org/2000/svg"
   xmlns:svg="http://www.w3.org/2000/svg">
  <sodipodi:namedview
     id="namedview1"
     pagecolor="#ffffff"
     bordercolor="#000000"
     borderopacity="0.25"
     inkscape:showpageshadow="2"
     inkscape:pageopacity="0.0"
     inkscape:pagecheckerboard="0"
     inkscape:deskcolor="#d1d1d1"
     inkscape:document-units="px"
     inkscape:zoom="17.0625"
     inkscape:cx="24"
     inkscape:cy="24"
     inkscape:window-width="1920"
     inkscape:window-height="1022"
     inkscape:window-x="0"
     inkscape:window-y="0"
     inkscape:window-maximized="1"
     inkscape:current-layer="svg1" />
  <defs
     id="defs1">
    <linearGradient
       inkscape:collect="always"
       id="linearGradient1606">
      <stop
         style="stop-color:#eaebed;stop-opacity:1;"
         offset="0"
         id="stop1602" />
      <stop
         style="stop-color:#f9fafa;stop-opacity:1;"
         offset="1"
         id="stop1604" />
    </linearGradient>
    <linearGradient
       inkscape:collect="always"
       xlink:href="#linearGradient1606"
       id="linearGradient4"
       x1="16"
       y1="30"
       x2="16"
       y2="2"
       gradientUnits="userSpaceOnUse"
       gradientTransform="scale(1.5)" />
    <radialGradient
       inkscape:collect="always"
       xlink:href="#linearGradient982"
       id="radialGradient1977"
       cx="29.445274"
       cy="36.813942"
       fx="29.445274"
       fy="36.813942"
       r="20"
       gradientTransform="matrix(1.1500174e-7,1.6124999,-1.5750665,1.8742361e-7,73.257125,-8.4564544)"
       gradientUnits="userSpaceOnUse" />
    <linearGradient
       inkscape:collect="always"
       id="linearGradient982">
      <stop
         style="stop-color:#0099ff;stop-opacity:1;"
         offset="0"
         id="stop978" />
      <stop
         style="stop-color:#a033ff;stop-opacity:1;"
         offset="0.60000002"
         id="stop986" />
      <stop
         style="stop-color:#ff5280;stop-opacity:1;"
         offset="0.93000001"
         id="stop988" />
      <stop
         style="stop-color:#ff7061;stop-opacity:1;"
         offset="1"
         id="stop980" />
    </linearGradient>
  </defs>
  <rect
     style="opacity:0.2;fill:#000000;stroke-width:2.625"
     id="rect1"
     width="42"
     height="42"
     x="3"
     y="4"
     ry="9" />
  <rect
     style="fill:url(#linearGradient4);stroke-width:1.5"
     id="rect2"
     width="42"
     height="42"
     x="3"
     y="3"
     ry="9" />
  <path
     d="M 24,9 C 15.55125,9 9,15.191249 9,23.549999 c 0,4.3725 1.7925,8.152501 4.71,10.762501 0.24375,0.2175 0.39375,0.524999 0.40125,0.854999 l 0.0825,2.67 c 0.02625,0.851251 0.90375,1.40625 1.68375,1.06125 l 2.9775,-1.3125 c 0.25125,-0.1125 0.53625,-0.131249 0.8025,-0.06 1.36875,0.375 2.82375,0.5775 4.3425,0.5775 8.44875,0 15,-6.19125 15,-14.55 C 39,15.194999 32.44875,9 24,9 Z"
     style="fill:url(#radialGradient1977);fill-opacity:1;stroke-width:0.0375"
     id="path1218" />
  <path
     d="m 15.114614,27.437544 4.346034,-6.772297 c 0.691667,-1.079062 2.171168,-1.344286 3.210517,-0.581312 l 3.458334,2.546878 c 0.318093,0.232525 0.754545,0.232525 1.068939,-0.0037 L 31.866265,19.1465 c 0.62139,-0.465049 1.435115,0.268858 1.020855,0.919201 l -4.349733,6.768664 c -0.691667,1.079063 -2.171168,1.344287 -3.210517,0.581314 l -3.458334,-2.546877 c -0.318093,-0.232526 -0.754545,-0.232526 -1.068939,0.0037 l -4.667826,3.480612 c -0.62139,0.465051 -1.435116,-0.265224 -1.017157,-0.91557 z"
     style="fill:#ffffff;stroke-width:0.0366583"
     id="path11549" />
</svg>
