<?xml version="1.0" encoding="UTF-8" standalone="no"?>
<!-- Created with Inkscape (http://www.inkscape.org/) -->

<svg
   width="48"
   height="48"
   viewBox="0 0 48 48.000003"
   version="1.1"
   id="svg1"
   inkscape:version="1.4.2 (ebf0e940d0, 2025-05-08)"
   sodipodi:docname="git.svg"
   xmlns:inkscape="http://www.inkscape.org/namespaces/inkscape"
   xmlns:sodipodi="http://sodipodi.sourceforge.net/DTD/sodipodi-0.dtd"
   xmlns:xlink="http://www.w3.org/1999/xlink"
   xmlns="http://www.w3.org/2000/svg"
   xmlns:svg="http://www.w3.org/2000/svg">
  <sodipodi:namedview
     id="namedview1"
     pagecolor="#ffffff"
     bordercolor="#000000"
     borderopacity="0.25"
     inkscape:showpageshadow="2"
     inkscape:pageopacity="0.0"
     inkscape:pagecheckerboard="0"
     inkscape:deskcolor="#d1d1d1"
     inkscape:document-units="px"
     inkscape:zoom="16.854167"
     inkscape:cx="24"
     inkscape:cy="24"
     inkscape:window-width="1920"
     inkscape:window-height="1011"
     inkscape:window-x="0"
     inkscape:window-y="0"
     inkscape:window-maximized="1"
     inkscape:current-layer="svg1" />
  <defs
     id="defs1">
    <linearGradient
       inkscape:collect="always"
       xlink:href="#linearGradient1482"
       id="linearGradient4"
       x1="16"
       y1="30"
       x2="16"
       y2="2"
       gradientUnits="userSpaceOnUse"
       gradientTransform="scale(1.5)" />
    <linearGradient
       inkscape:collect="always"
       id="linearGradient1482">
      <stop
         style="stop-color:#b32420;stop-opacity:1;"
         offset="0"
         id="stop1478" />
      <stop
         style="stop-color:#ec6b52;stop-opacity:1;"
         offset="1"
         id="stop1480" />
    </linearGradient>
  </defs>
  <rect
     style="opacity:0.2;fill:#000000;stroke-width:2.625"
     id="rect1"
     width="42"
     height="42"
     x="3"
     y="4"
     ry="9" />
  <rect
     style="fill:url(#linearGradient4);stroke-width:1.5"
     id="rect2"
     width="42"
     height="42"
     x="3"
     y="3"
     ry="9" />
  <path
     id="rect2-9"
     style="opacity:0.3;fill:#ffffff"
     d="M 21.878906 9.8574219 L 10.929688 20.806641 L 22.585938 37.171875 L 35.888672 23.867188 L 21.878906 9.8574219 z " />
  <path
     id="rect2963"
     style="fill:#ffffff;stroke-width:2"
     d="m 9.8576793,21.878495 c -1.1715724,1.171573 -1.1715724,3.071067 0,4.24264 L 21.878495,38.141951 c 1.171573,1.171572 3.071067,1.171572 4.24264,0 L 38.141951,26.121135 c 1.171572,-1.171573 1.171572,-3.071067 0,-4.24264 L 26.121135,9.8576793 c -1.171573,-1.1715724 -3.071067,-1.1715724 -4.24264,0 l -1.950068,1.9500677 1.777435,1.777434 c 0.403746,-0.192857 0.845235,-0.292775 1.292678,-0.292786 1.656852,0 2.99968,1.342829 2.99968,2.99968 -1.2e-5,0.447443 -0.09993,0.888931 -0.292786,1.292679 l 3.207701,3.208167 c 0.403745,-0.192857 0.845236,-0.292775 1.29268,-0.292785 1.656849,-2e-6 2.999679,1.342829 2.999679,2.999679 10e-7,1.656852 -1.342828,2.999681 -2.999679,2.999679 -1.65685,0 -2.999681,-1.34283 -2.999679,-2.999679 10e-6,-0.447444 0.09993,-0.888932 0.292786,-1.29268 l -3.207701,-3.208167 c -0.09585,0.03888 -0.193463,0.07341 -0.292787,0.102199 v 7.780936 c 1.197181,0.423266 1.996623,1.554485 1.998405,2.824285 0,1.656851 -1.342829,2.99968 -2.999679,2.999679 -1.656851,-3e-6 -2.99968,-1.342829 -2.99968,-2.99968 0.0084,-1.264061 0.809363,-2.386378 2.001168,-2.80771 v -7.79751 c -1.191809,-0.421341 -1.991427,-1.545032 -1.999787,-2.809092 1.2e-5,-0.447444 0.09993,-0.88893 0.292787,-1.29268 l -1.777434,-1.777434 z"
     sodipodi:nodetypes="sssssssscccccccssccccccsccccccs" />
</svg>
