<?xml version="1.0" encoding="UTF-8" standalone="no"?>
<!-- Created with Inkscape (http://www.inkscape.org/) -->

<svg
   width="48"
   height="48"
   viewBox="0 0 48 48.000004"
   version="1.1"
   id="svg1"
   inkscape:version="1.4.4 (dcaf3e7d9e, 2026-05-05)"
   sodipodi:docname="google-docs.svg"
   xmlns:inkscape="http://www.inkscape.org/namespaces/inkscape"
   xmlns:sodipodi="http://sodipodi.sourceforge.net/DTD/sodipodi-0.dtd"
   xmlns:xlink="http://www.w3.org/1999/xlink"
   xmlns="http://www.w3.org/2000/svg"
   xmlns:svg="http://www.w3.org/2000/svg">
  <sodipodi:namedview
     id="namedview1"
     pagecolor="#ffffff"
     bordercolor="#000000"
     borderopacity="0.25"
     inkscape:showpageshadow="2"
     inkscape:pageopacity="0.0"
     inkscape:pagecheckerboard="0"
     inkscape:deskcolor="#d1d1d1"
     inkscape:document-units="px"
     inkscape:zoom="16.833333"
     inkscape:cx="24"
     inkscape:cy="23.940595"
     inkscape:window-width="1920"
     inkscape:window-height="1012"
     inkscape:window-x="0"
     inkscape:window-y="0"
     inkscape:window-maximized="1"
     inkscape:current-layer="svg1" />
  <defs
     id="defs1">
    <mask
       maskUnits="userSpaceOnUse"
       id="mask11">
      <path
         id="path12"
         style="fill:#ffffff;stroke-width:1"
         d="m 60.485399,8.0000047 c -8.943498,0 -13.411035,0.00488 -16.958333,1.409375 C 38.392489,11.442311 34.330835,15.503969 32.2979,20.638546 30.893403,24.185847 30.888525,28.653378 30.888525,37.596879 V 154.40313 c 0,8.94298 0.0049,13.41133 1.409375,16.95833 2.032706,5.13496 6.09439,9.19601 11.229166,11.22917 3.547298,1.404 8.014835,1.40937 16.958333,1.40937 h 69.861451 c 8.94501,0 13.4114,-0.005 16.95834,-1.40937 5.13458,-2.03293 9.2077,-6.0946 11.24062,-11.22917 1.405,-3.547 1.39792,-8.02671 1.39792,-16.99271 0.001,-29.567 0.0223,-30.05233 0.0575,-78.970832 0.002,-2.372099 0.006,-3.5596 -0.20627,-4.675 -0.30649,-1.611966 -0.93432,-3.145964 -1.85643,-4.503123 -0.638,-0.939102 -1.47858,-1.765142 -3.13958,-3.426041 L 100.01665,8.0000047 Z" />
    </mask>
    <filter
       id="b"
       x="31"
       y="8"
       width="130"
       height="196"
       filterUnits="userSpaceOnUse"
       color-interpolation-filters="sRGB">
      <feFlood
         flood-opacity="0"
         result="BackgroundImageFix"
         id="feFlood6" />
      <feBlend
         mode="normal"
         in="SourceGraphic"
         in2="BackgroundImageFix"
         result="shape"
         id="feBlend6" />
      <feGaussianBlur
         stdDeviation="6"
         result="effect1_foregroundBlur_37242_8762"
         id="feGaussianBlur6" />
    </filter>
    <linearGradient
       inkscape:collect="always"
       xlink:href="#linearGradient10"
       id="linearGradient11"
       x1="-59.792999"
       y1="62.774845"
       x2="-109.14207"
       y2="195.73334"
       gradientUnits="userSpaceOnUse"
       gradientTransform="translate(176,-11.733333)" />
    <linearGradient
       id="linearGradient10"
       inkscape:collect="always">
      <stop
         style="stop-color:#3186ff;stop-opacity:1;"
         offset="0.33349398"
         id="stop10" />
      <stop
         style="stop-color:#a9a8ff;stop-opacity:1;"
         offset="1"
         id="stop11" />
    </linearGradient>
  </defs>
  <rect
     style="opacity:0.2;fill:#000000;stroke-width:3.675"
     id="rect1"
     width="42"
     height="42"
     x="3"
     y="4"
     ry="9" />
  <rect
     style="fill:#fafafa;stroke-width:1.5;fill-opacity:1"
     id="rect2"
     width="42"
     height="42"
     x="3"
     y="3"
     ry="9" />
  <g
     mask="url(#mask11)"
     transform="matrix(0.17045455,0,0,0.17045455,7.7349105,7.6363628)"
     id="g4">
    <path
       id="path2"
       style="fill:#3186ff;fill-opacity:1"
       d="M 30.877067,8.0000047 V 184 H 159.94373 L 160.00102,67.995836 100.00519,8.0000047 Z" />
    <g
       filter="url(#b)"
       id="g3">
      <path
         d="M 42.610397,192 H 149.38373 V 20 H 42.610397 Z"
         style="fill:url(#linearGradient11);stroke-width:1.00364"
         id="path3" />
    </g>
  </g>
  <path
     id="path4"
     style="fill:#76bbff;fill-opacity:1;stroke-width:0.0272717"
     d="M 24.78125,8.9999994 V 15.68164 c 0,1.204942 0.976697,2.181641 2.181641,2.181641 h 5.658203 c 0.575283,0 1.106044,0.191128 1.533203,0.511718 z" />
  <rect
     x="18"
     y="27"
     width="12"
     height="2"
     id="rect4"
     rx="1"
     style="fill:#ffffff;stroke-width:0.0272717;fill-opacity:1" />
  <rect
     x="18"
     y="31"
     width="9"
     height="2"
     id="rect5"
     rx="1"
     style="fill:#ffffff;stroke-width:0.0272717;fill-opacity:1" />
</svg>
