<?xml version="1.0" encoding="UTF-8" standalone="no"?>
<!-- Created with Inkscape (http://www.inkscape.org/) -->

<svg
   width="48"
   height="48"
   viewBox="0 0 48 48.000003"
   version="1.1"
   id="svg1"
   inkscape:version="1.4.3 (0d15f75042, 2025-12-25)"
   sodipodi:docname="krita.svg"
   xmlns:inkscape="http://www.inkscape.org/namespaces/inkscape"
   xmlns:sodipodi="http://sodipodi.sourceforge.net/DTD/sodipodi-0.dtd"
   xmlns:xlink="http://www.w3.org/1999/xlink"
   xmlns="http://www.w3.org/2000/svg"
   xmlns:svg="http://www.w3.org/2000/svg">
  <sodipodi:namedview
     id="namedview1"
     pagecolor="#ffffff"
     bordercolor="#000000"
     borderopacity="0.25"
     inkscape:showpageshadow="2"
     inkscape:pageopacity="0.0"
     inkscape:pagecheckerboard="0"
     inkscape:deskcolor="#d1d1d1"
     inkscape:document-units="px"
     inkscape:zoom="12.125"
     inkscape:cx="23.958763"
     inkscape:cy="24"
     inkscape:window-width="1440"
     inkscape:window-height="833"
     inkscape:window-x="0"
     inkscape:window-y="0"
     inkscape:window-maximized="1"
     inkscape:current-layer="svg1" />
  <defs
     id="defs1">
    <linearGradient
       inkscape:collect="always"
       xlink:href="#linearGradient14594"
       id="linearGradient3"
       x1="0.68586582"
       y1="14.784369"
       x2="12.315187"
       y2="6.3497896"
       gradientUnits="userSpaceOnUse"
       gradientTransform="matrix(2.625,0,0,2.625,3,3)" />
    <linearGradient
       inkscape:collect="always"
       id="linearGradient14594">
      <stop
         style="stop-color:#00ffff;stop-opacity:1;"
         offset="0"
         id="stop14590" />
      <stop
         style="stop-color:#00ffff;stop-opacity:0;"
         offset="1"
         id="stop14592" />
    </linearGradient>
    <linearGradient
       inkscape:collect="always"
       xlink:href="#linearGradient11318"
       id="linearGradient6"
       x1="8"
       y1="0"
       x2="8.0090408"
       y2="12.052821"
       gradientUnits="userSpaceOnUse"
       gradientTransform="matrix(2.625,0,0,2.625,3,3)" />
    <linearGradient
       inkscape:collect="always"
       id="linearGradient11318">
      <stop
         style="stop-color:#ff00ff;stop-opacity:1;"
         offset="0"
         id="stop11314" />
      <stop
         style="stop-color:#ff00ff;stop-opacity:0;"
         offset="1"
         id="stop11316" />
    </linearGradient>
    <linearGradient
       inkscape:collect="always"
       xlink:href="#linearGradient16418"
       id="linearGradient4"
       gradientUnits="userSpaceOnUse"
       x1="15.435989"
       y1="14.619339"
       x2="3.6365659"
       y2="6.3670936"
       gradientTransform="matrix(2.625,0,0,2.625,3,3)" />
    <linearGradient
       inkscape:collect="always"
       id="linearGradient16418">
      <stop
         style="stop-color:#ffff00;stop-opacity:1;"
         offset="0"
         id="stop16414" />
      <stop
         style="stop-color:#ffff00;stop-opacity:0;"
         offset="1"
         id="stop16416" />
    </linearGradient>
    <linearGradient
       inkscape:collect="always"
       xlink:href="#linearGradient9492"
       id="linearGradient9494"
       x1="37.722"
       y1="46.082916"
       x2="22.044758"
       y2="46.082916"
       gradientUnits="userSpaceOnUse"
       gradientTransform="matrix(1.5000101,0,0,1.5000101,-24.000913,-35.999809)" />
    <linearGradient
       inkscape:collect="always"
       id="linearGradient9492">
      <stop
         style="stop-color:#5596ea;stop-opacity:1;"
         offset="0"
         id="stop9488" />
      <stop
         style="stop-color:#5596ea;stop-opacity:0;"
         offset="1"
         id="stop9490" />
    </linearGradient>
  </defs>
  <rect
     style="opacity:0.2;fill:#000000;stroke-width:2.625"
     id="rect1"
     width="42"
     height="42"
     x="3"
     y="4"
     ry="8.999999" />
  <rect
     style="fill:#ffffff;stroke-width:1.5"
     id="rect2"
     width="42"
     height="42"
     x="3"
     y="3"
     ry="8.999999" />
  <rect
     style="fill:url(#linearGradient3);stroke-width:2.625"
     id="rect3"
     width="42"
     height="42"
     x="3"
     y="3"
     ry="8.999999" />
  <rect
     style="fill:url(#linearGradient4);stroke-width:2.625"
     id="rect4"
     width="42"
     height="42"
     x="3"
     y="3"
     ry="8.999999" />
  <rect
     style="fill:url(#linearGradient6);stroke-width:2.625"
     id="rect5"
     width="42"
     height="42"
     x="3"
     y="3"
     ry="8.999999" />
  <path
     id="path1"
     style="fill:#7f7f7f;fill-opacity:1;stroke-width:1.5"
     d="m 3,35 v 1 c 0,4.986001 4.014,9 9,9 h 24 c 4.986001,0 9,-4.013999 9,-9 v -1 c 0,4.986 -4.013999,9 -9,9 H 12 C 7.014,44 3,39.986 3,35 Z" />
  <path
     d="M 32.849585,28.260062 C 20.999504,38.584524 10.15509,29.363169 8.5823105,25.749616 9.5123755,32.021722 13.811411,37.634517 20.3059,39.794587 c 4.904938,1.631351 15.001126,0.550091 15.760733,-4.451988 z"
     style="fill:url(#linearGradient9494);fill-opacity:1;stroke-width:1.50002"
     id="path2" />
  <path
     id="path3"
     style="fill:#4f4f4f;stroke-width:1.50002"
     d="M 6.0234375,5.261719 C 5.015966,6.1552305 4.2104209,7.269738 3.6855468,8.534179 7.7922195,12.713411 14.314936,19.396411 16.019532,21.322265 c 2.633808,2.975669 8.873748,7.7155 12.117186,4.728516 C 30.428673,22.302099 24.443754,17.251735 20.950195,15.322266 18.611974,14.030891 10.87071,8.5611615 6.0234375,5.261719 Z" />
  <path
     d="m 32.665284,29.732486 c -1.013788,0.456459 -0.904151,0.786381 -1.804306,0.64406 -0.620847,-0.09816 -5.999266,-4.106197 -5.999266,-4.106197 -0.272613,-0.643169 0.0544,-1.527351 0.66868,-2.227153 0.569734,-0.73531 1.382271,-1.232338 2.078675,-1.102833 0,0 5.099077,4.346611 5.324903,4.923571 0.327413,0.836536 -0.02358,0.799156 -0.268686,1.868552 z"
     style="fill:#9b9b9b;stroke-width:1.50002"
     id="path4" />
  <path
     d="m 33.6644,38.526645 c 3.812505,-2.114689 4.708865,-5.925303 3.203462,-8.620519 -1.169841,-2.09443 -3.090655,-2.490415 -4.417354,-1.477696 -1.316113,1.004638 -1.432135,2.201755 -1.039547,3.390701 0.800625,2.42491 4.233893,4.206545 2.253439,6.707514 z"
     style="fill:#3f3f3f;stroke-width:1.50002"
     id="path5" />
</svg>
