<?xml version="1.0" encoding="UTF-8" standalone="no"?>
<!-- Created with Inkscape (http://www.inkscape.org/) -->

<svg
   width="48"
   height="48"
   viewBox="0 0 48 48.000003"
   version="1.1"
   id="svg1"
   inkscape:version="1.4.3 (0d15f75042, 2025-12-25)"
   sodipodi:docname="pulseeffects.svg"
   xmlns:inkscape="http://www.inkscape.org/namespaces/inkscape"
   xmlns:sodipodi="http://sodipodi.sourceforge.net/DTD/sodipodi-0.dtd"
   xmlns:xlink="http://www.w3.org/1999/xlink"
   xmlns="http://www.w3.org/2000/svg"
   xmlns:svg="http://www.w3.org/2000/svg">
  <sodipodi:namedview
     id="namedview1"
     pagecolor="#ffffff"
     bordercolor="#000000"
     borderopacity="0.25"
     inkscape:showpageshadow="2"
     inkscape:pageopacity="0.0"
     inkscape:pagecheckerboard="0"
     inkscape:deskcolor="#d1d1d1"
     inkscape:document-units="px"
     inkscape:zoom="16.875"
     inkscape:cx="24"
     inkscape:cy="24"
     inkscape:window-width="1920"
     inkscape:window-height="1012"
     inkscape:window-x="0"
     inkscape:window-y="0"
     inkscape:window-maximized="1"
     inkscape:current-layer="svg1" />
  <defs
     id="defs1">
    <linearGradient
       inkscape:collect="always"
       xlink:href="#linearGradient3147"
       id="linearGradient4"
       x1="16"
       y1="30"
       x2="16"
       y2="2"
       gradientUnits="userSpaceOnUse"
       gradientTransform="scale(1.5)" />
    <linearGradient
       inkscape:collect="always"
       id="linearGradient3147">
      <stop
         style="stop-color:#0091f9;stop-opacity:1;"
         offset="0"
         id="stop3143" />
      <stop
         style="stop-color:#41bbff;stop-opacity:1;"
         offset="1"
         id="stop3145" />
    </linearGradient>
  </defs>
  <rect
     style="opacity:0.2;fill:#000000;stroke-width:2.625"
     id="rect1"
     width="42"
     height="42"
     x="3"
     y="4"
     ry="9" />
  <rect
     style="fill:url(#linearGradient4);stroke-width:1.5"
     id="rect2"
     width="42"
     height="42"
     x="3"
     y="3"
     ry="9" />
  <rect
     style="opacity:0.4;fill:#000000;stroke-width:2"
     id="rect3"
     width="4"
     height="28"
     x="10"
     y="10"
     ry="2" />
  <rect
     style="opacity:0.4;fill:#000000;stroke-width:2"
     id="rect4"
     width="4"
     height="28"
     x="22"
     y="10"
     ry="2" />
  <rect
     style="opacity:0.4;fill:#000000"
     id="rect5"
     width="4"
     height="28"
     x="34"
     y="10"
     ry="2" />
  <rect
     style="fill:#bef3ff;fill-opacity:1;stroke-width:2"
     id="rect5-6"
     width="4"
     height="18"
     x="10"
     y="20"
     ry="2" />
  <rect
     style="fill:#bef3ff;fill-opacity:1;stroke-width:2"
     id="rect6"
     width="4"
     height="12"
     x="22"
     y="26"
     ry="2" />
  <rect
     style="fill:#bef3ff;fill-opacity:1;stroke-width:2"
     id="rect7"
     width="4"
     height="15"
     x="34"
     y="23"
     ry="2" />
  <path
     id="path1"
     style="opacity:0.15;fill:#000000;stroke-width:1.66668"
     d="M 12 16 C 9.238577 16 7 18.238578 7 21 C 7 23.761422 9.238577 26 12 26 C 14.761422 26 17 23.761422 17 21 C 17 18.238578 14.761422 16 12 16 z M 36 20 C 33.238577 20 31 22.238578 31 25 C 31 27.761422 33.238577 30 36 30 C 38.761422 30 41 27.761422 41 25 C 41 22.238578 38.761422 20 36 20 z M 24 24 C 21.238577 24 19 26.238578 19 29 C 19 31.761422 21.238577 34 24 34 C 26.761422 34 29 31.761422 29 29 C 29 26.238578 26.761422 24 24 24 z " />
  <path
     id="path2"
     style="fill:#f9f9f9;fill-opacity:1;stroke-width:8;stroke-linecap:round;stroke-linejoin:round"
     d="M 12 17 C 9.790863 17 8 18.79086 8 21 C 8 23.209139 9.790863 25 12 25 C 14.209139 25 16 23.209139 16 21 C 16 18.79086 14.209139 17 12 17 z M 36 21 C 33.790863 21 32 22.79086 32 25 C 32 27.209139 33.790863 29 36 29 C 38.209139 29 40 27.209139 40 25 C 40 22.79086 38.209139 21 36 21 z M 24 25 C 21.790863 25 20 26.79086 20 29 C 20 31.209139 21.790863 33 24 33 C 26.209139 33 28 31.209139 28 29 C 28 26.79086 26.209139 25 24 25 z " />
</svg>
