<?xml version="1.0" encoding="UTF-8" standalone="no"?>
<!-- Created with Inkscape (http://www.inkscape.org/) -->

<svg
   width="48"
   height="48"
   viewBox="0 0 48 48.000003"
   version="1.1"
   id="svg1"
   inkscape:version="1.4.2 (ebf0e940d0, 2025-05-08)"
   sodipodi:docname="qbittorrent.svg"
   xmlns:inkscape="http://www.inkscape.org/namespaces/inkscape"
   xmlns:sodipodi="http://sodipodi.sourceforge.net/DTD/sodipodi-0.dtd"
   xmlns:xlink="http://www.w3.org/1999/xlink"
   xmlns="http://www.w3.org/2000/svg"
   xmlns:svg="http://www.w3.org/2000/svg">
  <sodipodi:namedview
     id="namedview1"
     pagecolor="#ffffff"
     bordercolor="#000000"
     borderopacity="0.25"
     inkscape:showpageshadow="2"
     inkscape:pageopacity="0.0"
     inkscape:pagecheckerboard="0"
     inkscape:deskcolor="#d1d1d1"
     inkscape:document-units="px"
     inkscape:zoom="16.6875"
     inkscape:cx="24"
     inkscape:cy="24"
     inkscape:window-width="1920"
     inkscape:window-height="1011"
     inkscape:window-x="0"
     inkscape:window-y="0"
     inkscape:window-maximized="1"
     inkscape:current-layer="svg1" />
  <defs
     id="defs1">
    <linearGradient
       inkscape:collect="always"
       xlink:href="#linearGradient3"
       id="linearGradient4"
       x1="16"
       y1="30"
       x2="16"
       y2="2"
       gradientUnits="userSpaceOnUse"
       gradientTransform="scale(1.5)" />
    <linearGradient
       inkscape:collect="always"
       id="linearGradient3">
      <stop
         style="stop-color:#2092ff;stop-opacity:1;"
         offset="0"
         id="stop1" />
      <stop
         style="stop-color:#74afe1;stop-opacity:1;"
         offset="1"
         id="stop2" />
    </linearGradient>
  </defs>
  <rect
     style="opacity:0.2;fill:#000000;stroke-width:2.625"
     id="rect1"
     width="42"
     height="42"
     x="3"
     y="4"
     ry="9" />
  <rect
     style="fill:url(#linearGradient4);stroke-width:1.5"
     id="rect2"
     width="42"
     height="42"
     x="3"
     y="3"
     ry="9" />
  <path
     id="path1"
     style="fill:#a6d3fb;fill-opacity:1;stroke-width:10.5;stroke-linecap:round"
     d="m 15.260742,17.660157 c -1.2487,-1e-6 -2.34505,0.314451 -3.292969,0.943359 -0.938805,0.628908 -1.668944,1.509435 -2.1884762,2.639648 C 9.2597649,22.364262 9,23.665684 9,25.151367 c 0,1.476567 0.2597712,2.78092 0.7792968,3.911133 0.5195322,1.121099 1.2496802,2.001624 2.1884762,2.639649 0.947921,0.628908 2.044267,0.943359 3.292969,0.943359 0.628908,0 1.216794,-0.0931 1.763672,-0.275391 0.55599,-0.173179 1.067382,-0.44108 1.532227,-0.805664 0.464846,-0.364584 0.869465,-0.823893 1.215821,-1.379883 h 0.02929 V 37.5 H 22.125 V 17.932617 h -2.270508 v 2.132812 h -0.02637 C 19.518228,19.527669 19.12728,19.082032 18.65332,18.726562 18.179361,18.371094 17.648764,18.105796 17.065429,17.932617 16.49121,17.750319 15.88965,17.660157 15.260742,17.660157 Z m 0.357422,2.077147 c 0.893231,0 1.666989,0.224282 2.323243,0.6709 0.656249,0.446614 1.162107,1.075516 1.517577,1.886717 0.355464,0.811202 0.533203,1.762693 0.533203,2.856446 0,1.084639 -0.177733,2.033526 -0.533203,2.844726 -0.35547,0.8112 -0.861327,1.440103 -1.517577,1.886719 -0.656254,0.446615 -1.430012,0.670899 -2.323243,0.670899 -0.829429,0 -1.567706,-0.205078 -2.214844,-0.615235 -0.638022,-0.410159 -1.141275,-1.017251 -1.505859,-1.819335 -0.364584,-0.802088 -0.544922,-1.79199 -0.544922,-2.967774 0,-1.1849 0.180336,-2.177408 0.544922,-2.979492 0.364584,-0.802088 0.867837,-1.409178 1.505859,-1.819337 0.647138,-0.410157 1.385415,-0.615234 2.214844,-0.615234 z" />
  <path
     d="m 32.433669,32.644598 c -0.619794,0 -1.212243,-0.09114 -1.77735,-0.273438 -0.565108,-0.173173 -1.084639,-0.442061 -1.558599,-0.806645 -0.47396,-0.364584 -0.884116,-0.824872 -1.230473,-1.380862 h -0.02735 V 32.37116 H 25.570365 V 12 h 2.324224 v 8.066431 h 0.02736 c 0.309897,-0.53776 0.697269,-0.984378 1.162115,-1.339847 0.464845,-0.355469 0.984376,-0.619793 1.558599,-0.792971 0.574221,-0.182294 1.171227,-0.273438 1.791021,-0.273438 1.257816,0 2.356126,0.314454 3.294931,0.943362 0.938805,0.628908 1.667975,1.508468 2.187507,2.63868 0.519533,1.121099 0.7793,2.424488 0.7793,3.910168 0,1.476568 -0.25977,2.779957 -0.7793,3.910169 -0.519532,1.121099 -1.248702,2.000656 -2.187507,2.638682 -0.938805,0.628908 -2.037115,0.943362 -3.294931,0.943362 z m -0.355473,-2.091806 c 0.838546,0 1.57683,-0.205091 2.214852,-0.615237 0.638025,-0.410155 1.139329,-1.016276 1.503912,-1.818363 0.364584,-0.802084 0.546877,-1.791022 0.546877,-2.966807 0,-1.184899 -0.18228,-2.178392 -0.546877,-2.980477 -0.364583,-0.802087 -0.865887,-1.408207 -1.503912,-1.818366 -0.638022,-0.410157 -1.376306,-0.615236 -2.214852,-0.615236 -0.893232,0 -1.667972,0.223309 -2.324225,0.669925 -0.656252,0.446615 -1.162113,1.075524 -1.517582,1.886724 -0.35547,0.811201 -0.533204,1.763677 -0.533204,2.85743 0,1.08464 0.17774,2.032559 0.533204,2.843761 0.355469,0.811201 0.86133,1.440109 1.517582,1.886724 0.656253,0.446614 1.430993,0.669924 2.324225,0.669922 z"
     style="fill:#ffffff;stroke-width:10.5;stroke-linecap:round"
     id="path2" />
</svg>
