<?xml version="1.0" encoding="UTF-8" standalone="no"?>
<!-- Created with Inkscape (http://www.inkscape.org/) -->

<svg
   width="48"
   height="48"
   viewBox="0 0 48 48.000003"
   version="1.1"
   id="svg1"
   inkscape:version="1.4.2 (1:1.4.2+202505120737+ebf0e940d0)"
   sodipodi:docname="rnote.svg"
   xmlns:inkscape="http://www.inkscape.org/namespaces/inkscape"
   xmlns:sodipodi="http://sodipodi.sourceforge.net/DTD/sodipodi-0.dtd"
   xmlns:xlink="http://www.w3.org/1999/xlink"
   xmlns="http://www.w3.org/2000/svg"
   xmlns:svg="http://www.w3.org/2000/svg">
  <sodipodi:namedview
     id="namedview1"
     pagecolor="#ffffff"
     bordercolor="#000000"
     borderopacity="0.25"
     inkscape:showpageshadow="2"
     inkscape:pageopacity="0.0"
     inkscape:pagecheckerboard="0"
     inkscape:deskcolor="#d1d1d1"
     inkscape:document-units="px"
     inkscape:zoom="16.8125"
     inkscape:cx="24"
     inkscape:cy="24"
     inkscape:window-width="1920"
     inkscape:window-height="1016"
     inkscape:window-x="0"
     inkscape:window-y="0"
     inkscape:window-maximized="1"
     inkscape:current-layer="svg1" />
  <defs
     id="defs1">
    <linearGradient
       inkscape:collect="always"
       id="linearGradient1606">
      <stop
         style="stop-color:#eaebed;stop-opacity:1;"
         offset="0"
         id="stop1602" />
      <stop
         style="stop-color:#f9fafa;stop-opacity:1;"
         offset="1"
         id="stop1604" />
    </linearGradient>
    <linearGradient
       inkscape:collect="always"
       xlink:href="#linearGradient1606"
       id="linearGradient4"
       x1="16"
       y1="30"
       x2="16"
       y2="2"
       gradientUnits="userSpaceOnUse"
       gradientTransform="scale(1.5)" />
    <linearGradient
       inkscape:collect="always"
       xlink:href="#linearGradient1"
       id="linearGradient6"
       x1="11.000003"
       y1="13.000074"
       x2="11.000003"
       y2="3"
       gradientUnits="userSpaceOnUse"
       gradientTransform="matrix(2.9999761,0,0,2.9999761,1.0000921,8.0217335e-5)" />
    <linearGradient
       id="linearGradient1"
       inkscape:collect="always">
      <stop
         style="stop-color:#2e2e2e;stop-opacity:1;"
         offset="0"
         id="stop1" />
      <stop
         style="stop-color:#565656;stop-opacity:1;"
         offset="1"
         id="stop2" />
    </linearGradient>
  </defs>
  <rect
     style="opacity:0.2;fill:#000000;stroke-width:2.625"
     id="rect1"
     width="42"
     height="42"
     x="3"
     y="4"
     ry="9" />
  <rect
     style="fill:url(#linearGradient4);stroke-width:1.5"
     id="rect2"
     width="42"
     height="42"
     x="3"
     y="3"
     ry="9" />
  <path
     d="m 32.245947,15.712968 c -0.057,-0.473327 0.298798,-1.222352 0.251068,-2.242089 -0.04929,-1.021396 -0.53447,-2.444708 -2.526019,-3.4777283 -0.03543,-0.0183 -0.07083,-0.03654 -0.107819,-0.05481 -1.295357,-0.644389 -3.183704,-1.106094 -5.386271,-0.880223 -1.711222,0.176039 -3.488678,0.758988 -5.164474,1.7870293 -1.507911,0.921745 -2.897218,2.183958 -4.024687,3.745119 -0.662307,0.981535 -1.239905,2.092615 -1.652693,3.291715 -0.178678,0.518174 -0.326535,1.054614 -0.437432,1.602683 -0.143249,0.712485 -0.221788,1.491402 -0.190979,2.313504 0.08163,1.303732 0.442053,2.728706 1.247606,4.010845 0.380445,0.607855 0.853302,1.159247 1.400092,1.619291 0.54371,0.46004 1.165974,0.832061 1.845226,1.076202 1.088961,0.383646 2.159436,0.383646 3.045083,0.239158 0.469779,-0.07641 0.901049,-0.194308 1.281491,-0.325518 0.469778,-0.161099 0.901049,-0.347109 1.241444,-0.504884 0.742404,-0.350436 1.438603,-0.770619 1.993091,-1.109424 0.554492,-0.338806 1.098202,-0.67927 1.620347,-0.954965 0.311134,-0.159449 0.680794,-0.33714 1.045834,-0.471668 0.09705,-0.03486 0.194069,-0.0681 0.291118,-0.09633 0.363498,-0.107939 0.722382,-0.156119 1.04121,-0.121229 0.272608,0.0282 0.503666,0.124559 0.65923,0.242488 0.06621,0.04485 0.123209,0.107939 0.170969,0.174388 0.04158,0.06147 0.0693,0.119579 0.08472,0.151139 0.0171,0.03984 0.0264,0.121229 -0.0033,0.239158 -0.0279,0.119549 -0.08778,0.257428 -0.180208,0.395271 -0.09549,0.141179 -0.227939,0.287308 -0.406626,0.438453 -0.175589,0.146158 -0.385062,0.288987 -0.628423,0.426827 -0.53447,0.277348 -1.065856,0.463365 -1.81288,0.763971 -0.677712,0.272368 -1.486347,0.62446 -2.244153,1.182492 -0.397383,0.302268 -0.794768,0.679269 -1.136706,1.135992 -0.340398,0.456722 -0.636127,1.008109 -0.80093,1.654162 -0.147869,0.646054 -0.155579,1.363526 0.04311,2.052758 0.10011,0.350433 0.254128,0.682594 0.451296,0.978217 0.200248,0.298948 0.451292,0.56966 0.748563,0.785562 0.528305,0.378663 1.110522,0.518171 1.614185,0.53312 h 0.170969 c 0.42665,-0.0114 0.833279,-0.106289 1.204481,-0.240808 0.388143,-0.127859 0.739323,-0.300607 1.041211,-0.453402 0.308052,-0.157768 0.545248,-0.285627 0.793229,-0.39195 0.226409,-0.107939 0.423573,-0.177688 0.602243,-0.207628 0.169408,-0.0282 0.308052,-0.015 0.408167,0.015 0.04467,0.0132 0.08472,0.03486 0.117059,0.05649 0.03081,0.0216 0.05238,0.04152 0.06315,0.05151 0.0171,0.0084 0.03237,0.0216 0.04311,0.0252 0.0123,0 0.0231,0.0069 0.03852,0.0033 0.0138,-0.0033 0,0.04983 -0.05547,0.119609 -0.06468,0.08139 -0.158639,0.162749 -0.30343,0.283978 -0.140159,0.114599 -0.331158,0.265708 -0.505205,0.451739 -0.192508,0.204268 -0.380445,0.463364 -0.495962,0.783903 -0.115529,0.323856 -0.134009,0.656017 -0.08625,0.948319 0.05547,0.340465 0.201778,0.61948 0.371202,0.817119 0.227968,0.269038 0.492881,0.383643 0.688491,0.415199 0.04773,0.0069 0.0924,0.0099 0.134009,0.0084 0.348096,-0.0132 0.488258,-0.300606 0.549869,-0.385304 -0.08625,-0.08802 -0.174059,-0.313894 -0.243358,-0.506549 -0.0078,-0.0216 -0.0153,-0.04152 -0.0216,-0.06312 -0.0279,-0.08469 -0.05235,-0.177689 -0.0462,-0.260728 0.0033,-0.05979 0.0171,-0.122879 0.04314,-0.162749 0.0216,-0.03486 0.05238,-0.06645 0.0801,-0.07806 0.0279,-0.0132 0.07395,-0.05316 0.157109,-0.107939 0.103199,-0.06645 0.175619,-0.104609 0.358881,-0.210928 0.143249,-0.08139 0.3558,-0.207629 0.559112,-0.378666 0.203308,-0.171059 0.437432,-0.420183 0.603781,-0.767292 0.147869,-0.31057 0.220258,-0.654358 0.220258,-0.993163 0.0015,-0.338803 -0.0693,-0.667645 -0.192508,-0.961607 -0.129359,-0.295617 -0.308053,-0.548068 -0.511367,-0.755667 -0.204839,-0.209278 -0.437433,-0.375345 -0.680791,-0.499904 -0.488264,-0.247468 -1.002706,-0.317214 -1.454001,-0.298947 -0.466697,0.0183 -0.894887,0.131219 -1.247606,0.250768 -0.348096,0.126239 -0.708517,0.292317 -0.964202,0.403577 -0.294177,0.127889 -0.520603,0.215909 -0.7347,0.269038 -0.201778,0.03819 -0.354258,0.03486 -0.465158,0.0084 -0.0138,-0.0033 -0.0276,-0.0069 -0.04158,-0.0114 -0.112439,-0.03819 -0.174028,-0.104609 -0.157108,-0.137849 0.0093,-0.0132 0.0108,-0.03 0.0138,-0.05814 0.0033,-0.0264 0.006,-0.05649 0.0186,-0.08304 0.0186,-0.05649 0.04926,-0.154469 0.112469,-0.245788 0.0462,-0.10131 0.123209,-0.215909 0.249508,-0.345451 0.129359,-0.132869 0.298798,-0.267388 0.502124,-0.386967 0.409707,-0.265708 0.897971,-0.463364 1.531014,-0.677607 0.585296,-0.199289 1.387768,-0.443439 2.125552,-0.773937 0.397386,-0.169409 0.810174,-0.377004 1.210641,-0.639412 0.409706,-0.267388 0.814793,-0.59623 1.184453,-1.003126 0.383526,-0.425166 0.716221,-0.926732 0.961121,-1.488084 0.251068,-0.577961 0.414326,-1.23398 0.429728,-1.9365 0.0153,-0.692766 -0.115529,-1.347124 -0.334224,-1.925084 -0.224878,-0.599873 -0.552953,-1.137975 -0.944177,-1.588053 -0.828656,-0.953305 -1.877568,-1.471476 -2.820205,-1.695685 -1.09204,-0.260728 -2.116309,-0.164429 -2.90338,0.015 -0.218728,0.05151 -0.425109,0.107939 -0.617641,0.169408 -0.727002,0.230849 -1.330781,0.541427 -1.754353,0.782244 -0.688495,0.383646 -1.373905,0.850334 -1.840603,1.157583 -0.54217,0.357072 -1.02735,0.665983 -1.514069,0.903479 -0.217199,0.107939 -0.454386,0.204268 -0.700825,0.270718 -0.197158,0.05151 -0.389688,0.08637 -0.579136,0.09633 -0.361962,0.0201 -0.666934,-0.04983 -0.873323,-0.177689 -0.120149,-0.06975 -0.243358,-0.171058 -0.3558,-0.303927 -0.11247,-0.134519 -0.207929,-0.290638 -0.272608,-0.456723 -0.147869,-0.3687 -0.194099,-0.815456 -0.129359,-1.23896 0.0171,-0.264058 0.07083,-0.529799 0.155579,-0.793866 0.06621,-0.204298 0.157108,-0.411881 0.272607,-0.621142 0.271078,-0.4916 0.66385,-0.956626 1.124388,-1.35688 0.716218,-0.712488 1.554114,-1.227338 2.404337,-1.56116 0.945716,-0.372021 1.851384,-0.499904 2.646156,-0.506543 1.016566,-0.0069 1.926864,0.181018 2.639997,0.270688 0.0201,0.0017 0.04005,0.0051 0.06006,0.0069 1.127469,0.134549 1.991549,-0.149488 2.758595,-0.544747 0.743943,-0.381984 1.409337,-0.898496 1.8252,-0.901814 z"
     style="fill:url(#linearGradient6);stroke-width:2.99998"
     id="path1-5" />
</svg>
