<?xml version="1.0" encoding="UTF-8" standalone="no"?>
<!-- Created with Inkscape (http://www.inkscape.org/) -->

<svg
   width="48"
   height="48"
   viewBox="0 0 48 48.000003"
   version="1.1"
   id="svg1"
   inkscape:version="1.4.2 (ebf0e940d0, 2025-05-08)"
   sodipodi:docname="sendanywhere.svg"
   xmlns:inkscape="http://www.inkscape.org/namespaces/inkscape"
   xmlns:sodipodi="http://sodipodi.sourceforge.net/DTD/sodipodi-0.dtd"
   xmlns:xlink="http://www.w3.org/1999/xlink"
   xmlns="http://www.w3.org/2000/svg"
   xmlns:svg="http://www.w3.org/2000/svg">
  <sodipodi:namedview
     id="namedview1"
     pagecolor="#ffffff"
     bordercolor="#000000"
     borderopacity="0.25"
     inkscape:showpageshadow="2"
     inkscape:pageopacity="0.0"
     inkscape:pagecheckerboard="0"
     inkscape:deskcolor="#d1d1d1"
     inkscape:document-units="px"
     inkscape:zoom="16.854167"
     inkscape:cx="24"
     inkscape:cy="24"
     inkscape:window-width="1920"
     inkscape:window-height="1011"
     inkscape:window-x="0"
     inkscape:window-y="0"
     inkscape:window-maximized="1"
     inkscape:current-layer="svg1" />
  <defs
     id="defs1">
    <linearGradient
       inkscape:collect="always"
       id="linearGradient1606">
      <stop
         style="stop-color:#eaebed;stop-opacity:1;"
         offset="0"
         id="stop1602" />
      <stop
         style="stop-color:#f9fafa;stop-opacity:1;"
         offset="1"
         id="stop1604" />
    </linearGradient>
    <linearGradient
       inkscape:collect="always"
       xlink:href="#linearGradient1606"
       id="linearGradient4"
       x1="16"
       y1="30"
       x2="16"
       y2="2"
       gradientUnits="userSpaceOnUse"
       gradientTransform="scale(1.5)" />
    <linearGradient
       id="linearGradient1"
       inkscape:collect="always">
      <stop
         style="stop-color:#ff2d55;stop-opacity:1;"
         offset="0"
         id="stop1" />
      <stop
         style="stop-color:#ff755e;stop-opacity:1;"
         offset="1"
         id="stop2" />
    </linearGradient>
    <linearGradient
       inkscape:collect="always"
       xlink:href="#linearGradient1"
       id="linearGradient6"
       x1="24"
       y1="45"
       x2="24"
       y2="3"
       gradientUnits="userSpaceOnUse" />
  </defs>
  <rect
     style="opacity:0.2;fill:#000000;stroke-width:2.625"
     id="rect1"
     width="42"
     height="42"
     x="3"
     y="4"
     ry="9" />
  <rect
     style="fill:url(#linearGradient4);stroke-width:1.5"
     id="rect2"
     width="42"
     height="42"
     x="3"
     y="3"
     ry="9" />
  <path
     d="M 32.521484,8 C 32.232259,8.0043674 32.000066,8.2400385 32,8.5292969 V 11 H 16 c -3.313708,0 -6,2.686292 -6,6 v 13 h 3 V 17 c 0,-1.656854 1.343146,-3 3,-3 h 21.470703 c 0.472496,9.14e-4 0.709482,-0.570568 0.375,-0.904297 L 32.904297,8.1542969 C 32.802818,8.0531994 32.664706,7.9975322 32.521484,8 Z M 35,18 v 13 c 0,1.656854 -1.343146,3 -3,3 H 10.529297 c -0.472496,-9.14e-4 -0.7094826,0.570568 -0.375,0.904297 l 4.941406,4.941406 C 15.197182,39.946801 15.335294,40.002468 15.478516,40 15.767742,39.995633 15.999934,39.759961 16,39.470703 V 37 h 16 c 3.313708,0 6,-2.686292 6,-6 V 18 Z m -15,3 c -1.108,0 -2,0.892 -2,2 v 2 c 0,1.108 0.892,2 2,2 1.108,0 2,-0.892 2,-2 v -2 c 0,-1.108 -0.892,-2 -2,-2 z m 8,0 c -1.108,0 -2,0.892 -2,2 v 2 c 0,1.108 0.892,2 2,2 1.108,0 2,-0.892 2,-2 v -2 c 0,-1.108 -0.892,-2 -2,-2 z"
     style="baseline-shift:baseline;display:inline;overflow:visible;vector-effect:none;fill:url(#linearGradient6);enable-background:accumulate;stop-color:#000000"
     id="path1" />
</svg>
