<?xml version="1.0" encoding="UTF-8" standalone="no"?>
<!-- Created with Inkscape (http://www.inkscape.org/) -->

<svg
   width="48"
   height="48"
   viewBox="0 0 48 48.000003"
   version="1.1"
   id="svg1"
   inkscape:version="1.4.3 (0d15f75042, 2025-12-25)"
   sodipodi:docname="vim.svg"
   xmlns:inkscape="http://www.inkscape.org/namespaces/inkscape"
   xmlns:sodipodi="http://sodipodi.sourceforge.net/DTD/sodipodi-0.dtd"
   xmlns:xlink="http://www.w3.org/1999/xlink"
   xmlns="http://www.w3.org/2000/svg"
   xmlns:svg="http://www.w3.org/2000/svg">
  <sodipodi:namedview
     id="namedview1"
     pagecolor="#ffffff"
     bordercolor="#000000"
     borderopacity="0.25"
     inkscape:showpageshadow="2"
     inkscape:pageopacity="0.0"
     inkscape:pagecheckerboard="0"
     inkscape:deskcolor="#d1d1d1"
     inkscape:document-units="px"
     inkscape:zoom="12.104167"
     inkscape:cx="23.958692"
     inkscape:cy="24"
     inkscape:window-width="1440"
     inkscape:window-height="832"
     inkscape:window-x="0"
     inkscape:window-y="0"
     inkscape:window-maximized="1"
     inkscape:current-layer="svg1" />
  <defs
     id="defs1">
    <linearGradient
       inkscape:collect="always"
       id="linearGradient6">
      <stop
         style="stop-color:#bbe88b;stop-opacity:1;"
         offset="0"
         id="stop5" />
      <stop
         style="stop-color:#c7f3b4;stop-opacity:1;"
         offset="1"
         id="stop6" />
    </linearGradient>
    <linearGradient
       inkscape:collect="always"
       id="linearGradient4">
      <stop
         style="stop-color:#3c8024;stop-opacity:1;"
         offset="0"
         id="stop3" />
      <stop
         style="stop-color:#70cf6a;stop-opacity:1;"
         offset="1"
         id="stop4" />
    </linearGradient>
    <linearGradient
       inkscape:collect="always"
       xlink:href="#linearGradient6"
       id="linearGradient5"
       x1="24"
       y1="45"
       x2="24"
       y2="3"
       gradientUnits="userSpaceOnUse" />
    <linearGradient
       inkscape:collect="always"
       xlink:href="#linearGradient4"
       id="linearGradient8"
       x1="48.790367"
       y1="14.849242"
       x2="19.091883"
       y2="-14.849242"
       gradientUnits="userSpaceOnUse" />
  </defs>
  <rect
     style="opacity:0.2;fill:#000000;stroke-width:2.625"
     id="rect1"
     width="42"
     height="42"
     x="3"
     y="4"
     ry="9" />
  <rect
     style="fill:url(#linearGradient5);stroke-width:1.5;fill-opacity:1"
     id="rect2"
     width="42"
     height="42"
     x="3"
     y="3"
     ry="9" />
  <rect
     style="opacity:1;fill:url(#linearGradient8);stroke:none;stroke-width:6;stroke-linecap:square;stroke-linejoin:miter;stroke-dasharray:none;stroke-opacity:1;paint-order:stroke fill markers"
     id="rect3"
     width="24"
     height="24"
     x="21.940632"
     y="-12"
     ry="3"
     transform="rotate(45)" />
  <path
     id="path1"
     style="fill:#ffffff;stroke:none;stroke-width:2.25;stroke-linecap:round;stroke-linejoin:round;paint-order:stroke fill markers"
     d="m 12.499654,13.999653 c -0.830998,0 -1.5,0.669002 -1.5,1.5 0,0.830998 0.669002,1.5 1.5,1.5 h 1.75 v 0.375 16.874847 c 0.0023,2.049383 2.521153,3.029175 3.908203,1.520508 L 35.396138,16.703754 c 0.366918,-0.27294 0.603516,-0.709634 0.603516,-1.204101 0,-0.830998 -0.669002,-1.5 -1.5,-1.5 h -6 c -0.830999,0 -1.5,0.669002 -1.5,1.5 0,0.830998 0.669001,1.5 1.5,1.5 h 0.457032 L 18.749654,28.466296 v -11.091643 -0.375 h 0.75 c 0.830998,0 1.5,-0.669002 1.5,-1.5 0,-0.830998 -0.669002,-1.5 -1.5,-1.5 z" />
</svg>
