<?xml version="1.0" encoding="UTF-8" standalone="no"?>
<!-- Created with Inkscape (http://www.inkscape.org/) -->

<svg
   width="48"
   height="48"
   viewBox="0 0 48 48.000003"
   version="1.1"
   id="svg1"
   inkscape:version="1.4.3 (0d15f75042, 2025-12-25)"
   sodipodi:docname="vmware-player.svg"
   xmlns:inkscape="http://www.inkscape.org/namespaces/inkscape"
   xmlns:sodipodi="http://sodipodi.sourceforge.net/DTD/sodipodi-0.dtd"
   xmlns:xlink="http://www.w3.org/1999/xlink"
   xmlns="http://www.w3.org/2000/svg"
   xmlns:svg="http://www.w3.org/2000/svg">
  <sodipodi:namedview
     id="namedview1"
     pagecolor="#ffffff"
     bordercolor="#000000"
     borderopacity="0.25"
     inkscape:showpageshadow="2"
     inkscape:pageopacity="0.0"
     inkscape:pagecheckerboard="0"
     inkscape:deskcolor="#d1d1d1"
     inkscape:document-units="px"
     inkscape:zoom="16.583333"
     inkscape:cx="23.96985"
     inkscape:cy="24"
     inkscape:window-width="1854"
     inkscape:window-height="1011"
     inkscape:window-x="0"
     inkscape:window-y="0"
     inkscape:window-maximized="1"
     inkscape:current-layer="svg1" />
  <defs
     id="defs1">
    <linearGradient
       inkscape:collect="always"
       id="linearGradient1606">
      <stop
         style="stop-color:#eaebed;stop-opacity:1;"
         offset="0"
         id="stop1602" />
      <stop
         style="stop-color:#f9fafa;stop-opacity:1;"
         offset="1"
         id="stop1604" />
    </linearGradient>
    <linearGradient
       inkscape:collect="always"
       xlink:href="#linearGradient1606"
       id="linearGradient4"
       x1="16"
       y1="30"
       x2="16"
       y2="2"
       gradientUnits="userSpaceOnUse"
       gradientTransform="scale(1.5)" />
  </defs>
  <rect
     style="opacity:0.2;fill:#000000;stroke-width:2.625"
     id="rect1"
     width="42"
     height="42"
     x="3"
     y="4"
     ry="9" />
  <rect
     style="fill:url(#linearGradient4);stroke-width:1.5"
     id="rect2"
     width="42"
     height="42"
     x="3"
     y="3"
     ry="9" />
  <path
     id="path4"
     style="fill:#edb200;fill-opacity:1;stroke-width:2"
     d="M 11,9 C 9.8920031,9 9,9.892003 9,11 v 10 c 0,1.107997 0.8920031,2 2,2 1.107997,0 2,-0.892003 2,-2 v -5.1875 l 3,3 V 23 h 4 v -2 c 0,-0.553999 0.446001,-1 1,-1 h 2 v -4 h -4.1875 l -3,-3 H 21 c 1.107997,0 2,-0.892003 2,-2 0,-1.107997 -0.892003,-2 -2,-2 z m 16,0 c -1.107997,0 -2,0.892003 -2,2 0,1.107997 0.892003,2 2,2 h 5.1875 l -3,3 H 25 v 4 h 2 c 0.553999,0 1,0.446001 1,1 v 2 h 4 v -4.1875 l 3,-3 V 21 c 0,1.107997 0.892003,2 2,2 1.107997,0 2,-0.892003 2,-2 V 11 C 39,9.892003 38.107997,9 37,9 Z M 16,25 v 5 c 0,1.107997 0.892003,2 2,2 h 5 v -4 h -2 c -0.553999,0 -1,-0.446001 -1,-1 v -2 z m 12,0 v 2 c 0,0.553999 -0.446001,1 -1,1 h -2 v 4 h 4.1875 l 3,3 H 27 c -1.107997,0 -2,0.892003 -2,2 0,1.107997 0.892003,2 2,2 h 10 c 1.107997,0 2,-0.892003 2,-2 V 27 c 0,-1.107997 -0.892003,-2 -2,-2 -1.107997,0 -2,0.892003 -2,2 v 5.1875 l -3,-3 V 25 Z" />
</svg>
