<?xml version="1.0" encoding="UTF-8" standalone="no"?>
<!-- Created with Inkscape (http://www.inkscape.org/) -->

<svg
   width="48"
   height="48"
   viewBox="0 0 48 48.000003"
   version="1.1"
   id="svg1"
   inkscape:version="1.4.4 (dcaf3e7d9e, 2026-05-05)"
   sodipodi:docname="winetricks.svg"
   xmlns:inkscape="http://www.inkscape.org/namespaces/inkscape"
   xmlns:sodipodi="http://sodipodi.sourceforge.net/DTD/sodipodi-0.dtd"
   xmlns:xlink="http://www.w3.org/1999/xlink"
   xmlns="http://www.w3.org/2000/svg"
   xmlns:svg="http://www.w3.org/2000/svg">
  <sodipodi:namedview
     id="namedview1"
     pagecolor="#ffffff"
     bordercolor="#000000"
     borderopacity="0.25"
     inkscape:showpageshadow="2"
     inkscape:pageopacity="0.0"
     inkscape:pagecheckerboard="0"
     inkscape:deskcolor="#d1d1d1"
     inkscape:document-units="px"
     inkscape:zoom="12.083333"
     inkscape:cx="23.958621"
     inkscape:cy="24"
     inkscape:window-width="1440"
     inkscape:window-height="831"
     inkscape:window-x="0"
     inkscape:window-y="0"
     inkscape:window-maximized="1"
     inkscape:current-layer="svg1" />
  <defs
     id="defs1">
    <linearGradient
       inkscape:collect="always"
       id="linearGradient1606">
      <stop
         style="stop-color:#eaebed;stop-opacity:1;"
         offset="0"
         id="stop1602" />
      <stop
         style="stop-color:#f9fafa;stop-opacity:1;"
         offset="1"
         id="stop1604" />
    </linearGradient>
    <linearGradient
       inkscape:collect="always"
       xlink:href="#linearGradient1606"
       id="linearGradient4"
       x1="16"
       y1="30"
       x2="16"
       y2="2"
       gradientUnits="userSpaceOnUse"
       gradientTransform="scale(1.5)" />
    <linearGradient
       inkscape:collect="always"
       xlink:href="#linearGradient1694"
       id="linearGradient4-2"
       x1="24"
       y1="28"
       x2="24.001953"
       y2="10"
       gradientUnits="userSpaceOnUse" />
    <linearGradient
       inkscape:collect="always"
       id="linearGradient1694">
      <stop
         style="stop-color:#940e0e;stop-opacity:1;"
         offset="0"
         id="stop1690" />
      <stop
         style="stop-color:#d17979;stop-opacity:1;"
         offset="1"
         id="stop1692" />
    </linearGradient>
    <linearGradient
       id="linearGradient3"
       inkscape:collect="always">
      <stop
         style="stop-color:#98a9ad;stop-opacity:1;"
         offset="0"
         id="stop3" />
      <stop
         style="stop-color:#c4c8cd;stop-opacity:1;"
         offset="1"
         id="stop4" />
    </linearGradient>
    <linearGradient
       inkscape:collect="always"
       xlink:href="#linearGradient3"
       id="linearGradient2"
       x1="24"
       y1="40"
       x2="24"
       y2="8"
       gradientUnits="userSpaceOnUse" />
    <linearGradient
       inkscape:collect="always"
       xlink:href="#linearGradient2205"
       id="linearGradient5187"
       x1="-13.008687"
       y1="-14.01332"
       x2="-14.419785"
       y2="-14.014091"
       gradientUnits="userSpaceOnUse"
       gradientTransform="matrix(-2.0044158,-2.0044158,2.0044158,-2.0044158,21.486821,-16.464979)" />
    <linearGradient
       inkscape:collect="always"
       id="linearGradient950">
      <stop
         style="stop-color:#dddddd;stop-opacity:1;"
         offset="0"
         id="stop946" />
      <stop
         style="stop-color:#939393;stop-opacity:1;"
         offset="1"
         id="stop948" />
    </linearGradient>
    <linearGradient
       inkscape:collect="always"
       xlink:href="#linearGradient950"
       id="linearGradient5250"
       x1="12.472873"
       y1="7.6788507"
       x2="14.58952"
       y2="7.6786656"
       gradientUnits="userSpaceOnUse"
       gradientTransform="matrix(1.3362772,1.3362772,-1.3362772,1.3362772,28.985672,-5.148623)" />
    <linearGradient
       inkscape:collect="always"
       id="linearGradient2205">
      <stop
         style="stop-color:#818181;stop-opacity:1"
         offset="0"
         id="stop2201" />
      <stop
         style="stop-color:#404040;stop-opacity:1"
         offset="1"
         id="stop2203" />
    </linearGradient>
  </defs>
  <rect
     style="opacity:0.2;fill:#000000;stroke-width:2.625"
     id="rect1"
     width="42"
     height="42"
     x="3"
     y="4"
     ry="9" />
  <rect
     style="fill:url(#linearGradient4);stroke-width:1.5"
     id="rect2"
     width="42"
     height="42"
     x="3"
     y="3"
     ry="9" />
  <path
     id="path1"
     style="fill:url(#linearGradient2);stroke-width:4"
     d="m 24,8 c -3.220988,0.0047 -6.049938,0.883758 -8,2 v 12 c 0,4.092804 3.043943,7.445844 7,7.935547 V 36.03125 C 20.116797,36.193699 18.004791,37.025301 18,38 c 0,1.104567 2.686298,2 6,2 3.313702,0 6,-0.895433 6,-2 -0.0019,-0.975437 -2.114617,-1.80813 -5,-1.970703 v -6.09375 C 28.956057,29.445844 32,26.092804 32,22 V 10 C 30.049938,8.883758 27.220988,8.004731 24,8 Z m -0.0039,2 h 0.0059 c 2.383168,0.0045 4.409581,0.610409 5.998,1.333984 V 22 c 0,3.323982 -2.676018,6 -6,6 -3.323982,0 -6,-2.676018 -6,-6 V 11.333984 C 19.588377,10.610401 21.612896,10.0045 23.996094,10 Z" />
  <path
     d="m 27,17 c 1.471513,0.006 2.478266,0.577277 3,1 v 4 c 0,3.323982 -2.676018,6 -6,6 -3.323982,0 -6,-2.676018 -6,-6 v -3 c 0.72078,0.74548 2.014908,1.034664 3,1 1.655819,-0.05827 3.007486,-1.029704 3.5,-1.5 0.452616,-0.480847 1.371233,-1.498795 2.5,-1.5 z"
     style="fill:url(#linearGradient4-2);stroke:none;stroke-width:4"
     id="path2" />
  <path
     id="rect1693"
     style="opacity:0.7;fill:#fed946;fill-opacity:1;stroke-width:1.5"
     d="m 19.999933,19 c 0,1.656872 -1.343157,3.000031 -3.000027,3.000029 1.65687,0 3.000027,1.343159 3.000027,3.000029 0,-1.65687 1.343157,-3.000029 3.000028,-3.000029 -1.656871,0 -3.000028,-1.343158 -3.000028,-3.000029 z"
     sodipodi:nodetypes="ccccc" />
  <path
     d="m 24.999906,24 c 0,1.10457 -0.89543,2.000002 -2,2 1.10457,0 2,0.89543 2,2 0,-1.10457 0.895433,-2 2.000001,-2 -1.104568,0 -2.000001,-0.89543 -2.000001,-2 z"
     style="opacity:0.7;fill:#fed946;fill-opacity:1;stroke-width:0.264582"
     id="path4839" />
  <path
     d="m 25.999907,14 c 0,1.656854 -1.343146,3 -3.000001,3 1.656855,0 3.000001,1.343145 3.000001,3.000001 0,-1.656856 1.343145,-3.000001 3,-3.000001 -1.656855,0 -3,-1.343145 -3,-3 z"
     style="opacity:0.7;fill:#fed946;fill-opacity:1;stroke-width:0.396873"
     id="path5282" />
  <path
     id="rect4814"
     style="fill:url(#linearGradient5187);stroke-width:4.5;stroke-linecap:round;stroke-linejoin:round"
     d="m 34.242476,23.300781 c -0.227612,-0.0054 -0.430743,0.05965 -0.585938,0.214845 L 16.978803,40.193361 c -0.391737,0.391736 -0.391737,1.022325 0,1.414062 l 1.414062,1.414062 c 0.391737,0.391738 1.022326,0.391737 1.414063,1e-6 L 36.484662,26.343751 c 0.937188,-0.937188 -1.013058,-3.0136 -2.242186,-3.04297 z" />
  <path
     id="rect5241"
     style="fill:url(#linearGradient5250);fill-opacity:1;stroke-width:3.00001;stroke-linecap:round;stroke-linejoin:round"
     d="m 39.606256,18.979434 1.414214,1.414214 c 0.391738,0.391738 0.391738,1.022478 0,1.414216 l -4.535351,4.535349 -2.828426,-2.828426 4.53535,-4.535351 c 0.391737,-0.391737 1.022478,-0.391738 1.414213,-2e-6 z"
     sodipodi:nodetypes="sssccss" />
</svg>
