<?xml version="1.0" encoding="UTF-8" standalone="no"?>
<!-- Created with Inkscape (http://www.inkscape.org/) -->

<svg
   width="48"
   height="48"
   viewBox="0 0 48 48.000003"
   version="1.1"
   id="svg1"
   inkscape:version="1.4.2 (ebf0e940d0, 2025-05-08)"
   sodipodi:docname="wine.svg"
   xmlns:inkscape="http://www.inkscape.org/namespaces/inkscape"
   xmlns:sodipodi="http://sodipodi.sourceforge.net/DTD/sodipodi-0.dtd"
   xmlns:xlink="http://www.w3.org/1999/xlink"
   xmlns="http://www.w3.org/2000/svg"
   xmlns:svg="http://www.w3.org/2000/svg">
  <sodipodi:namedview
     id="namedview1"
     pagecolor="#ffffff"
     bordercolor="#000000"
     borderopacity="0.25"
     inkscape:showpageshadow="2"
     inkscape:pageopacity="0.0"
     inkscape:pagecheckerboard="0"
     inkscape:deskcolor="#d1d1d1"
     inkscape:document-units="px"
     inkscape:zoom="16.604167"
     inkscape:cx="24"
     inkscape:cy="24"
     inkscape:window-width="1920"
     inkscape:window-height="1011"
     inkscape:window-x="0"
     inkscape:window-y="0"
     inkscape:window-maximized="1"
     inkscape:current-layer="svg1" />
  <defs
     id="defs1">
    <linearGradient
       inkscape:collect="always"
       id="linearGradient1606">
      <stop
         style="stop-color:#eaebed;stop-opacity:1;"
         offset="0"
         id="stop1602" />
      <stop
         style="stop-color:#f9fafa;stop-opacity:1;"
         offset="1"
         id="stop1604" />
    </linearGradient>
    <linearGradient
       inkscape:collect="always"
       xlink:href="#linearGradient1606"
       id="linearGradient4"
       x1="16"
       y1="30"
       x2="16"
       y2="2"
       gradientUnits="userSpaceOnUse"
       gradientTransform="scale(1.5)" />
    <linearGradient
       inkscape:collect="always"
       xlink:href="#linearGradient1694"
       id="linearGradient4-2"
       x1="24"
       y1="28"
       x2="24.001953"
       y2="10"
       gradientUnits="userSpaceOnUse" />
    <linearGradient
       inkscape:collect="always"
       id="linearGradient1694">
      <stop
         style="stop-color:#940e0e;stop-opacity:1;"
         offset="0"
         id="stop1690" />
      <stop
         style="stop-color:#d17979;stop-opacity:1;"
         offset="1"
         id="stop1692" />
    </linearGradient>
    <linearGradient
       id="linearGradient3"
       inkscape:collect="always">
      <stop
         style="stop-color:#98a9ad;stop-opacity:1;"
         offset="0"
         id="stop3" />
      <stop
         style="stop-color:#c4c8cd;stop-opacity:1;"
         offset="1"
         id="stop4" />
    </linearGradient>
    <linearGradient
       inkscape:collect="always"
       xlink:href="#linearGradient3"
       id="linearGradient2"
       x1="24"
       y1="40"
       x2="24"
       y2="8"
       gradientUnits="userSpaceOnUse" />
  </defs>
  <rect
     style="opacity:0.2;fill:#000000;stroke-width:2.625"
     id="rect1"
     width="42"
     height="42"
     x="3"
     y="4"
     ry="9" />
  <rect
     style="fill:url(#linearGradient4);stroke-width:1.5"
     id="rect2"
     width="42"
     height="42"
     x="3"
     y="3"
     ry="9" />
  <path
     id="path1"
     style="fill:url(#linearGradient2);stroke-width:4"
     d="m 24,8 c -3.220988,0.0047 -6.049938,0.883758 -8,2 v 12 c 0,4.092804 3.043943,7.445844 7,7.935547 V 36.03125 C 20.116797,36.193699 18.004791,37.025301 18,38 c 0,1.104567 2.686298,2 6,2 3.313702,0 6,-0.895433 6,-2 -0.0019,-0.975437 -2.114617,-1.80813 -5,-1.970703 v -6.09375 C 28.956057,29.445844 32,26.092804 32,22 V 10 C 30.049938,8.883758 27.220988,8.004731 24,8 Z m -0.0039,2 h 0.0059 c 2.383168,0.0045 4.409581,0.610409 5.998,1.333984 V 22 c 0,3.323982 -2.676018,6 -6,6 -3.323982,0 -6,-2.676018 -6,-6 V 11.333984 C 19.588377,10.610401 21.612896,10.0045 23.996094,10 Z" />
  <path
     d="m 27,17 c 1.471513,0.006 2.478266,0.577277 3,1 v 4 c 0,3.323982 -2.676018,6 -6,6 -3.323982,0 -6,-2.676018 -6,-6 v -3 c 0.72078,0.74548 2.014908,1.034664 3,1 1.655819,-0.05827 3.007486,-1.029704 3.5,-1.5 0.452616,-0.480847 1.371233,-1.498795 2.5,-1.5 z"
     style="fill:url(#linearGradient4-2);stroke:none;stroke-width:4"
     id="path2" />
</svg>
