<?xml version="1.0" encoding="UTF-8" standalone="no"?>
<!-- Created with Inkscape (http://www.inkscape.org/) -->

<svg
   width="48"
   height="48"
   viewBox="0 0 48 48.000003"
   version="1.1"
   id="svg1"
   inkscape:version="1.4.3 (0d15f75042, 2025-12-25)"
   sodipodi:docname="xbox.svg"
   xmlns:inkscape="http://www.inkscape.org/namespaces/inkscape"
   xmlns:sodipodi="http://sodipodi.sourceforge.net/DTD/sodipodi-0.dtd"
   xmlns:xlink="http://www.w3.org/1999/xlink"
   xmlns="http://www.w3.org/2000/svg"
   xmlns:svg="http://www.w3.org/2000/svg">
  <sodipodi:namedview
     id="namedview1"
     pagecolor="#ffffff"
     bordercolor="#000000"
     borderopacity="0.25"
     inkscape:showpageshadow="2"
     inkscape:pageopacity="0.0"
     inkscape:pagecheckerboard="0"
     inkscape:deskcolor="#d1d1d1"
     inkscape:document-units="px"
     inkscape:zoom="16.625"
     inkscape:cx="23.969925"
     inkscape:cy="24"
     inkscape:window-width="1854"
     inkscape:window-height="1011"
     inkscape:window-x="0"
     inkscape:window-y="0"
     inkscape:window-maximized="1"
     inkscape:current-layer="svg1" />
  <defs
     id="defs1">
    <linearGradient
       inkscape:collect="always"
       xlink:href="#linearGradient1"
       id="linearGradient4"
       x1="16"
       y1="30"
       x2="16"
       y2="2"
       gradientUnits="userSpaceOnUse"
       gradientTransform="scale(1.5)" />
    <linearGradient
       id="linearGradient1"
       inkscape:collect="always">
      <stop
         style="stop-color:#0f670f;stop-opacity:1;"
         offset="0"
         id="stop1" />
      <stop
         style="stop-color:#42ab16;stop-opacity:1;"
         offset="1"
         id="stop2" />
    </linearGradient>
  </defs>
  <rect
     style="opacity:0.2;fill:#000000;stroke-width:2.625"
     id="rect1"
     width="42"
     height="42"
     x="3"
     y="4"
     ry="9" />
  <rect
     style="fill:url(#linearGradient4);stroke-width:1.5"
     id="rect2"
     width="42"
     height="42"
     x="3"
     y="3"
     ry="9" />
  <path
     d="m 22.504177,38.938384 c -2.311035,-0.221286 -4.650661,-1.050679 -6.660439,-2.361328 -1.684114,-1.097724 -2.064171,-1.549709 -2.064171,-2.450541 0,-1.809678 1.99095,-4.97984 5.397529,-8.592921 1.934115,-2.052573 4.628697,-4.457115 4.919842,-4.392296 0.56695,0.12651 5.096272,4.542143 6.792241,6.621198 2.681331,3.286208 3.913558,5.977899 3.287334,7.177731 -0.475947,0.911981 -3.429942,2.694828 -5.599764,3.379599 -1.788717,0.564543 -4.137759,0.803604 -6.072572,0.618558 z M 11.504792,32.24505 c -1.399593,-2.145966 -2.10671,-4.258478 -2.447716,-7.313987 -0.112972,-1.008862 -0.07322,-1.585602 0.25558,-3.656992 0.408999,-2.578784 1.879372,-5.565293 3.647168,-7.401804 0.752447,-0.780605 0.819392,-0.801514 1.737112,-0.491363 1.112284,0.376363 2.301274,1.197392 4.145777,2.86454 l 1.077416,0.973665 -0.589266,0.721362 c -2.72945,3.348933 -5.610224,8.098773 -6.694611,11.036494 -0.589266,1.596057 -0.826366,3.199085 -0.571831,3.866432 0.170852,0.450937 0.01395,0.282969 -0.561372,-0.597302 z m 24.565388,0.364863 c 0.138435,-0.674665 -0.03661,-1.913178 -0.446306,-3.162845 -0.887387,-2.705977 -3.854284,-7.73983 -6.578502,-11.162643 l -0.857749,-1.077514 0.928182,-0.851346 c 1.211306,-1.111664 2.052315,-1.777269 2.960271,-2.342859 0.715837,-0.446059 1.739207,-0.840893 2.179237,-0.840893 0.270922,0 1.225951,0.993181 1.996528,2.073481 1.193872,1.672725 2.071843,3.704387 2.516755,5.816201 0.287659,1.366059 0.311718,4.286355 0.04638,5.648928 -0.219665,1.117938 -0.67992,2.566935 -1.126227,3.550008 -0.338217,0.736349 -1.171558,2.166876 -1.537667,2.632451 -0.188288,0.239409 -0.188288,0.239059 -0.08369,-0.277394 z M 22.75174,12.660936 c -1.257333,-0.637726 -3.196678,-1.322498 -4.267816,-1.507193 -0.375176,-0.06447 -1.015697,-0.101058 -1.422604,-0.08015 -0.884247,0.04461 -0.844845,-0.0014 0.572878,-0.670833 1.178529,-0.55653 2.161802,-0.883756 3.497237,-1.163938 1.501057,-0.315378 4.323603,-0.318862 5.80095,-0.0077 1.5952,0.336287 3.474225,1.034997 4.532809,1.686663 l 0.315206,0.19306 -0.721764,-0.03624 c -1.435157,-0.07243 -3.526526,0.507092 -5.772009,1.598544 -0.677132,0.329666 -1.2657,0.592423 -1.308935,0.585453 -0.04289,-0.0084 -0.594847,-0.277045 -1.227348,-0.59765 z"
     style="fill:#ffffff;stroke-width:1.5"
     id="path1" />
</svg>
