<?xml version="1.0" encoding="UTF-8" standalone="no"?>
<!-- Created with Inkscape (http://www.inkscape.org/) -->

<svg
   width="64"
   height="64"
   viewBox="0 0 64 64.000005"
   version="1.1"
   id="svg1"
   inkscape:version="1.4.3 (0d15f75042, 2025-12-25)"
   sodipodi:docname="accessories-ebook-reader.svg"
   xmlns:inkscape="http://www.inkscape.org/namespaces/inkscape"
   xmlns:sodipodi="http://sodipodi.sourceforge.net/DTD/sodipodi-0.dtd"
   xmlns:xlink="http://www.w3.org/1999/xlink"
   xmlns="http://www.w3.org/2000/svg"
   xmlns:svg="http://www.w3.org/2000/svg">
  <sodipodi:namedview
     id="namedview1"
     pagecolor="#ffffff"
     bordercolor="#000000"
     borderopacity="0.25"
     inkscape:showpageshadow="2"
     inkscape:pageopacity="0.0"
     inkscape:pagecheckerboard="0"
     inkscape:deskcolor="#d1d1d1"
     inkscape:document-units="px"
     inkscape:zoom="12.46875"
     inkscape:cx="31.9599"
     inkscape:cy="32"
     inkscape:window-width="1920"
     inkscape:window-height="1011"
     inkscape:window-x="0"
     inkscape:window-y="0"
     inkscape:window-maximized="1"
     inkscape:current-layer="svg1" />
  <defs
     id="defs1">
    <linearGradient
       inkscape:collect="always"
       xlink:href="#4852"
       id="linearGradient4"
       x1="16"
       y1="30"
       x2="16"
       y2="2"
       gradientUnits="userSpaceOnUse"
       gradientTransform="scale(2)" />
    <linearGradient
       inkscape:collect="always"
       id="4852">
      <stop
         style="stop-color:#272727;stop-opacity:1;"
         offset="0"
         id="stop14555" />
      <stop
         style="stop-color:#5d5d5d;stop-opacity:1;"
         offset="1"
         id="stop14557" />
    </linearGradient>
    <linearGradient
       inkscape:collect="always"
       id="linearGradient3788">
      <stop
         style="stop-color:#ff7c15;stop-opacity:1;"
         offset="0"
         id="stop3784" />
      <stop
         style="stop-color:#f9bd00;stop-opacity:1;"
         offset="1"
         id="stop3786" />
    </linearGradient>
    <linearGradient
       inkscape:collect="always"
       xlink:href="#linearGradient3788"
       id="linearGradient2"
       x1="128"
       y1="240"
       x2="128"
       y2="16"
       gradientUnits="userSpaceOnUse"
       gradientTransform="scale(0.25)" />
  </defs>
  <rect
     style="opacity:0.2;fill:#000000;stroke-width:3.5"
     id="rect1"
     width="56"
     height="56"
     x="4"
     y="5"
     ry="12" />
  <rect
     style="fill:url(#linearGradient4);stroke-width:2"
     id="rect2"
     width="56"
     height="56"
     x="4"
     y="4"
     ry="12" />
  <path
     d="m 21,17 c -3.516714,0 -8.059836,1.889264 -9,4.000001 v 25.000004 c 0,0.445595 0,0.988025 0.5,1 0.454048,0.0108 1.155586,-0.78333 1.5,-1 1.64974,-1.34761 4.768354,-2.973038 7,-3.000003 2.02581,0.0268 5.75848,0.258898 8,2 0.86354,0.726938 2.029575,0.362438 2,-1 V 21.000001 C 28.761345,17.000004 24.027742,17 21,17 Z m 22,0 c -3.027743,0 -7.761345,5e-6 -10,4.000001 v 23.000001 c -0.02958,1.362438 1.13646,1.726938 2,1 2.24152,-1.741102 5.97419,-1.973199 8,-2 2.231645,0.02696 5.35026,1.652393 7,3.000003 0.344415,0.21667 1.04595,1.0108 1.5,1 0.5,-0.012 0.5,-0.554405 0.5,-1 V 21.000001 C 51.059835,18.889264 46.51671,17 43,17 Z"
     style="color:#000000;fill:url(#linearGradient2);stroke:none;stroke-width:4;stroke-linecap:round;stroke-linejoin:round"
     id="path1867"
     sodipodi:nodetypes="scsccccccssccccccscs" />
</svg>
