<?xml version="1.0" encoding="UTF-8" standalone="no"?>
<!-- Created with Inkscape (http://www.inkscape.org/) -->

<svg
   width="64"
   height="64"
   viewBox="0 0 64 64.000004"
   version="1.1"
   id="svg1"
   inkscape:version="1.4.3 (0d15f75042, 2025-12-25)"
   sodipodi:docname="blockbench.svg"
   xmlns:inkscape="http://www.inkscape.org/namespaces/inkscape"
   xmlns:sodipodi="http://sodipodi.sourceforge.net/DTD/sodipodi-0.dtd"
   xmlns:xlink="http://www.w3.org/1999/xlink"
   xmlns="http://www.w3.org/2000/svg"
   xmlns:svg="http://www.w3.org/2000/svg">
  <sodipodi:namedview
     id="namedview1"
     pagecolor="#ffffff"
     bordercolor="#000000"
     borderopacity="0.25"
     inkscape:showpageshadow="2"
     inkscape:pageopacity="0.0"
     inkscape:pagecheckerboard="0"
     inkscape:deskcolor="#d1d1d1"
     inkscape:document-units="px"
     inkscape:zoom="12.65625"
     inkscape:cx="32"
     inkscape:cy="32"
     inkscape:window-width="1920"
     inkscape:window-height="1012"
     inkscape:window-x="0"
     inkscape:window-y="0"
     inkscape:window-maximized="1"
     inkscape:current-layer="svg1" />
  <defs
     id="defs1">
    <linearGradient
       inkscape:collect="always"
       xlink:href="#4852"
       id="linearGradient4"
       x1="16"
       y1="30"
       x2="16"
       y2="2"
       gradientUnits="userSpaceOnUse"
       gradientTransform="scale(2)" />
    <linearGradient
       inkscape:collect="always"
       id="4852">
      <stop
         style="stop-color:#272727;stop-opacity:1;"
         offset="0"
         id="stop14555" />
      <stop
         style="stop-color:#5d5d5d;stop-opacity:1;"
         offset="1"
         id="stop14557" />
    </linearGradient>
    <linearGradient
       id="linearGradient3"
       inkscape:collect="always">
      <stop
         style="stop-color:#1a97e0;stop-opacity:1;"
         offset="0"
         id="stop3" />
      <stop
         style="stop-color:#52b0e8;stop-opacity:1;"
         offset="1"
         id="stop4" />
    </linearGradient>
    <linearGradient
       inkscape:collect="always"
       xlink:href="#linearGradient3"
       id="linearGradient2"
       x1="16"
       y1="30"
       x2="16"
       y2="2"
       gradientUnits="userSpaceOnUse"
       gradientTransform="scale(2)" />
  </defs>
  <rect
     style="opacity:0.2;fill:#000000;stroke-width:3.5"
     id="rect1"
     width="56"
     height="56"
     x="4"
     y="5"
     ry="12" />
  <rect
     style="fill:url(#linearGradient4);stroke-width:2"
     id="rect2"
     width="56"
     height="56"
     x="4"
     y="4"
     ry="12" />
  <path
     d="m 51.360815,18.000101 c -0.457758,0.0039 -1.849622,0.104987 -6.361195,0.415656 -1.693527,0.116605 -4.308123,0.296474 -5.810207,0.399756 -1.502086,0.103275 -3.947996,0.271441 -5.435356,0.373713 -1.48736,0.102277 -3.969416,0.2716 -5.515682,0.376224 -5.28538,0.357622 -4.960731,0.328625 -5.208604,0.465547 -0.309333,0.17088 -0.504652,0.509032 -0.597733,1.034848 -0.04154,0.234736 -0.09837,0.486991 -0.126241,0.560624 -0.02788,0.07362 -0.0681,0.275362 -0.08932,0.448291 -0.02122,0.17292 -0.07056,0.404961 -0.109601,0.515646 -0.03904,0.110679 -0.08864,0.342059 -0.110139,0.514076 -0.02148,0.17202 -0.0689,0.385798 -0.105341,0.475066 -0.03641,0.08926 -0.08324,0.303707 -0.104059,0.476633 -0.02086,0.172921 -0.06896,0.402415 -0.1069,0.509893 -0.03794,0.107479 -0.08699,0.326915 -0.10906,0.487719 -0.02212,0.160821 -0.07033,0.377694 -0.1071,0.481968 -0.03678,0.10426 -0.08498,0.321165 -0.107101,0.481969 -0.02212,0.160819 -0.07032,0.377691 -0.10712,0.481969 -0.03678,0.104261 -0.08498,0.321162 -0.107099,0.481966 -0.02212,0.16082 -0.07032,0.377693 -0.10712,0.481967 -0.0368,0.104259 -0.08498,0.321163 -0.107121,0.481969 -0.0221,0.160821 -0.07031,0.377693 -0.10712,0.481966 -0.0368,0.10426 -0.08498,0.321162 -0.107119,0.481969 -0.02212,0.16082 -0.07032,0.377693 -0.10712,0.481967 -0.0368,0.10426 -0.08502,0.321721 -0.107121,0.483118 -0.02208,0.1614 -0.06322,0.353632 -0.0914,0.427266 -0.02818,0.07362 -0.08544,0.326668 -0.12728,0.562296 -0.07088,0.399127 -0.06938,0.43757 0.02122,0.562296 0.191259,0.263276 0.422157,0.322915 2.087728,0.539286 0.874752,0.11364 2.241144,0.292629 3.036368,0.397666 0.795222,0.10504 2.174811,0.286606 3.065755,0.403522 0.890942,0.116921 2.360896,0.309958 3.266568,0.428938 0.905668,0.11898 2.28526,0.298941 3.065754,0.399966 1.696548,0.219596 4.433148,0.578034 5.529072,0.72421 1.796829,0.239654 2.440226,0.325079 3.842234,0.51031 0.809946,0.107021 2.063022,0.273694 2.784615,0.370368 1.647851,0.220762 1.689807,0.222338 1.786925,0.0681 0.07516,-0.11936 0.180359,-0.591456 0.408534,-1.834158 0.0649,-0.353442 0.17348,-0.931802 0.241394,-1.285246 0.0679,-0.353442 0.17572,-0.919753 0.239512,-1.258472 0.06378,-0.338716 0.1608,-0.820684 0.215557,-1.07104 0.05476,-0.250354 0.115221,-0.551584 0.1344,-0.6694 0.03566,-0.219 0.1271,-0.696924 0.368681,-1.92787 0.07516,-0.382897 0.18592,-0.955058 0.246205,-1.271545 0.06028,-0.316486 0.159081,-0.834605 0.219432,-1.151366 0.06038,-0.316765 0.16632,-0.86518 0.235433,-1.218622 0.0691,-0.353444 0.176299,-0.907706 0.238361,-1.231695 0.10246,-0.535011 0.176621,-0.914889 0.486036,-2.490168 0.231243,-1.17735 0.242175,-1.306095 0.126861,-1.503533 -0.05764,-0.09871 -0.1838,-0.225621 -0.280301,-0.281985 -0.0742,-0.04334 -0.0126,-0.07597 -0.287208,-0.07363 z M 19.000738,32.682023 c -0.219617,-0.0024 -0.428565,0.0136 -0.642394,0.04664 -0.294526,0.04566 -2.595851,0.374916 -5.114055,0.731632 -2.518203,0.356716 -4.6830733,0.686423 -4.8107427,0.73268 -0.541474,0.196201 -0.5863666,0.878408 -0.074678,1.134734 0.109842,0.05502 0.3443538,0.14202 0.5210695,0.1934 0.1767141,0.05138 0.3815465,0.11234 0.4551778,0.135341 0.073632,0.02304 0.2302664,0.06802 0.348077,0.100098 0.3359424,0.09146 1.2057014,0.336078 1.5395714,0.433018 0.09573,0.02778 0.270429,0.07736 0.38824,0.11014 0.11781,0.03278 0.286494,0.0804 0.374851,0.10586 0.260957,0.07516 1.323091,0.37497 1.526185,0.430821 0.103084,0.02836 0.350085,0.09992 0.548891,0.15908 0.198804,0.05916 0.524124,0.155999 0.722928,0.215149 0.198806,0.05917 0.457857,0.1342 0.575667,0.16684 0.117808,0.03262 0.274445,0.0778 0.348077,0.10042 0.07363,0.02262 0.230265,0.06694 0.348077,0.0984 0.502049,0.1341 0.873143,0.239408 2.08846,0.59273 0.706865,0.205504 1.502087,0.431822 1.767162,0.502992 0.794397,0.213292 4.45989,1.26248 5.006953,1.433144 0.279798,0.0873 0.605118,0.18596 0.722928,0.21933 0.117821,0.03338 0.321924,0.09478 0.45361,0.1366 0.13166,0.04181 0.384706,0.11222 0.562278,0.15646 0.177581,0.04424 0.395164,0.10164 0.483523,0.1275 0.08836,0.02586 0.244991,0.07046 0.348075,0.09916 0.103101,0.0287 0.44045,0.12844 0.749706,0.221634 0.805531,0.242788 1.167921,0.34576 1.526182,0.433436 0.11782,0.02882 0.370837,0.09924 0.562278,0.15648 0.19144,0.05722 0.613152,0.17856 0.93713,0.269746 0.32398,0.0912 0.692878,0.200386 0.81989,0.242658 0.127,0.04228 0.428225,0.12668 0.669378,0.18764 0.241148,0.06094 0.920498,0.252702 1.50955,0.426116 1.556346,0.458169 1.6427,0.47961 1.834728,0.45498 0.09608,-0.0124 2.65026,-1.270922 5.67602,-2.796936 5.949536,-3.000606 5.742954,-2.881542 5.742954,-3.311544 0,-0.293382 0.236196,-0.235758 -2.757842,-0.672954 -0.795222,-0.11612 -1.771174,-0.258216 -2.168786,-0.315874 -0.39761,-0.05766 -0.963904,-0.14194 -1.258434,-0.18722 -0.294526,-0.04528 -1.198186,-0.178239 -2.008132,-0.295476 -0.809952,-0.11722 -2.135322,-0.310093 -2.94527,-0.428626 -0.809948,-0.11852 -1.966636,-0.28696 -2.570414,-0.374235 -1.393638,-0.201451 -4.35832,-0.636077 -6.02441,-0.88319 -0.706864,-0.104841 -1.77921,-0.261867 -2.38299,-0.348923 -3.691402,-0.532246 -4.830875,-0.70334 -5.14083,-0.771796 -0.496989,-0.10978 -0.892614,-0.16422 -1.258639,-0.168081 z m -3.11188,5.984328 c -0.09633,0.02044 -2.055516,4.226714 -2.055516,4.413122 0,0.211446 0.152394,0.45128 0.338141,0.532066 0.216588,0.09422 0.258448,0.0945 0.504125,0.004 0.111047,-0.04096 0.45499,-0.15158 0.764244,-0.245796 0.309252,-0.09424 0.748784,-0.230062 0.976769,-0.301858 0.397707,-0.12526 0.666994,-0.207604 1.727521,-0.528616 0.877282,-0.265546 1.427296,-0.454532 1.571366,-0.540018 0.287268,-0.17044 0.594016,-0.73101 0.921128,-1.683016 0.09464,-0.275464 0.09536,-0.298892 0.0108,-0.362522 -0.04968,-0.0374 -0.18752,-0.09233 -0.306246,-0.12204 C 19.9175,39.725526 18.711533,39.401966 17.349861,39.028922 16.589056,38.82049 15.931598,38.65734 15.888838,38.666398 Z m 24.998373,3.323464 c -0.05626,0.0015 -0.12618,0.02482 -0.205838,0.07102 -0.09748,0.05656 -0.388724,0.220426 -0.647202,0.36409 -0.415038,0.230682 -1.234812,0.710782 -1.781908,1.043532 -0.1031,0.06268 -0.307916,0.17522 -0.45518,0.250082 -0.14726,0.07486 -0.400286,0.218324 -0.562278,0.318906 -0.7922,0.491894 -1.116254,0.594528 -1.456732,0.461154 -0.06766,-0.0265 -0.419182,-0.12708 -0.781188,-0.223516 -0.566273,-0.15082 -0.667986,-0.16464 -0.728262,-0.09904 -0.0651,0.07084 -0.140979,0.256476 -0.414074,1.013306 -0.05846,0.16198 -0.15546,0.415027 -0.21556,0.562293 -0.0601,0.14728 -0.12968,0.340055 -0.15446,0.428414 -0.0248,0.08836 -0.120779,0.365497 -0.213366,0.615853 -0.0926,0.250354 -0.188519,0.515436 -0.21326,0.58907 -0.02472,0.07362 -0.12058,0.338716 -0.212946,0.589072 -0.15726,0.426256 -0.432059,1.406644 -0.427772,1.526126 0.0044,0.11872 0.260647,0.359173 0.457892,0.429462 0.27466,0.09785 0.294532,0.0972 0.65307,-0.02446 0.475304,-0.161319 3.488902,-1.705221 4.295734,-2.200756 0.397612,-0.244198 0.981316,-0.582891 1.297236,-0.752654 0.31592,-0.169759 0.625586,-0.344463 0.6881,-0.388251 0.218618,-0.15312 0.374632,-0.46209 0.484256,-0.959332 0.06002,-0.272302 0.14424,-0.651788 0.18722,-0.843236 0.04296,-0.191441 0.0999,-0.456532 0.12656,-0.589074 0.02664,-0.13254 0.13426,-0.609894 0.23909,-1.060892 0.1048,-0.450996 0.19056,-0.879596 0.19056,-0.952326 0,-0.11354 -0.0559,-0.17138 -0.14968,-0.1688 z"
     style="fill:url(#linearGradient2);stroke-width:2"
     id="path1" />
</svg>
