<?xml version="1.0" encoding="UTF-8" standalone="no"?>
<!-- Created with Inkscape (http://www.inkscape.org/) -->

<svg
   width="64"
   height="64"
   viewBox="0 0 64 64.000004"
   version="1.1"
   id="svg1"
   inkscape:version="1.4.2 (ebf0e940d0, 2025-05-08)"
   sodipodi:docname="partitionmanager.svg"
   xmlns:inkscape="http://www.inkscape.org/namespaces/inkscape"
   xmlns:sodipodi="http://sodipodi.sourceforge.net/DTD/sodipodi-0.dtd"
   xmlns:xlink="http://www.w3.org/1999/xlink"
   xmlns="http://www.w3.org/2000/svg"
   xmlns:svg="http://www.w3.org/2000/svg">
  <sodipodi:namedview
     id="namedview1"
     pagecolor="#ffffff"
     bordercolor="#000000"
     borderopacity="0.25"
     inkscape:showpageshadow="2"
     inkscape:pageopacity="0.0"
     inkscape:pagecheckerboard="0"
     inkscape:deskcolor="#d1d1d1"
     inkscape:document-units="px"
     inkscape:zoom="12.453125"
     inkscape:cx="32"
     inkscape:cy="32"
     inkscape:window-width="1920"
     inkscape:window-height="1011"
     inkscape:window-x="0"
     inkscape:window-y="0"
     inkscape:window-maximized="1"
     inkscape:current-layer="svg1" />
  <defs
     id="defs1">
    <linearGradient
       inkscape:collect="always"
       xlink:href="#4852"
       id="linearGradient4"
       x1="16"
       y1="30"
       x2="16"
       y2="2"
       gradientUnits="userSpaceOnUse"
       gradientTransform="scale(2)" />
    <linearGradient
       inkscape:collect="always"
       id="4852">
      <stop
         style="stop-color:#272727;stop-opacity:1;"
         offset="0"
         id="stop14555" />
      <stop
         style="stop-color:#5d5d5d;stop-opacity:1;"
         offset="1"
         id="stop14557" />
    </linearGradient>
    <linearGradient
       inkscape:collect="always"
       xlink:href="#linearGradient4-8"
       id="linearGradient5"
       x1="8"
       y1="13"
       x2="8"
       y2="3"
       gradientUnits="userSpaceOnUse"
       gradientTransform="scale(4)" />
    <linearGradient
       id="linearGradient4-8"
       inkscape:collect="always">
      <stop
         style="stop-color:#bf5cdf;stop-opacity:1;"
         offset="0"
         id="stop4" />
      <stop
         style="stop-color:#ca78e4;stop-opacity:1;"
         offset="1"
         id="stop5" />
    </linearGradient>
    <linearGradient
       inkscape:collect="always"
       xlink:href="#linearGradient6"
       id="linearGradient7"
       x1="8"
       y1="13"
       x2="8"
       y2="3"
       gradientUnits="userSpaceOnUse"
       gradientTransform="scale(4)" />
    <linearGradient
       id="linearGradient6"
       inkscape:collect="always">
      <stop
         style="stop-color:#4990f1;stop-opacity:1;"
         offset="0"
         id="stop6" />
      <stop
         style="stop-color:#50b2f0;stop-opacity:1;"
         offset="1"
         id="stop7" />
    </linearGradient>
    <linearGradient
       inkscape:collect="always"
       xlink:href="#linearGradient10"
       id="linearGradient11"
       x1="8"
       y1="13"
       x2="8"
       y2="3"
       gradientUnits="userSpaceOnUse"
       gradientTransform="scale(4)" />
    <linearGradient
       id="linearGradient10"
       inkscape:collect="always">
      <stop
         style="stop-color:#2bc92a;stop-opacity:1;"
         offset="0"
         id="stop10" />
      <stop
         style="stop-color:#5fde5e;stop-opacity:1;"
         offset="1"
         id="stop11" />
    </linearGradient>
    <linearGradient
       inkscape:collect="always"
       xlink:href="#linearGradient8"
       id="linearGradient9"
       x1="8"
       y1="13"
       x2="8"
       y2="3"
       gradientUnits="userSpaceOnUse"
       gradientTransform="scale(4)" />
    <linearGradient
       id="linearGradient8"
       inkscape:collect="always">
      <stop
         style="stop-color:#ffcd55;stop-opacity:1;"
         offset="0"
         id="stop8" />
      <stop
         style="stop-color:#ffe555;stop-opacity:1;"
         offset="1"
         id="stop9" />
    </linearGradient>
  </defs>
  <rect
     style="opacity:0.2;fill:#000000;stroke-width:3.5"
     id="rect1"
     width="56"
     height="56"
     x="4"
     y="5"
     ry="12" />
  <rect
     style="fill:url(#linearGradient4);stroke-width:2"
     id="rect2"
     width="56"
     height="56"
     x="4"
     y="4"
     ry="12" />
  <circle
     style="opacity:0.5;fill:#ffffff;stroke-width:2"
     id="path5"
     cx="32"
     cy="32"
     r="8" />
  <path
     id="path1"
     style="fill:url(#linearGradient5);fill-opacity:1;stroke-width:4"
     d="m 38,32 c 0,3.313704 -2.686296,6 -6,6 v 14 a 20,20 0 0 0 2.371094,-0.15626 c 0.19176,-0.02272 0.380252,-0.05394 0.570312,-0.08204 a 20,20 0 0 0 1.863282,-0.367186 c 0.1748,-0.04318 0.350492,-0.08506 0.523436,-0.13282 a 20,20 0 0 0 2.226564,-0.746094 20,20 0 0 0 2.167968,-1.05078 c 0.15542,-0.0867 0.3042,-0.18274 0.457032,-0.273438 a 20,20 0 0 0 1.55078,-1.01953 c 0.16374,-0.11898 0.32835,-0.235594 0.488282,-0.359376 a 20,20 0 0 0 1.773438,-1.523438 20,20 0 0 0 0.296874,-0.296874 20,20 0 0 0 1.523438,-1.773438 c 0.12378,-0.15994 0.240386,-0.324548 0.359376,-0.488282 a 20,20 0 0 0 1.01953,-1.55078 c 0.0907,-0.15284 0.18674,-0.301612 0.273438,-0.457032 a 20,20 0 0 0 1.05078,-2.167968 20,20 0 0 0 0.746094,-2.226564 c 0.04776,-0.17294 0.08962,-0.348646 0.13282,-0.523436 a 20,20 0 0 0 0.367186,-1.863282 c 0.0281,-0.19006 0.05932,-0.37855 0.08204,-0.570312 A 20,20 0 0 0 52,32 Z" />
  <path
     id="path2"
     style="fill:url(#linearGradient7);fill-opacity:1;stroke-width:4"
     d="m 32,12 v 14 c 3.313704,0 6,2.686296 6,6 H 52 A 20,20 0 0 0 51.84374,29.625 C 51.82098,29.43304 51.78986,29.24495 51.7617,29.054688 a 20,20 0 0 0 -0.359374,-1.832032 c -0.04848,-0.1974 -0.09804,-0.39479 -0.15234,-0.589844 a 20,20 0 0 0 -0.695312,-2.08203 c -0.018,-0.04492 -0.03242,-0.09196 -0.05078,-0.13672 A 20,20 0 0 0 49.4453,22.242188 c -0.072,-0.12844 -0.15182,-0.25223 -0.226562,-0.378906 A 20,20 0 0 0 48.17577,20.277344 c -0.12886,-0.1775 -0.252234,-0.358214 -0.38672,-0.53125 a 20,20 0 0 0 -1.511718,-1.75 20,20 0 0 0 -0.273438,-0.273438 20,20 0 0 0 -1.75,-1.511719 C 44.08087,16.076451 43.900162,15.953079 43.722656,15.824219 A 20,20 0 0 0 42.136718,14.78125 C 42.010042,14.70651 41.88626,14.626697 41.757812,14.554687 a 20,20 0 0 0 -2.171874,-1.058593 c -0.04476,-0.01836 -0.0918,-0.03273 -0.13672,-0.05078 A 20,20 0 0 0 37.367188,12.75 C 37.172128,12.6957 36.97475,12.646144 36.777344,12.597656 A 20,20 0 0 0 34.945312,12.238281 C 34.75505,12.210121 34.566968,12.179011 34.375,12.15625 A 20,20 0 0 0 32,12 Z" />
  <path
     id="path3"
     style="fill:url(#linearGradient11);fill-opacity:1;stroke-width:4"
     d="m 32,12 a 20,20 0 0 0 -2.375,0.15625 c -0.19198,0.02277 -0.38004,0.05387 -0.570312,0.08203 a 20,20 0 0 0 -1.832032,0.359375 c -0.19742,0.04849 -0.39478,0.09804 -0.589844,0.152344 a 20,20 0 0 0 -2.035156,0.679688 c -0.06516,0.02599 -0.1344,0.04365 -0.19922,0.07031 a 20,20 0 0 0 -2.140626,1.042968 c -0.14744,0.08248 -0.288478,0.175644 -0.433594,0.261719 a 20,20 0 0 0 -1.542968,1.015625 c -0.17902,0.129896 -0.360677,0.255007 -0.535156,0.390625 a 20,20 0 0 0 -1.75,1.511719 c -0.09158,0.08984 -0.183596,0.181862 -0.273438,0.273438 a 20,20 0 0 0 -1.511719,1.75 c -0.13562,0.17448 -0.260728,0.356133 -0.390624,0.535155 a 20,20 0 0 0 -1.015626,1.542968 c -0.08607,0.14512 -0.17924,0.286146 -0.261718,0.433594 A 20,20 0 0 0 13.5,24.398438 c -0.02666,0.06482 -0.04432,0.13406 -0.07031,0.19922 A 20,20 0 0 0 12.75,26.632812 c -0.05431,0.19506 -0.10385,0.392428 -0.152344,0.589844 a 20,20 0 0 0 -0.359375,1.832032 C 12.210121,29.24496 12.179015,29.43302 12.15625,29.625 A 20,20 0 0 0 12,32 h 14 c 0,-3.313704 2.686296,-6 6,-6 z" />
  <path
     id="path4"
     style="fill:url(#linearGradient9);fill-opacity:1;stroke-width:4"
     d="m 12,32 a 20,20 0 0 0 0.15625,2.371094 c 0.02271,0.19176 0.05393,0.380252 0.08203,0.570312 a 20,20 0 0 0 0.367187,1.863282 c 0.04319,0.1748 0.08506,0.350492 0.132812,0.523436 a 20,20 0 0 0 0.746094,2.226564 20,20 0 0 0 1.050782,2.167968 c 0.08671,0.15542 0.182742,0.3042 0.273437,0.457032 a 20,20 0 0 0 1.019531,1.55078 c 0.118988,0.16374 0.235593,0.32835 0.359376,0.488282 a 20,20 0 0 0 1.523437,1.773438 20,20 0 0 0 0.296875,0.296874 20,20 0 0 0 1.773438,1.523438 c 0.159932,0.12378 0.324547,0.240386 0.488281,0.359376 a 20,20 0 0 0 1.55078,1.01953 c 0.15284,0.0907 0.301612,0.18674 0.457032,0.273438 a 20,20 0 0 0 2.167968,1.05078 20,20 0 0 0 2.226564,0.746094 c 0.17294,0.04776 0.348646,0.08962 0.523436,0.13282 a 20,20 0 0 0 1.863282,0.367186 c 0.19006,0.0281 0.37855,0.05932 0.570312,0.08204 A 20,20 0 0 0 32,52 V 38 c -3.313704,0 -6,-2.686296 -6,-6 z" />
</svg>
