<?xml version="1.0" encoding="UTF-8" standalone="no"?>
<!-- Created with Inkscape (http://www.inkscape.org/) -->

<svg
   width="64"
   height="64"
   viewBox="0 0 64 64.000004"
   version="1.1"
   id="svg1"
   inkscape:version="1.4.3 (0d15f75042, 2025-12-25)"
   sodipodi:docname="pulseeffects.svg"
   xmlns:inkscape="http://www.inkscape.org/namespaces/inkscape"
   xmlns:sodipodi="http://sodipodi.sourceforge.net/DTD/sodipodi-0.dtd"
   xmlns:xlink="http://www.w3.org/1999/xlink"
   xmlns="http://www.w3.org/2000/svg"
   xmlns:svg="http://www.w3.org/2000/svg">
  <sodipodi:namedview
     id="namedview1"
     pagecolor="#ffffff"
     bordercolor="#000000"
     borderopacity="0.25"
     inkscape:showpageshadow="2"
     inkscape:pageopacity="0.0"
     inkscape:pagecheckerboard="0"
     inkscape:deskcolor="#d1d1d1"
     inkscape:document-units="px"
     inkscape:zoom="12.65625"
     inkscape:cx="32"
     inkscape:cy="32"
     inkscape:window-width="1920"
     inkscape:window-height="1012"
     inkscape:window-x="0"
     inkscape:window-y="0"
     inkscape:window-maximized="1"
     inkscape:current-layer="svg1" />
  <defs
     id="defs1">
    <linearGradient
       inkscape:collect="always"
       xlink:href="#4852"
       id="linearGradient4"
       x1="16"
       y1="30"
       x2="16"
       y2="2"
       gradientUnits="userSpaceOnUse"
       gradientTransform="scale(2)" />
    <linearGradient
       inkscape:collect="always"
       id="4852">
      <stop
         style="stop-color:#272727;stop-opacity:1;"
         offset="0"
         id="stop14555" />
      <stop
         style="stop-color:#5d5d5d;stop-opacity:1;"
         offset="1"
         id="stop14557" />
    </linearGradient>
  </defs>
  <rect
     style="opacity:0.2;fill:#000000;stroke-width:3.5"
     id="rect1"
     width="56"
     height="56"
     x="4"
     y="5"
     ry="12" />
  <rect
     style="fill:url(#linearGradient4);stroke-width:2"
     id="rect2"
     width="56"
     height="56"
     x="4"
     y="4"
     ry="12" />
  <rect
     style="opacity:0.4;fill:#f9f9f9;stroke-width:3.79474"
     id="rect3"
     width="4"
     height="36"
     x="14"
     y="14"
     ry="2" />
  <rect
     style="opacity:0.4;fill:#f9f9f9;stroke-width:3.79474"
     id="rect4"
     width="4"
     height="36"
     x="30"
     y="14"
     ry="2" />
  <rect
     style="opacity:0.4;fill:#f9f9f9"
     id="rect5"
     width="4"
     height="36"
     x="46"
     y="14"
     ry="2" />
  <rect
     style="fill:#bef3ff;fill-opacity:1;stroke-width:2"
     id="rect5-6"
     width="4"
     height="26"
     x="14"
     y="24"
     ry="2" />
  <rect
     style="fill:#bef3ff;fill-opacity:1;stroke-width:2"
     id="rect6"
     width="4"
     height="12"
     x="30"
     y="38"
     ry="2" />
  <rect
     style="fill:#bef3ff;fill-opacity:1;stroke-width:2"
     id="rect7"
     width="4"
     height="21"
     x="46"
     y="29"
     ry="2" />
  <path
     id="path1"
     style="opacity:0.2;fill:#000000;stroke-width:1.66666"
     d="m 16,20.000006 c -2.761424,0 -5,2.23858 -5,5 0,2.76142 2.238576,5 5,5 2.761424,0 5,-2.23858 5,-5 0,-2.76142 -2.238576,-5 -5,-5 z m 32,4 c -2.761424,0 -5,2.23858 -5,5 0,2.76142 2.238576,5 5,5 2.761424,0 5,-2.23858 5,-5 0,-2.76142 -2.238576,-5 -5,-5 z m -16,9 c -2.761424,0 -5,2.23858 -5,5 0,2.76142 2.238576,5 5,5 2.761424,0 5,-2.23858 5,-5 0,-2.76142 -2.238576,-5 -5,-5 z" />
  <path
     id="path2"
     style="fill:#f9f9f9;fill-opacity:1;stroke-width:8;stroke-linecap:round;stroke-linejoin:round"
     d="m 16,21.000006 c -2.20914,0 -4,1.79086 -4,4 0,2.20914 1.79086,4 4,4 2.209137,0 4,-1.79086 4,-4 0,-2.20914 -1.790863,-4 -4,-4 z m 32,4 c -2.20914,0 -4,1.79086 -4,4 0,2.20914 1.79086,4 4,4 2.209137,0 4,-1.79086 4,-4 0,-2.20914 -1.790863,-4 -4,-4 z m -16,9 c -2.20914,0 -4,1.79086 -4,4 0,2.20914 1.79086,4 4,4 2.209137,0 4,-1.79086 4,-4 0,-2.20914 -1.790863,-4 -4,-4 z" />
</svg>
