<?xml version="1.0" encoding="UTF-8" standalone="no"?>
<!-- Created with Inkscape (http://www.inkscape.org/) -->

<svg
   width="64"
   height="64"
   viewBox="0 0 64 64.000004"
   version="1.1"
   id="svg1"
   inkscape:version="1.4.2 (ebf0e940d0, 2025-05-08)"
   sodipodi:docname="qbittorrent.svg"
   xmlns:inkscape="http://www.inkscape.org/namespaces/inkscape"
   xmlns:sodipodi="http://sodipodi.sourceforge.net/DTD/sodipodi-0.dtd"
   xmlns:xlink="http://www.w3.org/1999/xlink"
   xmlns="http://www.w3.org/2000/svg"
   xmlns:svg="http://www.w3.org/2000/svg">
  <sodipodi:namedview
     id="namedview1"
     pagecolor="#ffffff"
     bordercolor="#000000"
     borderopacity="0.25"
     inkscape:showpageshadow="2"
     inkscape:pageopacity="0.0"
     inkscape:pagecheckerboard="0"
     inkscape:deskcolor="#d1d1d1"
     inkscape:document-units="px"
     inkscape:zoom="12.515625"
     inkscape:cx="32"
     inkscape:cy="32"
     inkscape:window-width="1920"
     inkscape:window-height="1011"
     inkscape:window-x="0"
     inkscape:window-y="0"
     inkscape:window-maximized="1"
     inkscape:current-layer="svg1" />
  <defs
     id="defs1">
    <linearGradient
       inkscape:collect="always"
       xlink:href="#4852"
       id="linearGradient4"
       x1="16"
       y1="30"
       x2="16"
       y2="2"
       gradientUnits="userSpaceOnUse"
       gradientTransform="scale(2)" />
    <linearGradient
       inkscape:collect="always"
       id="4852">
      <stop
         style="stop-color:#272727;stop-opacity:1;"
         offset="0"
         id="stop14555" />
      <stop
         style="stop-color:#5d5d5d;stop-opacity:1;"
         offset="1"
         id="stop14557" />
    </linearGradient>
  </defs>
  <rect
     style="opacity:0.2;fill:#000000;stroke-width:3.5"
     id="rect1"
     width="56"
     height="56"
     x="4"
     y="5"
     ry="12" />
  <rect
     style="fill:url(#linearGradient4);stroke-width:2"
     id="rect2"
     width="56"
     height="56"
     x="4"
     y="4"
     ry="12" />
  <path
     id="path1"
     style="fill:#a6d3fb;fill-opacity:1;stroke-width:14;stroke-linecap:round"
     d="m 20.347656,22.546876 c -1.664934,-2e-6 -3.126732,0.419268 -4.390624,1.257812 -1.25174,0.838544 -2.22526,2.01258 -2.91797,3.51953 C 12.346354,28.819016 12,30.554246 12,32.535156 c 0,1.968756 0.346362,3.707894 1.039062,5.214844 0.69271,1.494798 1.666242,2.668832 2.91797,3.519532 1.263894,0.838544 2.725688,1.257812 4.390624,1.257812 0.838544,0 1.622392,-0.12414 2.351562,-0.367188 0.74132,-0.230906 1.423176,-0.588106 2.04297,-1.074218 0.619794,-0.486112 1.159286,-1.098524 1.621094,-1.839844 h 0.03906 V 49 H 29.5 V 22.910156 h -3.027344 v 2.84375 H 26.4375 C 26.024304,25.036892 25.50304,24.44271 24.871094,23.96875 24.239148,23.494792 23.531686,23.141062 22.753906,22.910156 21.98828,22.667092 21.1862,22.546876 20.347656,22.546876 Z m 0.476562,2.76953 c 1.190976,0 2.222652,0.299042 3.097658,0.894532 0.874998,0.595486 1.549476,1.434022 2.023436,2.515624 0.473952,1.081602 0.710938,2.350256 0.710938,3.808594 0,1.446186 -0.236978,2.711368 -0.710938,3.792968 -0.47396,1.0816 -1.148436,1.920138 -2.023436,2.515626 -0.875006,0.595486 -1.906682,0.894532 -3.097658,0.894532 -1.105906,0 -2.090274,-0.273438 -2.953124,-0.820314 -0.850696,-0.546878 -1.5217,-1.356334 -2.007812,-2.42578 -0.486112,-1.06945 -0.726564,-2.38932 -0.726564,-3.957032 0,-1.579866 0.24045,-2.90321 0.726564,-3.972656 0.486112,-1.06945 1.157116,-1.878904 2.007812,-2.425782 0.86285,-0.546876 1.847218,-0.820312 2.953124,-0.820312 z" />
  <path
     d="m 43.244892,42.52613 c -0.826392,0 -1.616324,-0.12152 -2.3698,-0.364584 C 40.121614,41.93065 39.428906,41.572132 38.79696,41.08602 38.165014,40.599908 37.618138,39.98619 37.15633,39.24487 h -0.03646 v 2.916676 H 34.09382 V 15 h 3.098966 v 10.755242 h 0.03648 c 0.413196,-0.717014 0.929692,-1.312504 1.549486,-1.786464 0.619794,-0.473958 1.312502,-0.82639 2.078132,-1.057294 0.765628,-0.243058 1.561636,-0.364584 2.388028,-0.364584 1.677088,0 3.141502,0.419272 4.393242,1.257816 1.25174,0.838544 2.223966,2.01129 2.916676,3.51824 0.69271,1.494798 1.039066,3.23265 1.039066,5.213558 0,1.968756 -0.34636,3.706608 -1.039066,5.213558 -0.69271,1.494798 -1.664936,2.667542 -2.916676,3.518242 -1.25174,0.838544 -2.716154,1.257816 -4.393242,1.257816 z m -0.473964,-2.789074 c 1.118062,0 2.10244,-0.273454 2.953136,-0.820316 0.8507,-0.546874 1.519106,-1.355034 2.005216,-2.424484 0.486112,-1.069446 0.72917,-2.38803 0.72917,-3.955742 0,-1.579866 -0.24304,-2.904524 -0.72917,-3.97397 -0.48611,-1.06945 -1.154516,-1.87761 -2.005216,-2.424488 -0.850696,-0.546876 -1.835074,-0.820314 -2.953136,-0.820314 -1.190976,0 -2.223962,0.297744 -3.098966,0.893232 -0.875004,0.595488 -1.549484,1.434032 -2.023444,2.515632 -0.47396,1.081602 -0.710938,2.35157 -0.710938,3.809908 0,1.446186 0.236986,2.710078 0.710938,3.79168 0.47396,1.081602 1.14844,1.920146 2.023444,2.515632 0.875004,0.595486 1.90799,0.893232 3.098966,0.89323 z"
     style="fill:#ffffff;stroke-width:14;stroke-linecap:round"
     id="path2" />
</svg>
