<?xml version="1.0" encoding="UTF-8" standalone="no"?>
<!-- Created with Inkscape (http://www.inkscape.org/) -->

<svg
   width="64"
   height="64"
   viewBox="0 0 64 64.000004"
   version="1.1"
   id="svg1"
   inkscape:version="1.4.2 (1:1.4.2+202505120737+ebf0e940d0)"
   sodipodi:docname="rnote.svg"
   xmlns:inkscape="http://www.inkscape.org/namespaces/inkscape"
   xmlns:sodipodi="http://sodipodi.sourceforge.net/DTD/sodipodi-0.dtd"
   xmlns:xlink="http://www.w3.org/1999/xlink"
   xmlns="http://www.w3.org/2000/svg"
   xmlns:svg="http://www.w3.org/2000/svg">
  <sodipodi:namedview
     id="namedview1"
     pagecolor="#ffffff"
     bordercolor="#000000"
     borderopacity="0.25"
     inkscape:showpageshadow="2"
     inkscape:pageopacity="0.0"
     inkscape:pagecheckerboard="0"
     inkscape:deskcolor="#d1d1d1"
     inkscape:document-units="px"
     inkscape:zoom="12.609375"
     inkscape:cx="32"
     inkscape:cy="32"
     inkscape:window-width="1920"
     inkscape:window-height="1016"
     inkscape:window-x="0"
     inkscape:window-y="0"
     inkscape:window-maximized="1"
     inkscape:current-layer="svg1" />
  <defs
     id="defs1">
    <linearGradient
       inkscape:collect="always"
       xlink:href="#4852"
       id="linearGradient4"
       x1="16"
       y1="30"
       x2="16"
       y2="2"
       gradientUnits="userSpaceOnUse"
       gradientTransform="scale(2)" />
    <linearGradient
       inkscape:collect="always"
       id="4852">
      <stop
         style="stop-color:#272727;stop-opacity:1;"
         offset="0"
         id="stop14555" />
      <stop
         style="stop-color:#5d5d5d;stop-opacity:1;"
         offset="1"
         id="stop14557" />
    </linearGradient>
    <linearGradient
       inkscape:collect="always"
       id="linearGradient1606">
      <stop
         style="stop-color:#eaebed;stop-opacity:1;"
         offset="0"
         id="stop1602" />
      <stop
         style="stop-color:#f9fafa;stop-opacity:1;"
         offset="1"
         id="stop1604" />
    </linearGradient>
    <linearGradient
       inkscape:collect="always"
       xlink:href="#linearGradient1606"
       id="linearGradient6"
       x1="11.000003"
       y1="13.000074"
       x2="11.000003"
       y2="3"
       gradientUnits="userSpaceOnUse"
       gradientTransform="matrix(4,0,0,4,1.9999999,0)" />
  </defs>
  <rect
     style="opacity:0.2;fill:#000000;stroke-width:3.5"
     id="rect1"
     width="56"
     height="56"
     x="4"
     y="5"
     ry="12" />
  <rect
     style="fill:url(#linearGradient4);stroke-width:2"
     id="rect2"
     width="56"
     height="56"
     x="4"
     y="4"
     ry="12" />
  <path
     d="m 43.661472,20.950686 c -0.076,-0.63111 0.3984,-1.629816 0.33476,-2.989476 -0.06572,-1.361874 -0.712632,-3.259638 -3.368052,-4.637009 -0.04724,-0.02436 -0.09444,-0.04873 -0.14376,-0.07307 -1.727156,-0.859194 -4.244972,-1.474806 -7.181752,-1.173642 -2.281648,0.234727 -4.651608,1.011992 -6.88602,2.382723 -2.010564,1.229004 -3.86299,2.911968 -5.36629,4.993532 -0.883086,1.308726 -1.653222,2.79018 -2.203612,4.388992 -0.238228,0.690904 -0.435381,1.406162 -0.583246,2.136924 -0.191,0.949988 -0.295712,1.988554 -0.254652,3.084698 0.10884,1.738324 0.589407,3.638304 1.663488,5.347836 0.507262,0.810484 1.137742,1.545676 1.866802,2.159072 0.724954,0.613392 1.554644,1.109424 2.460322,1.434948 1.45196,0.511532 2.879274,0.511532 4.060142,0.31888 0.626378,-0.10188 1.201408,-0.25908 1.708672,-0.434028 0.626372,-0.2148 1.201406,-0.462816 1.655272,-0.673184 0.989876,-0.467252 1.918148,-1.0275 2.657474,-1.479244 0.739328,-0.451744 1.46428,-0.9057 2.16048,-1.273296 0.414848,-0.2126 0.907732,-0.449524 1.394456,-0.628896 0.1294,-0.04648 0.25876,-0.0908 0.38816,-0.12844 0.484668,-0.14392 0.963184,-0.20816 1.388292,-0.16164 0.36348,0.0376 0.67156,0.16608 0.87898,0.32332 0.08828,0.0598 0.16428,0.14392 0.22796,0.23252 0.05544,0.08196 0.0924,0.15948 0.11296,0.20152 0.0228,0.05312 0.0352,0.16164 -0.0044,0.31888 -0.0372,0.1594 -0.11704,0.34324 -0.24028,0.527032 -0.12732,0.18824 -0.30392,0.38308 -0.542172,0.584608 -0.23412,0.19488 -0.51342,0.38532 -0.837904,0.569108 -0.712632,0.3698 -1.421152,0.617824 -2.417192,1.018636 -0.903624,0.36316 -1.981812,0.83262 -2.992226,1.576668 -0.529852,0.403028 -1.059704,0.9057 -1.515624,1.514668 -0.453864,0.608968 -0.848174,1.344156 -1.067916,2.205568 -0.19716,0.861412 -0.207424,1.818048 0.05748,2.737032 0.13348,0.467248 0.338856,0.910132 0.601734,1.3043 0.266992,0.3986 0.601728,0.759552 0.998094,1.047424 0.70441,0.504888 1.480706,0.6909 2.152262,0.710832 h 0.22796 c 0.568872,-0.0152 1.111048,-0.14172 1.605988,-0.32108 0.517528,-0.17048 0.985772,-0.400812 1.388292,-0.60454 0.41074,-0.21036 0.727004,-0.38084 1.057648,-0.522604 0.30188,-0.14392 0.564768,-0.23692 0.802996,-0.27684 0.22588,-0.0376 0.41074,-0.02 0.544228,0.02 0.05956,0.0176 0.11296,0.04648 0.15608,0.07532 0.04108,0.0288 0.06984,0.05536 0.0842,0.06868 0.0228,0.0112 0.04316,0.0288 0.05748,0.0336 0.0164,0 0.0308,0.0092 0.05136,0.0044 0.0184,-0.0044 0,0.06644 -0.07396,0.15948 -0.08624,0.10852 -0.21152,0.217 -0.404576,0.37864 -0.18688,0.1528 -0.441548,0.35428 -0.673612,0.602324 -0.25668,0.27236 -0.507264,0.617824 -0.661288,1.045212 -0.15404,0.431812 -0.17868,0.874696 -0.115,1.264436 0.07396,0.453956 0.26904,0.82598 0.49494,1.0895 0.30396,0.35872 0.65718,0.511528 0.917996,0.553604 0.06364,0.0092 0.1232,0.0132 0.17868,0.0112 0.464132,-0.0176 0.651016,-0.400812 0.733164,-0.513744 -0.115,-0.11736 -0.23208,-0.418528 -0.32448,-0.675404 -0.0104,-0.0288 -0.0204,-0.05536 -0.0288,-0.08416 -0.0372,-0.11292 -0.0698,-0.23692 -0.0616,-0.34764 0.0044,-0.07972 0.0228,-0.16384 0.05752,-0.217 0.0288,-0.04648 0.06984,-0.0886 0.1068,-0.10408 0.0372,-0.0176 0.0986,-0.07088 0.20948,-0.14392 0.1376,-0.0886 0.23416,-0.13948 0.478512,-0.28124 0.191,-0.10852 0.474404,-0.27684 0.745488,-0.504892 0.27108,-0.22808 0.583248,-0.560248 0.805048,-1.023064 0.19716,-0.414096 0.29368,-0.872484 0.29368,-1.324228 0.002,-0.45174 -0.0924,-0.8902 -0.25668,-1.282152 -0.17248,-0.39416 -0.41074,-0.730764 -0.681828,-1.007564 -0.27312,-0.279064 -0.583248,-0.500488 -0.907728,-0.666568 -0.651024,-0.32996 -1.336952,-0.422956 -1.938684,-0.3986 -0.622268,0.0244 -1.193192,0.17496 -1.663488,0.33436 -0.464132,0.16832 -0.944696,0.38976 -1.285612,0.538108 -0.39224,0.17052 -0.694144,0.28788 -0.979608,0.35872 -0.26904,0.05092 -0.472348,0.04648 -0.620216,0.0112 -0.0184,-0.0044 -0.0368,-0.0092 -0.05544,-0.0152 -0.14992,-0.05092 -0.23204,-0.13948 -0.20948,-0.1838 0.0124,-0.0176 0.0144,-0.04 0.0184,-0.07752 0.0044,-0.0352 0.008,-0.07532 0.0248,-0.11072 0.0248,-0.07532 0.06568,-0.20596 0.14996,-0.32772 0.0616,-0.13508 0.16428,-0.28788 0.33268,-0.460604 0.17248,-0.17716 0.3984,-0.35652 0.669504,-0.51596 0.54628,-0.35428 1.197304,-0.617824 2.041368,-0.903484 0.7804,-0.26572 1.850372,-0.591256 2.834092,-1.031924 0.529852,-0.22588 1.08024,-0.502676 1.6142,-0.852556 0.54628,-0.35652 1.0864,-0.79498 1.579284,-1.337512 0.511372,-0.566892 0.954968,-1.235652 1.281504,-1.984128 0.33476,-0.77062 0.55244,-1.645316 0.572976,-2.58202 0.0204,-0.923696 -0.15404,-1.79618 -0.445636,-2.566796 -0.29984,-0.79984 -0.737276,-1.517316 -1.258912,-2.117424 -1.104884,-1.271084 -2.503444,-1.961984 -3.760304,-2.260932 -1.456064,-0.347648 -2.821768,-0.21924 -3.871204,0.02004 -0.29164,0.06866 -0.566816,0.14394 -0.823528,0.225884 -0.969344,0.3078 -1.774388,0.721908 -2.339154,1.043 -0.918002,0.511536 -1.831892,1.133788 -2.454158,1.543456 -0.7229,0.4761 -1.36981,0.887984 -2.018778,1.204648 -0.289584,0.14392 -0.60585,0.27236 -0.93444,0.36096 -0.262864,0.06868 -0.519584,0.11516 -0.772186,0.12844 -0.482618,0.0268 -0.88925,-0.06644 -1.164442,-0.23692 -0.1602,-0.093 -0.324476,-0.22808 -0.474402,-0.40524 -0.14994,-0.17934 -0.277248,-0.387492 -0.363492,-0.608956 -0.19716,-0.491604 -0.25878,-1.087284 -0.1725,-1.65196 0.02276,-0.352092 0.09446,-0.706404 0.207424,-1.058496 0.0883,-0.272382 0.209468,-0.54918 0.363492,-0.828196 0.361448,-0.655472 0.88514,-1.275514 1.499196,-1.809186 0.954962,-0.949994 2.07217,-1.636464 3.205806,-2.081564 1.260966,-0.496032 2.468536,-0.666544 3.52824,-0.6754 1.35543,-0.009 2.56917,0.241368 3.520022,0.360936 0.0268,0.0022 0.0534,0.0066 0.08008,0.009 1.503304,0.17938 2.65542,-0.19932 3.678156,-0.726332 0.991932,-0.509318 1.879132,-1.198004 2.43362,-1.20243 z"
     style="fill:url(#linearGradient6);stroke-width:4"
     id="path1-5" />
</svg>
