<?xml version="1.0" encoding="UTF-8" standalone="no"?>
<!-- Created with Inkscape (http://www.inkscape.org/) -->

<svg
   width="64"
   height="64"
   viewBox="0 0 64 64.000004"
   version="1.1"
   id="svg1"
   inkscape:version="1.4.3 (0d15f75042, 2025-12-25)"
   sodipodi:docname="vmware-player.svg"
   xmlns:inkscape="http://www.inkscape.org/namespaces/inkscape"
   xmlns:sodipodi="http://sodipodi.sourceforge.net/DTD/sodipodi-0.dtd"
   xmlns:xlink="http://www.w3.org/1999/xlink"
   xmlns="http://www.w3.org/2000/svg"
   xmlns:svg="http://www.w3.org/2000/svg">
  <sodipodi:namedview
     id="namedview1"
     pagecolor="#ffffff"
     bordercolor="#000000"
     borderopacity="0.25"
     inkscape:showpageshadow="2"
     inkscape:pageopacity="0.0"
     inkscape:pagecheckerboard="0"
     inkscape:deskcolor="#d1d1d1"
     inkscape:document-units="px"
     inkscape:zoom="12.46875"
     inkscape:cx="31.9599"
     inkscape:cy="32"
     inkscape:window-width="1854"
     inkscape:window-height="1011"
     inkscape:window-x="0"
     inkscape:window-y="0"
     inkscape:window-maximized="1"
     inkscape:current-layer="svg1" />
  <defs
     id="defs1">
    <linearGradient
       inkscape:collect="always"
       xlink:href="#4852"
       id="linearGradient4"
       x1="16"
       y1="30"
       x2="16"
       y2="2"
       gradientUnits="userSpaceOnUse"
       gradientTransform="scale(2)" />
    <linearGradient
       inkscape:collect="always"
       id="4852">
      <stop
         style="stop-color:#272727;stop-opacity:1;"
         offset="0"
         id="stop14555" />
      <stop
         style="stop-color:#5d5d5d;stop-opacity:1;"
         offset="1"
         id="stop14557" />
    </linearGradient>
  </defs>
  <rect
     style="opacity:0.2;fill:#000000;stroke-width:3.5"
     id="rect1"
     width="56"
     height="56"
     x="4"
     y="5"
     ry="12" />
  <rect
     style="fill:url(#linearGradient4);stroke-width:2"
     id="rect2"
     width="56"
     height="56"
     x="4"
     y="4"
     ry="12" />
  <path
     id="path3"
     d="M 14.855468,12 C 13.27261,12 12,13.27255 12,14.855468 v 12.859376 c 0,1.582858 1.27255,2.855468 2.855468,2.855468 1.58286,0 2.859376,-1.27255 2.859376,-2.855468 V 21.730468 L 22,26.019532 v 4.55078 h 5.714844 v -1.42578 c 0,-0.79144 0.638248,-1.429688 1.429688,-1.429688 h 1.42578 V 22 h -4.55078 l -4.289064,-4.285156 h 5.984376 c 1.582858,0 2.855468,-1.27255 2.855468,-2.855468 C 30.570312,13.276516 29.297762,12 27.714844,12 Z m 21.429688,0 c -1.582858,0 -2.855468,1.27255 -2.855468,2.855468 0,1.58286 1.27255,2.859376 2.855468,2.859376 h 5.980468 L 37.980468,22 h -4.55078 v 5.714844 h 1.42578 c 0.79144,0 1.429688,0.638248 1.429688,1.429688 v 1.42578 H 42 v -4.55078 l 4.285156,-4.289064 v 5.984376 c 0,1.582858 1.27255,2.855468 2.855468,2.855468 1.58286,0 2.859376,-1.27255 2.859376,-2.855468 V 14.855468 C 52,13.27261 50.723544,12 49.140624,12 Z M 22,33.429688 v 5.710936 C 22,40.724624 23.27147,42 24.855468,42 h 5.714844 v -5.714844 h -1.42578 c -0.79144,0 -1.429688,-0.638248 -1.429688,-1.429688 v -1.42578 z m 14.285156,0 v 1.42578 c 0,0.79144 -0.638248,1.429688 -1.429688,1.429688 h -1.42578 V 42 h 4.55078 l 4.285156,4.285156 h -5.980468 c -1.582858,0 -2.859374,1.27255 -2.859374,2.855468 0,1.58286 1.276456,2.859376 2.859374,2.859376 H 49.140624 C 50.722624,52.002 52,50.72853 52,49.144532 V 36.285156 c 0,-1.582858 -1.276456,-2.855468 -2.859376,-2.855468 -1.582858,0 -2.855468,1.27255 -2.855468,2.855468 v 5.984376 l -4.289062,-4.285156 v -4.554688 z"
     style="fill:#edb200;fill-opacity:1;stroke-width:2" />
</svg>
