<?xml version="1.0" encoding="UTF-8" standalone="no"?>
<!-- Created with Inkscape (http://www.inkscape.org/) -->

<svg
   width="24"
   height="24"
   viewBox="0 0 24 24.000002"
   version="1.1"
   id="svg1"
   inkscape:version="1.4.3 (0d15f75042, 2025-12-25)"
   sodipodi:docname="accessories-ebook-reader.svg"
   xmlns:inkscape="http://www.inkscape.org/namespaces/inkscape"
   xmlns:sodipodi="http://sodipodi.sourceforge.net/DTD/sodipodi-0.dtd"
   xmlns:xlink="http://www.w3.org/1999/xlink"
   xmlns="http://www.w3.org/2000/svg"
   xmlns:svg="http://www.w3.org/2000/svg">
  <sodipodi:namedview
     id="namedview1"
     pagecolor="#ffffff"
     bordercolor="#000000"
     borderopacity="0.25"
     inkscape:showpageshadow="2"
     inkscape:pageopacity="0.0"
     inkscape:pagecheckerboard="0"
     inkscape:deskcolor="#d1d1d1"
     inkscape:document-units="px"
     inkscape:zoom="33.25"
     inkscape:cx="11.984962"
     inkscape:cy="12"
     inkscape:window-width="1920"
     inkscape:window-height="1011"
     inkscape:window-x="0"
     inkscape:window-y="0"
     inkscape:window-maximized="1"
     inkscape:current-layer="svg1" />
  <defs
     id="defs1">
    <linearGradient
       inkscape:collect="always"
       xlink:href="#4852"
       id="linearGradient4"
       x1="16"
       y1="30"
       x2="16"
       y2="2"
       gradientUnits="userSpaceOnUse"
       gradientTransform="matrix(0.71428571,0,0,0.71428571,0.57142857,0.5714286)" />
    <linearGradient
       inkscape:collect="always"
       id="4852">
      <stop
         style="stop-color:#272727;stop-opacity:1;"
         offset="0"
         id="stop14555" />
      <stop
         style="stop-color:#5d5d5d;stop-opacity:1;"
         offset="1"
         id="stop14557" />
    </linearGradient>
    <linearGradient
       inkscape:collect="always"
       id="linearGradient3788">
      <stop
         style="stop-color:#ff7c15;stop-opacity:1;"
         offset="0"
         id="stop3784" />
      <stop
         style="stop-color:#f9bd00;stop-opacity:1;"
         offset="1"
         id="stop3786" />
    </linearGradient>
    <linearGradient
       inkscape:collect="always"
       xlink:href="#linearGradient3788"
       id="linearGradient2"
       x1="11"
       y1="21"
       x2="11"
       y2="1"
       gradientUnits="userSpaceOnUse"
       gradientTransform="translate(1,1)" />
  </defs>
  <rect
     style="opacity:0.2;fill:#000000;stroke-width:1.75"
     id="rect1"
     width="20"
     height="20"
     x="2"
     y="2.5"
     ry="4" />
  <rect
     style="fill:url(#linearGradient4);stroke-width:0.714286"
     id="rect2"
     width="20"
     height="20"
     x="2"
     y="2"
     ry="4" />
  <path
     d="M 8,6.9999999 C 6.10905,6.9999999 5.313378,7.7461691 5,8.5 v 8.142578 c 0,0.159142 0.08334,0.353144 0.25,0.357421 0.151344,0.0039 0.32115,-0.236461 0.416016,-0.357421 C 5.885882,16.385524 6.795024,15.565863 8,15.499999 c 0.675248,0.0096 1.586834,0.163337 2.333984,0.785157 C 10.621822,16.544775 11.009858,16.486582 11,15.999999 V 8.5 C 10.2379,7.3020643 9.186342,6.9999999 8,6.9999999 Z m 7,0 c -1.186342,0 -2.2379,0.3020646 -3,1.5000001 v 7.499999 c -0.0099,0.486583 0.378178,0.544776 0.666016,0.285157 0.74715,-0.62182 1.658736,-0.775587 2.333984,-0.785157 1.204976,0.06586 2.114118,0.885525 2.333984,1.142579 0.09487,0.12096 0.264672,0.361321 0.416016,0.357421 0.16666,-0.0043 0.25,-0.19828 0.25,-0.357421 V 8.5 C 17.686622,7.7461691 16.89095,6.9999999 15,6.9999999 Z"
     style="color:#000000;fill:url(#linearGradient2);stroke:none;stroke-width:1.38011;stroke-linecap:round;stroke-linejoin:round"
     id="path1923" />
</svg>
