<?xml version="1.0" encoding="UTF-8" standalone="no"?>
<!-- Created with Inkscape (http://www.inkscape.org/) -->

<svg
   width="24"
   height="24"
   viewBox="0 0 24 24.000002"
   version="1.1"
   id="svg1"
   inkscape:version="1.4.2 (ebf0e940d0, 2025-05-08)"
   sodipodi:docname="electron.svg"
   xmlns:inkscape="http://www.inkscape.org/namespaces/inkscape"
   xmlns:sodipodi="http://sodipodi.sourceforge.net/DTD/sodipodi-0.dtd"
   xmlns:xlink="http://www.w3.org/1999/xlink"
   xmlns="http://www.w3.org/2000/svg"
   xmlns:svg="http://www.w3.org/2000/svg">
  <sodipodi:namedview
     id="namedview1"
     pagecolor="#ffffff"
     bordercolor="#000000"
     borderopacity="0.25"
     inkscape:showpageshadow="2"
     inkscape:pageopacity="0.0"
     inkscape:pagecheckerboard="0"
     inkscape:deskcolor="#d1d1d1"
     inkscape:document-units="px"
     inkscape:zoom="33.708333"
     inkscape:cx="12"
     inkscape:cy="12"
     inkscape:window-width="1920"
     inkscape:window-height="1011"
     inkscape:window-x="0"
     inkscape:window-y="0"
     inkscape:window-maximized="1"
     inkscape:current-layer="svg1" />
  <defs
     id="defs1">
    <linearGradient
       inkscape:collect="always"
       xlink:href="#4852"
       id="linearGradient4"
       x1="16"
       y1="30"
       x2="16"
       y2="2"
       gradientUnits="userSpaceOnUse"
       gradientTransform="matrix(0.71428571,0,0,0.71428571,0.57142857,0.57142857)" />
    <linearGradient
       inkscape:collect="always"
       id="4852">
      <stop
         style="stop-color:#272727;stop-opacity:1;"
         offset="0"
         id="stop14555" />
      <stop
         style="stop-color:#5d5d5d;stop-opacity:1;"
         offset="1"
         id="stop14557" />
    </linearGradient>
  </defs>
  <rect
     style="opacity:0.2;fill:#000000;stroke-width:1.75"
     id="rect1"
     width="20"
     height="20"
     x="2"
     y="2.5"
     ry="4" />
  <rect
     style="fill:url(#linearGradient4);stroke-width:0.714286"
     id="rect2"
     width="20"
     height="20"
     x="2"
     y="2"
     ry="4" />
  <path
     d="M 12.429688,4.0019531 C 11.91954,4.0259045 11.45663,4.3077717 11.201172,4.75 10.787066,5.4673371 11.032763,6.3845483 11.75,6.7988281 c 0.374721,0.216551 0.824715,0.2606959 1.234375,0.1210938 0.170592,0.1814301 0.338131,0.3784725 0.498047,0.5917969 C 12.172086,7.9344414 10.810923,8.5974936 9.625,9.4257812 8.7372531,10.045812 7.9970595,10.776034 7.421875,11.552734 6.8270846,11.003445 6.3873871,10.443457 6.171875,9.9394531 5.9544866,9.4310613 5.9392257,9.0093795 6.1640625,8.5585938 6.4134382,8.0586088 6.7037313,7.8105026 7.0097656,7.6699219 7.3158,7.5293412 7.6574451,7.4997104 7.9941406,7.5351562 8.6675317,7.6060481 9.25,7.9335938 9.25,7.9335938 9.4894326,8.0719286 9.7956846,7.9896781 9.9335938,7.75 10.071929,7.5105674 9.9896781,7.2043154 9.75,7.0664062 c 0,0 -0.726165,-0.4278864 -1.6523438,-0.5253906 C 7.6345669,6.4922635 7.1047364,6.5260935 6.5917969,6.7617188 6.0788574,6.9973439 5.6045161,7.4397016 5.2695312,8.1113281 4.9100075,8.8321541 4.9498938,9.6256253 5.2519531,10.332031 c 0.3020594,0.706406 0.8401326,1.357082 1.5078125,1.970703 0.035864,0.03296 0.072745,0.0649 0.109375,0.09766 C 6.5636802,12.939257 6.3352953,13.49083 6.1894531,14.033203 5.4963234,14.17988 5.0003328,14.791521 5,15.5 5,16.328427 5.6715729,17 6.5,17 7.3284271,17 8,16.328427 8,15.5 c 5.23e-5,-0.555933 -0.3073716,-1.066302 -0.7988281,-1.326172 0.1113965,-0.3631 0.2698717,-0.738951 0.4707031,-1.115234 1.2098601,0.916681 2.666805,1.729333 4.042969,2.373047 0.933027,0.436432 1.876845,0.627538 2.779297,0.648437 -0.03883,0.120565 -0.08022,0.23775 -0.123047,0.351563 -0.259327,0.689184 -0.591648,1.243733 -0.949219,1.597656 -0.357571,0.353923 -0.711168,0.512591 -1.126953,0.496094 -0.955173,-0.0379 -1.48602,-0.538135 -1.839844,-1.072266 -0.353823,-0.534131 -0.4648436,-1.056641 -0.4648436,-1.056641 -0.056683,-0.271082 -0.3228931,-0.444469 -0.59375,-0.386718 -0.2710828,0.05668 -0.4444698,0.322893 -0.3867188,0.59375 0,0 0.1437179,0.696441 0.6113282,1.402343 0.4676102,0.705903 1.3249892,1.467564 2.6347652,1.519532 0.716689,0.02844 1.368193,-0.287386 1.871094,-0.785157 0.502901,-0.49777 0.885061,-1.174036 1.179688,-1.957031 0.09096,-0.241731 0.174282,-0.494853 0.248047,-0.755859 0.675661,-0.08082 1.313002,-0.246465 1.888671,-0.462891 0.480376,0.476757 1.220515,0.572775 1.806641,0.234375 0.717237,-0.41428 0.962934,-1.331491 0.548828,-2.048828 -0.274097,-0.475089 -0.785644,-0.762693 -1.333984,-0.75 -0.251376,0.0061 -0.497191,0.07526 -0.714844,0.201172 -0.51225,0.295687 -0.80292,0.864786 -0.742188,1.453125 -0.377137,0.135481 -0.783276,0.248319 -1.210937,0.322265 0.213668,-1.173911 0.271056,-2.460061 0.162109,-3.722656 -0.09882,-1.145313 -0.425375,-2.2024004 -0.892578,-3.1210935 0.757203,-0.1453108 1.433469,-0.1672185 1.919922,-0.072266 0.488568,0.095366 0.746897,0.2739732 0.871094,0.5332031 0.338109,0.7057153 0.17803,1.2832425 -0.07813,1.7578124 -0.256151,0.47457 -0.595703,0.767579 -0.595703,0.767579 -0.211002,0.17846 -0.237244,0.494237 -0.05859,0.705078 0.179031,0.210402 0.494756,0.235765 0.705078,0.05664 0,0 0.477777,-0.401978 0.830078,-1.054688 0.352302,-0.652708 0.592809,-1.6346368 0.09961,-2.664062 C 18.46831,7.5537693 17.85671,7.2106578 17.177734,7.078125 16.498759,6.9455922 15.713369,6.98891 14.867188,7.152344 14.755605,7.173895 14.642843,7.19687 14.529297,7.222656 c -0.232714,-0.3422038 -0.484839,-0.655752 -0.75,-0.9394531 0.0067,-0.010984 0.01316,-0.022052 0.01953,-0.033203 C 14.212934,5.5326629 13.967237,4.6154517 13.25,4.2011719 13.001272,4.0576071 12.716558,3.9884624 12.429688,4.0019531 Z M 12.5,5 C 12.776142,5 13,5.2238576 13,5.5 13,5.7761424 12.776142,6 12.5,6 12.223858,6 12,5.7761424 12,5.5 12,5.2238576 12.223858,5 12.5,5 Z m 1.546875,3.3867188 c 0.474337,0.8557869 0.821989,1.8634392 0.916016,2.9531252 0.109863,1.273223 0.02973,2.587344 -0.207032,3.734375 -0.849997,0.01343 -1.744209,-0.140485 -2.617187,-0.548828 C 10.783,13.891262 9.3419922,13.076666 8.203125,12.205078 8.7138254,11.495646 9.3829445,10.816206 10.199219,10.246094 11.371432,9.4273815 12.764206,8.772228 14.046875,8.3867188 Z M 12,11 c -0.549108,0 -1,0.450892 -1,1 0,0.549108 0.450892,1 1,1 0.549108,0 1,-0.450892 1,-1 0,-0.549108 -0.450892,-1 -1,-1 z m 6.5,3 C 18.776142,14 19,14.223858 19,14.5 19,14.776142 18.776142,15 18.5,15 18.223858,15 18,14.776142 18,14.5 18,14.223858 18.223858,14 18.5,14 Z m -12,1 C 6.7761424,15 7,15.223858 7,15.5 7,15.776142 6.7761424,16 6.5,16 6.2238576,16 6,15.776142 6,15.5 6,15.223858 6.2238576,15 6.5,15 Z"
     style="fill:#cff7ff"
     id="path1" />
</svg>
