<?xml version="1.0" encoding="UTF-8" standalone="no"?>
<!-- Created with Inkscape (http://www.inkscape.org/) -->

<svg
   width="24"
   height="24"
   viewBox="0 0 24 24.000002"
   version="1.1"
   id="svg1"
   inkscape:version="1.4.3 (0d15f75042, 2025-12-25)"
   sodipodi:docname="fbmessenger.svg"
   xmlns:inkscape="http://www.inkscape.org/namespaces/inkscape"
   xmlns:sodipodi="http://sodipodi.sourceforge.net/DTD/sodipodi-0.dtd"
   xmlns:xlink="http://www.w3.org/1999/xlink"
   xmlns="http://www.w3.org/2000/svg"
   xmlns:svg="http://www.w3.org/2000/svg">
  <sodipodi:namedview
     id="namedview1"
     pagecolor="#ffffff"
     bordercolor="#000000"
     borderopacity="0.25"
     inkscape:showpageshadow="2"
     inkscape:pageopacity="0.0"
     inkscape:pagecheckerboard="0"
     inkscape:deskcolor="#d1d1d1"
     inkscape:document-units="px"
     inkscape:zoom="34.125"
     inkscape:cx="12"
     inkscape:cy="12"
     inkscape:window-width="1920"
     inkscape:window-height="1022"
     inkscape:window-x="0"
     inkscape:window-y="0"
     inkscape:window-maximized="1"
     inkscape:current-layer="svg1" />
  <defs
     id="defs1">
    <linearGradient
       inkscape:collect="always"
       xlink:href="#4852"
       id="linearGradient4"
       x1="16"
       y1="30"
       x2="16"
       y2="2"
       gradientUnits="userSpaceOnUse"
       gradientTransform="matrix(0.71428571,0,0,0.71428571,0.57142857,0.5714286)" />
    <linearGradient
       inkscape:collect="always"
       id="4852">
      <stop
         style="stop-color:#272727;stop-opacity:1;"
         offset="0"
         id="stop14555" />
      <stop
         style="stop-color:#5d5d5d;stop-opacity:1;"
         offset="1"
         id="stop14557" />
    </linearGradient>
    <radialGradient
       inkscape:collect="always"
       xlink:href="#linearGradient982"
       id="radialGradient1977"
       cx="29.445274"
       cy="36.813942"
       fx="29.445274"
       fy="36.813942"
       r="20"
       gradientTransform="matrix(5.3667482e-8,0.7524333,-0.73503109,8.7456604e-8,34.986661,-3.1456237)"
       gradientUnits="userSpaceOnUse" />
    <linearGradient
       inkscape:collect="always"
       id="linearGradient982">
      <stop
         style="stop-color:#0099ff;stop-opacity:1;"
         offset="0"
         id="stop978" />
      <stop
         style="stop-color:#a033ff;stop-opacity:1;"
         offset="0.60000002"
         id="stop986" />
      <stop
         style="stop-color:#ff5280;stop-opacity:1;"
         offset="0.93000001"
         id="stop988" />
      <stop
         style="stop-color:#ff7061;stop-opacity:1;"
         offset="1"
         id="stop980" />
    </linearGradient>
  </defs>
  <rect
     style="opacity:0.2;fill:#000000;stroke-width:1.75"
     id="rect1"
     width="20"
     height="20"
     x="2"
     y="2.5"
     ry="4" />
  <rect
     style="fill:url(#linearGradient4);stroke-width:0.714286"
     id="rect2"
     width="20"
     height="20"
     x="2"
     y="2"
     ry="4" />
  <path
     d="m 12,5 c -3.94275,0 -7,2.888993 -7,6.789398 0,2.040319 0.8365,3.804163 2.198,5.022056 0.11375,0.10149 0.18375,0.244978 0.18725,0.398964 l 0.0385,1.245889 c 0.01225,0.397215 0.42175,0.656191 0.7857501,0.495207 l 1.3895,-0.612447 c 0.11725,-0.0525 0.25025,-0.06124 0.3745,-0.028 C 10.61225,18.486052 11.29125,18.580543 12,18.580543 c 3.94275,0 7,-2.888992 7,-6.789398 C 19,7.890743 15.94275,5 12,5 Z"
     style="fill:url(#radialGradient1977);fill-opacity:1;stroke-width:0.0174992"
     id="path1218" />
  <path
     d="m 8.0509394,13.552624 1.9315711,-2.851437 c 0.3074075,-0.454334 0.9649635,-0.566004 1.4268955,-0.244759 l 1.537038,1.072349 c 0.141374,0.0979 0.335354,0.0979 0.475084,-0.0016 l 2.07459,-1.465493 c 0.276173,-0.1958067 0.637828,0.113201 0.453713,0.387024 l -1.933214,2.849908 c -0.307408,0.454333 -0.964964,0.566005 -1.426897,0.244759 l -1.537037,-1.07234 c -0.141375,-0.0979 -0.335353,-0.0979 -0.475084,0.0016 L 8.5030098,13.938127 C 8.2268362,14.133934 7.8651802,13.826456 8.0509394,13.552632 Z"
     style="fill:#333333;stroke-width:0.0158579"
     id="path11549" />
</svg>
