<?xml version="1.0" encoding="UTF-8" standalone="no"?>
<!-- Created with Inkscape (http://www.inkscape.org/) -->

<svg
   width="24"
   height="24"
   viewBox="0 0 24 24.000002"
   version="1.1"
   id="svg1"
   inkscape:version="1.4.3 (0d15f75042, 2025-12-25)"
   sodipodi:docname="kdevelop.svg"
   xmlns:inkscape="http://www.inkscape.org/namespaces/inkscape"
   xmlns:sodipodi="http://sodipodi.sourceforge.net/DTD/sodipodi-0.dtd"
   xmlns:xlink="http://www.w3.org/1999/xlink"
   xmlns="http://www.w3.org/2000/svg"
   xmlns:svg="http://www.w3.org/2000/svg">
  <sodipodi:namedview
     id="namedview1"
     pagecolor="#ffffff"
     bordercolor="#000000"
     borderopacity="0.25"
     inkscape:showpageshadow="2"
     inkscape:pageopacity="0.0"
     inkscape:pagecheckerboard="0"
     inkscape:deskcolor="#d1d1d1"
     inkscape:document-units="px"
     inkscape:zoom="33.25"
     inkscape:cx="11.984962"
     inkscape:cy="12"
     inkscape:window-width="1854"
     inkscape:window-height="1011"
     inkscape:window-x="0"
     inkscape:window-y="0"
     inkscape:window-maximized="1"
     inkscape:current-layer="svg1" />
  <defs
     id="defs1">
    <linearGradient
       inkscape:collect="always"
       xlink:href="#4852"
       id="linearGradient4"
       x1="16"
       y1="30"
       x2="16"
       y2="2"
       gradientUnits="userSpaceOnUse"
       gradientTransform="matrix(0.71428571,0,0,0.71428571,0.57142857,0.57142857)" />
    <linearGradient
       inkscape:collect="always"
       id="4852">
      <stop
         style="stop-color:#272727;stop-opacity:1;"
         offset="0"
         id="stop14555" />
      <stop
         style="stop-color:#5d5d5d;stop-opacity:1;"
         offset="1"
         id="stop14557" />
    </linearGradient>
    <linearGradient
       inkscape:collect="always"
       id="linearGradient1095">
      <stop
         style="stop-color:#77b842;stop-opacity:1;"
         offset="0"
         id="stop1091" />
      <stop
         style="stop-color:#b4d270;stop-opacity:1;"
         offset="1"
         id="stop1093" />
    </linearGradient>
    <linearGradient
       inkscape:collect="always"
       xlink:href="#linearGradient1095"
       id="linearGradient2"
       x1="11"
       y1="21"
       x2="11"
       y2="1"
       gradientUnits="userSpaceOnUse"
       gradientTransform="translate(1,1)" />
  </defs>
  <rect
     style="opacity:0.2;fill:#000000;stroke-width:1.75"
     id="rect1"
     width="20"
     height="20"
     x="2"
     y="2.5"
     ry="4" />
  <rect
     style="fill:url(#linearGradient4);stroke-width:0.714286"
     id="rect2"
     width="20"
     height="20"
     x="2"
     y="2"
     ry="4" />
  <circle
     style="fill:url(#linearGradient2);stroke-width:0.5;stroke-linecap:round"
     id="path1"
     cx="11.99984"
     cy="11.99984"
     r="5.5" />
  <path
     id="rect465"
     style="opacity:0.6;fill:#ffffff;stroke-linecap:round;stroke-linejoin:round"
     d="m 13.754744,5.15 -0.846616,1.4314618 a 5.5,5.5 0 0 1 1.163991,0.3235874 5.5,5.5 0 0 1 1.117146,0.6255186 L 15.602504,5.9153669 Z M 10.245123,5.1507317 8.3975615,5.9160168 8.8020001,7.4914963 A 5.5,5.5 0 0 1 11.082068,6.5649995 Z m 7.838541,3.24683 -1.627136,0.4168664 a 5.5,5.5 0 0 1 0.937942,2.2932649 l 1.454478,-0.86257 z M 17.39159,12.890756 a 5.5,5.5 0 0 1 -0.342892,1.200389 5.5,5.5 0 0 1 -0.618974,1.086033 l 1.654589,0.425326 0.765367,-1.84776 z M 7.4994544,8.8038695 5.9153669,8.3971766 5.15,10.244936 6.5576942,11.077479 A 5.5,5.5 0 0 1 6.8860227,9.8816276 5.5,5.5 0 0 1 7.4994544,8.8038695 Z m 7.6812606,7.6380945 a 5.5,5.5 0 0 1 -2.281948,0.961657 l 0.855791,1.445328 1.847561,-0.765285 z M 6.5507454,12.926506 5.1507315,13.754558 5.9160168,15.602119 7.5078645,15.19389 A 5.5,5.5 0 0 1 6.5507454,12.926506 Z M 11.099336,17.40453 A 5.5,5.5 0 0 1 9.8626014,17.067724 5.5,5.5 0 0 1 8.8107245,16.473469 l -0.4135479,1.610844 1.8477594,0.765367 z" />
  <path
     id="path632"
     style="fill:#ffffff;stroke-width:1.2;stroke-linecap:round;stroke-linejoin:round"
     d="m 11.99984,5.9998402 a 6,6 0 0 0 -5.9999998,5.9999998 6,6 0 0 0 5.9999998,6 6,6 0 0 0 6,-6 6,6 0 0 0 -6,-5.9999998 z m 0,1 a 5.0000001,5.0000001 0 0 1 5,4.9999998 5.0000001,5.0000001 0 0 1 -5,5 5.0000001,5.0000001 0 0 1 -4.9999998,-5 5.0000001,5.0000001 0 0 1 4.9999998,-4.9999998 z" />
  <path
     id="rect1149"
     style="fill:#ffffff;stroke-width:2;stroke-linecap:round"
     d="m 9,13 2,2 H 9 Z"
     sodipodi:nodetypes="cccc" />
</svg>
