<?xml version="1.0" encoding="UTF-8" standalone="no"?>
<!-- Created with Inkscape (http://www.inkscape.org/) -->

<svg
   width="24"
   height="24"
   viewBox="0 0 24 24.000002"
   version="1.1"
   id="svg1"
   inkscape:version="1.4.2 (ebf0e940d0, 2025-05-08)"
   sodipodi:docname="moonlight.svg"
   xmlns:inkscape="http://www.inkscape.org/namespaces/inkscape"
   xmlns:sodipodi="http://sodipodi.sourceforge.net/DTD/sodipodi-0.dtd"
   xmlns:xlink="http://www.w3.org/1999/xlink"
   xmlns="http://www.w3.org/2000/svg"
   xmlns:svg="http://www.w3.org/2000/svg">
  <sodipodi:namedview
     id="namedview1"
     pagecolor="#ffffff"
     bordercolor="#000000"
     borderopacity="0.25"
     inkscape:showpageshadow="2"
     inkscape:pageopacity="0.0"
     inkscape:pagecheckerboard="0"
     inkscape:deskcolor="#d1d1d1"
     inkscape:document-units="px"
     inkscape:zoom="33.291667"
     inkscape:cx="11.984981"
     inkscape:cy="12"
     inkscape:window-width="1920"
     inkscape:window-height="1011"
     inkscape:window-x="0"
     inkscape:window-y="0"
     inkscape:window-maximized="1"
     inkscape:current-layer="svg1" />
  <defs
     id="defs1">
    <linearGradient
       inkscape:collect="always"
       xlink:href="#4852"
       id="linearGradient4"
       x1="16"
       y1="30"
       x2="16"
       y2="2"
       gradientUnits="userSpaceOnUse"
       gradientTransform="matrix(0.71428571,0,0,0.71428571,0.57142857,0.57142857)" />
    <linearGradient
       inkscape:collect="always"
       id="4852">
      <stop
         style="stop-color:#272727;stop-opacity:1;"
         offset="0"
         id="stop14555" />
      <stop
         style="stop-color:#5d5d5d;stop-opacity:1;"
         offset="1"
         id="stop14557" />
    </linearGradient>
  </defs>
  <rect
     style="opacity:0.2;fill:#000000;stroke-width:1.75"
     id="rect1"
     width="20"
     height="20"
     x="2"
     y="2.5"
     ry="4" />
  <rect
     style="fill:url(#linearGradient4);stroke-width:0.714286"
     id="rect2"
     width="20"
     height="20"
     x="2"
     y="2"
     ry="4" />
  <path
     id="path5017"
     style="fill:#ffffff"
     d="M 12.023438,4.0214844 V 10.238281 L 16.419922,5.8417969 A 7.5,7.502748 0 0 0 12.023438,4.0214844 Z m -1.048829,0.015625 A 7.5,7.502748 0 0 0 6.578125,5.8417969 l 4.396484,4.3964841 z M 5.8359375,6.5859375 A 7.5,7.502748 0 0 0 4.0371094,10.980469 h 6.1933596 z m 11.3242185,0 -4.394531,4.3945315 h 6.212891 A 7.5,7.502748 0 0 0 17.160156,6.5859375 Z M 4.0371094,12.029297 a 7.5,7.502748 0 0 0 1.8007812,4.392578 l 4.3925784,-4.392578 z m 8.7285156,0 4.394531,4.394531 a 7.5,7.502748 0 0 0 1.802735,-4.394531 z m -1.791016,0.742187 -4.3945309,4.394532 a 7.5,7.502748 0 0 0 4.3945309,1.802734 z m 1.048829,0 v 6.197266 a 7.5,7.502748 0 0 0 4.394531,-1.802734 z" />
</svg>
