<?xml version="1.0" encoding="UTF-8" standalone="no"?>
<!-- Created with Inkscape (http://www.inkscape.org/) -->

<svg
   width="24"
   height="24"
   viewBox="0 0 24 24.000002"
   version="1.1"
   id="svg1"
   inkscape:version="1.4.2 (ebf0e940d0, 2025-05-08)"
   sodipodi:docname="qbittorrent.svg"
   xmlns:inkscape="http://www.inkscape.org/namespaces/inkscape"
   xmlns:sodipodi="http://sodipodi.sourceforge.net/DTD/sodipodi-0.dtd"
   xmlns:xlink="http://www.w3.org/1999/xlink"
   xmlns="http://www.w3.org/2000/svg"
   xmlns:svg="http://www.w3.org/2000/svg">
  <sodipodi:namedview
     id="namedview1"
     pagecolor="#ffffff"
     bordercolor="#000000"
     borderopacity="0.25"
     inkscape:showpageshadow="2"
     inkscape:pageopacity="0.0"
     inkscape:pagecheckerboard="0"
     inkscape:deskcolor="#d1d1d1"
     inkscape:document-units="px"
     inkscape:zoom="33.375"
     inkscape:cx="12"
     inkscape:cy="12"
     inkscape:window-width="1920"
     inkscape:window-height="1011"
     inkscape:window-x="0"
     inkscape:window-y="0"
     inkscape:window-maximized="1"
     inkscape:current-layer="svg1" />
  <defs
     id="defs1">
    <linearGradient
       inkscape:collect="always"
       xlink:href="#4852"
       id="linearGradient4"
       x1="16"
       y1="30"
       x2="16"
       y2="2"
       gradientUnits="userSpaceOnUse"
       gradientTransform="matrix(0.71428571,0,0,0.71428571,0.57142857,0.57142857)" />
    <linearGradient
       inkscape:collect="always"
       id="4852">
      <stop
         style="stop-color:#272727;stop-opacity:1;"
         offset="0"
         id="stop14555" />
      <stop
         style="stop-color:#5d5d5d;stop-opacity:1;"
         offset="1"
         id="stop14557" />
    </linearGradient>
  </defs>
  <rect
     style="opacity:0.2;fill:#000000;stroke-width:1.75"
     id="rect1"
     width="20"
     height="20"
     x="2"
     y="2.5"
     ry="4" />
  <rect
     style="fill:url(#linearGradient4);stroke-width:0.714286"
     id="rect2"
     width="20"
     height="20"
     x="2"
     y="2"
     ry="4" />
  <path
     d="m 11.187842,18.298335 h -1.095764 v -3.725596 h -0.01289 C 9.9158981,14.834864 9.7246768,15.051868 9.5055245,15.223752 9.2863711,15.395636 9.0457337,15.522401 8.7836094,15.604046 8.5257826,15.689986 8.2486189,15.73296 7.9521181,15.73296 7.3634138,15.73296 6.8456118,15.584709 6.398712,15.288209 5.9561073,14.98741 5.6123385,14.572739 5.3674031,14.044193 5.1224677,13.511353 5,12.896865 5,12.200733 5,11.500304 5.1224681,10.885817 5.3674031,10.357272 5.6123385,9.82443 5.9561075,9.4097587 6.3987101,9.1132579 6.8456098,8.8167571 7.3634118,8.6685068 7.9521162,8.6685068 c 0.2965007,0 0.5801101,0.042971 0.8508282,0.1289134 0.2750149,0.081646 0.5242477,0.2062616 0.747697,0.3738486 0.2234501,0.1675874 0.4082262,0.3781461 0.5543276,0.6316756 h 0.01289 V 8.7974202 H 11.18784 Z M 8.1197035,14.746772 c 0.4211171,0 0.7863711,-0.10528 1.0957641,-0.315839 0.309392,-0.210558 0.5478809,-0.507058 0.7154687,-0.889502 0.1675867,-0.382442 0.2513817,-0.829342 0.2513817,-1.340699 0,-0.515653 -0.08379,-0.9647 -0.2513817,-1.347143 C 9.7633485,10.471145 9.5248596,10.174645 9.2154676,9.9640862 8.9060746,9.7535275 8.5408206,9.6482483 8.1197035,9.6482483 c -0.3910372,0 -0.7391033,0.096685 -1.0441984,0.2900551 -0.3007977,0.1933706 -0.537139,0.4791276 -0.7090235,0.8572736 -0.1718844,0.378147 -0.2578265,0.846531 -0.2578265,1.405155 0,0.554328 0.085942,1.020564 0.2578265,1.398712 0.1718845,0.378145 0.4082258,0.663902 0.7090235,0.857274 0.3050951,0.193369 0.6531612,0.290054 1.0441984,0.290054 z"
     style="fill:#a6d3fb;fill-opacity:1;stroke-width:4.95026;stroke-linecap:round"
     id="path1" />
  <path
     d="m 16.047876,15.73296 c -0.292204,0 -0.571516,-0.04297 -0.837937,-0.128915 -0.266422,-0.08164 -0.511358,-0.20841 -0.734806,-0.380294 -0.223451,-0.171883 -0.41682,-0.388887 -0.58011,-0.651012 h -0.0129 v 1.031306 H 12.81215 V 6 h 1.095763 v 3.8029444 h 0.0129 c 0.146102,-0.2535295 0.328729,-0.4640882 0.547881,-0.6316756 0.219153,-0.1675873 0.464088,-0.2922035 0.734807,-0.3738486 0.270718,-0.085942 0.552178,-0.1289134 0.844382,-0.1289134 0.593001,0 1.110804,0.1482503 1.553407,0.4447511 0.442602,0.2965008 0.786372,0.7111721 1.031307,1.2440141 C 18.877532,10.885817 19,11.500304 19,12.200733 c 0,0.696132 -0.122469,1.31062 -0.367402,1.84346 -0.244935,0.528546 -0.588705,0.943217 -1.031307,1.244016 -0.442603,0.2965 -0.960406,0.444751 -1.553407,0.444751 z m -0.167589,-0.986188 c 0.395336,0 0.743402,-0.09669 1.0442,-0.290056 0.300798,-0.193369 0.537139,-0.479126 0.709023,-0.857272 0.171885,-0.378147 0.257827,-0.844384 0.257827,-1.398711 0,-0.558625 -0.08594,-1.027009 -0.257827,-1.405156 -0.171884,-0.378146 -0.408225,-0.663903 -0.709023,-0.8572736 -0.300798,-0.19337 -0.648864,-0.2900551 -1.0442,-0.2900551 -0.421116,0 -0.78637,0.1052796 -1.095762,0.3158379 -0.309392,0.2105588 -0.547883,0.5070588 -0.71547,0.8895028 -0.167587,0.382443 -0.25138,0.831491 -0.25138,1.347144 0,0.511357 0.0838,0.958256 0.25138,1.340699 0.167587,0.382444 0.406078,0.678944 0.71547,0.889502 0.309392,0.210559 0.674646,0.315839 1.095762,0.315838 z"
     style="fill:#ffffff;stroke-width:4.95026;stroke-linecap:round"
     id="path2" />
</svg>
