<?xml version="1.0" encoding="UTF-8" standalone="no"?>
<!-- Created with Inkscape (http://www.inkscape.org/) -->

<svg
   width="24"
   height="24"
   viewBox="0 0 24 24.000002"
   version="1.1"
   id="svg1"
   inkscape:version="1.4.2 (1:1.4.2+202505120737+ebf0e940d0)"
   sodipodi:docname="rnote.svg"
   xmlns:inkscape="http://www.inkscape.org/namespaces/inkscape"
   xmlns:sodipodi="http://sodipodi.sourceforge.net/DTD/sodipodi-0.dtd"
   xmlns:xlink="http://www.w3.org/1999/xlink"
   xmlns="http://www.w3.org/2000/svg"
   xmlns:svg="http://www.w3.org/2000/svg">
  <sodipodi:namedview
     id="namedview1"
     pagecolor="#ffffff"
     bordercolor="#000000"
     borderopacity="0.25"
     inkscape:showpageshadow="2"
     inkscape:pageopacity="0.0"
     inkscape:pagecheckerboard="0"
     inkscape:deskcolor="#d1d1d1"
     inkscape:document-units="px"
     inkscape:zoom="33.625"
     inkscape:cx="12"
     inkscape:cy="12"
     inkscape:window-width="1920"
     inkscape:window-height="1016"
     inkscape:window-x="0"
     inkscape:window-y="0"
     inkscape:window-maximized="1"
     inkscape:current-layer="svg1" />
  <defs
     id="defs1">
    <linearGradient
       inkscape:collect="always"
       xlink:href="#4852"
       id="linearGradient4"
       x1="16"
       y1="30"
       x2="16"
       y2="2"
       gradientUnits="userSpaceOnUse"
       gradientTransform="matrix(0.71428571,0,0,0.71428571,0.57142857,0.5714286)" />
    <linearGradient
       inkscape:collect="always"
       id="4852">
      <stop
         style="stop-color:#272727;stop-opacity:1;"
         offset="0"
         id="stop14555" />
      <stop
         style="stop-color:#5d5d5d;stop-opacity:1;"
         offset="1"
         id="stop14557" />
    </linearGradient>
    <linearGradient
       inkscape:collect="always"
       id="linearGradient1606">
      <stop
         style="stop-color:#eaebed;stop-opacity:1;"
         offset="0"
         id="stop1602" />
      <stop
         style="stop-color:#f9fafa;stop-opacity:1;"
         offset="1"
         id="stop1604" />
    </linearGradient>
    <linearGradient
       inkscape:collect="always"
       xlink:href="#linearGradient1606"
       id="linearGradient5"
       x1="15.999935"
       y1="17.999947"
       x2="15.999935"
       y2="4"
       gradientUnits="userSpaceOnUse"
       gradientTransform="translate(1,1)" />
  </defs>
  <rect
     style="opacity:0.2;fill:#000000;stroke-width:1.75"
     id="rect1"
     width="20"
     height="20"
     x="2"
     y="2.5"
     ry="4" />
  <rect
     style="fill:url(#linearGradient4);stroke-width:0.714286"
     id="rect2"
     width="20"
     height="20"
     x="2"
     y="2"
     ry="4" />
  <path
     d="M 16.164627,8.1327333 C 16.1375,7.911845 16.306916,7.5622987 16.284178,7.086421 16.260697,6.6097684 16.029672,5.945553 15.081329,5.463475 15.064456,5.454935 15.047602,5.446422 15.029993,5.437896 14.413157,5.1371773 13.513955,4.9217152 12.465127,5.0271216 11.650272,5.1092815 10.803876,5.3813169 10.005889,5.861071 9.287846,6.2912211 8.6262782,6.8802558 8.0893975,7.6087995 7.7740177,8.0668513 7.4989753,8.5853572 7.3024115,9.1449402 7.2173342,9.3867546 7.1469211,9.6370945 7.0941134,9.8928586 7.0259026,10.225354 6.9884973,10.58885 7.0031582,10.972497 c 0.038879,0.608413 0.2104982,1.273402 0.5940901,1.871737 0.1811615,0.283666 0.4063284,0.540982 0.6667013,0.75567 0.2589068,0.214687 0.5552179,0.388298 0.8786666,0.50223 0.5185461,0.179035 1.0282898,0.179035 1.4500218,0.111614 0.2237,-0.03565 0.429065,-0.09068 0.610224,-0.151909 0.223701,-0.07518 0.429066,-0.161985 0.591158,-0.235614 0.353519,-0.163535 0.685036,-0.35962 0.949076,-0.517731 0.264041,-0.158109 0.522946,-0.316993 0.771585,-0.445651 0.148156,-0.0744 0.324183,-0.157334 0.498009,-0.220112 0.04621,-0.01628 0.09242,-0.03178 0.138622,-0.04495 0.173092,-0.05039 0.343984,-0.07286 0.495807,-0.05658 0.129821,0.01317 0.239837,0.05812 0.313916,0.113155 0.03153,0.02092 0.05868,0.05039 0.08141,0.08137 0.0198,0.02868 0.03301,0.0558 0.04034,0.07052 0.008,0.01861 0.01247,0.05658 -0.0014,0.111615 -0.0132,0.0558 -0.0418,0.120132 -0.08581,0.184462 -0.04547,0.06587 -0.108544,0.134082 -0.193629,0.204613 -0.08362,0.0682 -0.183362,0.134856 -0.299246,0.199185 -0.254506,0.129433 -0.507544,0.216238 -0.863264,0.356522 -0.322718,0.127107 -0.707776,0.291417 -1.068631,0.551833 -0.189227,0.141057 -0.378457,0.316992 -0.541283,0.530129 -0.16209,0.213139 -0.30291,0.470454 -0.381388,0.771947 -0.07041,0.301493 -0.07408,0.636314 0.02054,0.957956 0.04768,0.163534 0.121019,0.318544 0.214898,0.456502 0.09535,0.139509 0.2149,0.265841 0.356454,0.366597 0.251571,0.17671 0.528814,0.241815 0.768651,0.24879 h 0.08141 c 0.203165,-0.0054 0.396795,-0.04961 0.573555,-0.112385 0.184827,-0.05967 0.352053,-0.140282 0.495808,-0.211586 0.146689,-0.07363 0.259639,-0.133309 0.377725,-0.182912 0.107822,-0.05039 0.201696,-0.08293 0.286777,-0.09688 0.08068,-0.01317 0.146689,-0.007 0.194361,0.007 0.02127,0.0062 0.04034,0.01628 0.05573,0.02635 0.01468,0.01003 0.02494,0.01939 0.03007,0.02403 0.008,0.0038 0.0154,0.01003 0.02053,0.01167 0.0059,0 0.011,0.0031 0.01834,0.0016 0.0066,-0.0016 0,0.02325 -0.0264,0.0558 -0.03081,0.03798 -0.07554,0.07595 -0.144488,0.132533 -0.06674,0.05348 -0.15769,0.124008 -0.240571,0.210812 -0.09168,0.09533 -0.18116,0.216238 -0.236169,0.365822 -0.055,0.151134 -0.0638,0.306143 -0.04107,0.44255 0.0264,0.158887 0.09609,0.289094 0.17676,0.381324 0.108543,0.125557 0.234702,0.179036 0.32785,0.193763 0.02273,0.0032 0.04401,0.0047 0.0638,0.0038 0.165758,-0.0062 0.232501,-0.140282 0.26184,-0.179811 -0.04107,-0.04108 -0.08288,-0.146484 -0.115885,-0.236387 -0.0036,-0.01003 -0.0073,-0.01939 -0.01022,-0.02945 -0.0132,-0.03953 -0.02493,-0.08293 -0.02201,-0.121681 0.0014,-0.02791 0.008,-0.05735 0.02053,-0.07595 0.01022,-0.01628 0.02494,-0.031 0.03814,-0.03642 0.0132,-0.0062 0.0352,-0.0248 0.07481,-0.05039 0.04914,-0.031 0.08362,-0.04882 0.170893,-0.09843 0.06821,-0.03797 0.169424,-0.09688 0.266239,-0.176711 0.09681,-0.07983 0.2083,-0.196085 0.287512,-0.358071 0.07041,-0.144933 0.104877,-0.305368 0.104877,-0.463476 7.32e-4,-0.158111 -0.03301,-0.311569 -0.09168,-0.448752 -0.06161,-0.137958 -0.146691,-0.255767 -0.243505,-0.352646 -0.09756,-0.09766 -0.208298,-0.175161 -0.324184,-0.233289 -0.232501,-0.115488 -0.477471,-0.148034 -0.692371,-0.139508 -0.222234,0.0085 -0.426132,0.06123 -0.594091,0.117031 -0.165759,0.05891 -0.337384,0.136408 -0.459138,0.188336 -0.140086,0.05969 -0.247901,0.100753 -0.349851,0.125559 -0.09609,0.01783 -0.168693,0.01627 -0.221501,0.0038 -0.0066,-0.0016 -0.0132,-0.0031 -0.0198,-0.0054 -0.05354,-0.01783 -0.08288,-0.04884 -0.07481,-0.06433 0.0045,-0.0062 0.0052,-0.01395 0.0066,-0.02714 0.0014,-0.01239 0.003,-0.02635 0.0088,-0.03874 0.0088,-0.02635 0.02348,-0.07209 0.05354,-0.114707 0.02201,-0.04727 0.05868,-0.100753 0.118819,-0.16121 0.06161,-0.06201 0.142289,-0.124782 0.239102,-0.180586 0.195097,-0.124007 0.427599,-0.216237 0.729045,-0.316218 0.278708,-0.09301 0.660834,-0.206938 1.012154,-0.361172 0.189229,-0.07905 0.385793,-0.175935 0.576488,-0.298392 0.195096,-0.124783 0.387992,-0.278241 0.564018,-0.468127 0.182628,-0.198412 0.341051,-0.432476 0.45767,-0.694442 0.119551,-0.269716 0.197297,-0.575859 0.204631,-0.903703 0.0073,-0.323195 -0.055,-0.628563 -0.159157,-0.898278 -0.106894,-0.279955 -0.263123,-0.531069 -0.44942,-0.741106 -0.394655,-0.444877 -0.894132,-0.68669 -1.342999,-0.791321 -0.520012,-0.121683 -1.007755,-0.07673 -1.382543,0.007 -0.104156,0.02403 -0.202431,0.05038 -0.294111,0.07905 -0.346187,0.107736 -0.633698,0.252663 -0.835395,0.365045 -0.327848,0.179036 -0.654231,0.396824 -0.876465,0.540207 -0.258172,0.166636 -0.489208,0.310794 -0.720976,0.421626 -0.103422,0.05039 -0.21637,0.09533 -0.333722,0.126332 -0.09389,0.02403 -0.185561,0.04031 -0.275774,0.04495 -0.172361,0.0093 -0.317583,-0.02325 -0.4158655,-0.08293 C 9.8557295,11.83729 9.7970477,11.79002 9.7435046,11.728018 9.6899566,11.665238 9.6444896,11.592385 9.613681,11.51488 9.543271,11.34282 9.521259,11.134334 9.55207,10.936697 c 0.008,-0.123234 0.033743,-0.247241 0.074077,-0.370473 0.031376,-0.09515 0.074654,-0.192031 0.1296628,-0.289687 0.129085,-0.229413 0.3161142,-0.4464259 0.5354132,-0.6332123 0.341052,-0.3324947 0.740046,-0.5727591 1.144908,-0.7285433 0.450337,-0.17361 0.881601,-0.2332881 1.260057,-0.2363883 0.484075,-0.0031 0.917541,0.084479 1.257126,0.1263325 0.0096,7.732e-4 0.01907,0.00232 0.02861,0.0031 0.536881,0.062779 0.948344,-0.069754 1.313601,-0.2542152 0.354253,-0.1782603 0.6711,-0.4192997 0.869131,-0.4208498 z"
     style="fill:url(#linearGradient5);stroke-width:1.13854"
     id="path1" />
</svg>
