<?xml version="1.0" encoding="UTF-8" standalone="no"?>
<!-- Created with Inkscape (http://www.inkscape.org/) -->

<svg
   width="24"
   height="24"
   viewBox="0 0 24 24.000002"
   version="1.1"
   id="svg1"
   inkscape:version="1.4.3 (0d15f75042, 2025-12-25)"
   sodipodi:docname="vmware-player.svg"
   xmlns:inkscape="http://www.inkscape.org/namespaces/inkscape"
   xmlns:sodipodi="http://sodipodi.sourceforge.net/DTD/sodipodi-0.dtd"
   xmlns:xlink="http://www.w3.org/1999/xlink"
   xmlns="http://www.w3.org/2000/svg"
   xmlns:svg="http://www.w3.org/2000/svg">
  <sodipodi:namedview
     id="namedview1"
     pagecolor="#ffffff"
     bordercolor="#000000"
     borderopacity="0.25"
     inkscape:showpageshadow="2"
     inkscape:pageopacity="0.0"
     inkscape:pagecheckerboard="0"
     inkscape:deskcolor="#d1d1d1"
     inkscape:document-units="px"
     inkscape:zoom="33.25"
     inkscape:cx="11.984962"
     inkscape:cy="12"
     inkscape:window-width="1854"
     inkscape:window-height="1011"
     inkscape:window-x="0"
     inkscape:window-y="0"
     inkscape:window-maximized="1"
     inkscape:current-layer="svg1" />
  <defs
     id="defs1">
    <linearGradient
       inkscape:collect="always"
       xlink:href="#4852"
       id="linearGradient4"
       x1="16"
       y1="30"
       x2="16"
       y2="2"
       gradientUnits="userSpaceOnUse"
       gradientTransform="matrix(0.71428571,0,0,0.71428571,0.57142857,0.57142857)" />
    <linearGradient
       inkscape:collect="always"
       id="4852">
      <stop
         style="stop-color:#272727;stop-opacity:1;"
         offset="0"
         id="stop14555" />
      <stop
         style="stop-color:#5d5d5d;stop-opacity:1;"
         offset="1"
         id="stop14557" />
    </linearGradient>
  </defs>
  <rect
     style="opacity:0.2;fill:#000000;stroke-width:1.75"
     id="rect1"
     width="20"
     height="20"
     x="2"
     y="2.5"
     ry="4" />
  <rect
     style="fill:url(#linearGradient4);stroke-width:0.714286"
     id="rect2"
     width="20"
     height="20"
     x="2"
     y="2"
     ry="4" />
  <path
     id="path4"
     d="M 6,5 C 5.4460006,5 5,5.4460006 5,6 v 4.5 c 0,0.553999 0.4460006,1 1,1 0.5539994,0 1,-0.446001 1,-1 V 8.40625 l 1.5,1.5 V 11.5 h 2 V 11 c 0,-0.277 0.223,-0.5 0.5,-0.5 h 0.5 v -2 H 9.90625 L 8.40625,7 H 10.5 c 0.553999,0 1,-0.4460006 1,-1 0,-0.5539994 -0.446001,-1 -1,-1 z m 7.5,0 c -0.553999,0 -1,0.4460006 -1,1 0,0.5539994 0.446001,1 1,1 h 2.09375 l -1.5,1.5 H 12.5 v 2 H 13 c 0.277,0 0.5,0.223 0.5,0.5 v 0.5 h 2 V 9.90625 l 1.5,-1.5 V 10.5 c 0,0.553999 0.446001,1 1,1 0.553999,0 1,-0.446001 1,-1 V 6 C 19,5.4460006 18.553999,5 18,5 Z m -5,7.5 v 2 c 0,0.553999 0.4460006,1 1,1 h 2 v -2 H 11 c -0.277,0 -0.5,-0.223 -0.5,-0.5 v -0.5 z m 5,0 V 13 c 0,0.277 -0.223,0.5 -0.5,0.5 h -0.5 v 2 h 1.59375 l 1.5,1.5 H 13.5 c -0.553999,0 -1,0.446001 -1,1 0,0.553999 0.446001,1 1,1 H 18 c 0.553999,0 1,-0.446001 1,-1 v -4.5 c 0,-0.553999 -0.446001,-1 -1,-1 -0.553999,0 -1,0.446001 -1,1 v 2.09375 l -1.5,-1.5 V 12.5 Z"
     style="fill:#edb200;fill-opacity:1" />
</svg>
