<?xml version="1.0" encoding="UTF-8" standalone="no"?>
<!-- Created with Inkscape (http://www.inkscape.org/) -->

<svg
   width="24"
   height="24"
   viewBox="0 0 24 24.000002"
   version="1.1"
   id="svg1"
   inkscape:version="1.4.3 (0d15f75042, 2025-12-25)"
   sodipodi:docname="vmware-workstation.svg"
   xmlns:inkscape="http://www.inkscape.org/namespaces/inkscape"
   xmlns:sodipodi="http://sodipodi.sourceforge.net/DTD/sodipodi-0.dtd"
   xmlns:xlink="http://www.w3.org/1999/xlink"
   xmlns="http://www.w3.org/2000/svg"
   xmlns:svg="http://www.w3.org/2000/svg">
  <sodipodi:namedview
     id="namedview1"
     pagecolor="#ffffff"
     bordercolor="#000000"
     borderopacity="0.25"
     inkscape:showpageshadow="2"
     inkscape:pageopacity="0.0"
     inkscape:pagecheckerboard="0"
     inkscape:deskcolor="#d1d1d1"
     inkscape:document-units="px"
     inkscape:zoom="33.25"
     inkscape:cx="11.984962"
     inkscape:cy="12"
     inkscape:window-width="1854"
     inkscape:window-height="1011"
     inkscape:window-x="0"
     inkscape:window-y="0"
     inkscape:window-maximized="1"
     inkscape:current-layer="svg1" />
  <defs
     id="defs1">
    <linearGradient
       inkscape:collect="always"
       xlink:href="#4852"
       id="linearGradient4"
       x1="16"
       y1="30"
       x2="16"
       y2="2"
       gradientUnits="userSpaceOnUse"
       gradientTransform="matrix(0.71428571,0,0,0.71428571,0.57142857,0.57142857)" />
    <linearGradient
       inkscape:collect="always"
       id="4852">
      <stop
         style="stop-color:#272727;stop-opacity:1;"
         offset="0"
         id="stop14555" />
      <stop
         style="stop-color:#5d5d5d;stop-opacity:1;"
         offset="1"
         id="stop14557" />
    </linearGradient>
  </defs>
  <rect
     style="opacity:0.2;fill:#000000;stroke-width:1.75"
     id="rect1"
     width="20"
     height="20"
     x="2"
     y="2.5"
     ry="4" />
  <rect
     style="fill:url(#linearGradient4);stroke-width:0.714286"
     id="rect2"
     width="20"
     height="20"
     x="2"
     y="2"
     ry="4" />
  <path
     d="M 6.5,9 C 5.67157,9 5,9.67157 5,10.5 v 7 C 5,18.32843 5.67157,19 6.5,19 h 7 c 0.82843,0 1.5,-0.67157 1.5,-1.5 v -7 C 15,9.67157 14.32843,9 13.5,9 Z M 8,11 h 4 c 0.554,0 1,0.446 1,1 v 4 c 0,0.554 -0.446,1 -1,1 H 8 C 7.446,17 7,16.554 7,16 v -4 c 0,-0.554 0.446,-1 1,-1 z"
     style="fill:#f38b00;fill-opacity:1;stroke-width:2;stroke-linecap:square"
     id="path3129"
     sodipodi:nodetypes="ssssssssssssssssss" />
  <path
     id="path2501"
     style="fill:#0097d3;fill-opacity:1;stroke-width:2;stroke-linecap:square"
     d="M 10.5,5 C 9.67157,5 9,5.67157 9,6.5 V 9 h 2 V 8 c 0,-0.554 0.446,-1 1,-1 h 4 c 0.554,0 1,0.446 1,1 v 4 c 0,0.554 -0.446,1 -1,1 h -4 c -0.554,0 -1,-0.446 -1,-1 V 11 H 9 v 2.5 c 0,0.82843 0.67157,1.5 1.5,1.5 h 7 c 0.82843,0 1.5,-0.67157 1.5,-1.5 v -7 C 19,5.67157 18.32843,5 17.5,5 Z"
     sodipodi:nodetypes="ssccssssssssccsssssss" />
</svg>
